<svg xmlns="http://www.w3.org/2000/svg" fill="#fff" viewBox="0 0 64 64">
   <!-- 黑色图形组 -->
   <g fill="#000">
     <!-- 主体外轮廓路径 -->
     <path d="M34.12 1.82c7.42 7.15 14.55 13.74 22.19 19.86 1.99 1.6 4.24 2.91 3.49 5.91q-1.69 6.69-2.15 13.27c-.27 3.82-2.72 6.64-6.15 8.16a1.85 1.8-5.1 00-1.03 1.2q-1.18 4.48-3.5 7.1-4.45 5.01-11.39 5.46c-2.99.19-6.25.31-9.22-.38q-9.25-2.15-12.3-11.23c-.63-1.86-1.71-2.2-3.2-3.09Q6.72 45.6 6.38 40.9q-.48-6.51-2.26-13.75c-.43-1.77.43-3.24 1.82-4.32q5.84-4.51 10.56-8.61 6.82-5.94 13.72-12.43a2.83 2.83 0 013.9.03M27.5 52.85l.02 6.31a1.19 1.19 0 00.88 1.15l.61.17q.98.27.98-.74l.01-6.92q.01-2 2-2.14.29-.02.57.08 1.44.47 1.44 1.99l-.01 7q0 1.04 1 .76l.7-.19a1.05 1.04-7.6 00.78-1.01l.02-6.77a1.56 1.54 69.8 01.53-1.17q.83-.73 1.7-.61 2.03.28 2.02 2.34l-.05 5.12a.61.61 0 00.93.53q5.11-3.18 6.54-8.94c.29-1.18 1.09-2.45 2.24-2.94 2.81-1.18 4.89-3.59 5.08-6.77q.37-6.49 2.07-13.1a1.81 1.8-64.5 00-.66-1.89q-6.41-4.9-12.01-10.12C41 11.37 36.96 8.04 33.24 4.13q-1.04-1.09-2.13-.04Q19.58 15.2 7.12 24.93a1.98 1.96 63.9 00-.69 2.04q1.82 7 2.19 13.73c.11 2.15 2.14 4.99 4.15 5.76 1.4.54 2.52 1.46 3.03 2.9 1.34 3.78 3.31 7.25 6.81 9.25q.64.37.64-.37v-5.09q0-1.96 1.94-2.29.23-.04.47-.01 1.83.16 1.84 2"/>
     <!-- 右侧小图形路径 -->
     <path d="M46.75 27.21a1.77 1.77 0 012.46.46l.53.79a7.34 6.18 55.6 01-.95 9.54l-.28.2a7.34 6.18 55.6 01-9.24-2.57l-.54-.78a1.77 1.77 0 01.46-2.46zm-22.54 5.01a2.06 2.06 0 01.56 2.86l-.36.53a7.36 6.28-56 01-9.32 2.59l-.18-.12a7.36 6.28-56 01-1.09-9.61l.35-.54a2.06 2.06 0 012.86-.55z"/>
     <!-- 底部矩形路径 -->
     <path d="M27.93 47.5a.24.24 0 01-.24-.24v-.15a9.85 4.02 89.8 013.98-9.86h.48a9.85 4.02 89.8 014.06 9.84v.15a.24.24 0 01-.24.24z"/>
   </g>
   <!-- 白色细节路径 -->
   <path d="M27.5 52.85q-.01-1.84-1.84-2-.24-.03-.47.01-1.94.33-1.94 2.29v5.09q0 .74-.64.37c-3.5-2-5.47-5.47-6.81-9.25-.51-1.44-1.63-2.36-3.03-2.9-2.01-.77-4.04-3.61-4.15-5.76q-.37-6.73-2.19-13.73a1.98 1.96 63.9 01.69-2.04Q19.58 15.2 31.11 4.09q1.09-1.05 2.13.04c3.72 3.91 7.76 7.24 11.65 10.86q5.6 5.22 12.01 10.12a1.81 1.8-64.5 01.66 1.89q-1.7 6.61-2.07 13.1c-.19 3.18-2.27 5.59-5.08 6.77-1.15.49-1.95 1.76-2.24 2.94q-1.43 5.76-6.54 8.94a.61.61 0 01-.93-.53l.05-5.12q.01-2.06-2.02-2.34-.87-.12-1.7.61a1.56 1.54 69.8 00-.53 1.17l-.02 6.77a1.05 1.04-7.6 01-.78 1.01l-.7.19q-1 .28-1-.76l.01-7q0-1.52-1.44-1.99-.28-.1-.57-.08-1.99.14-2 2.14l-.01 6.92q0 1.01-.98.74l-.61-.17a1.19 1.19 0 01-.88-1.15zm19.25-25.64l-7.56 5.18a1.77 1.77 0 00-.46 2.46l.54.78a7.34 6.18 55.6 009.24 2.57l.28-.2a7.34 6.18 55.6 00.95-9.54l-.53-.79a1.77 1.77 0 00-2.46-.46m-22.54 5.01l-7.18-4.84a2.06 2.06 0 00-2.86.55l-.35.54a7.36 6.28-56 001.09 9.61l.18.12a7.36 6.28-56 009.32-2.59l.36-.53a2.06 2.06 0 00-.56-2.86m3.72 15.28l8.04-.02a.24.24 0 00.24-.24v-.15a9.85 4.02 89.8 00-4.06-9.84h-.48a9.85 4.02 89.8 00-3.98 9.86v.15a.24.24 0 00.24.24"/>
 </svg>