<svg data-v-ea210746="" xmlns="http://www.w3.org/2000/svg" fill="#fff" viewBox="0 0 64 64" class="ui-icon max-h-full w-full" style="fill: rgb(156, 110, 175); opacity: 1;"><path fill="#000" d="M24.98 15.51L25 8.72q0-2.28 2.28-2.27l9.7.03a2.01 2 89.9 012 2l.03 6.83q0 .55.55.54l4.27-.03q.64-.01.64-.65l-.01-6.43a2.29 2.29 0 012.29-2.29l9.35.01a2.39 2.39 0 012.39 2.39v46.43a2.27 2.27 0 01-2.27 2.27H41.69a2.15 2.15 0 01-2.15-2.06q-.26-5.61-.04-12.11.1-3.19-.94-5.46c-.79-1.72-5.28-7.6-8.09-5.72-4.11 2.76-6.42 5.97-6.29 11q.16 6.28-.03 12.3a2.11 2.1-89.2 01-2.1 2.05l-14.27.01a2.28 2.28 0 01-2.28-2.28l.02-46.57a2.26 2.26 0 012.27-2.26l9.67.02a2.01 2-.1 012.01 1.99l.06 6.88a.43.43 0 00.42.43l4.66.1a.36.36 0 00.37-.36m-7.69 2.26l-.03-8.05a1.05 1.05 0 00-1.05-1.04l-7.7.04q-.77 0-.77.77v45a.76.76 0 00.75.76l13.02.05a.41.41 0 00.41-.4q.19-5.63.03-11.51c-.19-6.66 3.16-11.02 8.89-14.19q.67-.37 1.38-.06c6.11 2.67 9.75 7.6 9.55 14.37q-.16 5.5 0 10.98.02.77.79.77h12.93a.75.75 0 00.75-.75V9.52q0-.98-.97-.95l-7.55.21q-.95.02-.98.98-.13 4.76.1 6.54.21 1.71-1.51 1.7l-7.2-.01q-1.73-.01-1.53-1.73.33-2.75.16-7.22-.01-.32-.32-.32l-8.77.02q-.4 0-.4.4l.01 8.59a.26.25 0 01-.26.25l-9.49.03q-.24 0-.24-.24"></path><path d="M17.29 17.77q0 .24.24.24l9.49-.03a.26.25 0 00.26-.25l-.01-8.59q0-.4.4-.4l8.77-.02q.31 0 .32.32.17 4.47-.16 7.22-.2 1.72 1.53 1.73l7.2.01q1.72.01 1.51-1.7-.23-1.78-.1-6.54.03-.96.98-.98l7.55-.21q.97-.03.97.95v44.99a.75.75 0 01-.75.75H42.56q-.77 0-.79-.77-.16-5.48 0-10.98c.2-6.77-3.44-11.7-9.55-14.37q-.71-.31-1.38.06c-5.73 3.17-9.08 7.53-8.89 14.19q.16 5.88-.03 11.51a.41.41 0 01-.41.4l-13.02-.05a.76.76 0 01-.75-.76v-45q0-.77.77-.77l7.7-.04a1.05 1.05 0 011.05 1.04z"></path></svg>