<svg data-v-ea210746="" xmlns="http://www.w3.org/2000/svg" fill="#fff" viewBox="0 0 64 64" class="ui-icon max-h-full w-full" style="opacity: 1;"><path d="M25.82 40.47l-2.19 8.05a2.65 2.64-82.4 01-2.55 1.96l-15.13.05a2.27 2.26 7.4 01-2.2-2.85l4.31-16.12q.12-.43-.12-.81-2.77-4.39.22-8.14.33-.42.33-.95V17.7a1.92 1.92 0 011.93-1.92q17.11.06 34.58-.15 3.67-.04 5.76-.91c10.5-4.38 10.04 5.31 9.28 11.88q-.07.63-.64.91-1.59.78-3.59.44a.89.88-84.2 00-1.02.84q-.1 2.17-2.3 2.19-7.22.03-14.52.02a.81.81 0 00-.8.67c-.55 3.14-1.36 8.47-5.45 8.38q-2.7-.06-5.18-.12-.57-.01-.72.54m-1.11-2.77l7.15.05a1.54 1.53 8.9 001.48-1.07l2.38-7.4q.18-.53.74-.54l15.39-.09q.85 0 .61-.82-.27-.95.3-1.53.6-.61 1.64-.55 1.61.1 3-.19.51-.1.56-.62c.25-2.83.43-6.59-2.01-8.51q-1.87-1.47-2.95.8a1.41 1.39 12.8 01-1.26.78H11.21q-.54 0-.53.53l.04 4.92a.99.96 76.6 01-.52.87q-1.73.91-1.21 3.52.23 1.12 1.35.77a.54.54 0 01.68.65L6.2 47.51a.59.59 0 00.57.74H20.8q.58-.01.72-.56l2.43-9.41q.15-.59.76-.58"></path><path d="M25.29 33.45l1.1-4.27a.48.48 0 01.45-.36l4.56-.14a.48.48 0 01.48.61l-1.19 4.3a.48.48 0 01-.46.35l-4.47.1a.48.48 0 01-.47-.59"></path><path fill="#000" d="M23.95 38.28l-2.43 9.41q-.14.55-.72.56H6.77a.59.59 0 01-.57-.74l4.82-18.24a.54.54 0 00-.68-.65q-1.12.35-1.35-.77-.52-2.61 1.21-3.52a.99.96 76.6 00.52-.87l-.04-4.92q-.01-.53.53-.53h40.53a1.41 1.39 12.8 001.26-.78q1.08-2.27 2.95-.8c2.44 1.92 2.26 5.68 2.01 8.51q-.05.52-.56.62-1.39.29-3 .19-1.04-.06-1.64.55-.57.58-.3 1.53.24.82-.61.82l-15.39.09q-.56.01-.74.54l-2.38 7.4a1.54 1.53 8.9 01-1.48 1.07l-7.15-.05q-.61-.01-.76.58m1.34-4.83a.48.48 0 00.47.59l4.47-.1a.48.48 0 00.46-.35l1.19-4.3a.48.48 0 00-.48-.61l-4.56.14a.48.48 0 00-.45.36z"></path></svg>