<svg data-v-ea210746="" viewBox="0 0 157 78" xmlns="http://www.w3.org/2000/svg" fill="#7d7d7d" class="ui-icon max-h-full w-full" style="fill: rgb(240, 153, 153); opacity: 1;"><g fill="#000"><path d="M24.04 4.66c2.38-.57 4.43-2.38 7-2.08 34.65.03 69.29.03 103.94 0 2.98.09 6.1-.35 8.97.68 2.3.57 1.68 3.57 2.23 5.34 2.76 1.73 6.07 2.09 8.96 3.35.38 3.63.44 7.34-.03 10.97-2.69 1.51-6.23 1.64-8.95 3.45.09 3.05-1.35 6.6-4.93 6.46-12.72.28-25.45.03-38.17.1-5.33-.13-10.7.44-15.99-.42.67 5.93-3.16 11.98-9.18 13.06-8.62.97-17.36-.24-25.99.61-4.54.71-5.9 5.53-7.69 9.05-1.69 3.88-4.14 7.46-5.31 11.55-.53 3.4-.07 8.44-4.07 9.86-7.91.62-15.88.04-23.82.27-3.05-.12-6.68.54-9.1-1.8-2.26-3.13.09-6.68 1.77-9.45 6.14-9.63 11.33-19.87 18-29.15 1-1.34.73-3.09.93-4.64-2.9-.18-6 .42-8.75-.74-.67-1.18-1.12-2.47-1.62-3.73-.88-.4-1.76-.79-2.64-1.17-1.35-3.04-1.1-6.38-1.01-9.61-4.05-.77-3.41-5.18-3.09-8.3.17-1.97 2.43-2.2 3.92-2.72 4.73-1.58 9.75-.52 14.62-.94m3.92 1.3c0 .52-.01 1.58-.02 2.1-5.54.39-11.1.07-16.64.34 7.53.92 15.13-.13 22.69.15 36.33-.15 72.65.14 108.97-.06.02-.63.07-1.9.09-2.53-38.36-.02-76.72-.01-115.09 0m47.1 5.8c-.14 2.13-.46 4.25-1.07 6.3-5.69-.22-11.38.09-17.07-.11-1.88.2-2.39-1.93-3.44-3.02.17-.72.52-2.18.69-2.91-7.65.86-15.41-.07-23.11.39-6.37-.68-12.77-.59-19.17-.54l-.12 2.12c.02 3.27.06 6.54.09 9.81 22.34.19 44.68.06 67.02 0 .01-4.03.08-8.06.16-12.08-1.32.01-2.65.02-3.98.04m-19.49.14c.5 1.2 1.04 2.39 1.62 3.57 4.8.08 9.6.03 14.41.09l.02-.61c.99-.77 1.56-1.8 1.72-3.08-5.93-.02-11.85-.06-17.77.03m28.01.23c1.09.47 2.22.73 3.39.78 15.33-.04 30.66-.06 46 0 1.86.01 3.73-.15 5.56-.5-18.3-.61-36.64-.11-54.95-.28m61.34-.27c-.04 3.68-.01 7.35.19 11.02.59-.1 1.77-.29 2.36-.39.11-3.48.16-6.96.19-10.45-.68-.04-2.05-.13-2.74-.18m-63.93.78c-.03 3.5 0 7.01.17 10.51 3.21-1.63 3.15-5.11 2.98-8.25-1.05-.75-2.1-1.51-3.15-2.26m56.93 2.22c.05 1.99.36 3.95.57 5.93 1.39.74 2.79 1.48 4.18 2.24-.2-3.51.06-7.02.51-10.5-1.84.53-3.84.95-5.26 2.33m12.33 1.12l-.57-.02c.01 1.58.02 3.17.04 4.75l2.19.16.06-5.1c1.53-2.65-3.78-2.04-1.72.21m-63.93 3.93c2.89.09 5.79.13 8.69.13 0-.75-.01-2.23-.01-2.97.02-.54.05-1.61.07-2.14-2.84.04-5.75-.27-8.55.31-.64 1.49-.19 3.12-.2 4.67m10.32-4.94c.14.42.42 1.28.56 1.7-.07.84-.23 2.51-.3 3.35h6.11c0-.72-.01-2.16-.01-2.88.02-.56.05-1.68.07-2.23-2.14.01-4.29.03-6.43.06m8.28-.02c.04.56.14 1.67.19 2.23-.05.71-.14 2.13-.18 2.85 2.03-.01 4.06-.01 6.09-.02-.01-.76-.01-2.29-.02-3.05.02-.51.06-1.54.07-2.05-2.05.01-4.1.02-6.15.04m7.71.02c.15.42.43 1.28.57 1.7-.07.84-.23 2.51-.3 3.35h6.11c0-.72-.01-2.16-.01-2.88.02-.56.05-1.68.07-2.23-2.14.01-4.29.03-6.44.06m8.29-.02c.04.56.14 1.67.19 2.23-.05.71-.14 2.13-.19 2.85 2.03-.01 4.07-.01 6.1-.02-.01-.76-.01-2.29-.02-3.05.02-.51.06-1.54.07-2.05-2.05.01-4.1.02-6.15.04m8-.01c.04.55.14 1.65.18 2.2-.04.72-.13 2.16-.17 2.88 2.38 0 4.77.01 7.16 0-.04-.74-.13-2.24-.18-2.99l.16-2.1c-2.38-.01-4.77 0-7.15.01m-45.33 8.77c12.14.33 24.28.05 36.42.14 6.48-.11 12.98.31 19.44-.3-3.5-2.06-7.63-1.32-11.48-1.42-13 .02-26.01.02-39.02-.01-1.95-.2-3.71.67-5.36 1.59m-69.06 3.32c2.18 3.43 6.62 1.48 9.95 2.02 1.54 2.94 1.94 6.69-.22 9.46-4.62 6.38-8.36 13.33-12.47 20.04-2.64 4.77-6.1 9.13-7.91 14.33 3.95 1.11 8.08.76 12.13.74 6.18-.04 12.35-.02 18.53.02.74-3.61.49-7.49 2.33-10.79 2.69-5.3 4.89-10.87 8.1-15.88 3.34-4.74 9.7-4.55 14.86-4.23-2.63-4.13-2.98-9.39-.64-13.73l.71-.01c1.27-.69 2.64-1.21 4.11-1.1 5.07-.03 10.14.1 15.21-.05 4.22 3.18 4 9.16 1.54 13.38 3.26-3.53 3.41-8.33 3.21-12.87.22-.24.65-.72.86-.96-1.26-.9-2.55-.91-3.87-.01-7.22-.87-14.64-.06-21.94-.35-14.83-.1-29.66-.08-44.49-.01m73.07.03c.42 1.12 1.03 2.72 2.52 2.56 16.31.04 32.62 0 48.93.02 1.81.04 4.19-.33 4.32-2.58-18.59-.12-37.18-.13-55.77 0M59.98 34.8l-.32.21c.46 1.86.48 3.94 1.62 5.55 1.7.34 3.44.41 5.16.58-1.82-2.88-2.73-6.2-1.7-9.56.36-.73.71-1.47 1.07-2.21-3.01.08-6.55 1.81-5.83 5.43m9.09-3.85c-2.16 1.98-1.38 5.07-.69 7.52 2.98 1.37 6.64 2.36 9.68.65 1.51-2.46 1.68-5.87-.06-8.26-2.94-.49-6-.5-8.93.09z"></path><path d="M31.07 12.8c6.99.08 14.05-.68 20.98.5-.06 2.57-.11 5.14-.17 7.71-6.96.12-13.92.06-20.87.06.01-2.34.03-4.68.05-7.02l.01-1.25m1.58 2.16l.64 2.17c3.41.92 7.17-.01 10.72.34 2.36-.14 6.56 1.33 6.31-2.52-5.89 0-11.78-.01-17.67.01zM31 32.3c1-.93 1.98-1.87 2.96-2.81 1.47.27 2.81.84 3.71 2.09-1.54.12-3.08.22-4.61.31-.14 2.63.44 5.61-1.48 7.75-5.88 7.8-11.27 15.95-17.15 23.74-.92 1.29-1.32 2.85-1.82 4.33 4.7 3.64 10.8 2 16.26 2.27 1.73-2.33 2.43-5.11 2.31-8 .47 0 1.41 0 1.88-.01.37 3.6-.67 7-2.43 10.09-4.57-.06-9.15.18-13.71-.05-2.44-.03-4.21-1.97-6.09-3.26.25-1.94-.09-4.13 1.18-5.79 6.4-8.72 12.59-17.6 18.94-26.35.02-1.44.03-2.87.05-4.31z"></path><path d="M36.98 34.03l4-.06c0 1.34.01 2.69.01 4.04l-4-.03c-.01-1.32-.01-2.63-.01-3.95zM21.03 63.94h3.94l.03 4.05h-4.02c.02-1.35.04-2.7.05-4.05z"></path></g><path d="M27.96 5.96c38.37-.01 76.73-.02 115.09 0-.02.63-.07 1.9-.09 2.53-36.32.2-72.64-.09-108.97.06-7.56-.28-15.16.77-22.69-.15 5.54-.27 11.1.05 16.64-.34.01-.52.02-1.58.02-2.1zm-16.07 5.91c6.4-.05 12.8-.14 19.17.54 7.7-.46 15.46.47 23.11-.39-.17.73-.52 2.19-.69 2.91-.36-.4-1.07-1.22-1.43-1.63-6.93-1.18-13.99-.42-20.98-.5l-.01 1.25c-6.43.03-12.86 0-19.29-.06l.12-2.12zm43.68.03c5.92-.09 11.84-.05 17.77-.03-.16 1.28-.73 2.31-1.72 3.08l-.02.61c-4.81-.06-9.61-.01-14.41-.09-.58-1.18-1.12-2.37-1.62-3.57zm94.68 4.08c-2.06-2.25 3.25-2.86 1.72-.21-.43.05-1.29.16-1.72.21zm-117.6-1.02c5.89-.02 11.78-.01 17.67-.01.25 3.85-3.95 2.38-6.31 2.52-3.55-.35-7.31.58-10.72-.34l-.64-2.17zm53.87.28c2.8-.58 5.71-.27 8.55-.31-.02.53-.05 1.6-.07 2.14-2.87-.01-5.75-.08-8.58-.57.03-.31.08-.94.1-1.26zm10.12-.27c2.14-.03 4.29-.05 6.43-.06-.02.55-.05 1.67-.07 2.23-1.94-.13-3.87-.24-5.8-.47-.14-.42-.42-1.28-.56-1.7zm8.28-.02c2.05-.02 4.1-.03 6.15-.04-.01.51-.05 1.54-.07 2.05-1.96.07-3.93.14-5.89.22-.05-.56-.15-1.67-.19-2.23zm7.71.02c2.15-.03 4.3-.05 6.44-.06-.02.55-.05 1.67-.07 2.23-1.94-.13-3.87-.24-5.8-.47-.14-.42-.42-1.28-.57-1.7zm8.29-.02c2.05-.02 4.1-.03 6.15-.04-.01.51-.05 1.54-.07 2.05-1.96.07-3.93.14-5.89.22-.05-.56-.15-1.67-.19-2.23zm8-.01c2.38-.01 4.77-.02 7.15-.01l-.16 2.1c-2.27.02-4.54.06-6.81.11-.04-.55-.14-1.65-.18-2.2zM14.53 27.03c14.83-.07 29.66-.09 44.49.01L59.9 29l-.71.01c-11.57.02-23.14-.05-34.71.04-3.33-.54-7.77 1.41-9.95-2.02zm66.43.36c1.32-.9 2.61-.89 3.87.01-.21.24-.64.72-.86.96-1.03-.22-2.04-.55-3.01-.97zm6.64-.33c18.59-.13 37.18-.12 55.77 0-.13 2.25-2.51 2.62-4.32 2.58-16.31-.02-32.62.02-48.93-.02-1.49.16-2.1-1.44-2.52-2.56zM59.98 34.8c-.72-3.62 2.82-5.35 5.83-5.43-.36.74-.71 1.48-1.07 2.21-1.6 1.06-3.18 2.14-4.76 3.22z" fill="#e7e8e7"></path><path d="M75.06 11.76c1.33-.02 2.66-.03 3.98-.04-.08 4.02-.15 8.05-.16 12.08-22.34.06-44.68.19-67.02 0-.03-3.27-.07-6.54-.09-9.81 6.43.06 12.86.09 19.29.06-.02 2.34-.04 4.68-.05 7.02 6.95 0 13.91.06 20.87-.06.06-2.57.11-5.14.17-7.71.36.41 1.07 1.23 1.43 1.63 1.05 1.09 1.56 3.22 3.44 3.02 5.69.2 11.38-.11 17.07.11.61-2.05.93-4.17 1.07-6.3zm8.52.37c18.31.17 36.65-.33 54.95.28-1.83.35-3.7.51-5.56.5-15.34-.06-30.67-.04-46 0a9.52 9.52 0 01-3.39-.78zm61.34-.27c.69.05 2.06.14 2.74.18-.03 3.49-.08 6.97-.19 10.45-.59.1-1.77.29-2.36.39-.2-3.67-.23-7.34-.19-11.02zm-63.93.78c1.05.75 2.1 1.51 3.15 2.26.17 3.14.23 6.62-2.98 8.25-.17-3.5-.2-7.01-.17-10.51zm56.93 2.22c1.42-1.38 3.42-1.8 5.26-2.33-.45 3.48-.71 6.99-.51 10.5-1.39-.76-2.79-1.5-4.18-2.24-.21-1.98-.52-3.94-.57-5.93zm-51.6 5.05c.01-1.55-.44-3.18.2-4.67-.02.32-.07.95-.1 1.26 2.83.49 5.71.56 8.58.57 0 .74.01 2.22.01 2.97-2.9 0-5.8-.04-8.69-.13zm63.36-3.95l.57.02c.43-.05 1.29-.16 1.72-.21l-.06 5.1-2.19-.16c-.02-1.58-.03-3.17-.04-4.75zm-52.48.71c1.93.23 3.86.34 5.8.47 0 .72.01 2.16.01 2.88H96.9c.07-.84.23-2.51.3-3.35zm7.91.51c1.96-.08 3.93-.15 5.89-.22.01.76.01 2.29.02 3.05-2.03.01-4.06.01-6.09.02.04-.72.13-2.14.18-2.85zm8.09-.51c1.93.23 3.86.34 5.8.47 0 .72.01 2.16.01 2.88h-6.11c.07-.84.23-2.51.3-3.35zm7.91.51c1.96-.08 3.93-.15 5.89-.22.01.76.01 2.29.02 3.05-2.03.01-4.07.01-6.1.02.05-.72.14-2.14.19-2.85zm7.99-.04c2.27-.05 4.54-.09 6.81-.11.05.75.14 2.25.18 2.99-2.39.01-4.78 0-7.16 0 .04-.72.13-2.16.17-2.88zm-45.51 6.57c1.65-.92 3.41-1.79 5.36-1.59 13.01.03 26.02.03 39.02.01 3.85.1 7.98-.64 11.48 1.42-6.46.61-12.96.19-19.44.3-12.14-.09-24.28.19-36.42-.14zm-24.57 3.33c7.3.29 14.72-.52 21.94.35.97.42 1.98.75 3.01.97.2 4.54.05 9.34-3.21 12.87 2.46-4.22 2.68-10.2-1.54-13.38-5.07.15-10.14.02-15.21.05-1.47-.11-2.84.41-4.11 1.1l-.88-1.96zm-34.54 2.01c11.57-.09 23.14-.02 34.71-.04-2.34 4.34-1.99 9.6.64 13.73-5.16-.32-11.52-.51-14.86 4.23-3.21 5.01-5.41 10.58-8.1 15.88-1.84 3.3-1.59 7.18-2.33 10.79-6.18-.04-12.35-.06-18.53-.02-4.05.02-8.18.37-12.13-.74 1.81-5.2 5.27-9.56 7.91-14.33 4.11-6.71 7.85-13.66 12.47-20.04 2.16-2.77 1.76-6.52.22-9.46M31 32.3c-.02 1.44-.03 2.87-.05 4.31-6.35 8.75-12.54 17.63-18.94 26.35-1.27 1.66-.93 3.85-1.18 5.79 1.88 1.29 3.65 3.23 6.09 3.26 4.56.23 9.14-.01 13.71.05 1.76-3.09 2.8-6.49 2.43-10.09-.47.01-1.41.01-1.88.01.12 2.89-.58 5.67-2.31 8-5.46-.27-11.56 1.37-16.26-2.27.5-1.48.9-3.04 1.82-4.33 5.88-7.79 11.27-15.94 17.15-23.74 1.92-2.14 1.34-5.12 1.48-7.75 1.53-.09 3.07-.19 4.61-.31-.9-1.25-2.24-1.82-3.71-2.09-.98.94-1.96 1.88-2.96 2.81m5.98 1.73c0 1.32 0 2.63.01 3.95l4 .03c0-1.35-.01-2.7-.01-4.04l-4 .06M21.03 63.94c-.01 1.35-.03 2.7-.05 4.05H25l-.03-4.05h-3.94z"></path><path d="M59.98 34.8c1.58-1.08 3.16-2.16 4.76-3.22-1.03 3.36-.12 6.68 1.7 9.56-1.72-.17-3.46-.24-5.16-.58-1.14-1.61-1.16-3.69-1.62-5.55l.32-.21z"></path></svg>