<svg data-v-ea210746="" xmlns="http://www.w3.org/2000/svg" viewBox="0 0 64 64" fill="#fff" class="ui-icon max-h-full w-full" style="fill: rgb(114, 204, 114); opacity: 1;"><path fill="#000" d="M45.61 55.25a.66.66 0 00-.64-.49H19.04a.7.69 6.2 00-.68.54q-.97 4.1-4.84 4.58-5.66.69-7.05-4.45-.16-.58-.76-.58-1.27 0-2.21-.79-.51-.43-.51-1.09L3 45.28q0-.55.36-.98c.51-.58 1.08-1.33 1.1-2.14q.05-3.65-.03-7.38c-.05-2.3 1.29-4.2 2.29-6.14q.2-.4.04-.81c-.34-.88-1.33-1.36-1.79-2.2q-2.07-3.75 1.58-6.64a1.24 1.21-19.8 00.46-.95l-.02-9.27a1.99 1.99 0 011.99-2l46.09.05a1.93 1.92 90 011.92 1.93v9.22q0 .54.41.9 4.75 4.18.06 8.47a.89.88-31.5 00-.23.95c.72 1.94 2.24 3.8 2.26 5.9q.03 3.79-.04 7.68c-.01 1.04.54 1.68 1.18 2.41q.38.43.37 1-.03 3.74.02 7.34c.02 1.59-1.38 2.36-2.81 2.12a.58.57 10.4 00-.66.45q-.95 4.58-5.66 4.8-4.97.23-6.28-4.74M8.76 53.28l-.01 1.97q0 .67.47 1.13c2.82 2.78 7.34 1.25 7.05-3.14q-.05-.75.7-.75l30.04.05a.74.74 0 01.73.77c-.29 6.44 8.69 5.43 7.45.02a.63.63 0 01.6-.77l1.82-.01q1.15-.01 1.14-1.16l-.04-5.18q-.01-.6-.46-1.01l-.59-.54a1.15 1.13-69.9 01-.38-.83q-.08-3.94.01-8.27c.06-2.63-1.58-4.94-2.57-7.29a2.12 2.11-25.4 01.96-2.69q1.97-1.05 1.64-3.15-.1-.61-.61-.95l-1.55-1.02a.92.92 0 01-.43-.78l.01-10.19q0-.5-.5-.5L9.76 8.98q-.5 0-.5.51l-.01 10.18q0 .53-.44.8l-1.35.83a2 1.99 58.2 00-.64 2.75q.63 1.02 1.56 1.67 1.49 1.03.78 2.7c-1.05 2.44-2.58 4.66-2.48 7.48q.15 4.17.03 8.13a.92.92 0 01-.5.8l-.38.19q-.55.29-.55.9l-.01 5.84q-.01.75.74.75l2.02.02q.74.01.73.75"></path><path d="M8.03 52.53l-2.02-.02q-.75 0-.74-.75l.01-5.84q0-.61.55-.9l.38-.19a.92.92 0 00.5-.8q.12-3.96-.03-8.13c-.1-2.82 1.43-5.04 2.48-7.48q.71-1.67-.78-2.7-.93-.65-1.56-1.67a2 1.99 58.2 01.64-2.75l1.35-.83q.44-.27.44-.8l.01-10.18q0-.51.5-.51l44.48.01q.5 0 .5.5l-.01 10.19a.92.92 0 00.43.78l1.55 1.02q.51.34.61.95.33 2.1-1.64 3.15a2.12 2.11-25.4 00-.96 2.69c.99 2.35 2.63 4.66 2.57 7.29q-.09 4.33-.01 8.27a1.15 1.13-69.9 00.38.83l.59.54q.45.41.46 1.01l.04 5.18q.01 1.15-1.14 1.16l-1.82.01a.63.63 0 00-.6.77c1.24 5.41-7.74 6.42-7.45-.02a.74.74 0 00-.73-.77l-30.04-.05q-.75 0-.7.75c.29 4.39-4.23 5.92-7.05 3.14q-.47-.46-.47-1.13l.01-1.97q.01-.74-.73-.75m41.96-37.6a.49.49 0 00-.49-.49h-35a.49.49 0 00-.49.49v8.32a.49.49 0 00.49.49h35a.49.49 0 00.49-.49zm-7.7 21.39a.32.32 0 00-.32-.32H22.03a.32.32 0 00-.32.32v7.36a.32.32 0 00.32.32h19.94a.32.32 0 00.32-.32zm-23.739 3.215a.46.46 0 00-.455-.465l-7.6-.08a.46.46 0 00-.465.456l-.042 4.06a.46.46 0 00.455.464l7.6.08a.46.46 0 00.465-.456zm35.432-.11a.41.41 0 00-.412-.408l-7.68.026a.41.41 0 00-.408.412l.014 4.16a.41.41 0 00.412.408l7.68-.026a.41.41 0 00.408-.412z"></path><rect fill="#000" width="35.98" height="9.3" x="14.01" y="14.44" rx=".49"></rect><rect fill="#000" width="20.58" height="8" x="21.71" y="36" rx=".32"></rect><rect fill="#000" width="8.52" height="4.98" x="-4.26" y="-2.49" rx=".46" transform="rotate(.6 -3957.697 1383.432)"></rect><rect fill="#000" width="8.5" height="4.98" x="-4.25" y="-2.49" rx=".41" transform="rotate(-.2 11919.462 -14228.686)"></rect></svg>