<svg data-v-ea210746="" xmlns="http://www.w3.org/2000/svg" fill="#fff" viewBox="0 0 64 64" class="ui-icon max-h-full w-full" style="opacity: 1;"><path fill="#000" d="M28.47 20.97q-.01 1.26 1.25 1.27l4.51.03q1.27.01 1.26-1.25l-.02-4.52a2.03 2.02-.3 012.03-2.04l7.5-.01a2.19 2.19 0 012.2 2.18q.03 6.32.03 12.81-.01.93 1.02.58A1.33 1.33 0 0150 31.28l.01 16.48a1.78 1.78 0 01-1.78 1.78l-32.26.01a1.98 1.98 0 01-1.98-1.99q.01-6.83-.23-15.06-.05-1.73 2.83-2.89a.32.31 78.8 00.19-.29l.01-12.85a2 1.99-.1 011.99-1.99l7.69-.04a2.02 2.02 0 012.03 2.03zm-9.46 10.82a.52.52 0 01-.56.52l-1.64-.14a.52.52 0 00-.56.52v14.05a.52.52 0 00.52.52l30.46.01a.52.52 0 00.52-.52V32.73a.52.52 0 00-.55-.52l-1.67.09a.52.52 0 01-.55-.52l-.01-14.65a.52.52 0 00-.52-.51l-6.15.06a.52.52 0 00-.52.51l-.07 6.79a.52.52 0 01-.52.51l-10.39.01a.52.52 0 01-.52-.52l-.04-6.74a.52.52 0 00-.52-.52l-6.2-.03a.52.52 0 00-.52.52z"></path><path d="M19.01 31.79L19 17.21a.52.52 0 01.52-.52l6.2.03a.52.52 0 01.52.52l.04 6.74a.52.52 0 00.52.52l10.39-.01a.52.52 0 00.52-.51l.07-6.79a.52.52 0 01.52-.51l6.15-.06a.52.52 0 01.52.51l.01 14.65a.52.52 0 00.55.52l1.67-.09a.52.52 0 01.55.52v14.02a.52.52 0 01-.52.52l-30.46-.01a.52.52 0 01-.52-.52V32.69a.52.52 0 01.56-.52l1.64.14a.52.52 0 00.56-.52"></path></svg>