<svg data-v-ea210746="" viewBox="0 0 408 118" xmlns="http://www.w3.org/2000/svg" fill="#7e7f7e" class="ui-icon max-h-full absolute left-1/2 top-1/2 -translate-x-1/2 -translate-y-1/2 z-[201] w-[70%]" style="fill: rgb(192, 179, 239); opacity: 1;"><g fill="#000"><path d="M145.43 3.47c1.52-2.35 4.69-3.52 7.24-2.07 3.4 1.76 6.82 3.62 9.86 5.96 2.39 1.79 2.81 4.87 3.24 7.62 5.64-.05 12.37-1.02 16.4 3.92 44.28.38 88.56-.07 132.84.17 7.25-.05 14.51.03 21.76-.17.04-4.02-.4-8.09.33-12.07.5-3.29 5.15-4.66 7.5-2.38 2.84 2.36 1.61 6.44 2.2 9.61 2.06 1.73 4.7 2.63 6.7 4.47 3.58.66 7.53 1.94 8.8 5.77 2.34.08 4.69.14 7.04.2.5.88 1 1.76 1.51 2.65 11.89.17 23.8-.45 35.67.34.41 4.99.42 10.02 0 15.02-11.95.77-23.94.17-35.9.33-.08 1.76-.14 3.53-.19 5.29 2.45.01 4.91.04 7.37.11.58 5.12.57 10.29.06 15.41-2.49.15-4.97.25-7.45.4-.8 1.65-1.36 3.94-3.43 4.39-3.17.64-6.68.06-9.47 2.02-2.83 1.85-6.31 1.42-9.51 1.55-19-.01-38.01-.1-57.01.03-2.27.05-4.55-.38-6.5-1.59-3.42-2.27-7.67-1.39-11.52-1.46-10.49.08-20.98-.23-31.46.16.19 9.26.02 18.51.11 27.77-.12 1.65.34 4.47-2.01 4.6-12.84 2.3-25.74 4.28-38.6 6.5-1.39.05-3.7 1-4.2-.99-.42-7.56-.12-15.15-.09-22.72-11.54.87-23.14 0-34.7.45-2.38.11-4.54 1.57-5.73 3.6-4.03 6.12-7.75 12.45-11.9 18.49.56 1.64 1.42 3.24 1.51 5-1.61 1.99-3.44 5.74-6.54 4.63-7.35-2.3-14.72-4.58-22.06-6.93-2.52-.74-4.54-3.43-3.74-6.09 1.02-4.35 5.2-6.74 7.87-10.01 6.5-7.95 14.01-15.27 18.87-24.42-11.69-1.4-23.52-.33-35.28-.68-3.66 0-7.35-.14-10.97.55-23.69 4.24-47.4 8.43-71.1 12.66-5.17.41-10.65 1.06-15.57-.98-1.02-2.08-2.23-4.15-2.32-6.52-1.23-12.67-2.33-25.34-3.6-38-.47-2.81.47-5.98 2.95-7.57 1.72-.88 3.72-.72 5.59-.82 21 .12 42.01 0 63.01.08 2.68.02 5.36-.23 7.99-.74 8.45-1.56 16.96-2.84 25.51-3.72 7.5-.57 15.04.11 22.54-.38 4.22-.96 7.98-3.43 12.31-4.09-.2-5.36.34-11.16 4.07-15.35m-.59 9.62c-.26 4.27-.02 8.55-.11 12.83 11.92-.06 23.85.13 35.77-.1-.18-.21-.53-.63-.71-.84 1.55-3.54-1.73-5.17-4.04-6.9-3.55-.16-7.11-.04-10.66-.28-1.45.12-1.85-1.38-2.5-2.33-.43-1.63-.41-3.41-1.23-4.91-2.42-1.95-5.41-3.05-7.92-4.88-1.4-1.08-3.09-1.74-4.88-1.6-1.42 2.92-3.64 5.62-3.72 9.01m195.29-4.2c-.37 5.63-.2 11.27-.07 16.9 3.7-.06 7.41-.06 11.12-.01-.02-1.6.02-3.2-.17-4.79-1.81-2.58-6.04-2.43-7.27-5.61-.58-2.48-.48-5.06-.67-7.58.96-3.4-4.6-1.24-2.94 1.09m-200.57 13.2c-2.51 1.25-4.96 2.67-7.6 3.63-10.2.98-20.63-1.01-30.66 1.61-5.61.27-11.08 1.62-16.66 2.14 3.29.89 6.46 2.19 9.81 2.87 3.05.9 6.04 1.95 9.05 2.99.97.36 1.95.72 2.93 1.07 2.79.64 5.65 1.15 8.2 2.53 8.47.3 16.95.04 25.42.15 2.1.17 4.07-.54 5.97-1.34-.05-3.34-.06-6.67-.09-10.01-1.08-.04-2.16-.08-3.23-.11l-.42-3.57.65-.19c.03-.46.1-1.38.13-1.84-1.17.02-2.33.04-3.5.07m42.41-.03c0 .55-.01 1.65-.01 2.2.01.41.04 1.23.05 1.64 8.66-.31 17.34-.09 26.01-.15 43.29.05 86.58-.12 129.87.08.05-.75.15-2.26.19-3.02l-.05-.74c-52.02-.13-104.04-.16-156.06-.01m170.7-.09c-.13 3.75 3.72 2.47 6.14 2.7-.71-.88-1.44-1.76-2.15-2.63-1.33-.02-2.67-.05-3.99-.07m-166.76 5.95c.31 1.6.61 3.21.51 4.85l-.15.29c-.15 1.91-.27 3.82-.36 5.73-3.15-2.37-7.02-3.34-10.92-3.35-8.66-.12-17.32-.05-25.99-.01-.03 2.55-.07 5.11-.11 7.67 51.03-.01 102.05.14 153.08.22 2.49.02 4.99-.07 7.47-.34a7.33 7.33 0 012.4-2.55l.24-2.4c.47-.02 1.39-.05 1.85-.07.06 1.87.12 3.74.2 5.6 2.25-.17 4.04-1.4 5.53-3.01.23-1.37.65-2.66 2.19-2.99.11 1.95.19 3.89.26 5.84 1.09-.16 2.19-.32 3.29-.5.71-.95 1.53-1.78 2.47-2.51.03-.58.1-1.76.14-2.34.48-.02 1.45-.05 1.94-.07.03 1.8.06 3.59.11 5.39 1.11-.15 2.23-.3 3.36-.46.65-.98 1.46-1.81 2.43-2.49l.28-2.46 1.82.08c.05 1.84.1 3.68.17 5.52 2.31-.16 4.12-1.48 5.73-3.04.07-.63.2-1.9.26-2.53.46 0 1.37-.01 1.82-.01.05 1.86.11 3.72.19 5.58 2.31-.18 4.13-1.5 5.75-3.06.06-.63.19-1.89.25-2.51.45-.01 1.36-.01 1.81-.01.05 1.76.1 3.52.16 5.29 4.34-.26 8.68-.17 13.02-.15.06-4.39 0-8.79.38-13.17-.2-.46-.61-1.38-.81-1.85-2.55-.23-5.11-.11-7.67-.15-57.7-.03-115.4.01-173.1-.03m183.43 2.17c.05 3.16.03 6.32.07 9.47 11.38.16 22.77.11 34.15.02-.02-2.48-.03-4.96-.06-7.44.23-.51.68-1.53.9-2.04-11.66-.11-23.34-.36-34.99.11l-.07-.12M6.1 31.24c-1.56 1-1.41 3.09-1.34 4.7 1.27 12.35 2.38 24.71 3.48 37.08.18 1.57.45 3.18 1.18 4.6 1.57 1.2 3.68.96 5.52 1.28-.34-16.01-2.62-31.92-2.94-47.93-1.97.04-3.94.01-5.9.27m7.89-.26l-.04 2.12.6-.01c-.31 4 .22 7.99.58 11.97.72 11.21 1.51 22.42 2.37 33.62 5.76-.03 11.33-1.6 17-2.42 18.77-3.5 37.62-6.62 56.39-10.13 2.36-.46 4.74-.86 7.14-.93 33.23-.06 66.45-.32 99.67-.29-.36-5.74 1.29-12.78-3.41-17.19-1.77-2.09-4.63-1.8-7.08-1.87-.06 4.02-.08 8.04-.16 12.05-13.69.01-27.38-.05-41.06.04-.04-4.92.01-9.84-.02-14.76 0-.53-.01-1.58-.01-2.11-10.31-.24-20.63-.01-30.95-.11-1.6.01-3.03-.82-4.52-1.3-1.26-.51-2.61-.69-3.93-.92-1.97-.82-3.97-1.56-6.05-2.05-.98-.37-1.96-.71-2.95-1.04-1-.35-2-.68-3.01-.99-1.66-.55-3.37-.93-5.04-1.42-1.04-.27-2.07-.55-3.1-.86-.98-.36-1.94-.79-2.88-1.26-3.12-.8-6.31-.06-9.46-.14-20.03-.01-40.05-.02-60.08 0m134.92 13.97l-.12 2.57c.95-.06 2.84-.17 3.79-.23-.36.19-1.08.57-1.45.76-.57.05-1.73.14-2.31.19.12 2.58.22 5.16.3 7.74 11.93-.5 23.89-.27 35.83-.15-.05-2.95-.08-5.9-.23-8.85.16-.5.48-1.51.65-2.01-12.16-.07-24.31-.02-36.46-.02m45.75 0c.99.85 2 1.7 2.99 2.57.71-.07 2.14-.2 2.85-.26-.66.26-1.98.77-2.64 1.02 2.99 4.18 2.14 9.37 2.21 14.17 1.47 1.19 2.74 3.16 4.93 2.74 10.14-.06 20.29.07 30.43-.09a5.52 5.52 0 012.52-2.66c.2-5.08.12-10.17.05-15.25l-.12-2.25c-14.41 0-28.82-.02-43.22.01m165.24-.01l-.08 2.04c.14 6.23-.16 12.48.26 18.7 2.17-.08 4.34-.15 6.51-.23 1.06-6.09.4-12.3.65-18.45-.03-.52-.08-1.55-.11-2.06h-7.23m-119.54 2.45h-.02c.12 4.97.08 9.95 0 14.93 1.36.57 2.66 1.28 3.3 2.7 6.07.15 12.15.04 18.23.03 2.86-5.74 6.01-11.33 8.44-17.27l.62.02c0-.41-.02-1.22-.02-1.63-9.61.19-19.23-.15-28.83.14l-1.72 1.08m35 .6c-3.25 5.42-6.01 11.13-8.51 16.93.75.04 2.24.13 2.99.17 2.79-5.58 5.86-11.04 8.23-16.82 3.47-2.27-3.68-3.54-2.71-.28m7.5.1c-2.48 5.73-5.72 11.11-8.06 16.91.79 0 2.37.01 3.16.02 3.21-5.72 6.6-11.39 8.92-17.55.4-.33 1.21-.99 1.61-1.31-2.09-.07-4.54-.28-5.63 1.93m9.88-.32c-2.63 4.73-4.88 9.67-7.61 14.35-.49 1.25-1.65 2.49-1.19 3.92 1.96 2.3 5.14 2.86 8.02 2.78 17.01-.03 34.02-.01 51.03-.02 3.56-.03 7.15.23 10.69-.25 1.79-.31 4.07-1.49 3.9-3.62.26-6.22-.12-12.45.11-18.67l-.16.12c-19.52-.42-39.06 0-58.59-.21-2.16.11-4.82-.53-6.2 1.6m76.49 3.26c.11 3.17.17 6.34.23 9.52 1.8.07 3.61.14 5.42.22.14-3.29.19-6.57.18-9.86-1.95.04-3.89.07-5.83.12M142.94 67.11c.15.48.44 1.43.59 1.9-1.27 4.68-4.6 8.31-7.44 12.09-5.94 7.37-12.2 14.48-18.65 21.4-1.11 1.09-1.47 3.48.51 3.88 7.36 2.53 14.91 4.53 22.27 7.08.79-.75 1.59-1.49 2.39-2.24-.67-1.4-1.33-2.81-1.99-4.22 3.92-6.44 8.04-12.76 12.08-19.13 2.02-3.28 5.16-6.38 9.26-6.44 9.98-.16 19.98.02 29.97-.04 1.98-.01 4.35-.13 5.52-2 .53-3.43.23-6.94.21-10.4l.68-1.99c-3.25-.02-6.5-.05-9.75-.03.62 1.07 1.48 1.77 2.58 2.1.65 2.84 2.55 6.55-.19 8.87-4.48 3.71-10.72 2.07-16.05 2.41-3.48-.29-7.8 1.1-10.5-1.79-2.52-2.5-1.69-6.29-1.51-9.45l1.12.03c.03-.55.11-1.63.15-2.17-7.09.1-14.18-.2-21.25.14m25.28.18c-1.6 2.23-4.67 6.62-.22 7.64-.07-3.12 1.44-5.75 3.82-7.65-1.2.01-2.4.01-3.6.01m2.81 5.6c1.03 1.52 1.72 3.93 3.95 3.97 3.93.38 7.96.52 11.86-.2 2.99-.48 2.6-4.7.69-6.21-2.43-2.66-6.3-2.1-9.53-2.13-3.22-.44-4.91 2.75-6.97 4.57m28.32-2.23l.91.09c-.57 11.33-.3 22.7-.18 34.04.68-.06 2.04-.17 2.73-.23.58-11.17-.01-22.37.34-33.55.47.03 1.4.1 1.86.13-.07 10.96-.05 21.92.04 32.88.55 0 1.64.01 2.18.02l.01-.72c2.85-.2 5.69-.53 8.54-.84.57-10.47-.06-20.97.22-31.46h1.96c.07 10.44-.1 20.87.09 31.31.48-.19 1.43-.56 1.91-.74 2.62-.46 5.24-.9 7.89-1.25.39-9.77-.11-19.55.18-29.32h1.93c.03 9.66 0 19.32.02 28.97.53.02 1.61.05 2.15.07l-.01-.6c2.09-.29 4.17-.61 6.25-.96-.21-8.5.13-17.01-.14-25.51.06-.78.12-1.55.19-2.32-.5-.42-1.49-1.24-1.99-1.66-9.8-.16-19.6 0-29.4-.08-2.66.12-5.75-.67-7.68 1.73z"></path><path d="M150.28 6.74c1.34.87 2.7 1.73 4.1 2.51-1.03 1.39-2.07 2.76-3.1 4.15-1.08-1.01-2.16-2.03-3.11-3.16.63-1.21 1.44-2.31 2.11-3.5zm41.14 23.29c3.98-.04 7.96.01 11.95-.02.92.98 1.85 1.96 2.77 2.95-.87 1.1-1.88 2.09-2.91 3.04-3.8.17-7.61.09-11.41-.04-1-.87-1.99-1.74-2.99-2.61.86-1.11 1.72-2.22 2.59-3.32zm19.98-.02c4.02.02 8.04 0 12.07.01.93 1.08 1.84 2.19 2.6 3.4-.91.92-1.88 1.76-2.9 2.54-3.78.2-7.57.15-11.35.01-.99-.88-1.99-1.75-2.99-2.61.85-1.12 1.71-2.23 2.57-3.35zm19.81 0c4.08.01 8.15.01 12.23.01.96 1.08 1.86 2.21 2.67 3.41-.93.91-1.91 1.76-2.95 2.54-3.87.16-7.75.12-11.63.09-.79-1-1.61-1.98-2.34-3.02.61-1.04 1.33-2.03 2.02-3.03zm20.36 0c3.92.01 7.83.02 11.75 0 .95.97 1.9 1.96 2.83 2.97-.93 1.04-1.86 2.09-2.91 3.01-3.81.17-7.62.11-11.43-.03-1-.88-2-1.76-2.99-2.64.91-1.11 1.83-2.21 2.75-3.31zm33.71-.01c4.13.02 8.26.03 12.39.01.83 1.11 1.68 2.2 2.52 3.31-1.01.87-2.01 1.74-2.99 2.63-3.8.17-7.61.18-11.41.04-.96-.87-1.91-1.73-2.87-2.59.78-1.14 1.57-2.26 2.36-3.4zm19.99 0c4.2.03 8.41.02 12.62.01.63 1.05 1.34 2.05 1.94 3.13-.77.98-1.56 1.95-2.37 2.89-3.9.07-7.8.08-11.69-.05-.94-.87-1.88-1.73-2.83-2.58.76-1.15 1.53-2.27 2.33-3.4zm20.01.01c4.13.01 8.26.02 12.39 0 .84 1.1 1.68 2.21 2.52 3.31-1.01.87-2.01 1.74-3 2.63-3.8.18-7.61.18-11.41.03-.95-.86-1.89-1.71-2.84-2.56.73-1.17 1.53-2.29 2.34-3.41zm21.06 0c4.12.02 8.24.01 12.37 0 .82 1.12 1.61 2.26 2.36 3.43-.97.84-1.92 1.69-2.86 2.55-3.8.14-7.61.13-11.41-.05-1-.88-1.99-1.76-2.99-2.63.84-1.1 1.69-2.19 2.53-3.3zM76.69 52.66c1.89 1.85 3.77 3.72 5.58 5.65-2.13 1.13-3.77 2.91-5 4.96-1.9-1.83-3.76-3.71-5.62-5.58 1.03-.61 2.01-1.29 2.93-2.05.77-.95 1.47-1.94 2.11-2.98zm37.99.03c.94.95 1.88 1.9 2.89 2.78.84.84 1.7 1.65 2.5 2.54-1.67 1.86-3.59 3.48-5.36 5.24-1.23-2.05-2.89-3.82-5.01-4.96 1.8-1.74 3.67-3.44 4.98-5.6zm76.92 2.07c1.11.94 2.21 1.89 3.33 2.82v.84c-1.11.92-2.19 1.86-3.28 2.8-.87-1.29-1.88-2.47-2.9-3.62 1.41-.49 2.36-1.43 2.85-2.84zM25.74 64.1c2.23 1.05 3.61 3.58 5.52 5.19-2.08 1.35-3.79 3.16-5.5 4.94-1.29-1.84-2.77-3.57-4.68-4.8 0-.21-.01-.63-.01-.84 1.78-1.25 3.18-2.92 4.67-4.49zm104.94 33.59c1.74 1.81 3.47 3.7 5.66 4.98-1.81 1.75-3.7 3.47-5.06 5.61-1.7-1.82-3.44-3.63-5.54-4.99.91-.95 1.84-1.87 2.78-2.79.89-.81 1.61-1.75 2.16-2.81z"></path></g><path d="M144.84 13.09c.08-3.39 2.3-6.09 3.72-9.01.56.89 1.14 1.78 1.72 2.66-.67 1.19-1.48 2.29-2.11 3.5.95 1.13 2.03 2.15 3.11 3.16 1.03-1.39 2.07-2.76 3.1-4.15 1.82.97 3.58 2.04 5.32 3.13.38 2.68 1.34 5.19 2.51 7.61 4.12-.01 8.23.3 12.36.33 1.93 1.32 3.75 2.82 5.22 4.66.18.21.53.63.71.84-11.92.23-23.85.04-35.77.1.09-4.28-.15-8.56.11-12.83zm195.29-4.2c1.12.01 2.1-.35 2.94-1.09.19 2.52.09 5.1.67 7.58 1.23 3.18 5.46 3.03 7.27 5.61.19 1.59.15 3.19.17 4.79a374.7 374.7 0 00-11.12.01c-.13-5.63-.3-11.27.07-16.9zm-69.42 15.22c2.32-.91 4.77-1.45 7.27-1.39 20.04.09 40.07-.02 60.1.09-.04.76-.14 2.27-.19 3.02-43.29-.2-86.58-.03-129.87-.08-8.67.06-17.35-.16-26.01.15-.01-.41-.04-1.23-.05-1.64 29.58-.03 59.18.27 88.75-.15zm-137.75 3.65c3.19-1.01 6.02-2.96 9.32-3.71l.42 3.57c1.07.03 2.15.07 3.23.11.03 3.34.04 6.67.09 10.01-1.9.8-3.87 1.51-5.97 1.34-8.47-.11-16.95.15-25.42-.15-2.55-1.38-5.41-1.89-8.2-2.53-.98-.35-1.96-.71-2.93-1.07-3.01-1.04-6-2.09-9.05-2.99-3.35-.68-6.52-1.98-9.81-2.87 5.58-.52 11.05-1.87 16.66-2.14 5.46 1.45 11.13.92 16.71.98 4.98-.04 10 .12 14.95-.55zm54.63 2.33c1.28-.03 2.55-.05 3.83-.06-.87 1.1-1.73 2.21-2.59 3.32 1 .87 1.99 1.74 2.99 2.61 3.8.13 7.61.21 11.41.04 1.03-.95 2.04-1.94 2.91-3.04-.92-.99-1.85-1.97-2.77-2.95 2.67-.01 5.35-.02 8.03 0-.86 1.12-1.72 2.23-2.57 3.35 1 .86 2 1.73 2.99 2.61 3.78.14 7.57.19 11.35-.01 1.02-.78 1.99-1.62 2.9-2.54-.76-1.21-1.67-2.32-2.6-3.4 2.57-.02 5.16-.03 7.74-.01-.69 1-1.41 1.99-2.02 3.03.73 1.04 1.55 2.02 2.34 3.02 3.88.03 7.76.07 11.63-.09 1.04-.78 2.02-1.63 2.95-2.54-.81-1.2-1.71-2.33-2.67-3.41 2.71-.02 5.42-.03 8.13-.01-.92 1.1-1.84 2.2-2.75 3.31.99.88 1.99 1.76 2.99 2.64 3.81.14 7.62.2 11.43.03 1.05-.92 1.98-1.97 2.91-3.01-.93-1.01-1.88-2-2.83-2.97 7.32-.02 14.64-.01 21.96-.01-.79 1.14-1.58 2.26-2.36 3.4.96.86 1.91 1.72 2.87 2.59 3.8.14 7.61.13 11.41-.04.98-.89 1.98-1.76 2.99-2.63-.84-1.11-1.69-2.2-2.52-3.31 2.53-.02 5.06-.01 7.6-.01-.8 1.13-1.57 2.25-2.33 3.4.95.85 1.89 1.71 2.83 2.58 3.89.13 7.79.12 11.69.05.81-.94 1.6-1.91 2.37-2.89-.6-1.08-1.31-2.08-1.94-3.13 2.46-.02 4.92-.01 7.39 0-.81 1.12-1.61 2.24-2.34 3.41.95.85 1.89 1.7 2.84 2.56 3.8.15 7.61.15 11.41-.03.99-.89 1.99-1.76 3-2.63-.84-1.1-1.68-2.21-2.52-3.31 2.89-.02 5.78-.02 8.67 0-.84 1.11-1.69 2.2-2.53 3.3 1 .87 1.99 1.75 2.99 2.63 3.8.18 7.61.19 11.41.05.94-.86 1.89-1.71 2.86-2.55-.75-1.17-1.54-2.31-2.36-3.43 2.92 0 5.85 0 8.78-.06-.38 4.38-.32 8.78-.38 13.17-4.34-.02-8.68-.11-13.02.15-.06-1.77-.11-3.53-.16-5.29-.45 0-1.36 0-1.81.01-.06.62-.19 1.88-.25 2.51-1.62 1.56-3.44 2.88-5.75 3.06-.08-1.86-.14-3.72-.19-5.58-.45 0-1.36.01-1.82.01-.06.63-.19 1.9-.26 2.53-1.61 1.56-3.42 2.88-5.73 3.04-.07-1.84-.12-3.68-.17-5.52l-1.82-.08-.28 2.46c-.97.68-1.78 1.51-2.43 2.49-1.13.16-2.25.31-3.36.46-.05-1.8-.08-3.59-.11-5.39-.49.02-1.46.05-1.94.07-.04.58-.11 1.76-.14 2.34-.94.73-1.76 1.56-2.47 2.51-1.1.18-2.2.34-3.29.5-.07-1.95-.15-3.89-.26-5.84-1.54.33-1.96 1.62-2.19 2.99-1.49 1.61-3.28 2.84-5.53 3.01-.08-1.86-.14-3.73-.2-5.6-.46.02-1.38.05-1.85.07l-.24 2.4a7.33 7.33 0 00-2.4 2.55c-2.48.27-4.98.36-7.47.34-51.03-.08-102.05-.23-153.08-.22.04-2.56.08-5.12.11-7.67 8.67-.04 17.33-.11 25.99.01 3.9.01 7.77.98 10.92 3.35.09-1.91.21-3.82.36-5.73l.15-.29c.41-.89.8-1.78 1.17-2.68zm181.75 0l.07.12 1.09 1.85c10.98.46 22.01.29 33 .08.03 2.48.04 4.96.06 7.44-11.38.09-22.77.14-34.15-.02-.04-3.15-.02-6.31-.07-9.47z"></path><path d="M14.55 33.09c19.48-.09 38.96.01 58.44-.05 3.46.03 7-.35 10.38.59 10.57 3 20.95 6.7 31.62 9.27 10.32.45 20.66-.13 30.98.28.03 4.92-.02 9.84.02 14.76 13.68-.09 27.37-.03 41.06-.04.08-4.01.1-8.03.16-12.05 2.45.07 5.31-.22 7.08 1.87 4.7 4.41 3.05 11.45 3.41 17.19-33.22-.03-66.44.23-99.67.29-2.4.07-4.78.47-7.14.93-18.77 3.51-37.62 6.63-56.39 10.13-5.67.82-11.24 2.39-17 2.42-.86-11.2-1.65-22.41-2.37-33.62-.36-3.98-.89-7.97-.58-11.97m62.14 19.57c-.64 1.04-1.34 2.03-2.11 2.98-.92.76-1.9 1.44-2.93 2.05 1.86 1.87 3.72 3.75 5.62 5.58 1.23-2.05 2.87-3.83 5-4.96-1.81-1.93-3.69-3.8-5.58-5.65m37.99.03c-1.31 2.16-3.18 3.86-4.98 5.6 2.12 1.14 3.78 2.91 5.01 4.96 1.77-1.76 3.69-3.38 5.36-5.24-.8-.89-1.66-1.7-2.5-2.54-1.01-.88-1.95-1.83-2.89-2.78m76.92 2.07c-.49 1.41-1.44 2.35-2.85 2.84 1.02 1.15 2.03 2.33 2.9 3.62 1.09-.94 2.17-1.88 3.28-2.8v-.84c-1.12-.93-2.22-1.88-3.33-2.82M25.74 64.1c-1.49 1.57-2.89 3.24-4.67 4.49 0 .21.01.63.01.84 1.91 1.23 3.39 2.96 4.68 4.8 1.71-1.78 3.42-3.59 5.5-4.94-1.91-1.61-3.29-4.14-5.52-5.19zm214.62-16.71l1.72-1.08c9.6-.29 19.22.05 28.83-.14 0 .41.02 1.22.02 1.63l-.62-.02c-9.98-.49-19.98.21-29.95-.39zm35 .6c-.97-3.26 6.18-1.99 2.71.28l-2.71-.28zm7.5.1c1.09-2.21 3.54-2 5.63-1.93-.4.32-1.21.98-1.61 1.31-1.34.24-2.68.44-4.02.62zm9.88-.32c1.38-2.13 4.04-1.49 6.2-1.6 19.53.21 39.07-.21 58.59.21-.32.27-.98.8-1.31 1.07-21.15.52-42.33-.17-63.48.32z"></path><path d="M152.58 47.29c10.7-.63 21.43.03 32.14-.31.15 2.95.18 5.9.23 8.85-11.94-.12-23.9-.35-35.83.15-.08-2.58-.18-5.16-.3-7.74.58-.05 1.74-.14 2.31-.19.37-.19 1.09-.57 1.45-.76zm47.92-.03c12.48-.44 25-.23 37.5-.07.07 5.08.15 10.17-.05 15.25a5.52 5.52 0 00-2.52 2.66c-10.14.16-20.29.03-30.43.09-2.19.42-3.46-1.55-4.93-2.74-.07-4.8.78-9.99-2.21-14.17.66-.25 1.98-.76 2.64-1.02zm159.32-.28c2.47 0 4.94.01 7.42.02-.25 6.15.41 12.36-.65 18.45-2.17.08-4.34.15-6.51.23-.42-6.22-.12-12.47-.26-18.7zm9.41 4.05c1.94-.05 3.88-.08 5.83-.12.01 3.29-.04 6.57-.18 9.86-1.81-.08-3.62-.15-5.42-.22-.06-3.18-.12-6.35-.23-9.52zM168.22 67.29c1.2 0 2.4 0 3.6-.01-2.38 1.9-3.89 4.53-3.82 7.65-4.45-1.02-1.38-5.41.22-7.64z"></path><path d="M143.53 69.01c6.46.19 12.93-.09 19.39.1-.18 3.16-1.01 6.95 1.51 9.45 2.7 2.89 7.02 1.5 10.5 1.79 5.33-.34 11.57 1.3 16.05-2.41 2.74-2.32.84-6.03.19-8.87 2.16.08 4.33.05 6.49-.08.02 3.46.32 6.97-.21 10.4-1.17 1.87-3.54 1.99-5.52 2-9.99.06-19.99-.12-29.97.04-4.1.06-7.24 3.16-9.26 6.44-4.04 6.37-8.16 12.69-12.08 19.13.66 1.41 1.32 2.82 1.99 4.22-.8.75-1.6 1.49-2.39 2.24-7.36-2.55-14.91-4.55-22.27-7.08-1.98-.4-1.62-2.79-.51-3.88 6.45-6.92 12.71-14.03 18.65-21.4 2.84-3.78 6.17-7.41 7.44-12.09m-12.85 28.68c-.55 1.06-1.27 2-2.16 2.81-.94.92-1.87 1.84-2.78 2.79 2.1 1.36 3.84 3.17 5.54 4.99 1.36-2.14 3.25-3.86 5.06-5.61-2.19-1.28-3.92-3.17-5.66-4.98zm69.58-26.94c.72.07 2.17.19 2.89.26-.35 11.18.24 22.38-.34 33.55-.69.06-2.05.17-2.73.23-.12-11.34-.39-22.71.18-34.04zm7.01.33c2.91-.04 5.82-.07 8.73-.06-.28 10.49.35 20.99-.22 31.46-2.85.31-5.69.64-8.54.84.11-10.74.06-21.49.03-32.24zm12.77-.05c2.66-.01 5.33-.02 7.99-.01-.29 9.77.21 19.55-.18 29.32-2.65.35-5.27.79-7.89 1.25.24-10.18.04-20.38.08-30.56zm11.99-.04c1.98 0 3.97.01 5.96.08l.24 1.92c.27 8.5-.07 17.01.14 25.51-2.08.35-4.16.67-6.25.96-.16-9.49.01-18.98-.09-28.47z"></path><path d="M148.56 4.08c1.79-.14 3.48.52 4.88 1.6 2.51 1.83 5.5 2.93 7.92 4.88.82 1.5.8 3.28 1.23 4.91.65.95 1.05 2.45 2.5 2.33 3.55.24 7.11.12 10.66.28 2.31 1.73 5.59 3.36 4.04 6.9-1.47-1.84-3.29-3.34-5.22-4.66-4.13-.03-8.24-.34-12.36-.33-1.17-2.42-2.13-4.93-2.51-7.61-1.74-1.09-3.5-2.16-5.32-3.13-1.4-.78-2.76-1.64-4.1-2.51-.58-.88-1.16-1.77-1.72-2.66zm191.57 4.81c-1.66-2.33 3.9-4.49 2.94-1.09-.84.74-1.82 1.1-2.94 1.09zm-200.57 13.2c1.17-.03 2.33-.05 3.5-.07-.03.46-.1 1.38-.13 1.84l-.65.19c-3.3.75-6.13 2.7-9.32 3.71-4.95.67-9.97.51-14.95.55-5.58-.06-11.25.47-16.71-.98 10.03-2.62 20.46-.63 30.66-1.61 2.64-.96 5.09-2.38 7.6-3.63zm42.41-.03c52.02-.15 104.04-.12 156.06.01l.05.74c-20.03-.11-40.06 0-60.1-.09-2.5-.06-4.95.48-7.27 1.39-29.57.42-59.17.12-88.75.15 0-.55.01-1.65.01-2.2zm170.7-.09c1.32.02 2.66.05 3.99.07.71.87 1.44 1.75 2.15 2.63-2.42-.23-6.27 1.05-6.14-2.7zm-166.76 5.95c57.7.04 115.4 0 173.1.03 2.56.04 5.12-.08 7.67.15.2.47.61 1.39.81 1.85-2.93.06-5.86.06-8.78.06-4.13.01-8.25.02-12.37 0-2.89-.02-5.78-.02-8.67 0-4.13.02-8.26.01-12.39 0-2.47-.01-4.93-.02-7.39 0-4.21.01-8.42.02-12.62-.01-2.54 0-5.07-.01-7.6.01-4.13.02-8.26.01-12.39-.01-7.32 0-14.64-.01-21.96.01-3.92.02-7.83.01-11.75 0-2.71-.02-5.42-.01-8.13.01-4.08 0-8.15 0-12.23-.01-2.58-.02-5.17-.01-7.74.01-4.03-.01-8.05.01-12.07-.01-2.68-.02-5.36-.01-8.03 0-3.99.03-7.97-.02-11.95.02-1.28.01-2.55.03-3.83.06-.37.9-.76 1.79-1.17 2.68.1-1.64-.2-3.25-.51-4.85zm183.5 2.29c11.65-.47 23.33-.22 34.99-.11-.22.51-.67 1.53-.9 2.04-10.99.21-22.02.38-33-.08l-1.09-1.85zm-355.42.77c20.03-.02 40.05-.01 60.08 0 3.15.08 6.34-.66 9.46.14.94.47 1.9.9 2.88 1.26 1.03.31 2.06.59 3.1.86 1.67.49 3.38.87 5.04 1.42 1.01.31 2.01.64 3.01.99.99.33 1.97.67 2.95 1.04 2.08.49 4.08 1.23 6.05 2.05 1.32.23 2.67.41 3.93.92 1.49.48 2.92 1.31 4.52 1.3 10.32.1 20.64-.13 30.95.11 0 .53.01 1.58.01 2.11-10.32-.41-20.66.17-30.98-.28-10.67-2.57-21.05-6.27-31.62-9.27-3.38-.94-6.92-.56-10.38-.59-19.48.06-38.96-.04-58.44.05l-.6.01.04-2.12zm134.92 13.97c12.15 0 24.3-.05 36.46.02-.17.5-.49 1.51-.65 2.01-10.71.34-21.44-.32-32.14.31-.95.06-2.84.17-3.79.23l.12-2.57zm45.75 0c14.4-.03 28.81-.01 43.22-.01l.12 2.25c-12.5-.16-25.02-.37-37.5.07-.71.06-2.14.19-2.85.26-.99-.87-2-1.72-2.99-2.57zm165.24-.01h7.23c.03.51.08 1.54.11 2.06-2.48-.01-4.95-.02-7.42-.02l.08-2.04zM142.94 67.11c7.07-.34 14.16-.04 21.25-.14-.04.54-.12 1.62-.15 2.17l-1.12-.03c-6.46-.19-12.93.09-19.39-.1-.15-.47-.44-1.42-.59-1.9zm45.65-.14c3.25-.02 6.5.01 9.75.03l-.68 1.99c-2.16.13-4.33.16-6.49.08-1.1-.33-1.96-1.03-2.58-2.1zm10.76 3.69c1.93-2.4 5.02-1.61 7.68-1.73 9.8.08 19.6-.08 29.4.08.5.42 1.49 1.24 1.99 1.66-.07.77-.13 1.54-.19 2.32l-.24-1.92c-1.99-.07-3.98-.08-5.96-.08.1 9.49-.07 18.98.09 28.47l.01.6c-.54-.02-1.62-.05-2.15-.07-.02-9.65.01-19.31-.02-28.97h-1.93c-2.66-.01-5.33 0-7.99.01-.04 10.18.16 20.38-.08 30.56-.48.18-1.43.55-1.91.74-.19-10.44-.02-20.87-.09-31.31H216c-2.91-.01-5.82.02-8.73.06.03 10.75.08 21.5-.03 32.24l-.01.72c-.54-.01-1.63-.02-2.18-.02-.09-10.96-.11-21.92-.04-32.88-.46-.03-1.39-.1-1.86-.13-.72-.07-2.17-.19-2.89-.26l-.91-.09z" fill="#f2f2f2"></path><path d="M6.1 31.24c1.96-.26 3.93-.23 5.9-.27.32 16.01 2.6 31.92 2.94 47.93-1.84-.32-3.95-.08-5.52-1.28-.73-1.42-1-3.03-1.18-4.6-1.1-12.37-2.21-24.73-3.48-37.08-.07-1.61-.22-3.7 1.34-4.7zm351.43 15.14l.16-.12c-.23 6.22.15 12.45-.11 18.67.17 2.13-2.11 3.31-3.9 3.62-3.54.48-7.13.22-10.69.25-17.01.01-34.02-.01-51.03.02-2.88.08-6.06-.48-8.02-2.78-.46-1.43.7-2.67 1.19-3.92 2.73-4.68 4.98-9.62 7.61-14.35 21.15-.49 42.33.2 63.48-.32.33-.27.99-.8 1.31-1.07zm-117.19 1.01h.02c9.97.6 19.97-.1 29.95.39-2.43 5.94-5.58 11.53-8.44 17.27-6.08.01-12.16.12-18.23-.03-.64-1.42-1.94-2.13-3.3-2.7.08-4.98.12-9.96 0-14.93zm35.02.6l2.71.28c-2.37 5.78-5.44 11.24-8.23 16.82-.75-.04-2.24-.13-2.99-.17 2.5-5.8 5.26-11.51 8.51-16.93zm7.5.1c1.34-.18 2.68-.38 4.02-.62-2.32 6.16-5.71 11.83-8.92 17.55-.79-.01-2.37-.02-3.16-.02 2.34-5.8 5.58-11.18 8.06-16.91z" fill="#3c3b3c"></path></svg>