<svg data-v-ea210746="" viewBox="0 0 405 126" xmlns="http://www.w3.org/2000/svg" fill="#7e7e7e" class="ui-icon max-h-full absolute left-1/2 top-1/2 -translate-x-1/2 -translate-y-1/2 z-[201] w-[70%]" style="fill: rgb(93, 182, 229); opacity: 1;"><g fill="#000"><path d="M385.51 1.36c4.28-.7 8.73-.97 12.96.18-.02 7.47 0 14.94.01 22.41 2.02.09 4.05.23 6.07.47-.07 3.68-.11 7.36.06 11.04-2.07 1.21-4.48 1.01-6.77 1.01-.79 1.67-1.65 3.3-2.55 4.91-4.39.88-8.88.47-13.32.53-26.15.06-52.3-.09-78.44.08.11 2.59-1.36 6.02-4.41 5.88-17.7.09-35.41-.06-53.12.07-4.13 4.54-10.73 2.64-16.12 2.9-3.31.17-3.68-3.63-3.51-6.06-4.73.01-9.46.02-14.19-.02.2 6.75 2.36 13.23 4.6 19.54 4.24 12.47 13.17 23.05 23.88 30.5-.09 1.34-.01 2.79-.93 3.89-5.26 7.92-10.43 15.9-15.67 23.83-1.33-.5-2.72-.88-3.87-1.73-15.86-11.66-28.59-27.9-34.8-46.7-2.22-6.95-4.93-13.91-5.41-21.24-.52 4.82.05 9.67-.38 14.5-2.71.24-5.53.78-8.2.05-1.61-.63-1.72-2.49-1.84-3.94-6.2.49-12.43.22-18.64.25-3.81.18-6.84-2.46-8.92-5.36-5.02 5.33-10.41 11.27-11.15 18.9.43 3.36 1.46 6.71.53 10.12-6.15 2.09-12.4-.88-18.31-2.45-4.32-.99-8-5.47-6.27-9.99 3.82-9.88 8.06-19.61 11.84-29.52-5.86-1.01-11.81-.46-17.72-.49-12.64-.01-25.28.01-37.92-.02-5.03-.04-9.67 2.51-13.45 5.63-10.14 7.51-20.28 15.03-30.38 22.6-3.62 2.47-8.56 4.96-12.81 2.47-2.89-1.28-3.32-4.79-3.64-7.56.37-8 2.83-16 1.19-24.01-.23-5.98-2.26-11.94-1.13-17.93 1.6-3.59 5.56-5.12 9.29-4.78 30.66.21 61.31-.38 91.96-.13 2.54-.1 5.84.98 7.64-1.43 4.18-4.97 7.89-12.36 15.25-12.61 29.38-.05 58.77.03 88.15-.03 2.98-.14 3.18-4.49 6.01-5.12 4.25-.92 8.67-.27 12.99-.44 5.4.22 10.9-.64 16.2.75 1.92-.19 3.8-.84 5.75-.78 13 .04 26 .03 38.99 0 2.03.05 4.43 0 5.91 1.65 2.09 2.13 2.5 5.25 2.6 8.1 14.49-.14 28.99-.06 43.48-.06 1.39-.18 2.38.88 3.41 1.62-.13 3.18-.08 6.37.05 9.55 4.52 2.19 9.65 1.68 14.52 1.61 5.38-.21 10.75.27 16.13-.12 1.18-3.72 3.17-7.14 4.24-10.89.4-3.86.1-7.76.16-11.63m2.14 3.58l1.22.92c-.25 2.81 0 5.66-.48 8.44-1.15 3.65-3.05 7.02-4.28 10.64 3.74.23 7.49.2 11.23-.05-.1-6.33.16-12.68-.23-19.01l.83-.06c-.21-.44-.62-1.33-.82-1.77-2.5-.04-5.27-.62-7.47.89m-168.1 2.72l-.25-.81c.12 3.19-.73 6.73 1.06 9.59 1.23 1.85.95 4.13 1.05 6.24 2.75-.09 6.12.66 7.71-2.26 6.05-.22 12.1-.06 18.14-.1-.06-5.13.21-10.28-.29-15.4-8.38-.1-16.76-.03-25.14-.04-.78.91-1.55 1.84-2.28 2.78m34.7-2.64c.04.69.12 2.07.17 2.76.43-.06 1.31-.17 1.74-.22 1.16.78 2.44 1.11 3.84.99 12.83.02 25.67-.21 38.5.1.18.36.56 1.07.74 1.43-15.09-.05-30.22-.21-45.32.1.34 3.41.35 6.84.42 10.27 2.12 1.7 3.56 5.1 6.71 4.71 12.91-.01 25.83.06 38.74-.07-.11-3.35-.41-6.72-.08-10.06 0-1.51.65-3.22-.24-4.6l.25.4c-.04-.88-.13-2.64-.18-3.52v-2.2c-15.08-.46-30.21-.27-45.29-.09M125.09 9.96c-1.95 1.63-3.76 3.43-5.47 5.32l-.32-.11c-.01.37-.04 1.12-.05 1.49 21.25-.32 42.51-.06 63.77-.14 3.1-.04 5.85-1.94 8.97-1.88 8.26 0 16.53 0 24.79.03-.02-.58-.07-1.76-.09-2.34-.05-.55-.14-1.65-.18-2.2-30.47-.3-60.95.05-91.42-.17m123.92-.08c.37 3.52.49 7.06.51 10.6l1.94.01c.02-3.54.15-7.09.53-10.61h-2.98m53.56 4.86c-.1.58-.31 1.74-.41 2.32.04.84.13 2.52.17 3.36 11.57.05 23.14.01 34.71.01 1.55-.04 3.02.47 4.48.92.55 1.84.95 3.71 1.28 5.6-13.64.11-27.28-.1-40.92.12.27 1.99.31 3.99.48 5.99 33.02.26 66.04-.01 99.06.13 0-1.38.01-2.75.02-4.13.01-.51.02-1.55.03-2.06-16.08-.1-32.16.04-48.23-.05-1.3-.51-2.61-1-3.91-1.48-2.27-2.25-3.14-5.26-2.57-8.4-.08-.58-.23-1.74-.31-2.32-14.62-.13-29.26-.12-43.88-.01m-118.05 5.6c-.46.72-.91 1.45-1.35 2.17 11.75.16 23.51.21 35.27-.01.77-1.82.74-3.75.11-5.6-9.21-.12-18.42-.04-27.64-.07-2.61-.13-4.69 1.77-6.39 3.51m-68.42-1.4c-1.04 1.28-2.1 2.59-2.41 4.25 2.78-.27 5.55-.63 8.35-.61 19.31.08 38.63-.05 57.94.07 1.01-1.27 2.03-2.54 3.05-3.81-22.31.17-44.62 0-66.93.1m113.36 28.63c3.19.05 6.38.22 9.57.09 2.35.07 3.99-1.89 5.85-3.03 18.27.07 36.54-.04 54.81.06.02-5.93-.47-11.9.32-17.81-2.68-.01-5.36-.03-8.04-.05.71 4.64.5 9.34.47 14.02 1.23.22 2.47.45 3.71.68-1.02 1.94-3.4 1.21-5.16 1.39-19.41-.09-38.84.11-58.24-.16l-.6-.94.79-.55c9.17-.37 18.37-.07 27.56-.14.02-3.99.04-7.98.02-11.97 0-.52.01-1.57.01-2.1-3.04.56-4.62-2.37-6.54-4.12-7.88-.61-15.79-.01-23.68-.36-1.49 8.2-.04 16.68-.85 24.99M105.05 24.76c.74 5.55.35 11.16.44 16.74 1.32-.01 2.64-.02 3.97-.04.24-5.56-.58-11.2.58-16.69-1.66-.15-3.33-.19-4.99-.01m-99 1.73c-.29 1.81-.73 3.65-.37 5.48 1.41 9.14 2.84 18.49 1.23 27.7-.7 3.95-.66 7.97-.45 11.96 3.5 3.53 8.27.63 11.53-1.7 10.79-8.09 21.72-15.99 32.42-24.19-.39-.59-1.17-1.75-1.57-2.34-1.81.98-3.61 2.01-5.24 3.28-7.76 5.91-15.87 11.35-23.65 17.23-1.58 1.12-3.12 2.36-4.93 3.09-2.38.74-4.57-1.63-4.48-3.9-.1-8.04.05-16.09-.05-24.13.1-2.47-.29-5.22 1.25-7.34 1.39-1.95 3.8-3.17 6.2-3.06 10.47-.09 20.95.18 31.41-.1.2-.31.6-.94.8-1.25.97-.82 1.97-1.61 3-2.36-13.06-.2-26.13-.02-39.2-.1-2.71.11-5.83-.51-7.9 1.73m43.54 5.7c-.53 4.16-.68 8.8 2.3 12.13 3.65-1 7.13-2.97 11.01-2.85 13.53.02 27.05.06 40.58-.02.08-4.82-.11-9.65.19-14.47-.07-.54-.22-1.6-.29-2.14-14.11-.11-28.22-.11-42.33.01-5.07-.42-8.48 3.93-11.46 7.34m61.92-7.29v2.35c.06 4.73.02 9.47.03 14.21 7.71.11 15.42.18 23.13.28-1.27-2.79-2.07-6.42-.06-9.07 1.3-1.6 3.24-3.2 5.46-2.68 9.36 1.31 18.57 3.48 27.88 5.11 1.5.35 3.16.51 4.41 1.5 1.51 1.23.85 3.33 1.07 5.01 18.03-.02 36.06-.02 54.09-.12.03-5.54.01-11.08.13-16.63-38.72.28-77.43-.2-116.14.04m150.45 1.93c.73 4.67.51 9.41.43 14.12 1.38.08 2.77.15 4.15.23.05-4.78-.26-9.6.5-14.35h-5.08m6.01.01c.74 4.66.52 9.39.44 14.09l4.1.27c.06-4.79-.27-9.61.54-14.36h-5.08m6.01 0c.68 4.67.51 9.38.39 14.08l4.18.27c.04-4.79-.27-9.61.5-14.35h-5.07m6 0c.72 4.67.51 9.39.43 14.09 1.36.1 2.73.19 4.1.27.07-4.79-.27-9.61.53-14.36h-5.06m6 0c.69 4.67.49 9.4.41 14.11 1.38.08 2.77.15 4.15.23.05-4.78-.25-9.59.49-14.34h-5.05M14.65 32.63c-.59 2.09-1.06 4.21-.98 6.39.07 8.29-.04 16.58.07 24.87 1.47-.81 2.96-1.61 4.31-2.62 9.33-6.92 18.87-13.57 28.15-20.55-.06-2.91-.48-5.97.46-8.88-8.56-.06-17.12 0-25.69-.05-2.14-.07-4.26.31-6.32.84m122.88-.11c-2.84 1.95-2.8 6.93.48 8.41 10.79 1.09 21.65.35 32.48.58.14-1.13.29-2.27.44-3.4-8.87-2.21-17.94-3.54-26.89-5.42-2.13-.38-4.39-.83-6.51-.17m164.8 5.09c28.88-.15 57.77-.06 86.65-.05 2.25-.1 5.59.73 6-2.36-3.99-.45-8-.26-12-.28-26.8-.01-53.61.01-80.41-.01-.09.9-.17 1.8-.24 2.7m-131.08 6.27c.12 3.99.21 8-.36 11.97.61-.18 1.85-.52 2.47-.7-.01 2.89-.24 5.8.06 8.68.77.19 2.32.59 3.1.79.21-6.98.19-13.97-.01-20.95l-5.26.21m-50.4 5.1c-3.64 8.64-7.15 17.35-10.58 26.08-1.1 2.09-.73 4.99 1.75 5.85 5.39 2.08 11.03 3.92 16.85 4.1-.43-3.3-1.76-6.6-1.03-9.95 1.05-5.45 4.19-10.25 7.68-14.45 2.56-3.12 6.09-5.41 8.21-8.88 1.37-2 .1-4.31-.51-6.31l-.18.02c-.53-.34-1.58-1.03-2.11-1.38-6.46-.37-12.94.23-19.41-.09-.18 1.67-.1 3.41-.67 5.01m27.52-5.26c.38 2.57.65 5.42 2.54 7.4 1.26 1.01 2.72 1.74 4.1 2.56-.83-1.19-1.85-2.28-2.37-3.66.19-2.11.82-4.16 1.32-6.22-1.86-.03-3.73-.05-5.59-.08m33.74.21c.15 3.09-.3 6.28.93 9.22 1.53 6.67 2.87 13.41 5.44 19.79 5.94 18.47 18.65 34.34 34.29 45.6 4.71-7.38 9.81-14.52 14.3-22.04-9.31-7.37-17.58-16.54-22.05-27.69-3.16-7.96-5.64-16.27-6.55-24.81-2.33.03-4.67.04-7-.03.01 1.88.02 3.76.09 5.64l1.15-.5c-.66 4.72 2.05 9.39 3.28 13.93 3.75 12.34 11.53 23.04 20.72 31.93l-2.64 3.78c-15.82-13.87-24.78-34.18-27.6-54.76-1.63-.01-3.26-.01-4.89-.01-.04 1.54-.05 3.08-.03 4.62l1.04-.56c-.51 3.17.61 6.29 1.27 9.36 2.79 10.46 6.64 20.83 12.97 29.71a91.52 91.52 0 0014.75 15.78c-.86 1.24-1.71 2.48-2.55 3.73-9.43-7.61-17.41-17.14-22.69-28.08-4.82-10.96-8.54-22.59-9.35-34.6l-4.38.12-.5-.13m-25.45 1.6c-.14 1.46-.3 2.91-.44 4.36 1.13.72 2.27 1.44 3.41 2.15-.08.76-.23 2.29-.31 3.05 2.73.01 5.46-.04 8.19-.18.14-3.34.15-6.69.11-10.03-3.65.1-7.41-.46-10.96.65m-7.57 14.62c6.33.64 12.75-.09 19.11.3 1.32-1.26 2.74-2.62 2.69-4.6-1.51 1.02-2.89 2.61-4.88 2.46-4.69.05-9.39.09-14.09-.03-2.97.01-5.14-2.23-7.26-3.98-1.41 2.89 2.28 4.84 4.43 5.85z"></path><path d="M257.89 18.03c1.28-.74 2.6-1.49 3.07-2.99 3.04.05 6.08.06 9.13.03.21 1.64 1.73 2.23 3.02 2.9-1.27.74-2.63 1.43-3.04 2.96-3.04-.04-6.07-.04-9.11-.04-.34-1.57-1.76-2.24-3.07-2.86zm20-2.98c4.73.07 9.46.06 14.19.01.39 1.55 1.75 2.25 3.07 2.94-1.36.61-2.76 1.33-3.11 2.9-4.72-.02-9.44-.04-14.15.03-.37-1.53-1.74-2.23-3-2.96 1.31-.63 2.81-1.27 3-2.92zM66.36 34.1c.97-1.33 2.39-2.32 3.57-3.48.37 1.69 1.7 2.77 3.14 3.58-1.64.51-2.85 1.51-3.1 3.28-1.17-1.16-2.4-2.26-3.61-3.38zm26.57-3.32c1.41.82 2.56 2.01 3.76 3.1-.96 1.36-2.4 2.35-3.6 3.52-.54-1.56-1.58-2.95-3.15-3.56 1.66-.43 2.66-1.45 2.99-3.06zm21.05 3.01c1.61-.48 2.79-1.47 3.08-3.19 1.33 1.21 2.45 2.69 4.03 3.58-1.68.38-2.67 1.37-2.96 2.97-1.85-.49-2.48-2.59-4.15-3.36zm104.36.14c1.16-1.1 2.24-2.39 3.73-3.06.35 1.57 1.64 2.57 2.96 3.31-1.34.58-2.39 1.48-3.14 2.72-1.65.02-2.33-2.14-3.55-2.97zm15.46.31c1.26-.84 2.66-1.62 3.13-3.18 4.36.04 8.72.11 13.08-.08.34 1.58 1.71 2.28 3.07 2.91-1.62 1.61-4.09.88-6.12 1.03-4.38-.29-8.9.63-13.16-.68z"></path></g><path d="M387.65 4.94c2.2-1.51 4.97-.93 7.47-.89.2.44.61 1.33.82 1.77l-.83.06c-2.08.19-4.17.24-6.24-.02l-1.22-.92zm-168.1 2.72c.73-.94 1.5-1.87 2.28-2.78 8.38.01 16.76-.06 25.14.04-.32.51-.95 1.54-1.26 2.05-7.5.26-15.02-.03-22.53.04-1.03.82-2.05 1.64-3.08 2.45-.14-.45-.41-1.35-.55-1.8zm34.7-2.64c15.08-.18 30.21-.37 45.29.09v2.2c-14.45.03-28.95-.44-43.38.25-.43.05-1.31.16-1.74.22-.05-.69-.13-2.07-.17-2.76zM125.09 9.96c30.47.22 60.95-.13 91.42.17.04.55.13 1.65.18 2.2-29.6-.11-59.19-.01-88.79-.05-2.71-.3-4.29 2.25-6.1 3.79-.54-.2-1.63-.59-2.18-.79 1.71-1.89 3.52-3.69 5.47-5.32zm128.83.22c15.1-.31 30.23-.15 45.32-.1l-.2 2.27c-13.66-.12-27.33-.02-41-.04-1.81.21-3.38-.38-4.12-2.13zm48.65 4.56c14.62-.11 29.26-.12 43.88.01.08.58.23 1.74.31 2.32-14.87-.05-29.73-.04-44.6-.01.1-.58.31-1.74.41-2.32zm-118.05 5.6c1.7-1.74 3.78-3.64 6.39-3.51 9.22.03 18.43-.05 27.64.07-.11.57-.33 1.7-.45 2.27-8.39-.25-16.78-.08-25.17-.16-3.16-.31-5.62 1.94-8.17 3.39l-.24-2.06zm45.79 2.24c7.89.35 15.8-.25 23.68.36 1.92 1.75 3.5 4.68 6.54 4.12 0 .53-.01 1.58-.01 2.1-.88-.04-2.63-.11-3.5-.15-1.37-1.34-2.73-2.69-4.1-4.02-7.39.1-14.78.09-22.17.02l-.44-2.43zM6.05 26.49c2.07-2.24 5.19-1.62 7.9-1.73 13.07.08 26.14-.1 39.2.1a52.74 52.74 0 00-3 2.36c-9.05-.36-18.1-.1-27.15-.18-5.65-.13-11.35.48-16.95-.55zm43.54 5.7c2.98-3.41 6.39-7.76 11.46-7.34 14.11-.12 28.22-.12 42.33-.01.07.54.22 1.6.29 2.14-14.24.14-28.49.01-42.73.06-5.1.03-7.21 5.7-11.55 7.49l.2-2.34zm61.92-7.29c38.71-.24 77.42.24 116.14-.04-.05.54-.15 1.6-.19 2.13-38.65.25-77.31-.25-115.95.26V24.9zm190.37 2.17c13.64-.22 27.28-.01 40.92-.12 3.48.06 6.96.06 10.44 0 16.07.09 32.15-.05 48.23.05-.01.51-.02 1.55-.03 2.06-31.83-.02-63.65-.02-95.48.01-1.73.14-3.39-.21-4.08-2zm.45 10.54c.07-.9.15-1.8.24-2.7 26.8.02 53.61 0 80.41.01 4 .02 8.01-.17 12 .28-.41 3.09-3.75 2.26-6 2.36-28.88-.01-57.77-.1-86.65.05zm-180.81 6.36c6.47.32 12.95-.28 19.41.09.53.35 1.58 1.04 2.11 1.38-7.13 1.14-14.37.42-21.55.56.01-.51.02-1.52.03-2.03zm61.09.09l4.38-.12c-.73.95-1.44 1.91-2.15 2.87-.56.86.13 3.82-1.64 2.83-.77-1.75-.58-3.72-.59-5.58zm8.94 4.54c-.02-1.54-.01-3.08.03-4.62 1.63 0 3.26 0 4.89.01-.01.4-.05 1.2-.06 1.6-1.54.4-2.77 1.3-3.82 2.45l-1.04.56zm9.92-4.63c2.33.07 4.67.06 7 .03l.04 1.99c-1.6.02-3.21.04-4.8.07-.02.65-.05 1.97-.06 2.63-.24.1-.71.31-.94.42l-1.15.5c-.07-1.88-.08-3.76-.09-5.64z" fill="#f4f2f4"></path><path d="M246.97 4.92c.5 5.12.23 10.27.29 15.4-6.04.04-12.09-.12-18.14.1-1.59 2.92-4.96 2.17-7.71 2.26-.1-2.11.18-4.39-1.05-6.24-1.79-2.86-.94-6.4-1.06-9.59l.25.81c.14.45.41 1.35.55 1.8 1.03-.81 2.05-1.63 3.08-2.45 7.51-.07 15.03.22 22.53-.04.31-.51.94-1.54 1.26-2.05zm141.9.94c2.07.26 4.16.21 6.24.02.39 6.33.13 12.68.23 19.01-3.74.25-7.49.28-11.23.05 1.23-3.62 3.13-6.99 4.28-10.64.48-2.78.23-5.63.48-8.44zM249.01 9.88h2.98c-.38 3.52-.51 7.07-.53 10.61l-1.94-.01c-.02-3.54-.14-7.08-.51-10.6zm5.33 10.57c-.07-3.43-.08-6.86-.42-10.27.74 1.75 2.31 2.34 4.12 2.13 13.67.02 27.34-.08 41 .04l.2-2.27.23.35c.89 1.38.24 3.09.24 4.6-.33 3.34-.03 6.71.08 10.06-12.91.13-25.83.06-38.74.07-3.15.39-4.59-3.01-6.71-4.71m3.55-2.42c1.31.62 2.73 1.29 3.07 2.86 3.04 0 6.07 0 9.11.04.41-1.53 1.77-2.22 3.04-2.96-1.29-.67-2.81-1.26-3.02-2.9-3.05.03-6.09.02-9.13-.03-.47 1.5-1.79 2.25-3.07 2.99m20-2.98c-.19 1.65-1.69 2.29-3 2.92 1.26.73 2.63 1.43 3 2.96 4.71-.07 9.43-.05 14.15-.03.35-1.57 1.75-2.29 3.11-2.9-1.32-.69-2.68-1.39-3.07-2.94-4.73.05-9.46.06-14.19-.01zM121.8 16.07c1.81-1.54 3.39-4.09 6.1-3.79 29.6.04 59.19-.06 88.79.05.02.58.07 1.76.09 2.34-8.26-.03-16.53-.03-24.79-.03-3.12-.06-5.87 1.84-8.97 1.88-21.26.08-42.52-.18-63.77.14.01-.37.04-1.12.05-1.49l.32.11c.55.2 1.64.59 2.18.79zm96.75.83c.63 1.85.66 3.78-.11 5.6-11.76.22-23.52.17-35.27.01.44-.72.89-1.45 1.35-2.17l.24 2.06c2.55-1.45 5.01-3.7 8.17-3.39 8.39.08 16.78-.09 25.17.16.12-.57.34-1.7.45-2.27zm83.61.16c14.87-.03 29.73-.04 44.6.01-.57 3.14.3 6.15 2.57 8.4 1.3.48 2.61.97 3.91 1.48-3.48.06-6.96.06-10.44 0-.33-1.89-.73-3.76-1.28-5.6-1.46-.45-2.93-.96-4.48-.92-11.57 0-23.14.04-34.71-.01-.04-.84-.13-2.52-.17-3.36zM116.1 18.94c22.31-.1 44.62.07 66.93-.1-1.02 1.27-2.04 2.54-3.05 3.81-19.31-.12-38.63.01-57.94-.07-2.8-.02-5.57.34-8.35.61.31-1.66 1.37-2.97 2.41-4.25z"></path><path d="M229.46 47.57c.81-8.31-.64-16.79.85-24.99l.44 2.43c7.39.07 14.78.08 22.17-.02 1.37 1.33 2.73 2.68 4.1 4.02.87.04 2.62.11 3.5.15.02 3.99 0 7.98-.02 11.97-9.19.07-18.39-.23-27.56.14l-.79.55.6.94c19.4.27 38.83.07 58.24.16 1.76-.18 4.14.55 5.16-1.39-1.24-.23-2.48-.46-3.71-.68.03-4.68.24-9.38-.47-14.02 2.68.02 5.36.04 8.04.05-.79 5.91-.3 11.88-.32 17.81-18.27-.1-36.54.01-54.81-.06-1.86 1.14-3.5 3.1-5.85 3.03-3.19.13-6.38-.04-9.57-.09m4.34-13.33c4.26 1.31 8.78.39 13.16.68 2.03-.15 4.5.58 6.12-1.03-1.36-.63-2.73-1.33-3.07-2.91-4.36.19-8.72.12-13.08.08-.47 1.56-1.87 2.34-3.13 3.18zm-128.75-9.48c1.66-.18 3.33-.14 4.99.01-1.16 5.49-.34 11.13-.58 16.69-1.33.02-2.65.03-3.97.04-.09-5.58.3-11.19-.44-16.74zm122.6.1c-.12 5.55-.1 11.09-.13 16.63-18.03.1-36.06.1-54.09.12-.22-1.68.44-3.78-1.07-5.01-1.25-.99-2.91-1.15-4.41-1.5-9.31-1.63-18.52-3.8-27.88-5.11-2.22-.52-4.16 1.08-5.46 2.68-2.01 2.65-1.21 6.28.06 9.07-7.71-.1-15.42-.17-23.13-.28-.01-4.74.03-9.48-.03-14.21 38.64-.51 77.3-.01 115.95-.26.04-.53.14-1.59.19-2.13m-113.67 8.93c1.67.77 2.3 2.87 4.15 3.36.29-1.6 1.28-2.59 2.96-2.97-1.58-.89-2.7-2.37-4.03-3.58-.29 1.72-1.47 2.71-3.08 3.19m104.36.14c1.22.83 1.9 2.99 3.55 2.97.75-1.24 1.8-2.14 3.14-2.72-1.32-.74-2.61-1.74-2.96-3.31-1.49.67-2.57 1.96-3.73 3.06zM5.68 31.97c-.36-1.83.08-3.67.37-5.48 5.6 1.03 11.3.42 16.95.55 9.05.08 18.1-.18 27.15.18-.2.31-.6.94-.8 1.25-10.46.28-20.94.01-31.41.1-2.4-.11-4.81 1.11-6.2 3.06-1.54 2.12-1.15 4.87-1.25 7.34.1 8.04-.05 16.09.05 24.13-.09 2.27 2.1 4.64 4.48 3.9 1.81-.73 3.35-1.97 4.93-3.09 7.78-5.88 15.89-11.32 23.65-17.23 1.63-1.27 3.43-2.3 5.24-3.28.4.59 1.18 1.75 1.57 2.34-10.7 8.2-21.63 16.1-32.42 24.19-3.26 2.33-8.03 5.23-11.53 1.7-.21-3.99-.25-8.01.45-11.96 1.61-9.21.18-18.56-1.23-27.7z"></path><path d="M49.39 34.53c4.34-1.79 6.45-7.46 11.55-7.49 14.24-.05 28.49.08 42.73-.06-.3 4.82-.11 9.65-.19 14.47-13.53.08-27.05.04-40.58.02-3.88-.12-7.36 1.85-11.01 2.85-2.98-3.33-2.83-7.97-2.3-12.13l-.2 2.34m16.97-.43c1.21 1.12 2.44 2.22 3.61 3.38.25-1.77 1.46-2.77 3.1-3.28-1.44-.81-2.77-1.89-3.14-3.58-1.18 1.16-2.6 2.15-3.57 3.48m26.57-3.32c-.33 1.61-1.33 2.63-2.99 3.06 1.57.61 2.61 2 3.15 3.56 1.2-1.17 2.64-2.16 3.6-3.52-1.2-1.09-2.35-2.28-3.76-3.1zm169.03-3.95h5.08c-.76 4.75-.45 9.57-.5 14.35-1.38-.08-2.77-.15-4.15-.23.08-4.71.3-9.45-.43-14.12zm6.01.01h5.08c-.81 4.75-.48 9.57-.54 14.36l-4.1-.27c.08-4.7.3-9.43-.44-14.09zm6.01 0h5.07c-.77 4.74-.46 9.56-.5 14.35l-4.18-.27c.12-4.7.29-9.41-.39-14.08zm6 0h5.06c-.8 4.75-.46 9.57-.53 14.36-1.37-.08-2.74-.17-4.1-.27.08-4.7.29-9.42-.43-14.09zm6 0h5.05c-.74 4.75-.44 9.56-.49 14.34-1.38-.08-2.77-.15-4.15-.23.08-4.71.28-9.44-.41-14.11zm16.38 6.22c-.17-2-.21-4-.48-5.99.69 1.79 2.35 2.14 4.08 2 31.83-.03 63.65-.03 95.48-.01-.01 1.38-.02 2.75-.02 4.13-33.02-.14-66.04.13-99.06-.13zM171.25 43.88l5.26-.21c.2 6.98.22 13.97.01 20.95-.78-.2-2.33-.6-3.1-.79-.3-2.88-.07-5.79-.06-8.68-.62.18-1.86.52-2.47.7.57-3.97.48-7.98.36-11.97zm-50.4 5.1c.57-1.6.49-3.34.67-5.01-.01.51-.02 1.52-.03 2.03 7.18-.14 14.42.58 21.55-.56l.18-.02c.61 2 1.88 4.31.51 6.31-2.12 3.47-5.65 5.76-8.21 8.88-3.49 4.2-6.63 9-7.68 14.45-.73 3.35.6 6.65 1.03 9.95-5.82-.18-11.46-2.02-16.85-4.1-2.48-.86-2.85-3.76-1.75-5.85 3.43-8.73 6.94-17.44 10.58-26.08zm27.52-5.26c1.86.03 3.73.05 5.59.08-.5 2.06-1.13 4.11-1.32 6.22.52 1.38 1.54 2.47 2.37 3.66-1.38-.82-2.84-1.55-4.1-2.56-1.89-1.98-2.16-4.83-2.54-7.4zm33.74.21l.5.13c.01 1.86-.18 3.83.59 5.58 1.77.99 1.08-1.97 1.64-2.83.71-.96 1.42-1.92 2.15-2.87.81 12.01 4.53 23.64 9.35 34.6 5.28 10.94 13.26 20.47 22.69 28.08.84-1.25 1.69-2.49 2.55-3.73a91.52 91.52 0 01-14.75-15.78c-6.33-8.88-10.18-19.25-12.97-29.71-.66-3.07-1.78-6.19-1.27-9.36 1.05-1.15 2.28-2.05 3.82-2.45.01-.4.05-1.2.06-1.6 2.82 20.58 11.78 40.89 27.6 54.76l2.64-3.78c-9.19-8.89-16.97-19.59-20.72-31.93-1.23-4.54-3.94-9.21-3.28-13.93.23-.11.7-.32.94-.42.01-.66.04-1.98.06-2.63 1.59-.03 3.2-.05 4.8-.07l-.04-1.99c.91 8.54 3.39 16.85 6.55 24.81 4.47 11.15 12.74 20.32 22.05 27.69-4.49 7.52-9.59 14.66-14.3 22.04-15.64-11.26-28.35-27.13-34.29-45.6-2.57-6.38-3.91-13.12-5.44-19.79-1.23-2.94-.78-6.13-.93-9.22z"></path><path d="M149.09 60.15c-2.15-1.01-5.84-2.96-4.43-5.85 2.12 1.75 4.29 3.99 7.26 3.98 4.7.12 9.4.08 14.09.03 1.99.15 3.37-1.44 4.88-2.46.05 1.98-1.37 3.34-2.69 4.6-6.36-.39-12.78.34-19.11-.3z"></path><path d="M256.16 7.56c14.43-.69 28.93-.22 43.38-.25.05.88.14 2.64.18 3.52l-.25-.4-.23-.35c-.18-.36-.56-1.07-.74-1.43-12.83-.31-25.67-.08-38.5-.1-1.4.12-2.68-.21-3.84-.99zM137.53 32.52c2.12-.66 4.38-.21 6.51.17 8.95 1.88 18.02 3.21 26.89 5.42-.15 1.13-.3 2.27-.44 3.4-10.83-.23-21.69.51-32.48-.58-3.28-1.48-3.32-6.46-.48-8.41z" fill="#3c3c3c"></path></svg>