<svg data-v-ea210746="" xmlns="http://www.w3.org/2000/svg" fill="#fff" viewBox="0 0 64 64" class="ui-icon max-h-full w-full" style="fill: rgb(107, 155, 203); opacity: 1;"><g fill="#000"><path d="M21.3 34.74l-.24.11q-.6.28-.43.92 1.63 6.5-2.16 10.46c-4.31 4.5-11.62 3.69-15.11-1.54C.53 40.43 1.89 34.3 6.31 31.43q3.43-2.23 7.85-1.27a1.61 1.6-61.1 001.5-.44q6.11-6.11 12.93-12.96c1.84-1.85 4.29-2.2 6.84-1.99 2.53.22 4.32 2.29 3.49 4.92-1.16 3.72-4.34 1.49-6.16 3.29a.67.67 0 00.06 1.01l7.91 6.06a.72.72 0 00.97-.1c6.36-7.16 17.98-4.43 20.11 5.12 2.88 12.95-14.86 19.67-21.4 8.29a1.93 1.92-14.7 00-1.65-.96q-5.77-.04-11.52-.05-3.69 0-5.46-7.38a.35.34-18.7 00-.48-.23m20.76-1.18a.31.3-57.2 01-.46.1l-12.18-9.34a.65.65 0 01-.07-.97l2.85-2.92q.38-.39.93-.37 1.37.03 2.59-.41a1.2 1.19 49.3 00.16-2.17q-2.96-1.6-5.31.71-7.35 7.23-14.1 14.17-.34.34-.81.43-.9.18-1.79-.12C6.25 30.16.79 39.38 6.59 44.92c3.58 3.41 9.1 2.19 11.4-1.99q1.97-3.58-.34-7.5-.09-.14.02-.26 2.24-2.54 4.66-4.7a.12.12 0 01.19.05q1.53 3.72 2.62 7.31a3.46 3.45 81.4 003.3 2.44h12.08a1.53 1.53 0 011.37.85q2.52 5.11 7.64 5.66c4.06.44 8.19-2.03 9.58-5.79 4.18-11.25-11.73-18.13-17.05-7.43"></path><path d="M50.58 35.24l-4.92.09a.66.66 0 01-.57-1c1.75-2.85 5.08-3.81 8.15-2.48 3.26 1.4 4.45 5.65 2.78 8.7-2.27 4.17-8.23 4.32-10.88.32a.45.45 0 01.41-.69c2.39.2 6.33.98 7.15-2.25a2.15 2.15 0 00-2.12-2.69m-38.91 4.97q1.39.02 2.58-1.82a.83.83 0 011.49.23q.17.63.04 1.32-.86 4.58-5.51 3.67c-4.9-.96-3.8-8.84 2.02-8.38a.57.56 25.3 01.35.97l-1.85 1.75a1.31 1.31 0 00.88 2.26"></path></g><path d="M42.06 33.56c5.32-10.7 21.23-3.82 17.05 7.43-1.39 3.76-5.52 6.23-9.58 5.79q-5.12-.55-7.64-5.66a1.53 1.53 0 00-1.37-.85H28.44a3.46 3.45 81.4 01-3.3-2.44q-1.09-3.59-2.62-7.31a.12.12 0 00-.19-.05q-2.42 2.16-4.66 4.7-.11.12-.02.26 2.31 3.92.34 7.5c-2.3 4.18-7.82 5.4-11.4 1.99-5.8-5.54-.34-14.76 7.28-12.25q.89.3 1.79.12.47-.09.81-.43 6.75-6.94 14.1-14.17 2.35-2.31 5.31-.71a1.2 1.19 49.3 01-.16 2.17q-1.22.44-2.59.41-.55-.02-.93.37l-2.85 2.92a.65.65 0 00.07.97l12.18 9.34a.31.3-57.2 00.46-.1m8.52 1.68a2.15 2.15 0 012.12 2.69c-.82 3.23-4.76 2.45-7.15 2.25a.45.45 0 00-.41.69c2.65 4 8.61 3.85 10.88-.32 1.67-3.05.48-7.3-2.78-8.7-3.07-1.33-6.4-.37-8.15 2.48a.66.66 0 00.57 1zm-38.91 4.97a1.31 1.31 0 01-.88-2.26l1.85-1.75a.57.56 25.3 00-.35-.97c-5.82-.46-6.92 7.42-2.02 8.38q4.65.91 5.51-3.67.13-.69-.04-1.32a.83.83 0 00-1.49-.23q-1.19 1.84-2.58 1.82"></path></svg>