<svg data-v-ea210746="" xmlns="http://www.w3.org/2000/svg" fill="#fff" viewBox="0 0 64 64" class="ui-icon max-h-full w-full" style="fill: rgb(115, 155, 189); opacity: 1;"><g fill="#000"><path d="M54.78 32a22.79 22.79 0 01-22.79 22.79A22.79 22.79 0 019.2 32 22.79 22.79 0 0131.99 9.21 22.79 22.79 0 0154.78 32m-2.09 0a20.7 20.7 0 00-20.7-20.7A20.7 20.7 0 0011.29 32a20.7 20.7 0 0020.7 20.7A20.7 20.7 0 0052.69 32"></path><path d="M29.05 43.79q-5.81-1.12-6.77-6.71-.23-1.34 1.13-1.34l2.84-.01a1.45 1.44-3.8 011.44 1.25q.22 1.54 1.61 2.2 3.17 1.53 6.31-.26a1.82 1.82 0 00.59-2.64c-1.28-1.78-6.71-2.88-8.9-3.64-6.67-2.31-5.23-10.37 1.05-12.28q.65-.2.63-.88l-.1-2.34q-.03-.67.65-.6 1.47.17 2.86-.11a1.63 1.63 0 011.94 1.74l-.1 1.05q-.07.86.78 1c3.31.58 5.87 3.36 5.86 6.69q0 .64-.64.63l-3.65-.05q-.68-.01-.82-.68-.46-2.28-2.81-2.56c-1.54-.19-3.54-.22-4.47 1.27a1.77 1.77 0 00.86 2.6q3.1 1.2 6.71 2.04 5.74 1.33 5.69 7.05c-.03 3.18-2.93 5.95-6 6.4a1.12 1.11-88.1 00-.93.88q-.22 1.04.03 2.18a.64.64 0 01-.62.78l-3.93.01a.85.84-87.8 01-.84-.92l.18-1.98a.73.73 0 00-.58-.77"></path></g><path d="M52.69 32a20.7 20.7 0 01-20.7 20.7A20.7 20.7 0 0111.29 32a20.7 20.7 0 0120.7-20.7A20.7 20.7 0 0152.69 32M29.63 44.56l-.18 1.98a.85.84-87.8 00.84.92l3.93-.01a.64.64 0 00.62-.78q-.25-1.14-.03-2.18a1.12 1.11-88.1 01.93-.88c3.07-.45 5.97-3.22 6-6.4q.05-5.72-5.69-7.05-3.61-.84-6.71-2.04a1.77 1.77 0 01-.86-2.6c.93-1.49 2.93-1.46 4.47-1.27q2.35.28 2.81 2.56.14.67.82.68l3.65.05q.64.01.64-.63c.01-3.33-2.55-6.11-5.86-6.69q-.85-.14-.78-1l.1-1.05a1.63 1.63 0 00-1.94-1.74q-1.39.28-2.86.11-.68-.07-.65.6l.1 2.34q.02.68-.63.88c-6.28 1.91-7.72 9.97-1.05 12.28 2.19.76 7.62 1.86 8.9 3.64a1.82 1.82 0 01-.59 2.64q-3.14 1.79-6.31.26-1.39-.66-1.61-2.2a1.45 1.44-3.8 00-1.44-1.25l-2.84.01q-1.36 0-1.13 1.34.96 5.59 6.77 6.71a.73.73 0 01.58.77"></path></svg>