<svg data-v-ea210746="" xmlns="http://www.w3.org/2000/svg" viewBox="0 0 64 64" fill="#fff" class="ui-icon max-h-full w-full" style="opacity: 1;"><path d="M45.84 46.24q.94 2.43 2.22 4.97c4.17 8.34-7.24 13.19-10.71 5.31q-3.19-7.24-6.45-14.51-.27-.6-.77-.18-5.68 4.79-13.53 2.88C9.81 43.06 2.98 37.38 3.53 29.8c.65-8.94 10.91-10.16 17.54-8.26a.39.39 0 00.48-.48q-1.59-5.44-.17-10.44C23.76 2.26 33.1 1.73 38.85 6.8c6.48 5.71 9 16.37 2.96 23.28a.51.5 32.5 00.18.79q7.09 3.24 14.08 6.28c3.6 1.57 5.52 4.5 3.86 8.45-2.61 6.22-9.83 1.98-13.65.23q-.72-.33-.44.41M30 37.16q.49-1.75 1.23-.09l8.46 18.81q1.39 3.08 4.62 2.08.56-.18 1.02-.59 2.06-1.88.91-4.42l-5.08-11.16a.42.41 64.1 01.18-.53q.4-.22.81-.02 5.54 2.78 10.9 4.99 3.2 1.31 4.83-1.74.36-.67.3-1.43-.17-2.44-2.4-3.44l-19.05-8.54q-1.27-.57.05-1 .39-.13.8-.11.56.02 1.01-.33c8.14-6.19 3.96-17.89-3.19-22.45q-3.18-2.03-6.12-1.31c-8.36 2.03-7.14 12.85-3.53 18.58q.35.57 0 1.14a.76.76 0 01-1.04.24c-4.67-2.83-11.4-4.28-15.92-.98q-3.32 2.42-3.02 6.07c.66 7.79 10.13 13.21 17.25 11.85q5.72-1.08 6.98-5.62"></path><path fill="#000" d="M30 37.16q-1.26 4.54-6.98 5.62C15.9 44.14 6.43 38.72 5.77 30.93q-.3-3.65 3.02-6.07c4.52-3.3 11.25-1.85 15.92.98a.76.76 0 001.04-.24q.35-.57 0-1.14c-3.61-5.73-4.83-16.55 3.53-18.58q2.94-.72 6.12 1.31c7.15 4.56 11.33 16.26 3.19 22.45q-.45.35-1.01.33-.41-.02-.8.11-1.32.43-.05 1l19.05 8.54q2.23 1 2.4 3.44.06.76-.3 1.43-1.63 3.05-4.83 1.74-5.36-2.21-10.9-4.99-.41-.2-.81.02a.42.41 64.1 00-.18.53l5.08 11.16q1.15 2.54-.91 4.42-.46.41-1.02.59-3.23 1-4.62-2.08l-8.46-18.81q-.74-1.66-1.23.09m6.368-11.395a8.46 5.08 66.1 001.216-9.793 8.46 5.08 66.1 00-8.072-5.677 8.46 5.08 66.1 00-1.216 9.793 8.46 5.08 66.1 008.072 5.677M25.79 36.384a8.5 5.08 23.9 00-5.713-8.088 8.5 5.08 23.9 00-9.83 1.2 8.5 5.08 23.9 005.714 8.088 8.5 5.08 23.9 009.83-1.2"></path><ellipse rx="8.46" ry="5.08" transform="rotate(66.1 2.615 34.328)"></ellipse><ellipse rx="8.5" ry="5.08" transform="rotate(23.9 -68.81 59.041)"></ellipse></svg>