<svg data-v-ea210746="" viewBox="0 0 303 36" xmlns="http://www.w3.org/2000/svg" fill="#7e7f7e" class="ui-icon max-h-full w-full" style="fill: rgb(254, 235, 169); opacity: 1;"><path fill="#000" d="M143.01 8.04c18.94-2.56 37.8-6.24 56.96-6.8 30.36-.08 60.72-.01 91.09-.04 4.69-.06 9.9 2.61 10.67 7.63.4 5.06.14 10.16.16 15.24.05 5.58-5.67 9.65-10.95 9.19-29.64.04-59.28.01-88.91.01-17.52-.14-34.81-3.24-52.09-5.78-17.81-3.16-35.96-.99-53.92-1.81-24.34.21-48.67-.05-73 .11-2.84.02-5.9-.7-8.55.66-1.86 1.45-3.06 4-5.62 4.34-2.4.73-4.15-1.61-5.09-3.46-2.92-6.66-2.65-14.62.46-21.16.59-1.57 2.2-2.34 3.73-2.7 3.13.52 4.87 3.48 7.08 5.45 35 .14 69.99.07 104.99.06 7.67.15 15.37.11 22.99-.94m5.09 2.58c-13.95 2.31-28.14 1.36-42.22 1.33-.93 3.42-1.11 7.23.34 10.53 10.9-.09 21.82-.35 32.71.3 21.99 2.48 43.77 7.58 66 7.26 29.04-.04 58.09.05 87.13-.04 3.73.28 6.93-3.26 6.61-6.91-.01-4.59.19-9.2-.14-13.78-.84-3.22-4.24-5.14-7.47-4.79-28.35-.07-56.7 0-85.06-.03-19.47-.27-38.7 3.35-57.9 6.13M4.89 16c0 .49-.02 1.46-.03 1.95.23 3.56.96 7.14 3.03 10.11 1.95-2.95.34-6.81 1.21-10.13-.08-.47-.23-1.4-.31-1.87.09-3.07.12-6.14.03-9.21C5.23 8.11 5.84 12.98 4.89 16m6.22-6.28c-.06 2.22-.08 4.45-.02 6.68 0 .36.01 1.08.01 1.44-.12 2.31-.14 4.62-.14 6.94 1.15-.81 2.32-1.61 3.49-2.4-.04-1.57-.11-3.14-.22-4.71l.32-.7-.39-.66c.08-1.39.15-2.79.21-4.18-1.09-.8-2.17-1.61-3.26-2.41m5.57 2.45c-.17 3.49-.28 6.99.18 10.46 2.86-2.77 4.56-6.7 5.32-10.55-1.83.02-3.67.06-5.5.09m9.62-.03c-1.68 1.04-2.26 2.99-2.97 4.7-.48.95-.96 1.9-1.42 2.85l-.68.61c.27.51.81 1.55 1.07 2.06 2.77.09 5.55.1 8.3-.29.77-1.16 1.55-2.32 2.34-3.47l-1.2-.47 1.02-.16.64-1.86.28.02c.6-1.35 1.24-2.67 1.86-4.01-3.08.04-6.17-.28-9.24.02m9.92 4l-.72 1.46-.22-.02c-.74 1.52-2.05 3.67.25 4.68 2.52.29 5.07.1 7.6.14.68-1.41 1.33-2.84 1.92-4.3.28-.51.86-1.53 1.15-2.05.68-1.24 1.25-2.53 1.89-3.8-4.16-.06-10.76-1.79-11.87 3.89m14.98-4.19c-.8 1.29-1.57 2.6-2.26 3.95-.29.52-.88 1.55-1.17 2.07-1.54 1.67-.91 3.29.84 4.45 2.28-.02 4.57.06 6.85.18.72-1.5 1.44-3 2.11-4.52.22-.44.67-1.3.89-1.74l.17.02c.65-1.42 1.22-2.88 1.89-4.29-3.1.05-6.21.05-9.32-.12m13.12.06a28.37 28.37 0 00-3.33 3.93l-.42 2.52c-.41.31-1.23.94-1.64 1.25.35.67 1.05 2 1.39 2.67 2.61 0 5.22-.01 7.82 0 .72-1.42 1.43-2.84 2.1-4.28.27-.49.81-1.47 1.09-1.96.6-1.31 1.16-2.64 1.77-3.95-2.92-.13-5.85-.12-8.78-.18m12.02.35c-.92 1-1.77 2.07-2.53 3.2l1.25.17c-.66.49-2 1.45-2.66 1.93l.92.1c-.47 1.43-2.62 2.83-1.14 4.4 2.92.5 5.91.15 8.86.19.47-1.41 1.02-2.8 1.48-4.23.5-.47 1.49-1.42 1.99-1.89l-.8-.04c.78-1.3 1.56-2.61 2.35-3.91-3.23-.36-6.51-.48-9.72.08m13.07-.19c-.47.37-1.41 1.13-1.88 1.51-.12.54-.37 1.64-.5 2.19l-1.21-.02c0 .54-.01 1.62-.02 2.15h-.56c-.42 1.36-.84 2.71-1.25 4.07 2.38.31 4.79.42 7.2.24.91-.61 1.85-1.2 2.81-1.75.56-.8 1.1-1.61 1.64-2.42l.68-1.91.68.03c.01-1.39.05-2.77 0-4.16-2.53.04-5.06.06-7.59.07m10.87 1.17c-.39 1.1-.76 2.2-1.11 3.31l-.79.88h-.02c-.76 1.61-1.53 3.2-2.31 4.8 1.79.04 3.59.1 5.39.18.89-1.2 1.65-2.5 1.66-4.05l-.24-3.95c.05-.56.16-1.69.21-2.25l-2.79 1.08z"></path><path d="M148.1 10.62c19.2-2.78 38.43-6.4 57.9-6.13 28.36.03 56.71-.04 85.06.03 3.23-.35 6.63 1.57 7.47 4.79.33 4.58.13 9.19.14 13.78.32 3.65-2.88 7.19-6.61 6.91-29.04.09-58.09 0-87.13.04-22.23.32-44.01-4.78-66-7.26-10.89-.65-21.81-.39-32.71-.3-1.45-3.3-1.27-7.11-.34-10.53 14.08.03 28.27.98 42.22-1.33m145.86 4.44c-.01 2.16-.01 4.32-.01 6.49-1.13 1.12-2.25 2.26-3.37 3.39-32.54.01-65.08 0-97.61.01-.01.52-.02 1.57-.03 2.1 32.88-.01 65.76.05 98.64-.04 1.44-1.5 2.92-2.97 4.43-4.41.04-2.51.04-5.03.03-7.54h-2.08zM4.89 16c.95-3.02.34-7.89 3.93-9.15.09 3.07.06 6.14-.03 9.21-1.3-.03-2.6-.05-3.9-.06zm6.22-6.28c1.09.8 2.17 1.61 3.26 2.41-.06 1.39-.13 2.79-.21 4.18-.77.02-2.31.07-3.07.09-.06-2.23-.04-4.46.02-6.68zm5.57 2.45c1.83-.03 3.67-.07 5.5-.09-.76 3.85-2.46 7.78-5.32 10.55-.46-3.47-.35-6.97-.18-10.46zm9.62-.03c3.07-.3 6.16.02 9.24-.02-.62 1.34-1.26 2.66-1.86 4.01l-.28-.02c-3.35-.11-6.89-.66-10.07.73.71-1.71 1.29-3.66 2.97-4.7zm9.92 4c1.11-5.68 7.71-3.95 11.87-3.89-.64 1.27-1.21 2.56-1.89 3.8-3.33-.08-6.66-.17-9.98.09zm14.98-4.19c3.11.17 6.22.17 9.32.12-.67 1.41-1.24 2.87-1.89 4.29l-.17-.02c-3.16-.36-6.34-.43-9.52-.44.69-1.35 1.46-2.66 2.26-3.95zm13.12.06c2.93.06 5.86.05 8.78.18-.61 1.31-1.17 2.64-1.77 3.95-3.45-.14-6.89-.16-10.34-.2a28.37 28.37 0 013.33-3.93zm12.02.35c3.21-.56 6.49-.44 9.72-.08-.79 1.3-1.57 2.61-2.35 3.91-2.88-.24-5.77-.24-8.65-.46l-1.25-.17c.76-1.13 1.61-2.2 2.53-3.2zm13.07-.19c2.53-.01 5.06-.03 7.59-.07.05 1.39.01 2.77 0 4.16l-.68-.03c-3.09-.24-6.19-.32-9.29-.36.13-.55.38-1.65.5-2.19.47-.38 1.41-1.14 1.88-1.51zm10.87 1.17l2.79-1.08c-.05.56-.16 1.69-.21 2.25-1.22.75-2.52 1.33-3.69 2.14.35-1.11.72-2.21 1.11-3.31zm-65 4.24l.22.02c3.17.42 6.36.51 9.55.5-.59 1.46-1.24 2.89-1.92 4.3-2.53-.04-5.08.15-7.6-.14-2.3-1.01-.99-3.16-.25-4.68zm63.08-.05h.02c1.57.33 3.15.61 4.72.93-.01 1.55-.77 2.85-1.66 4.05-1.8-.08-3.6-.14-5.39-.18.78-1.6 1.55-3.19 2.31-4.8zm-93.5.42c1.42 0 2.83-.01 4.24-.02-.87 3.32.74 7.18-1.21 10.13-2.07-2.97-2.8-6.55-3.03-10.11zm6.24-.11c.78-.04 2.35-.12 3.13-.17.11 1.57.18 3.14.22 4.71-1.17.79-2.34 1.59-3.49 2.4 0-2.32.02-4.63.14-6.94zm12.79.05c2.62.05 5.24.09 7.85.24l1.2.47c-.79 1.15-1.57 2.31-2.34 3.47-2.75.39-5.53.38-8.3.29-.26-.51-.8-1.55-1.07-2.06l.68-.61 1.98-1.8zm23.88.08c3.26.05 6.53.13 9.8.11-.67 1.52-1.39 3.02-2.11 4.52-2.28-.12-4.57-.2-6.85-.18-1.75-1.16-2.38-2.78-.84-4.45zm12.8.49c3.17-.74 6.45-.29 9.67-.36-.67 1.44-1.38 2.86-2.1 4.28-2.6-.01-5.21 0-7.82 0-.34-.67-1.04-2-1.39-2.67.41-.31 1.23-.94 1.64-1.25zm12.75-.7c3.05.34 6.13.49 9.2.36-.46 1.43-1.01 2.82-1.48 4.23-2.95-.04-5.94.31-8.86-.19-1.48-1.57.67-2.97 1.14-4.4zm11.92.24h.56c3.28 0 6.56.17 9.84.14-.54.81-1.08 1.62-1.64 2.42-.96.55-1.9 1.14-2.81 1.75-2.41.18-4.82.07-7.2-.24.41-1.36.83-2.71 1.25-4.07z"></path><path d="M99.17 16.65c1.17-.81 2.47-1.39 3.69-2.14l.24 3.95c-1.57-.32-3.15-.6-4.72-.93l.79-.88zm194.79-1.59h2.08c.01 2.51.01 5.03-.03 7.54-1.51 1.44-2.99 2.91-4.43 4.41-32.88.09-65.76.03-98.64.04.01-.53.02-1.58.03-2.1 32.53-.01 65.07 0 97.61-.01 1.12-1.13 2.24-2.27 3.37-3.39 0-2.17 0-4.33.01-6.49zM4.89 16c1.3.01 2.6.03 3.9.06.08.47.23 1.4.31 1.87-1.41.01-2.82.02-4.24.02.01-.49.03-1.46.03-1.95zm6.2.4c.76-.02 2.3-.07 3.07-.09l.39.66-.32.7c-.78.05-2.35.13-3.13.17 0-.36-.01-1.08-.01-1.44zm12.24.44c3.18-1.39 6.72-.84 10.07-.73l-.64 1.86-1.02.16c-2.61-.15-5.23-.19-7.85-.24l-1.98 1.8c.46-.95.94-1.9 1.42-2.85zm12.89-.7c3.32-.26 6.65-.17 9.98-.09-.29.52-.87 1.54-1.15 2.05-3.19.01-6.38-.08-9.55-.5l.72-1.46zm12.72-.24c3.18.01 6.36.08 9.52.44-.22.44-.67 1.3-.89 1.74-3.27.02-6.54-.06-9.8-.11.29-.52.88-1.55 1.17-2.07zm12.05.04c3.45.04 6.89.06 10.34.2-.28.49-.82 1.47-1.09 1.96-3.22.07-6.5-.38-9.67.36l.42-2.52zm11.41 1.72c.66-.48 2-1.44 2.66-1.93 2.88.22 5.77.22 8.65.46l.8.04c-.5.47-1.49 1.42-1.99 1.89-3.07.13-6.15-.02-9.2-.36l-.92-.1zm13.42-1.81l1.21.02c3.1.04 6.2.12 9.29.36l-.68 1.91c-3.28.03-6.56-.14-9.84-.14.01-.53.02-1.61.02-2.15z" fill="#eee"></path></svg>