<svg data-v-ea210746="" xmlns="http://www.w3.org/2000/svg" fill="#fff" viewBox="0 0 64 64" class="ui-icon max-h-full w-full" style="opacity: 1;"><path d="M12.75 43.61c.06 3.42.64 7.57-3.93 8.32-5.31.88-6.37-2.6-6.26-6.98q.35-14.24.15-28.09c-.05-3.47 1.71-4.85 5.06-4.86q4.93-.01 4.96 5.25.04 7.99.02 16.17 0 1.18.89.41l1.05-.9a2.36 2.32 73.5 00.8-1.5c.38-2.89.35-8.6 3.17-10.21 1.17-.66 2.45-.16 3.58-.9q.47-.32 1.04-.32h17.7q.52 0 .91.34.58.51 1.37.44c4.89-.43 4.87 7.1 5.14 10.46a2.04 2.03 19.6 00.63 1.32l1.73 1.64q.5.47.49-.22-.02-8.93-.03-16.81-.01-4.87 4.8-5.21c7.5-.53 5.24 8.89 5.24 13.19q.01 11.8-.02 22.67-.01 3.51-3.53 4.06-6.25.97-6.34-4.91-.02-1.49-.17-2.95-.18-1.64-1.15-.3-.68.95-.62 2.16c.1 2.02-1.53 3.68-3.41 4.01q-5.93 1.06-6.59-4.49a.47.47 0 00-.47-.41H25.4a.88.87 5.6 00-.86.7q-1.12 5.52-6.83 4.12-3.29-.81-3.18-4.58.02-.81-.54-1.39l-.53-.53q-.73-.75-.71.3m-2.235-27.32A1.92 1.92 0 008.6 14.363l-1.72-.006a1.92 1.92 0 00-1.926 1.913l-.11 31.38a1.92 1.92 0 001.914 1.927l1.72.006a1.92 1.92 0 001.926-1.913zm48.61.05a1.99 1.99 0 00-1.983-1.997l-1.54-.006a1.99 1.99 0 00-1.997 1.983l-.11 31.32a1.99 1.99 0 001.983 1.997l1.54.006a1.99 1.99 0 001.997-1.983zM41.64 43.35l.14 2.42q.11 1.87 1.99 1.9l1.46.03q1.97.04 2.01-1.93l.06-2.5q.01-.5.42-.8 2.79-2 1.63-5.71-.55-1.75-2.25-2.22-.53-.14-.61-.69l-1.25-9.21a1.86 1.85-3.7 00-1.84-1.61L20.5 23a1.74 1.73 3.8 00-1.72 1.5l-1.29 9.29q-.07.5-.54.68-3.08 1.19-2.47 5.25.31 2.06 1.61 2.76.56.31.59.95l.09 2.49a1.79 1.78 4.5 001.45 1.69q1.49.28 2.97-.16a1.06 1.04 1.5 00.7-.65q.55-1.53.36-3.24-.09-.82.74-.82h17.99q.62 0 .66.61"></path><path d="M21.77 32.01a.22.22 0 01-.22-.22v-1.81a3.99 2.33-90 012.33-3.99h16.26a3.99 2.33 90 012.33 3.99v1.81a.22.22 0 01-.22.22z"></path><g fill="#000"><rect width="5.56" height="35.22" x="-2.78" y="-17.61" rx="1.92" transform="rotate(.2 -9154.881 2216.14)"></rect><rect width="5.52" height="35.3" x="-2.76" y="-17.65" rx="1.99" transform="rotate(.2 -9136.296 16147.605)"></rect><path d="M40.98 42.74H22.99q-.83 0-.74.82.19 1.71-.36 3.24a1.06 1.04 1.5 01-.7.65q-1.48.44-2.97.16a1.79 1.78 4.5 01-1.45-1.69l-.09-2.49q-.03-.64-.59-.95-1.3-.7-1.61-2.76-.61-4.06 2.47-5.25.47-.18.54-.68l1.29-9.29A1.74 1.73 3.8 0120.5 23l22.9.03a1.86 1.85-3.7 011.84 1.61l1.25 9.21q.08.55.61.69 1.7.47 2.25 2.22 1.16 3.71-1.63 5.71-.41.3-.42.8l-.06 2.5q-.04 1.97-2.01 1.93l-1.46-.03q-1.88-.03-1.99-1.9l-.14-2.42q-.04-.61-.66-.61M21.77 32.01h20.48a.22.22 0 00.22-.22v-1.81a3.99 2.33 90 00-2.33-3.99H23.88a3.99 2.33 90 00-2.33 3.99v1.81a.22.22 0 00.22.22"></path></g></svg>