<svg data-v-ea210746="" viewBox="0 0 370 129" xmlns="http://www.w3.org/2000/svg" fill="#7d7e7d" class="ui-icon max-h-full absolute left-1/2 top-1/2 -translate-x-1/2 -translate-y-1/2 z-[201] w-[70%]" style="fill: rgb(93, 182, 229); opacity: 1;"><g fill="#000"><path d="M143.29 4.14c.9-2.83 4.14-3.42 6.73-3.26 5.43-.38 10.91 2.54 13.72 7.17 1.14 2.97.69 6.23 1.12 9.33 44.35.04 88.71-.02 133.06.03.47-4.68-.8-9.59.94-14.08 2.66.98 5.27 2.1 7.84 3.28.15 1.74.3 3.48.46 5.22 2.96 1.61 8.16 1.38 8.54 5.63 4.85.09 9.79-.52 14.6.32 4.42 2.2 3.67 8.1 3.8 12.24 3.56-.31 8.09-.07 9.1 4.16 6.6.22 13.2 0 19.8.09 2.43-.07 5.16 1.24 5.75 3.78.44 3.35.37 6.8-.56 10.07-1.66.7-3.24 1.82-5.12 1.7-6.48 0-12.96.03-19.44-.06-.97 1.27-1.78 2.74-3.11 3.67-1.99.87-4.24.55-6.34.67-.21 3.04-.84 6.57-3.63 8.33-1.45.54-3.03.39-4.54.46-33.99-.06-67.99.01-101.98-.03-4.1-.07-8.26.4-12.27-.65-.38-1.11-.75-2.21-1.13-3.31.1 3.54.11 7.09.04 10.63.73.77 1.46 1.54 2.19 2.32.04 2.05.1 4.1.17 6.16-1.64.33-3.28.67-4.93.98-1.04 12.88 2.52 25.43 4.58 38.01.89 3.08-1.65 6.19-4.69 6.53-7.66 1.39-15.27 3.1-22.95 4.34-3.07.88-5.85-1.6-6.47-4.47-1.59-6.78-3.08-13.59-4.69-20.37-1.59-6.32-.95-12.89-.96-19.34-7.68 2.99-16.56 3.19-24.18-.07-1.13.83-2.25 1.67-3.37 2.52-.54 3.74-1.94 7.98-5.99 9.12.92 4.14-1.37 7.7-4.64 9.98.09 2.58 1.49 5.7-.58 7.85-2.67 2.82-6.85 1.53-10.09.65-5.77-1.91-12.04-4.89-14.62-10.79-1.52-3.32-.29-7.03 1.55-9.94 4.47-7.16 10.18-13.51 14.09-21.02 1.48-2.56 1.95-6.42-.58-8.48-3.2-2.76-8.27-2.41-11.01-5.88-1.74-2.62-1.06-5.92-1.17-8.87-11.08.1-22.17.03-33.25 0-.14 2.35-.23 4.7-.33 7.05-8.23.86-16.53.05-24.78.41-3.13.09-6.01 1.62-8.41 3.54-6.42 5.16-12.88 10.27-19.45 15.25-3.03 2.06-.06 6.45-2.11 9.04-1.99 2.48-4.58 5.07-8 5.06-3.98-.01-8.33.81-12.03-1.07-1.26-1.74-1.73-3.91-1.67-6.03.01-15.34-.01-30.69.01-46.03-.25-2.59 1.75-4.46 3.6-5.9 38.36-.17 76.73.02 115.1-.17.17-2.08.16-4.49 1.89-5.98 3.48-2.38 7.87-1.32 11.81-1.57 1.09-3.59 4.54-5.72 8.24-5.02.29-4.39-.47-8.86.34-13.2m2.59 2.84c.21 3.22.13 6.44.15 9.66 1.2.2 2.02.87 2.48 1.99 3.64-.04 7.28-.08 10.92.01l1.95-2.43c.07-3.27.29-6.83-2.3-9.28l-.71.03c-2.24-2.84-6.26-3.33-9.63-2.96-1.45.43-3.17 1.16-2.86 2.98m155.01.66c.03.83.1 2.51.14 3.34.04 2.56.05 5.12.06 7.68 3.62-.14 7.24.08 10.85-.09.02-.3.05-.91.06-1.21-2.54-1.47-5.38-2.29-8.12-3.31.06-.76.17-2.28.22-3.04.4-2.12-1.88-2.47-3.21-3.37M137.81 22.86c-.09.7-.26 2.09-.35 2.78-3.82.06-7.63.06-11.44.04-.66.84-1.32 1.68-1.98 2.51.48 1.91 1.78 3.29 3.92 2.89 27.31-.03 54.63.16 81.94-.07 1-1.34 2.07-2.64 3.18-3.9 36.65.02 73.3.01 109.96.01 2.62.07 5.38-.47 7.86.63-.11-1.68-.18-3.37-.21-5.06h-.19c-.52-.52-1.57-1.55-2.1-2.07-62.46.17-124.92 0-187.39.09-1.44-.13-2.62.92-3.2 2.15m76.6 6.05c-.45.52-1.35 1.55-1.8 2.07 0 7.86.05 15.71 0 23.57 39.34.17 78.68.01 118.02.09.15-8.02-.1-16.04.17-24.06l-.19.02c-.98-1.1-2.18-1.65-3.59-1.65-37.54-.05-75.08.03-112.61-.04M6.07 33.7c.92 15.05.19 30.17.41 45.25.27 2.42-.71 5.29.87 7.38.39-15.84.01-31.69.2-47.54.9-1.61.75-3.51.94-5.29l-2.42.2m4.32.14c.55 17.39.1 34.8.27 52.2 3.89.47 7.8-.06 10.6-3.04.03-1.78.06-3.56.11-5.34-3.39-.42-6.69-2.93-6.63-6.61-.1-12.66-.15-25.34 0-38-1.45.25-2.9.51-4.35.79m58.87-.59c.21 6.58.06 13.16.46 19.74 2-.01 4-.03 6-.05-.36-6.46-.22-13.01-.17-19.41-2.01-.47-4.21-.02-6.29-.28m8.71.42c-.01.5-.02 1.5-.03 2.01-.17 3.19-.28 6.39-.3 9.59 9.97.36 19.95-.13 29.93.33-.06-4.13-.1-8.26.2-12.38-9.92.69-19.88-.24-29.8.45m32.04-.27c-.11 3.98-.12 7.97-.05 11.95.83 0 2.5-.01 3.33-.02.07-4.13.19-8.26.2-12.39-.87.12-2.61.35-3.48.46m5.37-.05c.6 7.57-.12 15.18.51 22.75 3.31 1.49 6.82 2.52 10.01 4.27 1.81.98 2.51 3.11 3.95 4.5 5.71-.14 11.42-.33 17.12.16 4.47 3.71 2.26 10.11 2.68 15.11 7.38 4.39 16.72 2.51 24.4-.15 11.87-1.79 23.82-3.01 35.73-4.6.3-2.23-1.52-3.63-2.29-5.47-.41-4.67.19-9.37-.25-14.04l.2-1.7c-17.15-.59-34.31-.12-51.47-.27-5.94.16-11.92-.41-17.82.43-1.01-1.27-1.96-2.59-2.91-3.9-3.29-.14-6.97.2-9.7-2.01-4.8-3.35-5.97-9.73-5.84-15.21-1.44.05-2.88.09-4.32.13m22.22.01c.01 2.09.01 4.19-.01 6.28 9.26.07 18.53.02 27.8.03.32-1.15.64-2.31.96-3.47 1.75-.99 3.69-1.57 5.73-1.38 10 .19 20.02-.27 30.01.23 2.57-.05 2.97 2.75 3.63 4.61l4.73.03c-.06-2.13-.18-4.26-.35-6.39-24.17.29-48.33-.11-72.5.06m195.36-.41c0 5.92-.04 11.84.02 17.76 2.09-.18 4.53.63 6.42-.37.99-3.64.18-7.6.48-11.36-.18-1.82.59-3.86-.32-5.53-2.01-1.01-4.43-.31-6.6-.5m-316 .71c.01.5.02 1.51.02 2.01-.05 3.54-.09 7.08-.15 10.61 16.78.62 33.57-.1 50.35-.11-.09-3.39-.02-6.78.1-10.17l-.4-2.36c-16.64.02-33.28-.02-49.92.02m105 0v2.51c.49 3.73 1.43 7.88 4.63 10.24 2.51 1.92 5.81 1.55 8.76 1.53-.1-3.99-.13-7.98.12-11.97-.19-.57-.56-1.71-.74-2.27-4.26-.2-8.51.02-12.77-.04m47.13 3.47c-2.44 2.72-.74 7.17-1.08 10.58 4.97.57 9.97.59 14.97.52 6.68-.1 13.39.35 20.04-.49.11-3.43 1-7.08-.24-10.38-4.89-.89-9.89-.28-14.82-.45-6.29.15-12.6-.31-18.87.22m173 1.3l-.08 2.79c-.01 1.82.01 3.65.02 5.47 7.5-.37 15.03.17 22.52-.32 1.76-1.16.9-3.49 1.1-5.23.05-.61.16-1.83.22-2.45-7.91-.56-15.86-.06-23.78-.26m-204.43 3.54c-.01 1.97-.02 3.95-.02 5.93 9.34.26 18.7.18 28.05.07 0-1.98 0-3.95.01-5.92-9.35-.2-18.7-.05-28.04-.08m67.63.09c.01 1.97.01 3.94.01 5.91 1.68-.03 3.36-.04 5.04-.03-.01-2.01-.01-4.01-.01-6.02-1.68.06-3.36.11-5.04.14M44.11 51.01l.44-1.21c-1.93 2.95-5.19 4.59-7.77 6.9-6.57 5.39-13.66 10.19-19.84 16.03 1.2 1 2.49 1.88 3.92 2.51 8.03-6.45 16.06-12.9 24.27-19.11 6.37-4.9 14.78-2.61 22.17-3.15.05-.53.14-1.57.19-2.1-.13-.53-.39-1.59-.51-2.12-4.99-.2-9.98-.02-14.96-.1-2.82-.16-5.53.96-7.91 2.35m-26.16-1.22c.02 5.89-.39 11.82.35 17.69 6.85-6.36 14.64-11.61 21.8-17.61-7.38-.16-14.77-.03-22.15-.08m120.13.3c.26.48.8 1.43 1.06 1.9 20.27-.54 40.58-.08 60.86-.23 3.66-.27 7.83 1.39 11.08-.87-2.18-1.21-4.71-.89-7.1-.95-21.97-.05-43.94-.12-65.9.15m74.54 6.93c1.28 3.66 5.25 2.45 8.25 2.61.02-.65.08-1.95.11-2.6-2.79-.08-5.58-.1-8.36-.01m10.32.07c.05.63.16 1.89.21 2.52l3.66.03c.07-.64.2-1.92.27-2.57-1.38.01-2.76.02-4.14.02m6.1-.06c.02.64.05 1.94.07 2.58 1.25 0 2.5.01 3.76.01.03-.63.11-1.89.14-2.52-1.32-.02-2.65-.05-3.97-.07m5.96.05l.12 2.53c1.24 0 2.48.01 3.72.02.06-.64.17-1.92.22-2.55H235m5.92 0c.06.64.19 1.91.26 2.55 1.22-.01 2.45-.01 3.68-.01.04-.64.11-1.91.15-2.54h-4.09m5.99.02c.08.63.22 1.91.29 2.54 1.21-.01 2.42-.01 3.64-.02.05-.64.16-1.91.22-2.55l-4.15.03m6.03-.02c.05.64.15 1.9.21 2.54h3.72c.03-.64.11-1.91.15-2.54h-4.08m6.06 0l.12 2.53c1.24 0 2.49.01 3.74.01.04-.64.14-1.91.19-2.54H259m5.93 0c.06.63.17 1.9.23 2.54 1.22 0 2.45 0 3.68.01.05-.64.16-1.91.22-2.54-1.38 0-2.76-.01-4.13-.01m6.03.01c.05.63.14 1.9.19 2.53h3.69c.06-.64.17-1.91.22-2.55-1.37.01-2.73.01-4.1.02m5.99-.01c.04.63.14 1.9.19 2.54 1.24-.01 2.48-.01 3.73 0l.16-2.53c-1.36-.01-2.73-.01-4.08-.01m6.04.02c.04.63.11 1.89.15 2.52 1.24 0 2.47.01 3.71.01.03-.66.08-2 .1-2.67-1.32.05-2.64.1-3.96.14m5.93-.02c.06.64.19 1.91.26 2.55 1.22 0 2.44-.01 3.66-.01.06-.63.16-1.9.22-2.53-1.39 0-2.77-.01-4.14-.01m6.01.01l.24 2.54c1.22-.01 2.44-.01 3.67-.01.06-.64.17-1.91.22-2.55-1.38.01-2.75.02-4.13.02m6-.01l.24 2.54c1.21 0 2.43.01 3.66.01.06-.64.18-1.91.23-2.54-1.38 0-2.76-.01-4.13-.01m6.01.01c.05.64.16 1.9.21 2.53h3.71c.04-.64.14-1.91.19-2.55-1.38.01-2.75.02-4.11.02m6.01-.02c.04.64.14 1.91.19 2.54 1.23.01 2.46.01 3.7.02.05-.64.16-1.9.22-2.54-1.38 0-2.75-.01-4.11-.02m5.99.02c.05.63.16 1.9.21 2.53 1.23 0 2.46 0 3.69.01.06-.64.17-1.92.23-2.56-1.38.01-2.76.02-4.13.02m5.98-.03c.07.67.2 2 .26 2.67 2.26-.02 4.79.07 5.53-2.57-1.93-.05-3.86-.08-5.79-.1M126.39 76.41c-4.23 7.06-9.78 13.25-13.81 20.43-1.97 3.46.64 7.16 3.39 9.22 4.64 3.29 10.2 5.95 16.05 5.33-.07-2.76-1.03-5.59-.36-8.31 1.22-.93 2.65-1.58 3.75-2.65 1.69-2.01-.07-4.89 1.01-7.05 1.36-.98 3.05-1.53 4.18-2.82 1.41-1.51.93-3.73 1.14-5.6 1.71-1.57 3.6-2.92 5.57-4.14.11-2.79.34-5.59.06-8.38-.16-1.81.29-4.17-1.5-5.34-5.46-.24-10.95-.24-16.41.13.36 3.38-1.44 6.38-3.07 9.18m73.35 2.47c-.3 5.1-.44 10.22-.14 15.33 1.85 8.92 4.1 17.77 6.09 26.67 1.37-.59 2.75-1.14 4.15-1.67-2.22-12.65-5.62-25.25-5.01-38.21.07-.73.22-2.19.29-2.92-1.72.7-3.56.77-5.38.8m-9.03 3.2c.14 4.92-.57 9.92.51 14.78 2.22 8.38 4.52 16.75 6.59 25.18 1.86-.28 3.71-.55 5.57-.82-1.37-7.86-3.47-15.58-5.2-23.37-1.55-5.13-.5-10.52-1.06-15.77-.01-.8-.02-2.4-.03-3.2-1.98 1.81-6.54-.58-6.38 3.2m-8.41-1.05c.4 6.51-.84 13.23 1.28 19.54 2.2 7.68 3.82 15.51 6.05 23.18 2.05-.39 4.1-.79 6.15-1.2-2.27-8.89-4.67-17.75-6.91-26.65-.59-5.42-.29-10.94.45-16.34-2.16 1.21-4.59 1.48-7.02 1.47m-6.1 1.63c-.29 7.61-.58 15.39 1.55 22.79 1.66 6.39 2.65 12.95 4.67 19.25 1.67-.1 3.35-.22 5-.5a1280.3 1280.3 0 00-6.21-24.39c-1.63-5.03-.52-10.37-1.01-15.53-.03-.88-.1-2.63-.13-3.51-1.31.6-2.6 1.23-3.87 1.89z"></path><path d="M276.12 34.24l1.76-.44c.06 2.32.12 4.66.14 6.99 0 .5-.01 1.51-.01 2.02-.03 2.74-.06 5.48-.06 8.22 2.02-.03 4.05-.07 6.08-.1.01-2.62.03-5.24 0-7.86l-.04-1.98c.55-2.32-1.67-7.18 1.91-7.25.05 2.31.1 4.63.11 6.94v2.03c-.03 2.74-.06 5.48-.06 8.22 2.02-.03 4.04-.06 6.06-.08.03-2.63.05-5.26.01-7.88 0-.5-.02-1.48-.03-1.98-.06-2.37-.01-4.75.09-7.13.46.03 1.38.08 1.85.1.02 2.24.07 4.48.08 6.72v2.03c-.03 2.75-.05 5.5-.03 8.25 2.01-.05 4.03-.09 6.04-.14.02-2.62.04-5.23.01-7.85l-.04-1.98c-.04-2.3-.15-4.61.14-6.9l1.78-.32c.04 2.31.09 4.61.1 6.92v2.02c-.03 2.75-.05 5.49-.03 8.24 2-.02 3.99-.04 5.99-.07.05-2.64.09-5.28.06-7.92l-.04-1.97c-.04-2.28-.16-4.57.09-6.84.46-.1 1.37-.29 1.83-.39.04 2.31.09 4.62.1 6.93v2.02c-.03 2.74-.06 5.49-.05 8.23l6.07-.12c.01-2.62.03-5.24 0-7.86-.01-.49-.02-1.48-.03-1.97.54-2.37-1.68-7.08 1.9-7.31.12 5.73.03 11.46.07 17.19 1.98-.02 3.97-.03 5.96-.04l.08 2.15c-34.37-.04-68.74.09-103.1-.05 0-.49.02-1.49.02-1.98 18.37-.17 36.74.15 55.1-.16-.05-5.54-.33-11.11.09-16.65zm-55.58 4.6c4.53.17 9.06.06 13.6.11-.25.52-.73 1.56-.97 2.08-4.13-.03-8.26-.18-12.36.34-.06-.63-.2-1.9-.27-2.53zm19.65.22c4.24-.35 8.51.07 12.76.02v1.87l-.98.01c-3.79.01-7.57.08-11.36.04l-.89-.01c.12-.48.35-1.45.47-1.93z"></path><path d="M257.85 38.95c4.52-.04 9.05.05 13.57-.1-.06.63-.17 1.89-.23 2.52-4.18-.53-8.4-.39-12.6-.28-.18-.54-.55-1.61-.74-2.14zm-36.9 6.11c4.34-.01 8.68 0 13.03-.01.01.5.04 1.5.05 2l-.95-.02c-3.71-.08-7.41-.07-11.11 0l-.88.02c-.03-.5-.1-1.49-.14-1.99zm18.96.01c4.36-.02 8.73-.03 13.09 0-.03.48-.1 1.43-.13 1.91H252c-3.68-.02-7.36.01-11.05.06l-.98.01c-.02-.5-.05-1.49-.06-1.98zm18.05-.01c4.36-.01 8.73-.01 13.1.01l-.16 1.98-.85-.01c-3.71-.08-7.42-.09-11.12-.01l-.84.02c-.03-.5-.1-1.49-.13-1.99zM156.5 64.66c3.14-.51 6.34.1 9.51-.07 2.34.13 5.24-.64 6.96 1.45 2.5 2.17 2.6 5.85 1.96 8.85-1.07 3.93-5.1 6.24-8.96 6.57-4.12.36-8.85.55-12.22-2.26-4.92-3.65-3.71-13.42 2.75-14.54m-2.65 4.49c-1.95 2.73.31 6.17 2.91 7.45-.04-3.33.45-6.63 1.66-9.73-1.8.16-3.83.32-4.57 2.28m8.02-1.34c-2.09 3.11-1.84 6.96-1.95 10.53 3.67.2 7.41-.12 10.72-1.84 1.66-2.8 2.13-6.41-.53-8.77-2.75.06-5.5.08-8.24.08z"></path></g><path d="M145.88 6.98c-.31-1.82 1.41-2.55 2.86-2.98 3.37-.37 7.39.12 9.63 2.96-4.16.15-8.33.12-12.49.02zm155.01.66c1.33.9 3.61 1.25 3.21 3.37-.77-.01-2.3-.02-3.07-.03-.04-.83-.11-2.51-.14-3.34zM137.81 22.86c.58-1.23 1.76-2.28 3.2-2.15 62.47-.09 124.93.08 187.39-.09.53.52 1.58 1.55 2.1 2.07-25.5.66-51.03.02-76.54.27-38.72-.1-77.44.1-116.15-.1zm76.6 6.05c37.53.07 75.07-.01 112.61.04 1.41 0 2.61.55 3.59 1.65-5.85.81-11.76.31-17.63.42-33.46-.08-66.92.18-100.37-.04.45-.52 1.35-1.55 1.8-2.07zM6.07 33.7l2.42-.2c-.19 1.78-.04 3.68-.94 5.29-.19 15.85.19 31.7-.2 47.54-1.58-2.09-.6-4.96-.87-7.38-.22-15.08.51-30.2-.41-45.25zm10.89-.04c16.64-.04 33.28 0 49.92-.02l.4 2.36c-16.76-.2-33.54.38-50.3-.33 0-.5-.01-1.51-.02-2.01zm52.85.38c1.64-.01 3.38-.47 4.96.19 1.44 2.87-3.02 1.52-4.56 1.46-.1-.42-.3-1.24-.4-1.65zm8.16-.37c9.67.53 19.36-.16 29.03.34 0 .5-.01 1.49-.01 1.99-9.68-.16-19.38.33-29.05-.32.01-.51.02-1.51.03-2.01zm43.99-.01c4.26.06 8.51-.16 12.77.04.18.56.55 1.7.74 2.27-4.51.05-9.01.07-13.51.2v-2.51zm98.61 8.5c-.07-1.11-.14-2.21-.03-3.32.07.63.21 1.9.27 2.53 4.1-.52 8.23-.37 12.36-.34-.17.43-.49 1.28-.65 1.71-3.98.56-8.06.4-11.95-.58zm50.85-3.31c.13 1.13.03 2.27 0 3.4-3.9.71-8.03 1.24-11.93.39-.22-.39-.67-1.17-.9-1.55 4.2-.11 8.42-.25 12.6.28.06-.63.17-1.89.23-2.52zm70.67-.42c7.92.2 15.87-.3 23.78.26-.06.62-.17 1.84-.22 2.45-7.88-.07-15.76-.26-23.64.08l.08-2.79zM240.61 41c3.79.04 7.57-.03 11.36-.04l.04 2.01c-3.71-.03-7.43.14-11.12-.16l-.28-1.81zm37.41-.21l5.97.3.04 1.98c-2.01-.09-4.02-.17-6.02-.26 0-.51.01-1.52.01-2.02zm7.99-.01c1.99.11 3.98.22 5.98.31.01.5.03 1.48.03 1.98-2-.09-4.01-.17-6.01-.26v-2.03zm8 0c1.99.11 3.98.22 5.98.31l.04 1.98c-2.01-.09-4.02-.17-6.02-.26v-2.03zm8 .01l5.98.3.04 1.97c-2.01-.08-4.02-.16-6.02-.25v-2.02zm8 0c1.99.11 3.99.2 5.99.3.01.49.02 1.48.03 1.97-2.01-.08-4.02-.16-6.02-.25v-2.02zm-88.04 6.24c3.7-.07 7.4-.08 11.11 0-.03.48-.09 1.43-.13 1.91-3.64.06-7.29.05-10.94-.02l-.04-1.89zm18.98.01c3.69-.05 7.37-.08 11.05-.06.02.49.05 1.49.06 1.99-3.68.02-7.36 0-11.04-.05-.02-.47-.05-1.41-.07-1.88zm17.98-.01c3.7-.08 7.41-.07 11.12.01-.01.47-.05 1.41-.07 1.88-3.64.07-7.28.08-10.92.02-.03-.47-.1-1.43-.13-1.91zM44.11 51.01c2.38-1.39 5.09-2.51 7.91-2.35 4.98.08 9.97-.1 14.96.1.12.53.38 1.59.51 2.12-7.8.24-15.59-.07-23.38.13zm94.04 3.33c5.9-.84 11.88-.27 17.82-.43 17.16.15 34.32-.32 51.47.27l-.2 1.7c-22.59.29-45.21.25-67.81.03-.32-.39-.96-1.18-1.28-1.57zm-8.69 12.89c5.46-.37 10.95-.37 16.41-.13 1.79 1.17 1.34 3.53 1.5 5.34-.56-.21-1.66-.61-2.21-.82-.17-.65-.49-1.94-.65-2.59-4.52-.13-9.05.29-13.56-.04-.37-.44-1.11-1.32-1.49-1.76zm70.28 11.65c1.82-.03 3.66-.1 5.38-.8-.07.73-.22 2.19-.29 2.92-1.67.03-3.34.05-5 .08-.25 4.37-.41 8.75-.23 13.13-.3-5.11-.16-10.23.14-15.33zm-9.03 3.2c-.16-3.78 4.4-1.39 6.38-3.2.01.8.02 2.4.03 3.2h-6.41zm-14.51.58c1.27-.66 2.56-1.29 3.87-1.89.03.88.1 2.63.13 3.51-1.43-.3-2.89-.59-4-1.62z" fill="#f0f0f0"></path><path d="M145.88 6.98c4.16.1 8.33.13 12.49-.02l.71-.03c2.59 2.45 2.37 6.01 2.3 9.28l-1.95 2.43c-3.64-.09-7.28-.05-10.92-.01-.46-1.12-1.28-1.79-2.48-1.99-.02-3.22.06-6.44-.15-9.66zm155.15 4c.77.01 2.3.02 3.07.03-.05.76-.16 2.28-.22 3.04 2.74 1.02 5.58 1.84 8.12 3.31-.01.3-.04.91-.06 1.21-3.61.17-7.23-.05-10.85.09-.01-2.56-.02-5.12-.06-7.68zm29.47 11.71h.19c.03 1.69.1 3.38.21 5.06-2.48-1.1-5.24-.56-7.86-.63-36.66 0-73.31.01-109.96-.01a62.178 62.178 0 00-3.18 3.9c-27.31.23-54.63.04-81.94.07-2.14.4-3.44-.98-3.92-2.89.66-.83 1.32-1.67 1.98-2.51 3.81.02 7.62.02 11.44-.04.09-.69.26-2.08.35-2.78 38.71.2 77.43 0 116.15.1 25.51-.25 51.04.39 76.54-.27zm.11 7.91l.19-.02c-.27 8.02-.02 16.04-.17 24.06-39.34-.08-78.68.08-118.02-.09.05-7.86 0-15.71 0-23.57 33.45.22 66.91-.04 100.37.04 5.87-.11 11.78.39 17.63-.42m-54.49 3.64c-.42 5.54-.14 11.11-.09 16.65-18.36.31-36.73-.01-55.1.16 0 .49-.02 1.49-.02 1.98 34.36.14 68.73.01 103.1.05l-.08-2.15c-1.99.01-3.98.02-5.96.04-.04-5.73.05-11.46-.07-17.19-3.58.23-1.36 4.94-1.9 7.31-2-.1-4-.19-5.99-.3-.01-2.31-.06-4.62-.1-6.93-.46.1-1.37.29-1.83.39-.25 2.27-.13 4.56-.09 6.84l-5.98-.3c-.01-2.31-.06-4.61-.1-6.92l-1.78.32c-.29 2.29-.18 4.6-.14 6.9-2-.09-3.99-.2-5.98-.31-.01-2.24-.06-4.48-.08-6.72-.47-.02-1.39-.07-1.85-.1-.1 2.38-.15 4.76-.09 7.13-2-.09-3.99-.2-5.98-.31-.01-2.31-.06-4.63-.11-6.94-3.58.07-1.36 4.93-1.91 7.25l-5.97-.3c-.02-2.33-.08-4.67-.14-6.99l-1.76.44m-55.55 7.92c3.89.98 7.97 1.14 11.95.58.16-.43.48-1.28.65-1.71.24-.52.72-1.56.97-2.08-4.54-.05-9.07.06-13.6-.11-.11 1.11-.04 2.21.03 3.32m19.62-3.1c-.12.48-.35 1.45-.47 1.93l.89.01.28 1.81c3.69.3 7.41.13 11.12.16l-.04-2.01.98-.01v-1.87c-4.25.05-8.52-.37-12.76-.02m17.66-.11c.19.53.56 1.6.74 2.14.23.38.68 1.16.9 1.55 3.9.85 8.03.32 11.93-.39.03-1.13.13-2.27 0-3.4-4.52.15-9.05.06-13.57.1m-36.9 6.11c.04.5.11 1.49.14 1.99l.88-.02.04 1.89c3.65.07 7.3.08 10.94.02.04-.48.1-1.43.13-1.91l.95.02c-.01-.5-.04-1.5-.05-2-4.35.01-8.69 0-13.03.01m18.96.01c.01.49.04 1.48.06 1.98l.98-.01c.02.47.05 1.41.07 1.88 3.68.05 7.36.07 11.04.05-.01-.5-.04-1.5-.06-1.99h.87c.03-.48.1-1.43.13-1.91-4.36-.03-8.73-.02-13.09 0m18.05-.01c.03.5.1 1.49.13 1.99l.84-.02c.03.48.1 1.44.13 1.91 3.64.06 7.28.05 10.92-.02.02-.47.06-1.41.07-1.88l.85.01.16-1.98c-4.37-.02-8.74-.02-13.1-.01zM10.39 33.84c1.45-.28 2.9-.54 4.35-.79-.15 12.66-.1 25.34 0 38-.06 3.68 3.24 6.19 6.63 6.61-.05 1.78-.08 3.56-.11 5.34-2.8 2.98-6.71 3.51-10.6 3.04-.17-17.4.28-34.81-.27-52.2zm58.87-.59c2.08.26 4.28-.19 6.29.28-.05 6.4-.19 12.95.17 19.41-2 .02-4 .04-6 .05-.4-6.58-.25-13.16-.46-19.74m.55.79c.1.41.3 1.23.4 1.65 1.54.06 6 1.41 4.56-1.46-1.58-.66-3.32-.2-4.96-.19zm8.16-.37c9.92-.69 19.88.24 29.8-.45-.3 4.12-.26 8.25-.2 12.38-9.98-.46-19.96.03-29.93-.33.02-3.2.13-6.4.3-9.59 9.67.65 19.37.16 29.05.32 0-.5.01-1.49.01-1.99-9.67-.5-19.36.19-29.03-.34zm32.04-.27c.87-.11 2.61-.34 3.48-.46-.01 4.13-.13 8.26-.2 12.39-.83.01-2.5.02-3.33.02-.07-3.98-.06-7.97.05-11.95zm5.37-.05c1.44-.04 2.88-.08 4.32-.13-.13 5.48 1.04 11.86 5.84 15.21 2.73 2.21 6.41 1.87 9.7 2.01.95 1.31 1.9 2.63 2.91 3.9.32.39.96 1.18 1.28 1.57 22.6.22 45.22.26 67.81-.03.44 4.67-.16 9.37.25 14.04.77 1.84 2.59 3.24 2.29 5.47-11.91 1.59-23.86 2.81-35.73 4.6-7.68 2.66-17.02 4.54-24.4.15-.42-5 1.79-11.4-2.68-15.11-5.7-.49-11.41-.3-17.12-.16-1.44-1.39-2.14-3.52-3.95-4.5-3.19-1.75-6.7-2.78-10.01-4.27-.63-7.57.09-15.18-.51-22.75m41.12 31.31c-6.46 1.12-7.67 10.89-2.75 14.54 3.37 2.81 8.1 2.62 12.22 2.26 3.86-.33 7.89-2.64 8.96-6.57.64-3 .54-6.68-1.96-8.85-1.72-2.09-4.62-1.32-6.96-1.45-3.17.17-6.37-.44-9.51.07z"></path><path d="M137.6 33.36c24.17-.17 48.33.23 72.5-.06.17 2.13.29 4.26.35 6.39l-4.73-.03c-.66-1.86-1.06-4.66-3.63-4.61-9.99-.5-20.01-.04-30.01-.23-2.04-.19-3.98.39-5.73 1.38-.32 1.16-.64 2.32-.96 3.47-9.27-.01-18.54.04-27.8-.03.02-2.09.02-4.19.01-6.28zm195.36-.41c2.17.19 4.59-.51 6.6.5.91 1.67.14 3.71.32 5.53-.3 3.76.51 7.72-.48 11.36-1.89 1-4.33.19-6.42.37-.06-5.92-.02-11.84-.02-17.76zM16.98 35.67c16.76.71 33.54.13 50.3.33-.12 3.39-.19 6.78-.1 10.17-16.78.01-33.57.73-50.35.11.06-3.53.1-7.07.15-10.61zm104.98.5c4.5-.13 9-.15 13.51-.2-.25 3.99-.22 7.98-.12 11.97-2.95.02-6.25.39-8.76-1.53-3.2-2.36-4.14-6.51-4.63-10.24zm220.05 5.05c7.88-.34 15.76-.15 23.64-.08-.2 1.74.66 4.07-1.1 5.23-7.49.49-15.02-.05-22.52.32-.01-1.82-.03-3.65-.02-5.47zm-204.35.75c9.34.03 18.69-.12 28.04.08-.01 1.97-.01 3.94-.01 5.92-9.35.11-18.71.19-28.05-.07 0-1.98.01-3.96.02-5.93zm67.63.09c1.68-.03 3.36-.08 5.04-.14 0 2.01 0 4.01.01 6.02-1.68-.01-3.36 0-5.04.03 0-1.97 0-3.94-.01-5.91zm72.72.75c2 .09 4.01.17 6.02.26.03 2.62.01 5.24 0 7.86-2.03.03-4.06.07-6.08.1 0-2.74.03-5.48.06-8.22zm8 0c2 .09 4.01.17 6.01.26.04 2.62.02 5.25-.01 7.88-2.02.02-4.04.05-6.06.08 0-2.74.03-5.48.06-8.22zm8 0c2 .09 4.01.17 6.02.26.03 2.62.01 5.23-.01 7.85-2.01.05-4.03.09-6.04.14-.02-2.75 0-5.5.03-8.25zm8 0c2 .09 4.01.17 6.02.25.03 2.64-.01 5.28-.06 7.92-2 .03-3.99.05-5.99.07-.02-2.75 0-5.49.03-8.24zm8 0c2 .09 4.01.17 6.02.25.03 2.62.01 5.24 0 7.86l-6.07.12c-.01-2.74.02-5.49.05-8.23zM44.55 49.8l-.44 1.21c7.79-.2 15.58.11 23.38-.13-.05.53-.14 1.57-.19 2.1-7.39.54-15.8-1.75-22.17 3.15-8.21 6.21-16.24 12.66-24.27 19.11-1.43-.63-2.72-1.51-3.92-2.51 6.18-5.84 13.27-10.64 19.84-16.03 2.58-2.31 5.84-3.95 7.77-6.9zm93.53.29c21.96-.27 43.93-.2 65.9-.15 2.39.06 4.92-.26 7.1.95-3.25 2.26-7.42.6-11.08.87-20.28.15-40.59-.31-60.86.23-.26-.47-.8-1.42-1.06-1.9zm74.54 6.93c2.78-.09 5.57-.07 8.36.01-.03.65-.09 1.95-.11 2.6-3-.16-6.97 1.05-8.25-2.61zm10.32.07c1.38 0 2.76-.01 4.14-.02-.07.65-.2 1.93-.27 2.57l-3.66-.03c-.05-.63-.16-1.89-.21-2.52zm6.1-.06c1.32.02 2.65.05 3.97.07-.03.63-.11 1.89-.14 2.52-1.26 0-2.51-.01-3.76-.01-.02-.64-.05-1.94-.07-2.58zm5.96.05h4.06c-.05.63-.16 1.91-.22 2.55-1.24-.01-2.48-.02-3.72-.02l-.12-2.53zm5.92 0h4.09c-.04.63-.11 1.9-.15 2.54-1.23 0-2.46 0-3.68.01-.07-.64-.2-1.91-.26-2.55zm5.99.02l4.15-.03c-.06.64-.17 1.91-.22 2.55-1.22.01-2.43.01-3.64.02-.07-.63-.21-1.91-.29-2.54zm6.03-.02h4.08c-.04.63-.12 1.9-.15 2.54h-3.72c-.06-.64-.16-1.9-.21-2.54zm6.06 0h4.05c-.05.63-.15 1.9-.19 2.54-1.25 0-2.5-.01-3.74-.01l-.12-2.53zm5.93 0c1.37 0 2.75.01 4.13.01-.06.63-.17 1.9-.22 2.54-1.23-.01-2.46-.01-3.68-.01-.06-.64-.17-1.91-.23-2.54zm6.03.01c1.37-.01 2.73-.01 4.1-.02-.05.64-.16 1.91-.22 2.55h-3.69c-.05-.63-.14-1.9-.19-2.53zm5.99-.01c1.35 0 2.72 0 4.08.01l-.16 2.53c-1.25-.01-2.49-.01-3.73 0-.05-.64-.15-1.91-.19-2.54zm6.04.02c1.32-.04 2.64-.09 3.96-.14-.02.67-.07 2.01-.1 2.67-1.24 0-2.47-.01-3.71-.01-.04-.63-.11-1.89-.15-2.52zm5.93-.02c1.37 0 2.75.01 4.14.01-.06.63-.16 1.9-.22 2.53-1.22 0-2.44.01-3.66.01-.07-.64-.2-1.91-.26-2.55zm6.01.01c1.38 0 2.75-.01 4.13-.02-.05.64-.16 1.91-.22 2.55-1.23 0-2.45 0-3.67.01l-.24-2.54zm6-.01c1.37 0 2.75.01 4.13.01-.05.63-.17 1.9-.23 2.54-1.23 0-2.45-.01-3.66-.01l-.24-2.54zm6.01.01c1.36 0 2.73-.01 4.11-.02-.05.64-.15 1.91-.19 2.55h-3.71c-.05-.63-.16-1.89-.21-2.53zm6.01-.02c1.36.01 2.73.02 4.11.02-.06.64-.17 1.9-.22 2.54-1.24-.01-2.47-.01-3.7-.02-.05-.63-.15-1.9-.19-2.54zm5.99.02c1.37 0 2.75-.01 4.13-.02-.06.64-.17 1.92-.23 2.56-1.23-.01-2.46-.01-3.69-.01-.05-.63-.16-1.9-.21-2.53zm5.98-.03c1.93.02 3.86.05 5.79.1-.74 2.64-3.27 2.55-5.53 2.57-.06-.67-.19-2-.26-2.67zM126.39 76.41c1.63-2.8 3.43-5.8 3.07-9.18.38.44 1.12 1.32 1.49 1.76 4.51.33 9.04-.09 13.56.04.16.65.48 1.94.65 2.59.55.21 1.65.61 2.21.82.28 2.79.05 5.59-.06 8.38-1.97 1.22-3.86 2.57-5.57 4.14-.21 1.87.27 4.09-1.14 5.6-1.13 1.29-2.82 1.84-4.18 2.82-1.08 2.16.68 5.04-1.01 7.05-1.1 1.07-2.53 1.72-3.75 2.65-.67 2.72.29 5.55.36 8.31-5.85.62-11.41-2.04-16.05-5.33-2.75-2.06-5.36-5.76-3.39-9.22 4.03-7.18 9.58-13.37 13.81-20.43zm27.46-7.26c.74-1.96 2.77-2.12 4.57-2.28-1.21 3.1-1.7 6.4-1.66 9.73-2.6-1.28-4.86-4.72-2.91-7.45zm28.45 11.88c2.43.01 4.86-.26 7.02-1.47-.74 5.4-1.04 10.92-.45 16.34 2.24 8.9 4.64 17.76 6.91 26.65-2.05.41-4.1.81-6.15 1.2-2.23-7.67-3.85-15.5-6.05-23.18-2.12-6.31-.88-13.03-1.28-19.54zm17.53.05c1.66-.03 3.33-.05 5-.08-.61 12.96 2.79 25.56 5.01 38.21-1.4.53-2.78 1.08-4.15 1.67-1.99-8.9-4.24-17.75-6.09-26.67-.18-4.38-.02-8.76.23-13.13z"></path><path d="M177.75 105.45c-2.13-7.4-1.84-15.18-1.55-22.79 1.11 1.03 2.57 1.32 4 1.62.49 5.16-.62 10.5 1.01 15.53a1280.3 1280.3 0 016.21 24.39c-1.65.28-3.33.4-5 .5-2.02-6.3-3.01-12.86-4.67-19.25zm12.96-23.37h6.41c.56 5.25-.49 10.64 1.06 15.77 1.73 7.79 3.83 15.51 5.2 23.37-1.86.27-3.71.54-5.57.82-2.07-8.43-4.37-16.8-6.59-25.18-1.08-4.86-.37-9.86-.51-14.78z"></path><path fill="#3c3b3c" d="M169.09 37.13c6.27-.53 12.58-.07 18.87-.22 4.93.17 9.93-.44 14.82.45 1.24 3.3.35 6.95.24 10.38-6.65.84-13.36.39-20.04.49-5 .07-10 .05-14.97-.52.34-3.41-1.36-7.86 1.08-10.58z"></path></svg>