<svg data-v-ea210746="" xmlns="http://www.w3.org/2000/svg" fill="#fff" viewBox="0 0 64 64" class="ui-icon max-h-full w-full" style="opacity: 1;"><path d="M54.43 34.44L34.32 59.46q-2.33 2.91-4.67 0L9.61 34.52a4.02 4.01-45.1 010-5.03l20-24.89q2.39-2.97 4.78 0l20.04 24.95a3.9 3.89 45.1 010 4.89m-1.19-2.25a.3.3 0 000-.38L32.19 5.66a.3.3 0 00-.46 0L10.75 31.83a.3.3 0 000 .38L31.79 58.3a.3.3 0 00.46 0z"></path><path d="M32.45 9.28l17.78 22.09a.38.38 0 01-.3.62l-13.42.02q-4.77.01-4.77-4.75l-.01-17.73q0-1.15.72-.25m-.98 45.35l-18-22.38a.31.31 0 01.24-.5l15.62.01a.3.3 0 01.21.09l2.3 2.2a.3.3 0 01.09.22l.1 20.16a.31.31 0 01-.56.2"></path><path fill="#000" d="M53.24 32.19L32.25 58.3a.3.3 0 01-.46 0L10.75 32.21a.3.3 0 010-.38L31.73 5.66a.3.3 0 01.46 0l21.05 26.15a.3.3 0 010 .38m-3.01-.82L32.45 9.28q-.72-.9-.72.25l.01 17.73q0 4.76 4.77 4.75l13.42-.02a.38.38 0 00.3-.62M31.47 54.63a.31.31 0 00.56-.2l-.1-20.16a.3.3 0 00-.09-.22l-2.3-2.2a.3.3 0 00-.21-.09l-15.62-.01a.31.31 0 00-.24.5z"></path></svg>