<svg data-v-ea210746="" xmlns="http://www.w3.org/2000/svg" fill="#fff" viewBox="0 0 64 64" class="ui-icon max-h-full w-full" style="fill: rgb(224, 50, 50); opacity: 1;"><g fill="#000"><path d="M36.64 8.77q.67-2.94 2.07-5.12a1.79 1.79 0 012.24-.68q1.71.76 1.95 2.55.07.55.63.54l4.95-.08q2.28-.04 2.28 2.25v8.75a.7.7 0 00.55.68c2.92.61 2.33 4.33 2.16 6.52q-.14 1.96-2.02 2.09a.77.76 88 00-.71.77l.01 2.59q0 .55.4.94l1.86 1.85q.34.34.8.48 3.09.96 6.06 2.39a2.12 2.12 0 01.53 3.45q-1.15 1.08-2.88 1.44-1.41.3-.12.95 1.15.58 2.39 1.07a2.02 2.02 0 011.18 2.48c-.62 1.92-3.88 2.72-5.56 3.35q-.71.26-.27.88l.35.5a2.02 2.02 0 01-.92 3.05L33.04 60.8q-1.02.39-2.04 0-10.08-3.92-21-8.12c-1.49-.57-2.57-2.42-1.13-3.79q.54-.52-.16-.79l-4.1-1.62a2.56 2.51-4.2 01-1.25-1.06c-1.5-2.56 1.31-3.51 3.05-4.29q1.37-.61-.09-.98-1.94-.49-3.29-1.94a.78.77 27.8 01-.2-.63q.28-1.85 1.91-2.62 2.7-1.28 5.56-2.08a1.7 1.63-78.3 00.83-.57q.63-.82 1.47-1.38a1.21 1.19 80.2 00.5-.72q.35-1.46.11-3.2a.89.89 0 00-.61-.72l-.99-.31a1.29 1.29 0 01-.88-.98c-.39-1.89-1.15-6.74 1.86-7.27q.6-.11.61-.71.07-3.88.01-8.62-.02-2.26 2.04-2.38 2.5-.14 5.13.13.69.07.73-.62.13-1.88 1.95-2.56a2.08 2.07 69.2 012.67 1.2l1.76 4.6q.3.78.61 0l1.82-4.57a2.17 2.16-76.9 012.17-1.36q1.72.12 2.31 2.1.66 2.23 1.7 3.92.38.62.54-.09m-14.66.75a.37.37 0 00.35.5l2.64-.04a.37.37 0 00.34-.51l-1.37-3.43a.37.37 0 00-.69.01zm16.64-.09a.37.37 0 00.33.52l2.69.08a.37.37 0 00.35-.49l-1.24-3.49a.37.37 0 00-.69-.02zm-8.18-.12a.51.51 0 00.48.69l2.19-.02a.51.51 0 00.47-.7l-1.12-2.83a.51.51 0 00-.95.01zM15.49 24.49l.01 6.68a.73.7 69.5 01-.23.53l-2.08 1.87q-.49.44-.49 1.1l.05 10.4a.53.53 0 00.74.49c4.39-1.87 3.42-9.93 9.6-9.03a.79.79 0 00.9-.79l-.01-5.48q-.01-.52.51-.52l15.01.01q.5 0 .5.5l.02 5.67a.67.66-5.7 00.8.65c6.01-1.17 5.55 7.2 9.83 9.04q.57.25.57-.37l.05-10.64q.01-.56-.4-.94l-1.98-1.84a1.22 1.21 21.9 01-.38-.88V24.5q0-.5.49-.5l1.52-.01q.76 0 .76-.76v-2.46q0-.76-.76-.77L49 19.99q-.48 0-.48-.49L48.5 9.01q0-.75-.74-.77l-2.08-.07a.9.9 0 00-.93.91l.03 2.65a.77.76-90 01-.76.77H19.73a.51.51 0 01-.51-.52l.03-3.01q.01-.8-.79-.79l-2.2.03a.79.78-.4 00-.78.78l.02 10.38q0 .63-.62.63l-1.63.01q-.49 0-.5.49l-.02 2.74q-.01.78.77.76l1.49-.02q.5 0 .5.51M9.33 39.05a.46.46 0 00.65-.41l.06-2.65a.46.46 0 00-.63-.44l-3.14 1.26a.46.46 0 00-.02.84zm45.17-3.58a.38.38 0 00-.53.35l.02 2.96a.38.38 0 00.54.34l3.32-1.5a.38.38 0 00-.01-.69zm-12.44 3.72a.55.55 0 00-.48-.82l-19.06.07a.55.55 0 00-.47.82l9.47 16.95a.55.55 0 00.96.01zm4.74 6.18q-1.39-2.49-2.95-4.73a.32.31 35.5 00-.56.09q-.35 1.25-.95 2.31-3.8 6.63-7.73 13.76-.6 1.08.55.64l17.6-6.75q.88-.34.03-.74c-.69-.33-1.22-1.18-2.01-1.55q-3.11-1.45-3.98-3.03M29.27 57.62a.3.3 0 00.37-.43l-9.08-16.26a.3.3 0 00-.52-.01l-3.43 5.46a.3.3 0 01-.1.1l-5.67 3.48a.3.3 0 00.05.54zM9.43 46.07a.37.37 0 00.52-.33l.07-2.81a.37.37 0 00-.51-.35l-3.37 1.33a.37.37 0 00-.02.68zm45.05-3.52a.38.38 0 00-.52.36l.08 2.83a.38.38 0 00.54.33l3.26-1.5a.38.38 0 00-.02-.7z"></path><path d="M33.01 24.75l-.03-5.99a.51.5 0 01.51-.5l11.04.02a.49.49 0 01.49.5l-.11 6.31q-.01.48-.49.48l-24.87-.01q-.52 0-.52-.51l-.04-6.28q0-.49.49-.5l10.92-.01a.63.63 0 01.63.64l-.06 5.83q0 .41.4.47.64.11 1.29-.02.36-.07.35-.43"></path></g><path d="M21.98 9.52l1.27-3.47a.37.37 0 01.69-.01l1.37 3.43a.37.37 0 01-.34.51l-2.64.04a.37.37 0 01-.35-.5m16.64-.09l1.44-3.4a.37.37 0 01.69.02l1.24 3.49a.37.37 0 01-.35.49l-2.69-.08a.37.37 0 01-.33-.52m-8.18-.12l1.07-2.85a.51.51 0 01.95-.01l1.12 2.83a.51.51 0 01-.47.7l-2.19.02a.51.51 0 01-.48-.69"></path><path d="M14.99 23.98L13.5 24q-.78.02-.77-.76l.02-2.74q.01-.49.5-.49l1.63-.01q.62 0 .62-.63l-.02-10.38a.79.78-.4 01.78-.78l2.2-.03q.8-.01.79.79l-.03 3.01a.51.51 0 00.51.52h24.29a.77.76-90 00.76-.77l-.03-2.65a.9.9 0 01.93-.91l2.08.07q.74.02.74.77l.02 10.49q0 .49.48.49l1.52.01q.76.01.76.77v2.46q0 .76-.76.76L49 24q-.49 0-.49.5v6.44a1.22 1.21 21.9 00.38.88l1.98 1.84q.41.38.4.94l-.05 10.64q0 .62-.57.37c-4.28-1.84-3.82-10.21-9.83-9.04a.67.66-5.7 01-.8-.65L40 30.25q0-.5-.5-.5l-15.01-.01q-.52 0-.51.52l.01 5.48a.79.79 0 01-.9.79c-6.18-.9-5.21 7.16-9.6 9.03a.53.53 0 01-.74-.49l-.05-10.4q0-.66.49-1.1l2.08-1.87a.73.7 69.5 00.23-.53l-.01-6.68q0-.51-.5-.51m16.38 1.22q-.4-.06-.4-.47l.06-5.83a.63.63 0 00-.63-.64l-10.92.01q-.49.01-.49.5l.04 6.28q0 .51.52.51l24.87.01q.48 0 .49-.48l.11-6.31a.49.49 0 00-.49-.5l-11.04-.02a.51.5 0 00-.51.5l.03 5.99q.01.36-.35.43-.65.13-1.29.02"></path><path d="M9.33 39.05l-3.08-1.4a.46.46 0 01.02-.84l3.14-1.26a.46.46 0 01.63.44l-.06 2.65a.46.46 0 01-.65.41m45.17-3.58l3.34 1.46a.38.38 0 01.01.69l-3.32 1.5a.38.38 0 01-.54-.34l-.02-2.96a.38.38 0 01.53-.35m-12.44 3.72l-9.58 17.03a.55.55 0 01-.96-.01l-9.47-16.95a.55.55 0 01.47-.82l19.06-.07a.55.55 0 01.48.82m4.74 6.18q.87 1.58 3.98 3.03c.79.37 1.32 1.22 2.01 1.55q.85.4-.03.74l-17.6 6.75q-1.15.44-.55-.64 3.93-7.13 7.73-13.76.6-1.06.95-2.31a.32.31 35.5 01.56-.09q1.56 2.24 2.95 4.73M29.27 57.62L10.89 50.5a.3.3 0 01-.05-.54l5.67-3.48a.3.3 0 00.1-.1l3.43-5.46a.3.3 0 01.52.01l9.08 16.26a.3.3 0 01-.37.43M9.43 46.07l-3.31-1.48a.37.37 0 01.02-.68l3.37-1.33a.37.37 0 01.51.35l-.07 2.81a.37.37 0 01-.52.33m45.05-3.52l3.34 1.32a.38.38 0 01.02.7l-3.26 1.5a.38.38 0 01-.54-.33l-.08-2.83a.38.38 0 01.52-.36"></path></svg>