<svg data-v-ea210746="" xmlns="http://www.w3.org/2000/svg" fill="#fff" viewBox="0 0 64 64" class="ui-icon max-h-full w-full" style="opacity: 1;"><g fill="#000"><path d="M51.72 34.29l.32 3.52a1.18 1.16 13.4 00.56.9c2.28 1.42 2.45 3.51 2.68 5.89q.07.68.71.92 1.09.39 1.36 1.55 1.31 5.56-3.4 6.64a.88.87 85.1 00-.67.8c-.17 3.02 1 8.17-3.85 8.32-6.25.19-6.88-1.55-6.68-7.35a.7.7 0 00-.7-.73l-20.06.02a.75.74 89.6 00-.74.76c.05 2.83.18 7.49-4.21 7.25-1.47-.07-3.26.33-4.54-.53-2.74-1.84-1.94-4.88-2.11-7.66a1 .99-79.3 00-.56-.83l-2.08-1.04a1.52 1.51 1.8 01-.73-.77q-1.81-4.27 1.08-6.7.66-.56.65-1.43-.04-3.42 2.63-5.12.52-.33.56-.94l.21-3.48a.52.52 0 00-.63-.54c-1.41.31-3.06-.59-3.05-2.19q.02-4.82-.01-9.54c-.02-1.92 2.15-2.56 3.69-2.15a.65.65 0 00.82-.62q.06-3.63-.02-8c-.05-2.77 2.67-5.04 5.17-5.35q.74-.09.65-.83-.13-1.09.16-2.14.18-.66.86-.66l4.89-.04a.98.97-10.5 01.91.62q.42 1.09.17 2.26-.19.91.73.91L37.3 6q.85 0 .74-.84-.16-1.15.08-2.26a.86.86 0 01.84-.67l5.05-.01q.67 0 .93.62.5 1.15.24 2.44a.52.51 7.6 00.48.62c2.78.14 5.5 2.63 5.39 5.69q-.15 4.25-.02 7.77a.59.59 0 00.75.54q1.83-.52 3.11.57.58.49.58 1.24l.02 9.92q.01.6-.38 1.06-1.09 1.27-2.81 1.04-.64-.08-.58.56M23.758 4.99a.75.75 0 00-.745-.755l-1.5-.01a.75.75 0 00-.755.745l-.056 8.02a.75.75 0 00.745.755l1.5.01a.75.75 0 00.755-.745zm19.449-.147a.62.62 0 00-.627-.613l-2.02.02a.62.62 0 00-.613.627l.086 8.22a.62.62 0 00.627.613l2.02-.02a.62.62 0 00.613-.627zM10.28 47.72l-.58.03a1.02 1.01 7.7 00-.9.68q-.37 1.11-.01 2.15a1.19 1.19 0 00.73.73l2.58.9a.93.92-80.1 01.61.87l.02 5.03q0 2.39 2.38 2.4h1.52q2.41.01 2.4-2.39l-.02-4.86a.74.73-90 01.73-.74h24.58q.54 0 .55.55l.09 5.2q.03 2.27 2.31 2.24l1.53-.02q2.26-.03 2.25-2.29l-.02-4.96q0-.65.55-.99 1.37-.86 3.2-1.14.4-.06.41-.47l.01-2.22a.78.77 6.3 00-.62-.77q-.39-.09-.75.04-.84.29-.84-.6c0-1.7.16-3.79-.65-5.34-.53-1.03-1.53-1.36-2.2-2.23q-.28-.36-.31-.81l-.46-6.51q-.05-.73.68-.71l2.04.04a1.13 1.13 0 001.16-1.12l.03-7.52q0-.89-.89-.9l-3.16-.02q-.49 0-.49-.49v-9.82q-.01-1.42-1.04-2.39l-.76-.72q-1.44-1.35-1.59.62-.19 2.57-.09 5 .07 1.6-1.54 1.59l-4.38-.05a1.37 1.37 0 01-1.36-1.38l.04-5.58a.52.52 0 00-.52-.52l-11.17.04a.64.64 0 00-.63.65l.05 5.68q.01 1.11-1.1 1.12l-4.42.03q-1.53.01-1.52-1.52l.03-4.96q.02-1.88-1.52-.8-.34.23-.67.48a3.29 3.26 71.5 00-1.29 2.61v9.78q.01.61-.6.62l-3.04.04q-.87.01-.86.88l.05 7.68q.01 1.03 1.05 1l2.05-.07q.51-.01.53.5c.1 3.28.45 7.01-2.39 9.17q-.47.36-.64.93-.69 2.39-.68 5.16 0 .45-.45.47"></path><path d="M21.9 30.13q-1.7.18-3.61.52a.8.8 0 01-.93-.93l1.39-7.97q.09-.54.54-.86 3.57-2.5 6.83-2.54 6.16-.07 12.2-.02 2.44.02 6.43 2.67.46.31.54.85l1.14 8.11q.11.79-.68.68-11.87-1.76-23.85-.51"></path><rect width="19.18" height="9.22" x="22.27" y="37.52" rx=".65"></rect><rect width="7.76" height="3.52" x="-3.88" y="-1.76" rx=".56" transform="rotate(.1 -25917.899 9688.42)"></rect><rect width="7.74" height="3.5" x="-3.87" y="-1.75" rx=".51" transform="rotate(-.1 25949.899 -26980.869)"></rect></g><rect width="3" height="9.52" x="-1.5" y="-4.76" rx=".75" transform="rotate(.4 -1276.602 3188.695)"></rect><rect width="3.26" height="9.46" x="-1.63" y="-4.73" rx=".62" transform="rotate(-.6 877.374 -3969.896)"></rect><path d="M10.73 47.25q-.01-2.77.68-5.16.17-.57.64-.93c2.84-2.16 2.49-5.89 2.39-9.17q-.02-.51-.53-.5l-2.05.07q-1.04.03-1.05-1l-.05-7.68q-.01-.87.86-.88l3.04-.04q.61-.01.6-.62v-9.78a3.29 3.26 71.5 011.29-2.61q.33-.25.67-.48 1.54-1.08 1.52.8l-.03 4.96q-.01 1.53 1.52 1.52l4.42-.03q1.11-.01 1.1-1.12l-.05-5.68a.64.64 0 01.63-.65l11.17-.04a.52.52 0 01.52.52l-.04 5.58a1.37 1.37 0 001.36 1.38l4.38.05q1.61.01 1.54-1.59-.1-2.43.09-5 .15-1.97 1.59-.62l.76.72q1.03.97 1.04 2.39v9.82q0 .49.49.49l3.16.02q.89.01.89.9l-.03 7.52a1.13 1.13 0 01-1.16 1.12l-2.04-.04q-.73-.02-.68.71l.46 6.51q.03.45.31.81c.67.87 1.67 1.2 2.2 2.23.81 1.55.65 3.64.65 5.34q0 .89.84.6.36-.13.75-.04a.78.77 6.3 01.62.77l-.01 2.22q-.01.41-.41.47-1.83.28-3.2 1.14-.55.34-.55.99l.02 4.96q.01 2.26-2.25 2.29l-1.53.02q-2.28.03-2.31-2.24l-.09-5.2q-.01-.55-.55-.55H19.74a.74.73 90 00-.73.74l.02 4.86q.01 2.4-2.4 2.39h-1.52q-2.38-.01-2.38-2.4l-.02-5.03a.93.92-80.1 00-.61-.87l-2.58-.9a1.19 1.19 0 01-.73-.73q-.36-1.04.01-2.15a1.02 1.01 7.7 01.9-.68l.58-.03q.45-.02.45-.47M21.9 30.13q11.98-1.25 23.85.51.79.11.68-.68l-1.14-8.11q-.08-.54-.54-.85-3.99-2.65-6.43-2.67-6.04-.05-12.2.02-3.26.04-6.83 2.54-.45.32-.54.86l-1.39 7.97a.8.8 0 00.93.93q1.91-.34 3.61-.52m19.55 8.04a.65.65 0 00-.65-.65H22.92a.65.65 0 00-.65.65v7.92a.65.65 0 00.65.65H40.8a.65.65 0 00.65-.65zm-20.698 5.887a.56.56 0 00-.559-.561l-6.64-.012a.56.56 0 00-.56.56l-.005 2.4a.56.56 0 00.559.56l6.64.012a.56.56 0 00.56-.56zm30.246-.054a.51.51 0 00-.511-.509l-6.72.012a.51.51 0 00-.51.51l.005 2.48a.51.51 0 00.511.51l6.72-.012a.51.51 0 00.51-.51z"></path></svg>