<svg data-v-ea210746="" viewBox="0 0 380 112" xmlns="http://www.w3.org/2000/svg" fill="#7d7e7d" class="ui-icon max-h-full absolute left-1/2 top-1/2 -translate-x-1/2 -translate-y-1/2 z-[201] w-[70%]" style="fill: rgb(174, 219, 242); opacity: 1;"><g fill="#000"><path d="M319.34 3c.38-2.14 3.1-1.6 4.67-1.78 1.9.2 4.89-.56 5.76 1.73.38 5.9-.13 11.82.25 17.72 15.69.02 31.4-.24 47.08.12.3.29.92.89 1.22 1.19.3 4.02.22 8.08-.21 12.09-12.38.45-24.78.16-37.18.18-.27 5.12.35 10.28-.32 15.38-1.62 1.14-3.73.71-5.59.84-12.34-.17-24.69.19-37.03-.13.5.39 1.48 1.17 1.98 1.56-1.1 1.65-1.97 3.43-2.9 5.17-1.66 1.41-3.97 1.54-6.04 1.56-23.36-.06-46.72-.03-70.09-.02-1.81.05-3.47-.78-5.13-1.39-.47-1.18-.94-2.36-1.43-3.53-1.85-.66-3.61-1.61-4.75-3.27-2.88.02-5.76.04-8.63-.08-.43 18.56.05 37.13-.24 55.69-.04 2.63-1.91 5.23-4.78 4.93-9.02.19-18.05-.05-27.07.03-2.78.32-5-2.35-4.91-4.98.05-10.15.02-20.3.05-30.45-5.7.04-11.4.1-17.09.04-2.14.05-3.95-1.2-5.56-2.47-2.6 7.37-5.57 14.6-8.4 21.88-1.01 2.74-3.73 5.65-6.93 4.6-5.33-1.44-10.6-3.13-15.81-4.93-1.46-.65-3.45-1.14-3.82-2.95-.84-2.36.31-4.77 1.59-6.71 4.16-6.04 8.08-12.29 11.11-18.98.94-1.9 1.28-4 1.33-6.1-3.08-.44-6.52-.93-8.39-3.74-3.71-.1-7.43.17-11.13-.14-2.56-.21-4.44-2.55-7.04-2.57-10.2-.21-20.4.1-30.59-.14-.34 1.05-.68 2.09-1.02 3.14-4.11.51-8.57-.65-12.37 1.4-11.19 5.58-19.48 15.27-27.34 24.69-2.25 3.04-6.31 2.1-9.56 2.3-1.99.22-3.78-.65-5.46-1.58-.38-1.46-.81-2.91-1.05-4.4-1.73-17.31-3.44-34.63-5.29-51.93-.25-3.82 2.39-7.52 5.9-8.93 2.82-1.21 4.26-4.21 6.88-5.67 4.64-.67 9.38-.38 14.06-.3 4.07-.42 5.03 5.27 8.93 5.19 17 .06 34-.01 51 .03 4.86.57 8.11-4.24 12.92-4.14 9.32-.34 18.66.09 27.99-.27.8-1.87 1.39-4.65 3.95-4.64 9.35-.7 18.74-.01 28.1-.18 11.4.03 22.8-.23 34.19.11 2.36.2 3.62 2.58 4.2 4.61 5.32.36 10.65 1.91 14.97 5.1-.01-3.21 1.92-7.01 5.63-6.71 24.36-.06 48.72-.05 73.08-.01 3.46-.32 5.37 3.07 5.79 6.03 3.27 1.51 6.45 3.76 10.2 3.67 2.18.05 4.37-.03 6.56-.05-.53-3.22 1.02-5.99 3.55-7.87.12-3.31-.16-6.64.21-9.94m3.17 2.33c-.38 2.92.15 5.88-.24 8.8-.66 1.57-2.14 2.57-3.31 3.74.01 2 .05 4 .07 6-3.96.15-7.93.08-11.9.05-.07.57-.22 1.72-.29 2.29.2.56.61 1.69.81 2.26 2.75-.02 5.51-.05 8.27-.14.13 1.82.25 3.65.36 5.47 3.46-.06 6.91-.12 10.37-.15.16-9.81-.31-19.64.37-29.44-1.46.36-3.57-.39-4.51 1.12m-188.37 5.66l-2.07 2.51c21.39-.09 42.79-.39 64.18.15-.51-.99-.68-2.93-2.28-2.59-19.94-.12-39.89.03-59.83-.07m83.5 4.92c.07 2.96-.02 5.92.28 8.87 25.68-.08 51.37-.06 77.06-.01.09-2.97.09-5.94.3-8.91-.74-1.17-1.68-2.2-3.22-1.86-23.69-.01-47.39-.03-71.08-.01-1.59-.36-2.54.76-3.34 1.92m-202.19-.74l-1.2 1.33-.03-.01c-1.91 2.38-4.51 4.01-7.03 5.65 2.04 19.75 4.04 39.51 6.2 59.25 1.9.05 3.79.13 5.68.21 8.5-10.27 17.47-20.79 29.64-26.81 2.55-1.41 5.5-1.48 8.34-1.54.9-.6 1.81-1.19 2.73-1.77-.13-5.44-.25-10.88.11-16.3.04-.59.13-1.77.17-2.36l-1.98.12c0-.51 0-1.52.01-2.03-7.29.28-14.67-.6-21.89.52-2.19-1.99-1.99-4.98-2.03-7.67-.71-.56-1.38-1.17-2-1.84l2.21.72c-.33-3.4-3.68-5.07-5.54-7.59-4.46.08-8.95-.29-13.39.12m76.02 5.53c-18.53.1-37.05.03-55.58.04.01.58.01 1.74.01 2.33l.76-.02c-.2 1.94-.17 3.88.14 5.8 6.06-.15 12.13-.03 18.19-.07 10.33.45 20.7-.45 31.02.2 3.06.1 5.02 2.47 7.11 4.33 3.21.98 6.69.62 9.96.06.23-5.3.32-10.62.08-15.92.07-.39.2-1.18.27-1.57-4.48-.09-8.02 3.13-11.96 4.82m13.51-4.69c.01 1.99.01 3.98 0 5.97 33.67.28 67.34 0 101.02.14 2.67.05 5.34-.19 8-.56-4.31-3.22-9.46-5.59-14.95-5.39-31.36-.05-62.71.08-94.07-.16m192.26 30.91c2.54.21 5.08.3 7.63.35-.09-6.94.03-13.88-.13-20.83 1.17-3.92-4.53-5.03-7.31-5.49-.3 8.65.04 17.31-.19 25.97M104.67 26.39c34.78.24 69.56.04 104.34.11 2.74.37 4.59-2.33 7.45-1.77-.37-.2-1.1-.59-1.47-.78-36-.04-72.02.08-108.03-.06-1.74-.24-2.51.59-2.29 2.5m224.23-2.47c-.04.51-.11 1.53-.15 2.05.06 1.7.13 3.41.21 5.11 8.09.01 16.18.07 24.27-.03.06-1.74.2-3.47.53-5.17.14-.49.42-1.45.56-1.94-8.47-.07-16.95-.02-25.42-.02m27.02-.01c-.02.53-.06 1.6-.09 2.13l-.21 5.04c6.45.03 12.9.02 19.35.02.12-1.71.24-3.42.34-5.13-.05-.52-.14-1.54-.19-2.06h-19.2m-141.33 3.22l.77 1.55c-.6.11-1.79.34-2.38.45.01 6.17-.05 12.34.02 18.51 1.32.28 2.13 1.08 2.43 2.4 25.71.1 51.43.07 77.15.01.29-1.35 1.12-2.15 2.49-2.42.06-6.25 0-12.5.03-18.75-.62 0-1.85.01-2.47.02l.68-1.92c-26.24.05-52.49-.25-78.72.15m-109.84 2.91c.15.48.44 1.46.59 1.94-.47 1.41-.56 3.42-2.33 3.84-2.09.29-4.21.19-6.32.19.06 4.69.14 9.37-.05 14.06 2.02 1.65 4.27 3.24 7.04 2.95 0-1.96 0-3.91.05-5.86 18.47.05 36.94 0 55.41.02.03-1.67.07-3.34.1-5.01 2.81-.06 5.62-.05 8.43.01-.1-3.32-.13-6.64-.07-9.96 10.94.23 21.9.22 32.84.01.02 2.91.25 5.83-.07 8.73-.22 2.07-2.37 3.38-4.33 3.28-7 .16-14.01.02-21.01.02.35 1.09.03 3.37 1.93 2.9 11.33.12 22.67-.16 34.01.16.06-5.11.08-10.23.02-15.34l.04-1.96c-35.42-.1-70.85-.12-106.28.02M62 31.18c.01.49.05 1.49.07 1.99-.12 2.62-.11 5.24-.06 7.86 10.63-.03 21.29.4 31.9-.2l.57-1c-.09-1.07-.15-2.14-.19-3.21-1.98-2.24-4.69-3.61-6.77-5.7-8.51.1-17.03-.28-25.52.26m107.78 3.79c-.14 2.27-.09 4.56.21 6.82 9.26.46 18.56.4 27.83.03.31-2.26.6-4.51.87-6.77-9.63-.31-19.27-.15-28.91-.08m136.99.9c.11.53.34 1.58.46 2.11-.12 3.08-.13 6.16-.1 9.24 10.19-.2 20.4.2 30.59-.2.08-3.68-.4-7.39 0-11.05-10.32-.08-20.64.1-30.95-.1M62.06 43.11c.05.64.14 1.94.19 2.59 10.24-.15 20.48.03 30.72-.08 1.9.55 1.63-2.85.02-2.48-10.27-.63-20.64-.45-30.93-.03m98.8.83c.13.55.38 1.65.51 2.2-.15 3.07-.43 6.39 1.88 8.79 2.86.15 5.62-1.37 5.62-4.55 1.23 0 2.46-.05 3.69-.15 1.32-1.02.39-2.74.46-4.11-.05-.54-.14-1.61-.19-2.15-3.99-.06-7.98-.05-11.97-.03M62.1 47.88l-.04 2.4c10.71-.11 21.43.21 32.13-.15-.01-.51-.02-1.54-.02-2.06-10.67-.46-21.38-.04-32.07-.19m43.89 1.18l.08 2.24-.08 1.61c17.88-.01 35.76.02 53.64-.04-.2-.37-.61-1.11-.81-1.48.04-.61.11-1.84.15-2.45-17.65.21-35.32 0-52.98.12m69.24 3.19c-1.46.04-2.92.09-4.37.16-.89 1.58-2.02 2.99-3.3 4.27-.17 13.78-.36 27.57-.27 41.36.11 3.12-.33 6.3.36 9.37 1.72.56 3.56.49 5.35.52 8-.06 16 .07 24-.14.77-13.9.13-27.86.34-41.78-.23-5.43.55-10.92-.54-16.28-7.15-.07-14.31-.12-21.45.02l-.12 2.5m41.97.95c1.01 1.09 1.98 2.52 3.71 2.16 24.37-.01 48.74.05 73.12-.03.39-.56 1.19-1.67 1.58-2.22-11.88-.45-23.77-.03-35.65-.15-14.25.12-28.52-.29-42.76.24m-101.75 2.37c3.71.21 6.79 2.9 10.55 2.61 4.71-.01 9.42-.03 14.13-.04l-.12-2.99c-8.18.04-16.41-.41-24.56.42m27.77 13.32c-.02 1.96 1.76 3.76 3.79 3.39 5.66-.03 11.34.24 16.99-.17 1.54-1.64 1.14-4.05 1.2-6.09-.19-3.08.34-6.24-.42-9.27-.25 4.28.06 8.57-.3 12.85-6.13.1-12.28.3-18.39-.02-.44-.22-1.31-.66-1.75-.88-1.76-4.35-.23-9.28-.78-13.87-.27 4.68-.27 9.37-.34 14.06m5.38-13.79c-.67 3.96.53 8.01 4.09 10.22-.47-3.4-.68-6.83-.46-10.26l-3.63.04m6.78 1.01c.05 2.11-.12 4.26.31 6.34 1.29 2.04 3.13 3.98 5.65 4.31-.03-3.34-.11-6.67 0-10.01-1.95-.52-3.96-.63-5.96-.64m-31.73 3.99c.01 7.29-4.72 13.29-8.07 19.41-1.88 3.61-5 6.6-6.26 10.49l.73.97c5.88 2.16 11.82 4.64 18.05 5.48 3.06-2.96 3.51-7.62 5.28-11.37 2.47-7.62 7.43-14.79 6.74-23.11-.01-.51-.04-1.54-.05-2.05-5.47.12-10.95-.29-16.39.28l-.03-.1z"></path><path d="M226.59 16.03h.81c.93 1.21 1.7 2.74 3.32 3.18l-2.47 1.04c-.27.58-.81 1.73-1.07 2.31-1.04-1.18-2.1-2.34-3.06-3.58.78-1.01 1.64-1.97 2.47-2.95zm10.02.01c.14.01.41.02.54.02.98.95 2.03 1.82 3.15 2.61-1.01 1.17-1.97 2.43-3.29 3.27-1.2-.69-2.53-1.63-2.85-3.05.79-.98 1.61-1.92 2.45-2.85zm38.01-.03c.16.01.49.01.65.02.91 1.26 2.04 2.35 3.36 3.18-.6.26-1.79.77-2.38 1.03-.26.59-.78 1.78-1.04 2.38-1.02-1.23-2.1-2.41-3.14-3.62.8-1.04 1.68-2.01 2.55-2.99zm10.12.03c.16-.01.48-.01.64-.01.87 1.18 1.88 2.27 2.94 3.3-1.38.86-2.81 1.76-3.56 3.28l-1-2.35c-.59-.27-1.76-.8-2.35-1.07 1.26-.88 2.43-1.9 3.33-3.15zm-63.95 17.87c-.22-1.48.55-2.77 2.03-3.13.67 4.8-.99 10.16.89 14.62l1.04.83c-1.18.28-2.35.57-3.52.87-.53-4.37-.55-8.79-.44-13.19zm14.85-2.01c.56-.24 1.67-.71 2.23-.95.06 4.69.06 9.38.03 14.06l1.6.31c.13 1.98-2.35 1.31-3.53 1.64-.5-5.01-.38-10.04-.33-15.06zm20.04 0c.55-.24 1.64-.72 2.19-.96.06 4.71.07 9.43.02 14.14l1.12.04c1.92 1.84-2.09 1.6-3.04 1.86-.55-5.01-.41-10.06-.29-15.08zm20.01.01c.55-.24 1.64-.73 2.19-.97.05 4.73.06 9.45.01 14.18l1.23-.04c1.43 2.07-2.11 1.58-3.13 1.89-.63-5-.43-10.04-.3-15.06zm-169.14 5.8c1.37 1.11 2.6 2.37 3.76 3.69-1.64.3-2.59 1.27-2.85 2.92a26.113 26.113 0 01-3.78-3.8c1.67-.22 2.63-1.16 2.87-2.81zm11.99-.01c1.34 1.12 2.59 2.35 3.73 3.68-1.66.41-2.45 1.92-3.69 2.91-.44-1.65-1.91-2.51-2.89-3.78 1.69-.21 2.64-1.15 2.85-2.81zm61.81 17.83c.37-.18 1.1-.55 1.47-.73.23 16.42.04 32.85.1 49.28-.44-.02-1.31-.05-1.75-.07.12-16.15-.26-32.34.18-48.48zm8.4 4.44c.09-1.87-.4-4.71 2.07-5.2.17 16.51.11 33.02.03 49.53-2.26-.14-1.89-2.61-2.05-4.23-.1-13.37.17-26.73-.05-40.1zm-17.63-2.93c1.47-.27 2.95-.52 4.43-.75.39 10.92-.02 21.84.15 32.76-.1 5.04.35 10.13-.4 15.15-.05-15.83.02-31.66-.03-47.49-.62.03-1.85.08-2.46.1.08 15.73.01 31.47.03 47.2-.43 0-1.3.01-1.73.01 0-15.66-.04-31.32.01-46.98z"></path></g><path d="M322.51 5.33c.94-1.51 3.05-.76 4.51-1.12-.68 9.8-.21 19.63-.37 29.44-3.46.03-6.91.09-10.37.15-.11-1.82-.23-3.65-.36-5.47-2.76.09-5.52.12-8.27.14-.2-.57-.61-1.7-.81-2.26 4.07-.14 8.14-.24 12.21-.21 0-.53-.01-1.6-.02-2.13-.02-2-.06-4-.07-6 1.17-1.17 2.65-2.17 3.31-3.74.39-2.92-.14-5.88.24-8.8zM14.22 16.49l.03.01c4.45.65 8.95.59 13.42.52 1.55 1.59 2.98 3.29 4.5 4.9.62.67 1.29 1.28 2 1.84.04 2.69-.16 5.68 2.03 7.67.33.37 1 1.1 1.33 1.46 5.95.3 11.91-.03 17.87.19.57 2.16 2.74 1.89 4.49 2.1-.36 5.42-.24 10.86-.11 16.3-.92.58-1.83 1.17-2.73 1.77-2.84.06-5.79.13-8.34 1.54-12.17 6.02-21.14 16.54-29.64 26.81-1.89-.08-3.78-.16-5.68-.21-2.16-19.74-4.16-39.5-6.2-59.25 2.52-1.64 5.12-3.27 7.03-5.65zm90.76-.48c31.36.24 62.71.11 94.07.16 5.49-.2 10.64 2.17 14.95 5.39-2.66.37-5.33.61-8 .56-33.68-.14-67.35.14-101.02-.14.01-1.99.01-3.98 0-5.97zm112.66-.1c2.98.11 5.97.13 8.95.12-.83.98-1.69 1.94-2.47 2.95.96 1.24 2.02 2.4 3.06 3.58.26-.58.8-1.73 1.07-2.31l2.47-1.04c-1.62-.44-2.39-1.97-3.32-3.18 3.07-.04 6.14-.08 9.21.01-.84.93-1.66 1.87-2.45 2.85.32 1.42 1.65 2.36 2.85 3.05 1.32-.84 2.28-2.1 3.29-3.27-1.12-.79-2.17-1.66-3.15-2.61 12.49-.03 24.98.04 37.47-.05-.87.98-1.75 1.95-2.55 2.99 1.04 1.21 2.12 2.39 3.14 3.62.26-.6.78-1.79 1.04-2.38.59-.26 1.78-.77 2.38-1.03-1.32-.83-2.45-1.92-3.36-3.18 3.15-.01 6.31-.02 9.47.01-.9 1.25-2.07 2.27-3.33 3.15.59.27 1.76.8 2.35 1.07l1 2.35c.75-1.52 2.18-2.42 3.56-3.28-1.06-1.03-2.07-2.12-2.94-3.3 3.3-.03 6.6-.02 9.9-.17-.21 2.97-.21 5.94-.3 8.91-25.69-.05-51.38-.07-77.06.01-.3-2.95-.21-5.91-.28-8.87z"></path><path d="M90.98 22.98c4.38-.91 8.11-3.75 12.18-5.53.24 5.3.15 10.62-.08 15.92-3.27.56-6.75.92-9.96-.06-2.09-1.86-4.05-4.23-7.11-4.33-10.32-.65-20.69.25-31.02-.2-6.06.04-12.13-.08-18.19.07-.31-1.92-.34-3.86-.14-5.8 18.11-.14 36.22.05 54.32-.07zm206.26 23.94c.23-8.66-.11-17.32.19-25.97l1.08 2.4c2.09.99 4.16 2.04 6.23 3.09.16 6.95.04 13.89.13 20.83-2.55-.05-5.09-.14-7.63-.35zm31.51-20.95c8.34.03 16.68.27 25.01-.09-.33 1.7-.47 3.43-.53 5.17-8.09.1-16.18.04-24.27.03-.08-1.7-.15-3.41-.21-5.11zm27.08.07c6.49 0 12.99.04 19.48-.07-.1 1.71-.22 3.42-.34 5.13-6.45 0-12.9.01-19.35-.02l.21-5.04zm-140.47 2.64c4.51.62 9.07.24 13.6.32 21.23-.07 42.45.14 63.67-.1.62-.01 1.85-.02 2.47-.02-.03 6.25.03 12.5-.03 18.75-1.37.27-2.2 1.07-2.49 2.42-25.72.06-51.44.09-77.15-.01-.3-1.32-1.11-2.12-2.43-2.4-.07-6.17-.01-12.34-.02-18.51.59-.11 1.78-.34 2.38-.45m5.43 5.23c-.11 4.4-.09 8.82.44 13.19 1.17-.3 2.34-.59 3.52-.87l-1.04-.83 1.23-.48c.4-4.61.08-9.25.11-13.87-.56-.07-1.67-.2-2.23-.27-1.48.36-2.25 1.65-2.03 3.13m4.98-3.06c-.41 5.46-.29 10.94.01 16.41.91-.02 2.75-.04 3.67-.05l-.44-2.17 1.03.31c.06-4.78.05-9.56.01-14.34-.51-.01-1.54-.02-2.05-.03-.56-.03-1.67-.1-2.23-.13m5.14.34c-.8 5.34-.24 10.77-.12 16.14 1.53-.08 4.67.24 3.34-2.31l.99.19c.08-4.66.45-9.36-.14-14-.49-.13-1.48-.4-1.98-.54l-2.09.52m4.73.71c-.05 5.02-.17 10.05.33 15.06 1.18-.33 3.66.34 3.53-1.64l.58-.59.28-.88c.28 1.05.52 2.1.72 3.16h3.44c-.2-.49-.62-1.48-.83-1.98l1.34.3c.05-4.76.06-9.52.02-14.29-.51-.05-1.54-.17-2.05-.23-1.37-.22-2.28.23-2.75 1.36l.03-1.15c-.6-.02-1.81-.05-2.41-.07-.56.24-1.67.71-2.23.95m10.13-1.07c-.35 5.5-.16 11.02-.02 16.53 1.52-.08 4.81.22 3.31-2.33l.97.35c.07-4.79.04-9.58.02-14.37-.51-.01-1.54-.02-2.05-.02l-2.23-.16m5.13.36c-.73 5.31-.23 10.68-.12 16.01l3.68.04c-.11-.55-.31-1.67-.41-2.22l1.09.19c.11-4.66.43-9.36-.18-13.99-.49-.14-1.47-.41-1.96-.55-.52.13-1.58.39-2.1.52m4.78.71c-.12 5.02-.26 10.07.29 15.08.95-.26 4.96-.02 3.04-1.86l1.35-.11v-1.28c.15 1.11.39 2.2.71 3.28h3.43c-.21-.51-.62-1.52-.82-2.03l1.34.35c.07-4.76.09-9.52.03-14.29-.51-.05-1.54-.16-2.05-.22-1.4-.26-2.32.21-2.75 1.39l.03-1.19-2.41-.08c-.55.24-1.64.72-2.19.96m10.2-.84c-.72 5.41-.15 10.89-.13 16.33 1.73-.17 4.54.3 3.38-2.38l.92.17c.01-4.71.02-9.42-.02-14.14-.51-.05-1.52-.16-2.03-.21-.53.05-1.59.17-2.12.23m5.07.1c-.82 5.34-.24 10.78-.17 16.15 1.79-.1 4.54.42 3.35-2.32l.94.01c.5-4.64.2-9.32-.03-13.97l-2.05-.2c-.51.08-1.53.25-2.04.33m4.74.75c-.13 5.02-.33 10.06.3 15.06 1.02-.31 4.56.18 3.13-1.89l1.24-.09v-1.27c.15 1.11.39 2.21.71 3.3h3.4l-.8-2.03 1.36.34c.04-4.76.02-9.53.04-14.29-.52-.05-1.55-.16-2.07-.21-1.42-.31-2.33.13-2.73 1.32l.03-1.13-2.42-.08c-.55.24-1.64.73-2.19.97m10.04-1.03c-.23 5.49-.12 10.99.02 16.48 1.25-.05 5.12-.2 3.01-2.26l1.24.3c.08-4.8.05-9.6.04-14.4l-2.04-.08-2.27-.04z"></path><path d="M105.34 31.98c20.75.28 41.51-.19 62.26.24-.06 3.32-.03 6.64.07 9.96-2.81-.06-5.62-.07-8.43-.01-.03 1.67-.07 3.34-.1 5.01-18.47-.02-36.94.03-55.41-.02-.05 1.95-.05 3.9-.05 5.86-2.77.29-5.02-1.3-7.04-2.95.19-4.69.11-9.37.05-14.06 2.11 0 4.23.1 6.32-.19 1.77-.42 1.86-2.43 2.33-3.84m1.21 5.73c-.24 1.65-1.2 2.59-2.87 2.81 1.13 1.39 2.39 2.67 3.78 3.8.26-1.65 1.21-2.62 2.85-2.92-1.16-1.32-2.39-2.58-3.76-3.69m11.99-.01c-.21 1.66-1.16 2.6-2.85 2.81.98 1.27 2.45 2.13 2.89 3.78 1.24-.99 2.03-2.5 3.69-2.91a31.617 31.617 0 00-3.73-3.68zm81.9-5.47c3.51-.2 7.03-.25 10.55-.25.06 5.11.04 10.23-.02 15.34-11.34-.32-22.68-.04-34.01-.16-1.9.47-1.58-1.81-1.93-2.9 7 0 14.01.14 21.01-.02 1.96.1 4.11-1.21 4.33-3.28.32-2.9.09-5.82.07-8.73zm-138.37.94c8.12-.2 16.25-.14 24.38-.07 2.54 2.41 6.04 3.75 8.03 6.73l-.57 1c-10.61.6-21.27.17-31.9.2-.05-2.62-.06-5.24.06-7.86zm275.65 2.8c-.4 3.66.08 7.37 0 11.05-10.19.4-20.4 0-30.59.2-.03-3.08-.02-6.16.1-9.24 8.24.19 16.49-.04 24.74.11 2.12-.1 4.93.52 5.75-2.12zM161.37 46.14c3.88 0 7.76-.13 11.65-.02-.07 1.37.86 3.09-.46 4.11-1.23.1-2.46.15-3.69.15 0 3.18-2.76 4.7-5.62 4.55-2.31-2.4-2.03-5.72-1.88-8.79zM62.1 47.88c10.69.15 21.4-.27 32.07.19 0 .52.01 1.55.02 2.06-10.7.36-21.42.04-32.13.15l.04-2.4zm113.13 4.37l.12-2.5c.23.53.69 1.58.93 2.1 6.4.3 12.87.31 19.27-.01.31-.53.94-1.58 1.25-2.11 1.09 5.36.31 10.85.54 16.28-.21 13.92.43 27.88-.34 41.78-8 .21-16 .08-24 .14-1.79-.03-3.63.04-5.35-.52-.69-3.07-.25-6.25-.36-9.37-.09-13.79.1-27.58.27-41.36 1.28-1.28 2.41-2.69 3.3-4.27 1.45-.07 2.91-.12 4.37-.16m5.12 3.28c-.44 16.14-.06 32.33-.18 48.48.44.02 1.31.05 1.75.07.53-.02 1.6-.05 2.13-.06.02-16.33.01-32.65 0-48.98l-2.23-.24c-.37.18-1.1.55-1.47.73m8.4 4.44c.22 13.37-.05 26.73.05 40.1.16 1.62-.21 4.09 2.05 4.23l2.15-.32c-.02-16.32.03-32.63-.02-48.94-.54-.07-1.62-.2-2.16-.27-2.47.49-1.98 3.33-2.07 5.2m-17.63-2.93c-.05 15.66-.01 31.32-.01 46.98.43 0 1.3-.01 1.73-.01.62.05 1.84.14 2.46.19.75-5.02.3-10.11.4-15.15-.17-10.92.24-21.84-.15-32.76-1.48.23-2.96.48-4.43.75z"></path><path d="M106.07 51.3c17.58.08 35.17-.13 52.75.09.2.37.61 1.11.81 1.48-17.88.06-35.76.03-53.64.04l.08-1.61zm111.13 1.9c14.24-.53 28.51-.12 42.76-.24 11.88.12 23.77-.3 35.65.15-.39.55-1.19 1.66-1.58 2.22-24.38.08-48.75.02-73.12.03-1.73.36-2.7-1.07-3.71-2.16zm-101.75 2.37c8.15-.83 16.38-.38 24.56-.42l.12 2.99c-4.71.01-9.42.03-14.13.04-3.76.29-6.84-2.4-10.55-2.61zm27.77 13.32c.07-4.69.07-9.38.34-14.06.55 4.59-.98 9.52.78 13.87.44.22 1.31.66 1.75.88 6.11.32 12.26.12 18.39.02.36-4.28.05-8.57.3-12.85.76 3.03.23 6.19.42 9.27-.06 2.04.34 4.45-1.2 6.09-5.65.41-11.33.14-16.99.17-2.03.37-3.81-1.43-3.79-3.39z"></path><path d="M148.6 55.1l3.63-.04c-.22 3.43-.01 6.86.46 10.26-3.56-2.21-4.76-6.26-4.09-10.22zm-24.95 5l.03.1c.16.42.47 1.27.63 1.7 5.26.3 10.54.08 15.81.07.69 8.32-4.27 15.49-6.74 23.11-1.77 3.75-2.22 8.41-5.28 11.37-6.23-.84-12.17-3.32-18.05-5.48l-.73-.97c1.26-3.89 4.38-6.88 6.26-10.49 3.35-6.12 8.08-12.12 8.07-19.41z"></path><path d="M134.14 10.99c19.94.1 39.89-.05 59.83.07 1.6-.34 1.77 1.6 2.28 2.59-21.39-.54-42.79-.24-64.18-.15l2.07-2.51zm83.5 4.92c.8-1.16 1.75-2.28 3.34-1.92 23.69-.02 47.39 0 71.08.01 1.54-.34 2.48.69 3.22 1.86-3.3.15-6.6.14-9.9.17-.16 0-.48 0-.64.01-3.16-.03-6.32-.02-9.47-.01-.16-.01-.49-.01-.65-.02-12.49.09-24.98.02-37.47.05-.13 0-.4-.01-.54-.02-3.07-.09-6.14-.05-9.21-.01h-.81c-2.98.01-5.97-.01-8.95-.12zm-202.19-.74c4.44-.41 8.93-.04 13.39-.12 1.86 2.52 5.21 4.19 5.54 7.59l-2.21-.72c-1.52-1.61-2.95-3.31-4.5-4.9-4.47.07-8.97.13-13.42-.52l1.2-1.33zm76.02 5.53c3.94-1.69 7.48-4.91 11.96-4.82-.07.39-.2 1.18-.27 1.57-4.07 1.78-7.8 4.62-12.18 5.53-18.1.12-36.21-.07-54.32.07l-.76.02c0-.59 0-1.75-.01-2.33 18.53-.01 37.05.06 55.58-.04zm205.96.25c2.78.46 8.48 1.57 7.31 5.49-2.07-1.05-4.14-2.1-6.23-3.09l-1.08-2.4zm-192.76 5.44c-.22-1.91.55-2.74 2.29-2.5 36.01.14 72.03.02 108.03.06.37.19 1.1.58 1.47.78-2.86-.56-4.71 2.14-7.45 1.77-34.78-.07-69.56.13-104.34-.11zm202.46-2.47c3.97.03 7.94.1 11.9-.05.01.53.02 1.6.02 2.13-4.07-.03-8.14.07-12.21.21.07-.57.22-1.72.29-2.29zm21.77 0c8.47 0 16.95-.05 25.42.02-.14.49-.42 1.45-.56 1.94-8.33.36-16.67.12-25.01.09.04-.52.11-1.54.15-2.05zm27.02-.01h19.2c.05.52.14 1.54.19 2.06-6.49.11-12.99.07-19.48.07.03-.53.07-1.6.09-2.13zm-141.33 3.22c26.23-.4 52.48-.1 78.72-.15l-.68 1.92c-21.22.24-42.44.03-63.67.1-4.53-.08-9.09.3-13.6-.32l-.77-1.55zm-109.84 2.91c35.43-.14 70.86-.12 106.28-.02l-.04 1.96c-3.52 0-7.04.05-10.55.25-10.94.21-21.9.22-32.84-.01-20.75-.43-41.51.04-62.26-.24-.15-.48-.44-1.46-.59-1.94zM36.2 31.43c7.22-1.12 14.6-.24 21.89-.52-.01.51-.01 1.52-.01 2.03l1.98-.12c-.04.59-.13 1.77-.17 2.36-1.75-.21-3.92.06-4.49-2.1-5.96-.22-11.92.11-17.87-.19-.33-.36-1-1.09-1.33-1.46zm25.8-.25c8.49-.54 17.01-.16 25.52-.26 2.08 2.09 4.79 3.46 6.77 5.7.04 1.07.1 2.14.19 3.21-1.99-2.98-5.49-4.32-8.03-6.73-8.13-.07-16.26-.13-24.38.07-.02-.5-.06-1.5-.07-1.99zm160.82-.4c.56.07 1.67.2 2.23.27-.03 4.62.29 9.26-.11 13.87l-1.23.48c-1.88-4.46-.22-9.82-.89-14.62zm5.18.2c.51.01 1.54.02 2.05.03.04 4.78.05 9.56-.01 14.34l-1.03-.31-.93-.39c-.16-4.55-.05-9.11-.08-13.67zm5-.31c.5.14 1.49.41 1.98.54.59 4.64.22 9.34.14 14l-.99-.19-1.13-.23c.01-4.71-.01-9.41 0-14.12zm4.87.28c.6.02 1.81.05 2.41.07l-.03 1.15c-.1 3.9.01 7.79.11 11.68l-.28.88-.58.59-1.6-.31c.03-4.68.03-9.37-.03-14.06zm5.13-.14c.51.06 1.54.18 2.05.23.04 4.77.03 9.53-.02 14.29l-1.34-.3c-1.42-4.55-.36-9.5-.69-14.22zm5 .18c.51 0 1.54.01 2.05.02.02 4.79.05 9.58-.02 14.37l-.97-.35-.98-.4c-.16-4.55-.04-9.1-.08-13.64zm5-.32c.49.14 1.47.41 1.96.55.61 4.63.29 9.33.18 13.99l-1.09-.19-1.05-.2V30.67zm4.87.27l2.41.08-.03 1.19c-.1 3.84.01 7.68.11 11.52v1.28l-1.35.11-1.12-.04c.05-4.71.04-9.43-.02-14.14zm5.13-.12c.51.06 1.54.17 2.05.22.06 4.77.04 9.53-.03 14.29l-1.34-.35c-1.39-4.55-.36-9.46-.68-14.16zm5 .01c.51.05 1.52.16 2.03.21.04 4.72.03 9.43.02 14.14l-.92-.17-1.13-.23V30.83zm4.99 0l2.05.2c.23 4.65.53 9.33.03 13.97l-.94-.01-1.13-.05c-.01-4.7.01-9.41-.01-14.11zm4.89.11l2.42.08-.03 1.13c-.13 3.86-.01 7.71.09 11.57v1.27l-1.24.09-1.23.04c.05-4.73.04-9.45-.01-14.18zm5.12-.11c.52.05 1.55.16 2.07.21-.02 4.76 0 9.53-.04 14.29l-1.36-.34c-1.37-4.56-.36-9.46-.67-14.16zm5 .09l2.04.08c.01 4.8.04 9.6-.04 14.4l-1.24-.3-.65-.57c-.22-4.53-.06-9.07-.11-13.61zm18.77 4.95c10.31.2 20.63.02 30.95.1-.82 2.64-3.63 2.02-5.75 2.12-8.25-.15-16.5.08-24.74-.11-.12-.53-.35-1.58-.46-2.11zm-145.91 8.07c3.99-.02 7.98-.03 11.97.03.05.54.14 1.61.19 2.15-3.89-.11-7.77.02-11.65.02-.13-.55-.38-1.65-.51-2.2zm-54.87 5.12c17.66-.12 35.33.09 52.98-.12-.04.61-.11 1.84-.15 2.45-17.58-.22-35.17-.01-52.75-.09l-.08-2.24zm69.36.69c7.14-.14 14.3-.09 21.45-.02-.31.53-.94 1.58-1.25 2.11-6.4.32-12.87.31-19.27.01-.24-.52-.7-1.57-.93-2.1zm6.47 5.05l2.23.24c.01 16.33.02 32.65 0 48.98-.53.01-1.6.04-2.13.06-.06-16.43.13-32.86-.1-49.28zm9-.03c.54.07 1.62.2 2.16.27.05 16.31 0 32.62.02 48.94l-2.15.32c.08-16.51.14-33.02-.03-49.53zm-18.01 2.04c.61-.02 1.84-.07 2.46-.1.05 15.83-.02 31.66.03 47.49-.62-.05-1.84-.14-2.46-.19-.02-15.73.05-31.47-.03-47.2zm-49.13 3.39c5.44-.57 10.92-.16 16.39-.28.01.51.04 1.54.05 2.05-5.27.01-10.55.23-15.81-.07-.16-.43-.47-1.28-.63-1.7z" fill="#f4f4f4"></path><path d="M225.77 30.85c.56.03 1.67.1 2.23.13.03 4.56-.08 9.12.08 13.67l.93.39.44 2.17c-.92.01-2.76.03-3.67.05-.3-5.47-.42-10.95-.01-16.41zm5.14.34l2.09-.52c-.01 4.71.01 9.41 0 14.12l1.13.23c1.33 2.55-1.81 2.23-3.34 2.31-.12-5.37-.68-10.8.12-16.14zm9.34.98c.47-1.13 1.38-1.58 2.75-1.36.33 4.72-.73 9.67.69 14.22.21.5.63 1.49.83 1.98h-3.44c-.2-1.06-.44-2.11-.72-3.16-.1-3.89-.21-7.78-.11-11.68zm5.52-1.34l2.23.16c.04 4.54-.08 9.09.08 13.64l.98.4c1.5 2.55-1.79 2.25-3.31 2.33-.14-5.51-.33-11.03.02-16.53zm5.13.36c.52-.13 1.58-.39 2.1-.52v14.15l1.05.2c.1.55.3 1.67.41 2.22l-3.68-.04c-.11-5.33-.61-10.7.12-16.01zm9.35 1.02c.43-1.18 1.35-1.65 2.75-1.39.32 4.7-.71 9.61.68 14.16.2.51.61 1.52.82 2.03h-3.43c-.32-1.08-.56-2.17-.71-3.28-.1-3.84-.21-7.68-.11-11.52zm5.63-1.15c.53-.06 1.59-.18 2.12-.23v13.95l1.13.23c1.16 2.68-1.65 2.21-3.38 2.38-.02-5.44-.59-10.92.13-16.33zm5.07.1c.51-.08 1.53-.25 2.04-.33.02 4.7 0 9.41.01 14.11l1.13.05c1.19 2.74-1.56 2.22-3.35 2.32-.07-5.37-.65-10.81.17-16.15zm9.32.99c.4-1.19 1.31-1.63 2.73-1.32.31 4.7-.7 9.6.67 14.16l.8 2.03h-3.4a22.32 22.32 0 01-.71-3.3c-.1-3.86-.22-7.71-.09-11.57zm5.46-1.27l2.27.04c.05 4.54-.11 9.08.11 13.61l.65.57c2.11 2.06-1.76 2.21-3.01 2.26-.14-5.49-.25-10.99-.02-16.48zm-115.95 4.09c9.64-.07 19.28-.23 28.91.08-.27 2.26-.56 4.51-.87 6.77-9.27.37-18.57.43-27.83-.03-.3-2.26-.35-4.55-.21-6.82zM62.06 43.11c10.29-.42 20.66-.6 30.93.03 1.61-.37 1.88 3.03-.02 2.48-10.24.11-20.48-.07-30.72.08-.05-.65-.14-1.95-.19-2.59z" fill="#3a393a"></path></svg>