<svg data-v-ea210746="" xmlns="http://www.w3.org/2000/svg" fill="#fff" viewBox="0 0 64 64" class="ui-icon max-h-full w-full" style="fill: rgb(185, 230, 185); opacity: 1;"><g fill="#000"><path d="M19.22 44.95q.01 1.61 0 3.5c-.07 9.11-13.93 8.76-13.28-.47q.14-1.95.02-3.88a.9.87-78.1 00-.46-.73q-2.54-1.4-2.69-4.3c-.22-4.09-1.09-9.48 3.69-11.34q.62-.24.72-.9.88-6.47 1.86-12.84c.59-3.88 3.61-5.07 7.05-5.04q18.09.12 32.9.04c3.64-.02 5.62 2.43 6.07 5.79q.89 6.7 1.67 12.06.08.54.59.74 3.65 1.49 3.84 5.25c.18 3.25.91 8.46-2.53 10.38q-.55.3-.59.93-.14 1.85-.07 3.73.25 6.38-5.66 7.09-3.76.44-6.05-2.08c-1.86-2.07-1.63-5.27-1.47-7.85a.76.76 0 00-.76-.81H19.95q-.73 0-.73.73M47 42.62l.03 5.74q.03 3.65 3.62 4.33.6.12 1.24.03 3.86-.56 3.86-4.46v-5.52q0-.57.53-.77c3.88-1.47 2.73-6.37 2.71-9.44q0-.52-.31-.93-1.13-1.47-2.9-2.08a1.74 1.73-84.8 01-1.17-1.41l-1.99-13.78a3.59 3.59 0 00-3.55-3.07l-34.15.01a3.63 3.62 4.3 00-3.59 3.07L9.16 28.52q-.11.76-.83 1.03c-1.69.64-3.31 1.43-3.36 3.49-.09 3.12-.92 7.43 2.64 8.94q.64.27.64.96l.01 5.47q0 3.71 3.66 4.32.66.11 1.34-.02 3.66-.68 3.69-4.4l.06-5.69q0-.62.62-.62h28.74q.63 0 .63.62"></path><path d="M13.23 25.92l1.5-9.26a2.65 2.64-85.4 012.61-2.23l28.94.05a3.04 3.03-4.6 013 2.55l1.45 8.8q.1.65-.55.65H13.61q-.47 0-.38-.56"></path></g><path d="M46.37 42H17.63q-.62 0-.62.62l-.06 5.69q-.03 3.72-3.69 4.4-.68.13-1.34.02-3.66-.61-3.66-4.32l-.01-5.47q0-.69-.64-.96c-3.56-1.51-2.73-5.82-2.64-8.94.05-2.06 1.67-2.85 3.36-3.49q.72-.27.83-1.03l2.17-14.18a3.63 3.62 4.3 013.59-3.07l34.15-.01a3.59 3.59 0 013.55 3.07l1.99 13.78a1.74 1.73-84.8 001.17 1.41q1.77.61 2.9 2.08.31.41.31.93c.02 3.07 1.17 7.97-2.71 9.44q-.53.2-.53.77v5.52q0 3.9-3.86 4.46-.64.09-1.24-.03-3.59-.68-3.62-4.33L47 42.62q0-.62-.63-.62M14.73 16.66l-1.5 9.26q-.09.56.38.56h36.57q.65 0 .55-.65l-1.45-8.8a3.04 3.03-4.6 00-3-2.55l-28.94-.05a2.65 2.64-85.4 00-2.61 2.23"></path></svg>