<svg data-v-ea210746="" xmlns="http://www.w3.org/2000/svg" fill="#fff" viewBox="0 0 64 64" class="ui-icon max-h-full absolute left-1/2 top-1/2 -translate-x-1/2 -translate-y-1/2 z-[201] w-[70%]" style="opacity: 1;"><path fill="#000" d="M31.54 21.29q-.36 1.21.2 2.22.25.44.14.95l-6.7 31.95q-.66 3.12-3.84 2.82l-3.28-.31q-3.14-.3-2.5-3.39 3.19-15.51 6.54-31.31c.22-1.07 1.06-1.92.87-3.02q-.37-2.2-.63-4.37-.82-6.66 4.75-11.53c2.74-2.4 3.94 1.77 4.55 3.41q.37.97.65-.02.36-1.25.9-2.49c.76-1.76 2.68-1.93 3.98-.7 3.08 2.9 5.17 7.27 4.39 11.51q-.37 1.96-.61 4.04c-.15 1.26.68 1.99.94 3.19q3.35 15.79 6.57 31.47.52 2.54-2.02 3.04-1.91.38-3.89.54-3.09.25-3.72-2.79l-6.62-31.57q-.15-.71.06-1.4.34-1.11-.08-2.26-.35-.97-.65.02m-3.23-7.42c.25-.63 1.03-1.03 1.44-1.6q.32-.44.16-.97l-1.13-3.59q-.2-.64-.7-.19c-4.42 4.06-3.79 8.05-2.98 13.25a1.06 1.04 87.8 00.94.89l2.55.25q.64.06.8-.55c.8-2.88-2.49-4.01-1.08-7.49m5.82-3.01q-.25 1.1.5 1.94c2.93 3.27-.69 5.03-.21 8.16q.14.91 1.06.86l2.42-.13q.69-.04.82-.72c.96-5.17 1.46-9.15-2.75-13.33q-.89-.89-1.17.34zm-1.446 6.353a1.7 1.52 61.4 00.52-2.22 1.7 1.52 61.4 00-2.148-.766 1.7 1.52 61.4 00-.52 2.22 1.7 1.52 61.4 002.148.766M17.83 55.86a.65.65 0 00.57.78l3.73.35a.65.65 0 00.7-.51l6.54-31.41a.65.65 0 00-.56-.78l-3.7-.4a.65.65 0 00-.71.52zm21.75-31.39a.62.62 0 00-.66-.49l-3.76.31a.62.62 0 00-.56.75l6.57 31.45a.62.62 0 00.66.49l3.8-.32a.62.62 0 00.56-.75z"></path><path d="M28.31 13.87c-1.41 3.48 1.88 4.61 1.08 7.49q-.16.61-.8.55l-2.55-.25a1.06 1.04 87.8 01-.94-.89c-.81-5.2-1.44-9.19 2.98-13.25q.5-.45.7.19l1.13 3.59q.16.53-.16.97c-.41.57-1.19.97-1.44 1.6m5.82-3.01l.67-2.88q.28-1.23 1.17-.34c4.21 4.18 3.71 8.16 2.75 13.33q-.13.68-.82.72l-2.42.13q-.92.05-1.06-.86c-.48-3.13 3.14-4.89.21-8.16q-.75-.84-.5-1.94"></path><ellipse rx="1.7" ry="1.52" transform="rotate(61.4 2.697 34.698)"></ellipse><path d="M17.83 55.86l6.57-31.45a.65.65 0 01.71-.52l3.7.4a.65.65 0 01.56.78l-6.54 31.41a.65.65 0 01-.7.51l-3.73-.35a.65.65 0 01-.57-.78m21.75-31.39l6.61 31.44a.62.62 0 01-.56.75l-3.8.32a.62.62 0 01-.66-.49L34.6 25.04a.62.62 0 01.56-.75l3.76-.31a.62.62 0 01.66.49"></path></svg>