<svg data-v-ea210746="" xmlns="http://www.w3.org/2000/svg" viewBox="0 0 64 64" fill="#fff" class="ui-icon max-h-full w-full" style="fill: rgb(224, 50, 50); opacity: 1;"><path fill="#000" d="M29.405 56.074a14.63 14.63 0 01-20.69.108l-.682-.675a14.63 14.63 0 01-.108-20.69l26.63-26.91a14.63 14.63 0 0120.69-.11l.682.676a14.63 14.63 0 01.108 20.69zm24.437-46.39a12.4 12.4 0 00-17.536-.031L9.658 36.208a12.4 12.4 0 00-.03 17.536l.55.553a12.4 12.4 0 0017.536.03l26.648-26.555a12.4 12.4 0 00.03-17.536z"></path><path d="M54.393 10.236a12.4 12.4 0 01-.031 17.536L27.714 54.327a12.4 12.4 0 01-17.536-.03l-.55-.553a12.4 12.4 0 01.03-17.536L36.306 9.653a12.4 12.4 0 0117.536.03zM11.38 52.17c3.08 4.06 8.21.29 10.7-2.18q6.35-6.26 12.76-12.67a.52.51-47.5 00-.03-.76q-5.87-4.98-9.97-11.19a.35.35 0 00-.54-.05q-4.81 4.92-9.94 9.9c-5.41 5.24-8.1 10.22-2.98 16.95"></path><path fill="#000" d="M22.08 49.99c-2.49 2.47-7.62 6.24-10.7 2.18-5.12-6.73-2.43-11.71 2.98-16.95q5.13-4.98 9.94-9.9a.35.35 0 01.54.05q4.1 6.21 9.97 11.19a.52.51-47.5 01.03.76q-6.41 6.41-12.76 12.67"></path></svg>