<svg data-v-ea210746="" xmlns="http://www.w3.org/2000/svg" fill="#fff" viewBox="0 0 64 64" class="ui-icon max-h-full w-full" style="fill: rgb(93, 182, 229); opacity: 1;"><path fill="#000" d="M37.83 27.49q-.8-.85-.5.27 3.48 13.39 7.09 25.69.66 2.24-.93 3.99a1.07 1.06 32.7 01-1.21.26l-8.56-3.67a2.8 2.8 0 00-2.3.04q-4.1 1.93-8.07 3.2a2.28 2.28 0 01-2.89-2.77l6.8-24.78q.59-2.16-1.04-.62-1.65 1.57-3.22 3.41c-1.78 2.08-4.57 2.53-6.5.44-7.34-7.94-7.38-20.37.04-28.32 2.23-2.4 4.43-1.13 6.51.84q3.09 2.93 5.96 6.09.37.41.84.13c1.92-1.12 3.59-.33 5.63-.54q.54-.05.93-.43 3.29-3.21 6.88-6.41c2.58-2.31 5.55-.27 7.12 2.15 5.49 8.48 5.35 18.74-1.46 26.38-1.5 1.69-4.55 1.71-6.08.06q-2.61-2.82-5.04-5.41m-17.32 2.23c-5.7-6.56-5.82-15.02-.34-21.56q.88-1.06.01-2.12-.35-.44-1.05-.49a1.1 1.1 0 00-.92.39c-6.46 7.8-6.87 18.75.49 25.91a.99.98-46 001.4-.03l.37-.4q.79-.83.04-1.7M44.83 7.78c5.47 6.44 6.2 15.36.12 21.82q-.78.83-.23 1.83.33.61 1.27.57a1.14 1.12-67.3 00.76-.32c7.15-7.1 6.94-18.5.16-25.7q-.65-.69-1.51-.31-.6.27-.81 1.04a1.18 1.14 33.3 00.24 1.07m-2.37 18.39c3.82-5.14 3.86-11.85-.89-16.27q-.32-.3-.7-.07-.66.41-.9 1.25-.21.71.22 1.32c2.02 2.81 3.25 6.78 1.21 10.04q-.77 1.23-1.29 2.45-.54 1.28.79 1.75a1.38 1.37-61.6 001.56-.47m-18.29-2.93c-2.01-3.2-1.3-7.16.8-10.35q.69-1.04.14-2.17-.14-.29-.53-.33-.87-.07-1.41.61-6.26 7.92.12 15.78a1.1 1.09 62.8 001.13.37q.48-.13.81-.48.65-.69.15-1.5-.6-.96-1.21-1.93m13.88-4.43a5.4 5.4 0 00-5.4-5.4 5.4 5.4 0 00-5.4 5.4 5.4 5.4 0 005.4 5.4 5.4 5.4 0 005.4-5.4M22.83 54.43a.4.4 0 00.54.47l9.15-3.74a.4.4 0 01.3.01l8.85 3.77a.4.4 0 00.54-.48l-7.57-27.67a.4.4 0 00-.37-.29l-3.41-.15a.4.4 0 00-.4.3z"></path><path d="M20.17 8.16c-5.48 6.54-5.36 15 .34 21.56q.75.87-.04 1.7l-.37.4a.99.98-46 01-1.4.03c-7.36-7.16-6.95-18.11-.49-25.91a1.1 1.1 0 01.92-.39q.7.05 1.05.49.87 1.06-.01 2.12M44.95 29.6c6.08-6.46 5.35-15.38-.12-21.82a1.18 1.14 33.3 01-.24-1.07q.21-.77.81-1.04.86-.38 1.51.31c6.78 7.2 6.99 18.6-.16 25.7a1.14 1.12-67.3 01-.76.32q-.94.04-1.27-.57-.55-1 .23-1.83"></path><path d="M41.57 9.9c4.75 4.42 4.71 11.13.89 16.27a1.38 1.37-61.6 01-1.56.47q-1.33-.47-.79-1.75.52-1.22 1.29-2.45c2.04-3.26.81-7.23-1.21-10.04q-.43-.61-.22-1.32.24-.84.9-1.25.38-.23.7.07m-17.4 13.34q.61.97 1.21 1.93.5.81-.15 1.5-.33.35-.81.48a1.1 1.09 62.8 01-1.13.37q-6.38-7.86-.12-15.78.54-.68 1.41-.61.39.04.53.33.55 1.13-.14 2.17c-2.1 3.19-2.81 7.15-.8 10.35"></path><circle cx="32.65" cy="18.81" r="5.4"></circle><path d="M22.83 54.43l7.63-27.78a.4.4 0 01.4-.3l3.41.15a.4.4 0 01.37.29l7.57 27.67a.4.4 0 01-.54.48l-8.85-3.77a.4.4 0 00-.3-.01l-9.15 3.74a.4.4 0 01-.54-.47"></path></svg>