<svg data-v-ea210746="" xmlns="http://www.w3.org/2000/svg" fill="#fff" viewBox="0 0 64 64" class="ui-icon max-h-full w-full" style="opacity: 1;"><path fill="#000" d="M55 26.53l.01 26.97A2.01 2-.1 0153 55.51l-10.72.01a1.64 1.63 87.7 01-1.63-1.51q-.39-4.98-.1-10.1.23-4.08-1.19-6.66c-3.13-5.67-11.81-5.46-15.12.05q-1.43 2.39-1.3 6.64.18 5.71.04 10.53a1.03 1.03 0 01-1.02 1l-11.18.08a1.78 1.78 0 01-1.79-1.78l.02-27.13q0-.62-.62-.63l-4.25-.08a2.01 2.01 0 01-1.86-2.7q.37-1.02 1.19-1.83 6.46-6.48 12.28-12.27a2.18 2.15 22.2 011.53-.63l29.2.01a2.76 2.73-22.3 011.94.8l12.64 12.62a2.27 2.27 0 01-.54 3.61c-1.39.73-3.33.49-4.83.36q-.69-.06-.69.63M17.63 10.72a.47.47 0 00-.33.14L5.16 22.95a.47.47 0 00.33.8l53.04-.01a.47.47 0 00.33-.8L46.68 10.9a.47.47 0 00-.33-.14zm9.04 21.25c6.92-3.06 15.9.49 15.97 8.73q.05 5.66.16 12.3 0 .26.26.26l9.41.02a.27.27 0 00.27-.27l-.01-26.52q0-.5-.49-.5L11.51 26a.25.24 0 00-.25.24l-.01 26.78a.28.27-90 00.27.28l8.98-.03q.23 0 .23-.23.08-4.44-.05-9.56c-.11-4.79 1.49-9.52 5.99-11.51"></path><path d="M17.63 10.72l28.72.04a.47.47 0 01.33.14l12.18 12.04a.47.47 0 01-.33.8l-53.04.01a.47.47 0 01-.33-.8L17.3 10.86a.47.47 0 01.33-.14m9.04 21.25c-4.5 1.99-6.1 6.72-5.99 11.51q.13 5.12.05 9.56 0 .23-.23.23l-8.98.03a.28.27-90 01-.27-.28l.01-26.78a.25.24 0 01.25-.24l40.73-.01q.49 0 .49.5l.01 26.52a.27.27 0 01-.27.27l-9.41-.02q-.26 0-.26-.26-.11-6.64-.16-12.3c-.07-8.24-9.05-11.79-15.97-8.73"></path></svg>