<svg data-v-ea210746="" xmlns="http://www.w3.org/2000/svg" fill="#fff" viewBox="0 0 64 64" class="ui-icon max-h-full w-full" style="fill: rgb(224, 50, 50); opacity: 1;"><g fill="#000"><path d="M33.966 60.195a2.76 2.76 0 01-3.904 0L3.816 33.947a2.76 2.76 0 010-3.903l26.22-26.22a2.76 2.76 0 013.903 0l26.247 26.249a2.76 2.76 0 010 3.903zm-1.497-54.62a.52.52 0 00-.736 0L5.656 31.654a.52.52 0 000 .735l26.036 26.036a.52.52 0 00.735 0l26.079-26.078a.52.52 0 000-.736z"></path><path d="M37.51 23.34L37.5 33.4a.33.33 0 01-.33.33l-10.19-.03a.33.33 0 01-.33-.33l.09-9.99a.33.33 0 00-.33-.34l-5.33-.09a.33.33 0 01-.22-.56l11.02-10.93a.33.33 0 01.46 0l11 11a.33.33 0 01-.24.56l-5.26-.01a.33.33 0 00-.33.33"></path><rect width="28.72" height="6" x="17.69" y="36" rx=".45"></rect></g><path d="M58.505 31.611a.52.52 0 010 .735l-26.079 26.08a.52.52 0 01-.735 0L5.655 32.389a.52.52 0 010-.736L31.734 5.576a.52.52 0 01.735 0zM37.51 23.34a.33.33 0 01.33-.33l5.26.01a.33.33 0 00.24-.56l-11-11a.33.33 0 00-.46 0L20.86 22.39a.33.33 0 00.22.56l5.33.09a.33.33 0 01.33.34l-.09 9.99a.33.33 0 00.33.33l10.19.03a.33.33 0 00.33-.33zm8.9 13.11a.45.45 0 00-.45-.45H18.14a.45.45 0 00-.45.45v5.1a.45.45 0 00.45.45h27.82a.45.45 0 00.45-.45z"></path></svg>