<svg data-v-ea210746="" xmlns="http://www.w3.org/2000/svg" fill="#fff" viewBox="0 0 64 64" class="ui-icon max-h-full absolute left-1/2 top-1/2 -translate-x-1/2 -translate-y-1/2 z-[201] w-[70%]" style="opacity: 1;"><path fill="#000" d="M16.75 36.18q2.35-.05 3.04 2.51c.66 2.48 2.29 6.34 1.13 8.67a1.47 1.46 28.9 01-2.08.6q-6.72-4.13-9.59-9.82c-3.35-6.65-1.2-15.07 6.54-17.1 1.26-.34 2.62-.19 3.92-.27q.78-.04.76-.83c-.14-4.58 1.45-8.33 5.47-10.63 5.21-2.98 10.69-1.89 15.22 1.8 1.93 1.58 6.86 5.3 7.17 7.64a2.43 2.42-87.4 01-2.93 2.68q-3.52-.78-7.04-1.78-1.99-.56-1.93-2.74a1.24 1.24 0 00-.61-1.1q-4.08-2.41-7.16.93c-1.4 1.52-1.28 4.27.16 5.69q12.07 11.93 26.13 26.31c1.46 1.49 1.97 4.77-.09 6.49q-3.48 2.94-7.55-1.12Q34.63 41.48 22.53 29.4c-2.27-2.27-6.16-1.89-7.27 1.32q-.88 2.53.68 5.03.28.44.81.43m5.65-12.79q-8.12-1.78-11.33 4.24C7.56 34.21 13 40.44 17.74 44.45q1.58 1.34 1.04-.66l-1.08-3.95q-.12-.44-.5-.68-.51-.33-1.14-.37a1.57 1.52-22.5 01-.91-.36c-3.44-2.86-3.63-10.24 1.07-12.11q4.71-1.86 8.42 1.94 11.68 12.01 21.9 21.96 1.72 1.67 3.81 3.28c.97.75 2.18.72 3.06-.12a1.86 1.85 51.5 00.27-2.37q-1.04-1.57-2.36-2.86Q39.26 36.34 28.5 25.61c-2.01-2.02-3.8-4.77-2.97-7.77.95-3.46 4.44-5.97 8.11-5.2 2.04.43 5.61 1.24 5.49 3.97a.88.87-80.2 00.61.88l5.64 1.77a.43.42 21.8 00.52-.22q.19-.41-.1-.67c-5.07-4.59-10.29-10.87-17.85-7.48-5.09 2.29-5.67 6.8-4.78 11.76q.17.95-.77.74"></path><path d="M23.17 22.65c-.89-4.96-.31-9.47 4.78-11.76 7.56-3.39 12.78 2.89 17.85 7.48q.29.26.1.67a.43.42 21.8 01-.52.22l-5.64-1.77a.88.87-80.2 01-.61-.88c.12-2.73-3.45-3.54-5.49-3.97-3.67-.77-7.16 1.74-8.11 5.2-.83 3 .96 5.75 2.97 7.77q10.76 10.73 22.82 22.54 1.32 1.29 2.36 2.86a1.86 1.85 51.5 01-.27 2.37c-.88.84-2.09.87-3.06.12q-2.09-1.61-3.81-3.28-10.22-9.95-21.9-21.96-3.71-3.8-8.42-1.94c-4.7 1.87-4.51 9.25-1.07 12.11a1.57 1.52-22.5 00.91.36q.63.04 1.14.37.38.24.5.68l1.08 3.95q.54 2-1.04.66C13 40.44 7.56 34.21 11.07 27.63q3.21-6.02 11.33-4.24.94.21.77-.74"></path></svg>