<svg data-v-ea210746="" xmlns="http://www.w3.org/2000/svg" fill="#fff" viewBox="0 0 64 64" class="ui-icon max-h-full absolute left-1/2 top-1/2 -translate-x-1/2 -translate-y-1/2 z-[201] w-[70%]" style="opacity: 1;"><path fill="#000" d="M43.6 32.83q.01.21-.1.38-.18.29-.11.63l4.59 22.15q.63 3.04-2.47 3.02l-7.18-.03a2.67 2.67 0 01-2.54-1.9l-3.51-11.77q-.3-1-.6.01l-3.47 11.76a2.65 2.65 0 01-2.53 1.9l-7.17.03q-3.13.01-2.5-3.05 2.41-11.59 4.92-23.6.03-.14-.11-.17v-.01q-.14-.03-.19.11c-1.04 3.09-2.88 2.64-5.5 2.69q-2.62.05-5.04.02a2.21 2.2-78.8 01-2.02-3.02l8.75-22.25a3.6 3.58 2.1 012.28-2.11q3.03-.94 5.89-2.28c3.98-1.85 5.24 3.75 6.27 6.19a.81.8 45.2 001.48.01l2.22-5.16a2.41 2.4-68 013.05-1.3l7.4 2.77a2.95 2.94-.4 011.71 1.68l8.81 22.48a2.13 2.13 0 01-1.91 2.91q-4.41.16-8.09-.03-1.66-.09-2.18-2.08-.19-.75-.15.02M22.75 19.66q.2.26.2.59c.02 6.02.51 12.04-.87 18.18q-1.97 8.86-3.69 17.48-.21 1.08.89 1.08h5.41q1.22 0 1.56-1.17l5.12-17.62q.62-2.15 1.25 0l5.23 17.94q.24.83 1.11.83l5.95.02q.92 0 .74-.9-1.93-9.69-3.95-18.79c-1.17-5.24-.69-10.9-.62-16.22q.03-3.02 1-.15l3.96 11.75q.02.07.1.1 1.61.44 7.49.06.13-.01.08-.14l-8.63-21.95q-.22-.55-.77-.77L37.6 7.36a.61.61 0 00-.78.33l-2.46 5.79q-.22.52-.79.52l-3.12.02q-.57 0-.8-.52l-2.4-5.56a.86.85-21.8 00-1.08-.46l-6.2 2.32a2.02 1.99-.1 00-1.17 1.16q-4.13 10.59-8.51 21.75-.04.1.08.11 4.42.37 7.32.05.21-.02.27-.22l4.33-12.92a.26.26 0 01.46-.07"></path><path d="M22.75 19.66a.26.26 0 00-.46.07l-4.33 12.92q-.06.2-.27.22-2.9.32-7.32-.05-.12-.01-.08-.11 4.38-11.16 8.51-21.75a2.02 1.99-.1 011.17-1.16l6.2-2.32a.86.85-21.8 011.08.46l2.4 5.56q.23.52.8.52l3.12-.02q.57 0 .79-.52l2.46-5.79a.61.61 0 01.78-.33l6.71 2.62q.55.22.77.77l8.63 21.95q.05.13-.08.14-5.88.38-7.49-.06-.08-.03-.1-.1l-3.96-11.75q-.97-2.87-1 .15c-.07 5.32-.55 10.98.62 16.22q2.02 9.1 3.95 18.79.18.9-.74.9l-5.95-.02q-.87 0-1.11-.83L32.62 38.2q-.63-2.15-1.25 0l-5.12 17.62q-.34 1.17-1.56 1.17h-5.41q-1.1 0-.89-1.08 1.72-8.62 3.69-17.48c1.38-6.14.89-12.16.87-18.18q0-.33-.2-.59"></path></svg>