<svg data-v-ea210746="" xmlns="http://www.w3.org/2000/svg" fill="#fff" viewBox="0 0 64 64" class="ui-icon max-h-full w-full" style="fill: rgb(114, 204, 114); opacity: 1;"><g fill="#000"><path d="M59.892 29.838a3.16 3.16 0 01-.008 4.47L34.2 59.901a3.16 3.16 0 01-4.469-.008L4.108 34.182a3.16 3.16 0 01.008-4.47L29.8 4.119a3.16 3.16 0 014.469.008zm-1.595 2.725a.82.82 0 000-1.16l-25.71-25.71a.82.82 0 00-1.16 0L5.703 31.417a.82.82 0 000 1.16l25.71 25.71a.82.82 0 001.16 0z"></path><path d="M25.49 37.39l.03-16.59a.36.36 0 01.36-.36l12.23.13a.36.36 0 01.36.36l.01 16.37a.36.36 0 00.36.36l6.38.08a.36.36 0 01.25.61L32.26 51.58a.36.36 0 01-.5.01L18.43 38.26a.36.36 0 01.26-.61l6.43.1a.36.36 0 00.37-.36"></path></g><path d="M32.573 58.287a.82.82 0 01-1.16 0l-25.71-25.71a.82.82 0 010-1.16L31.427 5.693a.82.82 0 011.16 0l25.71 25.71a.82.82 0 010 1.16zM25.49 37.39a.36.36 0 01-.37.36l-6.43-.1a.36.36 0 00-.26.61l13.33 13.33a.36.36 0 00.5-.01l13.21-13.23a.36.36 0 00-.25-.61l-6.38-.08a.36.36 0 01-.36-.36l-.01-16.37a.36.36 0 00-.36-.36l-12.23-.13a.36.36 0 00-.36.36z"></path></svg>