<svg data-v-ea210746="" xmlns="http://www.w3.org/2000/svg" fill="#fff" viewBox="0 0 64 64" class="ui-icon max-h-full absolute left-1/2 top-1/2 -translate-x-1/2 -translate-y-1/2 z-[201] w-[70%]" style="opacity: 1;"><g fill="#000"><path d="M19.23 31.42q-3.26-2.41-1.74-6.35.33-.84.6-1.69.97-3.08 2.02-6.51c.64-2.12 2.42-3.97 4.72-3.93q7.18.12 14.43.05a4.34 4.33-8.8 014.19 3.06q1.49 4.87 3.01 9.36c.75 2.23.44 4.05-1.36 5.47q-1.44 1.14.4 1.14l9.49-.02a3.79 3.79 0 013.56 2.45q2 5.33 3.35 10.5c.85 3.26-1.17 6.04-4.57 6.03q-10.79-.05-20.31-.01a4.65 4.65 0 01-4.39-6.23q1.49-4.13 2.88-8.99.53-1.84 2.01-2.89 1.22-.87-.28-.87L26.27 32q-1 0-.21.61c.9.71 1.69 1.48 2.04 2.59q1.36 4.3 2.87 8.71.92 2.68-.54 5.22-.93 1.61-3.15 1.65-9.33.16-20.54.22c-4.2.02-5.81-3.24-4.65-6.91q1.63-5.18 3.21-9.66A3.64 3.63 9.5 018.72 32h10.32q.96 0 .19-.58m5.85-16.16a2.34 2.34 0 00-2.23 1.59l-3.28 9.77a2.34 2.34 0 002.22 3.09l20.31-.01a2.34 2.34 0 002.22-3.09l-3.28-9.71a2.34 2.34 0 00-2.21-1.6zm1.7 33.24a2.23 2.23 0 002.12-2.92l-3.18-9.76a2.23 2.23 0 00-2.12-1.54l-14.09.01a2.23 2.23 0 00-2.12 1.54L4.2 45.58a2.23 2.23 0 002.12 2.92zm30.7 0a2.29 2.29 0 002.17-3.01l-3.2-9.65a2.29 2.29 0 00-2.17-1.57l-13.92-.02a2.29 2.29 0 00-2.18 1.56l-3.25 9.68a2.29 2.29 0 002.17 3.02z"></path><path d="M28.1 18.62c-2.62-.34-3.18 1.4-3.67 3.47q-.19.76-.96.64l-.32-.05q-.78-.11-.71-.9.61-6.91 7.45-4.89 1.12.34.2 1.06l-.21.17q-.79.63-1.78.5M14.34 37.33c-2.94-.4-4.99.46-5.28 3.74a.92.92 0 01-1.04.82l-.41-.06a.54.53 2.8 01-.45-.49c-.16-2.26.96-5.87 3.78-5.97q1.55-.05 3.04.15.86.12.93.98l.03.27a.53.53 0 01-.6.56m30.09-.04c-3.2.07-3.74.38-4.56 3.51a1.13 1.13 0 01-1.13.84h-.26a.54.53 1.6 01-.52-.54q.14-7.19 7.2-5.56a.75.75 0 01.44 1.16c-.25.35-.75.57-1.17.59"></path></g><path d="M25.08 15.26l13.75.04a2.34 2.34 0 012.21 1.6l3.28 9.71a2.34 2.34 0 01-2.22 3.09l-20.31.01a2.34 2.34 0 01-2.22-3.09l3.28-9.77a2.34 2.34 0 012.23-1.59m-.65 6.83c.49-2.07 1.05-3.81 3.67-3.47q.99.13 1.78-.5l.21-.17q.92-.72-.2-1.06-6.84-2.02-7.45 4.89-.07.79.71.9l.32.05q.77.12.96-.64m2.35 26.41H6.32a2.23 2.23 0 01-2.12-2.92l3.19-9.75a2.23 2.23 0 012.12-1.54l14.09-.01a2.23 2.23 0 012.12 1.54l3.18 9.76a2.23 2.23 0 01-2.12 2.92M9.06 41.07c.29-3.28 2.34-4.14 5.28-3.74a.53.53 0 00.6-.56l-.03-.27q-.07-.86-.93-.98-1.49-.2-3.04-.15c-2.82.1-3.94 3.71-3.78 5.97a.54.53 2.8 00.45.49l.41.06a.92.92 0 001.04-.82m48.42 7.43l-20.38.01a2.29 2.29 0 01-2.17-3.02l3.25-9.68a2.29 2.29 0 012.18-1.56l13.92.02a2.29 2.29 0 012.17 1.57l3.2 9.65a2.29 2.29 0 01-2.17 3.01m-17.61-7.7c.82-3.13 1.36-3.44 4.56-3.51.42-.02.92-.24 1.17-.59a.75.75 0 00-.44-1.16q-7.06-1.63-7.2 5.56a.54.53 1.6 00.52.54h.26a1.13 1.13 0 001.13-.84"></path></svg>