<svg data-v-ea210746="" xmlns="http://www.w3.org/2000/svg" fill="#fff" viewBox="0 0 64 64" class="ui-icon max-h-full w-full" style="opacity: 1;"><g fill="#000"><path d="M8.48 46.77q-1.25.09-2.09-.83-.38-.42-.38-.98 0-12.34-.32-25.17-.1-4.24 3-8.15C16.76 1.48 31.86.14 43.5 3.59c7.2 2.14 15.14 8.71 14.85 17.03q-.41 11.77-.36 24.01c.01 1.39-1.1 2.24-2.44 2.14q-.61-.05-.88.5-2.32 4.73-1.93 9.54c.42 5.1-3.68 5.76-7.61 5.01-3.28-.63-2.96-4.25-2.88-6.79a.75.75 0 00-.75-.78H22.97q-1.55 0-1.3 1.54.66 4.07-1.71 5.65c-1.47.98-3.11.44-4.76.59-2.71.25-4.15-2.95-3.95-5.22q.43-4.9-1.96-9.59-.26-.49-.81-.45m45.27-24.3l-.04 9.48q0 .66-.56 1.01-.62.39-1.37.41a.63.63 0 00-.61.67l.23 3.68a1.24 1.19 21.1 00.37.79q2.45 2.29 2.95 5.9.04.31.35.26l.24-.05a.55.55 0 00.45-.54c-.06-5.54-.13-11.2.16-16.81q.16-2.96.18-6.48.02-3.62-1.53-6.1C47.53 3.47 30.85 2.19 19.98 6.23Q12.3 9.09 8.69 16.01c-.39.74-.81 2.18-.79 2.99q.31 12.02.45 25.05 0 .34.47.51a.49.49 0 00.67-.43q.18-3.44 2.55-5.36.56-.46.6-1.18l.18-3.5a.66.65 5.8 00-.56-.68c-1.14-.17-1.76-1.18-1.79-2.28q-.08-4.15.05-8.2.06-1.94 1.99-1.88 1.29.04 1.52-1.23c.71-3.99 4.59-3.96 7.7-4q10.2-.11 20.66-.07c3.68.02 6.94.51 7.79 4.52a.92.91-1.4 00.75.71l1.79.28a1.21 1.21 0 011.03 1.21m-4.52 8.74l1.59.1q.68.05.68-.63v-6.84q0-.66-.66-.62l-2.06.11q-.72.04-.71-.68c.04-2.1-.5-4.21-3.04-4.33q-1.23-.06-2.54-.12-9.75-.38-19.2-.14-2.52.07-5.36.46-.57.08-.92.54-1.15 1.52-1.06 3.43a.81.81 0 01-.86.84l-1.54-.11q-.79-.05-.79.73l-.06 6.54a.78.78 0 00.79.79h1.26a.51.5 88.3 01.51.49q.1 3.79-.55 7.31-.09.47-.47.77-4.02 3.18-1.88 8.78 1.57 4.12 1.11 8.8-.19 1.95 1.76 2.22 1.34.18 2.78 0 1.48-.19 1.48-1.68l.02-5.33q0-.61.6-.61l23.78.02q.6 0 .6.59l.01 5.26q0 1.9 1.9 1.85l2.33-.06q1.76-.05 1.76-1.81 0-1.85-.06-3.67c-.08-2.47.84-4.31 1.48-6.57q1.43-5.06-2.27-7.85-.48-.36-.52-.96l-.46-7.05q-.04-.62.57-.57"></path><path d="M19.35 21.59l25.84-.03a1.28 1.28 0 011.27 1.12l.9 7.08a1.28 1.28 0 01-1.27 1.44l-27.58-.01a1.28 1.28 0 01-1.27-1.43l.84-7.04a1.28 1.28 0 011.27-1.13"></path><rect width="18.44" height="9.3" x="23.29" y="40" rx=".51"></rect><rect width="5.62" height="6.22" x="-2.81" y="-3.11" rx=".46" transform="rotate(-.1 26004.349 -10588.49)"></rect><rect width="5.4" height="6.22" x="-2.7" y="-3.11" rx=".56" transform="rotate(.5 -5176.992 5325.954)"></rect></g><path d="M52.72 21.26l-1.79-.28a.92.91-1.4 01-.75-.71c-.85-4.01-4.11-4.5-7.79-4.52q-10.46-.04-20.66.07c-3.11.04-6.99.01-7.7 4q-.23 1.27-1.52 1.23-1.93-.06-1.99 1.88-.13 4.05-.05 8.2c.03 1.1.65 2.11 1.79 2.28a.66.65 5.8 01.56.68l-.18 3.5q-.04.72-.6 1.18-2.37 1.92-2.55 5.36a.49.49 0 01-.67.43q-.47-.17-.47-.51Q8.21 31.02 7.9 19c-.02-.81.4-2.25.79-2.99q3.61-6.92 11.29-9.78c10.87-4.04 27.55-2.76 34.59 8.46q1.55 2.48 1.53 6.1-.02 3.52-.18 6.48c-.29 5.61-.22 11.27-.16 16.81a.55.55 0 01-.45.54l-.24.05q-.31.05-.35-.26-.5-3.61-2.95-5.9a1.24 1.19 21.1 01-.37-.79l-.23-3.68a.63.63 0 01.61-.67q.75-.02 1.37-.41.56-.35.56-1.01l.04-9.48a1.21 1.21 0 00-1.03-1.21"></path><path d="M48.66 31.78l.46 7.05q.04.6.52.96 3.7 2.79 2.27 7.85c-.64 2.26-1.56 4.1-1.48 6.57q.06 1.82.06 3.67 0 1.76-1.76 1.81l-2.33.06q-1.9.05-1.9-1.85l-.01-5.26q0-.59-.6-.59l-23.78-.02q-.6 0-.6.61l-.02 5.33q0 1.49-1.48 1.68-1.44.18-2.78 0-1.95-.27-1.76-2.22.46-4.68-1.11-8.8-2.14-5.6 1.88-8.78.38-.3.47-.77.65-3.52.55-7.31a.51.5 88.3 00-.51-.49h-1.26a.78.78 0 01-.79-.79l.06-6.54q0-.78.79-.73l1.54.11a.81.81 0 00.86-.84q-.09-1.91 1.06-3.43.35-.46.92-.54 2.84-.39 5.36-.46 9.45-.24 19.2.14 1.31.06 2.54.12c2.54.12 3.08 2.23 3.04 4.33q-.01.72.71.68l2.06-.11q.66-.04.66.62v6.84q0 .68-.68.63l-1.59-.1q-.61-.05-.57.57M19.35 21.59a1.28 1.28 0 00-1.27 1.13l-.84 7.04a1.28 1.28 0 001.27 1.43l27.58.01a1.28 1.28 0 001.27-1.44l-.9-7.08a1.28 1.28 0 00-1.27-1.12zm22.38 18.92a.51.51 0 00-.51-.51H23.8a.51.51 0 00-.51.51v8.28a.51.51 0 00.51.51h17.42a.51.51 0 00.51-.51zm-20.405 2.205a.46.46 0 00-.46-.46l-4.7.01a.46.46 0 00-.46.46l.01 5.3a.46.46 0 00.46.46l4.7-.01a.46.46 0 00.46-.46zm27.677.139a.56.56 0 00-.555-.565l-4.28-.038a.56.56 0 00-.565.556l-.044 5.1a.56.56 0 00.555.564l4.28.038a.56.56 0 00.565-.556z"></path></svg>