<svg data-v-ea210746="" xmlns="http://www.w3.org/2000/svg" fill="#fff" viewBox="0 0 64 64" class="ui-icon max-h-full w-full" style="opacity: 1;"><path fill="#000" d="M33.3 21.4q3.53-1.91 7.45-3.37a2.28 2.28 0 012.93 2.95q-1.48 3.87-3.62 7.77-.8 1.45.62.6 4-2.41 8.18-3.61a2.05 2.05 0 012.53 2.57c-1.73 5.67-4.93 10.77-9.38 14.96q-3.45 3.24-6.51 6.53a.9.9 0 01-1.29.03L12.22 27.8a.77.76-46.4 01-.02-1.07q4.3-4.6 8.99-9.04 4.85-4.58 12.11-6.91c1.91-.61 3.77.79 2.95 2.89q-1.57 4-3.36 7.32-.48.89.41.41m-17.47 7.07l2.73 2.7a1.51 1.51 0 002.14-.02l3.84-3.89a16.3 3.32-45.4 009.08-13.94l-.16-.16a16.3 3.32-45.4 00-13.8 9.28l-3.85 3.89a1.51 1.51 0 00.02 2.14m7.22 7.21l3.14 3.1a1.21 1.21 0 001.72-.01l4.13-4.19a15.8 3.3-45.4 008.75-13.57l-.18-.17a15.8 3.3-45.4 00-13.44 8.94l-4.14 4.19a1.21 1.21 0 00.02 1.71m7.64 7.65l3.08 3.05a1.36 1.36 0 001.93-.01l2.3-2.32a18.71 3.38-45.3 0010.76-15.68l-.22-.21a18.71 3.38-45.3 00-15.56 10.92l-2.3 2.33a1.36 1.36 0 00.01 1.92"></path><path d="M15.83 28.47a1.51 1.51 0 01-.02-2.14l3.85-3.89a16.3 3.32-45.4 0113.8-9.28l.16.16a16.3 3.32-45.4 01-9.08 13.94l-3.84 3.89a1.51 1.51 0 01-2.14.02zm7.22 7.21a1.21 1.21 0 01-.02-1.71l4.14-4.19a15.8 3.3-45.4 0113.44-8.94l.18.17a15.8 3.3-45.4 01-8.75 13.57l-4.13 4.19a1.21 1.21 0 01-1.72.01zm7.64 7.65a1.36 1.36 0 01-.01-1.92l2.3-2.33a18.71 3.38-45.3 0115.56-10.92l.22.21A18.71 3.38-45.3 0138 44.05l-2.3 2.32a1.36 1.36 0 01-1.93.01z"></path></svg>