<svg data-v-ea210746="" viewBox="0 0 260 68" xmlns="http://www.w3.org/2000/svg" fill="#7d7e7d" class="ui-icon max-h-full w-full" style="fill: rgb(224, 50, 50); opacity: 1;"><path fill="#000" d="M1.26 4.26c.24-2.1 2.94-2.23 4.58-1.97 10.03 1.34 19.98 3.77 30.15 3.76 62-.02 124.01 0 186.01-.01 7.57-.03 15.26.27 22.57 2.43 5.15 1.45 9.87 5.38 11.17 10.72 1.81 8.53-1.11 17.44-6.39 24.19-8.05 10.09-19.54 16.84-31.48 21.35-3.23 1.05-7.59 3.11-9.84-.7 2.13-3.81 5.87-6.15 9.12-8.89 8.12-6.82 16.82-13.53 22.02-23.02 1.07-1.85 1.03-4.04 1.24-6.1-4.1-2.23-8.76-3.07-13.38-3.12-59.34-.06-118.69-.02-178.03-.03-5.37-.05-10.79.33-16.09-.74-9.81-1.84-19.02-6.22-27.19-11.87-1.87-1.56-4.93-3.13-4.46-6m4.5 1.59c3.92 3.87 8.98 6.23 13.89 8.58 6.63 3.17 13.91 5.18 21.3 5.17 58.61.01 117.22-.04 175.83.03.18-3.43.19-6.86.04-10.28-60.6-.07-121.2.02-181.79-.05-9.88-.06-19.48-2.63-29.27-3.45m213.56 3.44c-.07 3.44-.13 6.89-.11 10.34 6.64.02 13.61-.43 19.87 2.24 2.35 1.04 5.06 3.1 4.55 6.01-.74 7.26-6.17 12.76-11 17.75-5.98 6.34-13.14 11.36-19.53 17.25 8.53-2.61 16.58-6.77 23.8-12 7.61-5.59 14.4-13.44 15.92-23.04.8-5.22-.02-11.75-5.16-14.5-8.71-4.4-18.84-3.94-28.34-4.05z"></path><path d="M5.76 5.85c9.79.82 19.39 3.39 29.27 3.45 60.59.07 121.19-.02 181.79.05.15 3.42.14 6.85-.04 10.28-58.61-.07-117.22-.02-175.83-.03-7.39.01-14.67-2-21.3-5.17-4.91-2.35-9.97-4.71-13.89-8.58m204.9 9.85c-4.18.66-8.45.18-12.66.27-43.34.03-86.67-.08-130.01.05v1.96c46.68.16 93.37-.01 140.06.09 3.12.33 5.83-1.29 8.08-3.28-.01-1.36-.02-2.72-.02-4.08-1.9 1.57-3.09 4.05-5.45 4.99zm8.66-6.41c9.5.11 19.63-.35 28.34 4.05 5.14 2.75 5.96 9.28 5.16 14.5-1.52 9.6-8.31 17.45-15.92 23.04-7.22 5.23-15.27 9.39-23.8 12 6.39-5.89 13.55-10.91 19.53-17.25 4.83-4.99 10.26-10.49 11-17.75.51-2.91-2.2-4.97-4.55-6.01-6.26-2.67-13.23-2.22-19.87-2.24-.02-3.45.04-6.9.11-10.34m1.66 6.73c0 .49.01 1.47.01 1.96 5.68.27 11.35-.03 17.03.08 3.74.06 6.83 2.44 9.99 4.14.98 8.5-5.33 15.1-9.18 22 5.63-1.67 7.42-7.83 9.88-12.48 1.84-3.22 1.34-7 1.3-10.54-3.46-2.64-7.42-5.32-11.96-5.23-5.69-.08-11.38 0-17.07.07z"></path><path d="M210.66 15.7c2.36-.94 3.55-3.42 5.45-4.99 0 1.36.01 2.72.02 4.08-2.25 1.99-4.96 3.61-8.08 3.28-46.69-.1-93.38.07-140.06-.09v-1.96c43.34-.13 86.67-.02 130.01-.05 4.21-.09 8.48.39 12.66-.27zm10.32.32c5.69-.07 11.38-.15 17.07-.07 4.54-.09 8.5 2.59 11.96 5.23.04 3.54.54 7.32-1.3 10.54-2.46 4.65-4.25 10.81-9.88 12.48 3.85-6.9 10.16-13.5 9.18-22-3.16-1.7-6.25-4.08-9.99-4.14-5.68-.11-11.35.19-17.03-.08 0-.49-.01-1.47-.01-1.96z" fill="#eeefee"></path></svg>