<svg xmlns="http://www.w3.org/2000/svg" fill="#fff" viewBox="0 0 64 64" class="ui-icon max-h-full w-full" style="fill: rgb(156, 110, 175); opacity: 1;"><g fill="#000"><path d="M57.38 54.24a2.07 2.07 0 01-2.07 2.07H8.07A2.07 2.07 0 016 54.24V6.6a2.07 2.07 0 012.07-2.07h47.24a2.07 2.07 0 012.07 2.07zM55.04 7.55a.57.57 0 00-.57-.57H8.79a.57.57 0 00-.57.57v4.38a.57.57 0 00.57.57h45.68a.57.57 0 00.57-.57zm-41.32 7.67a.59.59 0 00-.59-.59H8.85a.59.59 0 00-.59.59v29.94a.59.59 0 00.59.59h4.28a.59.59 0 00.59-.59zm7.35 4.61q-.78 3.7-4.2 2.49a.67.67 0 00-.89.64l.01 4.29q.01.75.76.75l9.76.04q1.35 0 .66 1.16l-.75 1.24a1.68 1.67-74.5 01-1.44.82h-8.5q-.5 0-.5.51v4.47q0 .51.51.51l8.01-.02q.76 0 .76.77l-.02 1.65q-.01.87-.89.87l-7.84-.05q-.51 0-.51.52l-.02 4.46q0 .59.59.56c5.77-.34 11.2.58 16.91.27q6.82-.38 13.42-.38.39 0 .39-.39l.04-4.71q0-.28-.28-.28H37.5q-.77 0-.78-.77l-.02-1.73q-.01-.8.78-.79l9.49.06q.28.01.28-.27l.01-5.06q0-.3-.3-.29l-5.5.16q-.64.02-.4-.57 1.43-3.65 5.46-2.78a.68.68 0 00.83-.67l-.09-4.37a.61.6 83 00-.73-.58q-1.05.22-2.16.11a1.37 1.37 0 01-1.18-.94l-.52-1.51a.59.58-8.2 01.58-.77l3.42.14a.57.57 0 00.59-.57l.03-3.63q0-.6-.6-.6l-30.15.05a.56.56 0 00-.56.57l.02 3.46q.01.66.67.65l3.9-.09q.63-.02.5.6m33.914-4.855a.41.41 0 00-.411-.41l-4.68.01a.41.41 0 00-.41.41l.053 30.34a.41.41 0 00.411.41l4.68-.01a.41.41 0 00.41-.41zM55 48.26a.5.5 0 00-.5-.5H8.76a.5.5 0 00-.5.5v4.8a.5.5 0 00.5.5H54.5a.5.5 0 00.5-.5z"></path><path d="M28.97 24.47l-.33.78q-.34.80-1.2.71l-4.92-.55q-.63-.07-.52-.70.82-4.59 3.99-6.18c3.71-1.87 10.73-2.21 13.79 1.69 4.06 5.17-.22 8.62-4.04 11.63a2.58 2.56 77.9 00-.91 1.42l-.33 1.38q-.12.50-.64.48l-5.42-.12a.68.68 0 01-.66-.69c.08-3.75 3.84-5.98 5.92-8.67q.64-.83.43-1.71-.45-1.81-2.94-1.30a3.08 3.06 5.3 00-2.22 1.83"></path><rect width="6.94" height="6.02" x="-3.47" y="-3.01" rx=".78" transform="rotate(1 -2305.503 1795.233)"></rect></g><rect width="46.82" height="5.52" x="8.22" y="6.98" rx=".57"></rect><rect width="5.46" height="31.12" x="8.26" y="14.63" rx=".59"></rect><path d="M20.57 19.23l-3.9.09q-.66.01-.67-.65l-.02-3.46a.56.56 0 01.56-.57l30.15-.05q.60 0 .60.60l-.03 3.63a.57.57 0 01-.59.57l-3.42-.14a.59.58-8.2 00-.58.77l.52 1.51a1.37 1.37 0 001.18.94q1.11.11 2.16-.11a.61.6 83 01.73.58l.09 4.37a.68.68 0 01-.83.67q-4.03-.87-5.46 2.78-.24.59.40.57l5.50-.16q.30-.01.30.29l-.01 5.06q0 .28-.28.27l-9.49-.06q-.79-.01-.78.79l.02 1.73q.01.77.78.77h9.55q.28 0 .28.28l-.04 4.71q0 .39-.39.39-6.60 0-13.42.38c-5.71.31-11.14-.61-16.91-.27q-.59.03-.59-.56l.02-4.46q0-.52.51-.52l7.84.05q.88 0 .89-.87l.02-1.65q0-.77-.76-.77l-8.01.02q-.51 0-.51-.51v-4.47q0-.51.50-.51h8.50a1.68 1.67-74.5 001.44-.82l.75-1.24q.69-1.16-.66-1.16L16.75 28q-.75 0-.76-.75l-.01-4.29a.67.67 0 01.89-.64q3.42 1.21 4.20-2.49.13-.62-.50-.60m8.40 5.24a3.08 3.06 5.3 012.22-1.83q2.49-.51 2.94 1.30.21.88-.43 1.71c-2.08 2.69-5.84 4.92-5.92 8.67a.68.68 0 00.66.69l5.42.12q.52.02.64-.48l.33-1.38a2.58 2.56 77.9 01.91-1.42c3.82-3.01 8.10-6.46 4.04-11.63-3.06-3.90-10.08-3.56-13.79-1.69q-3.17 1.59-3.99 6.18-.11.63.52.70l4.92.55q.86.09 1.20-.71zm5.518 13.87a.78.78 0 00-.766-.793l-5.38-.093a.78.78 0 00-.793.766l-.077 4.46a.78.78 0 00.766.793l5.38.093a.78.78 0 00.793-.766z"></path><rect width="5.50" height="31.16" x="-2.75" y="-15.58" rx=".41" transform="rotate(-.1 17300.803 -29927.692)"></rect><rect width="46.74" height="5.80" x="8.26" y="47.76" rx=".50"></rect></svg>