<svg data-v-ea210746="" xmlns="http://www.w3.org/2000/svg" fill="#fff" viewBox="0 0 64 64" class="ui-icon max-h-full w-full" style="opacity: 1;"><path fill="#000" d="M38.34 13.24q5.17-.05 10.3-.02c4.26.02 6.12 2.6 6.57 6.4q.75 6.28 1.61 11.62a.74.72-84.4 00.45.56c4.95 1.87 4.03 6.69 3.99 10.91-.02 1.9-.7 3.7-2.44 4.64q-.92.51-.85 1.57c.41 6.28-.33 10.2-7.04 10.15-5.81-.04-6.56-5.21-6.04-9.7a.77.76 3.3 00-.77-.85l-9.58.01a1.41 1.4-76.5 00-1.25.77q-2 3.94-4.12 7.91-.79 1.47-2.68 1.21a1.74 1.73-80.4 01-1.46-2.07l1.35-6.57q.25-1.21-.98-1.22l-4.99-.06q-1.32-.02-1.21 1.3c.27 3.39 0 7.06-3.41 8.74-1.49.73-4.87.69-6.4.06q-1.67-.67-2.73-2.45c-1.16-1.95-.61-5.32-.7-7.73a1.04 1.02 14.6 00-.51-.85q-2.46-1.42-2.63-4.1-.21-3.51.01-6.81.24-3.48 3.7-4.74.51-.19.6-.73 1-5.76 1.79-12.46.16-1.35.81-2.5c2.3-4.03 7-2.96 10.77-2.98q.6 0 .71-.59l1.1-5.92a2.33 2.33 0 012.29-1.9q6.74.01 13.1-.05 2.01-.02 2.13 1.99c.1 1.79-1.3 4.07-1.98 5.75q-.29.72.49.71m-7.47 10.95a.34.34 0 01-.31-.47L37.39 7.5a.34.34 0 00-.31-.47l-12.29.01a.34.34 0 00-.34.29l-4.3 26.59a.34.34 0 00.35.39l11.34-.15a.34.34 0 01.34.41l-4.17 18.56a.34.34 0 00.64.23l14.83-28.57a.34.34 0 00-.29-.49zM17.63 46.26l8.33.01q1.26.01 1.52-1.23L29 37.76q.26-1.23-.99-1.24l-8.28-.07a1.83 1.83 0 01-1.81-1.97l.28-3.54q.05-.57-.52-.52l-2.76.22a1 .99 2.7 01-1.06-1.16q.71-4.06 1.21-7.78.4-3.06 3.6-2.68 1.62.2 1.87-1.41l.1-.62q.26-1.65-1.41-1.55c-2.91.19-7.37-.91-7.95 3.42q-.93 7.08-2.03 14.06a.86.85-5.3 01-.56.67l-1.85.65q-.55.19-.87.67c-1.53 2.32-1.08 6.08-.95 8.7a1.74 1.72-65.9 00.37.98q.87 1.11 2.12 1.42.75.18.75.95l-.01 5.91q0 3.87 3.87 3.87h1.06q3.67 0 3.73-3.67l.1-6.2q.01-.61.62-.61m36.95-13.37q-.74-7.48-2.07-14.65a3.37 3.36-5.2 00-3.31-2.75l-11.68.01q-.75 0-1.1.67l-1.09 2.03q-.44.82.49.81L46.21 19a2.62 2.62 0 012.59 2.21l1.23 7.86a1.27 1.26 86.4 01-1.28 1.46l-4.83-.11a1.05 1.04 14.4 00-.96.56l-7.68 14.55a.53.53 0 00.47.78l10.48-.07q.75-.01.77.74l.09 6.09q.06 3.66 3.72 3.66l1.08.01q3.87 0 3.87-3.88l-.02-6.12q0-.69.69-.79c1.5-.22 2.58-1.47 2.62-3.01.06-3.39.94-8.67-3.7-9.26q-.7-.09-.77-.79"></path><path d="M30.87 24.19l12.32.11a.34.34 0 01.29.49L28.65 53.36a.34.34 0 01-.64-.23l4.17-18.56a.34.34 0 00-.34-.41l-11.34.15a.34.34 0 01-.35-.39l4.3-26.59a.34.34 0 01.34-.29l12.29-.01a.34.34 0 01.31.47l-6.83 16.22a.34.34 0 00.31.47"></path><path d="M17.01 46.87l-.1 6.2q-.06 3.67-3.73 3.67h-1.06q-3.87 0-3.87-3.87l.01-5.91q0-.77-.75-.95-1.25-.31-2.12-1.42a1.74 1.72-65.9 01-.37-.98c-.13-2.62-.58-6.38.95-8.7q.32-.48.87-.67l1.85-.65a.86.85-5.3 00.56-.67q1.1-6.98 2.03-14.06c.58-4.33 5.04-3.23 7.95-3.42q1.67-.1 1.41 1.55l-.1.62q-.25 1.61-1.87 1.41-3.2-.38-3.6 2.68-.5 3.72-1.21 7.78a1 .99 2.7 001.06 1.16l2.76-.22q.57-.05.52.52l-.28 3.54a1.83 1.83 0 001.81 1.97l8.28.07q1.25.01.99 1.24l-1.52 7.28q-.26 1.24-1.52 1.23l-8.33-.01q-.61 0-.62.61m38.34-13.19c4.64.59 3.76 5.87 3.7 9.26-.04 1.54-1.12 2.79-2.62 3.01q-.69.1-.69.79l.02 6.12q0 3.88-3.87 3.88l-1.08-.01q-3.66 0-3.72-3.66L47 46.98q-.02-.75-.77-.74l-10.48.07a.53.53 0 01-.47-.78l7.68-14.55a1.05 1.04 14.4 01.96-.56l4.83.11a1.27 1.26 86.4 001.28-1.46l-1.23-7.86A2.62 2.62 0 0046.21 19l-10.39.01q-.93.01-.49-.81l1.09-2.03q.35-.67 1.1-.67l11.68-.01a3.37 3.36-5.2 013.31 2.75q1.33 7.17 2.07 14.65.07.7.77.79"></path></svg>