<svg data-v-ea210746="" xmlns="http://www.w3.org/2000/svg" fill="#fff" viewBox="0 0 64 64" class="ui-icon max-h-full w-full" style="opacity: 1;"><g fill="#000"><path d="M58.25 47.7a1.29 1.29 0 01-1.29 1.29H7.02a1.29 1.29 0 01-1.29-1.29V16.3a1.29 1.29 0 011.29-1.29h49.94a1.29 1.29 0 011.29 1.29zm-2.01-30.17a.56.56 0 00-.56-.56H8.3a.56.56 0 00-.56.56v28.92a.56.56 0 00.56.56h47.38a.56.56 0 00.56-.56z"></path><path d="M47.5 35.19l.01 2.93q0 1.51-1.27 2.33-.37.23-.75.14-1.48-.36-1.48-1.88L44 35.2q0-.55-.55-.6l-1.44-.12q-.69-.06-.71.64c-.05 1.77.59 5.07-1.85 5.52a1.43 1.43 0 01-1.69-1.36l-.13-4.24q-.02-.57-.59-.57l-7.15-.03q-.64 0-.91.58-1.83 3.94-6.23 4.85-5.24 1.09-8.57-3.84c-4-5.93 1.06-12.8 7.59-12.75 3.67.02 5.55 2.42 7.36 5.23q.3.47.86.47h18.96a2.43 2.42 79.7 012.27 1.58c.77 2.06-.87 4.08-3 3.96q-.72-.05-.72.67m-21.83-3.51a4.42 4.42 0 00-4.42-4.42 4.42 4.42 0 00-4.42 4.42 4.42 4.42 0 004.42 4.42 4.42 4.42 0 004.42-4.42"></path></g><path d="M56.24 46.45a.56.56 0 01-.56.56H8.3a.56.56 0 01-.56-.56V17.53a.56.56 0 01.56-.56h47.38a.56.56 0 01.56.56zm-8.02-11.93c2.13.12 3.77-1.9 3-3.96a2.43 2.42 79.7 00-2.27-1.58H29.99q-.56 0-.86-.47c-1.81-2.81-3.69-5.21-7.36-5.23-6.53-.05-11.59 6.82-7.59 12.75q3.33 4.93 8.57 3.84 4.4-.91 6.23-4.85.27-.58.91-.58l7.15.03q.57 0 .59.57l.13 4.24a1.43 1.43 0 001.69 1.36c2.44-.45 1.8-3.75 1.85-5.52q.02-.7.71-.64l1.44.12q.55.05.55.6l.01 3.51q0 1.52 1.48 1.88.38.09.75-.14 1.27-.82 1.27-2.33l-.01-2.93q0-.72.72-.67"></path><circle cx="21.25" cy="31.68" r="4.42"></circle></svg>