<svg data-v-ea210746="" xmlns="http://www.w3.org/2000/svg" fill="#fff" viewBox="0 0 64 64" class="ui-icon max-h-full w-full" style="fill: rgb(107, 155, 203); opacity: 1;"><path fill="#000" d="M35.01 46.76l.01 7.98a1.14 1.12 20.4 00.4.86c1.95 1.59 5.93 2.18 6.18 5.14a1.39 1.39 0 01-1.38 1.51l-22.68-.01a.99.99 0 01-.87-.52c-1.93-3.59 2.63-4.01 4.62-5.15a2.91 2.9-15.1 001.45-2.51l.04-23.54q0-.53-.53-.53c-2.33.03-6.77-.71-8.27 1.33q-.38.52-.98.79-1.29.57-2.39-.65-.64-.71-.64-2.11-.03-6.71.04-12.94a1.66 1.66 0 012.79-1.19l2.29 2.12a1.56 1.54 66.2 001.06.42h5.92q.61 0 .68-.61.37-3.11 0-6.69c-.25-2.31-2.26-3.64-4.27-4.29a2.65 2.37 23 01-1.66-3.52q.19-.33 1.09-.68.53-.21 1.22-.21 16.66-.01 33.18.01a1.7 1.7 0 011.7 1.7L54 14.79a1.92 1.92 0 01-3.25 1.38l-1.81-1.74a1.45 1.42 66.8 00-1-.41l-12.44-.03q-.52 0-.51.51l.07 2.98q.01.37.38.36c3.08-.08 6.93.7 8.98-2.2q.44-.64 1.22-.69 2.3-.18 2.33 2.15.07 6.6.02 13.44c-.02 2.05-2.33 2.36-3.55.92-1.83-2.16-6.29-1.52-9-1.45q-.46.01-.45.46l.07 3.04a.34.34 0 00.35.34q5.59-.23 11.19.01c1.86.08 3.36-.58 4.98-1.35a1.7 1.69-12.8 012.43 1.52v10.08a1.87 1.87 0 01-1.87 1.87l-16.4.04q-.74 0-.73.74m-1.99-35.01q7.44-.02 15.03-.01c1.13.01 2.19.65 3.03 1.36q.67.57.67-.31V4.5a.5.49 0 00-.5-.49l-30.29-.03q-.98 0-.19.58c1.87 1.36 3.59 1.58 3.98 4.35q.79 5.58.17 10.58-.06.51-.58.52c-2.25 0-4.6-.13-6.86.01q-2.71.17-4.76-1.66a.27.27 0 00-.45.2l-.03 9.7q0 .85.77.5l1.7-.75q.59-.27 1.24-.27h8.49a.56.55 90 01.55.56q-.03 13 .01 25.66.02 4.25-4.19 5.47-.07.02-.06.1.02.12.01.25-.01.23.22.23h15.77q1.23 0 .15-.59-2.14-1.15-3.75-3.06-.41-.49-.41-1.12l-.01-10.98q0-.52.51-.52l18.27-.01a.24.23 90 00.23-.24v-7.56q0-.33-.34-.31-9.42.71-18.46.29-.19-.01-.19-.21l-.01-7.7q0-.24.23-.24 2.99-.06 6.31.01c2.17.04 3.99-.44 5.76 1.07q.67.57.67-.31l.03-9.59q0-.84-.68-.36-3.11 2.22-12.05 1.25-.27-.03-.27-.3v-7.51q0-.27.28-.27"></path><path d="M33.02 11.75q-.28 0-.28.27v7.51q0 .27.27.3 8.94.97 12.05-1.25.68-.48.68.36l-.03 9.59q0 .88-.67.31c-1.77-1.51-3.59-1.03-5.76-1.07q-3.32-.07-6.31-.01-.23 0-.23.24l.01 7.7q0 .2.19.21 9.04.42 18.46-.29.34-.02.34.31v7.56a.24.23 90 01-.23.24l-18.27.01q-.51 0-.51.52l.01 10.98q0 .63.41 1.12 1.61 1.91 3.75 3.06 1.08.59-.15.59H20.98q-.23 0-.22-.23.01-.13-.01-.25-.01-.08.06-.1 4.21-1.22 4.19-5.47-.04-12.66-.01-25.66a.56.55 90 00-.55-.56h-8.49q-.65 0-1.24.27l-1.7.75q-.77.35-.77-.5l.03-9.7a.27.27 0 01.45-.2q2.05 1.83 4.76 1.66c2.26-.14 4.61-.01 6.86-.01q.52-.01.58-.52.62-5-.17-10.58c-.39-2.77-2.11-2.99-3.98-4.35q-.79-.58.19-.58l30.29.03a.5.49 0 01.5.49v8.29q0 .88-.67.31c-.84-.71-1.9-1.35-3.03-1.36q-7.59-.01-15.03.01"></path></svg>