<svg data-v-ea210746="" xmlns="http://www.w3.org/2000/svg" fill="#fff" viewBox="0 0 64 64" class="ui-icon max-h-full w-full" style="fill: rgb(114, 204, 114); opacity: 1;"><path fill="#000" d="M37.17 15.11c1.5-1.18 4.07-4.41 6.2-2.42q1.31 1.22 1.77 2.77.3.98 1.32.83c4.3-.67 8.08.97 8.62 5.47q.76 6.36 1.71 12.21.11.65.7.94c2.04.99 3.44 2.15 3.63 4.62q.27 3.44.07 6.96-.15 2.54-2.39 3.9a1.62 1.59-14.3 00-.77 1.27c-.13 2.4.4 5.05-.71 7.26q-1.29 2.54-3.9 2.99c-7.05 1.2-9.35-3.26-8.54-9.47a.83.81 3.7 00-.82-.92l-24.09-.01q-.9 0-.81.9c.44 4.01 0 8.39-4.66 9.58q-.79.21-3.01.01c-2.34-.2-4.05-1.11-4.97-3.2-.96-2.13-.42-4.94-.57-7.27a1.32 1.31 14.3 00-.62-1.04c-1.41-.87-2.44-2.15-2.52-3.86-.19-4.07-1.14-9.85 3.68-11.67q.56-.21.67-.82.89-5.34 1.73-12.21.24-2.02 1.36-3.45c2.37-3.05 5.68-2.15 9.09-2.27q.6-.02.73-.6.18-.82.62-1.54c2.42-3.97 5.66-.93 7.56 1.39q.75.92.74-.27l-.01-1.41a2.23 2.22-66.7 00-.6-1.52c-2.62-2.82-2.25-7.36 1.08-9.43 2.54-1.58 6.47-1.02 8.2 1.49q2.76 4-.55 8.06c-.68.85-.63 1.37-.64 2.39q-.01.91.7.34m-2.92 8.18l.03-11.08q0-.66.55-1.03c3-2.06 2.01-6.2-1.4-6.87-4.74-.92-5.67 4.71-2.75 7.15a1.64 1.62 20.1 01.59 1.25v10.31a.9.9 0 01-1.34.78q-2.53-1.41-3.88-4.13-.2-.41-.01-.83l.51-1.08q.35-.73-.27-1.26l-2.33-1.98q-.67-.57-.97.26l-1.28 3.51q-.25.68.43.89l.84.26q.53.16.72.68 1.6 4.26 5.7 6.1c5.14 2.3 10.29-1.2 12.41-5.9q.37-.82 1.13-1.29a1.22 1.21-26.3 00.5-1.47l-1.1-2.9q-.3-.77-.89-.19l-2.41 2.33q-.4.4-.08.86c1.67 2.39-1.82 5.6-3.88 6.24q-.82.25-.82-.61m-16.56 26h28.7q.6 0 .61.6l.06 6.19q.05 3.71 3.76 3.67l1.08-.01q3.85-.05 3.85-3.89l-.01-6.11q0-.71.7-.81c1.73-.23 2.68-2.05 2.63-3.68q-.07-2.84-.08-5.55a2.71 2.7 2.7 00-2.44-2.68q-.76-.08-1.32-.44-.45-.29-.52-.81-1.03-7.12-1.99-13.7-.65-4.5-6.08-3.51-.27.05-.41.27l-2.05 3.06a.1.1 0 00.1.15c2.27-.45 4.28.17 4.64 2.54q.63 4.15 1.28 7.9a.94.93 85.5 01-.92 1.09l-34.67-.01a.82.81 4.7 01-.81-.95l1.35-8.34A2.71 2.71 0 0117.82 22l3.23.01q.86 0 .14-.47l-.81-.53q-.37-.24-.37-.68.01-.77-.38-1.4-.3-.48-.86-.46c-2.67.07-6.87-.86-7.43 3.08q-1.02 7.21-2.06 14.3a1.06 1.04-12.2 01-.49.74q-.64.39-1.41.43-.51.03-.9.37c-2.19 2-1.51 5.43-1.53 8.1-.01 1.56.98 3.12 2.54 3.51a1.01 1.01 0 01.77.98l-.01 6q0 3.73 3.73 3.75l1 .01q3.59.02 3.87-3.55.25-3.09.1-6.13-.04-.77.74-.77"></path><path d="M35.07 23.9c2.06-.64 5.55-3.85 3.88-6.24q-.32-.46.08-.86l2.41-2.33q.59-.58.89.19l1.1 2.9a1.22 1.21-26.3 01-.5 1.47q-.76.47-1.13 1.29c-2.12 4.7-7.27 8.2-12.41 5.9q-4.1-1.84-5.7-6.1-.19-.52-.72-.68l-.84-.26q-.68-.21-.43-.89l1.28-3.51q.3-.83.97-.26l2.33 1.98q.62.53.27 1.26l-.51 1.08q-.19.42.01.83 1.35 2.72 3.88 4.13a.9.9 0 001.34-.78V12.71a1.64 1.62 20.1 00-.59-1.25c-2.92-2.44-1.99-8.07 2.75-7.15 3.41.67 4.4 4.81 1.4 6.87q-.55.37-.55 1.03l-.03 11.08q0 .86.82.61"></path><path d="M16.95 50.06q.15 3.04-.1 6.13-.28 3.57-3.87 3.55l-1-.01q-3.73-.02-3.73-3.75l.01-6a1.01 1.01 0 00-.77-.98c-1.56-.39-2.55-1.95-2.54-3.51.02-2.67-.66-6.1 1.53-8.1q.39-.34.9-.37.77-.04 1.41-.43a1.06 1.04-12.2 00.49-.74q1.04-7.09 2.06-14.3c.56-3.94 4.76-3.01 7.43-3.08q.56-.02.86.46.39.63.38 1.4 0 .44.37.68l.81.53q.72.47-.14.47L17.82 22a2.71 2.71 0 00-2.67 2.27l-1.35 8.34a.82.81 4.7 00.81.95l34.67.01a.94.93 85.5 00.92-1.09q-.65-3.75-1.28-7.9c-.36-2.37-2.37-2.99-4.64-2.54a.1.1 0 01-.1-.15l2.05-3.06q.14-.22.41-.27 5.43-.99 6.08 3.51.96 6.58 1.99 13.7.07.52.52.81.56.36 1.32.44a2.71 2.7 2.7 012.44 2.68q.01 2.71.08 5.55c.05 1.63-.9 3.45-2.63 3.68q-.7.1-.7.81l.01 6.11q0 3.84-3.85 3.89l-1.08.01q-3.71.04-3.76-3.67L47 49.89q-.01-.6-.61-.6h-28.7q-.78 0-.74.77"></path></svg>