<svg data-v-ea210746="" xmlns="http://www.w3.org/2000/svg" viewBox="0 0 64 64" fill="#fff" class="ui-icon max-h-full w-full" style="opacity: 1;"><path fill="#000" d="M40.75 46.95l.02 11.53a2.26 2.25 89.9 01-2.25 2.27l-13.03.04a2.3 2.29 0 01-2.31-2.3l.07-11.75a.45.45 0 00-.66-.4l-9.37 5.09a2.67 2.66-28.5 01-3.61-1.06l-4.75-8.68a3.63 3.63 0 011.38-4.89l8.27-4.74a.5.49-44.5 00.01-.85l-9.3-5.61a2.49 2.48 31.5 01-.83-3.43l5.84-9.4a2.73 2.73 0 013.66-.94l9.02 5.08a.4.4 0 00.6-.35l-.04-11.05a2.28 2.27-90 012.27-2.28h12.5a2.25 2.25 0 012.25 2.25l.02 10.83a.55.55 0 00.83.48l8.82-4.99a2.65 2.64 59.3 013.54.91l5.86 9.39a2.56 2.56 0 01-.85 3.55L49.3 31.3a.37.37 0 00.01.64l8.46 4.86a3.65 3.65 0 011.38 4.92l-4.56 8.34q-1.45 2.65-4.1 1.22l-8.92-4.82q-.82-.44-.82.49M25.78 20.26a.58.58 0 01-.87.5l-12.03-6.77a.58.58 0 00-.78.21l-5.38 8.82a.58.58 0 00.19.79l12.17 7.43a.58.58 0 01-.02 1L6.88 39.1a.58.58 0 00-.22.78L11.5 49a.58.58 0 00.78.23l12.4-6.64a.58.58 0 01.86.51l-.04 14.83a.58.58 0 00.58.58l11.83.03a.58.58 0 00.58-.58l-.04-14.85a.58.58 0 01.85-.52l12.4 6.58a.58.58 0 00.78-.24l4.83-9a.58.58 0 00-.22-.78L44.93 32.2a.58.58 0 01-.01-1l12.2-7.34a.58.58 0 00.2-.8L51.9 14.2a.58.58 0 00-.78-.21l-12.03 6.78a.58.58 0 01-.87-.5l.03-14.15a.58.58 0 00-.58-.58l-11.33-.01a.58.58 0 00-.58.58z"></path><path d="M25.78 20.26l-.02-14.15a.58.58 0 01.58-.58l11.33.01a.58.58 0 01.58.58l-.03 14.15a.58.58 0 00.87.5l12.03-6.78a.58.58 0 01.78.21l5.42 8.86a.58.58 0 01-.2.8l-12.2 7.34a.58.58 0 00.01 1l12.16 6.95a.58.58 0 01.22.78l-4.83 9a.58.58 0 01-.78.24l-12.4-6.58a.58.58 0 00-.85.52l.04 14.85a.58.58 0 01-.58.58l-11.83-.03a.58.58 0 01-.58-.58l.04-14.83a.58.58 0 00-.86-.51l-12.4 6.64a.58.58 0 01-.78-.23l-4.84-9.12a.58.58 0 01.22-.78l12.18-6.86a.58.58 0 00.02-1L6.91 23.81a.58.58 0 01-.19-.79l5.38-8.82a.58.58 0 01.78-.21l12.03 6.77a.58.58 0 00.87-.5"></path></svg>