<svg data-v-ea210746="" xmlns="http://www.w3.org/2000/svg" viewBox="0 0 64 64" fill="#fff" class="ui-icon max-h-full w-full" style="fill: rgb(114, 204, 114); opacity: 1;"><path fill="#000" d="M53.72 34.74q.05 9.19.01 19.86c-.01 3.49-2.58 5.46-5.86 5.44q-15.36-.08-30.82-.01a5.26 5.26 0 01-5.28-5.27l.03-20.03q.01-.73-.72-.71-4.47.08-5.89-3.49c-.74-1.86-.65-6.64.26-8.43q.56-1.1 1.54-1.77 11.68-8.02 21.86-15.06 3.89-2.68 7.66.01 8.94 6.38 19.78 14.02c3.7 2.6 2.74 5.13 2.91 8.98.12 2.88-2.01 5.24-4.78 5.65q-.7.1-.7.81M46 45.62v10.37q0 2.32 2.25 1.74l.74-.19q2.53-.65 2.53-3.27l-.01-21.97q0-.64.64-.56c2.99.35 5.13-1.35 4.86-4.33-.26-2.88.6-4.38-2.22-6.33q-9.64-6.67-19.41-13.82c-1.84-1.34-3.89-1.02-5.68.24Q19.27 14.85 8.75 21.89q-1.38.92-1.62 2.51c-.83 5.52.25 7.74 6.25 7.31q.62-.04.62.58v22.2a3.24 3.23 0 003.24 3.23l17.7-.02q.39 0 .39-.39l-.09-11.69q0-.65.64-.65l9.49.02q.63 0 .63.63"></path><path d="M45.37 44.99l-9.49-.02q-.64 0-.64.65l.09 11.69q0 .39-.39.39l-17.7.02A3.24 3.23 0 0114 54.49v-22.2q0-.62-.62-.58c-6 .43-7.08-1.79-6.25-7.31q.24-1.59 1.62-2.51Q19.27 14.85 29.7 7.5c1.79-1.26 3.84-1.58 5.68-.24q9.77 7.15 19.41 13.82c2.82 1.95 1.96 3.45 2.22 6.33.27 2.98-1.87 4.68-4.86 4.33q-.64-.08-.64.56l.01 21.97q0 2.62-2.53 3.27l-.74.19Q46 58.31 46 55.99V45.62q0-.63-.63-.63M30.525 27.418a.33.33 0 00-.328-.333l-10.08-.07a.33.33 0 00-.332.328l-.07 10.02a.33.33 0 00.328.332l10.08.07a.33.33 0 00.332-.328z"></path><rect fill="#000" width="10.74" height="10.68" x="-5.37" y="-5.34" rx=".33" transform="rotate(.4 -4626.947 3614.355)"></rect></svg>