<svg data-v-ea210746="" xmlns="http://www.w3.org/2000/svg" fill="#fff" viewBox="0 0 64 64" class="ui-icon max-h-full w-full" style="fill: rgb(255, 117, 0); opacity: 1;"><g fill="#000"><path d="M10.69 11.73q2.16-1.78 3.99-4a2.65 2.64-48.2 013.89-.22l2.14 2.08a1.48 1.48 0 002.52-1c.09-2.49 1.79-4.61 4.36-4.61q13.66.02 25.01.05a2.63 2.63 0 012.62 2.63q-.01 23.7.01 48.52c0 2.69-1.75 4.83-4.43 4.83q-14.78 0-34.81-.01a4.18 4.18 0 01-4.18-4.17q-.03-17.4.1-34.54 0-.76.22-1.45c.41-1.34-1.08-2.22-1.82-3.06a3.52 3.52 0 01.38-5.05m14.44-2.6a.31.31 0 00.28.45l13.26-.08a.31.31 0 00.25-.13l1.89-2.67a.31.31 0 00-.26-.49l-13.73-.02a.31.31 0 00-.28.17zm15.56 1.93a1.52 1.51-73.1 01-1.26.68l-15.72.01q-.63 0-1.07.44l-8.2 8.25q-.43.43-.43 1.05v33.75a2.48 2.48 0 002.48 2.48L51 57.71a1.98 1.98 0 001.98-1.98V7.4a.98.97 0 00-.98-.97l-7.64.07q-.66 0-1.03.55zM17.323 9.47a.66.66 0 00-.933 0l-4.61 4.61a.66.66 0 000 .933l1.697 1.697a.66.66 0 00.933 0l4.61-4.61a.66.66 0 000-.933z"></path><path d="M33.83 34.34l13.94-12.37a.5.5 0 01.71.71L36.11 36.62a.5.5 0 000 .66l12.37 13.94a.5.5 0 01-.71.71L33.83 39.56a.5.5 0 00-.66 0L19.23 51.93a.5.5 0 01-.71-.71l12.37-13.94a.5.5 0 000-.66L18.52 22.68a.5.5 0 01.71-.71l13.94 12.37a.5.5 0 00.66 0"></path></g><path d="M40.69 11.06l2.64-4.01q.37-.55 1.03-.55L52 6.43a.98.97 0 01.98.97v48.33A1.98 1.98 0 0151 57.71l-34.51.01a2.48 2.48 0 01-2.48-2.48V21.49q0-.62.43-1.05l8.2-8.25q.44-.44 1.07-.44l15.72-.01a1.52 1.51-73.1 001.26-.68m-6.86 23.28a.5.5 0 01-.66 0L19.23 21.97a.5.5 0 00-.71.71l12.37 13.94a.5.5 0 010 .66L18.52 51.22a.5.5 0 00.71.71l13.94-12.37a.5.5 0 01.66 0l13.94 12.37a.5.5 0 00.71-.71L36.11 37.28a.5.5 0 010-.66l12.37-13.94a.5.5 0 00-.71-.71z"></path><rect width="7.84" height="3.72" x="-3.92" y="-1.86" rx=".66" transform="rotate(-45 23.501 -12.044)"></rect></svg>