<svg data-v-ea210746="" xmlns="http://www.w3.org/2000/svg" fill="#fff" viewBox="0 0 64 64" class="ui-icon max-h-full w-full" style="opacity: 1;"><g fill="#000"><path d="M42.33 47.83c-1.7 1.62-4.04 5.24-6.64 2.95q-1.47-1.3-2.8-2.86a.96.96 0 00-1.44-.02q-1.46 1.61-3.24 3.03-1.55 1.24-2.95.03-1.72-1.48-3.38-3.22a.84.83 48.1 00-1.13-.07c-1.19.99-2.35 2.78-3.9 3.13q-1.19.26-2-.87-.47-.66-.51-1.88-.22-7.36-.07-15.51c.14-8.1 2.32-13.99 9.11-18.01q6.07-3.59 13.37-1.61c8.83 2.4 12.81 10.13 12.94 19.07q.1 7.62.01 15.72-.02 1.01-.49 1.88c-1.54 2.84-4.24-.16-5.18-1.57a1.12 1.11 51.3 00-1.7-.19m-9.83-3.52l4.23 4.32a1.06 1.05 44.8 001.51 0l4.15-4.23a.84.83 45.2 011.2.01l3.12 3.28a.42.42 0 00.72-.28q.19-7.94 0-15.86-.28-11.5-9.28-15.62c-7.5-3.43-15.84-.24-19.74 7.05-1.61 3.01-1.86 6.24-1.88 9.6q-.05 7.29-.17 13.98-.04 2.33 1.57.64l2.59-2.71a.88.87-45.7 011.25-.02l4.26 4.26q.5.51 1.01.01l4.56-4.45q.46-.44.9.02"></path><circle cx="25.49" cy="29.92" r="4.7"></circle><circle cx="38.51" cy="29.93" r="4.71"></circle></g><path d="M31.6 44.29l-4.56 4.45q-.51.5-1.01-.01l-4.26-4.26a.88.87-45.7 00-1.25.02l-2.59 2.71q-1.61 1.69-1.57-.64.12-6.69.17-13.98c.02-3.36.27-6.59 1.88-9.6 3.9-7.29 12.24-10.48 19.74-7.05q9 4.12 9.28 15.62.19 7.92 0 15.86a.42.42 0 01-.72.28l-3.12-3.28a.84.83 45.2 00-1.2-.01l-4.15 4.23a1.06 1.05 44.8 01-1.51 0l-4.23-4.32q-.44-.46-.9-.02m-1.41-14.37a4.7 4.7 0 00-4.7-4.7 4.7 4.7 0 00-4.7 4.7 4.7 4.7 0 004.7 4.7 4.7 4.7 0 004.7-4.7m13.03.01a4.71 4.71 0 00-4.71-4.71 4.71 4.71 0 00-4.71 4.71 4.71 4.71 0 004.71 4.71 4.71 4.71 0 004.71-4.71"></path></svg>