<svg data-v-ea210746="" xmlns="http://www.w3.org/2000/svg" fill="#fff" viewBox="0 0 64 64" class="ui-icon max-h-full w-full" style="opacity: 1;"><path d="M23.51 49.68a.56.56 0 00.58.56q5.08-.16 9.38 1.51c2.14.84 3.58 3.4 1.58 5.23-3.37 3.09-12.06 2.83-17.3 2.27-2.95-.31-9.6-1.96-6.6-6.2.69-.97 1.74-1.11 2.58-1.85a1.36 1.34 69.1 00.44-1q.08-21.98.04-43.81 0-1.76 1.74-1.8c2.96-.06 5.17-.47 7.68.75q7.76 3.77 15.8 7.89a2.21 2.2 42.1 01.2 3.81q-.27.18-.64.37-7.58 3.97-14.75 7.43a1.3 1.28 77.4 00-.73 1.17zm-2.25 2.06l.01-27.24a1.21 1.2 76.9 01.67-1.08l15.52-7.66a.58.58 0 000-1.04q-7.01-3.54-13.74-6.9c-2.37-1.18-4.25-1.28-6.72-.99a.67.66-3.4 00-.59.66l.06 44.97q0 .66-.64.82-1.05.27-2.1.71-.95.4-.62 1.37a1 .99 87.1 00.69.63q10.28 2.54 17.66.35 4.19-1.24.09-2.75-3.82-1.42-9.42-1.04a.81.81 0 01-.87-.81"></path><path fill="#000" d="M21.26 51.74a.81.81 0 00.87.81q5.6-.38 9.42 1.04 4.1 1.51-.09 2.75-7.38 2.19-17.66-.35a1 .99 87.1 01-.69-.63q-.33-.97.62-1.37 1.05-.44 2.1-.71.64-.16.64-.82l-.06-44.97a.67.66-3.4 01.59-.66c2.47-.29 4.35-.19 6.72.99q6.73 3.36 13.74 6.9a.58.58 0 010 1.04l-15.52 7.66a1.21 1.2 76.9 00-.67 1.08z"></path><path d="M53.59 51.12a7.42 7.42 0 01-7.42 7.42 7.42 7.42 0 01-7.42-7.42 7.42 7.42 0 017.42-7.42 7.42 7.42 0 017.42 7.42m-2.34-.02a5.1 5.1 0 00-5.1-5.1 5.1 5.1 0 00-5.1 5.1 5.1 5.1 0 005.1 5.1 5.1 5.1 0 005.1-5.1"></path><circle cx="46.15" cy="51.1" r="5.1" fill="#000"></circle></svg>