<svg data-v-ea210746="" viewBox="0 0 64 93" xmlns="http://www.w3.org/2000/svg" fill="#7e7f7e" class="ui-icon max-h-full w-full" style="fill: rgb(57, 102, 57); opacity: 1;"><g fill="#000"><path d="M11.15 6.96c.02-3.05 2.75-5.63 5.84-5.15 8.29.82 16.64.04 24.94.5 4.43 1.72 4.93 7.58 8.92 9.97 4.07 2.82 5.09 8 4.77 12.64 2.54 8.52 5.74 17.03 6.2 26.02.33 10.23-.1 20.56-2.43 30.55-.9 3.09-1.64 6.48-3.82 8.95-2.18.84-4.63.21-6.92.2-.15-.58-.46-1.76-.61-2.34 4.24-6.64 4.55-14.77 5.03-22.39-2.49 7.05-6.42 13.71-12.45 18.29 1.28.99 4.01 2.17 2.87 4.22-.88 2.13-3.65 1.39-5.46 1.63-7.98-.25-15.96.17-23.93-.26-.38-2.23-.02-4.55 2.5-5.25C9.7 78.28 4.49 69.9 3.59 60.48l-2.42-1.27c.02-1.79.14-3.58.38-5.35.51-.17 1.55-.51 2.06-.68C4.93 42.14 7.6 29.89 16.55 22.42c-.4-2.89-.48-5.81-.46-8.73-2.08-1.81-5.18-3.53-4.94-6.73m4.17-1.66c-.3.69-.89 2.07-1.18 2.76 1.29 1.86 5.14 1.95 4.81-.98.37-2.1-2.2-2.36-3.63-1.78m14.12-.01c2.75.79 6.36.4 8.22 2.95 1.31 2.83 4.88 1.59 7.31 2.17-1.11-1.62-2.08-3.38-3.47-4.8-3.99-.48-8.04-.07-12.06-.32M22.7 7.98c.02 4.42 1.24 8.77.86 13.21l-2.23 1.27c2.06.07 4.11.24 6.16.28.51-3.55 1.39-7.48 4.62-9.58 1.31-1.42 4.38-1.84 3.97-4.24-2.89-.96-5.95-1.17-8.97-1.39-.59.09-1.76.28-2.35.37l-.42-.77-1.64.85m-4.11 3.59l.88 1.12c-.06 2.34-.13 4.67-.19 7.01.61-.04 1.83-.13 2.45-.17-.36-3.47-.8-6.92-1.08-10.39-.68.81-1.37 1.62-2.06 2.43m18.82 1.04c-4.11 1.2-7.78 4.99-7.7 9.47.44 4.87 4.58 8.79 9.39 9.31 6.13 1.2 13.95-3.5 13.25-10.34-.61-6.94-8.85-10.41-14.94-8.44M16.13 27.07C9.91 34.7 7.82 44.72 6.65 54.26c4.48.08 8.97.16 13.45-.1 1.26-.01 2.53-.01 3.79.01 8.94.27 17.89.21 26.82.03-.72-7.18-2.3-14.31-5.38-20.87-3.99.4-8.33.58-11.85-1.68-2.61-1.4-4.08-4.04-5.49-6.51-1.36-.07-2.71-.14-4.07-.2-.44-.07-1.34-.22-1.79-.3-2.17.24-4.65.47-6 2.43m36.42.16l.12 1.99c-.8.49-1.6.99-2.39 1.49.93 1.65 1.94 3.3 2.38 5.16.52 3.83 2.09 7.43 2.64 11.25 1.54 9.24 1.39 18.71.32 27.99-.44 4.57-2.18 8.88-2.92 13.39 1.3-1.77 2.57-3.65 3.06-5.83 2.53-9.66 3-19.72 2.89-29.67-.04-5.78-1.57-11.38-2.73-16.99l-.49-.02c-.27-1.15-.57-2.28-.89-3.41-.72-1.76-1.36-3.56-1.99-5.35M3.94 56.1c0 .45.01 1.35.01 1.81 5.35.17 10.72.5 16.05.02 1.64.09 3.27.02 4.89-.2 7.22.99 14.76.07 22.11.43 2.21-.35 5.76 1.05 6.44-1.98-10.01-.21-20.04-.25-30.06-.01-1.12-.28-2.31-.37-3.55-.27-5.29.26-10.59.07-15.89.2m2.92 3.82c.75 8.78 5.55 16.9 12.45 22.27.26.29.79.85 1.05 1.13 1.14 0 2.28 0 3.42.01 4.55.07 9.09.04 13.64.03 6.84-6.08 12.49-14.04 13.23-23.42-8.92-.14-17.84-.07-26.75-.04h-3.82c-4.4-.05-8.81-.05-13.22.02m11.76 26.56c6.8.49 13.65.46 20.44-.02-6.69-1.1-13.76-1.25-20.44.02z"></path><path d="M37.4 14.39c5.79-2.61 13.73 2.04 12.66 8.72-1.52 8.36-15.06 8.9-17.63 1.05-1.71-4.01 1.2-8.35 4.97-9.77m2.53 1.52c2.28 3.18 4.72 6.24 7.06 9.38.44-1.14.9-2.28 1.35-3.42-.83-4.03-4.47-6.15-8.41-5.96m-6.3 6.57c2.59-.1 5.14-.56 7.67-1.11-1.25-1.61-2.49-3.21-3.72-4.83-2.12 1.36-3.33 3.54-3.95 5.94m1.26 2.37c1.89 2.11 4.55 2.97 7.32 2.9-2.08-1.74-4.39-3.62-7.32-2.9z"></path></g><path d="M15.32 5.3c1.43-.58 4-.32 3.63 1.78.33 2.93-3.52 2.84-4.81.98.29-.69.88-2.07 1.18-2.76zm14.12-.01c4.02.25 8.07-.16 12.06.32 1.39 1.42 2.36 3.18 3.47 4.8-2.43-.58-6 .66-7.31-2.17-1.86-2.55-5.47-2.16-8.22-2.95zM22.7 7.98l1.64-.85.42.77c.62 4.71-.11 9.54.7 14.2 1.39-.19 1.44-1.96 1.49-3.01.14-3.85.01-7.71.16-11.56 3.02.22 6.08.43 8.97 1.39.41 2.4-2.66 2.82-3.97 4.24-3.23 2.1-4.11 6.03-4.62 9.58-2.05-.04-4.1-.21-6.16-.28l2.23-1.27c.38-4.44-.84-8.79-.86-13.21z"></path><path d="M18.59 11.57c.69-.81 1.38-1.62 2.06-2.43.28 3.47.72 6.92 1.08 10.39-.62.04-1.84.13-2.45.17.06-2.34.13-4.67.19-7.01l-.88-1.12zm18.82 1.04c6.09-1.97 14.33 1.5 14.94 8.44.7 6.84-7.12 11.54-13.25 10.34-4.81-.52-8.95-4.44-9.39-9.31-.08-4.48 3.59-8.27 7.7-9.47m-.01 1.78c-3.77 1.42-6.68 5.76-4.97 9.77 2.57 7.85 16.11 7.31 17.63-1.05 1.07-6.68-6.87-11.33-12.66-8.72z"></path><path d="M39.93 15.91c3.94-.19 7.58 1.93 8.41 5.96-.45 1.14-.91 2.28-1.35 3.42-2.34-3.14-4.78-6.2-7.06-9.38zm-6.3 6.57c.62-2.4 1.83-4.58 3.95-5.94 1.23 1.62 2.47 3.22 3.72 4.83-2.53.55-5.08 1.01-7.67 1.11zm-17.5 4.59c1.35-1.96 3.83-2.19 6-2.43-.33 3.11 1.02 7.16-2.04 9.27-.12 6.75-.03 13.5.01 20.25-4.48.26-8.97.18-13.45.1 1.17-9.54 3.26-19.56 9.48-27.19zm7.79-2.13c1.36.06 2.71.13 4.07.2 1.41 2.47 2.88 5.11 5.49 6.51 3.52 2.26 7.86 2.08 11.85 1.68 3.08 6.56 4.66 13.69 5.38 20.87-8.93.18-17.88.24-26.82-.03.13-9.74.14-19.48.03-29.23zm10.97-.09c2.93-.72 5.24 1.16 7.32 2.9-2.77.07-5.43-.79-7.32-2.9zm17.77 11.02l2.77.12.49.02c1.16 5.61 2.69 11.21 2.73 16.99.11 9.95-.36 20.01-2.89 29.67-.49 2.18-1.76 4.06-3.06 5.83.74-4.51 2.48-8.82 2.92-13.39 1.07-9.28 1.22-18.75-.32-27.99-.55-3.82-2.12-7.42-2.64-11.25zM3.94 56.1c5.3-.13 10.6.06 15.89-.2.05.5.13 1.52.17 2.03-5.33.48-10.7.15-16.05-.02 0-.46-.01-1.36-.01-1.81z"></path><path d="M23.38 56.17c10.02-.24 20.05-.2 30.06.01-.68 3.03-4.23 1.63-6.44 1.98-7.35-.36-14.89.56-22.11-.43-.37-.39-1.13-1.17-1.51-1.56zM6.86 59.92c4.41-.07 8.82-.07 13.22-.02 0 6.05-.15 12.11.04 18.16 1.46 1.4 2.1 3.3 2.64 5.19-1.16-.31-2.31-.67-3.45-1.06-6.9-5.37-11.7-13.49-12.45-22.27zm17.04-.02c8.91-.03 17.83-.1 26.75.04-.74 9.38-6.39 17.34-13.23 23.42-4.55.01-9.09.04-13.64-.03.27-7.81.32-15.62.12-23.43zm-5.28 26.58c6.68-1.27 13.75-1.12 20.44-.02-6.79.48-13.64.51-20.44.02z"></path><path d="M24.76 7.9c.59-.09 1.76-.28 2.35-.37-.15 3.85-.02 7.71-.16 11.56-.05 1.05-.1 2.82-1.49 3.01-.81-4.66-.08-9.49-.7-14.2zm-2.63 16.74c.45.08 1.35.23 1.79.3.11 9.75.1 19.49-.03 29.23-1.26-.02-2.53-.02-3.79-.01-.04-6.75-.13-13.5-.01-20.25 3.06-2.11 1.71-6.16 2.04-9.27zm30.42 2.59c.63 1.79 1.27 3.59 1.99 5.35.32 1.13.62 2.26.89 3.41l-2.77-.12c-.44-1.86-1.45-3.51-2.38-5.16.79-.5 1.59-1 2.39-1.49l-.12-1.99zM19.83 55.9c1.24-.1 2.43-.01 3.55.27.38.39 1.14 1.17 1.51 1.56-1.62.22-3.25.29-4.89.2-.04-.51-.12-1.53-.17-2.03zm.25 4h3.82c.2 7.81.15 15.62-.12 23.43-1.14-.01-2.28-.01-3.42-.01-.26-.28-.79-.84-1.05-1.13 1.14.39 2.29.75 3.45 1.06-.54-1.89-1.18-3.79-2.64-5.19-.19-6.05-.04-12.11-.04-18.16z" fill="#fff"></path></svg>