<svg data-v-ea210746="" viewBox="0 0 381 120" xmlns="http://www.w3.org/2000/svg" fill="#7e7f7e" class="ui-icon max-h-full w-full" style="fill: rgb(224, 50, 50); opacity: 1;"><g fill="#000"><path d="M183.24 1.39c2.21-.45 4.49-.3 6.73-.33 17.02.13 34.05-.13 51.07.12 2.88-.12 4.51 2.41 5.53 4.74 8.08.14 16.16.01 24.23.25.13 3.57.15 7.14.22 10.71 2.21-.87 4.5-1.67 6.92-1.51 25.39.09 50.78-.04 76.16.06 3.91-.21 6.05 3.55 7.37 6.66 6.07.08 12.16-.13 18.23.18.45 11.49.25 23.01.1 34.51-2.65.11-5.3.21-7.95.31-.66 2.12-.85 4.63-2.63 6.19-1.98 1.75-4.78 1.44-7.22 1.53-23.36-.1-46.73.06-70.09-.08-4.31.2-6.58-4.07-7.23-7.74-4.83-.07-9.68.03-14.49.49 2.73.42 5.5.63 8.24 1.05-.36 3.22 1.05 7.13-1.12 9.85-1.9.31-3.84.25-5.75.33-.91 2.3-2.93 3.2-5.27 3.31-.11 8.66.16 17.32-.11 25.98.05 2.95-3.13 4.17-4.68 6.26-.61 1.98-.7 4.07-1.29 6.06-1.34.53-2.79.56-4.2.59-25-.04-50-.02-75-.01-1.27-.18-2.97.27-3.87-.92-2.29-2.79-4.76-5.45-6.88-8.37-1.03-2.53-.14-5.46-.88-8.08-3.77-4.38-9.39-7.69-15.34-7.28-4.17.12-8.38-.29-12.51.31-2.73 1.81-2.6 5.46-3.89 8.17-2.5 5.52-6.88 9.97-9.43 15.47-.75 2.84-.69 5.84-1.44 8.69-6.05-.22-11.65-2.85-17.47-4.25-3.68-1.17-7.64-1.91-10.87-4.13-1.92-1.57-1.88-4.57-.44-6.45 7.16-10.22 14.58-20.27 21.45-30.7.99-1.65 2.29-3.32 2.2-5.36.15-5.08.03-10.16.14-15.24 2.22-.9 4.45-1.77 6.62-2.77-5.23-.27-10.47 0-15.7-.36-.21-.69-.63-2.06-.85-2.75-3.69.01-7.39.01-11.09 0-.08 2.23-.17 4.46-.31 6.69-3.57.54-7.31.04-10.78 1.11-5.46 2.62-10.19 6.49-15.1 9.99-11.54 8.67-22.85 17.68-33.69 27.21-3.6 2.59-2.06 8.58-6.48 10.44-4.39 1.14-8.98 1.5-13.5 1.88-5.18.65-9.65-4.25-9.81-9.18-.34-7.01-.74-14.01-1.12-21.01-.66-10.28-4.17-20.04-7.14-29.82-.94-2.51-.75-5.37.86-7.58 2.45-3.63 7.3-3.63 11.21-4.03 27.72-1.67 55.42-3.47 83.15-4.82 1.7-.42 2.21 1.73 3.26 2.57 3.37.1 6.73.09 10.09.02.83-2.69 3.35-2.8 5.71-2.88.6-1.37.72-3.71 2.81-3.32 10-.14 20.01.02 30.01-.05.01-5.98-.08-11.96.27-17.94 9.72-.44 19.46-.05 29.19-.27 1.01-1.65 1.73-3.97 3.85-4.5m.28 2.99c-.13.63-.4 1.9-.54 2.53 20.12.22 40.24.25 60.36-.02-.5-.86-.99-1.71-1.48-2.56-19.44.04-38.89-.06-58.34.05m-27.69 4.71c-.04.53-.13 1.61-.17 2.15-.1 3.02-.11 6.04-.11 9.07 35.85.01 71.7.01 107.56 0 0-3.02 0-6.04-.11-9.06-.01-.55-.05-1.64-.06-2.18-5.68.01-11.36-.03-17.03.02.07.56.23 1.69.31 2.25-.36.89-.72 1.77-1.08 2.66-21.71-.1-43.41 0-65.12-.05-.03-.67-.08-2.01-.11-2.68.02-.55.06-1.64.07-2.19-8.05-.01-16.1-.03-24.15.01m26.46.09l.68 2.23c20.16.49 40.37.09 60.56.19-.07-.63-.2-1.89-.26-2.52-20.33.09-40.66-.1-60.98.1m90.63 12.23c28.11.02 56.22 0 84.34.01-.84-1.65-2.23-3.18-4.26-2.73-25.35.02-50.71.01-76.06.01-1.97-.38-3.47.9-4.02 2.71m-99.97.97c.01 25.55-.02 51.1 0 76.65.82 0 2.48.01 3.3.01-.41-14.34-.09-28.7-.19-43.05.05-11.2-.2-22.41.32-33.6-.86 0-2.58 0-3.43-.01m79.41.23c.04 4.15-.04 8.31.27 12.45.04 1.95.04 3.9 0 5.85-.36 7.37-.36 14.77 0 22.13.04 1.97.05 3.94 0 5.9-.5 11.21-.08 22.44-.23 33.66l4.94.06c.05-12.2-.13-24.41.22-36.6-.5-14.45.22-28.89-.25-43.34-1.65-.04-3.3-.08-4.95-.11m-72.92.93c.06.67.19 2 .25 2.66 19.89-.03 39.79.02 59.68-.03.04-.65.13-1.96.17-2.62-20.03.08-40.07.09-60.1-.01m80.3.25c-.12 3.87-.19 7.74-.08 11.61.04 1.84.04 3.67.02 5.5-.18 20.11-.14 40.22.08 60.33 1.46-1.46 3.7-2.78 3.3-5.2.1-9.09.09-18.19-.07-27.28.03-1.8.04-3.61.04-5.42-.03-7.44.1-14.89.17-22.34-.1-1.88-.13-3.76-.18-5.63.17-4.16.7-8.93-3.28-11.57m13.15 1.04l-.08 2.06c-.27 6.73-.04 13.47-.22 20.2 3.48.06 6.96.18 10.44.24.66-.16 1.98-.47 2.63-.62-.1-3.31-.06-6.62-.06-9.93.48.07 1.42.21 1.89.27.33-1.71-.92-4.47 1.92-4.75l.57 1.18c.02-.87.04-2.61.05-3.48h1.99c-.12 5.71-.13 11.43.21 17.14 1.13.14 2.26.29 3.4.48.67-3.53.4-7.14.34-10.7.51 0 1.53-.01 2.04-.01-.03-1.28-.05-2.56-.06-3.84.52-.04 1.56-.1 2.07-.14l.04-2.85c.45-.11 1.35-.33 1.79-.44.19 5.8.18 11.6.11 17.41.54-.01 1.61-.02 2.15-.02.46 0 1.37 0 1.82-.01.03-3.32.04-6.64.04-9.95.51-.04 1.55-.11 2.07-.14-.02-1.17-.03-2.34-.05-3.51 2.58-.19 2.1-2.9 2.6-4.72-.53.36-1.59 1.07-2.12 1.43l.24-2.34c.97.68 1.76.53 2.36-.45 1.34 6.52.7 13.2 1.15 19.8 1.13.14 2.27.29 3.4.47.68-3.52.41-7.13.35-10.69.51 0 1.53-.01 2.04-.01-.03-1.28-.05-2.56-.06-3.84.52-.04 1.56-.1 2.08-.14 0-.71.02-2.14.03-2.85l1.79-.44c.19 5.8.18 11.6.11 17.41.54-.01 1.61-.02 2.15-.02h1.82c.03-3.32.04-6.64.04-9.96.51-.04 1.55-.11 2.07-.14-.02-1.17-.03-2.34-.05-3.51 2.57-.19 2.1-2.87 2.59-4.69-.52.35-1.58 1.05-2.1 1.4l.24-2.4c1.04.91 1.8.76 2.27-.43 1.49 6.52.76 13.23 1.23 19.84 1.13.14 2.28.29 3.41.47.67-3.53.4-7.13.34-10.69.51 0 1.53-.01 2.04-.01-.03-1.28-.05-2.56-.06-3.84.52-.04 1.56-.1 2.08-.14 0-.71.02-2.14.02-2.85l1.8-.44c.19 5.8.18 11.6.11 17.41.54-.01 1.61-.02 2.15-.02.46 0 1.37 0 1.82-.01.03-3.32.04-6.64.04-9.96.51-.03 1.55-.09 2.07-.13-.02-1.17-.04-2.34-.05-3.51 2.61-.2 2.09-2.97 2.62-4.8-.53.37-1.59 1.11-2.13 1.48l.28-2.49c.86.04 1.72.04 2.59 0 .83 6.45.61 12.95.6 19.44 5.48 0 10.97.01 16.45-.01-.17-2.48.39-5.23-1.07-7.43-2.54-4.27-5.56-8.24-8.07-12.53l-1.23-1.99c-28.38-.21-56.77.3-85.14-.26m87.59 1.03l1.65.96c1.95 5.07 5.96 9.01 8.02 14.03.51 4.33.21 8.7.19 13.05l6.41.03c-.07-8.95.29-17.92-.21-26.86.22-.48.66-1.43.88-1.91-5.63.17-11.47-.9-16.94.7m-117.75.19c.29 4.65.27 9.32.32 13.98.01 1.97.04 3.95 0 5.92-.03 6.95-.04 13.91.03 20.86 0 2.13 0 4.26.01 6.39-.17 8.61.3 17.23-.38 25.83 2.44.04 4.89.05 7.33.06.04-8.83.03-17.66.01-26.49v-5.24c.05-6.7-.07-13.4.1-20.09-.9-.36-1.81-.69-2.73-1.01.68.04 2.02.12 2.7.17-.05-2.13-.06-4.25-.07-6.37.02-4.71.02-9.42-.01-14.14-2.44.04-4.87.08-7.31.13m-121.34 1.06c-.22.45-.68 1.35-.91 1.79.64 5.92.26 11.87.57 17.8 16.83-.81 33.71.07 50.52-.78-2.45-.62-5.11-.76-7.34-2.05-3.11-2.07-4.39-6.26-3.46-9.81.86-2.1 2.69-3.56 4.24-5.15 2.23-.73 4.61-.95 6.81-1.79-16.8-.11-33.62-.09-50.43-.01m59.39 2.26c-.81.71-1.65 1.37-2.53 1.99.9.9 1.6 1.97 2.47 2.91 19.16.06 38.32.11 57.48-.03.79-1.07 1.68-2.06 2.7-2.92-.93-.62-1.85-1.25-2.75-1.89-19.12-.16-38.25-.04-57.37-.06m-16.82 3.25l-.3.02c-1.33 2.74-.91 5.71-.04 8.51 2.18 1.19 4.55 1.93 7.02 2.24.03-3.55.13-7.1.59-10.62-.22-4.5-5.58-2.7-7.27-.15m-82.89-.71c-3.59.2-7.3-.43-10.79.69-5.32.5-10.74 0-16 .94-4.73.4-9.49.28-14.22.66-5.86 1.05-11.91.26-17.75 1.36-2.74.21-5.49.29-8.24.38-.01.51-.01 1.55-.02 2.07l1.02-.02c1.32 4.23 2.58 8.48 4 12.67 12.65.01 25.3.01 37.94.02 3.57.21 6.67-1.75 10.02-2.59 2.04-.55 3.32 1.48 4.74 2.53 8.53.09 17.07.05 25.61.05-.15-6.16.1-12.31-.03-18.46l1.08-.22c-5.57-2.31-11.6-.03-17.36-.08m34.28-.8c.06 5.18.06 10.36.08 15.55 1.06-.04 2.12-.07 3.18-.11.15-5.03-.38-10.1.49-15.09l-.86-.08-.47-.62-1.08.15-1.34.2m-15.15 2.67c-.18.5-.54 1.5-.71 2 .14 2.63.15 5.25.14 7.88 4.51-.03 9.02-.01 13.53-.01.09-2.6.1-5.21.02-7.81-.11-.55-.34-1.64-.46-2.18-4.17.11-8.35-.12-12.52.12m164.67.57c.66 6.43.42 12.9.38 19.35 6.01.02 12.02.37 18.03.17.97-.94 1.96-1.87 2.97-2.78-5.74-.07-11.47-.09-17.21-.06-.1-5.55-.03-11.1-.03-16.65l-4.14-.03M6.88 36.85c-.59 2.02-1.69 4.13-.95 6.26 1.94 6.69 4.2 13.31 5.75 20.12 2.4 10.63 1.73 21.62 2.79 32.39.45 4.14 4.51 5.9 8.25 5.46-.36-11.65-.71-23.33-2.24-34.9-1.74-10.5-5.52-20.5-8.6-30.65-1.69.37-3.35.82-5 1.32m172.63.72c-2.22 1.4-.79 4.43-.96 6.54.11 2 .13 4.01.06 6.02-.23 3.61-1.18 7.84 1.8 10.62 19.31-.19 38.62-.04 57.92-.07.57-.54 1.7-1.61 2.27-2.14.06-2.83.05-5.67-.19-8.49-.09-2.02-.1-4.05-.03-6.08.17-1.85.25-3.71.35-5.56-.64-.46-1.92-1.37-2.56-1.82-18.05-.1-36.11.02-54.16-.07-1.52.19-3.41-.37-4.5 1.05M130.8 48.59c.07.91-.45 2.17.74 2.57 3.98-.45 7.85-1.5 11.73-2.44-4.16-.1-8.31-.09-12.47-.13m14.99 2.37c-1.4.17-3.46-.19-4.34 1.15-4.86-.36-9.4 1.94-14.19 2.48l-2.03.08c-.13.64-.41 1.92-.54 2.56.09 2.56.19 5.12.3 7.68 12.62.16 25.25-.06 37.87.09-.9-4.68-.44-9.45 1.13-13.94l.53.02c.52-.55 1.58-1.66 2.1-2.21-5.08.02-10.29-.64-15.28.63-1.86.45-3.73.85-5.55 1.46m142.09-1.87l.4 2.08c.82.93 1.61 1.87 2.4 2.82 23.1.19 46.21-.02 69.31.11 2.62-.15 6.28.87 6.91-2.75.59.88 1.16 1.78 1.69 2.7-.08-1.65-.13-3.31-.07-4.96-26.86-.07-53.76-.02-80.64 0M54.65 55.5c-4.6 2.31-9.89 3.44-13.79 6.97l3.1.99c6.35-2.29 12.39-5.38 18.67-7.87 2.67-1.35 6.73-2.05 6.53-5.84-5.08 1.26-9.72 3.72-14.51 5.75m111.24-2.67c-3.12 7.23-.21 15.24 1.92 22.35.72-.2 2.16-.59 2.89-.78.05-7.94.03-15.87-.03-23.81-1.78.17-4.11.17-4.78 2.24m-146.08 0c4.69 15.48 4.28 31.78 5.33 47.75 2.97-.45 6.05-.53 8.91-1.54.92-2.21 1.07-4.67 2.12-6.83 1.35-1.93 3.21-3.43 4.99-4.95C55.41 75.18 70.02 63.5 85.44 52.95c-3.49-.08-6.98-.2-10.47-.16-4.09-.28-7.03 3.1-10.67 4.4-.51 3.03-2.33 5.52-4.69 7.41-8.16 6.94-16.14 14.12-24.7 20.58-1.44-.45-3.44-.14-4.29-1.66-2.71-4.35-1.67-9.74-2.59-14.56-.44-3.72-2.09-7.31-1.82-11.08.11-2.02 1.98-3.2 3.84-3.32 8.4-.78 16.97.83 25.27-1.04-11.78-1.3-23.68-.35-35.51-.69m270.13 3.33c.06.44.17 1.32.22 1.77l-2.28.04c1.12 1.45 1.87 3.82 4.14 3.55 18.64.2 37.29.02 55.94.08 6.53-.12 13.09.38 19.59-.5.19-.75.56-2.24.74-2.99l-2.18-.08c.01-.5.02-1.5.02-2.01-25.39.11-50.8-.17-76.19.14M29.18 57.82c.57 5.11 2.44 10.01 2.58 15.17.05 3.14.46 6.27 1.6 9.21 9.35-6.89 17.73-14.97 26.87-22.13-4.94 2.16-9.81 4.49-14.86 6.38-2.05.99-4.12-.21-6.04-.9-1.1-2.77-.54-5.57 1.26-7.9-3.8.07-7.61.06-11.41.17m151.41 5.17c-.71.94-1.45 1.87-2.2 2.79-.11 6.88-.01 13.76-.06 20.65.84.63 1.67 1.27 2.51 1.91 19.12.02 38.24.01 57.36.01.82-.64 1.65-1.27 2.48-1.9-.15-6.15.04-12.31-.03-18.46.14-1.93-1.13-3.45-1.95-5.05-19.37.05-38.74-.05-58.11.05m-38.44 3.93c.58 5.34.54 10.71.46 16.08 4.79.2 9.59-.33 14.38.03 5.31.41 9.76 3.74 13.76 6.97.13-2.95.17-5.9.14-8.85-6.65-.31-13.31.16-19.96-.12-3.21.05-6.37-2-7.44-5.05-.58-3 .11-6.03.42-9.02l-1.76-.04m9.45.19c.08 1.97.06 3.96.37 5.92.7 1.75 2.39 2.84 3.63 4.19-1.14-3.32-1.44-6.8-.33-10.18-.92.02-2.75.05-3.67.07m-4.94 7.94c.61 2.27 3.27 2.54 5.07 3.39-2.86-2.94-3.43-6.96-3.65-10.87-1.02 2.34-1.94 4.88-1.42 7.48m11.57-6.81c-.22 1.58-.43 3.17-.63 4.76 1.15 1.66 2.29 3.32 3.4 5 1.89-.04 3.78-.07 5.68-.07-2.88-2.47-3.61-6.24-4.16-9.8-1.43.03-2.86.07-4.29.11m-33.34.86l.28 2.15-.77-.01c-7.47 12.55-16.46 24.1-24.71 36.13 7.58 4.25 16.34 5.51 24.51 8.21.19-2.17-.14-4.49.77-6.54 3.33-6.88 9.49-12.33 11.08-20.03.49-3.22 4.19-4.88 4.27-8.19.17-3.82-.25-7.65.21-11.46-5.19-.57-10.43-.2-15.64-.26m52.75 24.06c1.68.97 3.24 2.55 5.35 2.33 18.43-.02 36.86.11 55.28-.08.97-.81 1.96-1.61 2.96-2.41-1.04-.78-2.07-1.55-3.09-2.34-19.1-.03-38.19 0-57.29-.01-1.07.84-2.15 1.67-3.21 2.51m1.67 5.81c1.19.75 2.06 2.47 3.68 2.32 18.84.06 37.69-.08 56.54.06-.05-.65-.13-1.94-.17-2.58-20.02.17-40.04-.23-60.05.2m-5.28 1.83c1.69 2.31 3.47 4.57 5.25 6.82 18.58.05 37.15.04 55.73.05 7.11-.07 14.23.24 21.32-.31l1.16.05c-.07-.58-.2-1.75-.26-2.33-24.36-.59-48.73-.01-73.09-.3-1.3-.07-2.59-.28-3.87-.42-1.39-2.19-3.82-3.09-6.24-3.56z"></path><path d="M141.14 52.71c3.7-.55 7.58-.97 11.26-.07 2.92.94 3.04 5.66.1 6.64-3.4.76-6.98.62-10.41.15-2.51-.27-2.37-3.32-3-5.15l1.42-.36.63-1.21m-.26 3.52c3.97.44 7.97.32 11.95.17-.8-.86-1.59-1.72-2.38-2.58-3.32.21-7.37-.84-9.57 2.41z"></path></g><path d="M183.52 4.38c19.45-.11 38.9-.01 58.34-.05.49.85.98 1.7 1.48 2.56-20.12.27-40.24.24-60.36.02.14-.63.41-1.9.54-2.53zm-1.23 4.8c20.32-.2 40.65-.01 60.98-.1.06.63.19 1.89.26 2.52-20.19-.1-40.4.3-60.56-.19l-.68-2.23z"></path><path d="M155.66 11.24c8.08.06 16.17.01 24.25.03.03.67.08 2.01.11 2.68 21.71.05 43.41-.05 65.12.05.36-.89.72-1.77 1.08-2.66 5.59-.1 11.19-.07 16.78-.09.11 3.02.11 6.04.11 9.06-35.86.01-71.71.01-107.56 0 0-3.03.01-6.05.11-9.07zm17.29 11.14c.85.01 2.57.01 3.43.01-.52 11.19-.27 22.4-.32 33.6.1 14.35-.22 28.71.19 43.05-.82 0-2.48-.01-3.3-.01-.02-25.55.01-51.1 0-76.65zm79.41.23c1.65.03 3.3.07 4.95.11.47 14.45-.25 28.89.25 43.34-.35 12.19-.17 24.4-.22 36.6l-4.94-.06c.15-11.22-.27-22.45.23-33.66 1.03-.03 3.08-.1 4.11-.13 0-1.88-.01-3.75-.02-5.62-1.02-.03-3.07-.11-4.09-.15-.36-7.36-.36-14.76 0-22.13l4.06-.04c.04-1.89.03-3.79.05-5.68-1.02-.03-3.08-.1-4.11-.13-.31-4.14-.23-8.3-.27-12.45zm7.38 1.18c3.98 2.64 3.45 7.41 3.28 11.57l-3.36.04c-.11-3.87-.04-7.74.08-11.61zm-17.01 2.26c2.44-.05 4.87-.09 7.31-.13.03 4.72.03 9.43.01 14.14l-7-.03c-.05-4.66-.03-9.33-.32-13.98zm30.08.84c11.94 1.1 24-.46 35.9.9l-.24 2.34c-.47.33-1.4.99-1.87 1.33-.75 1.56-1.51 3.11-2.41 4.59-.16 3.66-.14 7.32-.08 10.98-.54 0-1.61.01-2.15.02.07-5.81.08-11.61-.11-17.41-.44.11-1.34.33-1.79.44-1.17.29-2.32.62-3.47.94-.59 1.77-1.32 3.5-2.39 5.05.17 3.78-1.48 8.48 1.43 11.55-1.14-.19-2.27-.34-3.4-.48-.34-5.71-.33-11.43-.21-17.14h-1.99c-.01.87-.03 2.61-.05 3.48l-.57-1.18c-.42-.83-.83-1.67-1.23-2.5-1.04.54-2.09 1.09-3.12 1.64-.12.85-.23 1.7-.34 2.55-3.07 3.74-1.35 8.93-1.69 13.34-3.48-.06-6.96-.18-10.44-.24.18-6.73-.05-13.47.22-20.2zm86.45.19c2.51 4.29 5.53 8.26 8.07 12.53 1.46 2.2.9 4.95 1.07 7.43-5.48.02-10.97.01-16.45.01.01-6.49.23-12.99-.6-19.44 2.63-.24 5.27-.35 7.91-.53z"></path><path d="M362.13 26.82c4.76.77 9.62.59 14.41.25.5 8.94.14 17.91.21 26.86l-6.41-.03c.02-4.35.32-8.72-.19-13.05-2.06-5.02-6.07-8.96-8.02-14.03zm-51.06.52c5.88.02 11.81-.5 17.65.39l-.24 2.4-1.88 1.32c-.74 1.57-1.51 3.13-2.41 4.61-.16 3.65-.14 7.31-.08 10.97-.54 0-1.61.01-2.15.02.07-5.81.08-11.61-.11-17.41l-1.79.44c-1.17.29-2.32.62-3.47.94-.6 1.77-1.32 3.51-2.39 5.05.16 3.79-1.48 8.47 1.42 11.54-1.13-.18-2.27-.33-3.4-.47-.45-6.6.19-13.28-1.15-19.8zm19.92-.04c5.92-.03 11.86-.25 17.77.31l-.28 2.49c-.47.35-1.4 1.03-1.87 1.37-.75 1.56-1.52 3.11-2.42 4.59-.16 3.65-.14 7.31-.08 10.97-.54 0-1.61.01-2.15.02.07-5.81.08-11.61-.11-17.41l-1.8.44c-1.16.29-2.31.61-3.45.93-.62 1.77-1.35 3.5-2.4 5.06.17 3.78-1.5 8.49 1.43 11.54-1.13-.18-2.28-.33-3.41-.47-.47-6.61.26-13.32-1.23-19.84zm-210.51 1.6c14.84.08 29.69.08 44.53.01-1.55 1.59-3.38 3.05-4.24 5.15-.93 3.55.35 7.74 3.46 9.81 2.23 1.29 4.89 1.43 7.34 2.05-16.81.85-33.69-.03-50.52.78-.31-5.93.07-11.88-.57-17.8zm60.3.47c19.12.02 38.25-.1 57.37.06.9.64 1.82 1.27 2.75 1.89-1.02.86-1.91 1.85-2.7 2.92-19.16.14-38.32.09-57.48.03-.87-.94-1.57-2.01-2.47-2.91.88-.62 1.72-1.28 2.53-1.99zm-65.43 1.74l1.34-.2-.51.99c.27.4.83 1.2 1.1 1.6l.96-2.12.86.08c-.87 4.99-.34 10.06-.49 15.09-1.06.04-2.12.07-3.18.11-.02-5.19-.02-10.37-.08-15.55z"></path><path d="M163.66 32.64l.3-.02c.52-.05 1.56-.14 2.07-.18.52-.07 1.57-.2 2.09-.26 1.03.2 2.07.4 3.11.59-.46 3.52-.56 7.07-.59 10.62-2.47-.31-4.84-1.05-7.02-2.24-.87-2.8-1.29-5.77.04-8.51zm-75.31.87c3.01-.39 6.03-.69 9-1.3.13 6.15-.12 12.3.03 18.46-8.54 0-17.08.04-25.61-.05-1.42-1.05-2.7-3.08-4.74-2.53-3.35.84-6.45 2.8-10.02 2.59-12.64-.01-25.29-.01-37.94-.02-1.42-4.19-2.68-8.44-4-12.67 2.58-.04 5.15-.09 7.72-.23 6.65-1.42 13.53-.36 20.23-1.59 9.28-.24 18.53-.94 27.8-1.44 5.76-1.34 11.72-.36 17.53-1.22zm176.52.84l4.14.03c0 5.55-.07 11.1.03 16.65 5.74-.03 11.47-.01 17.21.06-1.01.91-2 1.84-2.97 2.78-6.01.2-12.02-.15-18.03-.17.04-6.45.28-12.92-.38-19.35zM6.88 36.85c1.65-.5 3.31-.95 5-1.32 3.08 10.15 6.86 20.15 8.6 30.65 1.53 11.57 1.88 23.25 2.24 34.9-3.74.44-7.8-1.32-8.25-5.46-1.06-10.77-.39-21.76-2.79-32.39-1.55-6.81-3.81-13.43-5.75-20.12-.74-2.13.36-4.24.95-6.26zm92.61-1.07c4.56.15 9.13.13 13.69.06.08 2.6.07 5.21-.02 7.81-4.51 0-9.02-.02-13.53.01.01-2.63 0-5.25-.14-7.88zm80.02 1.79c1.09-1.42 2.98-.86 4.5-1.05 18.05.09 36.11-.03 54.16.07.64.45 1.92 1.36 2.56 1.82-.1 1.85-.18 3.71-.35 5.56-20.61.21-41.22-.04-61.83.14.17-2.11-1.26-5.14.96-6.54zm80.17 3.33c.88.02 2.64.07 3.52.09-.07 7.45-.2 14.9-.17 22.34-.77.02-2.31.04-3.08.05 0 1.73.01 3.46.03 5.2.75.04 2.25.13 3.01.17.16 9.09.17 18.19.07 27.28.4 2.42-1.84 3.74-3.3 5.2-.22-20.11-.26-40.22-.08-60.33zm-16.63 5.05c1.46.1 2.92.18 4.37.31.92.32 1.83.65 2.73 1.01-.17 6.69-.05 13.39-.1 20.09-2.33-.19-4.65-.37-6.97-.55-.07-6.95-.06-13.91-.03-20.86zM130.8 48.59c4.16.04 8.31.03 12.47.13-3.88.94-7.75 1.99-11.73 2.44-1.19-.4-.67-1.66-.74-2.57zm237.72.5c-.06 1.65-.01 3.31.07 4.96-.53-.92-1.1-1.82-1.69-2.7-.63 3.62-4.29 2.6-6.91 2.75-23.1-.13-46.21.08-69.31-.11-.79-.95-1.58-1.89-2.4-2.82 24.23.23 48.46.03 72.69.11 2.58-.3 5.97.45 7.55-2.19z"></path><path d="M54.65 55.5c4.79-2.03 9.43-4.49 14.51-5.75.2 3.79-3.86 4.49-6.53 5.84-6.28 2.49-12.32 5.58-18.67 7.87l-3.1-.99c3.9-3.53 9.19-4.66 13.79-6.97zm123.96-5.37c20.6-.2 41.2-.05 61.8-.08.24 2.82.25 5.66.19 8.49-.57.53-1.7 1.6-2.27 2.14-19.3.03-38.61-.12-57.92.07-2.98-2.78-2.03-7.01-1.8-10.62zm-37.16 1.98c.88-1.34 2.94-.98 4.34-1.15 6.07.17 12.13-.15 18.2.1-1.57 4.49-2.03 9.26-1.13 13.94-12.62-.15-25.25.07-37.87-.09-.11-2.56-.21-5.12-.3-7.68 4.84-.77 9.66-1.68 14.4-2.95.63 1.83.49 4.88 3 5.15 3.43.47 7.01.61 10.41-.15 2.94-.98 2.82-5.7-.1-6.64-3.68-.9-7.56-.48-11.26.07l.31-.6zm24.44.72c.67-2.07 3-2.07 4.78-2.24.06 7.94.08 15.87.03 23.81-.73.19-2.17.58-2.89.78-2.13-7.11-5.04-15.12-1.92-22.35z"></path><path d="M19.81 52.83c11.83.34 23.73-.61 35.51.69-8.3 1.87-16.87.26-25.27 1.04-1.86.12-3.73 1.3-3.84 3.32-.27 3.77 1.38 7.36 1.82 11.08.92 4.82-.12 10.21 2.59 14.56.85 1.52 2.85 1.21 4.29 1.66 8.56-6.46 16.54-13.64 24.7-20.58 2.36-1.89 4.18-4.38 4.69-7.41 3.64-1.3 6.58-4.68 10.67-4.4 3.49-.04 6.98.08 10.47.16C70.02 63.5 55.41 75.18 41.16 87.26c-1.78 1.52-3.64 3.02-4.99 4.95-1.05 2.16-1.2 4.62-2.12 6.83-2.86 1.01-5.94 1.09-8.91 1.54-1.05-15.97-.64-32.27-5.33-47.75zm268.07 5.14l2.28-.04c25.32.08 50.64-.13 75.95.1l2.18.08c-.18.75-.55 2.24-.74 2.99-6.5.88-13.06.38-19.59.5-18.65-.06-37.3.12-55.94-.08-2.27.27-3.02-2.1-4.14-3.55zm-107.29 5.02c19.37-.1 38.74 0 58.11-.05.82 1.6 2.09 3.12 1.95 5.05.07 6.15-.12 12.31.03 18.46-.83.63-1.66 1.26-2.48 1.9-19.12 0-38.24.01-57.36-.01-.84-.64-1.67-1.28-2.51-1.91.05-6.89-.05-13.77.06-20.65.75-.92 1.49-1.85 2.2-2.79m-1.32 6.9c-.11 2.02-.21 4.03-.3 6.05 20.3.09 40.6-.06 60.91.11.03-2 .07-3.99.11-5.99-20.24-.26-40.48.05-60.72-.17zm-37.12-2.97l1.76.04c-.31 2.99-1 6.02-.42 9.02 1.07 3.05 4.23 5.1 7.44 5.05 6.65.28 13.31-.19 19.96.12.03 2.95-.01 5.9-.14 8.85-4-3.23-8.45-6.56-13.76-6.97-4.79-.36-9.59.17-14.38-.03.08-5.37.12-10.74-.46-16.08z"></path><path d="M151.6 67.11c.92-.02 2.75-.05 3.67-.07-1.11 3.38-.81 6.86.33 10.18-1.24-1.35-2.93-2.44-3.63-4.19-.31-1.96-.29-3.95-.37-5.92zm-11.07 2.25c-.46 3.81-.04 7.64-.21 11.46-.08 3.31-3.78 4.97-4.27 8.19-1.59 7.7-7.75 13.15-11.08 20.03-.91 2.05-.58 4.37-.77 6.54-8.17-2.7-16.93-3.96-24.51-8.21 8.25-12.03 17.24-23.58 24.71-36.13l.77.01c3.96 0 7.94.22 11.9-.05 1.5.18 2.52-.86 3.46-1.84zm102.56 3.84c2.32-.2 4.64-.39 6.96-.6.02 8.83.03 17.66-.01 26.49-2.44-.01-4.89-.02-7.33-.06.68-8.6.21-17.22.38-25.83zm-65.45 19.96c1.06-.84 2.14-1.67 3.21-2.51 19.1.01 38.19-.02 57.29.01 1.02.79 2.05 1.56 3.09 2.34-1 .8-1.99 1.6-2.96 2.41-18.42.19-36.85.06-55.28.08-2.11.22-3.67-1.36-5.35-2.33zm-3.61 7.64c2.42.47 4.85 1.37 6.24 3.56.48.86.94 1.73 1.39 2.61 24.88.64 49.79-.19 74.67.39-7.09.55-14.21.24-21.32.31-18.58-.01-37.15 0-55.73-.05-1.78-2.25-3.56-4.51-5.25-6.82z"></path><path d="M155.83 9.09c8.05-.04 16.1-.02 24.15-.01-.01.55-.05 1.64-.07 2.19-8.08-.02-16.17.03-24.25-.03.04-.54.13-1.62.17-2.15zm90.08 0c5.67-.05 11.35-.01 17.03-.02.01.54.05 1.63.06 2.18-5.59.02-11.19-.01-16.78.09-.08-.56-.24-1.69-.31-2.25zm27.01 12.32c.55-1.81 2.05-3.09 4.02-2.71 25.35 0 50.71.01 76.06-.01 2.03-.45 3.42 1.08 4.26 2.73-28.12-.01-56.23.01-84.34-.01zm-.03 3.42c28.37.56 56.76.05 85.14.26l1.23 1.99c-2.64.18-5.28.29-7.91.53-.87.04-1.73.04-2.59 0-5.91-.56-11.85-.34-17.77-.31-.47 1.19-1.23 1.34-2.27.43-5.84-.89-11.77-.37-17.65-.39-.6.98-1.39 1.13-2.36.45-11.9-1.36-23.96.2-35.9-.9l.08-2.06zm87.59 1.03c5.47-1.6 11.31-.53 16.94-.7-.22.48-.66 1.43-.88 1.91-4.79.34-9.65.52-14.41-.25l-1.65-.96zm-239.09 1.25c16.81-.08 33.63-.1 50.43.01-2.2.84-4.58 1.06-6.81 1.79-14.84.07-29.69.07-44.53-.01.23-.44.69-1.34.91-1.79zm42.57 5.51c1.69-2.55 7.05-4.35 7.27.15-1.04-.19-2.08-.39-3.11-.59-.52.06-1.57.19-2.09.26-.51.04-1.55.13-2.07.18zm121.1-1.18c1.03-.55 2.08-1.1 3.12-1.64.4.83.81 1.67 1.23 2.5-2.84.28-1.59 3.04-1.92 4.75-.47-.06-1.41-.2-1.89-.27 0 3.31-.04 6.62.06 9.93-.65.15-1.97.46-2.63.62.34-4.41-1.38-9.6 1.69-13.34.11-.85.22-1.7.34-2.55zm11.53-.42c1.15-.32 2.3-.65 3.47-.94l-.04 2.85c-.51.04-1.55.1-2.07.14.01 1.28.03 2.56.06 3.84-.51 0-1.53.01-2.04.01.06 3.56.33 7.17-.34 10.7-2.91-3.07-1.26-7.77-1.43-11.55 1.07-1.55 1.8-3.28 2.39-5.05zm11.88-.89c.53-.36 1.59-1.07 2.12-1.43-.5 1.82-.02 4.53-2.6 4.72.02 1.17.03 2.34.05 3.51-.52.03-1.56.1-2.07.14 0 3.31-.01 6.63-.04 9.95-.45.01-1.36.01-1.82.01-.06-3.66-.08-7.32.08-10.98.9-1.48 1.66-3.03 2.41-4.59.47-.34 1.4-1 1.87-1.33zm8.12.89c1.15-.32 2.3-.65 3.47-.94-.01.71-.03 2.14-.03 2.85-.52.04-1.56.1-2.08.14.01 1.28.03 2.56.06 3.84-.51 0-1.53.01-2.04.01.06 3.56.33 7.17-.35 10.69-2.9-3.07-1.26-7.75-1.42-11.54 1.07-1.54 1.79-3.28 2.39-5.05zm11.89-.89c.52-.35 1.58-1.05 2.1-1.4-.49 1.82-.02 4.5-2.59 4.69.02 1.17.03 2.34.05 3.51-.52.03-1.56.1-2.07.14 0 3.32-.01 6.64-.04 9.96h-1.82c-.06-3.66-.08-7.32.08-10.97.9-1.48 1.67-3.04 2.41-4.61l1.88-1.32zm8.12.88c1.14-.32 2.29-.64 3.45-.93 0 .71-.02 2.14-.02 2.85-.52.04-1.56.1-2.08.14.01 1.28.03 2.56.06 3.84-.51 0-1.53.01-2.04.01.06 3.56.33 7.16-.34 10.69-2.93-3.05-1.26-7.76-1.43-11.54 1.05-1.56 1.78-3.29 2.4-5.06zm11.88-.91c.54-.37 1.6-1.11 2.13-1.48-.53 1.83-.01 4.6-2.62 4.8.01 1.17.03 2.34.05 3.51-.52.04-1.56.1-2.07.13 0 3.32-.01 6.64-.04 9.96-.45.01-1.36.01-1.82.01-.06-3.66-.08-7.32.08-10.97.9-1.48 1.67-3.03 2.42-4.59.47-.34 1.4-1.02 1.87-1.37zM81.07 31.91c5.76.05 11.79-2.23 17.36.08l-1.08.22c-2.97.61-5.99.91-9 1.3-5.81.86-11.77-.12-17.53 1.22-9.27.5-18.52 1.2-27.8 1.44-6.7 1.23-13.58.17-20.23 1.59-2.57.14-5.14.19-7.72.23l-1.02.02c.01-.52.01-1.56.02-2.07 2.75-.09 5.5-.17 8.24-.38 5.84-1.1 11.89-.31 17.75-1.36 4.73-.38 9.49-.26 14.22-.66 5.26-.94 10.68-.44 16-.94 3.49-1.12 7.2-.49 10.79-.69zm35.62-1l1.08-.15.47.62-.96 2.12c-.27-.4-.83-1.2-1.1-1.6l.51-.99zm-16.49 2.87c4.17-.24 8.35-.01 12.52-.12.12.54.35 1.63.46 2.18-4.56.07-9.13.09-13.69-.06.17-.5.53-1.5.71-2zm152.43 1.28c1.03.03 3.09.1 4.11.13-.02 1.89-.01 3.79-.05 5.68l-4.06.04c.04-1.95.04-3.9 0-5.85zm7.03.34l3.36-.04c.05 1.87.08 3.75.18 5.63-.88-.02-2.64-.07-3.52-.09.02-1.83.02-3.66-.02-5.5zm-16.61 4.63l7 .03c.01 2.12.02 4.24.07 6.37-.68-.05-2.02-.13-2.7-.17-1.45-.13-2.91-.21-4.37-.31.04-1.97.01-3.95 0-5.92zm-64.5 4.08c20.61-.18 41.22.07 61.83-.14-.07 2.03-.06 4.06.03 6.08-20.6.03-41.2-.12-61.8.08.07-2.01.05-4.02-.06-6.02zm-32.76 6.85c1.82-.61 3.69-1.01 5.55-1.46 4.99-1.27 10.2-.61 15.28-.63-.52.55-1.58 1.66-2.1 2.21l-.53-.02c-6.07-.25-12.13.07-18.2-.1zm142.09-1.87c26.88-.02 53.78-.07 80.64 0-1.58 2.64-4.97 1.89-7.55 2.19-24.23-.08-48.46.12-72.69-.11l-.4-2.08zm-160.62 5.5c4.79-.54 9.33-2.84 14.19-2.48l-.31.6-.63 1.21-1.42.36c-4.74 1.27-9.56 2.18-14.4 2.95.13-.64.41-1.92.54-2.56l2.03-.08zm13.62 1.64c2.2-3.25 6.25-2.2 9.57-2.41.79.86 1.58 1.72 2.38 2.58-3.98.15-7.98.27-11.95-.17zm149.06-.07c25.39-.31 50.8-.03 76.19-.14 0 .51-.01 1.51-.02 2.01-25.31-.23-50.63-.02-75.95-.1-.05-.45-.16-1.33-.22-1.77zm-37.31 6.88c1.02.04 3.07.12 4.09.15.01 1.87.02 3.74.02 5.62-1.03.03-3.08.1-4.11.13.05-1.96.04-3.93 0-5.9zm7.32.34c.77-.01 2.31-.03 3.08-.05 0 1.81-.01 3.62-.04 5.42-.76-.04-2.26-.13-3.01-.17-.02-1.74-.03-3.47-.03-5.2zm-16.87 3.43c2.32.18 4.64.36 6.97.55v5.24c-2.32.21-4.64.4-6.96.6-.01-2.13-.01-4.26-.01-6.39zM124.89 69.1c5.21.06 10.45-.31 15.64.26-.94.98-1.96 2.02-3.46 1.84-3.96.27-7.94.05-11.9.05l-.28-2.15zm54.38.79c20.24.22 40.48-.09 60.72.17-.04 2-.08 3.99-.11 5.99-20.31-.17-40.61-.02-60.91-.11.09-2.02.19-4.03.3-6.05zm1 34.47c1.28.14 2.57.35 3.87.42 24.36.29 48.73-.29 73.09.3.06.58.19 1.75.26 2.33l-1.16-.05c-24.88-.58-49.79.25-74.67-.39-.45-.88-.91-1.75-1.39-2.61z" fill="#fefdfe"></path></svg>