<svg data-v-ea210746="" xmlns="http://www.w3.org/2000/svg" fill="#fff" viewBox="0 0 64 64" class="ui-icon max-h-full w-full" style="fill: rgb(93, 182, 229); opacity: 1;"><g fill="#000"><path d="M55.98 27.04l.02 4.99a1.09 1.09 0 00.59.95c1.48.76 2.65 1.87 2.79 3.63q.66 8.12.47 16.36c-.06 2.53-1.38 3.65-2.48 5.66-1.93 3.5-5.34 4.62-9.11 2.78q-2.38-1.17-2.59-3.83a.62.62 0 00-.62-.58H19.01q-.57 0-.68.57-.64 3.45-3.6 4.29-5.95 1.71-8.3-3.83-.22-.52-.63-.9c-1-.92-1.66-1.87-1.64-3.3q.08-8.98.05-17.24 0-.62.38-1.12 1.13-1.49 2.82-2.5.57-.34.58-1l.03-4.76a.72.72 0 00-.72-.72q-1.37.02-2.32-.86-.4-.36-.43-.89-.21-3.32.02-5.96.18-2.22 2.6-2 .83.08.83-.75L7.99 4.04q0-2.22 2.22-2.24l4.72-.05q2.46-.03 2.52 2.43l.06 2.31q.02.72.73.72l27.49.01q.7 0 .7-.7l.01-2.62q.01-2.14 2.16-2.14l5.42.03q1.97 0 1.97 1.98v12.31q0 .56.55.69.27.06.55.02a2.1 2.04 84.9 012.37 2.04q.05 2.42.03 4.84-.01 2.86-2.91 2.78-.61-.01-.6.59M17 54.74l29.79.01q.96 0 .93.95-.08 3.85 3.59 4.33c3.78.5 3.59-3.35 5.14-5.44q.73-.98.77-2.19.22-6.43-.03-15.39-.02-.59-.48-.96l-2.41-1.92q-.57-.45-.57-1.18l-.04-8.17q0-.64.63-.52 1.15.2 2.24-.08a.92.92 0 00.69-.9l-.03-3.41q-.01-.83-.85-.85l-1.9-.04q-.75-.02-.75-.76l.02-13.63q0-.66-.65-.65l-3.83.03q-.53 0-.53.53v4.26q0 .74-.74.74l-31.96.04q-.76 0-.76-.76l-.03-4.3q0-.51-.51-.51l-3.94-.02a.52.51 0 00-.52.51l.02 14.01a.55.55 0 01-.63.54q-1.11-.16-2.17.05-.71.13-.71.86l.03 3.47q.01.63.61.83.99.33 1.97.06.88-.23.88.67l-.01 8.21a1.22 1.2 71.9 01-.48.97L7 36.26a1.44 1.43 71.4 00-.56 1.14q.07 7.5.03 15.47-.01 1.52 1.46 2.05.6.21.65.85c.09 1.05.07 1.85.74 2.74 2.57 3.43 7.19 1.03 7.02-3.08q-.03-.69.66-.69"></path><rect width="33.94" height="9.26" x="15.03" y="16.73" rx=".4"></rect><rect width="20.56" height="18.26" x="21.72" y="31.26" rx=".27"></rect><rect width="8.5" height="4.78" x="-4.25" y="-2.39" rx=".65" transform="rotate(-.4 6291.03 -2023.516)"></rect><rect width="8.48" height="4.76" x="-4.24" y="-2.38" rx=".85" transform="rotate(.2 -12545.841 14254.197)"></rect></g><path d="M16.34 55.43c.17 4.11-4.45 6.51-7.02 3.08-.67-.89-.65-1.69-.74-2.74q-.05-.64-.65-.85-1.47-.53-1.46-2.05.04-7.97-.03-15.47A1.44 1.43 71.4 017 36.26l2.78-2.13a1.22 1.2 71.9 00.48-.97l.01-8.21q0-.9-.88-.67-.98.27-1.97-.06-.6-.2-.61-.83l-.03-3.47q0-.73.71-.86 1.06-.21 2.17-.05a.55.55 0 00.63-.54l-.02-14.01a.52.51 0 01.52-.51l3.94.02q.51 0 .51.51l.03 4.3q0 .76.76.76l31.96-.04q.74 0 .74-.74V4.5q0-.53.53-.53l3.83-.03q.65-.01.65.65l-.02 13.63q0 .74.75.76l1.9.04q.84.02.85.85l.03 3.41a.92.92 0 01-.69.9q-1.09.28-2.24.08-.63-.12-.63.52l.04 8.17q0 .73.57 1.18l2.41 1.92q.46.37.48.96.25 8.96.03 15.39-.04 1.21-.77 2.19c-1.55 2.09-1.36 5.94-5.14 5.44q-3.67-.48-3.59-4.33.03-.95-.93-.95L17 54.74q-.69 0-.66.69m32.63-38.3a.4.4 0 00-.4-.4H15.43a.4.4 0 00-.4.4v8.46a.4.4 0 00.4.4h33.14a.4.4 0 00.4-.4zm-6.69 14.4a.27.27 0 00-.27-.27H21.99a.27.27 0 00-.27.27v17.72a.27.27 0 00.27.27h20.02a.27.27 0 00.27-.27zM18.518 42.1a.65.65 0 00-.655-.645l-7.2.05a.65.65 0 00-.645.655l.024 3.48a.65.65 0 00.655.645l7.2-.05a.65.65 0 00.645-.655zm35.407.265a.85.85 0 00-.847-.853l-6.78-.024a.85.85 0 00-.853.847l-.01 3.06a.85.85 0 00.847.853l6.78.024a.85.85 0 00.853-.847z"></path></svg>