<svg data-v-ea210746="" xmlns="http://www.w3.org/2000/svg" fill="#fff" viewBox="0 0 64 64" class="ui-icon max-h-full w-full" style="fill: rgb(72, 249, 125); opacity: 1;"><g fill="#000"><path d="M10.42 11.95q8.41-9.2 20.61-9.56C47.45 1.9 60.41 14.28 60.8 30.68c.07 2.83-1.55 5.36-3.52 7.26Q46.04 48.76 34.24 60.37q-2.23 2.19-4.46.01Q18.01 48.85 6.05 37.25c-1.65-1.6-2.92-4.2-2.87-6.52q.28-11.16 7.24-18.78m-2.79 8.67c-1.79 4.18-3.71 11.21-.1 14.75 5.79 5.69 11.55 11.68 17.65 17.17q3.13 2.82 5.99 6.06a1.1 1.1 0 001.64 0q2.89-3.25 6.26-6.32C44.66 47.2 49.99 41.7 55.29 36.5c2.51-2.45 3.7-4.51 3.19-8.13q-1.41-9.92-8.13-16.39C37.15-.71 14.91 3.62 7.63 20.62"></path><path d="M37.86 32.28c-1.53 5.68-3.55 11.31-5.35 16.89q-.51 1.56-1 0-2.55-7.96-5.14-15.7-.61-1.81-.39-3.6c.37-3.23 5-3.58 7.49-3.28q5.73.7 4.39 5.69m-15.31 2.25c1.43 4.87 3.24 9.61 5.08 14.43q.77 2.03-.8.52-7.09-6.83-14.49-14.2c-2.06-2.06-1.56-5.82 1.59-6.44 4.82-.96 7.37 1.41 8.62 5.69m13.83 14.31c1.83-4.66 3.58-9.39 5.02-14.13 1.29-4.27 3.61-6.81 8.53-5.91 3.89.7 3.5 4.74 1.24 6.97q-7.2 7.09-13.93 13.64-1.75 1.7-.86-.57"></path></g><path d="M7.63 20.62c7.28-17 29.52-21.33 42.72-8.64q6.72 6.47 8.13 16.39c.51 3.62-.68 5.68-3.19 8.13-5.3 5.2-10.63 10.7-16.22 15.78q-3.37 3.07-6.26 6.32a1.1 1.1 0 01-1.64 0q-2.86-3.24-5.99-6.06c-6.1-5.49-11.86-11.48-17.65-17.17-3.61-3.54-1.69-10.57.1-14.75m24.88 28.55c1.8-5.58 3.82-11.21 5.35-16.89q1.34-4.99-4.39-5.69c-2.49-.3-7.12.05-7.49 3.28q-.22 1.79.39 3.6 2.59 7.74 5.14 15.7.49 1.56 1 0m-4.88-.21c-1.84-4.82-3.65-9.56-5.08-14.43-1.25-4.28-3.8-6.65-8.62-5.69-3.15.62-3.65 4.38-1.59 6.44q7.4 7.37 14.49 14.2 1.57 1.51.8-.52M41.4 34.71c-1.44 4.74-3.19 9.47-5.02 14.13q-.89 2.27.86.57 6.73-6.55 13.93-13.64c2.26-2.23 2.65-6.27-1.24-6.97-4.92-.9-7.24 1.64-8.53 5.91"></path></svg>