<svg data-v-ea210746="" xmlns="http://www.w3.org/2000/svg" fill="#fff" viewBox="0 0 64 64" class="ui-icon max-h-full w-full" style="fill: rgb(93, 182, 229); opacity: 1;"><path fill="#000" d="M38.02 16.44q2.5 0 3.68 2.07 3.41 5.97 8.13 13.78c1.08 1.78.76 3.89-.98 5.07-1.68 1.13-4.34 2.55-6.1.85a.41.41 0 00-.7.29q-.08 9.22-.04 18.57c.01 1.68-1.42 3.21-3.18 3.18-1.62-.02-4.43.44-5.42-1.17q-.42-.68-.85-.01c-1.06 1.62-4.3 1.21-5.86 1.11a2.92 2.91-88 01-2.71-2.91V25.23a1.86 1.84 24.1 00-.48-1.24l-8.41-9.4q-2.79-3.12.07-6.18.31-.34.68-.61 3.3-2.37 6.08.59l3.49 3.72q.63.68.59-.24c-.05-1.51-.05-3.06.68-4.42 2.65-5 10.56-5.16 12.75.45q1.7 4.36-1.65 8.02-.48.52.23.52m-.34-5.8a4.73 4.73 0 00-4.73-4.73 4.73 4.73 0 00-4.73 4.73 4.73 4.73 0 004.73 4.73 4.73 4.73 0 004.73-4.73m2.06 20.06q0-1.7.87-.23l3.09 5.23q.94 1.59 2.45.54l.86-.6q1.47-1.02.56-2.56l-7.9-13.39a2.01 2 74.3 00-1.74-.98l-9.09.06a1.15 1.13 68 01-.83-.36l-7.96-8.63q-1.11-1.21-2.5-.32l-.78.5q-1.69 1.09-.35 2.59l8.95 9.99q.92 1.03.92 2.4l.01 31.32q0 1.71 1.71 1.74l.74.01q2.29.03 2.28-2.26L31.01 40q0-.24.24-.25l3.5-.01q.27 0 .27.26l.01 15.76q0 2.2 2.2 2.28.21.01.38.01 2.13.08 2.13-2.06z"></path><circle cx="32.95" cy="10.64" r="4.73"></circle><path d="M39.74 30.7v25.29q0 2.14-2.13 2.06-.17 0-.38-.01-2.2-.08-2.2-2.28L35.02 40q0-.26-.27-.26l-3.5.01q-.24.01-.24.25l.02 15.75q.01 2.29-2.28 2.26l-.74-.01q-1.71-.03-1.71-1.74l-.01-31.32q0-1.37-.92-2.4l-8.95-9.99q-1.34-1.5.35-2.59l.78-.5q1.39-.89 2.5.32l7.96 8.63a1.15 1.13 68 00.83.36l9.09-.06a2.01 2 74.3 011.74.98l7.9 13.39q.91 1.54-.56 2.56l-.86.6q-1.51 1.05-2.45-.54l-3.09-5.23q-.87-1.47-.87.23"></path></svg>