<svg data-v-ea210746="" xmlns="http://www.w3.org/2000/svg" fill="#fff" viewBox="0 0 64 64" class="ui-icon max-h-full w-full" style="fill: rgb(156, 110, 175); opacity: 1;"><g fill="none" stroke="gray" stroke-width="2"><path d="M3.72 32q0 1.1.23 2.19.11.5.62.5H9.3a1.41 1.39-6.4 011.37 1.08Q14 49.83 28.4 53.14q.55.12.55.66v4.93a1.22 1.22 0 001.02 1.2q.8.14 2.03.14 1.22 0 2.02-.14a1.22 1.22 0 001.02-1.2V53.8q0-.54.55-.66 14.4-3.31 17.73-17.37a1.41 1.39 6.4 011.37-1.08h4.73q.51 0 .62-.5.23-1.09.23-2.19t-.23-2.19q-.11-.5-.62-.5h-4.73a1.41 1.39-6.4 01-1.37-1.08q-3.33-14.06-17.73-17.37-.55-.12-.55-.66V5.27a1.22 1.22 0 00-1.02-1.2q-.8-.14-2.03-.14-1.22 0-2.02.14a1.22 1.22 0 00-1.02 1.2v4.93q0 .54-.55.66Q14 14.17 10.67 28.23a1.41 1.39 6.4 01-1.37 1.08H4.57q-.51 0-.62.5-.23 1.09-.23 2.19" vector-effect="non-scaling-stroke"></path><path d="M48.23 31.99A16.23 16.23 0 0032 15.76a16.23 16.23 0 00-16.23 16.23A16.23 16.23 0 0032 48.22a16.23 16.23 0 0016.23-16.23" vector-effect="non-scaling-stroke"></path><path d="M30.34 37.53q.01 2.65-1.71.85-.54-.57-1.09-2.21-.19-.57-.78-.57h-3.47q-.74 0-.67.73.54 6.36 6.99 7.47.62.11.62.74v1.08q0 .87.87.87h1.75a.69.69 0 00.68-.56q.11-.63.04-.88-.29-.92.98-1.17 7.34-1.42 6.83-7.66-.38-4.58-3.52-5.59-2.18-.71-3.89-1.67-.53-.3-.53-.9v-2.99q0-.55.54-.49c1.25.14 1.41 1.37 1.7 2.24q.18.52.72.52h3.7q.58 0 .58-.58c0-4.47-2.9-5.75-6.63-6.66q-.49-.12-.49-.63v-1.91a.83.83 0 00-.83-.83h-1.76a.66.66 0 00-.66.66v2.09q0 .53-.51.64c-4.55.97-7.19 2.93-6.18 8.22.56 2.89 3.35 4.2 5.91 5.01a1.28 1.15-82.6 01.81 1.18v3" vector-effect="non-scaling-stroke"></path><path d="M30.2 27.76l.15-2.86a.25.25 0 00-.23-.26l-.17-.01a1.52 1.5-87 00-1.58 1.44l-.02.32a1.52 1.5-87 001.42 1.6h.17a.25.25 0 00.26-.23m3.24 7.19l-.1 4.04a.34.34 0 00.34.34l.24.01a2.3 2.28 1.3 002.35-2.23v-.16a2.3 2.28 1.3 00-2.25-2.33h-.24a.34.34 0 00-.34.33" vector-effect="non-scaling-stroke"></path></g><g fill="#000"><path d="M31.96 1.74q2.05 0 3.02.23a2.69 2.58 5.9 012.07 2.44l.13 3.71a.92.82-83.6 00.59.83Q51.23 13 55.13 26.07q.14.46.6.63 1.56.56 3.41.35c3.14-.37 3.4 2.43 3.4 4.91s-.27 5.28-3.41 4.91q-1.85-.21-3.41.35-.46.17-.6.63-3.91 13.06-17.37 17.1a.92.82 83.6 00-.59.83l-.13 3.71a2.69 2.58-5.9 01-2.08 2.44q-.97.23-3.02.23t-3.02-.23a2.69 2.58 5.9 01-2.07-2.44l-.13-3.71a.92.82-83.6 00-.59-.83Q12.66 50.9 8.76 37.83q-.14-.46-.6-.63-1.56-.56-3.41-.35c-3.14.37-3.4-2.43-3.4-4.91s.26-5.28 3.4-4.91q1.85.21 3.41-.35.46-.17.6-.63 3.91-13.06 17.38-17.1a.92.82 83.6 00.59-.83l.13-3.71a2.69 2.58-5.9 012.07-2.44q.97-.23 3.03-.23M3.72 32q0 1.1.23 2.19.11.5.62.5H9.3a1.41 1.39-6.4 011.37 1.08Q14 49.83 28.4 53.14q.55.12.55.66v4.93a1.22 1.22 0 001.02 1.2q.8.14 2.03.14 1.22 0 2.02-.14a1.22 1.22 0 001.02-1.2V53.8q0-.54.55-.66 14.4-3.31 17.73-17.37a1.41 1.39 6.4 011.37-1.08h4.73q.51 0 .62-.5.23-1.09.23-2.19t-.23-2.19q-.11-.5-.62-.5h-4.73a1.41 1.39-6.4 01-1.37-1.08q-3.33-14.06-17.73-17.37-.55-.12-.55-.66V5.27a1.22 1.22 0 00-1.02-1.2q-.8-.14-2.03-.14-1.22 0-2.02.14a1.22 1.22 0 00-1.02 1.2v4.93q0 .54-.55.66Q14 14.17 10.67 28.23a1.41 1.39 6.4 01-1.37 1.08H4.57q-.51 0-.62.5-.23 1.09-.23 2.19"></path><path d="M48.23 31.99A16.23 16.23 0 0132 48.22a16.23 16.23 0 01-16.23-16.23A16.23 16.23 0 0132 15.76a16.23 16.23 0 0116.23 16.23m-17.89 5.54q.01 2.65-1.71.85-.54-.57-1.09-2.21-.19-.57-.78-.57h-3.47q-.74 0-.67.73.54 6.36 6.99 7.47.62.11.62.74v1.08q0 .87.87.87h1.75a.69.69 0 00.68-.56q.11-.63.04-.88-.29-.92.98-1.17 7.34-1.42 6.83-7.66-.38-4.58-3.52-5.59-2.18-.71-3.89-1.67-.53-.3-.53-.9v-2.99q0-.55.54-.49c1.25.14 1.41 1.37 1.7 2.24q.18.52.72.52h3.7q.58 0 .58-.58c0-4.47-2.9-5.75-6.63-6.66q-.49-.12-.49-.63v-1.91a.83.83 0 00-.83-.83h-1.76a.66.66 0 00-.66.66v2.09q0 .53-.51.64c-4.55.97-7.19 2.93-6.18 8.22.56 2.89 3.35 4.2 5.91 5.01a1.28 1.15-82.6 01.81 1.18z"></path><path d="M30.2 27.76a.25.25 0 01-.26.23h-.17a1.52 1.5-87 01-1.42-1.6l.02-.32a1.52 1.5-87 011.58-1.44l.17.01a.25.25 0 01.23.26zm3.24 7.19a.34.34 0 01.34-.33h.24a2.3 2.28 1.3 012.25 2.33v.16a2.3 2.28 1.3 01-2.35 2.23l-.24-.01a.34.34 0 01-.34-.34z"></path></g><path d="M31.99 3.93q1.23 0 2.03.14a1.22 1.22 0 011.02 1.2v4.93q0 .54.55.66 14.4 3.31 17.73 17.37a1.41 1.39-6.4 001.37 1.08h4.73q.51 0 .62.5.23 1.09.23 2.19t-.23 2.19q-.11.5-.62.5h-4.73a1.41 1.39 6.4 00-1.37 1.08q-3.33 14.06-17.73 17.37-.55.12-.55.66v4.93a1.22 1.22 0 01-1.02 1.2q-.8.14-2.02.14-1.23 0-2.03-.14a1.22 1.22 0 01-1.02-1.2V53.8q0-.54-.55-.66Q14 49.83 10.67 35.77a1.41 1.39-6.4 00-1.37-1.08H4.57q-.51 0-.62-.5-.23-1.09-.23-2.19t.23-2.19q.11-.5.62-.5H9.3a1.41 1.39 6.4 001.37-1.08Q14 14.17 28.4 10.86q.55-.12.55-.66V5.27a1.22 1.22 0 011.02-1.2q.8-.14 2.02-.14m16.24 28.06A16.23 16.23 0 0032 15.76a16.23 16.23 0 00-16.23 16.23A16.23 16.23 0 0032 48.22a16.23 16.23 0 0016.23-16.23"></path><path d="M30.34 37.53v-3a1.28 1.15-82.6 00-.81-1.18c-2.56-.81-5.35-2.12-5.91-5.01-1.01-5.29 1.63-7.25 6.18-8.22q.51-.11.51-.64v-2.09a.66.66 0 01.66-.66h1.76a.83.83 0 01.83.83v1.91q0 .51.49.63c3.73.91 6.63 2.19 6.63 6.66q0 .58-.58.58h-3.7q-.54 0-.72-.52c-.29-.87-.45-2.1-1.7-2.24q-.54-.06-.54.49v2.99q0 .6.53.9 1.71.96 3.89 1.67 3.14 1.01 3.52 5.59.51 6.24-6.83 7.66-1.27.25-.98 1.17.07.25-.04.88a.69.69 0 01-.68.56H31.1q-.87 0-.87-.87v-1.08q0-.63-.62-.74-6.45-1.11-6.99-7.47-.07-.73.67-.73h3.47q.59 0 .78.57.55 1.64 1.09 2.21 1.72 1.8 1.71-.85m-.14-9.77l.15-2.86a.25.25 0 00-.23-.26l-.17-.01a1.52 1.5-87 00-1.58 1.44l-.02.32a1.52 1.5-87 001.42 1.6h.17a.25.25 0 00.26-.23m3.24 7.19l-.1 4.04a.34.34 0 00.34.34l.24.01a2.3 2.28 1.3 002.35-2.23v-.16a2.3 2.28 1.3 00-2.25-2.33h-.24a.34.34 0 00-.34.33"></path></svg>