<svg data-v-ea210746="" xmlns="http://www.w3.org/2000/svg" fill="#fff" viewBox="0 0 64 64" class="ui-icon max-h-full w-full" style="fill: rgb(240, 153, 153); opacity: 1;"><path fill="#000" d="M38.26 39v9A2.26 2.26 0 0136 50.26l-8.01-.01a2.25 2.25 0 01-2.25-2.26l.03-9.23a.51.5 0 00-.51-.5L16 38.25A2.25 2.25 0 0113.75 36v-8A2.25 2.25 0 0116 25.75l9.25.02q.52 0 .52-.52l-.04-8.86q-.01-2.64 2.63-2.64l7.65.01a2.26 2.25 0 012.26 2.25l-.02 9q0 .75.76.75h9a2.25 2.25 0 012.25 2.25V36A2.26 2.26 0 0148 38.26h-9q-.74 0-.74.74m-2.29-2.49a.53.53 0 01.53-.53l10.98.03a.53.53 0 00.53-.53l-.02-6.96a.53.53 0 00-.53-.53L36.53 28a.53.53 0 01-.53-.53l-.02-10.93a.53.53 0 00-.53-.53l-6.93-.03a.53.53 0 00-.53.53l.02 10.96a.53.53 0 01-.53.53l-10.94-.01a.53.53 0 00-.53.53v6.94a.53.53 0 00.53.53l10.94-.01a.53.53 0 01.53.53L28 47.46a.53.53 0 00.53.53l6.95.01a.53.53 0 00.53-.53z"></path><path d="M35.97 36.51l.04 10.96a.53.53 0 01-.53.53l-6.95-.01a.53.53 0 01-.53-.53l.01-10.95a.53.53 0 00-.53-.53l-10.94.01a.53.53 0 01-.53-.53v-6.94a.53.53 0 01.53-.53l10.94.01a.53.53 0 00.53-.53l-.02-10.96a.53.53 0 01.53-.53l6.93.03a.53.53 0 01.53.53L36 27.47a.53.53 0 00.53.53l10.93-.01a.53.53 0 01.53.53l.02 6.96a.53.53 0 01-.53.53l-10.98-.03a.53.53 0 00-.53.53"></path></svg>