<svg data-v-ea210746="" xmlns="http://www.w3.org/2000/svg" viewBox="0 0 64 64" fill="#fff" class="ui-icon max-h-full w-full" style="fill: rgb(240, 200, 80); opacity: 1;"><path fill="#000" d="M38.49 50.01q-.07 4.53-.02 8.93a2.02 2.02 0 01-2.01 2.04l-9.19.02q-2.5.01-2.49-2.48l.03-9.23q0-.46.22-.86.43-.79.45-1.7.01-.43-.21-.81-.53-.87-.55-2.17c-.12-9.54 4.55-13.87 11.35-18.99 2.39-1.8 4.4-5.3 1.7-7.79q-1.65-1.52-3.91-1.76-7.56-.8-9.43 6.35a3.3 3.29-82.5 01-3.2 2.46l-9.03-.04a1.27 1.26 70.7 01-.99-.48q-1.06-1.34-.74-3.28Q12.59 7.16 24.18 4.07 34.36 1.36 43.2 5.39c8.55 3.91 13.58 13.94 8.06 22.56-2.86 4.47-7.9 7.57-11.34 11.38q-1.88 2.08-1.4 5.31a1.5 1.49 63.2 01-.41 1.27q-.66.7-.21 1.56.61 1.14.59 2.54m-2.17-6.28c-.84-5.34 4.94-9.19 8.49-12.04 6.05-4.85 8.96-12.2 3.75-19.11-5.21-6.92-14.96-8.36-23.04-6.46Q14.31 8.75 12.63 20.98a.63.62 4 00.62.71l7.78.05q.66 0 .95-.58.48-.94.84-1.97c2.5-7.11 12.69-8.74 17.09-3.18 4.55 5.76-1.83 10.45-6.07 13.55q-7.07 5.18-6.83 14.43.03.99 1.02.99l7.21.02q1.29 0 1.08-1.27m-.078 5.562a.58.58 0 00-.58-.579l-8.08.014a.58.58 0 00-.58.581l.016 8.86a.58.58 0 00.58.579l8.08-.014a.58.58 0 00.58-.581z"></path><path d="M44.81 31.69c-3.55 2.85-9.33 6.7-8.49 12.04Q36.53 45 35.24 45l-7.21-.02q-.99 0-1.02-.99-.24-9.25 6.83-14.43c4.24-3.1 10.62-7.79 6.07-13.55-4.4-5.56-14.59-3.93-17.09 3.18q-.36 1.03-.84 1.97-.29.58-.95.58l-7.78-.05a.63.62 4 01-.62-.71Q14.31 8.75 25.52 6.12c8.08-1.9 17.83-.46 23.04 6.46 5.21 6.91 2.3 14.26-3.75 19.11"></path><rect width="9.24" height="10.02" x="-4.62" y="-5.01" rx=".58" transform="rotate(-.1 30800.83 -18095.785)"></rect></svg>