<svg data-v-ea210746="" xmlns="http://www.w3.org/2000/svg" fill="#fff" viewBox="0 0 64 64" class="ui-icon max-h-full w-full" style="opacity: 1;"><g fill="#000"><path d="M13.96 13.44q.1-.22.34-.22l34.28-.01q1.87 0 1.88 1.87l.06 26.13q0 .67-.45 1.18-3.71 4.12-7.84 7.75-.48.41-1.11.41l-25.69-.06q-1.94-.01-1.94-1.95.04-14.86.01-32.91-.01-1.18.46-2.19M40.3 41.19a.91.91 0 01.93-.92l6.32.15a.91.91 0 00.93-.91l.02-23.35a.91.91 0 00-.91-.91l-31.21.01a.91.91 0 00-.91.91l.03 31.44a.91.91 0 00.91.91l23.04-.01a.91.91 0 00.91-.92zm1.9 4.43a.62.62 0 001.05.48l2.87-2.81a.62.62 0 00-.45-1.06l-2.73.07a.62.62 0 00-.61.59z"></path><rect width="24.76" height="4.42" x="19.51" y="20.5" rx=".52"></rect><rect width="24.76" height="4.6" x="-12.38" y="-2.3" rx=".62" transform="rotate(.1 -17000.907 18275.01)"></rect><rect width="12.18" height="4.48" x="-6.09" y="-2.24" rx=".4" transform="rotate(.8 -2619.883 1853.964)"></rect></g><path d="M40.3 41.19l.06 6.4a.91.91 0 01-.91.92l-23.04.01a.91.91 0 01-.91-.91l-.03-31.44a.91.91 0 01.91-.91l31.21-.01a.91.91 0 01.91.91l-.02 23.35a.91.91 0 01-.93.91l-6.32-.15a.91.91 0 00-.93.92m3.97-20.17a.52.52 0 00-.52-.52H20.03a.52.52 0 00-.52.52v3.38a.52.52 0 00.52.52h23.72a.52.52 0 00.52-.52zm-.017 7.022a.62.62 0 00-.619-.622l-23.52-.04a.62.62 0 00-.621.618l-.006 3.36a.62.62 0 00.619.622l23.52.04a.62.62 0 00.621-.618zm-12.508 6.963a.4.4 0 00-.394-.405l-11.38-.16a.4.4 0 00-.405.395l-.051 3.68a.4.4 0 00.394.405l11.38.16a.4.4 0 00.405-.395z"></path><path d="M42.2 45.62l.13-2.73a.62.62 0 01.61-.59l2.73-.07a.62.62 0 01.45 1.06l-2.87 2.81a.62.62 0 01-1.05-.48"></path></svg>