<svg xmlns="http://www.w3.org/2000/svg" fill="#fff" viewBox="0 0 64 64" class="ui-icon max-h-full w-full" style="fill: rgb(255, 133, 85); opacity: 1;"><g fill="#000"><path d="M18.75 46.63l.01 6.48q0 2.62-2.62 2.65l-4.21.06q-2.93.03-2.91-2.89L9.3 10.7q.02-2.48 2.5-2.48l40.96-.01a2.3 2.3 0 012.3 2.31l-.23 43.19q-.01 2.03-2.04 2.05l-5.28.03q-2.3.02-2.29-2.28l.03-7.01q0-.49-.5-.49H19.37q-.62 0-.62.62m33.97-35.57a.6.6 0 00-.6-.6H12.1a.6.6 0 00-.6.6v32.08a.6.6 0 00.6.6h40.02a.6.6 0 00.6-.6zM16.495 46.635a.67.67 0 00-.672-.668l-3.9.006a.67.67 0 00-.668.672l.01 6.24a.67.67 0 00.672.668l3.9-.006a.67.67 0 00.668-.672zm36 .05a.73.73 0 00-.732-.728l-3.54.006a.73.73 0 00-.728.731l.01 6.12a.73.73 0 00.732.73l3.54-.007a.73.73 0 00.728-.731z"></path><rect width="31.08" height="3" x="-15.54" y="-1.5" rx=".62" transform="rotate(.1 -10165.722 18039.862)"></rect><rect width="24.3" height="2.98" x="-12.15" y="-1.49" rx=".6" transform="rotate(.1 -15026.088 16113.235)"></rect><rect width="31.02" height="2.98" x="15.95" y="33.73" rx=".51"></rect></g><path d="M52.72 43.14a.6.6 0 01-.6.6H12.1a.6.6 0 01-.6-.6V11.06a.6.6 0 01.6-.6h40.02a.6.6 0 01.6.6zm-5.709-26.223a.62.62 0 00-.618-.621l-29.84-.052a.62.62 0 00-.621.619l-.004 1.76a.62.62 0 00.62.621l29.84.052a.62.62 0 00.62-.619zm-6.76 8.464a.6.6 0 00-.598-.6l-23.1-.041a.6.6 0 00-.601.599l-.004 1.78a.6.6 0 00.6.6l23.1.041a.6.6 0 00.6-.599zm6.719 8.859a.51.51 0 00-.51-.51h-30a.51.51 0 00-.51.51v1.96a.51.51 0 00.51.51h30a.51.51 0 00.51-.51z"></path><rect width="5.24" height="7.58" x="-2.62" y="-3.79" rx=".67" transform="rotate(-.1 28517.313 -7927.772)"></rect><rect width="5" height="7.58" x="-2.5" y="-3.79" rx=".73" transform="rotate(-.1 28529.643 -28623.007)"></rect></svg>