<svg data-v-ea210746="" xmlns="http://www.w3.org/2000/svg" fill="#fff" viewBox="0 0 64 64" class="ui-icon max-h-full w-full" style="opacity: 1;"><path fill="#000" d="M51.57 10.36c16.79 15.85 7.59 43.7-15.27 46.79q-10.68 1.45-20.53-5.22-.87-.58-2.22-.13-2.45.82-2.55-1.76c-.05-1.28.17-2.41-.6-3.52Q3.74 37 5.17 26.99 7.33 11.78 20.89 5.48q11.34-5.27 23.87.14c1.61.7 3.12.53 4.76-.02a1.4 1.4 0 011.83 1.47l-.22 2.12q-.07.69.44 1.17M40.06 6.87q1.2-.44-.04-.73-5.45-1.26-11.31-.72a.45.44 71.8 00-.34.68l1.15 1.84q.21.35.63.38 4.82.41 9.91-1.45M12.78 40.26c-5.56-11.94-1.11-24.4 10.58-30.05a2.1 2.1 0 001.1-1.31l.53-1.81q.27-.96-.65-.6C8.87 12.57 2.24 29.16 11.29 43.67q.81 1.29 1.39-.12.26-.63.37-1.33a3.34 3.32 37.3 00-.27-1.96m29.5-1.6c-1.49 3.92-5.39 3.3-8.77 4.12a2.25 2.24 6.8 00-1.47 1.15q-.97 1.88-2.38 3.26-.87.85.34.76c6.54-.47 16.99-1.94 17.49-10.65q.39-6.69-4.5-12.05-2.31-2.54-3.89-5.34c-2.38-4.25 1.43-6.86 5.29-6.14q1.08.2 1.61-.76l2.16-3.85q.48-.87-.5-.74c-5.49.72-12.28-.2-13.88 6.83-1.98 8.66 6.94 10.64 8.69 17.75q.77 3.12-.19 5.66M22.25 36.6c.52-1.23 1.33-2.41 1.75-3.66q2.83-8.49 5.84-16.26c1.25-3.21-.8-4.7-2.18-7.25q-.55-1.03-.87.09c-.47 1.58-.76 3.25-1.34 4.78q-6.23 16.58-11.98 33.91a.53.53 0 00.54.69q.82-.06 1.44-.67c2.8-2.77 5.52-5.02 9.42-5.96 3.61-.87 8.03-1.81 10.44-4.8a1.8 1.78 66.9 00.4-1.01q.35-4.5-2.03-9.48-.21-.43-.47-.04-2.12 3.15-1.84 6.53.05.56-.26 1.02-1.2 1.83-3.41 1.98-2.47.17-5.01.68-.74.15-.44-.55m26.23-21.8c10.01 11 7.74 26.94-4.99 34.4-6.76 3.96-16.26 3.57-23.03-.69q-1.28-.81-2.32.3-.22.23-.27.57-.18 1.31.99 1.92 14.77 7.73 27.01-.02 10.96-6.93 11.93-19.79.79-10.45-7.79-19.56a.61.61 0 00-.98.13l-.73 1.36q-.4.75.18 1.38"></path><path d="M40.06 6.87q-5.09 1.86-9.91 1.45-.42-.03-.63-.38L28.37 6.1a.45.44 71.8 01.34-.68q5.86-.54 11.31.72 1.24.29.04.73m-16.7 3.34C11.67 15.86 7.22 28.32 12.78 40.26a3.34 3.32 37.3 01.27 1.96q-.11.7-.37 1.33-.58 1.41-1.39.12C2.24 29.16 8.87 12.57 24.34 6.49q.92-.36.65.6l-.53 1.81a2.1 2.1 0 01-1.1 1.31m18.92 28.45q.96-2.54.19-5.66c-1.75-7.11-10.67-9.09-8.69-17.75 1.6-7.03 8.39-6.11 13.88-6.83q.98-.13.5.74L46 13.01q-.53.96-1.61.76c-3.86-.72-7.67 1.89-5.29 6.14q1.58 2.8 3.89 5.34 4.89 5.36 4.5 12.05c-.5 8.71-10.95 10.18-17.49 10.65q-1.21.09-.34-.76 1.41-1.38 2.38-3.26a2.25 2.24 6.8 011.47-1.15c3.38-.82 7.28-.2 8.77-4.12"></path><path d="M22.69 37.15q2.54-.51 5.01-.68 2.21-.15 3.41-1.98.31-.46.26-1.02-.28-3.38 1.84-6.53.26-.39.47.04 2.38 4.98 2.03 9.48a1.8 1.78 66.9 01-.4 1.01c-2.41 2.99-6.83 3.93-10.44 4.8-3.9.94-6.62 3.19-9.42 5.96q-.62.61-1.44.67a.53.53 0 01-.54-.69q5.75-17.33 11.98-33.91c.58-1.53.87-3.2 1.34-4.78q.32-1.12.87-.09c1.38 2.55 3.43 4.04 2.18 7.25Q26.83 24.45 24 32.94c-.42 1.25-1.23 2.43-1.75 3.66q-.3.7.44.55"></path><path d="M43.49 49.2c12.73-7.46 15-23.4 4.99-34.4q-.58-.63-.18-1.38l.73-1.36a.61.61 0 01.98-.13q8.58 9.11 7.79 19.56-.97 12.86-11.93 19.79-12.24 7.75-27.01.02-1.17-.61-.99-1.92.05-.34.27-.57 1.04-1.11 2.32-.3c6.77 4.26 16.27 4.65 23.03.69"></path></svg>