<svg data-v-ea210746="" xmlns="http://www.w3.org/2000/svg" fill="#fff" viewBox="0 0 64 64" class="ui-icon max-h-full w-full" style="opacity: 1;"><path d="M57.06 15.65c2.6 1.19 4.96 1.98 4.96 4.86q-.03 15.28-.02 30.54.01 2.22-2.21 2.22l-55.78-.01A2.01 2.01 0 012 51.25l-.01-31.03a3.54 3.51 77.8 012.05-3.21L30.96 4.67a2.52 2.49 44.7 012.09 0q11.84 5.42 24.01 10.98M11.24 26.18a.44.44 0 01.44-.44l40.62-.01a.44.44 0 01.44.44l-.03 24.15a.44.44 0 00.43.44l6.16.11a.44.44 0 00.45-.44l-.01-30.58a.44.44 0 00-.26-.4L32.16 6.97a.44.44 0 00-.36 0L4.51 19.48a.44.44 0 00-.26.4l.02 30.47a.44.44 0 00.44.44l6.13.01a.44.44 0 00.44-.44zm32.53 8.84l-4.62-4.79q-.91-.93-2.2-.9-4.64.12-9.37-.01-1.88-.06-3.15 1.3-2.2 2.37-4.26 4.47a.55.55 0 01-.92-.2q-.88-2.47-3.25-1.53-.59.24-.34.82.28.63.96.83.84.25.43 1.03c-2.02 3.81-1.04 8.31-.65 12.43q.13 1.32 1.46 1.27l1.98-.08q1.2-.05 1.4-1.24l.32-1.87q.09-.55.64-.55l19.61-.04a.69.68-3.3 01.68.6l.24 2.07q.07.61.65.79 1.65.53 3.31.18.79-.17.86-.97.39-3.97.61-7.06.19-2.71-1.27-5.71-.29-.59.33-.82.45-.16.83-.48.94-.81-.23-1.22-2.23-.78-3.06 1.47-.33.89-.99.21"></path><path d="M26.53 30.77h10.95a.55.55 0 01.4.18l4.09 4.41a.55.55 0 01-.4.93l-19.13-.03a.55.55 0 01-.4-.92l4.09-4.39a.55.55 0 01.4-.18m-7.7 7.56l4.41.37a.66.66 0 01.56.41l.92 2.32a.66.66 0 01-.68.9l-4.12-.46a.66.66 0 01-.5-.34l-1.22-2.22a.66.66 0 01.63-.98m25.2 3.61l-4.08.39a.7.7 0 01-.71-.97l.95-2.26a.7.7 0 01.6-.43l4.31-.31a.7.7 0 01.66 1.03l-1.18 2.18a.7.7 0 01-.55.37"></path><g fill="#000"><path d="M11.24 26.18l.04 24.18a.44.44 0 01-.44.44l-6.13-.01a.44.44 0 01-.44-.44l-.02-30.47a.44.44 0 01.26-.4L31.8 6.97a.44.44 0 01.36 0l27.32 12.48a.44.44 0 01.26.4l.01 30.58a.44.44 0 01-.45.44l-6.16-.11a.44.44 0 01-.43-.44l.03-24.15a.44.44 0 00-.44-.44l-40.62.01a.44.44 0 00-.44.44"></path><path d="M43.77 35.02q.66.68.99-.21.83-2.25 3.06-1.47 1.17.41.23 1.22-.38.32-.83.48-.62.23-.33.82 1.46 3 1.27 5.71-.22 3.09-.61 7.06-.07.8-.86.97-1.66.35-3.31-.18-.58-.18-.65-.79l-.24-2.07a.69.68-3.3 00-.68-.6L22.2 46q-.55 0-.64.55l-.32 1.87q-.2 1.19-1.4 1.24l-1.98.08q-1.33.05-1.46-1.27c-.39-4.12-1.37-8.62.65-12.43q.41-.78-.43-1.03-.68-.2-.96-.83-.25-.58.34-.82 2.37-.94 3.25 1.53a.55.55 0 00.92.2q2.06-2.1 4.26-4.47 1.27-1.36 3.15-1.3 4.73.13 9.37.01 1.29-.03 2.2.9zm-17.24-4.25a.55.55 0 00-.4.18l-4.09 4.39a.55.55 0 00.4.92l19.13.03a.55.55 0 00.4-.93l-4.09-4.41a.55.55 0 00-.4-.18zm-7.7 7.56a.66.66 0 00-.63.98l1.22 2.22a.66.66 0 00.5.34l4.12.46a.66.66 0 00.68-.9l-.92-2.32a.66.66 0 00-.56-.41zm25.2 3.61a.7.7 0 00.55-.37l1.18-2.18a.7.7 0 00-.66-1.03l-4.31.31a.7.7 0 00-.6.43l-.95 2.26a.7.7 0 00.71.97z"></path></g></svg>