<svg data-v-ea210746="" xmlns="http://www.w3.org/2000/svg" fill="#fff" viewBox="0 0 64 64" class="ui-icon max-h-full w-full" style="fill: rgb(93, 182, 229); opacity: 1;"><path fill="#000" d="M46.27 21.53l-16.23-.02a.49.48-89.4 00-.48.48q-.18 9.6.03 19.95c.13 6.39-1.17 11.86-7.31 14.48-10.5 4.47-20.46-6.4-15.16-16.68q2.86-5.54 10.23-6.12.89-.07.88-.96-.12-8.49.01-17.41c.06-4.79-.47-8.66 5.38-8.73q15.24-.17 30.4.07a4.35 4.35 0 014.28 4.4q-.18 14.82.05 32.2c.09 6.17-1.45 10.95-7.36 13.32q-6.17 2.47-11.66-1.41c-3.72-2.63-5.67-7.96-4.48-12.32q2.35-8.58 11.57-9.14.56-.04.56-.6l.03-10.77q0-.74-.74-.74m-26.69 14.7Q15 35.1 11.4 38.19c-8.76 7.52.26 20.79 10.56 15.9 3.57-1.69 5.32-5.66 5.34-9.26q.04-13.2-.06-25.01a.54.54 0 01.54-.55l20.75.02a.74.74 0 01.74.74l-.01 15.67a.55.55 0 01-.66.54q-5.52-1.13-9.08 2.64c-6.2 6.57-1.1 16.75 7.63 16.26 4.66-.27 8.88-4.43 8.88-9.36q0-18.63-.02-34.58a2.46 2.46 0 00-2.46-2.46q-13.88-.04-29.53-.02-1.57 0-2.81.52a.96.96 0 00-.58.78q-.28 2.24-.27 4.33.02 10.84.13 21.15.01.95-.91.73"></path><path d="M20.49 35.5q-.11-10.31-.13-21.15-.01-2.09.27-4.33a.96.96 0 01.58-.78q1.24-.52 2.81-.52 15.65-.02 29.53.02a2.46 2.46 0 012.46 2.46q.02 15.95.02 34.58c0 4.93-4.22 9.09-8.88 9.36-8.73.49-13.83-9.69-7.63-16.26q3.56-3.77 9.08-2.64a.55.55 0 00.66-.54l.01-15.67a.74.74 0 00-.74-.74l-20.75-.02a.54.54 0 00-.54.55q.1 11.81.06 25.01c-.02 3.6-1.77 7.57-5.34 9.26-10.3 4.89-19.32-8.38-10.56-15.9q3.6-3.09 8.18-1.96.92.22.91-.73"></path></svg>