<svg data-v-ea210746="" xmlns="http://www.w3.org/2000/svg" fill="#fff" viewBox="0 0 64 64" class="ui-icon max-h-full w-full" style="fill: rgb(174, 219, 242); opacity: 1;"><g fill="#000"><path d="M34.41 18.37c3.14-.8 2.74-3.66 2.52-6.15-.16-1.89 1.57-3.05 3.21-2.11q4.35 2.5 5.28 7.03c.51 2.51-.73 5.12-1.29 7.57a.82.82 0 00.8 1h.36a.42.42 0 00.41-.32q.59-2.36 1.64-4.4a1.78 1.77-58.6 012.61-.64q1.1.79 1.5 2c1.11 3.31.5 5.86-.71 8.88q-.62 1.58-.79 3.71-.58 7.39-1.85 13.39-.4 1.92-2.46 3.08-.53.31-.68.9c-1 3.96-3.51 8.13-8.14 7.96q-4.35-.16-8.48.02c-4.62.19-7.55-3.61-8.51-7.84q-.12-.52-.58-.77-2.86-1.55-3.16-4.79-.3-3.19-1.03-6.25c-.71-2.95-1.27-5.53-.13-8.5q2.42-6.31-1.07-13.82c-.44-.93-.26-1.87.15-2.77a1.68 1.68 0 012.06-.89c3.38 1.15 5.06 4.99 7.2 7.66a.59.59 0 00.92 0q.91-1.13.47-2.57-2.78-9.14 3.53-16.78a1.84 1.84 0 012.68-.17q1.14 1.08.91 2.58c-.69 4.5-.76 8.65 1.81 12.67q.29.46.82.32m-8 5.18c-1.1 2.35-3.83 1.49-5.22.06-1.59-1.63-2.04-3.69-3.7-5.34q-2.14-2.15-.97.65c1.39 3.31 2.34 7.93 1.27 11.42-.63 2.05-1.63 4.63-1.13 6.74q1.09 4.59 1.64 9.02c.21 1.7 1.26 2.98 2.65 3.88a2.12 2.11-81.8 01.89 1.2c.8 2.73 1.69 4.86 4.23 6.52q.45.29.99.29 4.71 0 9.34.04c3.86.03 5.81-3.39 6.32-6.7q.08-.53.46-.89c1.17-1.1 2.65-2.03 2.96-3.74q1.1-6.17 1.48-11.36.17-2.31.83-4.31c.84-2.55 1.83-4.87 1.06-7.6q-.11-.4-.52-.34-.62.1-.62.72-.03 2.03-1.57 3.77a1.27 1.26 22.9 01-1.02.41q-3.2-.22-4.02-2.84a1.85 1.85 0 01.03-1.17c1.53-4.34 2.6-7.74-1.71-11.05q-1.05-.8-.84.51.64 3.88-2.18 6.4c-1.85 1.65-4.95.87-5.94-1.2q-1.52-3.17-2.06-6.87c-.24-1.63.25-3.14.2-4.76q-.06-1.97-1.04-.26-3.36 5.85-1.44 12.09.73 2.38-.37 4.71"></path><path d="M35.03 54.21l.02 1.75q0 .67-.65.8-.37.08-.74.02-.71-.11-.5-.79.38-1.28-.24-2.36-.33-.58-.85-.15-1.07.9-.83 2.33a.76.75-9.7 01-.62.86l-.29.06a.8.8 0 01-.94-.77l-.04-1.92q-.01-.56-.56-.5l-.48.04a.58.58 0 00-.51.44l-.32 1.24q-.16.61-.72.31c-2.24-1.2-2.56-3.39-3.22-5.55q-.22-.7-.78-1.16l-1.67-1.39q-.52-.43-.63-1.09l-1.67-10.04a1.58 1.57 51.9 01.1-.85c1.12-2.6 2.65-7.33 5.53-8.35q7.86-2.8 15.7.03 1.84.66 2.68 2.36c1.06 2.13 3.4 5.78 2.87 8.14q-1 4.44-1.45 8.17-.24 1.96-2.17 2.7a1.21 1.21 0 00-.74.82c-.61 2.32-1.18 5.34-3.57 6.46q-.47.21-.62-.28-.17-.56-.1-1.16a.68.68 0 00-.71-.76l-.77.04a.54.54 0 00-.51.55m5.38-15.78l-4.35 1.98a.96.96 0 00-.47 1.27l.07.17a3.98 3.23 65.5 004.59 2.28l.22-.1a3.98 3.23 65.5 001.29-4.96l-.08-.17a.96.96 0 00-1.27-.47m-12.2 2.03l-4.37-2.02a.84.84 0 00-1.12.4l-.1.24a4.06 3.13-65.1 001.12 5l.22.1a4.06 3.13-65.1 004.55-2.36l.11-.24a.84.84 0 00-.41-1.12m2.13 9.27l3.84-.08a.25.25 0 00.25-.25l-.01-.14a4.95 2.11 88.9 00-2.2-4.91h-.12a4.95 2.11 88.9 00-2.02 4.99l.01.14a.25.25 0 00.25.25"></path></g><path d="M26.41 23.55q1.1-2.33.37-4.71-1.92-6.24 1.44-12.09.98-1.71 1.04.26c.05 1.62-.44 3.13-.2 4.76q.54 3.7 2.06 6.87c.99 2.07 4.09 2.85 5.94 1.2q2.82-2.52 2.18-6.4-.21-1.31.84-.51c4.31 3.31 3.24 6.71 1.71 11.05a1.85 1.85 0 00-.03 1.17q.82 2.62 4.02 2.84a1.27 1.26 22.9 001.02-.41q1.54-1.74 1.57-3.77 0-.62.62-.72.41-.06.52.34c.77 2.73-.22 5.05-1.06 7.6q-.66 2-.83 4.31-.38 5.19-1.48 11.36c-.31 1.71-1.79 2.64-2.96 3.74q-.38.36-.46.89c-.51 3.31-2.46 6.73-6.32 6.7q-4.63-.04-9.34-.04-.54 0-.99-.29c-2.54-1.66-3.43-3.79-4.23-6.52a2.12 2.11-81.8 00-.89-1.2c-1.39-.9-2.44-2.18-2.65-3.88q-.55-4.43-1.64-9.02c-.5-2.11.5-4.69 1.13-6.74 1.07-3.49.12-8.11-1.27-11.42q-1.17-2.8.97-.65c1.66 1.65 2.11 3.71 3.7 5.34 1.39 1.43 4.12 2.29 5.22-.06m9.9 30.07a.68.68 0 01.71.76q-.07.6.1 1.16.15.49.62.28c2.39-1.12 2.96-4.14 3.57-6.46a1.21 1.21 0 01.74-.82q1.93-.74 2.17-2.7.45-3.73 1.45-8.17c.53-2.36-1.81-6.01-2.87-8.14q-.84-1.7-2.68-2.36-7.84-2.83-15.7-.03c-2.88 1.02-4.41 5.75-5.53 8.35a1.58 1.57 51.9 00-.1.85l1.67 10.04q.11.66.63 1.09l1.67 1.39q.56.46.78 1.16c.66 2.16.98 4.35 3.22 5.55q.56.3.72-.31l.32-1.24a.58.58 0 01.51-.44l.48-.04q.55-.06.56.5l.04 1.92a.8.8 0 00.94.77l.29-.06a.76.75-9.7 00.62-.86q-.24-1.43.83-2.33.52-.43.85.15.62 1.08.24 2.36-.21.68.5.79.37.06.74-.02.65-.13.65-.8l-.02-1.75a.54.54 0 01.51-.55z"></path><path d="M40.41 38.43a.96.96 0 011.27.47l.08.17a3.98 3.23 65.5 01-1.29 4.96l-.22.1a3.98 3.23 65.5 01-4.59-2.28l-.07-.17a.96.96 0 01.47-1.27zm-12.2 2.03a.84.84 0 01.41 1.12l-.11.24a4.06 3.13-65.1 01-4.55 2.36l-.22-.1a4.06 3.13-65.1 01-1.12-5l.1-.24a.84.84 0 011.12-.4z"></path><path d="M30.34 49.73a.25.25 0 01-.25-.25l-.01-.14a4.95 2.11 88.9 012.02-4.99h.12a4.95 2.11 88.9 012.2 4.91l.01.14a.25.25 0 01-.25.25z"></path></svg>