<svg data-v-ea210746="" viewBox="0 0 430 110" xmlns="http://www.w3.org/2000/svg" fill="#7e7f7e" class="ui-icon max-h-full absolute left-1/2 top-1/2 -translate-x-1/2 -translate-y-1/2 z-[201] w-[70%]" style="fill: rgb(174, 219, 242); opacity: 1;"><g fill="#000"><path d="M395.7 1.89c4.37-.07 8.75-.2 13.11.25.37 5.04.23 10.08.17 15.12 6.01.02 12.05-.2 18.06.15 1.78.07 1.84 2.21 1.86 3.53-.02 3.13.42 6.41-.61 9.43-2.03.57-4.16.41-6.23.46-28.48-.1-56.97.1-85.44-.14-2.97 3.87-1.99 8.82-2.42 13.34-16.35.55-32.71-.11-49.07.21-.15 1.78-.22 3.57-.55 5.33-1.1.33-2.2.61-3.32.84-.84 1.85-1.78 3.98-4.26 3.54-16.34.13-32.7.02-49.05-.08-2.1.24-2.56-2.12-3.49-3.45-2.76.01-5.52 0-8.27 0-.71 15.85-.14 31.75-.3 47.62-.24 3.02.87 6.85-1.79 9.09-1.87 1.96-4.75 1.49-7.18 1.57-6.63-.14-13.26.12-19.88-.1-2.01-.23-4.7-1.09-4.92-3.45-.54-2.67-.39-5.41-.42-8.11.08-15.56-.09-31.12.08-46.68-3.02.08-6.04.08-9.07.03-.33 1.39-.46 2.88-1.25 4.11-1.4.76-2.99 1.03-4.52 1.41-.17 4.24.73 8.78-1.46 12.65-3.58 1.77-7.62 1.3-11.47 1.31-5.32-.17-10.98.9-15.83-1.9-1.36 2.36-2.88 4.64-3.89 7.18-1.77 5.32.92 11.43-1.86 16.49-3.5 4.31-9.58 2.96-14.43 3.17-3.79-.22-8.45.97-11.36-2.18-1.74-5.19-.81-10.89-.04-16.19 1.36-7.87 8.22-13.19 10.19-20.77-1.98-.13-4.01.05-5.96-.42-2.22-.79-3.42-2.98-4.77-4.74-1.39-.05-2.78-.08-4.17-.1-.99-.71-1.97-1.42-2.95-2.13-8.04 7.21-12.29 17.46-18.49 26.12-1.84 2.44-3.73 6.4-7.46 5.54-7.29-2.1-12.36-8.31-18.94-11.72-4.9-1.09-10-.28-14.98-.51-3.62.2-7.41-.54-10.92.46-4.08 2.81-7.2 6.89-11.43 9.46-4.47.65-9.09.62-13.57.08-2.17-.35-2.03-3.04-2.1-4.69.05-15.01-.02-30.01-.07-45.01.3-1.86-.39-5.06 2.04-5.63 3.62-.8 7.35-.26 11.01-.31 23 .03 45.99-.02 68.98.03 3.74-.18 7.04 1.76 9.96 3.85 2.15 1.74 5.03 1.03 7.57 1 1.09-2.95 2.55-6.08 5.48-7.62 6.72-3.88 14.74-1.73 22.08-2.38.39-1.56.54-4.21 2.88-3.84 11.66-.13 23.34.02 35.01-.04 5.86-.12 11.96.74 17.54-1.56.24-1.22.46-2.43.69-3.65 6.56-.61 13.15-.16 19.73-.31 3.36.09 6.86-.38 10.08.78 2.26 1.02 3.19 3.47 4.24 5.52 2.17.73 4.35 1.44 6.51 2.2-.02-2.49 1.1-5.74 4.11-5.63 15.73-.25 31.47-.13 47.2-.08 2.47-.31 4.02 1.68 5.32 3.43 1.68.57 3.18 1.49 3.99 3.13 7.86.59 15.75.23 23.62.36 26.67-.03 53.34.01 80.01.02 3.51.48 6.26-3.03 6.26-6.28.08-3.04.02-6.09.41-9.11m2.75 5.09c.86 4.04-.23 7.96-2.64 11.23 3.38.08 6.76.1 10.14.06.05-3.67 0-7.34-.07-11.01l.12-2.31c-2.44.54-7.2-1.51-7.55 2.03m-211.57 4.03c.1.6.3 1.78.4 2.37-2.44.7-4.79 1.69-7.18 2.54-.02 1.34-.03 2.68-.05 4.02-22.01-.03-44.02 0-66.03.04-3.41 0-6.88 1.74-8.79 4.59-.56 1.2-1.09 2.41-1.63 3.61 26.2-.01 52.41-.25 78.61.09.08-1.64.15-3.27.23-4.91 10.7.14 21.41-.11 32.11.14.01-3.67.94-7.64-.81-11.05l-.97-1.31c-8.61-.43-17.27-.14-25.89-.13m-55.53 5.01c.22.5.67 1.5.9 2 15.28.63 30.64.17 45.95.23-.04-.57-.11-1.7-.15-2.26-15.57.03-31.14-.03-46.7.03m96.3.06c.14.44.44 1.32.58 1.76-.2 4.32-.11 8.64-.04 12.96 1.13.05 2.27.11 3.41.16.41-1.17.88-2.31 1.41-3.42 4.62-.43 9.29-.22 13.91.11.06.82.17 2.45.23 3.27 3.47 0 6.95-.01 10.43-.06.11-.81.32-2.44.42-3.25 4.87-.26 9.83-.72 14.63.39.02.76.07 2.29.1 3.05 1.55-.16 3.11-.31 4.66-.47-.05-4.37 0-8.73.05-13.1l-.24-1.32c-16.5-.37-33.04-.2-49.55-.08m-10.51.91c-.48 10.09-.27 20.21-.13 30.31 2.97.02 5.95.01 8.93-.03.09-7.78.22-15.57 0-23.34-.05-4.66-5.07-6.16-8.8-6.94m62.44 1.86c.09 9.39.03 18.78.11 28.17.52-.06 1.56-.19 2.08-.26-.91-9.82-.25-19.69-.43-29.53-.44.4-1.32 1.21-1.76 1.62m63.42 2.1c-6.47-.44-12.98-.2-19.46-.11.01 2.18.01 4.36.07 6.54 6.53.71 13.1.17 19.65.31.54-1.14 1.09-2.28 1.65-3.43.15.86.46 2.57.62 3.43 15.19-.17 30.42.39 45.59-.28.08-1.49.17-2.97.26-4.46-.13-.53-.38-1.59-.51-2.12-14.95-.21-29.92-.05-44.87-.07l-.01-.36c-1 .19-2 .37-2.99.55m-59.41.31c.05 1.98-.01 3.98.27 5.95 5.88.56 11.82-.1 17.73.36-.04-1.47-.08-2.94-.13-4.41l-.2-2.42c-5.79.2-11.66-.41-17.41.3l-.26.22m20.36-.52c-.01.58-.02 1.75-.03 2.33.01 1.48.05 2.95.11 4.43 5.66-.43 11.47.44 17.04-.43.74-1.99.36-4.22.44-6.31-5.85-.05-11.71-.01-17.56-.02m89.59-.01c.27 1.35.53 2.7.79 4.06l-1.46 1.45 1.14.98c4.07.61 8.24.06 12.34.11-.2-.64-.6-1.92-.81-2.56.14-1.3.26-2.6.37-3.9-4.11-.38-8.25-.07-12.37-.14m14.43.02c-.01.56-.04 1.69-.05 2.26 0 1.46.01 2.91.03 4.37 2.03 0 4.07-.02 6.11-.03-.02-1.38-.05-2.76-.08-4.14-.03-.63-.08-1.87-.11-2.49l-5.9.03m7.99.05c.01.55.02 1.65.03 2.2.11 1.49.24 2.97.37 4.46 3.08-.08 6.16-.04 9.24.12l.03-4.53c.15-.56.47-1.67.63-2.23-3.44-.12-6.87-.11-10.3-.02M4.31 25.31c-.1 16.48.04 32.95-.08 49.42.74.05 2.22.14 2.96.19-.04-16.56.11-33.13-.07-49.7-.71.03-2.11.07-2.81.09m6.85-.37c0 .53-.01 1.59-.02 2.12-.44 0-1.32.01-1.76.01-.02 15.05-.08 30.1.02 45.16.76.92 1.52 1.85 2.27 2.78 7.57.51 10.23-8.86 16.96-10.45 5.43-.49 10.9-.02 16.34-.2 4.02.1 8.39-.56 12.02 1.6 5.8 3.75 10.81 9.04 17.59 11.05 5.94-8.04 10.65-16.9 16.45-25.03 2.39-3.33 5.32-7.16 9.91-6.9.16-4.26.08-8.52-.04-12.78l.04-2.27c-2.65 0-5.29 0-7.93-.01-3.16-1.92-5.99-5.36-10-5.09-23.95.03-47.9.01-71.85.01m173.25.42c.01 4.14-.05 8.28-.11 12.43 9.51.61 19.05.24 28.57.29.05-3.32.06-6.64.05-9.95.04-.6.13-1.79.17-2.39-9.54-.64-19.13.05-28.68-.38m-81.12 4.93c.38 5.63-.45 11.34.43 16.92 25.1.22 50.21.02 75.31.09 11.9-.57 23.82.05 35.73-.41-.03-2.23-.06-4.45-.08-6.67-10.82.1-21.64.25-32.45-.17-.07-3.5.59-7.17-.77-10.51-.34 3.5.01 7.03-.36 10.52-.56 1.98-2.38 3.26-3.55 4.86-21.38.3-42.77.18-64.15.06-.93-1.7-2.11-3.28-2.84-5.08-.49-3.19-.04-6.43.23-9.63-2.51.04-5.01.04-7.5.02m9.24.82c.06 3.02-.18 6.06.16 9.07 1.4 1.21 3.56.69 5.28.9 20.32-.17 40.64.21 60.95-.21.26-3.35.27-6.71.16-10.07-4.31-.79-8.69-.43-13.03-.47-14.35-.01-28.7.01-43.04-.01-3.5.05-7.11-.41-10.48.79m208.77.71c3.79.12 7.6.31 11.38-.11.05-.4.13-1.2.18-1.6-3.65-.32-9.25-1.87-11.56 1.71m-92.11 1.33c-.53 1.62.02 2.18 1.65 1.67.53-1.63-.02-2.18-1.65-1.67m3.99-.01c-.53 1.63.01 2.19 1.64 1.67.52-1.63-.02-2.19-1.64-1.67m4.01.01c-.55 1.61-.01 2.18 1.63 1.7.55-1.62.01-2.18-1.63-1.7m3.96.03c-.48 1.64.09 2.18 1.71 1.62.46-1.64-.1-2.18-1.71-1.62m4.04-.04c-.59 1.6-.06 2.18 1.59 1.72.59-1.6.06-2.18-1.59-1.72m3.94.05c-.51 1.64.05 2.19 1.67 1.66.51-1.64-.05-2.19-1.67-1.66m4.02 0c-.5 1.63.05 2.18 1.68 1.64.51-1.63-.05-2.17-1.68-1.64m4 .02c-.46 1.65.11 2.18 1.72 1.6.46-1.64-.11-2.17-1.72-1.6m3.99-.03c-.48 1.63.09 2.17 1.71 1.6.46-1.64-.1-2.17-1.71-1.6m4.07-.02c-.55 1.62-.01 2.19 1.63 1.69.54-1.62 0-2.18-1.63-1.69m3.96-.03c-.56 1.62-.02 2.19 1.62 1.7.55-1.62.01-2.19-1.62-1.7m4 .03c-.53 1.63.02 2.19 1.65 1.68.53-1.63-.02-2.19-1.65-1.68m10.94.99c-.13.51-.37 1.54-.5 2.06.06 1.57.11 3.14.16 4.72 10.74.18 21.49.21 32.24 0-.11-1.61-.22-3.23-.36-4.84l.68-2.13c-10.74.17-21.49-.08-32.22.19m33.93-.1c-.01.55-.04 1.65-.05 2.2-.02 1.59-.04 3.18-.04 4.77 4.42.05 8.83.05 13.25.01-.03-1.59-.06-3.18-.08-4.76-.06-.59-.17-1.76-.23-2.35-4.28.04-8.57.12-12.85.13m-89.92 3.02c.05 3.76.06 7.52.02 11.28 16.38.15 32.77.17 49.15-.01.1-3.79.09-7.57.01-11.35-1.46-.03-2.92-.04-4.37-.04-.25 1.05-.53 2.09-.83 3.13-4.69.69-9.45.32-14.16.09-.08-.77-.25-2.29-.33-3.06-3.39-.14-6.78-.2-10.17-.11-.33 1.14-.79 2.22-1.39 3.23-4.58.41-9.21.28-13.79-.16-.1-.76-.31-2.29-.42-3.05-1.24.02-2.48.04-3.72.05m-119 12.36c1.16 1.04 2 3.03 3.83 2.82 12.66.01 25.33.07 38-.1 6.17 0 12.38.51 18.52-.28 0-.61-.01-1.84-.01-2.45-20.11.08-40.23.13-60.34.01m76.11-.1l-.01.88c-.04.41-.13 1.22-.17 1.62-.16 3.29-.15 6.58.04 9.87 9.17-.1 18.34-.02 27.51-.04 0-4.11.03-8.22.09-12.33-9.15.04-18.3-.08-27.46 0M148.48 55c-.75 1.14-.63 3.29.83 3.81 1.89-.34 1.06-4.87-.83-3.81m11.88 8.38c-3.8 1.87-8.23.9-12.32 1.12-3 .28-5.58-1.34-8.17-2.58.04 2.23 1.47 4.79 3.98 4.64 6.33.18 12.66-.02 19 .05 1.52-4.09.9-8.56.36-12.78-3.07 2.35-.41 6.8-2.85 9.55m-39.53-7.4l-.13 1.57c-2.58 3.51-4.54 7.43-7.09 10.97-4.57 6.52-5.24 14.88-4.41 22.58 5.6.43 11.23.41 16.83.21 1.72.06 3.28-.9 4.13-2.37.86-5.36-1.01-11.14 1.56-16.19 2.4-4.97 6.33-9.16 7.69-14.63-.71-.14-2.12-.41-2.83-.55l.86-1.43c-5.54-.25-11.08-.03-16.61-.16m25.07 5.45c-.58-2-.4-4.54-1.86-6.11-3.16 1.11-.35 5.29 1.86 6.11m7.66-5.88c.01.93.02 2.78.03 3.71 1.48.71 2.97 1.42 4.48 2.08.12-1.92.22-3.84.32-5.76l-4.83-.03m31.56 8.61c-.02.39-.05 1.17-.07 1.55-.28 7.11-.1 14.21-.1 21.32 9.24-.01 18.51.37 27.75-.24-.12-7.53-.2-15.06.01-22.58l-.18.17c-9.13-.39-18.27-.02-27.41-.22m.42 25.72c-.17.48-.5 1.43-.67 1.9.08 4.41-.08 8.82.3 13.22 9 .69 18.06.36 27.08.21.29-4.48.12-8.96.32-13.44-.23-.46-.69-1.37-.92-1.83-8.66-.49-17.43-.36-26.11-.06z"></path><path d="M232.32 18.52c1.1.02 2.2 0 3.3-.05.46 0 1.37 0 1.83-.01.68 1.46 2.89 3.54.22 4.23-2.77.34-7.35 1.63-8.74-1.65.5-.87 1.05-1.71 1.65-2.52h1.74zm11.41-.2c1.31.14 2.62.2 3.94.18.36.03 1.08.1 1.43.13.91.83 1.81 1.67 2.7 2.53-2.92 2.32-7.79 2.98-10.77.58.03-1.57 1.81-2.29 2.7-3.42zm12.59.13c1.18 0 2.35-.03 3.53-.11 1.44.77 2.78 1.72 4.13 2.63-2.96 2.63-8 3.14-11.15.67.5-1.08 1.1-2.12 1.74-3.13.44-.02 1.32-.05 1.75-.06zm11.83-.11c1.18.09 2.36.16 3.54.2.37.03 1.1.1 1.47.13.89.83 1.76 1.69 2.63 2.56-3.37 2.6-8.59 2.74-11.74-.29 1.35-.88 2.7-1.79 4.1-2.6zM26.24 37.82c.77-3.89 5.12-5.76 8.75-5.65 12.99-.13 25.99 0 38.98-.06 2.74.16 5.92-.27 8.17 1.66 1.48 1.56 1.71 3.96.34 5.67-3.43 5.07-6.77 10.4-11.59 14.29-14.95.07-29.91.05-44.86.01.19-5.3-.28-10.63.21-15.92m3.35-.49c-.47 4.36-.12 8.77-.15 13.15 12.87-.2 25.75 0 38.62-.09 2.03.16 3.3-1.72 4.81-2.76-1.82-.3-4.52-.27-5.08-2.5-.84-3.2-.33-6.57-.08-9.82-10.6.19-21.2 0-31.8.08-2.18.11-4.71.28-6.32 1.94m41.44-.46c-.16.54-.46 1.64-.61 2.19.14 1.76.27 3.52.39 5.28 1.72-.05 3.44-.02 5.14-.23 1.89-1.18 2.94-3.28 4.19-5.05.24-.58.71-1.76.95-2.34-3.35.06-6.72-.13-10.06.15zm53.23 24.19c3.93-.03 7.87-.02 11.8 0 .01.75.02 2.26.03 3.01-3.3.01-6.61.01-9.92 0-2.86 4.28-5.17 8.89-7.88 13.27-2.09 3.15-1.19 7.09-1.33 10.64-.74-.01-2.22-.02-2.96-.03.01-3.66-.16-7.32.04-10.98.01-2.56 2.09-4.36 3.43-6.32 2.24-3.22 4.59-6.36 6.79-9.59z"></path></g><path d="M398.45 6.98c.35-3.54 5.11-1.49 7.55-2.03l-.12 2.31c-2.48-.1-4.96-.19-7.43-.28zm-211.57 4.03c8.62-.01 17.28-.3 25.89.13l.97 1.31c-8.74 1.55-17.67-.15-26.46.93-.1-.59-.3-1.77-.4-2.37zm40.77 5.07c16.51-.12 33.05-.29 49.55.08l.24 1.32c-1.91.4-3.83.75-5.75 1.06-1.18-.04-2.36-.11-3.54-.2-2.76-.34-5.54-.34-8.3 0-1.18.08-2.35.11-3.53.11-2.87-.47-5.79-.47-8.65.05-1.32.02-2.63-.04-3.94-.18-.18-.11-.54-.33-.72-.43-2.48.09-4.93.3-7.39.58-1.1.05-2.2.07-3.3.05-1.37-.21-2.73-.43-4.09-.68-.14-.44-.44-1.32-.58-1.76zm-122.42 8.49c1.91-2.85 5.38-4.59 8.79-4.59 22.01-.04 44.02-.07 66.03-.04-.01.52-.03 1.56-.03 2.09-21.37.02-42.73.03-64.09-.02-3.87-.44-6.85 3.04-10.7 2.56zm178.62-3.53c5.75-.71 11.62-.1 17.41-.3l.2 2.42c-5.78-.22-11.58.02-17.36-.2-.06-.48-.18-1.44-.25-1.92zm20.1-.3c5.85.01 11.71-.03 17.56.02-.34.59-1.03 1.76-1.38 2.35-5.4-.09-10.8-.07-16.21-.04.01-.58.02-1.75.03-2.33zm19.59.1c6.48-.09 12.99-.33 19.46.11l.08 2.06c-6.3-.02-12.6.19-18.89-.06-.16-.53-.49-1.59-.65-2.11zm22.46-.08c14.95.02 29.92-.14 44.87.07.13.53.38 1.59.51 2.12-15.11.18-30.22.11-45.32.04-.02-.56-.05-1.67-.06-2.23zm47.54-.03c4.12.07 8.26-.24 12.37.14-.11 1.3-.23 2.6-.37 3.9-1.81-3.18-6.5-1.2-9.52-1.73-.56.59-1.13 1.17-1.69 1.75-.26-1.36-.52-2.71-.79-4.06zm14.43.02l5.9-.03c.03.62.08 1.86.11 2.49-2.03-.08-4.05-.14-6.06-.2.01-.57.04-1.7.05-2.26zm7.99.05c3.43-.09 6.86-.1 10.3.02-.16.56-.48 1.67-.63 2.23-3.22.1-6.43-.02-9.64-.05-.01-.55-.02-1.65-.03-2.2zm-404.8 4.14c23.95 0 47.9.02 71.85-.01 4.01-.27 6.84 3.17 10 5.09 2.64.01 5.28.01 7.93.01l-.04 2.27c-2.89-.01-5.82.23-8.68-.29-3.49-1.5-6.1-5.26-10.24-4.98-23.61.04-47.22 0-70.84.03.01-.53.02-1.59.02-2.12zM185 26c9.36-.14 18.74.28 28.09-.26-.04.6-.13 1.79-.17 2.39-9.3-.25-18.61-.08-27.91-.13 0-.5-.01-1.5-.01-2zm99.11 8.15c10.73-.27 21.48-.02 32.22-.19l-.68 2.13c-10.67.44-21.36.16-32.04.12.13-.52.37-1.55.5-2.06zm33.93-.1c4.28-.01 8.57-.09 12.85-.13.06.59.17 1.76.23 2.35-4.38.04-8.76.03-13.13-.02.01-.55.04-1.65.05-2.2zM71.03 36.87c3.34-.28 6.71-.09 10.06-.15-.24.58-.71 1.76-.95 2.34-3.24-.07-6.48-.01-9.72 0 .15-.55.45-1.65.61-2.19zm-45 16.87c14.95.04 29.91.06 44.86-.01.04.57.13 1.7.17 2.27h-45.1c.02-.56.05-1.69.07-2.26zm94.8 2.24c5.53.13 11.07-.09 16.61.16l-.86 1.43c-5.25.72-10.63.74-15.88-.02l.13-1.57z" fill="#f5f3f5"></path><path d="M398.45 6.98c2.47.09 4.95.18 7.43.28.07 3.67.12 7.34.07 11.01-3.38.04-6.76.02-10.14-.06 2.41-3.27 3.5-7.19 2.64-11.23zm-184.71 5.47c1.75 3.41.82 7.38.81 11.05-10.7-.25-21.41 0-32.11-.14-.08 1.64-.15 3.27-.23 4.91-26.2-.34-52.41-.1-78.61-.09.54-1.2 1.07-2.41 1.63-3.61 3.85.48 6.83-3 10.7-2.56 21.36.05 42.72.04 64.09.02 0-.53.02-1.57.03-2.09.02-1.34.03-2.68.05-4.02 2.39-.85 4.74-1.84 7.18-2.54 8.79-1.08 17.72.62 26.46-.93zm3.4 4.54c3.73.78 8.75 2.28 8.8 6.94.22 7.77.09 15.56 0 23.34-2.98.04-5.96.05-8.93.03-.14-10.1-.35-20.22.13-30.31zm11.09.85c1.36.25 2.72.47 4.09.68h-1.74c-.6.81-1.15 1.65-1.65 2.52 1.39 3.28 5.97 1.99 8.74 1.65 2.67-.69.46-2.77-.22-4.23-.46.01-1.37.01-1.83.01 2.46-.28 4.91-.49 7.39-.58.18.1.54.32.72.43-.89 1.13-2.67 1.85-2.7 3.42 2.98 2.4 7.85 1.74 10.77-.58-.89-.86-1.79-1.7-2.7-2.53-.35-.03-1.07-.1-1.43-.13 2.86-.52 5.78-.52 8.65-.05-.43.01-1.31.04-1.75.06-.64 1.01-1.24 2.05-1.74 3.13 3.15 2.47 8.19 1.96 11.15-.67-1.35-.91-2.69-1.86-4.13-2.63 2.76-.34 5.54-.34 8.3 0-1.4.81-2.75 1.72-4.1 2.6 3.15 3.03 8.37 2.89 11.74.29-.87-.87-1.74-1.73-2.63-2.56-.37-.03-1.1-.1-1.47-.13 1.92-.31 3.84-.66 5.75-1.06-.05 4.37-.1 8.73-.05 13.1-1.55.16-3.11.31-4.66.47-.03-.76-.08-2.29-.1-3.05-4.8-1.11-9.76-.65-14.63-.39-.1.81-.31 2.44-.42 3.25-3.48.05-6.96.06-10.43.06-.06-.82-.17-2.45-.23-3.27-4.62-.33-9.29-.54-13.91-.11-.53 1.11-1 2.25-1.41 3.42-1.14-.05-2.28-.11-3.41-.16-.07-4.32-.16-8.64.04-12.96zm51.35 1.01c.44-.41 1.32-1.22 1.76-1.62.18 9.84-.48 19.71.43 29.53-.52.07-1.56.2-2.08.26-.08-9.39-.02-18.78-.11-28.17zm4.01 2.41l.26-.22c.07.48.19 1.44.25 1.92 5.78.22 11.58-.02 17.36.2.05 1.47.09 2.94.13 4.41-5.91-.46-11.85.2-17.73-.36-.28-1.97-.22-3.97-.27-5.95zm37.92-.5c-.08 2.09.3 4.32-.44 6.31-5.57.87-11.38 0-17.04.43-.06-1.48-.1-2.95-.11-4.43 5.41-.03 10.81-.05 16.21.04.35-.59 1.04-1.76 1.38-2.35zm2.1 6.62c-.06-2.18-.06-4.36-.07-6.54.16.52.49 1.58.65 2.11 6.29.25 12.59.04 18.89.06l.06 4.06c-6.51.22-13.03-.11-19.53.31zm22.45-4.39c15.1.07 30.21.14 45.32-.04-.09 1.49-.18 2.97-.26 4.46-14.97-.54-29.96-.08-44.94-.24l-.12-4.18zm49.96.05c3.02.53 7.71-1.45 9.52 1.73.21.64.61 1.92.81 2.56-4.1-.05-8.27.5-12.34-.11l-1.14-.98 1.46-1.45c.56-.58 1.13-1.16 1.69-1.75zm11.9-.03c2.01.06 4.03.12 6.06.2.03 1.38.06 2.76.08 4.14-2.04.01-4.08.03-6.11.03-.02-1.46-.03-2.91-.03-4.37zm8.07-.01c3.21.03 6.42.15 9.64.05l-.03 4.53c-3.08-.16-6.16-.2-9.24-.12-.13-1.49-.26-2.97-.37-4.46zM4.31 25.31c.7-.02 2.1-.06 2.81-.09.18 16.57.03 33.14.07 49.7-.74-.05-2.22-.14-2.96-.19.12-16.47-.02-32.94.08-49.42z"></path><path d="M184.41 25.36c9.55.43 19.14-.26 28.68.38-9.35.54-18.73.12-28.09.26 0 .5.01 1.5.01 2 9.3.05 18.61-.12 27.91.13.01 3.31 0 6.63-.05 9.95-9.52-.05-19.06.32-28.57-.29.06-4.15.12-8.29.11-12.43zM9.38 27.07c.44 0 1.32-.01 1.76-.01 23.62-.03 47.23.01 70.84-.03 4.14-.28 6.75 3.48 10.24 4.98 2.86.52 5.79.28 8.68.29.12 4.26.2 8.52.04 12.78-4.59-.26-7.52 3.57-9.91 6.9-5.8 8.13-10.51 16.99-16.45 25.03-6.78-2.01-11.79-7.3-17.59-11.05-3.63-2.16-8-1.5-12.02-1.6-5.44.18-10.91-.29-16.34.2-6.73 1.59-9.39 10.96-16.96 10.45-.75-.93-1.51-1.86-2.27-2.78-.1-15.06-.04-30.11-.02-45.16m16.86 10.75c-.49 5.29-.02 10.62-.21 15.92-.02.57-.05 1.7-.07 2.26h45.1c-.04-.57-.13-1.7-.17-2.27 4.82-3.89 8.16-9.22 11.59-14.29 1.37-1.71 1.14-4.11-.34-5.67-2.25-1.93-5.43-1.5-8.17-1.66-12.99.06-25.99-.07-38.98.06-3.63-.11-7.98 1.76-8.75 5.65z"></path><path d="M103.29 30.29c2.49.02 4.99.02 7.5-.02-.27 3.2-.72 6.44-.23 9.63.73 1.8 1.91 3.38 2.84 5.08 21.38.12 42.77.24 64.15-.06 1.17-1.6 2.99-2.88 3.55-4.86.37-3.49.02-7.02.36-10.52 1.36 3.34.7 7.01.77 10.51 10.81.42 21.63.27 32.45.17.02 2.22.05 4.44.08 6.67-11.91.46-23.83-.16-35.73.41-25.1-.07-50.21.13-75.31-.09-.88-5.58-.05-11.29-.43-16.92z"></path><path d="M112.53 31.11c3.37-1.2 6.98-.74 10.48-.79 14.34.02 28.69 0 43.04.01 4.34.04 8.72-.32 13.03.47.11 3.36.1 6.72-.16 10.07-20.31.42-40.63.04-60.95.21-1.72-.21-3.88.31-5.28-.9-.34-3.01-.1-6.05-.16-9.07zm208.77.71c2.31-3.58 7.91-2.03 11.56-1.71-.05.4-.13 1.2-.18 1.6-3.78.42-7.59.23-11.38.11zm-92.11 1.33c1.63-.51 2.18.04 1.65 1.67-1.63.51-2.18-.05-1.65-1.67zm3.99-.01c1.62-.52 2.16.04 1.64 1.67-1.63.52-2.17-.04-1.64-1.67zm4.01.01c1.64-.48 2.18.08 1.63 1.7-1.64.48-2.18-.09-1.63-1.7zm3.96.03c1.61-.56 2.17-.02 1.71 1.62-1.62.56-2.19.02-1.71-1.62zm4.04-.04c1.65-.46 2.18.12 1.59 1.72-1.65.46-2.18-.12-1.59-1.72zm3.94.05c1.62-.53 2.18.02 1.67 1.66-1.62.53-2.18-.02-1.67-1.66zm4.02 0c1.63-.53 2.19.01 1.68 1.64-1.63.54-2.18-.01-1.68-1.64zm4 .02c1.61-.57 2.18-.04 1.72 1.6-1.61.58-2.18.05-1.72-1.6zm3.99-.03c1.61-.57 2.17-.04 1.71 1.6-1.62.57-2.19.03-1.71-1.6zm4.07-.02c1.63-.49 2.17.07 1.63 1.69-1.64.5-2.18-.07-1.63-1.69zm3.96-.03c1.63-.49 2.17.08 1.62 1.7-1.64.49-2.18-.08-1.62-1.7zm4 .03c1.63-.51 2.18.05 1.65 1.68-1.63.51-2.18-.05-1.65-1.68zm10.44 3.05c10.68.04 21.37.32 32.04-.12.14 1.61.25 3.23.36 4.84-10.75.21-21.5.18-32.24 0-.05-1.58-.1-3.15-.16-4.72zm34.38.04c4.37.05 8.75.06 13.13.02.02 1.58.05 3.17.08 4.76-4.42.04-8.83.04-13.25-.01 0-1.59.02-3.18.04-4.77zm-89.87.82c1.24-.01 2.48-.03 3.72-.05.11.76.32 2.29.42 3.05 4.58.44 9.21.57 13.79.16.6-1.01 1.06-2.09 1.39-3.23 3.39-.09 6.78-.03 10.17.11.08.77.25 2.29.33 3.06 4.71.23 9.47.6 14.16-.09.3-1.04.58-2.08.83-3.13 1.45 0 2.91.01 4.37.04.08 3.78.09 7.56-.01 11.35-16.38.18-32.77.16-49.15.01.04-3.76.03-7.52-.02-11.28zm-157.7 1.99c3.24-.01 6.48-.07 9.72 0-1.25 1.77-2.3 3.87-4.19 5.05-1.7.21-3.42.18-5.14.23-.12-1.76-.25-3.52-.39-5.28zm38.7 10.37c20.11.12 40.23.07 60.34-.01 0 .61.01 1.84.01 2.45-6.14.79-12.35.28-18.52.28-12.67.17-25.34.11-38 .1-1.83.21-2.67-1.78-3.83-2.82zm76.1.78c8.86.08 17.71.06 26.57 0l.04 1.52c-8.93.02-17.86-.15-26.78.1.04-.4.13-1.21.17-1.62zM148.48 55c1.89-1.06 2.72 3.47.83 3.81-1.46-.52-1.58-2.67-.83-3.81z"></path><path d="M160.36 63.38c2.44-2.75-.22-7.2 2.85-9.55.54 4.22 1.16 8.69-.36 12.78-6.34-.07-12.67.13-19-.05-2.51.15-3.94-2.41-3.98-4.64 2.59 1.24 5.17 2.86 8.17 2.58 4.09-.22 8.52.75 12.32-1.12zm-46.75 5.14c2.55-3.54 4.51-7.46 7.09-10.97 5.25.76 10.63.74 15.88.02.71.14 2.12.41 2.83.55-1.36 5.47-5.29 9.66-7.69 14.63-2.57 5.05-.7 10.83-1.56 16.19-.85 1.47-2.41 2.43-4.13 2.37-5.6.2-11.23.22-16.83-.21-.83-7.7-.16-16.06 4.41-22.58m10.65-7.46c-2.2 3.23-4.55 6.37-6.79 9.59-1.34 1.96-3.42 3.76-3.43 6.32-.2 3.66-.03 7.32-.04 10.98.74.01 2.22.02 2.96.03.14-3.55-.76-7.49 1.33-10.64 2.71-4.38 5.02-8.99 7.88-13.27 3.31.01 6.62.01 9.92 0-.01-.75-.02-2.26-.03-3.01-3.93-.02-7.87-.03-11.8 0zm60.86 3.1c9.14.2 18.28-.17 27.41.22-.3.28-.92.84-1.22 1.12-8.74.53-17.51-.03-26.26.21.02-.38.05-1.16.07-1.55zm.42 25.72c8.68-.3 17.45-.43 26.11.06.23.46.69 1.37.92 1.83-9.23-.1-18.47-.14-27.7.01.17-.47.5-1.42.67-1.9z"></path><path d="M131.35 16.02c15.56-.06 31.13 0 46.7-.03.04.56.11 1.69.15 2.26-15.31-.06-30.67.4-45.95-.23-.23-.5-.68-1.5-.9-2zM343 20.95c.99-.18 1.99-.36 2.99-.55l.01.36c.01.56.04 1.67.06 2.23l.12 4.18c14.98.16 29.97-.3 44.94.24-15.17.67-30.4.11-45.59.28-.16-.86-.47-2.57-.62-3.43-.56 1.15-1.11 2.29-1.65 3.43-6.55-.14-13.12.4-19.65-.31 6.5-.42 13.02-.09 19.53-.31l-.06-4.06-.08-2.06zM185.23 49.33c9.16-.08 18.31.04 27.46 0-.06 4.11-.09 8.22-.09 12.33-9.17.02-18.34-.06-27.51.04-.19-3.29-.2-6.58-.04-9.87 8.92-.25 17.85-.08 26.78-.1l-.04-1.52c-8.86.06-17.71.08-26.57 0l.01-.88zm27.3 15.05l.18-.17c-.21 7.52-.13 15.05-.01 22.58-9.24.61-18.51.23-27.75.24 0-7.11-.18-14.21.1-21.32 8.75-.24 17.52.32 26.26-.21.3-.28.92-.84 1.22-1.12zm-27.66 27.4c9.23-.15 18.47-.11 27.7-.01-.2 4.48-.03 8.96-.32 13.44-9.02.15-18.08.48-27.08-.21-.38-4.4-.22-8.81-.3-13.22z" fill="#3c3b3c"></path></svg>