<svg data-v-ea210746="" viewBox="0 0 286 115" xmlns="http://www.w3.org/2000/svg" fill="#7d7c7d" class="ui-icon max-h-full absolute left-1/2 top-1/2 -translate-x-1/2 -translate-y-1/2 z-[201] w-[70%]" style="fill: rgb(174, 219, 242); opacity: 1;"><g fill="#000"><path d="M101.34 1.37c4.43-.46 8.9-.49 13.33-.06 3.18 4.19 6.26 8.44 9.43 12.63 20.23-.02 40.46.25 60.68-.11 2.49-3.17 4.57-6.71 7.55-9.47 2.64-.73 5.41-.23 8.07.19.15 3.52.19 7.04.24 10.56 4.5 2.15 9.55 1.4 14.36 1.48 4.55 0 9.1.02 13.65-.04 1.63-3.37 3.15-6.8 4.68-10.22 3.86-.23 7.72-.22 11.58-.02 1.12 3.8.4 7.77.79 11.65.88 1.89 2.16 3.56 3.26 5.32 4.24.09 8.5-.22 12.72.16 2.22.14 1.82 2.93 2.39 4.44 6.62.35 13.26-.19 19.88.34.12 3.96 1.29 8.49-.62 12.1-6.35.82-12.8-.14-19.18.5-.67 1.33-.39 3.77-2.33 3.99-4.2.56-8.45-.18-12.64.33-2.39 2.7-5.1 5.1-8.44 6.6-.3 1.68-.65 3.35-.96 5.03-12.79.53-25.61-.17-38.4.38-.04 3.06.39 6.36-1.17 9.14-1.34 2.58-4.37 3.75-7.16 3.7-6.79.12-13.58-.16-20.37.04-.36 7.58.1 15.17-.2 22.74 0 2.87-2.63 4.69-3.35 7.27-.39 4.58-.01 9.18-.31 13.77-7.74.19-15.57.78-23.26-.34-.53-4.68.42-9.54-.61-14.13-3.55-2.05-7.68-4.39-8.37-8.87-2.21-10.95 2.96-21.56 3.37-32.41-.56-4.38-5.02-6.66-8.46-8.65-.12-2.55-.2-5.11-.28-7.66-10.33-.26-20.66.09-30.98-.15-3.1.37-2.27-3.5-2.63-5.42-4.15-.05-8.31.25-12.45-.15-1.41-.13-1.7-1.89-2.57-2.77-20.87-.23-41.75.01-62.63-.12-3.23-.55-5.47 2.2-7.32 4.41-.74 12.59.43 25.27-.59 37.85-3.81-1.43-7.52-4.21-9.65-7.62-.42-11.58-.07-23.2-.17-34.79-.23-3.66 3.53-5.58 5.57-8.09 1.42-2.02 3.98-1.83 6.16-1.85 21.71.05 43.41-.01 65.11.03 3.2.33 5.75-2.13 8.91-2.05 3.51.13 5.96-3.15 9.58-2.65 1.09-1.52 2.29-2.97 3.21-4.6.61-4.1.09-8.29.58-12.41m2.37 2.7c.14.47.43 1.41.57 1.88 0 2.94.03 5.89.01 8.83 5.52 0 11.03-.05 16.55.07-2.24-2.93-4.52-5.82-6.63-8.84-2.04-3.73-7.06-1.44-10.5-1.94m89.62 5.1c-2.45.87-3.59 3.75-5.25 5.65 3.04-.03 6.07-.02 9.11.07.05-2.05-.02-4.1-.33-6.13 1.42-2.8-5.05-2.19-3.53.41m42.74-.2c-.29.51-.88 1.52-1.18 2.03-1.65 4.83-5.92 8.72-5.82 14.04 5.31.61 10.66.38 15.98.14-.09-.69-.25-2.06-.33-2.74-.6-.22-1.79-.66-2.38-.88.01-3.52-.08-7.04-.24-10.56-.02-.49-.06-1.47-.09-1.97-1.98-.03-3.96-.04-5.94-.06M102.22 17c-.32.48-.95 1.46-1.27 1.95.03 6.44-.14 12.88.09 19.32 1.27 0 2.55-.01 3.82-.02.06-2.08.15-4.16.22-6.25 1.27.01 2.54.01 3.82.01.06 2.07.14 4.15.19 6.22 6.99.24 13.98.14 20.97.14 3.14.24 4.94-3.19 7.94-3.49 2.58-.26 5.18-.11 7.76.02-3.43-2.26-2.71-6.56-2.88-10.09-5.51-.38-11.04.18-16.53-.3-2.76-.18-2.78-3.44-3.43-5.44.04-.5.11-1.51.15-2.02-6.95-.19-13.9-.12-20.85-.05m23.68 5.03c5.05-.13 10.09.12 15.13-.11 1.94.22 2.82-1.71 4-2.85 9.27.09 18.54.06 27.82.03 1.14 1.25 2.11 3.19 4.12 2.87 10.06.05 20.14.27 30.2-.21-2.16-1.21-4.28-2.87-6.8-3.17-2.04-.77-4.12-1.68-6.34-1.65-21.34.08-42.69.04-64.03.04-1.62.01-3.24.12-4.85.34.26 1.57.5 3.14.75 4.71m82.63-1.91c1.71.83 3.43 1.79 5.34 2.09 3.66 3.05 8.56 3.41 13.12 3.07v-3.27c.01-.5.04-1.51.06-2.02-6.17.01-12.35-.21-18.52.13m-62.33.9l-1.52 1.92c.27 3.01.4 6.03.52 9.04 4.85 1.22 9.87.53 14.8.67 4.21-.09 8.54.53 12.64-.75-.02-2.98-.03-5.98.35-8.95-.32-.49-.95-1.45-1.26-1.94-8.5-.24-17.03-.24-25.53.01m-51.15.86l-.04 2.41c-.07 2.91-.03 5.82.07 8.73l3.63-.18c0-2.96 0-5.92-.04-8.87.15-.51.44-1.52.59-2.02-1.4-.03-2.81-.06-4.21-.07M86.95 24c.02.52.07 1.55.09 2.07-.14 2.3-.24 4.6-.29 6.9h6.23c0-2.3-.02-4.61-.05-6.91.01-.51.04-1.53.05-2.04-2.01-.03-4.02-.03-6.03-.02m88.03 1.03c-.17 3.32-.41 6.69-1.77 9.77 6.28.02 12.56-.14 18.83 0 2.4-.17 4.11 1.71 5.88 3.01.45-3.13-1.16-7.29 1.38-9.65 4.8-.26 10.09.51 13.99-3.01-12.77-.22-25.54-.09-38.31-.12m-164.67.99c-1.61 2.51-5.88 4.12-4.98 7.51.46 10.73-.02 21.48.22 32.21-.07 2.02 2.18 2.68 3.53 3.63.54-10.43.03-20.88.24-31.32-.01-2.77 2.84-4.31 4.48-6.21 2.27-2.74 6.12-1.65 9.21-1.87 20.58-.09 41.18.38 61.75-.23-.05-1.17-.1-2.33-.12-3.49-2.2-.28-4.43-.31-6.64-.29-22.56.06-45.13-.07-67.69.06m237.65-.01v2.04c-.39 4.57-.47 9.16-.1 13.73 4.09-.01 8.18-.01 12.26-.01.3-4.58-.06-9.16-.01-13.74.01-.5.04-1.52.05-2.03-4.07-.04-8.13-.05-12.2.01m-33.85 3.88c-.13 5.02.01 10.05-.14 15.08-.48 0-1.45.01-1.93.02-.07-5.3-.01-10.6.03-15.9-3.48 1.36-7.24 1.41-10.91 1.22-.25 6.22-.18 12.45-.12 18.67 11.67.15 23.35.07 35.02.06 3.55.37 6.27-2.11 8.88-4.11.04-4.95.1-9.91 0-14.87.03-.51.11-1.53.14-2.05-3.71-.05-7.42-.04-11.13 0l.08 2.05c-.11 4.98-.05 9.95-.07 14.93-.48-.01-1.45-.02-1.94-.02-.14-5.03-.01-10.05-.14-15.08 1.78-2.45-3.54-2.44-1.77 0-.13 5.03.01 10.06-.13 15.09-.49 0-1.47-.01-1.96-.01-.14-5.02-.01-10.05-.14-15.08 1.77-2.45-3.54-2.44-1.77 0-.13 5.03.01 10.06-.14 15.09-.48 0-1.46-.01-1.95-.01-.14-5.03 0-10.05-.14-15.08 1.78-2.44-3.54-2.45-1.77 0-.13 5.03.01 10.06-.14 15.08h-1.95c-.14-5.03 0-10.05-.14-15.08 1.78-2.44-3.54-2.45-1.77 0-.13 5.02.01 10.05-.13 15.08h-1.96c-.14-5.02 0-10.05-.14-15.08 1.78-2.44-3.54-2.45-1.77 0m48.65 1.14c-.05.55-.14 1.65-.19 2.2.02 1.31.05 2.63.09 3.95 6.09.21 12.19.25 18.28 0 0-1.32.01-2.64.02-3.96.02-.54.04-1.63.05-2.17-6.08-.09-12.17-.07-18.25-.02m-127.97 7.88c.03 2.74-.03 5.49.01 8.23 20.37.38 40.75.19 61.12.04.04-2.72.08-5.44.15-8.17-.32-.52-.94-1.56-1.26-2.08-18.59-.01-37.19.14-55.79 0-1.69-.18-2.91 1.16-4.23 1.98m4.58 11.12c.2.49.61 1.48.81 1.97l.94.05c1.03 2.17 2.17 4.43 1.98 6.91-.38 9.13-4.12 17.85-3.82 27.04.14 3.24.8 7.11 3.99 8.74 4.84 2.48 10.5 1.32 15.72 1.6 3.08-.22 6.51.64 9.3-1 1.49-2.87.9-6.24 1.04-9.35-.25-11.29.39-22.62-.36-33.89-.01-.52-.03-1.55-.03-2.06-9.86-.1-19.71-.07-29.57-.01m37.54-.05c-.05.51-.16 1.53-.21 2.04.02 3.59 1.98 6.66 5.09 8.38-.31-2.77-.67-5.54-.9-8.32l.08-2.04c-1.35-.02-2.7-.05-4.06-.06m20.07-.07c-.09 4.31.26 8.65-.22 12.95-.16 1.86-2.04 2.96-3.77 2.92-7.03.37-14.07-.12-21.1.17l-.03 1.07c6.74.04 13.48.06 20.22.04 2.12.04 4.6-.35 5.72-2.4 1.2-4.82.36-9.84.19-14.73l-1.01-.02m-24.2 12.84c2.02-.01 4.04.04 6.06.1-3.56-3.11-5.3-7.51-5.56-12.17-1.36 3.88-.65 8.07-.5 12.07M184.19 51c-.42 4.22 1.11 8.12 3.32 11.62 2.11.07 4.22.11 6.33.16.26-3.99.26-7.98.11-11.96-3.26-.15-6.52-.14-9.76.18m17.1.41c-.11.56-.33 1.7-.44 2.27 11.97-.02 23.94-.04 35.91 0v-2.37c-11.83.12-23.65-.1-35.47.1m-52.91 47.56l.88.76-1.03.01c-.12 3.63-.51 7.3.03 10.92l1.07 1.07c5.09.37 10.24.37 15.33 0 .27-.27.79-.81 1.05-1.08.52-3.56.19-7.18.16-10.77V98.2c-5.82.25-11.8-.81-17.49.77z"></path><path d="M146.76 26.98c1.11-1.09 2.21-2.18 3.31-3.28.97 1.09 1.98 2.15 2.91 3.29-.94 1.13-1.95 2.19-2.93 3.29-1.09-1.11-2.18-2.21-3.29-3.3zM202.81 42c1.07-1.06 2.14-2.13 3.2-3.21 1.03 1.08 2.08 2.15 3.14 3.21-1.06 1.06-2.11 2.13-3.15 3.21-1.06-1.08-2.12-2.15-3.19-3.21zm34.01 0c1.07-1.05 2.12-2.11 3.18-3.17 1.05 1.06 2.12 2.12 3.19 3.17-1.07 1.05-2.14 2.11-3.19 3.18-1.05-1.07-2.11-2.13-3.18-3.18zm-74.85 12.98c1.58.08 2.45-1.5 3.57-2.33.18 1.42.38 2.84.61 4.26-6.04.21-12.08.16-18.13.07v-1.94c4.65-.1 9.3.16 13.95-.06zm-.95 6.05c1.97.21 3.37-1.33 4.92-2.26l.06 4.18c-6.66.05-13.31.03-19.97 0 0-.47 0-1.42-.01-1.9 5-.1 10 .08 15-.02zm0 5.96c1.96.2 3.37-1.3 4.93-2.2.01 1.39.02 2.78.05 4.17-6.66.13-13.31.12-19.97 0 0-.48.01-1.44.01-1.92 4.99-.2 9.99.05 14.98-.05zm0 6.04c1.97.21 3.37-1.33 4.92-2.26l.06 4.18c-7.33.04-14.65.03-21.98.01v-1.92c5.66-.1 11.33.09 17-.01zm0 5.96c1.96.2 3.37-1.31 4.93-2.2.01 1.39.03 2.77.05 4.16-7.33.14-14.65.12-21.97.03 0-.49-.01-1.47-.01-1.96 5.67-.19 11.34.07 17-.03zm0 6.04c1.97.21 3.37-1.33 4.93-2.26.01 1.39.03 2.78.05 4.17-7.99.06-15.98.04-23.97.01 0-.47 0-1.43-.01-1.9 6.34-.11 12.67.08 19-.02zm0 5.96c1.96.21 3.36-1.3 4.92-2.21.01 1.39.03 2.78.06 4.18-6.32.13-12.64.13-18.95-.01v-1.91c4.66-.19 9.32.04 13.97-.05z"></path></g><path d="M103.71 4.07c3.44.5 8.46-1.79 10.5 1.94-3.31.06-6.62.12-9.93-.06-.14-.47-.43-1.41-.57-1.88zm89.62 5.1c-1.52-2.6 4.95-3.21 3.53-.41-1.17.23-2.34.36-3.53.41zm42.74-.2c1.98.02 3.96.03 5.94.06.03.5.07 1.48.09 1.97h-7.21c.3-.51.89-1.52 1.18-2.03zM102.22 17c6.95-.07 13.9-.14 20.85.05-.04.51-.11 1.52-.15 2.02-7.33-.14-14.65-.01-21.97-.12.32-.49.95-1.47 1.27-1.95zm22.93.32c1.61-.22 3.23-.33 4.85-.34 21.34 0 42.69.04 64.03-.04 2.22-.03 4.3.88 6.34 1.65-9.15.92-18.35.11-27.52.51-9.28.03-18.55.06-27.82-.03-5.35-.18-10.7.15-16.04-.13-1.44-.04-2.62-.97-3.84-1.62zm83.38 2.8c6.17-.34 12.35-.12 18.52-.13-.02.51-.05 1.52-.06 2.02-4.38-.04-8.75.07-13.12.2-1.91-.3-3.63-1.26-5.34-2.09zm-62.33.9c8.5-.25 17.03-.25 25.53-.01.31.49.94 1.45 1.26 1.94-9.44.09-18.88.11-28.31-.01l1.52-1.92zm-51.15.86c1.4.01 2.81.04 4.21.07-.15.5-.44 1.51-.59 2.02-1.22.12-2.44.23-3.66.32l.04-2.41zM86.95 24c2.01-.01 4.02-.01 6.03.02-.01.51-.04 1.53-.05 2.04-1.97 0-3.93 0-5.89.01-.02-.52-.07-1.55-.09-2.07zm-76.64 2.02c22.56-.13 45.13 0 67.69-.06 2.21-.02 4.44.01 6.64.29-.96 1.64-2.84 1.87-4.57 1.8-21.72-.07-43.44-.08-65.15-.01-4.07-.29-6.61 3.37-9.59 5.49-.9-3.39 3.37-5 4.98-7.51zm237.65-.01c4.07-.06 8.13-.05 12.2-.01-.01.51-.04 1.53-.05 2.03-4.05.01-8.1.01-12.15.02v-2.04zm-33.85 3.88c-1.77-2.45 3.55-2.44 1.77 0h-1.77zm4 0c-1.77-2.45 3.55-2.44 1.77 0h-1.77zm4 0c-1.77-2.45 3.55-2.44 1.77 0h-1.77zm4 0c-1.77-2.44 3.54-2.45 1.77 0h-1.77zm4 0c-1.77-2.44 3.55-2.45 1.77 0h-1.77zm3.84-1.88c3.71-.04 7.42-.05 11.13 0-.03.52-.11 1.54-.14 2.05-3.64-.01-7.27-.01-10.91 0l-.08-2.05zm28.81 3.02c6.08-.05 12.17-.07 18.25.02-.01.54-.03 1.63-.05 2.17-6.13.16-12.26.15-18.39.01.05-.55.14-1.65.19-2.2zm-127.97 7.88c1.32-.82 2.54-2.16 4.23-1.98 18.6.14 37.2-.01 55.79 0 .32.52.94 1.56 1.26 2.08-20.43-.09-40.85.12-61.28-.1zm4.58 11.12c9.86-.06 19.71-.09 29.57.01 0 .51.02 1.54.03 2.06-9.28-.08-18.57-.01-27.85-.05l-.94-.05c-.2-.49-.61-1.48-.81-1.97zm37.54-.05c1.36.01 2.71.04 4.06.06l-.08 2.04c-1.4-.03-2.8-.05-4.19-.06.05-.51.16-1.53.21-2.04z" fill="#efeeef"></path><path d="M104.28 5.95c3.31.18 6.62.12 9.93.06 2.11 3.02 4.39 5.91 6.63 8.84-5.52-.12-11.03-.07-16.55-.07.02-2.94-.01-5.89-.01-8.83zm83.8 8.87c1.66-1.9 2.8-4.78 5.25-5.65 1.19-.05 2.36-.18 3.53-.41.31 2.03.38 4.08.33 6.13-3.04-.09-6.07-.1-9.11-.07zM234.89 11h7.21c.16 3.52.25 7.04.24 10.56.59.22 1.78.66 2.38.88.08.68.24 2.05.33 2.74-5.32.24-10.67.47-15.98-.14-.1-5.32 4.17-9.21 5.82-14.04zM125.9 22.03c-.25-1.57-.49-3.14-.75-4.71 1.22.65 2.4 1.58 3.84 1.62 5.34.28 10.69-.05 16.04.13-1.18 1.14-2.06 3.07-4 2.85-5.04.23-10.08-.02-15.13.11zm74.47-3.44c2.52.3 4.64 1.96 6.8 3.17-10.06.48-20.14.26-30.2.21-2.01.32-2.98-1.62-4.12-2.87 9.17-.4 18.37.41 27.52-.51z"></path><path d="M100.95 18.95c7.32.11 14.64-.02 21.97.12.65 2 .67 5.26 3.43 5.44 5.49.48 11.02-.08 16.53.3.17 3.53-.55 7.83 2.88 10.09-2.58-.13-5.18-.28-7.76-.02-3 .3-4.8 3.73-7.94 3.49-6.99 0-13.98.1-20.97-.14-.05-2.07-.13-4.15-.19-6.22-1.28 0-2.55 0-3.82-.01-.07 2.09-.16 4.17-.22 6.25-1.27.01-2.55.02-3.82.02-.23-6.44-.06-12.88-.09-19.32zm112.92 3.26c4.37-.13 8.74-.24 13.12-.2v3.27c-4.56.34-9.46-.02-13.12-3.07zm-69.19.73c9.43.12 18.87.1 28.31.01-.38 2.97-.37 5.97-.35 8.95-4.1 1.28-8.43.66-12.64.75-4.93-.14-9.95.55-14.8-.67-.12-3.01-.25-6.03-.52-9.04m2.08 4.04c1.11 1.09 2.2 2.19 3.29 3.3.98-1.1 1.99-2.16 2.93-3.29-.93-1.14-1.94-2.2-2.91-3.29-1.1 1.1-2.2 2.19-3.31 3.28zm-51.75-2.69c1.22-.09 2.44-.2 3.66-.32.04 2.95.04 5.91.04 8.87l-3.63.18c-.1-2.91-.14-5.82-.07-8.73zm79.97.74c12.77.03 25.54-.1 38.31.12-3.9 3.52-9.19 2.75-13.99 3.01-2.54 2.36-.93 6.52-1.38 9.65-1.77-1.3-3.48-3.18-5.88-3.01-6.27-.14-12.55.02-18.83 0 1.36-3.08 1.6-6.45 1.77-9.77zm-90.34 1.22c.02 1.16.07 2.32.12 3.49-20.57.61-41.17.14-61.75.23-3.09.22-6.94-.87-9.21 1.87-1.64 1.9-4.49 3.44-4.48 6.21-.21 10.44.3 20.89-.24 31.32-1.35-.95-3.6-1.61-3.53-3.63-.24-10.73.24-21.48-.22-32.21 2.98-2.12 5.52-5.78 9.59-5.49 21.71-.07 43.43-.06 65.15.01 1.73.07 3.61-.16 4.57-1.8zm2.4-.18c1.96-.01 3.92-.01 5.89-.01.03 2.3.05 4.61.05 6.91h-6.23c.05-2.3.15-4.6.29-6.9zm160.92 1.98c4.05-.01 8.1-.01 12.15-.02-.05 4.58.31 9.16.01 13.74-4.08 0-8.17 0-12.26.01-.37-4.57-.29-9.16.1-13.73z"></path><path d="M201.16 30.31c3.67.19 7.43.14 10.91-1.22-.04 5.3-.1 10.6-.03 15.9.48-.01 1.45-.02 1.93-.02.15-5.03.01-10.06.14-15.08h1.77c.14 5.03 0 10.06.14 15.08h1.96c.14-5.03 0-10.06.13-15.08h1.77c.14 5.03 0 10.05.14 15.08h1.95c.15-5.02.01-10.05.14-15.08h1.77c.14 5.03 0 10.05.14 15.08.49 0 1.47.01 1.95.01.15-5.03.01-10.06.14-15.09h1.77c.13 5.03 0 10.06.14 15.08.49 0 1.47.01 1.96.01.14-5.03 0-10.06.13-15.09h1.77c.13 5.03 0 10.05.14 15.08.49 0 1.46.01 1.94.02.02-4.98-.04-9.95.07-14.93 3.64-.01 7.27-.01 10.91 0 .1 4.96.04 9.92 0 14.87-2.61 2-5.33 4.48-8.88 4.11-11.67.01-23.35.09-35.02-.06-.06-6.22-.13-12.45.12-18.67M202.81 42c1.07 1.06 2.13 2.13 3.19 3.21 1.04-1.08 2.09-2.15 3.15-3.21-1.06-1.06-2.11-2.13-3.14-3.21-1.06 1.08-2.13 2.15-3.2 3.21m34.01 0c1.07 1.05 2.13 2.11 3.18 3.18 1.05-1.07 2.12-2.13 3.19-3.18-1.07-1.05-2.14-2.11-3.19-3.17-1.06 1.06-2.11 2.12-3.18 3.17zm25.75-8.77c6.13.14 12.26.15 18.39-.01-.01 1.32-.02 2.64-.02 3.96-6.09.25-12.19.21-18.28 0-.04-1.32-.07-2.64-.09-3.95zm-127.78 5.68c20.43.22 40.85.01 61.28.1-.07 2.73-.11 5.45-.15 8.17-20.37.15-40.75.34-61.12-.04-.04-2.74.02-5.49-.01-8.23zm6.33 13.14c9.28.04 18.57-.03 27.85.05.75 11.27.11 22.6.36 33.89-.14 3.11.45 6.48-1.04 9.35-2.79 1.64-6.22.78-9.3 1-5.22-.28-10.88.88-15.72-1.6-3.19-1.63-3.85-5.5-3.99-8.74-.3-9.19 3.44-17.91 3.82-27.04.19-2.48-.95-4.74-1.98-6.91m20.85 2.93c-4.65.22-9.3-.04-13.95.06v1.94c6.05.09 12.09.14 18.13-.07-.23-1.42-.43-2.84-.61-4.26-1.12.83-1.99 2.41-3.57 2.33m-.95 6.05c-5 .1-10-.08-15 .02.01.48.01 1.43.01 1.9 6.66.03 13.31.05 19.97 0l-.06-4.18c-1.55.93-2.95 2.47-4.92 2.26m0 5.96c-4.99.1-9.99-.15-14.98.05 0 .48-.01 1.44-.01 1.92 6.66.12 13.31.13 19.97 0-.03-1.39-.04-2.78-.05-4.17-1.56.9-2.97 2.4-4.93 2.2m0 6.04c-5.67.1-11.34-.09-17 .01v1.92c7.33.02 14.65.03 21.98-.01l-.06-4.18c-1.55.93-2.95 2.47-4.92 2.26m0 5.96c-5.66.1-11.33-.16-17 .03 0 .49.01 1.47.01 1.96 7.32.09 14.64.11 21.97-.03-.02-1.39-.04-2.77-.05-4.16-1.56.89-2.97 2.4-4.93 2.2m0 6.04c-6.33.1-12.66-.09-19 .02.01.47.01 1.43.01 1.9 7.99.03 15.98.05 23.97-.01-.02-1.39-.04-2.78-.05-4.17-1.56.93-2.96 2.47-4.93 2.26m0 5.96c-4.65.09-9.31-.14-13.97.05v1.91c6.31.14 12.63.14 18.95.01-.03-1.4-.05-2.79-.06-4.18-1.56.91-2.96 2.42-4.92 2.21zm15.68-38.97c1.39.01 2.79.03 4.19.06.23 2.78.59 5.55.9 8.32-3.11-1.72-5.07-4.79-5.09-8.38zm-28.32 46.95c5.69-1.58 11.67-.52 17.49-.77v1.68c-5.54-.33-11.08-.17-16.61-.15l-.88-.76z"></path><path d="M196.98 49.91l1.01.02c.17 4.89 1.01 9.91-.19 14.73-1.12 2.05-3.6 2.44-5.72 2.4-6.74.02-13.48 0-20.22-.04l.03-1.07c7.03-.29 14.07.2 21.1-.17 1.73.04 3.61-1.06 3.77-2.92.48-4.3.13-8.64.22-12.95zm4.31 1.5c11.82-.2 23.64.02 35.47-.1v2.37c-11.97-.04-23.94-.02-35.91 0 .11-.57.33-1.71.44-2.27zm-53.06 48.33l1.03-.01c5.53-.02 11.07-.18 16.61.15.03 3.59.36 7.21-.16 10.77-.26.27-.78.81-1.05 1.08-5.09.37-10.24.37-15.33 0l-1.07-1.07c-.54-3.62-.15-7.29-.03-10.92z" fill="#3b3b3b"></path></svg>