<svg data-v-ea210746="" viewBox="0 0 476 154" xmlns="http://www.w3.org/2000/svg" fill="#7e7f7e" class="ui-icon max-h-full w-full" style="fill: rgb(224, 50, 50); opacity: 1;"><g fill="#000"><path d="M208 4c2.03-2.48 5.9-3.48 8.77-1.84 3.26 1.54 4.35 5.43 4.26 8.77-.02 9.6-.15 19.2-.03 28.8 3.3.14 7.69.72 8.49 4.63.57 4.99.16 10.05.1 15.07-1.26.46-2.52.92-3.77 1.41 21.97.11 43.95.33 65.92.27 1.27-2.61 2.81-5.78 6.29-5.36 3.64-.63 5.54 2.81 6.93 5.52 19.53.17 39.06.33 58.59.68.59-1.99 1-4.32 2.91-5.51 2.44-1.4 5.27-.23 7.81.21.67 1.76 1.34 3.52 1.98 5.28 16.58.2 33.17.22 49.74.36 3.71.65 2.96-4.38 5.45-5.86 2.37-1.15 5.35-.79 7.61.48 1.21 1.69 1.58 3.91 3.03 5.42 4.29.27 8.62.3 12.93.15 1.22-1.96 1.69-4.43 3.43-6.04 2.22-.96 4.9-.99 7.13.01 1.98 1.41 2.24 3.99 2.87 6.14 2.07.15 4.15.35 6.22.6.19 4.57.2 9.14-.01 13.7-2.2.4-4.43.68-6.64.93.02 1.24.04 2.47.07 3.71 2.19.13 4.37.31 6.56.59.22 4.61.24 9.23-.02 13.84-2.18.28-4.37.47-6.56.62-.01 1.28-.01 2.57-.01 3.86 2.19.15 4.39.33 6.57.62.25 4.58.23 9.17.04 13.76-2.06.3-4.13.53-6.19.72-.67 2.11-.96 4.65-2.92 6.03-2.19 1.08-4.92 1.08-7.1 0-1.88-1.48-1.97-4.22-3.56-5.91-4.23-.19-8.49-.23-12.71.1-2.23 1.66-1.84 6.02-5.3 6.32-4.34 1.67-8.05-2.01-8.36-6.18-17.4-.19-34.81.09-52.21.17-.67 1.7-1.19 3.49-2.23 5.01-2.19 1.47-5.28 1.78-7.62.49-1.87-1.16-2.31-3.45-2.96-5.37-19.5.25-39 .49-58.5.59-1.45 2.67-3.36 6.13-6.98 5.57-3.43.3-4.99-2.84-6.32-5.4-28.14-.12-56.28.33-84.42.74-.18 1.71-.37 3.42-.58 5.12-1.82.23-3.65.43-5.47.6-.21 1.46-.43 2.92-.64 4.38-3.88.25-7.76.19-11.64.16-4.4-.29-8.67 1.9-12.18 4.2-.28 4.12 0 8.26-.3 12.38-7.03.94-14.13.19-21.2.5-.13 2.21-.28 4.42-.49 6.63-7.22.22-14.44.11-21.67.11-2.15-2.92-3.63-6.89-7.61-7.65-.23-1.69-.44-3.39-.65-5.08-18.6-.14-37.2.14-55.8-.1-1.75-5.86-.9-12.02-1.09-18.03-21.87-.36-43.75.18-65.62-.28-.85-6.19-.52-12.46-.5-18.68-.15-5.48 2.76-10.8 7.31-13.79 4.59-3.03 9.7-5.15 14.61-7.58.49-4.05-.91-9.93 3.88-11.84 6.67-1.23 13.57.23 20.29-.69 5.47-1.86 10.3-5.13 15.56-7.48 1.38-.63 2.95-.55 4.44-.63 23.38.18 46.75.02 70.13.11 7.17.49 12.06-5.96 18.79-7.36.11-2.79.25-5.58.53-8.36 7.51-.32 15.04-.26 22.56-.15 2.04-.26 2.88 1.9 4.11 3.09 5.52.02 11.04.09 16.56-.08.09-3.75 2.87-6.02 5.41-8.3.33-7.62.02-15.26.09-22.89.13-4.02-.63-8.53 1.89-12.01m3.38.95c-.4.52-1.22 1.56-1.63 2.08-.91 11.33-.16 22.73-.42 34.1 2.79.11 5.59.13 8.4.1-.01-11.38-.06-22.76 0-34.14l-.73-.01c-.28-.54-.85-1.63-1.13-2.17-1.5-.01-2.99 0-4.49.04m-6.17 38.85l-1.35 2.11c.61 3.79.47 7.64.6 11.46 2.58-.94 4.85-2.69 7.55-3.29 2.3.15 4.06 1.96 6.17 2.71 2.68.46 5.4.21 8.1.21.07-3.69.05-7.38.22-11.07l-.77-2.1c-6.83-.33-13.7-.22-20.52-.03m-45.57 3.95c.16.54.47 1.61.63 2.15.01 6.38.03 12.76.01 19.14 6.44.24 12.9.24 19.34.02-.08-6.99-.29-13.99.14-20.97-6.66-.84-13.42-.29-20.12-.34m22.38 2.92c-.03.62-.08 1.86-.11 2.48-.32 4.25-.26 8.51-.13 12.76 6.73.18 13.47.18 20.21.06.07-4.27.07-8.55 0-12.82l-.04-2.46c-6.64.12-13.29.14-19.93-.02m-41.95 12.28c-14.03.17-28.06-.02-42.09.1.02.55.05 1.65.06 2.21-.03 3.15.13 6.32-.22 9.46-1.36 1.54-3.59 1.21-5.41 1.62-.6 2.27-.95 4.82-2.69 6.56-3.3.82-6.83-.11-8.46-3.28-.68-4.75-.17-9.57-.31-14.35.01-.56.05-1.67.06-2.22-4.76-.05-9.52-.07-14.28.02-.02.55-.07 1.64-.09 2.18.03 7.91-.08 15.81.08 23.72 26.42.03 52.83.13 79.24.01.05-3.32.08-6.63.1-9.95 4.59-.11 9.18-.11 13.77.02 1.86 3.29 3.89 6.48 5.59 9.86 6.18.19 12.36.16 18.55.06-.04-7.13.48-14.31-.42-21.42-.88 1.36-1.54 2.83-2.07 4.35-7.81.22-15.63.05-23.44.06.01-4.81.09-9.63-.25-14.43.15-.45.46-1.35.62-1.8-6.88.42-11.36 7.5-18.34 7.22m70.28-7.32c-.67 1.08-1.32 2.16-1.97 3.25.93 1.42 1.47 3.95 3.62 3.82 2.3.13 2.89-2.49 3.82-4.05-1.22-1.91-3.36-2.63-5.47-3.02m-5.95 3.36c-.05 3.3-.07 6.61-.12 9.91 6.06.2 12.13.23 18.19-.05-.08-3.28-.09-6.56-.07-9.83-1.31.04-2.63.05-3.92.21-1.93 2.05-3.12 5.61-6.48 5.46-3.11.16-4.49-2.93-5.7-5.24-.48-.11-1.43-.34-1.9-.46m90.99 2.05c.74 19.27-.37 38.57.56 57.83 1.6-.01 3.2-.03 4.8-.06.79-19.25-.19-38.53.51-57.77-1.04-2.92-4.61-2.55-5.87 0m72.66-2.33c-.28.65-.83 1.97-1.1 2.63.42 19.19-.28 38.39.43 57.57 1.66-.07 3.32-.17 4.98-.29.62-19.43-.24-38.9.43-58.33l-.45.09c-1.21-1.07-2.78-1.36-4.29-1.67m63.87 2.47c.54 13.26.08 26.55.24 39.82.17 6.08-.57 12.23.59 18.24l4.38-.42c.88-5.9.41-11.88.48-17.82.15-13.56-.3-27.15.26-40.7l-.51.08c-1.73-1.86-4.76-2.1-5.44.8m27.68-.8l-.51-.09c.48 13.57.19 27.15.25 40.72.09 6.05-.36 12.14.47 18.17 1.59-.18 3.19-.36 4.79-.55.4-19.14-.35-38.31.39-57.44-.36-3.12-3.7-2.6-5.39-.81M83.98 63.04c.02.55.04 1.66.05 2.21-.02 3.45-.36 6.95.26 10.36 1.36 1.81 3.13 3.25 4.82 4.75 1.44-4.91.84-10.07.85-15.11.01-.55.04-1.65.06-2.2-2.01-.01-4.02-.01-6.04-.01m8.05 0c-.04.55-.12 1.65-.17 2.2-.48 3.45 1.41 6.11 4.06 8.07.07-2.7.1-5.4.11-8.1-.01-.54-.01-1.62-.01-2.17h-3.99m131.52 1.09c.22.45.64 1.34.86 1.79-.06 1.78-.11 3.55-.18 5.33-6.03.13-12.06.1-18.09.04l-.12 4.95c28.97.34 57.94-.44 86.91-.55.08-3.21.1-6.43.01-9.64-.01-.51-.02-1.52-.03-2.03-23.12 0-46.25-.19-69.36.11M55.94 67.87C43.16 74.54 30.2 80.85 17.27 87.2c-5.81 2.4-11.63 6.99-12.26 13.63-.05 5.62-.08 11.25.1 16.87 19.68-.28 39.36-.05 59.04-.13-.01-1.38-.03-2.75-.05-4.12-17.79-.14-35.57.16-53.35-.16-.06-3.72-.39-7.48.11-11.19.32-1.81 2.14-2.78 3.53-3.73 8.27-4.75 17.47-7.54 26.5-10.47 4.61-1.41 9.26-3.02 14.13-3.21 3.32-.11 6.28 1.57 9.23 2.85.09-7 .36-14.02-.19-21.01l.4-2.09c-3.1.39-5.77 2.08-8.52 3.43m248.04-3.18c0 .58-.01 1.74-.01 2.32.01 2.89.07 5.77.15 8.66 5.92-.11 11.84.02 17.77-.12 14.35-.56 28.72.06 43.07-.43.01-2.7.01-5.39-.06-8.09-.03-.5-.08-1.5-.11-2-20.27.07-40.54-.28-60.81-.34m71.13.87c-.01.64-.04 1.9-.05 2.54.02 2.27.06 4.54.08 6.81 18.25.08 36.5-.36 54.75-.3.06-2.16.1-4.31.14-6.46l-.16-2.39c-18.25-.05-36.51-.13-54.76-.2m64.87.28l.04 2.17c0 2.11 0 4.22.01 6.34 5.76.15 11.52.08 17.28-.09-.06-2.09-.13-4.18-.22-6.27 0-.52.01-1.57.01-2.09-5.71-.03-11.41-.07-17.12-.06m26.99.08c-.01.55-.02 1.65-.03 2.21.01 2.02.02 4.05.05 6.08 1.42-.02 2.84-.03 4.27-.05.06-2.07.1-4.14.1-6.21-.05-.5-.16-1.5-.22-2l-4.17-.03m-281.39 2.19c.2.46.58 1.36.78 1.82-.07 18.29.01 36.58-.04 54.87 3.78-.09 7.57-.09 11.36 0-.05-18.29.05-36.58-.04-54.87.19-.46.58-1.36.78-1.81-4.28-.21-8.56-.21-12.84-.01m14.41 1.51c.08 16.78-.03 33.57.08 50.35 1.28-.01 2.56-.01 3.84 0 .14-16.28.26-32.56-.06-48.83-.58-.21-1.73-.62-2.31-.82 2.46-1.86-2.62-3.7-1.55-.7M27.45 72.06l-.21 7.72c5.38-2.56 10.77-5.11 15.94-8.08-5.24-.14-10.51-.34-15.73.36m290.58 6.76c-4.81.07-9.66-.28-14.4.67 1.72.52 3.5.84 5.31.81 18.36.09 36.73.19 55.09.58-.06-.63-.17-1.9-.22-2.53-15.26.26-30.52.3-45.78.47m57.8-.69c0 .7-.02 2.09-.02 2.79 17.71.17 35.42.24 53.14.28 0-.83-.01-2.49-.01-3.32-17.7.07-35.4.15-53.11.25m65.03-.31c-.01.87-.04 2.6-.05 3.47 5.08.11 10.16.21 15.24.14 0-.94-.01-2.8-.01-3.74-5.07-.01-10.13.01-15.18.13m-233.94 1.66c28.35.35 56.7.44 85.05.47v-.9c-28.35-.01-56.7.19-85.05.43m-58.91 1.55c-.03 2.64-.03 5.29-.03 7.94 5.03.09 10.06.1 15.1.03-1.54-2.61-3.13-5.2-4.49-7.91-3.53-.12-7.06-.14-10.58-.06m57.6 2.08c.17.46.51 1.37.69 1.83-.29 3.43-.28 6.88-.25 10.31 28.96.27 57.9-.61 86.86-.58.08-3.15.1-6.3.03-9.44-.01-.55-.01-1.64-.01-2.18-19.98-.14-39.96.14-59.93-.21-9.13.17-18.28-.43-27.39.27m98.37-.06c0 .55.01 1.64.01 2.19-.02 3.06-.02 6.11.01 9.17 20.34.08 40.7-.08 61.04-.46-.01-2.98-.07-5.96-.32-8.93.17-.48.5-1.45.67-1.94-20.47-.14-40.94-.07-61.41-.03m71.04.98l.08 2.02c-.02 2.63-.01 5.26-.01 7.89 18.26-.11 36.52-.32 54.79-.44.08-2.49.13-4.98.17-7.47l-.04-2.03c-18.33-.02-36.66-.05-54.99.03m64.98.67c0 .58.01 1.73.01 2.31 0 2.1 0 4.19.01 6.29 5.78.15 11.56.11 17.34-.09-.11-2.06-.25-4.12-.44-6.18.02-.5.05-1.49.07-1.99-5.66-.32-11.32-.43-16.99-.34m26.64.19c.16.51.47 1.53.62 2.04-.09 2.03-.19 4.07-.28 6.11 1.39.01 2.79.03 4.19.04.14-2 .28-4 .43-5.99-.2-2.79-3.02-1.98-4.96-2.2M47.13 88.18c1.11 1.95 2.26 3.87 3.42 5.78 1.5-2.9 3.77-5.24 6.46-7.06-3.32.16-6.62.6-9.88 1.28m-30.97 12.93c-3.44 1.63-2 6.02-2.33 9.03 16.38.06 32.76.08 49.14-.01.08-5.39.23-10.77.05-16.15.25-2.1-1.66-3.34-2.81-4.79-1.87 1.36-4.63 2.08-5.44 4.49-.91 2.17-1.63 4.4-2.46 6.6-4.23-1.63-5.4-6.5-7.61-10.02-9.78 2.81-19.65 5.81-28.54 10.85m50.35 16.24l2.36.52c.23-5.38.15-10.78.17-16.16 4.28-.13 8.57-.15 12.86-.03.05-2.28.09-4.56.09-6.84 0-.45-.01-1.35-.01-1.81-5.26.11-10.59-.51-15.79.44.34 7.95.05 15.92.32 23.88m27.51-24.32v1.84c-.02 2.27.01 4.54.06 6.82 10.53-.15 21.07-.14 31.6-.01.2-1.46.4-2.91.61-4.37 16.42-.05 32.85.06 49.27-.05-.29 10.23-.11 20.46-.12 30.69 3.93.04 8.58-2.55 8.55-6.91.07-8.66 0-17.34-.01-26.01.02-.51.04-1.52.06-2.03-30.01-.01-60.02-.05-90.02.03m-9.23 1.72c-.01.58-.04 1.74-.06 2.32-.26 5.3-.26 10.61-.05 15.92 0 .51 0 1.52-.01 2.03-.22 6.39-.16 12.79 0 19.18 2.1.01 4.21.02 6.31.02.1-6.41.03-12.82.2-19.22-.01-.5-.01-1.5-.01-2-.12-5.37.01-10.76-.36-16.12.17-.49.5-1.47.67-1.96-2.23-.05-4.46-.1-6.69-.17m218.77 3.88c4.11.77 8.29.57 12.45.61 15.97.15 31.94.21 47.91.49v-2.45c-18.33.24-36.67.44-55.01.48-1.82-.03-3.62.31-5.35.87m72.25-1.56v2.87c17.71.06 35.42.18 53.13.24v-3.36c-17.71.06-35.42.23-53.13.25m65.05-.31c0 .87-.01 2.62-.01 3.49 5.06.08 10.12.18 15.19.12v-3.73c-5.06-.07-10.12.05-15.18.12m-233.93 1.77c26.35.31 52.71.42 79.07.43 2.2.01 4.39-.01 6.58-.3-1.8-.53-3.68-.67-5.54-.64-26.7.11-53.41.03-80.11.51m-78.27.36l.04 2.95c-.11 3.58-.11 7.16-.05 10.74.03.76.11 2.28.15 3.04-.37 8.46-.08 16.94-.33 25.42 1.75-.05 3.51-.08 5.26-.13-.01-13.86-.16-27.72.07-41.58-1.71-.18-3.43-.33-5.14-.44m9.33.16c-.03.55-.08 1.65-.11 2.2-.26 3.91-.22 7.84-.03 11.75 0 .5.01 1.5.01 2-.3 8.65-.19 17.3-.1 25.95 5.26-.06 10.59.56 15.81-.27 3.61-3.09 7.02-6.49 10.1-10.1.75-5.15.12-10.39.33-15.58 0-.5.01-1.5.01-2l-.06-11.75c.02-.55.05-1.65.07-2.2-8.68-.08-17.36-.12-26.03 0m29.93-.02c.02.55.05 1.66.07 2.21l-.03 11.77V115c.06 8.66-.04 17.33.07 26 1.73-.01 3.47-.02 5.21-.02.13-8.64.11-17.29.1-25.93v-2.09c.08-3.93-.01-7.85 0-11.77-.02-.52-.05-1.57-.07-2.1-1.79-.03-3.57-.05-5.35-.06m37.71 2.83c.16.53.49 1.59.65 2.12-.22 3.41-.25 6.83-.22 10.25 28.94.08 57.89-.62 86.83-.57.1-3.2.14-6.39.07-9.59-.03-.51-.08-1.54-.11-2.05-29.08-.03-58.15-.19-87.22-.16m98.33.14c.01.51.04 1.52.06 2.02-.05 3.11-.06 6.23-.04 9.34 20.35.13 40.71-.18 61.06-.43-.02-3-.1-5.99-.3-8.99.16-.47.48-1.41.64-1.89-20.47-.19-40.95-.07-61.42-.05m71.08 1.05l.08 2.22c.01 2.56 0 5.12 0 7.69 18.24-.52 36.51-.19 54.76-.48.07-2.42.13-4.83.17-7.24l-.04-2.19c-18.33-.06-36.65-.07-54.97 0m-303.91.97c-.01.51-.04 1.51-.05 2.01-.04 2.33-.04 4.66.03 6.99 0 .49.02 1.47.03 1.96-.22 6.4-.07 12.81.01 19.21 3.6.08 7.21.08 10.81.02.09-6.44.14-12.88-.02-19.32.01-.44.02-1.33.03-1.78.04-2.36.04-4.72.02-7.08.02-.5.04-1.52.05-2.03-3.64-.03-7.28-.04-10.91.02m22.83-.01c.02.5.04 1.52.06 2.03-.02 2.35-.03 4.71.01 7.07.01.45.02 1.33.02 1.78-.12 6.43-.03 12.87-.01 19.3 6.64.02 13.28.26 19.91-.02 1.64 0 2.68-1.46 3.82-2.41 2.64-2.72 5.53-5.22 7.89-8.19.67-2.84.31-5.8.3-8.69 0-.44 0-1.32.01-1.76.04-2.37.03-4.73.02-7.09.01-.5.04-1.52.05-2.03-10.69-.03-21.39-.04-32.08.01m346.01-.33l.04 2.35c-.01 2.08-.01 4.16 0 6.24 5.74.09 11.48.1 17.23-.05.03-2.1.07-4.19.13-6.28-.18-.48-.54-1.43-.72-1.9-5.49-.85-11.13-.14-16.68-.36m27.03.17l-.04 2.21c0 1.99 0 3.99.01 5.98 1.37-.03 2.75-.07 4.14-.1.2-2.02.38-4.05.59-6.07-.51-2.33-2.91-1.8-4.7-2.02m-335.48 40.2c.8.88 1.67 1.68 2.6 2.41 5.96.21 11.93.02 17.89.04 0-.62 0-1.87-.01-2.49-6.83-.02-13.66-.1-20.48.04z"></path><path d="M71.81 71.01c1.08-1.05 2.15-2.11 3.2-3.2 1.04 1.08 2.1 2.14 3.17 3.18-1.08 1.05-2.14 2.12-3.19 3.2-1.05-1.07-2.11-2.13-3.18-3.18zm28 0c1.08-1.05 2.14-2.12 3.2-3.2 1.04 1.08 2.09 2.14 3.17 3.18-1.08 1.05-2.15 2.12-3.19 3.2-1.05-1.07-2.11-2.13-3.18-3.18zm50.01-.02c1.07-1.04 2.13-2.1 3.17-3.18 1.05 1.08 2.12 2.15 3.2 3.2-1.07 1.05-2.13 2.11-3.18 3.18-1.05-1.08-2.11-2.15-3.19-3.2zm24 10.02c1.08-1.05 2.14-2.12 3.19-3.2 1.04 1.07 2.1 2.13 3.18 3.18-1.08 1.05-2.15 2.12-3.2 3.2-1.04-1.08-2.1-2.14-3.17-3.18zm-76 44c1.08-1.05 2.14-2.12 3.19-3.21 1.04 1.08 2.1 2.14 3.18 3.19-1.09 1.05-2.15 2.12-3.2 3.2-1.04-1.08-2.1-2.14-3.17-3.18z"></path></g><path d="M211.38 4.95c1.5-.04 2.99-.05 4.49-.04.28.54.85 1.63 1.13 2.17-2.42-.01-4.83-.03-7.25-.05.41-.52 1.23-1.56 1.63-2.08zm-6.17 38.85c6.82-.19 13.69-.3 20.52.03l.77 2.1c-7.54.16-15.1.19-22.64-.02l1.35-2.11zm-45.57 3.95c6.7.05 13.46-.5 20.12.34-1.19.78-2.33 1.85-3.84 1.86-5.21.33-10.44.15-15.65-.05-.16-.54-.47-1.61-.63-2.15zm22.38 2.92c6.64.16 13.29.14 19.93.02l.04 2.46c-6.69-.21-13.39-.21-20.08 0 .03-.62.08-1.86.11-2.48zm-41.95 12.28c6.98.28 11.46-6.8 18.34-7.22-.16.45-.47 1.35-.62 1.8-3.47 1.96-6.95 3.88-10.44 5.8-3.73 2.19-8.2 1.88-12.36 2-12.32-.07-24.63.02-36.95-.07-.01-.56-.04-1.66-.06-2.21 14.03-.12 28.06.07 42.09-.1zm70.28-7.32c2.11.39 4.25 1.11 5.47 3.02-2.48 0-4.96.05-7.44.23.65-1.09 1.3-2.17 1.97-3.25zm85.04 5.41c1.26-2.55 4.83-2.92 5.87 0-1.96.04-3.92.04-5.87 0zm72.66-2.33c1.51.31 3.08.6 4.29 1.67-1.8.35-3.6.66-5.39.96.27-.66.82-1.98 1.1-2.63zm63.87 2.47c.68-2.9 3.71-2.66 5.44-.8-1.81.32-3.62.58-5.44.8zm27.68-.8c1.69-1.79 5.03-2.31 5.39.81-1.81-.22-3.6-.48-5.39-.81zM66.73 63.07c4.76-.09 9.52-.07 14.28-.02-.01.55-.05 1.66-.06 2.22-4.77.03-9.54.02-14.31-.02.02-.54.07-1.63.09-2.18zm17.25-.03c2.02 0 4.03 0 6.04.01-.02.55-.05 1.65-.06 2.2h-5.93c-.01-.55-.03-1.66-.05-2.21zm8.05 0h3.99c0 .55 0 1.63.01 2.17l-4.17.03c.05-.55.13-1.65.17-2.2zm131.52 1.09c23.11-.3 46.24-.11 69.36-.11.01.51.02 1.52.03 2.03-22.84-.1-45.69.16-68.53-.13-.22-.45-.64-1.34-.86-1.79zM55.94 67.87c2.75-1.35 5.42-3.04 8.52-3.43l-.4 2.09c-16.09 8.12-32.25 16.11-48.37 24.18-4.61 2.17-6.87 6.99-10.68 10.12.63-6.64 6.45-11.23 12.26-13.63 12.93-6.35 25.89-12.66 38.67-19.33zm248.04-3.18c20.27.06 40.54.41 60.81.34.03.5.08 1.5.11 2-20.31-.07-40.62-.02-60.93-.02 0-.58.01-1.74.01-2.32zm71.13.87c18.25.07 36.51.15 54.76.2l.16 2.39c-18.32-.19-36.65-.1-54.97-.05.01-.64.04-1.9.05-2.54zm64.87.28c5.71-.01 11.41.03 17.12.06 0 .52-.01 1.57-.01 2.09-5.69.09-11.38.06-17.07.02l-.04-2.17zm26.99.08l4.17.03c.06.5.17 1.5.22 2l-4.42.18c.01-.56.02-1.66.03-2.21zm-281.39 2.19c4.28-.2 8.56-.2 12.84.01-.2.45-.59 1.35-.78 1.81-3.76.23-7.53.23-11.28 0-.2-.46-.58-1.36-.78-1.82zm14.41 1.51c-1.07-3 4.01-1.16 1.55.7-.39-.18-1.16-.52-1.55-.7zm5.62 13.49c9.11-.7 18.26-.1 27.39-.27 19.97.35 39.95.07 59.93.21 0 .54 0 1.63.01 2.18-28.89.34-57.77-.26-86.64-.29-.18-.46-.52-1.37-.69-1.83zm98.37-.06c20.47-.04 40.94-.11 61.41.03-.17.49-.5 1.46-.67 1.94-3.56.37-7.15.3-10.72.3-16.67-.08-33.34.06-50.01-.08 0-.55-.01-1.64-.01-2.19zm71.04.98c18.33-.08 36.66-.05 54.99-.03l.04 2.03c-18.32.03-36.64 0-54.95.02l-.08-2.02zm64.98.67c5.67-.09 11.33.02 16.99.34-.02.5-.05 1.49-.07 1.99-5.64-.04-11.27-.03-16.91-.02 0-.58-.01-1.73-.01-2.31zm26.64.19c1.94.22 4.76-.59 4.96 2.2-1.45-.03-2.9-.09-4.34-.16-.15-.51-.46-1.53-.62-2.04zM66.19 93.47c5.2-.95 10.53-.33 15.79-.44 0 .46.01 1.36.01 1.81-5.25-.08-10.98 1.34-15.8-1.37zm27.83-.44c30-.08 60.01-.04 90.02-.03-.02.51-.04 1.52-.06 2.03-29.99-.15-59.98.16-89.96-.16v-1.84zm-9.23 1.72c2.23.07 4.46.12 6.69.17-.17.49-.5 1.47-.67 1.96-2.02.13-4.05.14-6.08.19.02-.58.05-1.74.06-2.32zm43.87 4.14c1.71.11 3.43.26 5.14.44-1.67.88-3.38 1.7-5.1 2.51l-.04-2.95zm9.33.16c8.67-.12 17.35-.08 26.03 0-.02.55-.05 1.65-.07 2.2-8.69.08-17.38.11-26.07 0 .03-.55.08-1.65.11-2.2zm29.93-.02c1.78.01 3.56.03 5.35.06.02.53.05 1.58.07 2.1-1.79.02-3.57.04-5.35.05-.02-.55-.05-1.66-.07-2.21zm37.71 2.83c29.07-.03 58.14.13 87.22.16.03.51.08 1.54.11 2.05-28.89-.11-57.79.1-86.68-.09-.16-.53-.49-1.59-.65-2.12zm98.33.14c20.47-.02 40.95-.14 61.42.05-.16.48-.48 1.42-.64 1.89-20.24.25-40.48.06-60.72.08-.02-.5-.05-1.51-.06-2.02zm71.08 1.05c18.32-.07 36.64-.06 54.97 0l.04 2.19c-18.31.11-36.62.06-54.93.03l-.08-2.22zm-303.91.97c3.63-.06 7.27-.05 10.91-.02-.01.51-.03 1.53-.05 2.03-3.63.01-7.27.01-10.91 0 .01-.5.04-1.5.05-2.01zm22.83-.01c10.69-.05 21.39-.04 32.08-.01-.01.51-.04 1.53-.05 2.03-10.66.02-21.31.01-31.97.01-.02-.51-.04-1.53-.06-2.03zm346.01-.33c5.55.22 11.19-.49 16.68.36.18.47.54 1.42.72 1.9-5.79.16-11.58.09-17.36.09l-.04-2.35zm27.03.17c1.79.22 4.19-.31 4.7 2.02-1.59.07-3.17.13-4.74.19l.04-2.21zm-395.89 9.17c3.62-.05 7.24-.02 10.86.09-.01.45-.02 1.34-.03 1.78-3.6.11-7.2.14-10.8.09-.01-.49-.03-1.47-.03-1.96zm13.57-.03c2.16.01 4.32.01 6.49.01 0 .5 0 1.5.01 2-2.17 0-4.34 0-6.51.02.01-.51.01-1.52.01-2.03zm9.35.12c10.65-.18 21.29-.18 31.94.01-.01.44-.01 1.32-.01 1.76-10.64.2-21.28.19-31.91.01 0-.45-.01-1.33-.02-1.78zm34.62-.53c1.39.32 2.78.65 4.17 1-1.14 1.03-2.63 1.47-4.02 2.04-.04-.76-.12-2.28-.15-3.04zm9.2.42h26.16c0 .5-.01 1.5-.01 2h-26.14c0-.5-.01-1.5-.01-2zm30.11.01c1.79-.02 3.58-.04 5.38-.05v2.09c-1.8-.02-3.59-.04-5.38-.05v-1.99zm-36.44 31.04c6.82-.14 13.65-.06 20.48-.04.01.62.01 1.87.01 2.49-5.96-.02-11.93.17-17.89-.04-.93-.73-1.8-1.53-2.6-2.41z" fill="#f1f0f1"></path><path d="M209.75 7.03c2.42.02 4.83.04 7.25.05l.73.01c-.06 11.38-.01 22.76 0 34.14-2.81.03-5.61.01-8.4-.1.26-11.37-.49-22.77.42-34.1zm-5.89 38.88c7.54.21 15.1.18 22.64.02-.17 3.69-.15 7.38-.22 11.07-2.7 0-5.42.25-8.1-.21-2.11-.75-3.87-2.56-6.17-2.71-2.7.6-4.97 2.35-7.55 3.29-.13-3.82.01-7.67-.6-11.46zm-24.1 2.18c-.43 6.98-.22 13.98-.14 20.97-6.44.22-12.9.22-19.34-.02.02-6.38 0-12.76-.01-19.14 5.21.2 10.44.38 15.65.05 1.51-.01 2.65-1.08 3.84-1.86zm2.15 5.06c6.69-.21 13.39-.21 20.08 0 .07 4.27.07 8.55 0 12.82-6.74.12-13.48.12-20.21-.06-.13-4.25-.19-8.51.13-12.76z"></path><path d="M147.35 63.33c3.49-1.92 6.97-3.84 10.44-5.8.34 4.8.26 9.62.25 14.43 7.81-.01 15.63.16 23.44-.06.53-1.52 1.19-2.99 2.07-4.35.9 7.11.38 14.29.42 21.42-6.19.1-12.37.13-18.55-.06-1.7-3.38-3.73-6.57-5.59-9.86-4.59-.13-9.18-.13-13.77-.02-.02 3.32-.05 6.63-.1 9.95-26.41.12-52.82.02-79.24-.01-.16-7.91-.05-15.81-.08-23.72 4.77.04 9.54.05 14.31.02.14 4.78-.37 9.6.31 14.35 1.63 3.17 5.16 4.1 8.46 3.28 1.74-1.74 2.09-4.29 2.69-6.56 1.82-.41 4.05-.08 5.41-1.62.35-3.14.19-6.31.22-9.46 12.32.09 24.63 0 36.95.07 4.16-.12 8.63.19 12.36-2m-75.54 7.68c1.07 1.05 2.13 2.11 3.18 3.18 1.05-1.08 2.11-2.15 3.19-3.2-1.07-1.04-2.13-2.1-3.17-3.18-1.05 1.09-2.12 2.15-3.2 3.2m28 0c1.07 1.05 2.13 2.11 3.18 3.18 1.04-1.08 2.11-2.15 3.19-3.2-1.08-1.04-2.13-2.1-3.17-3.18-1.06 1.08-2.12 2.15-3.2 3.2m50.01-.02c1.08 1.05 2.14 2.12 3.19 3.2 1.05-1.07 2.11-2.13 3.18-3.18-1.08-1.05-2.15-2.12-3.2-3.2-1.04 1.08-2.1 2.14-3.17 3.18m24 10.02c1.07 1.04 2.13 2.1 3.17 3.18 1.05-1.08 2.12-2.15 3.2-3.2-1.08-1.05-2.14-2.11-3.18-3.18-1.05 1.08-2.11 2.15-3.19 3.2zm34.56-22.13c2.48-.18 4.96-.23 7.44-.23-.93 1.56-1.52 4.18-3.82 4.05-2.15.13-2.69-2.4-3.62-3.82z"></path><path d="M204.4 58.99c.47.12 1.42.35 1.9.46 1.21 2.31 2.59 5.4 5.7 5.24 3.36.15 4.55-3.41 6.48-5.46 1.29-.16 2.61-.17 3.92-.21-.02 3.27-.01 6.55.07 9.83-6.06.28-12.13.25-18.19.05.05-3.3.07-6.61.12-9.91zm167.94 1.39l.45-.09c-.67 19.43.19 38.9-.43 58.33-1.66.12-3.32.22-4.98.29-.71-19.18-.01-38.38-.43-57.57 1.79-.3 3.59-.61 5.39-.96zm65.02 0l.51-.08c-.56 13.55-.11 27.14-.26 40.7-.07 5.94.4 11.92-.48 17.82l-4.38.42c-1.16-6.01-.42-12.16-.59-18.24-.16-13.27.3-26.56-.24-39.82 1.82-.22 3.63-.48 5.44-.8zm21.73-.09l.51.09c1.79.33 3.58.59 5.39.81-.74 19.13.01 38.3-.39 57.44-1.6.19-3.2.37-4.79.55-.83-6.03-.38-12.12-.47-18.17-.06-13.57.23-27.15-.25-40.72zm-163.7.75c1.95.04 3.91.04 5.87 0-.7 19.24.28 38.52-.51 57.77-1.6.03-3.2.05-4.8.06-.93-19.26.18-38.56-.56-57.83zM84.03 65.25h5.93c-.01 5.04.59 10.2-.85 15.11-1.69-1.5-3.46-2.94-4.82-4.75-.62-3.41-.28-6.91-.26-10.36zm7.83-.01l4.17-.03c-.01 2.7-.04 5.4-.11 8.1-2.65-1.96-4.54-4.62-4.06-8.07z"></path><path d="M224.41 65.92c22.84.29 45.69.03 68.53.13.09 3.21.07 6.43-.01 9.64-28.97.11-57.94.89-86.91.55l.12-4.95c6.03.06 12.06.09 18.09-.04.07-1.78.12-3.55.18-5.33zM15.69 90.71c16.12-8.07 32.28-16.06 48.37-24.18.55 6.99.28 14.01.19 21.01-2.95-1.28-5.91-2.96-9.23-2.85-4.87.19-9.52 1.8-14.13 3.21-9.03 2.93-18.23 5.72-26.5 10.47-1.39.95-3.21 1.92-3.53 3.73-.5 3.71-.17 7.47-.11 11.19 17.78.32 35.56.02 53.35.16.02 1.37.04 2.74.05 4.12-19.68.08-39.36-.15-59.04.13-.18-5.62-.15-11.25-.1-16.87 3.81-3.13 6.07-7.95 10.68-10.12zm288.28-23.7c20.31 0 40.62-.05 60.93.02.07 2.7.07 5.39.06 8.09-14.35.49-28.72-.13-43.07.43-5.93.14-11.85.01-17.77.12-.08-2.89-.14-5.77-.15-8.66zm71.09 1.09c18.32-.05 36.65-.14 54.97.05-.04 2.15-.08 4.3-.14 6.46-18.25-.06-36.5.38-54.75.3-.02-2.27-.06-4.54-.08-6.81zm64.96-.09c5.69.04 11.38.07 17.07-.02.09 2.09.16 4.18.22 6.27-5.76.17-11.52.24-17.28.09-.01-2.12-.01-4.23-.01-6.34zm26.92.12l4.42-.18c0 2.07-.04 4.14-.1 6.21-1.43.02-2.85.03-4.27.05-.03-2.03-.04-4.06-.05-6.08zm-280.58 1.8c3.75.23 7.52.23 11.28 0 .09 18.29-.01 36.58.04 54.87-3.79-.09-7.58-.09-11.36 0 .05-18.29-.03-36.58.04-54.87zm13.63-.31c.39.18 1.16.52 1.55.7.58.2 1.73.61 2.31.82.32 16.27.2 32.55.06 48.83-1.28-.01-2.56-.01-3.84 0-.11-16.78 0-33.57-.08-50.35zM27.45 72.06c5.22-.7 10.49-.5 15.73-.36-5.17 2.97-10.56 5.52-15.94 8.08l.21-7.72zm120.56 8.97c3.52-.08 7.05-.06 10.58.06 1.36 2.71 2.95 5.3 4.49 7.91-5.04.07-10.07.06-15.1-.03 0-2.65 0-5.3.03-7.94zm58.29 3.91c28.87.03 57.75.63 86.64.29.07 3.14.05 6.29-.03 9.44-28.96-.03-57.9.85-86.86.58-.03-3.43-.04-6.88.25-10.31zm97.69.3c16.67.14 33.34 0 50.01.08 3.57 0 7.16.07 10.72-.3.25 2.97.31 5.95.32 8.93-20.34.38-40.7.54-61.04.46-.03-3.06-.03-6.11-.01-9.17zm71.11.81c18.31-.02 36.63.01 54.95-.02-.04 2.49-.09 4.98-.17 7.47-18.27.12-36.53.33-54.79.44 0-2.63-.01-5.26.01-7.89z"></path><path d="M47.13 88.18c3.26-.68 6.56-1.12 9.88-1.28-2.69 1.82-4.96 4.16-6.46 7.06-1.16-1.91-2.31-3.83-3.42-5.78zm392.88-1.17c5.64-.01 11.27-.02 16.91.02.19 2.06.33 4.12.44 6.18-5.78.2-11.56.24-17.34.09-.01-2.1-.01-4.19-.01-6.29zm27.25-.08c1.44.07 2.89.13 4.34.16-.15 1.99-.29 3.99-.43 5.99-1.4-.01-2.8-.03-4.19-.04.09-2.04.19-4.08.28-6.11zM66.51 117.35c-.27-7.96.02-15.93-.32-23.88 4.82 2.71 10.55 1.29 15.8 1.37 0 2.28-.04 4.56-.09 6.84-4.29-.12-8.58-.1-12.86.03-.02 5.38.06 10.78-.17 16.16l-2.36-.52zm27.51-22.48c29.98.32 59.97.01 89.96.16.01 8.67.08 17.35.01 26.01.03 4.36-4.62 6.95-8.55 6.91.01-10.23-.17-20.46.12-30.69-16.42.11-32.85 0-49.27.05-.21 1.46-.41 2.91-.61 4.37-10.53-.13-21.07-.14-31.6.01-.05-2.28-.08-4.55-.06-6.82zm-9.29 2.2c2.03-.05 4.06-.06 6.08-.19.37 5.36.24 10.75.36 16.12-2.17 0-4.33 0-6.49-.01-.21-5.31-.21-10.62.05-15.92z"></path><path d="M133.8 99.33c-.23 13.86-.08 27.72-.07 41.58-1.75.05-3.51.08-5.26.13.25-8.48-.04-16.96.33-25.42 1.39-.57 2.88-1.01 4.02-2.04-1.39-.35-2.78-.68-4.17-1-.06-3.58-.06-7.16.05-10.74 1.72-.81 3.43-1.63 5.1-2.51zm4.08 1.92c8.69.11 17.38.08 26.07 0l.06 11.75h-26.16c-.19-3.91-.23-7.84.03-11.75zm30.11-.01c1.78-.01 3.56-.03 5.35-.05-.01 3.92.08 7.84 0 11.77-1.8.01-3.59.03-5.38.05l.03-11.77zm38.29 2.74c28.89.19 57.79-.02 86.68.09.07 3.2.03 6.39-.07 9.59-28.94-.05-57.89.65-86.83.57-.03-3.42 0-6.84.22-10.25zm97.74.04c20.24-.02 40.48.17 60.72-.08.2 3 .28 5.99.3 8.99-20.35.25-40.71.56-61.06.43-.02-3.11-.01-6.23.04-9.34zm71.1 1.25c18.31.03 36.62.08 54.93-.03-.04 2.41-.1 4.82-.17 7.24-18.25.29-36.52-.04-54.76.48 0-2.57.01-5.13 0-7.69zm-304.04.76c3.64.01 7.28.01 10.91 0 .02 2.36.02 4.72-.02 7.08-3.62-.11-7.24-.14-10.86-.09-.07-2.33-.07-4.66-.03-6.99zm22.94.01c10.66 0 21.31.01 31.97-.01.01 2.36.02 4.72-.02 7.09-10.65-.19-21.29-.19-31.94-.01-.04-2.36-.03-4.72-.01-7.07zm345.99-.01c5.78 0 11.57.07 17.36-.09-.06 2.09-.1 4.18-.13 6.28-5.75.15-11.49.14-17.23.05-.01-2.08-.01-4.16 0-6.24zm26.95.03c1.57-.06 3.15-.12 4.74-.19-.21 2.02-.39 4.05-.59 6.07-1.39.03-2.77.07-4.14.1-.01-1.99-.01-3.99-.01-5.98zm-395.82 8.92c3.6.05 7.2.02 10.8-.09.16 6.44.11 12.88.02 19.32-3.6.06-7.21.06-10.81-.02-.08-6.4-.23-12.81-.01-19.21zm13.53.04c2.17-.02 4.34-.02 6.51-.02-.17 6.4-.1 12.81-.2 19.22-2.1 0-4.21-.01-6.31-.02-.16-6.39-.22-12.79 0-19.18zm9.38-.13c10.63.18 21.27.19 31.91-.01.01 2.89.37 5.85-.3 8.69-2.36 2.97-5.25 5.47-7.89 8.19-1.14.95-2.18 2.41-3.82 2.41-6.63.28-13.27.04-19.91.02-.02-6.43-.11-12.87.01-19.3m3.77 10.12c1.07 1.04 2.13 2.1 3.17 3.18 1.05-1.08 2.11-2.15 3.2-3.2-1.08-1.05-2.14-2.11-3.18-3.19-1.05 1.09-2.11 2.16-3.19 3.21zM137.86 115H164c-.21 5.19.42 10.43-.33 15.58a91.735 91.735 0 01-10.1 10.1c-5.22.83-10.55.21-15.81.27-.09-8.65-.2-17.3.1-25.95zm30.1 0c1.79.01 3.58.03 5.38.05.01 8.64.03 17.29-.1 25.93-1.74 0-3.48.01-5.21.02-.11-8.67-.01-17.34-.07-26z"></path></svg>