<svg data-v-ea210746="" viewBox="0 0 162 158" xmlns="http://www.w3.org/2000/svg" fill="#7e7f7e" class="ui-icon max-h-full w-full" style="fill: rgb(255, 133, 85); opacity: 1;"><path fill="#000" d="M13.19 6.22C16.52 4.31 19.7.76 23.9 1.69c5.12 3.23 8.29 8.67 12.66 12.75 3.29 3.05 5.99 6.63 8.85 10.06 3.05 1.75 6.96 1.91 9.55 4.53 6.52 6.47 12.85 13.15 19.26 19.74 3.65 3.74 7.09 8.26 12.38 9.7 6.81 1.83 14.16 3.46 19.44 8.49 11.2 10.46 21.54 21.78 32.38 32.61 6.58 6.43 12.62 13.38 19.18 19.83 3.86 3.1 4.55 9.55.84 13.02-6.33 6.36-12.91 12.46-19.29 18.76-1.66 1.71-3.68 3.29-6.18 3.37-3.62.36-6.65-2.06-8.93-4.58a5339.737 5339.737 0 00-46.43-47.57c-4.38-4.27-7.85-9.57-9.45-15.51-1.47-4.69-1.82-10-5.11-13.89-5.04-6.27-11.08-11.62-16.56-17.49-5-5.43-11.69-10.14-13.2-17.84-3.56-1.56-6.83-3.66-10.09-5.75.39 5.03 2.69 9.9 2.13 14.97-1.52 3.75-6.23 2.44-9.37 2.55C9.2 49.64 4.7 43.67 1.7 38.4c-1.83-4.42 3.63-7.35 3.89-11.52.24-4-1.02-7.92-.88-11.92.54-4.53 5.23-6.39 8.48-8.74m1.75 4.87c3.94.31 7.85 2.47 11.75.59 1.29 1.5 2.66 2.92 4.04 4.34-1.41 4.13 1.7 8.19 5.17 10.09 1.85 1.07 3.73-.63 5.52-1.06-5.47-7.69-12.37-14.28-19.21-20.73-2.85 1.75-6.33 3.23-7.27 6.77m-7.53 4.44c3.82-.37 7.42 1.01 11.12 1.69-.94-3.24-4.49-4.04-6.64-6.28-1.85 1.15-3.51 2.6-4.48 4.59m8.22 9.58c.75.68 1.47 1.38 2.16 2.13 2.49.12 5.16.1 7.21 1.76 3.21 2.37 6.62 4.48 10.45 5.72 1.49-1.97 2.99-3.93 4.39-5.97-1.53-.07-3.07-.14-4.6-.22-3.82-3.2-7.6-6.86-8.8-11.88-.96-.43-1.91-.87-2.86-1.3-4.64 1.2-5.64 6.22-7.95 9.76m-7.4-4.56c.49 3.61 1.52 7.74-.81 10.95-.91 1.83-2.83 3.34-2.9 5.47 1.65 2.73 3.83 5.14 5.97 7.5 3.38 2.77 8.09 1.73 12.11 1.87-.62-3.67-1.51-7.29-2.18-10.96-.27-3.24-4.15-3.69-5.98-5.81-2.85-2.14-3.47-5.82-2.98-9.15-.81.03-2.42.1-3.23.13m33.01 6.53c-1.29.74-1.3 1.44-.02 2.08 1.3-.73 1.3-1.43.02-2.08m1.11 3.2c-.02 1.95-.08 3.9-.84 5.73 2.67 2.35 4.95 5.1 6.93 8.05.52-2.04.59-4.22 1.5-6.15 1.57-1.58 3.84-2.08 5.83-2.9-2.4-2.31-4.49-5.36-7.8-6.39-1.9.27-4.07.43-5.62 1.66m-5.46 6.87c.47 5.46 5.19 8.67 8.62 12.34 2.71 2.63 5.07 5.63 8.07 7.94 6.67 1.1 10.78-5.38 15.99-8.27-3.93-3.98-7.83-8-11.75-12-1.94.54-3.92 1-5.76 1.84-.66 1.9-.98 3.9-1.44 5.85l.6.9c-6.2.56-10.34-4.75-14.33-8.6M56 60.22c4.32 4.64 9.47 8.79 12.13 14.7 2.29 4.82 2.48 10.32 4.76 15.14 2.04 4.65 5.47 8.48 9.04 12.01 8.94 9.08 17.83 18.2 26.66 27.38.95.85 1.83 1.97 3.13 2.29 4.18-3.48 7.8-7.59 11.79-11.28.9-.92 1.81-1.84 2.71-2.76 3.47-3.31 6.82-6.73 10.35-9.96.45-.55 1.36-1.64 1.81-2.19-1.9-3.89-5.36-6.58-8.29-9.64-6.6-6.74-13.14-13.53-19.68-20.32-3.62-3.74-7.45-7.42-12.12-9.81-4.95-2.56-10.7-2.89-15.7-5.34-4.11-2.04-7-5.75-10.74-8.31-6.07.7-9.71 7.05-15.85 8.09m83.17 47.92c-8.81 8.53-17.55 17.14-26.26 25.77.95.81 1.91 1.62 2.87 2.42 9.05-9.29 18.86-17.82 27.67-27.33-1.29-.63-3.02-2.61-4.28-.86m5.17 3.04c-.36.24-1.08.7-1.44.94-.2.42-.62 1.27-.82 1.7-3.76 2.95-6.9 6.57-10.5 9.69-.91 1.01-1.81 2.04-2.7 3.08-4.08 3.6-7.98 7.42-11.73 11.37 3.17 3.32 6.06 6.97 9.73 9.77 4.53-3.32 7.85-8.02 12.39-11.35.07-.32.2-.95.26-1.27 5.5-4.11 10.09-9.27 14.88-14.15-3.1-3.51-6.41-6.85-10.07-9.78m-2.42 25.71c-.31.27-.93.81-1.23 1.08-4.24 4-9.13 7.54-12.1 12.68 1.94.01 4.12 1 5.9-.15 3.64-2.42 6.46-5.84 9.43-9l1.37-1.45c3.91-3.33 7.75-6.81 11.09-10.73 1.83-1.77.55-4.43.45-6.59-5.57 4.04-10.25 9.14-14.91 14.16z"></path><g fill="#f6f6f6"><path d="M14.94 11.09c.94-3.54 4.42-5.02 7.27-6.77 6.84 6.45 13.74 13.04 19.21 20.73-1.79.43-3.67 2.13-5.52 1.06-3.47-1.9-6.58-5.96-5.17-10.09-1.38-1.42-2.75-2.84-4.04-4.34-3.9 1.88-7.81-.28-11.75-.59zm-7.53 4.44c.97-1.99 2.63-3.44 4.48-4.59 2.15 2.24 5.7 3.04 6.64 6.28-3.7-.68-7.3-2.06-11.12-1.69z"></path><path d="M15.63 25.11c2.31-3.54 3.31-8.56 7.95-9.76.95.43 1.9.87 2.86 1.3 1.2 5.02 4.98 8.68 8.8 11.88 1.53.08 3.07.15 4.6.22-1.4 2.04-2.9 4-4.39 5.97C31.62 33.48 28.21 31.37 25 29c-2.05-1.66-4.72-1.64-7.21-1.76a33.37 33.37 0 00-2.16-2.13zm-7.4-4.56c.81-.03 2.42-.1 3.23-.13-.49 3.33.13 7.01 2.98 9.15 1.83 2.12 5.71 2.57 5.98 5.81.67 3.67 1.56 7.29 2.18 10.96-4.02-.14-8.73.9-12.11-1.87-2.14-2.36-4.32-4.77-5.97-7.5.07-2.13 1.99-3.64 2.9-5.47 2.33-3.21 1.3-7.34.81-10.95zm34.12 9.73c1.55-1.23 3.72-1.39 5.62-1.66 3.31 1.03 5.4 4.08 7.8 6.39-1.99.82-4.26 1.32-5.83 2.9-.91 1.93-.98 4.11-1.5 6.15-1.98-2.95-4.26-5.7-6.93-8.05.76-1.83.82-3.78.84-5.73zm8.27 14.57c4.42 2.36 8.66 5.77 10.36 10.65-3.85-2.56-7.36-5.76-9.76-9.75l-.6-.9zM65.2 58.11c5.92 5.98 11.8 12 17.73 17.97 1.49 1.41 2.56 3.19 3.25 5.13-1.95-1.1-3.73-2.49-5.26-4.12-5.54-5.76-11.16-11.43-16.8-17.09.27-.47.81-1.42 1.08-1.89zm45.84 23.99c.44-.28 1.32-.83 1.76-1.1 6.05 6.34 12.25 12.56 18.27 18.94 2.1 2.27 4.56 4.18 7.31 5.61-.45.55-1.36 1.64-1.81 2.19-9.04-8-16.94-17.17-25.53-25.64zm-19.55 3.88c6.96 4.6 11.21 12.24 18.23 16.73 6.76 3.43 11.13 9.87 16.5 14.99-.9.92-1.81 1.84-2.71 2.76-9.19-8.79-17.79-18.18-26.82-27.14-2.18-2.1-3.96-4.58-5.2-7.34zm50.59 27.84c.2-.43.62-1.28.82-1.7 2.72 2.48 5.29 5.12 7.9 7.72-.24.5-.72 1.5-.97 1.99-2.62-2.63-5.35-5.17-7.75-8.01zm-10.5 9.69c3.73 3.02 6.48 7.04 7.95 11.6-.06.32-.19.95-.26 1.27-3.55-3.17-6.83-6.63-10.39-9.79.89-1.04 1.79-2.07 2.7-3.08zm9.11 14.46c.3-.27.92-.81 1.23-1.08l3.37 3.16-1.37 1.45c-1.08-1.18-2.16-2.35-3.23-3.53z"></path></g><path d="M41.24 27.08c1.28.65 1.28 1.35-.02 2.08-1.28-.64-1.27-1.34.02-2.08zm-4.35 10.07c3.99 3.85 8.13 9.16 14.33 8.6 2.4 3.99 5.91 7.19 9.76 9.75-1.7-4.88-5.94-8.29-10.36-10.65.46-1.95.78-3.95 1.44-5.85 1.84-.84 3.82-1.3 5.76-1.84 3.92 4 7.82 8.02 11.75 12-5.21 2.89-9.32 9.37-15.99 8.27-3-2.31-5.36-5.31-8.07-7.94-3.43-3.67-8.15-6.88-8.62-12.34zM56 60.22c6.14-1.04 9.78-7.39 15.85-8.09 3.74 2.56 6.63 6.27 10.74 8.31 5 2.45 10.75 2.78 15.7 5.34 4.67 2.39 8.5 6.07 12.12 9.81 6.54 6.79 13.08 13.58 19.68 20.32 2.93 3.06 6.39 5.75 8.29 9.64a26.847 26.847 0 01-7.31-5.61c-6.02-6.38-12.22-12.6-18.27-18.94-.44.27-1.32.82-1.76 1.1 8.59 8.47 16.49 17.64 25.53 25.64-3.53 3.23-6.88 6.65-10.35 9.96-5.37-5.12-9.74-11.56-16.5-14.99-7.02-4.49-11.27-12.13-18.23-16.73 1.24 2.76 3.02 5.24 5.2 7.34 9.03 8.96 17.63 18.35 26.82 27.14-3.99 3.69-7.61 7.8-11.79 11.28-1.3-.32-2.18-1.44-3.13-2.29-8.83-9.18-17.72-18.3-26.66-27.38-3.57-3.53-7-7.36-9.04-12.01-2.28-4.82-2.47-10.32-4.76-15.14-2.66-5.91-7.81-10.06-12.13-14.7m9.2-2.11c-.27.47-.81 1.42-1.08 1.89 5.64 5.66 11.26 11.33 16.8 17.09 1.53 1.63 3.31 3.02 5.26 4.12-.69-1.94-1.76-3.72-3.25-5.13C77 70.11 71.12 64.09 65.2 58.11zm73.97 50.03c1.26-1.75 2.99.23 4.28.86-8.81 9.51-18.62 18.04-27.67 27.33-.96-.8-1.92-1.61-2.87-2.42 8.71-8.63 17.45-17.24 26.26-25.77zm5.17 3.04c3.66 2.93 6.97 6.27 10.07 9.78-4.79 4.88-9.38 10.04-14.88 14.15a24.617 24.617 0 00-7.95-11.6c3.6-3.12 6.74-6.74 10.5-9.69 2.4 2.84 5.13 5.38 7.75 8.01.25-.49.73-1.49.97-1.99-2.61-2.6-5.18-5.24-7.9-7.72.36-.24 1.08-.7 1.44-.94zm-2.42 25.71c4.66-5.02 9.34-10.12 14.91-14.16.1 2.16 1.38 4.82-.45 6.59-3.34 3.92-7.18 7.4-11.09 10.73l-3.37-3.16zm-24.77 1.07c3.75-3.95 7.65-7.77 11.73-11.37 3.56 3.16 6.84 6.62 10.39 9.79-4.54 3.33-7.86 8.03-12.39 11.35-3.67-2.8-6.56-6.45-9.73-9.77zm11.44 12.69c2.97-5.14 7.86-8.68 12.1-12.68 1.07 1.18 2.15 2.35 3.23 3.53-2.97 3.16-5.79 6.58-9.43 9-1.78 1.15-3.96.16-5.9.15z"></path></svg>