<svg data-v-ea210746="" xmlns="http://www.w3.org/2000/svg" fill="#fff" viewBox="0 0 64 64" class="ui-icon max-h-full w-full" style="opacity: 1;"><path d="M11.83 22.05q.84-2.67.66-5.5-.11-1.75.69-3.69c1.29-3.18 3.21-6.92 6.73-7.44q1.53-.23 2.89-.88 4.35-2.06 10.68-2.45 1.86-.11 3.63.6c2 .8 4.47 1.18 5.99 2.78q1.81 1.89 4.05 3.21c3.98 2.34 3.9 9.77 3.99 13.6a.74.74 0 00.9.7c1.52-.34 3.62-.65 4.46 1.09 1.44 2.98-.46 9.73-1.48 12.21q-.76 1.81-2.96 2.39a2.89 2.88-7.7 00-2.16 2.83l.13 9.56q.01 1.07-.64 1.92c-2.2 2.86-4.61 6.15-8.21 7.12-3.64.99-7.32 1.95-11.24 1.36q-5.2-.78-7.9-1.99c-1.74-.78-7.43-4.13-7.52-6.87q-.17-5.47.15-10.67a2.58 2.58 0 00-2.25-2.71c-5.36-.65-5.91-9.89-5.27-13.73q.51-3.06 3.88-2.88.61.03.8-.56m38.25 9.07q.52-3.11-.73-7.19c-1.03-3.37-.44-6.71-1.47-10.18-.37-1.26-.85-2.6-2.17-3.16-2.44-1.04-3.73-3.51-6.09-4.2-2.18-.63-3.39-2.07-5.87-1.97q-5.44.21-9.41 1.98-2.43 1.07-4.96 1.46-.28.04-.49.24-4 3.95-4.03 8.67c-.02 3.81-1.13 7.68-1.65 11.61-.72 5.4 4 9.73 3.62 15.22q-.22 3.14-.16 6.32c.03 1.53-.26 2.53.96 3.7q5.46 5.26 13.74 5.69c3.08.16 6.52-.58 9.38-1.52 3.28-1.07 4.43-3.59 6.56-5.97q.28-.32.32-.74.32-3.57-.03-7.13-.23-2.47.54-4.91 1.28-4.04 1.94-7.92m2.7-6.02l-.93 9.82a.29.29 0 00.26.31l.35.04a2.93 1.92-84.6 002.19-2.74l.43-4.56a2.93 1.92-84.6 00-1.64-3.1l-.34-.03a.29.29 0 00-.32.26m-40.97 9.57q-1.66-3.61-.52-7.54.36-1.24-.92-1.4l-.39-.05q-1.54-.19-1.39 1.35l.67 6.67q.09.91.94 1.26l.96.39q1.17.47.65-.68"></path><path d="M43.41 38.18q-.21 4.04-.34 8.27c-.1 2.98-1.13 7.7-4.44 8.75-5.31 1.68-15.4 1.99-16.66-4.57q-1.16-6.04-1.52-12.51-.05-.77-.82-.87c-5.58-.72-3.61-10.67-2.81-13.97 1.14-4.74 5.08-3.88 8.71-3.7q1.63.08 2.95.98 3.19 2.18 6.71-.06c2.34-1.49 6.19-1.05 8.87-.66 1.22.18 1.97.44 2.45 1.7q2.25 5.94 1 12.23c-.44 2.22-1.88 2.32-3.49 3.36q-.57.37-.61 1.05m-.75-12.97l-5.74 2.83a1.52 1.52 0 00-.69 2.03l.08.16a6.18 4.23 63.8 006.52 3.68l.88-.43a6.18 4.23 63.8 001.07-7.41l-.08-.17a1.52 1.52 0 00-2.04-.69m-15.09 2.93l-6.55-2.67a1.57 1.57 0 00-2.05.86l-.07.16a5.74 5.08-67.8 002.54 7.23l.05.02a5.74 5.08-67.8 006.88-3.39l.06-.16a1.57 1.57 0 00-.86-2.05m4.42 7.63c-.9-.77-2.93-1.59-4.02-.7q-.45.37-.33.97.16.85.88 1.22 4.82 2.48 8.5-.79a.87.87 0 00.02-1.28l-.26-.25a1.32 1.3-37.5 00-1.54-.19l-2.08 1.15a1.03 1.03 0 01-1.17-.13m-5.76 15.28l12.52-.1a.16.16 0 00.16-.17v-.08a5.94 5.06-.5 00-5.98-5h-.96a5.94 5.06-.5 00-5.9 5.12v.08a.16.16 0 00.16.15"></path><g fill="#000"><path d="M50.08 31.12q-.66 3.88-1.94 7.92-.77 2.44-.54 4.91.35 3.56.03 7.13-.04.42-.32.74c-2.13 2.38-3.28 4.9-6.56 5.97-2.86.94-6.3 1.68-9.38 1.52q-8.28-.43-13.74-5.69c-1.22-1.17-.93-2.17-.96-3.7q-.06-3.18.16-6.32c.38-5.49-4.34-9.82-3.62-15.22.52-3.93 1.63-7.8 1.65-11.61q.03-4.72 4.03-8.67.21-.2.49-.24 2.53-.39 4.96-1.46 3.97-1.77 9.41-1.98c2.48-.1 3.69 1.34 5.87 1.97 2.36.69 3.65 3.16 6.09 4.2 1.32.56 1.8 1.9 2.17 3.16 1.03 3.47.44 6.81 1.47 10.18q1.25 4.08.73 7.19m-6.06 6.01c1.61-1.04 3.05-1.14 3.49-3.36q1.25-6.29-1-12.23c-.48-1.26-1.23-1.52-2.45-1.7-2.68-.39-6.53-.83-8.87.66q-3.52 2.24-6.71.06-1.32-.9-2.95-.98c-3.63-.18-7.57-1.04-8.71 3.7-.8 3.3-2.77 13.25 2.81 13.97q.77.1.82.87.36 6.47 1.52 12.51c1.26 6.56 11.35 6.25 16.66 4.57 3.31-1.05 4.34-5.77 4.44-8.75q.13-4.23.34-8.27.04-.68.61-1.05"></path><path d="M42.66 25.21a1.52 1.52 0 012.04.69l.08.17a6.18 4.23 63.8 01-1.07 7.41l-.88.43a6.18 4.23 63.8 01-6.52-3.68l-.08-.16a1.52 1.52 0 01.69-2.03zm10.12-.11a.29.29 0 01.32-.26l.34.03a2.93 1.92-84.6 011.64 3.1l-.43 4.56a2.93 1.92-84.6 01-2.19 2.74l-.35-.04a.29.29 0 01-.26-.31zm-25.21 3.04a1.57 1.57 0 01.86 2.05l-.06.16a5.74 5.08-67.8 01-6.88 3.39l-.05-.02a5.74 5.08-67.8 01-2.54-7.23l.07-.16a1.57 1.57 0 012.05-.86zm-15.76 6.53q.52 1.15-.65.68l-.96-.39q-.85-.35-.94-1.26l-.67-6.67q-.15-1.54 1.39-1.35l.39.05q1.28.16.92 1.4-1.14 3.93.52 7.54m21.35 1.23l2.08-1.15a1.32 1.3-37.5 011.54.19l.26.25a.87.87 0 01-.02 1.28q-3.68 3.27-8.5.79-.72-.37-.88-1.22-.12-.6.33-.97c1.09-.89 3.12-.07 4.02.7a1.03 1.03 0 001.17.13m-6.93 15.15a.16.16 0 01-.16-.15v-.08a5.94 5.06-.5 015.9-5.12h.96a5.94 5.06-.5 015.98 5v.08a.16.16 0 01-.16.17z"></path></g></svg>