<svg data-v-ea210746="" xmlns="http://www.w3.org/2000/svg" fill="#fff" viewBox="0 0 64 64" class="ui-icon max-h-full w-full" style="fill: rgb(185, 230, 185); opacity: 1;"><g fill="#000"><path d="M55.85 42.66c-.64 6.17-8 7.72-11.8 3.19q-1.13-1.34-1.22-3.12a.76.76 0 00-.76-.72L20.01 42q-.5 0-.59.5c-1.39 8.01-11.42 8.09-13.23.06q-.12-.53-.66-.55l-2.44-.07q-.56-.02-.82-.52-.94-1.84-.99-3.93c-.14-6.43-.63-13.66.84-19.82a2.86 2.85 6.7 012.78-2.19q18.02-.02 36.6.01c1.9.01 3.61.75 4.84 2.19q3.36 3.94 6.62 7.65a5.66 5.64-10.3 002.31 1.59l5.21 1.93a3.5 3.49 10.7 012.29 3.35q-.05 2.82.02 5.89c.08 3.95-3.22 4.03-6.14 3.88q-.73-.04-.8.69m-9.95-6.47q6.23-2.73 9.35 2.78.32.55.94.71 2.22.57 3.78-.73.45-.38.46-.97c.07-2.54 1.07-6.35-2.14-7.45-3.33-1.15-6.35-2.31-8.6-5.26q-2.83-3.73-5.83-6.49-1.17-1.07-2.98-1.07-19.06.03-35.13.01a1.83 1.83 0 00-1.82 1.67q-.8 8.71-.25 19.16a1.35 1.34 7.7 00.92 1.2q1.39.45 2.17-.83c3.01-4.98 9.22-4.78 12.22.29q.32.54.95.54l22.31-.01q.5 0 .81-.38c.92-1.13 1.43-2.55 2.84-3.17m-28.84 5.72a4.3 4.3 0 00-4.3-4.3 4.3 4.3 0 00-4.3 4.3 4.3 4.3 0 004.3 4.3 4.3 4.3 0 004.3-4.3m36.53.01a4.3 4.3 0 00-4.3-4.3 4.3 4.3 0 00-4.3 4.3 4.3 4.3 0 004.3 4.3 4.3 4.3 0 004.3-4.3"></path><path d="M46.37 28.7l-10.4.04a.95.95 0 01-.96-.96l.02-6.42a.95.95 0 011.01-.95l5.31.33a.95.95 0 01.67.34l5.07 6.06a.95.95 0 01-.72 1.56"></path></g><path d="M45.9 36.19c-1.41.62-1.92 2.04-2.84 3.17q-.31.38-.81.38l-22.31.01q-.63 0-.95-.54c-3-5.07-9.21-5.27-12.22-.29q-.78 1.28-2.17.83a1.35 1.34 7.7 01-.92-1.2q-.55-10.45.25-19.16a1.83 1.83 0 011.82-1.67q16.07.02 35.13-.01 1.81 0 2.98 1.07 3 2.76 5.83 6.49c2.25 2.95 5.27 4.11 8.6 5.26 3.21 1.1 2.21 4.91 2.14 7.45q-.01.59-.46.97-1.56 1.3-3.78.73-.62-.16-.94-.71-3.12-5.51-9.35-2.78m-14.86-8.58l1.61-2.87q.22-.4.07-.83-1.1-3.06-4.02-3.13-4.21-.1-8.39-.12a.35.35 0 00-.35.35l-.03 15.45a.39.39 0 00.36.39q3.84.33 8.37-.16c3.59-.39 5.62-3.45 4.24-6.77q-.16-.37-.47-.63l-1.29-1.09a.48.47-55.1 01-.1-.59m15.33 1.09a.95.95 0 00.72-1.56l-5.07-6.06a.95.95 0 00-.67-.34l-5.31-.33a.95.95 0 00-1.01.95l-.02 6.42a.95.95 0 00.96.96z"></path><path d="M23.28 24.07a.83.83 0 01.83-.82h2.83a2.34 1.86.1 012.34 1.87v.3a2.34 1.86.1 01-2.34 1.85h-2.83a.83.83 0 01-.83-.84zm-.02 6.44a.82.82 0 01.8-.84l3.19-.09a2.65 2.04-1.5 012.7 1.97l.02.48a2.65 2.04-1.5 01-2.6 2.11l-3.19.08a.82.82 0 01-.84-.79z"></path><circle cx="12.76" cy="41.91" r="4.3"></circle><circle cx="49.29" cy="41.92" r="4.3"></circle><path fill="#858485" d="M31.14 28.2l1.29 1.09q.31.26.47.63c1.38 3.32-.65 6.38-4.24 6.77q-4.53.49-8.37.16a.39.39 0 01-.36-.39l.03-15.45a.35.35 0 01.35-.35q4.18.02 8.39.12 2.92.07 4.02 3.13.15.43-.07.83l-1.61 2.87a.48.47-55.1 00.1.59m-7.86-4.13v2.36a.83.83 0 00.83.84h2.83a2.34 1.86.1 002.34-1.85v-.3a2.34 1.86.1 00-2.34-1.87h-2.83a.83.83 0 00-.83.82m-.02 6.44l.08 2.92a.82.82 0 00.84.79l3.19-.08a2.65 2.04-1.5 002.6-2.11l-.02-.48a2.65 2.04-1.5 00-2.7-1.97l-3.19.09a.82.82 0 00-.8.84"></path></svg>