<svg data-v-ea210746="" xmlns="http://www.w3.org/2000/svg" fill="#fff" viewBox="0 0 64 64" class="ui-icon max-h-full w-full" style="opacity: 1;"><path fill="#000" d="M20.96 26.73q.46.13.92.12 14.61-.12 30.47-.03 1.24.01 1.24 1.25v28.38a1.29 1.29 0 01-1.29 1.29l-38.05.01a1.49 1.48 89.8 01-1.48-1.48q-.03-12.86-.01-27.65c.01-2.58-1.2-5.05-2.03-7.44a1.54 1.53-19.3 01.94-1.95L46.75 6.55q1.71-.62 2.35 1.09l2.14 5.82q.58 1.57-.99 2.14L20.94 26.26q-.71.26.02.47m24.71-11.76q1.38-.22 2.81-1.06.55-.32.35-.92-.57-1.75-1.12-3.33-.3-.87-1.2-.63-.5.13-.51.65-.06 2.35-.98 4.43-.46 1.04.65.86m-12.06 3.7a.37.37 0 00.47.45l4.76-1.55a.37.37 0 00.25-.27l1.27-5.59a.37.37 0 00-.48-.43l-4.51 1.56a.37.37 0 00-.23.25zm-11.14 4.1a.45.45 0 00.61.52l4.52-1.86a.45.45 0 00.27-.32l1.09-5.12a.45.45 0 00-.58-.52l-4.31 1.49a.45.45 0 00-.29.32zm-7.96 2.89a.53.53 0 00.75.28l1.05-.58a.53.53 0 00.26-.34l1.12-4.89a.53.53 0 00-.69-.62l-3.72 1.28a.53.53 0 00-.32.69zm8.61 8.09a.45.45 0 00.38.7l4.81-.06a.45.45 0 00.38-.21l3.07-4.89a.45.45 0 00-.4-.69l-4.73.17a.45.45 0 00-.36.2zm12.04-.11a.55.55 0 00.47.86l4.65-.15a.55.55 0 00.45-.26l2.94-4.66a.55.55 0 00-.48-.84l-4.44.1a.55.55 0 00-.44.25zm-15.73-3.67q.82-1.22-.65-1.23l-2.76-.02q-1.26-.01-1.27 1.26l-.03 3.25a1.15 1.15 0 002.11.65zm27.82 3.42a.75.75 0 00.65 1.17l2.85-.11a.75.75 0 00.72-.74l.05-4.2a.75.75 0 00-1.37-.43zm4.29 3.97a.79.79 0 00-.79-.79H15.49a.79.79 0 00-.79.79v17.6a.79.79 0 00.79.79h35.26a.79.79 0 00.79-.79z"></path><path d="M45.67 14.97q-1.11.18-.65-.86.92-2.08.98-4.43.01-.52.51-.65.9-.24 1.2.63.55 1.58 1.12 3.33.2.6-.35.92-1.43.84-2.81 1.06m-12.06 3.7l1.53-5.58a.37.37 0 01.23-.25l4.51-1.56a.37.37 0 01.48.43l-1.27 5.59a.37.37 0 01-.25.27l-4.76 1.55a.37.37 0 01-.47-.45m-11.14 4.1l1.31-5.49a.45.45 0 01.29-.32l4.31-1.49a.45.45 0 01.58.52l-1.09 5.12a.45.45 0 01-.27.32l-4.52 1.86a.45.45 0 01-.61-.52m-7.96 2.89l-1.55-4.18a.53.53 0 01.32-.69L17 19.51a.53.53 0 01.69.62l-1.12 4.89a.53.53 0 01-.26.34l-1.05.58a.53.53 0 01-.75-.28m8.61 8.09l3.15-4.78a.45.45 0 01.36-.2l4.73-.17a.45.45 0 01.4.69l-3.07 4.89a.45.45 0 01-.38.21l-4.81.06a.45.45 0 01-.38-.7m12.04-.11l3.15-4.7a.55.55 0 01.44-.25l4.44-.1a.55.55 0 01.48.84l-2.94 4.66a.55.55 0 01-.45.26l-4.65.15a.55.55 0 01-.47-.86m-15.73-3.67l-2.6 3.91a1.15 1.15 0 01-2.11-.65l.03-3.25q.01-1.27 1.27-1.26l2.76.02q1.47.01.65 1.23m27.82 3.42l2.9-4.31a.75.75 0 011.37.43l-.05 4.2a.75.75 0 01-.72.74l-2.85.11a.75.75 0 01-.65-1.17"></path><rect width="36.84" height="19.18" x="14.7" y="36.57" rx=".79"></rect></svg>