<svg data-v-ea210746="" xmlns="http://www.w3.org/2000/svg" viewBox="0 0 64 64" fill="#fff" class="ui-icon max-h-full w-full" style="fill: rgb(224, 50, 50); opacity: 1;"><path fill="#000" d="M55.15 37.56q-.01.31-.1.61-3.17 11.63-15.16 16.21-1.04.4-2.08.61a.76.76 0 00-.61.79c.18 2.71.53 6.48-3.48 6.46-3.94-.02-7.84.49-6.86-5.33q.26-1.57-1.26-2.06-13.39-4.31-16.84-17.14-.15-.58-.75-.66-1.31-.18-2.76-.02c-4.72.5-3.87-4.51-3.77-7.31A2.81 2.81 0 014.28 27l3.51-.01q.61 0 .96-.49.34-.47.29-1.05-.04-.5.14-.97 4.4-11.81 17.04-15.56.56-.17.57-.75c.04-2.07-.69-4.96 1.65-5.96q2.28-.96 6.82-.19a1.57 1.54 75.9 011 .61q1.41 1.87.88 5-.18 1.04.83 1.35 12.56 3.84 16.78 15.47c.26.71.11 1.68.57 2.18q.27.3.68.33c2.21.14 6.13-.88 6.38 2.66q.18 2.48-.03 5.08a2.48 2.48 0 01-2.46 2.28l-4.15.01a.59.58.5 00-.59.57M28.96 53.77l.05 4.89a1.39 1.38-.4 001.4 1.37l3.34-.02Q34.99 60 35 58.75l.04-4.98q0-.53.52-.64 14.3-3.08 17.89-17.64a1.05 1.04 7.3 011.03-.79l4.76.06q1.02.02 1.02-1l-.01-3.5q0-1-.99-.99l-4.74.03a1.16 1.15-6.8 01-1.14-.89q-3.34-14.22-17.81-17.56-.52-.12-.53-.65l-.05-4.72q-.01-1.5-1.51-1.51h-2.96q-1.53-.01-1.54 1.51l-.04 4.61q-.01.67-.66.82-14.37 3.21-17.75 17.69a.88.87-83.3 01-.85.68l-4.94-.02q-1 0-1 1l.01 3.35q0 1.12 1.11 1.12l4.5-.02a1.28 1.26 83 011.23.97q3.57 14.39 17.87 17.48.49.11.5.61"></path><path d="M28.46 53.16q-14.3-3.09-17.87-17.48a1.28 1.26 83 00-1.23-.97l-4.5.02q-1.11 0-1.11-1.12l-.01-3.35q0-1 1-1l4.94.02a.88.87-83.3 00.85-.68q3.38-14.48 17.75-17.69.65-.15.66-.82l.04-4.61q.01-1.52 1.54-1.51h2.96q1.5.01 1.51 1.51l.05 4.72q.01.53.53.65 14.47 3.34 17.81 17.56a1.16 1.15-6.8 001.14.89l4.74-.03q.99-.01.99.99l.01 3.5q0 1.02-1.02 1l-4.76-.06a1.05 1.04 7.3 00-1.03.79q-3.59 14.56-17.89 17.64-.52.11-.52.64L35 58.75q-.01 1.25-1.25 1.26l-3.34.02a1.39 1.38-.4 01-1.4-1.37l-.05-4.89q-.01-.5-.5-.61M48.63 31.9A16.63 16.63 0 0032 15.27 16.63 16.63 0 0015.37 31.9 16.63 16.63 0 0032 48.53 16.63 16.63 0 0048.63 31.9"></path><path fill="#000" d="M48.63 31.9A16.63 16.63 0 0132 48.53 16.63 16.63 0 0115.37 31.9 16.63 16.63 0 0132 15.27 16.63 16.63 0 0148.63 31.9m-10.02-3.858a6.62 6.49.1 00-6.609-6.502 6.62 6.49.1 00-6.631 6.478 6.62 6.49.1 006.609 6.502 6.62 6.49.1 006.631-6.478m0 7.788q-.85-.67-1.82-.2-4.79 2.3-9.88-.12-.64-.3-1.22.11-2.68 1.94-4.05 5.05-.26.59.2 1.06c5.74 5.79 14.83 5.72 20.44-.12a.74.74 0 00.15-.8q-1.24-2.93-3.82-4.98"></path><ellipse rx="6.62" ry="6.49" transform="rotate(.1 -16044.008 18342.93)"></ellipse><path d="M38.61 35.83q2.58 2.05 3.82 4.98a.74.74 0 01-.15.8c-5.61 5.84-14.7 5.91-20.44.12q-.46-.47-.2-1.06 1.37-3.11 4.05-5.05.58-.41 1.22-.11 5.09 2.42 9.88.12.97-.47 1.82.2"></path></svg>