<svg data-v-ea210746="" viewBox="0 0 100 100" xmlns="http://www.w3.org/2000/svg" class="ui-icon absolute inset-x-0 !w-full" style="fill: rgb(240, 200, 80); opacity: 1;"><g fill="#fff"><path d="M40.43 12.73c5.08-1.3 10.4-.6 15.58-.66 12.79 1.55 23.96 11.52 27.48 23.84 2.84 11.44 1.33 24.72-6.89 33.67-6.82 7.17-13.97 14.01-20.9 21.07-2.29 2.83-6.7 2.67-9.73 1.43-7.38-6.95-14.4-14.3-21.6-21.44-6.67-6.71-9.67-16.34-9.13-25.68-.23-14.83 10.86-28.76 25.19-32.23m3.11 2.93C31.22 18.08 21.02 28.58 19 40.97c-1.81 9.87 1.47 20.46 8.55 27.57 6.61 6.64 13.23 13.29 19.9 19.88 1.51 1.75 4.23 1.28 5.58-.42 6.65-6.67 13.37-13.26 19.94-20.01 9.21-9.55 11.15-25.1 4.64-36.65-6.34-11.92-20.87-18.7-34.07-15.68z"></path><path d="M44.43 33.69c6.82-3.15 15.69.36 18.41 7.37 3.19 6.95-.67 15.96-7.88 18.48-6.74 2.77-15.13-.85-17.81-7.61-3.09-6.76.43-15.43 7.28-18.24z"></path></g><path d="M43.54 15.66c13.2-3.02 27.73 3.76 34.07 15.68 6.51 11.55 4.57 27.1-4.64 36.65C66.4 74.74 59.68 81.33 53.03 88c-1.35 1.7-4.07 2.17-5.58.42-6.67-6.59-13.29-13.24-19.9-19.88-7.08-7.11-10.36-17.7-8.55-27.57 2.02-12.39 12.22-22.89 24.54-25.31m.89 18.03c-6.85 2.81-10.37 11.48-7.28 18.24 2.68 6.76 11.07 10.38 17.81 7.61 7.21-2.52 11.07-11.53 7.88-18.48-2.72-7.01-11.59-10.52-18.41-7.37z"></path></svg>