<?xml version="1.0" encoding="UTF-8" standalone="no"?>
<svg viewBox="0 0 100 100" xmlns="http://www.w3.org/2000/svg">
  <circle cx="50" cy="50" r="10" fill="#000000"></circle>
  <g transform="translate(50,50)">
    <!-- Blade 1 -->
    <path fill="#000000" d="M 21.65 12.5 A 25 25 0 0 1 21.65 -12.5 L 38.97 -22.5 A 45 45 0 0 0 38.97 22.5 Z"></path>
    <!-- Blade 2 -->
    <path fill="#000000" transform="rotate(120)" d="M 21.65 12.5 A 25 25 0 0 1 21.65 -12.5 L 38.97 -22.5 A 45 45 0 0 0 38.97 22.5 Z"></path>
    <!-- Blade 3 -->
    <path fill="#000000" transform="rotate(240)" d="M 21.65 12.5 A 25 25 0 0 1 21.65 -12.5 L 38.97 -22.5 A 45 45 0 0 0 38.97 22.5 Z"></path>
  </g>
</svg>