<svg data-v-ea210746="" xmlns="http://www.w3.org/2000/svg" fill="#fff" viewBox="0 0 64 64" class="ui-icon max-h-full w-full" style="opacity: 1;"><path fill="#000" d="M36.64 45.08q-3.2-1.98-6.41-4.08-1.06-.69-1.36-1.92a1.09 1.08 82.8 00-1.05-.82l-13.3-.04q-.51 0-.51.51l-.02 18.64a1.61 1.61 0 01-1.61 1.61L4.99 59q-2 0-2-2.01V5.73a2.28 2.27 0 012.28-2.27h43.7a2.01 2 89.9 012.01 2.01l.01 26.99a1.33 1.32 7.4 00.99 1.28c4.2 1.1 8.78 4.2 8.93 8.94q.23 6.89-1.13 13.64a3.04 3.04 0 01-2.61 2.42q-10.48 1.3-20.57 2.41-1.77.19-2.76-1.34-2.85-4.4-1.51-8.06 1.47-3.99 4.3-5.71.79-.48.01-.96M11.73 16.19a.46.46 0 01.46-.46l11.31.02a.46.46 0 00.46-.46l.06-9.12a.46.46 0 00-.46-.46H5.72a.46.46 0 00-.46.46l.01 50.11a.46.46 0 00.46.46l5.56-.01a.46.46 0 00.46-.46l-.01-19.82a.46.46 0 01.46-.46l11.34.01a.46.46 0 00.46-.46l-.01-9.08a.46.46 0 00-.46-.46H12.2a.46.46 0 01-.46-.46zm36.26-.4a.76.76 0 00.77-.76V6.37a.76.76 0 00-.77-.76l-10.57.15a.76.76 0 00-.75.77l.12 8.42a.76.76 0 00.75.75zm-11.55.857a.68.68 0 00-.684-.675l-10.86.076a.68.68 0 00-.675.685l.058 8.36a.68.68 0 00.685.675l10.86-.076a.68.68 0 00.675-.685zm1.11 18.613c3.81-.93 6.32-3.21 10.6-2.49a.52.52 0 00.61-.52l-.07-5.54q-.01-.72-.73-.71l-10.48.03a.75.75 0 00-.74.74l-.07 7.8a.71.7-6.7 00.88.69m9.75 14.22l-7 2.28q-.52.17-.93-.18-.94-.8-1.47-2a.93.93 0 00-1.53-.25q-4.04 4.42-.78 8.97a1.36 1.35-20.7 001.26.56l19.85-2.3a1.13 1.12 1.4 00.98-.93q1-5.86.98-11.68-.01-4.35-3.96-6.61c-3.65-2.09-8.43-3.31-12.4-1.32q-4.32 2.16-9.45 2.44-1.77.1-.37 1.19 1.7 1.31 3.74 2.48c2.31 1.33 4.61.87 7.09.92q5.46.09 4.68 5.61-.09.63-.69.82"></path><path d="M11.73 16.19l.01 9.35a.46.46 0 00.46.46h11.33a.46.46 0 01.46.46l.01 9.08a.46.46 0 01-.46.46l-11.34-.01a.46.46 0 00-.46.46l.01 19.82a.46.46 0 01-.46.46l-5.56.01a.46.46 0 01-.46-.46L5.26 6.17a.46.46 0 01.46-.46h17.84a.46.46 0 01.46.46l-.06 9.12a.46.46 0 01-.46.46l-11.31-.02a.46.46 0 00-.46.46m36.26-.4l-10.45-.09a.76.76 0 01-.75-.75l-.12-8.42a.76.76 0 01.75-.77l10.57-.15a.76.76 0 01.77.76v8.66a.76.76 0 01-.77.76"></path><rect width="12.22" height="9.72" x="-6.11" y="-4.86" rx=".68" transform="rotate(-.4 3004.575 -4338.297)"></rect><path d="M48.15 32.77c-4.28-.72-6.79 1.56-10.6 2.49a.71.7-6.7 01-.88-.69l.07-7.8a.75.75 0 01.74-.74L47.96 26q.72-.01.73.71l.07 5.54a.52.52 0 01-.61.52m-.16 15.89q.78-5.52-4.68-5.61c-2.48-.05-4.78.41-7.09-.92q-2.04-1.17-3.74-2.48-1.4-1.09.37-1.19 5.13-.28 9.45-2.44c3.97-1.99 8.75-.77 12.4 1.32q3.95 2.26 3.96 6.61.02 5.82-.98 11.68a1.13 1.12 1.4 01-.98.93l-19.85 2.3a1.36 1.35-20.7 01-1.26-.56q-3.26-4.55.78-8.97a.93.93 0 011.53.25q.53 1.2 1.47 2 .41.35.93.18l7-2.28q.6-.19.69-.82"></path></svg>