<svg data-v-ea210746="" xmlns="http://www.w3.org/2000/svg" fill="#fff" viewBox="0 0 64 64" class="ui-icon max-h-full w-full" style="opacity: 1;"><g fill="#000"><path d="M20.53 47.01L43.61 47q2.61 0 2.62 2.61l.02 9.38a2.24 2.23-.1 01-2.24 2.24l-38.54-.01a2 2 0 01-2-2L3.46 5.03a2.26 2.26 0 012.26-2.26l11.09.02q3 .01 3 3.02l-.01 40.47q0 .73.73.73m-2.36 2.25a.67.67 0 01-.67-.67l.01-42.91a.67.67 0 00-.67-.67L6.4 4.95a.67.67 0 00-.67.67l-.01 52.75a.67.67 0 00.67.67l36.95-.02a.67.67 0 00.67-.67l.02-8.42a.67.67 0 00-.67-.67z"></path><path d="M26.2 4.76a1.97 1.97 0 011.96-1.97l16.27-.06a17.72 17.22 89.8 0117.28 17.66l.02 4.22a17.72 17.22 89.8 01-17.16 17.78l-16.27.05a1.97 1.97 0 01-1.98-1.96zm2.3 1.08l-.06 33.38a1.01 1.01 0 001.01 1.01l14.27.03a15.78 15.76-89.9 0015.79-15.75v-3.84A15.78 15.76-89.9 0043.78 4.86l-14.27-.03a1.01 1.01 0 00-1.01 1.01"></path><path d="M36.21 12.39a.86.86 0 01.86-.87l5.91-.02a9.04 8.71 89.8 018.74 9.01l.02 4.02a9.04 8.71 89.8 01-8.68 9.07l-5.91.02a.86.86 0 01-.86-.85zm2.24 1.99l-.02 16.32a.58.58 0 00.57.58l3.77.01a6.95 6.69-89.9 006.71-6.94v-3.58a6.95 6.69-89.9 00-6.67-6.96l-3.77-.01a.58.58 0 00-.59.58"></path></g><path d="M28.5 5.84a1.01 1.01 0 011.01-1.01l14.27.03a15.78 15.76-89.9 0115.73 15.81v3.84a15.78 15.76-89.9 01-15.79 15.75l-14.27-.03a1.01 1.01 0 01-1.01-1.01zm7.71 6.55l.08 20.38a.86.86 0 00.86.85l5.91-.02a9.04 8.71 89.8 008.68-9.07l-.02-4.02a9.04 8.71 89.8 00-8.74-9.01l-5.91.02a.86.86 0 00-.86.87"></path><path d="M18.17 49.26h25.19a.67.67 0 01.67.67l-.02 8.42a.67.67 0 01-.67.67l-36.95.02a.67.67 0 01-.67-.67l.01-52.75a.67.67 0 01.67-.67l10.44.06a.67.67 0 01.67.67l-.01 42.91a.67.67 0 00.67.67"></path></svg>