<svg data-v-ea210746="" viewBox="0 0 107 137" xmlns="http://www.w3.org/2000/svg" fill="#7e7d7e" class="ui-icon max-h-full w-full" style="fill: rgb(174, 219, 242); opacity: 1;"><path fill="#010101" d="M20.76 2.96c7.83-3.16 16.6-1.87 24.38.78 5.34 1.88 11.16 1.61 16.47-.25 7.76-2.61 16.6-3.68 24.25-.14 3.88 1.95 5.86 6.21 6.4 10.35 2.5 17.8 4.1 35.71 5.61 53.62 2.49 1.31 5.44 2.76 6.36 5.65.46 3.62.32 7.34-.74 10.84-1.67-.05-3.34-.12-5.01-.23.31 6.55.11 13.1.25 19.64 2.06 1.67 4.76 3.12 5.48 5.86.51 3.25.15 6.56-.38 9.78-1.93.13-3.87.23-5.81.3-.78 4.62-1.51 10.3-6.23 12.61-6.87 2.62-14.4 1.95-21.59 2.8-16.24.53-32.54.52-48.72-1.07-3.3-.6-7.18-.68-9.58-3.39-3.06-2.91-3.31-7.39-4.14-11.27-2 .16-5.28 1.25-6-1.47-.87-3.76-.57-7.8 1-11.35 1.51-.86 2.99-1.75 4.48-2.65-.05-6.53-.12-13.07.09-19.6-1.74 0-3.47-.02-5.21-.05-.84-3.58-1.16-7.37-.38-10.99.74-3.01 3.97-4.1 6.34-5.54 1.27-17.97 3.11-35.91 5.55-53.76.5-4.38 3.07-8.56 7.13-10.47m4.63 2.09c-1.81 1.59-2.42 4.04-2.89 6.31-.14.78-.41 2.34-.55 3.11l.35.62-.42.63c-4.09 12.96-5.16 26.71-5.84 40.22-.23 20.68-.38 41.37-1.1 62.04.21 2.72-1.05 5.13-2.52 7.31 1.99 4.13 6.72 4.81 10.84 4.61 2.93-7.04 7.91-13.24 14.68-16.88-.12-7.68-.72-15.34-.88-23.01-.09-2.68.43-5.31 1.16-7.88.11-1.05 1.03-2.49-.03-3.34-3.18-3.15-6.48-6.35-8.38-10.47-4.39-9.41-5.04-20.16-3.72-30.34.93-7.62 4.74-14.78 4.22-22.6 0-3.59-.1-7.22-1.24-10.66a45.3 45.3 0 00-3.68.33m6.15-.57c1.76 5.99.85 12.21.99 18.31 2.44 5.68 5.74 10.98 8.05 16.73 1.18 2.95 1.27 6.25 2.65 9.11 2.5.79 5.17.47 7.75.56 4.08-.1 8.3.54 12.21-.93.91-9.32 6.46-17.06 10.2-25.36.31-3.27-.33-6.56-.31-9.84.02-2.83.32-5.65 1.17-8.36-2.27.09-4.56.13-6.76.73-1.49.62-3.01 1.17-4.56 1.63-3.97.43-7.91 1.44-11.95 1.09-6.7-.08-12.69-3.83-19.44-3.67m45.59.31c-.42 1.47-1.37 2.87-1.16 4.46l-.38-.54c-.67 6.53-.03 13.16 1.91 19.43 3.86 12.93 4.27 27.43-1.34 39.91-1.86 4.6-5.87 7.64-9.03 11.26 3.11 11.01.71 22.46.73 33.71 7.2 3.5 11.72 10.37 15.09 17.35 3.95-.6 8.54-.97 10.37-5.14-1.33-2.19-2.62-4.55-2.52-7.2-.36-13.35-.39-26.71-.87-40.05-.22-15.82.38-31.78-2.56-47.41-2-8.55-3.11-17.34-6.3-25.58-1.32-.07-2.63-.14-3.94-.2M15.99 20.02c-4.04 33.9-7.47 68.23-4.29 102.35 1.72-3.89 1.38-8.21 1.48-12.36.29-16.34.5-32.69.95-49.02-.66-18.73 2.81-37.31 7.8-55.29-5.06 2.93-5.26 9.17-5.94 14.32M83.98 5.73c1.42 5.1 2.8 10.2 3.84 15.4 4.25 17.97 4.19 36.54 4.09 54.9.95 15.17-.13 30.47 1.79 45.57.52-1.46 1.11-2.93 1.15-4.5 1.79-33.83-1.22-67.68-5.52-101.21-.39-3.96-1.88-7.91-5.35-10.16M28.52 56.71c1.12-5.85 1.57-11.81 2.37-17.71.49-4.49 1.75-9.01.85-13.54-4.13 9.77-5.22 20.84-3.22 31.25m45.51-31.34c-.4 4.18.14 8.36.72 12.5.91 6.24 1.29 12.57 2.73 18.72 1.47-10.47.94-21.47-3.45-31.22m-43.7 35.18c-.56 2.83.86 5.42 2.03 7.89 2.16-8.6 3.51-17.38 5.3-26.06 1.16-4.12-2.08-7.54-3.58-11.07-1.3 9.74-2.56 19.49-3.75 29.24m37.22-20.7c2.21 9.46 3.58 19.11 5.9 28.55 1.27-2.61 2.77-5.35 2.05-8.35-1.31-9.54-2.31-19.13-3.76-28.65-1.42 2.8-2.83 5.61-4.19 8.45m-28.3 3.79c-1 8.5-3.09 16.82-4.65 25.23-.99 3.52 2.69 5.78 4.56 8.2 1.32-3.49 5.71-5.07 5.87-9 .73-5.51 1.26-11.04 1.99-16.55-1.86-.54-4.38-.17-5.61-1.97-1.11-1.8-1.53-3.91-2.16-5.91M64 50.01c-1.5 1.17-3.52 1.16-5.3 1.59 1.14 6.51 1.57 13.12 2.56 19.65 2.52 1.12 4.62 2.94 5.28 5.71 1.77-1.93 3.51-3.88 5.17-5.91-1.85-8.82-3.57-17.67-5.14-26.54-.78 1.86-1.32 3.89-2.57 5.5M4.7 72.96c-.03 2.53-.06 5.07-.1 7.6 1.34-.18 2.68-.35 4.02-.51.06-3.21.18-6.41.32-9.61-1.41.84-2.82 1.68-4.24 2.52m92.39-2.63c.01 3.21.12 6.41.24 9.62 1.28.19 2.56.37 3.84.56-.03-2.44.11-4.89-.27-7.31-1.05-1.22-2.5-1.97-3.81-2.87m-53.98 5.22l-1.13.1 1.01 1.66-.79-.94c-1.86 5.33-3.65 10.9-3.03 16.62.66 7.67.26 15.42 1.43 23.03 1.93.08 3.86.15 5.79.23-.15-8.82.35-17.68-.22-26.48.11-5.48.08-10.97.01-16.46-1.47.17-2.49.91-3.07 2.24m16.55 6.48c.32 9.89-.63 19.87.52 29.7l-.59 1.5c-.07.73-.23 2.21-.3 2.94 1.94-.27 4.27.45 5.91-.92.82-3.01.6-6.16.83-9.24.28-8.26 1.52-16.65-.36-24.81l-.37.02c-.58-2.01-1.42-3.94-2.14-5.91-.6-.57-1.78-1.71-2.37-2.28-2 2.58-.83 6.01-1.13 9M4.72 108.94c-.04 2.26-.06 4.52-.11 6.78l4.09-.4-.51-8.7c-1.16.77-2.31 1.55-3.47 2.32m92.73-2.24c-.1 2.89-.11 5.78-.09 8.67 1.22.15 2.44.3 3.66.44.03-2.23.3-4.49-.16-6.69-.84-1.16-2.26-1.66-3.41-2.42m-72.51 23.79c18.58 1.46 37.33 1.74 55.89-.09-2.99-5.76-6.82-11.36-12.49-14.77-4.79 4.28-11.5 2.23-17.28 2.7-4.83.37-9.65-.03-14.05-2.14-5.61 3.08-8.88 8.97-12.07 14.3z"></path><path d="M25.39 5.05a45.3 45.3 0 013.68-.33c1.14 3.44 1.24 7.07 1.24 10.66-.58-.19-1.73-.58-2.31-.77-.01-2.06-.02-4.12-.02-6.18-.44-.44-1.3-1.33-1.74-1.78-.78 2.71-1.47 5.44-2.5 8.07-.36.09-1.08.28-1.44.37l-.35-.62c.14-.77.41-2.33.55-3.11.47-2.27 1.08-4.72 2.89-6.31zm42.1.38c2.2-.6 4.49-.64 6.76-.73-.85 2.71-1.15 5.53-1.17 8.36-.51-.02-1.52-.07-2.03-.1-.05-2.1-.11-4.21-.19-6.31-1.63.82-3.26 1.65-4.9 2.47-.3-.47-.92-1.41-1.22-1.88-.45-.05-1.36-.13-1.81-.18 1.55-.46 3.07-1.01 4.56-1.63zm9.64-.64c1.31.06 2.62.13 3.94.2 3.19 8.24 4.3 17.03 6.3 25.58-.62 1.11-1.24 2.22-1.81 3.36-1.09-3.59-1.68-7.28-2.32-10.96-.79-5.27-2.1-10.44-3.74-15.51-.94.95-1.85 1.93-2.77 2.91l-.76-1.12c-.21-1.59.74-2.99 1.16-4.46zM18.95 48.96c.52-.01 1.57-.02 2.1-.02 0 25.04.02 50.07-.01 75.11-.52 0-1.56-.01-2.08-.02-.04-25.02-.01-50.05-.01-75.07zm65.01-.02c.51 0 1.53.01 2.04.01.11 25.03.04 50.06.05 75.08-.52.01-1.56.02-2.09.02V48.94zM43.11 75.55c.58-1.33 1.6-2.07 3.07-2.24.07 5.49.1 10.98-.01 16.46-.52-.36-1.56-1.08-2.07-1.44-.25-3.18-.15-6.37-.08-9.55-.26-.37-.78-1.1-1.03-1.47l-1.01-1.66 1.13-.1zm16.55 6.48c.3-2.99-.87-6.42 1.13-9 .59.57 1.77 1.71 2.37 2.28.72 1.97 1.56 3.9 2.14 5.91-.5.22-1.51.66-2.01.88-.32-.66-.97-1.97-1.3-2.63.01 9.53.21 19.06.01 28.59.21 2.08-1.13 3.71-2.41 5.17l.59-1.5c-1.15-9.83-.2-19.81-.52-29.7z" fill="#f6f4f6"></path><path d="M31.54 4.48c6.75-.16 12.74 3.59 19.44 3.67 4.04.35 7.98-.66 11.95-1.09.45.05 1.36.13 1.81.18.3.47.92 1.41 1.22 1.88 1.64-.82 3.27-1.65 4.9-2.47.08 2.1.14 4.21.19 6.31.51.03 1.52.08 2.03.1-.02 3.28.62 6.57.31 9.84-3.74 8.3-9.29 16.04-10.2 25.36-3.91 1.47-8.13.83-12.21.93-2.58-.09-5.25.23-7.75-.56-1.38-2.86-1.47-6.16-2.65-9.11-2.31-5.75-5.61-11.05-8.05-16.73-.14-6.1.77-12.32-.99-18.31zm-5.3 2.17c.44.45 1.3 1.34 1.74 1.78 0 2.06.01 4.12.02 6.18.58.19 1.73.58 2.31.77.52 7.82-3.29 14.98-4.22 22.6-1.32 10.18-.67 20.93 3.72 30.34 1.9 4.12 5.2 7.32 8.38 10.47 1.06.85.14 2.29.03 3.34-.73 2.57-1.25 5.2-1.16 7.88.16 7.67.76 15.33.88 23.01-6.77 3.64-11.75 9.84-14.68 16.88-4.12.2-8.85-.48-10.84-4.61 1.47-2.18 2.73-4.59 2.52-7.31.72-20.67.87-41.36 1.1-62.04.68-13.51 1.75-27.26 5.84-40.22l.42-.63c.36-.09 1.08-.28 1.44-.37 1.03-2.63 1.72-5.36 2.5-8.07m-7.29 42.31c0 25.02-.03 50.05.01 75.07.52.01 1.56.02 2.08.02.03-25.04.01-50.07.01-75.11-.53 0-1.58.01-2.1.02zm57.78-38.59c.92-.98 1.83-1.96 2.77-2.91 1.64 5.07 2.95 10.24 3.74 15.51.64 3.68 1.23 7.37 2.32 10.96.57-1.14 1.19-2.25 1.81-3.36 2.94 15.63 2.34 31.59 2.56 47.41.48 13.34.51 26.7.87 40.05-.1 2.65 1.19 5.01 2.52 7.2-1.83 4.17-6.42 4.54-10.37 5.14-3.37-6.98-7.89-13.85-15.09-17.35-.02-11.25 2.38-22.7-.73-33.71 3.16-3.62 7.17-6.66 9.03-11.26 5.61-12.48 5.2-26.98 1.34-39.91a48.933 48.933 0 01-1.91-19.43l.38.54.76 1.12m7.23 38.57v75.11c.53 0 1.57-.01 2.09-.02-.01-25.02.06-50.05-.05-75.08-.51 0-1.53-.01-2.04-.01z"></path><path d="M30.33 60.55c1.19-9.75 2.45-19.5 3.75-29.24 1.5 3.53 4.74 6.95 3.58 11.07-1.79 8.68-3.14 17.46-5.3 26.06-1.17-2.47-2.59-5.06-2.03-7.89zm37.22-20.7c1.36-2.84 2.77-5.65 4.19-8.45 1.45 9.52 2.45 19.11 3.76 28.65.72 3-.78 5.74-2.05 8.35-2.32-9.44-3.69-19.09-5.9-28.55zM42.2 76.37l.79.94c.25.37.77 1.1 1.03 1.47-.07 3.18-.17 6.37.08 9.55.51.36 1.55 1.08 2.07 1.44.57 8.8.07 17.66.22 26.48-1.93-.08-3.86-.15-5.79-.23-1.17-7.61-.77-15.36-1.43-23.03-.62-5.72 1.17-11.29 3.03-16.62zm19.79 3.1c.33.66.98 1.97 1.3 2.63.5-.22 1.51-.66 2.01-.88l.37-.02c1.88 8.16.64 16.55.36 24.81-.23 3.08-.01 6.23-.83 9.24-1.64 1.37-3.97.65-5.91.92.07-.73.23-2.21.3-2.94 1.28-1.46 2.62-3.09 2.41-5.17.2-9.53 0-19.06-.01-28.59z"></path><path d="M15.99 20.02c.68-5.15.88-11.39 5.94-14.32-4.99 17.98-8.46 36.56-7.8 55.29-.45 16.33-.66 32.68-.95 49.02-.1 4.15.24 8.47-1.48 12.36-3.18-34.12.25-68.45 4.29-102.35zM83.98 5.73c3.47 2.25 4.96 6.2 5.35 10.16 4.3 33.53 7.31 67.38 5.52 101.21-.04 1.57-.63 3.04-1.15 4.5-1.92-15.1-.84-30.4-1.79-45.57.1-18.36.16-36.93-4.09-54.9-1.04-5.2-2.42-10.3-3.84-15.4zM28.52 56.71c-2-10.41-.91-21.48 3.22-31.25.9 4.53-.36 9.05-.85 13.54-.8 5.9-1.25 11.86-2.37 17.71zm45.51-31.34c4.39 9.75 4.92 20.75 3.45 31.22-1.44-6.15-1.82-12.48-2.73-18.72-.58-4.14-1.12-8.32-.72-12.5zM39.25 43.64c.63 2 1.05 4.11 2.16 5.91 1.23 1.8 3.75 1.43 5.61 1.97-.73 5.51-1.26 11.04-1.99 16.55-.16 3.93-4.55 5.51-5.87 9-1.87-2.42-5.55-4.68-4.56-8.2 1.56-8.41 3.65-16.73 4.65-25.23zM64 50.01c1.25-1.61 1.79-3.64 2.57-5.5 1.57 8.87 3.29 17.72 5.14 26.54-1.66 2.03-3.4 3.98-5.17 5.91-.66-2.77-2.76-4.59-5.28-5.71-.99-6.53-1.42-13.14-2.56-19.65 1.78-.43 3.8-.42 5.3-1.59zM4.7 72.96c1.42-.84 2.83-1.68 4.24-2.52-.14 3.2-.26 6.4-.32 9.61-1.34.16-2.68.33-4.02.51.04-2.53.07-5.07.1-7.6zm92.39-2.63c1.31.9 2.76 1.65 3.81 2.87.38 2.42.24 4.87.27 7.31-1.28-.19-2.56-.37-3.84-.56-.12-3.21-.23-6.41-.24-9.62zM4.72 108.94c1.16-.77 2.31-1.55 3.47-2.32l.51 8.7-4.09.4c.05-2.26.07-4.52.11-6.78zm92.73-2.24c1.15.76 2.57 1.26 3.41 2.42.46 2.2.19 4.46.16 6.69-1.22-.14-2.44-.29-3.66-.44-.02-2.89-.01-5.78.09-8.67zm-72.51 23.79c3.19-5.33 6.46-11.22 12.07-14.3 4.4 2.11 9.22 2.51 14.05 2.14 5.78-.47 12.49 1.58 17.28-2.7 5.67 3.41 9.5 9.01 12.49 14.77-18.56 1.83-37.31 1.55-55.89.09z" fill="#3b3b3b"></path></svg>