<svg data-v-ea210746="" xmlns="http://www.w3.org/2000/svg" fill="#fff" viewBox="0 0 64 64" class="ui-icon max-h-full w-full" style="opacity: 1;"><g fill="#000"><path d="M55.5 50.2a5.33 5.33 0 01-5.33 5.33H13.81a5.33 5.33 0 01-5.33-5.33V13.78a5.33 5.33 0 015.33-5.33h36.36a5.33 5.33 0 015.33 5.33zm-2.282-36.387a3.11 3.11 0 00-3.115-3.105l-36.3.064a3.11 3.11 0 00-3.105 3.115l.064 36.3a3.11 3.11 0 003.115 3.105l36.3-.064a3.11 3.11 0 003.105-3.115z"></path><path d="M30.65 39.58c3.95-3.69 4.94-7.41 6.95-11.93a.94.93-67 00-.5-1.25c-1.75-.71-3.89-1.4-4.04-3.64q-.21-3.13-.04-7.22a1.57 1.57 0 011.45-1.51c12.61-.93 11 12.87 7.5 20.51-3.93 8.56-9.87 17.41-20.43 13.54q-2.05-.76-2.93-2.91a.94.93-34.4 01.19-1l5.08-5.28a1.78 1.77-58.4 011.86-.45l3.96 1.34q.54.18.95-.2"></path></g><path d="M53.282 50.113a3.11 3.11 0 01-3.105 3.115l-36.3.064a3.11 3.11 0 01-3.115-3.105l-.064-36.3a3.11 3.11 0 013.105-3.115l36.3-.064a3.11 3.11 0 013.115 3.105zM29.7 39.78l-3.96-1.34a1.78 1.77-58.4 00-1.86.45l-5.08 5.28a.94.93-34.4 00-.19 1q.88 2.15 2.93 2.91c10.56 3.87 16.5-4.98 20.43-13.54 3.5-7.64 5.11-21.44-7.5-20.51a1.57 1.57 0 00-1.45 1.51q-.17 4.09.04 7.22c.15 2.24 2.29 2.93 4.04 3.64a.94.93-67 01.5 1.25c-2.01 4.52-3 8.24-6.95 11.93q-.41.38-.95.2"></path></svg>