<svg data-v-ea210746="" viewBox="0 0 108 138" xmlns="http://www.w3.org/2000/svg" fill="#7e7f7e" class="ui-icon max-h-full w-full" style="fill: rgb(255, 133, 85); opacity: 1;"><g fill="#000"><path d="M11.5 5.47c2.36-3.27 6.61-4.33 10.45-4.22 13.04.06 26.07-.02 39.1.04 6.39.02 12.93 2.31 16.85 7.57 1.31-1.07 2.44-2.49 4.09-3.04 4.21 1.51 7.68 4.47 11.5 6.72 3.66 2.65 8.24 4.42 11.19 7.82-.22 3.28-2.87 5.97-4.53 8.74 2.87 2.66 6.4 5.53 6.18 9.87.14 29.34-.01 58.69.07 88.04-.08 2.79.07 6.13-2.31 8.1-1.55 1.64-3.93 1.7-6.02 1.73-29.37-.04-58.74 0-88.11-.02-2.29.03-4.86-.56-6.3-2.48-1.89-2.73-1.41-6.2-1.48-9.33.07-30.67.02-61.34.02-92.01.07-5.11-.59-10.48 1.62-15.27C5.84 13.34 8.7 9.39 11.5 5.47m4.95 0c-2 .92-3.09 2.95-4.32 4.66-2.91 4.56-6.71 9.15-6.57 14.88-.06 34.63.13 69.27-.1 103.9-.16 2.26 1.08 5 3.74 4.59 29.28.21 58.57 0 87.86.1 1.78-.19 4 .31 5.36-1.17 1.21-3.68.86-7.62.91-11.43-.05-27.01 0-54.03-.02-81.05.21-2.97-1.6-5.69-4.07-7.19-5.96-3.72-12.26-6.93-17.95-11.06-3.92-2.91-4.8-7.91-7.09-11.91-2.95-4.12-8.47-5.11-13.21-5.22-12.33-.05-24.66.06-36.99-.04-2.52.06-5.19-.13-7.55.94m65.81 4.21c-.77.91-1.56 1.81-2.35 2.7 6.5 3.68 12.4 8.38 19.1 11.67.69-.86 1.34-1.76 2.06-2.61-6.23-3.99-12.3-8.24-18.81-11.76m1.79 8.33c-.28.84-.56 1.68-.83 2.53 4.61 2.51 8.88 5.65 13.7 7.78-.07-.73-.2-2.18-.26-2.91-4.27-2.36-8.18-5.34-12.61-7.4z"></path><path d="M30.95 8.2c9.36-.06 18.72.03 28.08-.06 2.8.06 5.89-.2 8.29 1.52 3.43 2.56 4.91 6.77 6.48 10.58-9.66.21-19.62.96-28.98-1.97-5.6-1.77-9.76-6.11-13.87-10.07m7.96 3.21c8.41 6.55 19.76 5.9 29.82 5.62-1.25-2.38-2.76-5.55-5.9-5.55-7.97-.27-15.95-.04-23.92-.07zM10.84 24.04c2.91.03 5.86 1.02 7.58 3.5 10.45 13.58 20.69 27.32 31.09 40.94 1.32 1.4 2.71 3.98 5.02 3.03 4.63-3.77 7.34-9.31 11.18-13.81 5.33-6.4 9.88-13.41 15.21-19.8 1.7-2.37 4.55-2.94 7.31-2.87-.8 3.44-3.24 6.04-5.31 8.76-6.13 8.24-12.36 16.39-18.6 24.54-2.07 2.8-4.59 5.41-5.79 8.73-.62 2.86 1.51 5.22 3.03 7.38 8.68 11.34 17.32 22.7 25.93 34.1 2.04 2.91 5.08 5.62 4.88 9.48-3.06-.55-6.05-1.88-7.81-4.56-7.96-10.69-16.11-21.22-24.15-31.85-1.61-2.08-2.95-4.42-4.96-6.16-1.62-1.22-3.91-.59-4.88 1.13a5702.92 5702.92 0 00-27.59 36.41c-1.91 2.8-4.95 4.47-8.25 5.01.15-2.2.74-4.36 2.26-6.01 9.74-12.31 18.84-25.12 28.6-37.42 1.15-1.54 2.35-3.12 2.99-4.96.69-2.28-.65-4.44-1.93-6.21-11.1-14.6-22.1-29.26-33.28-43.8-1.34-1.6-2.05-3.56-2.53-5.56z"></path></g><path d="M16.45 5.47c2.36-1.07 5.03-.88 7.55-.94 12.33.1 24.66-.01 36.99.04 4.74.11 10.26 1.1 13.21 5.22 2.29 4 3.17 9 7.09 11.91 5.69 4.13 11.99 7.34 17.95 11.06 2.47 1.5 4.28 4.22 4.07 7.19.02 27.02-.03 54.04.02 81.05-.05 3.81.3 7.75-.91 11.43-1.36 1.48-3.58.98-5.36 1.17-29.29-.1-58.58.11-87.86-.1-2.66.41-3.9-2.33-3.74-4.59.23-34.63.04-69.27.1-103.9-.14-5.73 3.66-10.32 6.57-14.88 1.23-1.71 2.32-3.74 4.32-4.66m14.5 2.73c4.11 3.96 8.27 8.3 13.87 10.07 9.36 2.93 19.32 2.18 28.98 1.97-1.57-3.81-3.05-8.02-6.48-10.58-2.4-1.72-5.49-1.46-8.29-1.52-9.36.09-18.72 0-28.08.06m5.62 9.53c1.76 4.03 6.96 4.54 10.63 6.06 9.24.61 18.55.08 27.81.22v-2.02c-7.68-.11-15.36-.04-23.04.01-5.55.42-10.08-3.46-15.4-4.27m-25.73 6.31c.48 2 1.19 3.96 2.53 5.56 11.18 14.54 22.18 29.2 33.28 43.8 1.28 1.77 2.62 3.93 1.93 6.21-.64 1.84-1.84 3.42-2.99 4.96-9.76 12.3-18.86 25.11-28.6 37.42-1.52 1.65-2.11 3.81-2.26 6.01 3.3-.54 6.34-2.21 8.25-5.01a5702.92 5702.92 0 0127.59-36.41c.97-1.72 3.26-2.35 4.88-1.13 2.01 1.74 3.35 4.08 4.96 6.16 8.04 10.63 16.19 21.16 24.15 31.85 1.76 2.68 4.75 4.01 7.81 4.56.2-3.86-2.84-6.57-4.88-9.48-8.61-11.4-17.25-22.76-25.93-34.1-1.52-2.16-3.65-4.52-3.03-7.38 1.2-3.32 3.72-5.93 5.79-8.73 6.24-8.15 12.47-16.3 18.6-24.54 2.07-2.72 4.51-5.32 5.31-8.76-2.76-.07-5.61.5-7.31 2.87-5.33 6.39-9.88 13.4-15.21 19.8-3.84 4.5-6.55 10.04-11.18 13.81-2.31.95-3.7-1.63-5.02-3.03-10.4-13.62-20.64-27.36-31.09-40.94-1.72-2.48-4.67-3.47-7.58-3.5m80.96 7.81c.98 4.65 7.38 6.16 7.16 11.12 0 25.01-.03 50.01 0 75.02-.03 3.22.23 6.46-.22 9.65-.96 1.74-2.75 2.61-4.71 2.35-26.36-.04-52.72-.03-79.07-.01-2.75.08-5.29-1.08-7.82-1.98l.4 2.56c2.06.81 4.17 1.61 6.42 1.52 27.02-.06 54.05-.01 81.08-.02 3.24.38 6.42-2.77 5.95-6.03.03-27.36 0-54.71.02-82.07-.04-1.52.08-3.07-.31-4.55-2.43-3.05-5.18-6.11-8.9-7.56m-14.9 5.08c-6.86 9.72-14.47 18.88-21.52 28.46-1.1 1.53-1.92 3.24-2.58 5 1.4-.72 3.02-1.29 3.93-2.67 7.19-10.09 15.09-19.64 22.38-29.65.85-1.33 1.41-2.81 2-4.26-1.73.54-3.26 1.54-4.21 3.12m-24.23 48.6c1.95 4.03 4.09 8.88 8.47 10.67-1.53-4.27-3.95-9.03-8.47-10.67zM82.26 9.68c6.51 3.52 12.58 7.77 18.81 11.76-.72.85-1.37 1.75-2.06 2.61-6.7-3.29-12.6-7.99-19.1-11.67.79-.89 1.58-1.79 2.35-2.7z"></path><path d="M84.05 18.01c4.43 2.06 8.34 5.04 12.61 7.4.06.73.19 2.18.26 2.91-4.82-2.13-9.09-5.27-13.7-7.78.27-.85.55-1.69.83-2.53z"></path><g fill="#f5f5f5"><path d="M36.57 17.73c5.32.81 9.85 4.69 15.4 4.27 7.68-.05 15.36-.12 23.04-.01v2.02c-9.26-.14-18.57.39-27.81-.22-3.67-1.52-8.87-2.03-10.63-6.06zM91.8 31.85c3.72 1.45 6.47 4.51 8.9 7.56.39 1.48.27 3.03.31 4.55-.02 27.36.01 54.71-.02 82.07.47 3.26-2.71 6.41-5.95 6.03-27.03.01-54.06-.04-81.08.02-2.25.09-4.36-.71-6.42-1.52l-.4-2.56c2.53.9 5.07 2.06 7.82 1.98 26.35-.02 52.71-.03 79.07.01 1.96.26 3.75-.61 4.71-2.35.45-3.19.19-6.43.22-9.65-.03-25.01 0-50.01 0-75.02.22-4.96-6.18-6.47-7.16-11.12zm-14.9 5.08c.95-1.58 2.48-2.58 4.21-3.12-.59 1.45-1.15 2.93-2 4.26-7.29 10.01-15.19 19.56-22.38 29.65-.91 1.38-2.53 1.95-3.93 2.67.66-1.76 1.48-3.47 2.58-5 7.05-9.58 14.66-18.74 21.52-28.46z"></path><path d="M52.67 85.53c4.52 1.64 6.94 6.4 8.47 10.67-4.38-1.79-6.52-6.64-8.47-10.67z"></path></g></svg>