<svg xmlns="http://www.w3.org/2000/svg" fill="#fff" viewBox="0 0 64 64">
  <!-- 仙人掌主体 -->
  <g fill="#4CAF50">
    <!-- 主茎 -->
    <rect x="28" y="20" width="8" height="32" rx="4"/>
    <!-- 左侧分支 -->
    <rect x="20" y="28" width="8" height="16" rx="4"/>
    <!-- 右侧分支 -->
    <rect x="36" y="32" width="8" height="12" rx="4"/>
    <!-- 顶部小分支 -->
    <rect x="30" y="16" width="4" height="8" rx="2"/>
  </g>
  
  <!-- 刺 -->
  <g fill="#2E7D32">
    <circle cx="30" cy="24" r="1"/>
    <circle cx="34" cy="28" r="1"/>
    <circle cx="32" cy="36" r="1"/>
    <circle cx="28" cy="40" r="1"/>
    <circle cx="24" cy="32" r="1"/>
    <circle cx="40" cy="36" r="1"/>
  </g>
  
  <!-- 水面 -->
  <g fill="#2196F3" opacity="0.7">
    <rect x="0" y="48" width="64" height="16"/>
    <!-- 水波纹 -->
    <path d="M0 52 Q16 48 32 52 T64 52" stroke="#1976D2" stroke-width="2" fill="none"/>
    <path d="M0 56 Q16 52 32 56 T64 56" stroke="#1976D2" stroke-width="2" fill="none"/>
    <path d="M0 60 Q16 56 32 60 T64 60" stroke="#1976D2" stroke-width="2" fill="none"/>
  </g>
  
  <!-- 气泡 -->
  <g fill="#E3F2FD" opacity="0.8">
    <circle cx="12" cy="44" r="2"/>
    <circle cx="24" cy="42" r="1.5"/>
    <circle cx="40" cy="46" r="1"/>
    <circle cx="52" cy="44" r="2"/>
  </g>
</svg>