<svg xmlns="http://www.w3.org/2000/svg" fill="#fff" viewBox="0 0 64 64">
  <!-- 仙人掌主体 -->
  <g fill="#FFD700">
    <!-- 主茎 -->
    <rect x="28" y="20" width="8" height="32" rx="4"/>
    <!-- 左侧分支 -->
    <rect x="20" y="28" width="8" height="16" rx="4"/>
    <!-- 右侧分支 -->
    <rect x="36" y="32" width="8" height="12" rx="4"/>
    <!-- 顶部小分支 -->
    <rect x="30" y="16" width="4" height="8" rx="2"/>
  </g>
  
  <!-- 金色刺 -->
  <g fill="#FFA000">
    <circle cx="30" cy="24" r="1"/>
    <circle cx="34" cy="28" r="1"/>
    <circle cx="32" cy="36" r="1"/>
    <circle cx="28" cy="40" r="1"/>
    <circle cx="24" cy="32" r="1"/>
    <circle cx="40" cy="36" r="1"/>
  </g>
  
  <!-- 金色光芒 -->
  <g fill="#FFD700" opacity="0.6">
    <rect x="26" y="8" width="12" height="2" rx="1"/>
    <rect x="26" y="12" width="12" height="2" rx="1"/>
    <rect x="8" y="26" width="2" height="12" rx="1"/>
    <rect x="12" y="26" width="2" height="12" rx="1"/>
    <rect x="50" y="26" width="2" height="12" rx="1"/>
    <rect x="54" y="26" width="2" height="12" rx="1"/>
  </g>
  
  <!-- 地面 -->
  <rect x="0" y="52" width="64" height="12" fill="#8D6E63"/>
  
  <!-- 地面纹理 -->
  <g fill="#5D4037">
    <rect x="8" y="56" width="4" height="2"/>
    <rect x="16" y="58" width="3" height="2"/>
    <rect x="24" y="56" width="5" height="2"/>
    <rect x="32" y="58" width="4" height="2"/>
    <rect x="40" y="56" width="3" height="2"/>
    <rect x="48" y="58" width="4" height="2"/>
  </g>
</svg>