<svg xmlns="http://www.w3.org/2000/svg" viewBox="0 0 24 24" width="24" height="24">
  <defs>
    <linearGradient id="waterGradient" x1="0%" y1="0%" x2="100%" y2="100%">
      <stop offset="0%" style="stop-color:#4FC3F7;stop-opacity:1" />
      <stop offset="100%" style="stop-color:#29B6F6;stop-opacity:1" />
    </linearGradient>
    <linearGradient id="waterBg" x1="0%" y1="0%" x2="100%" y2="100%">
      <stop offset="0%" style="stop-color:#81D4FA;stop-opacity:0.3" />
      <stop offset="100%" style="stop-color:#4FC3F7;stop-opacity:0.5" />
    </linearGradient>
  </defs>
  <!-- 水背景 -->
  <ellipse cx="12" cy="20" rx="10" ry="4" fill="url(#waterBg)"/>
  <!-- 仙人掌主体 -->
  <ellipse cx="12" cy="16" rx="6" ry="8" fill="url(#waterGradient)" stroke="#0277BD" stroke-width="1"/>
  <!-- 仙人掌顶部 -->
  <ellipse cx="12" cy="8" rx="4" ry="6" fill="url(#waterGradient)" stroke="#0277BD" stroke-width="1"/>
  <!-- 仙人掌刺 -->
  <circle cx="8" cy="10" r="0.5" fill="#0277BD"/>
  <circle cx="16" cy="10" r="0.5" fill="#0277BD"/>
  <circle cx="10" cy="14" r="0.5" fill="#0277BD"/>
  <circle cx="14" cy="14" r="0.5" fill="#0277BD"/>
  <circle cx="9" cy="18" r="0.5" fill="#0277BD"/>
  <circle cx="15" cy="18" r="0.5" fill="#0277BD"/>
  <!-- 水波纹 -->
  <path d="M2 20 Q6 18 10 20 T18 20 T24 20" stroke="#81D4FA" stroke-width="1" fill="none" opacity="0.6"/>
  <path d="M0 22 Q4 20 8 22 T16 22 T24 22" stroke="#81D4FA" stroke-width="1" fill="none" opacity="0.4"/>
</svg>
