<svg xmlns="http://www.w3.org/2000/svg" viewBox="0 0 24 32" width="24" height="32">
  <defs>
    <linearGradient id="specialGradient" x1="0%" y1="0%" x2="100%" y2="100%">
      <stop offset="0%" style="stop-color:#FFD700;stop-opacity:1" />
      <stop offset="50%" style="stop-color:#FFA000;stop-opacity:1" />
      <stop offset="100%" style="stop-color:#FF8F00;stop-opacity:1" />
    </linearGradient>
    <radialGradient id="glowGradient" cx="50%" cy="50%" r="50%">
      <stop offset="0%" style="stop-color:#FFF59D;stop-opacity:0.8" />
      <stop offset="100%" style="stop-color:#FFD700;stop-opacity:0.3" />
    </radialGradient>
  </defs>
  <!-- 发光效果 -->
  <ellipse cx="12" cy="12" rx="12" ry="12" fill="url(#glowGradient)" opacity="0.6"/>
  <!-- 仙人掌主体 -->
  <ellipse cx="12" cy="16" rx="6" ry="8" fill="url(#specialGradient)" stroke="#E65100" stroke-width="1.5"/>
  <!-- 仙人掌顶部 -->
  <ellipse cx="12" cy="8" rx="4" ry="6" fill="url(#specialGradient)" stroke="#E65100" stroke-width="1.5"/>
  <!-- 仙人掌刺 -->
  <circle cx="8" cy="10" r="0.5" fill="#E65100"/>
  <circle cx="16" cy="10" r="0.5" fill="#E65100"/>
  <circle cx="10" cy="14" r="0.5" fill="#E65100"/>
  <circle cx="14" cy="14" r="0.5" fill="#E65100"/>
  <circle cx="9" cy="18" r="0.5" fill="#E65100"/>
  <circle cx="15" cy="18" r="0.5" fill="#E65100"/>
  <!-- 金色装饰 -->
  <circle cx="12" cy="6" r="1" fill="#FFD700"/>
  <circle cx="10" cy="8" r="0.5" fill="#FFD700"/>
  <circle cx="14" cy="8" r="0.5" fill="#FFD700"/>
  <!-- 地面 -->
  <ellipse cx="12" cy="22" rx="8" ry="2" fill="#8D6E63" opacity="0.7"/>
  <!-- 星期几显示区域 -->
  <rect x="2" y="24" width="20" height="8" fill="#2C2C2C" stroke="#FFD700" stroke-width="0.5" rx="2"/>
  <!-- 星期几文字（按横坐标递增：日、一、二、三、四、五、六） -->
  <text x="3" y="29" font-family="Arial, sans-serif" font-size="4" fill="#FFD700" text-anchor="start">日</text>
  <text x="6" y="29" font-family="Arial, sans-serif" font-size="4" fill="#FFD700" text-anchor="start">一</text>
  <text x="9" y="29" font-family="Arial, sans-serif" font-size="4" fill="#FFD700" text-anchor="start">二</text>
  <text x="12" y="29" font-family="Arial, sans-serif" font-size="4" fill="#FFD700" text-anchor="start">三</text>
  <text x="15" y="29" font-family="Arial, sans-serif" font-size="4" fill="#FFD700" text-anchor="start">四</text>
  <text x="18" y="29" font-family="Arial, sans-serif" font-size="4" fill="#FFD700" text-anchor="start">五</text>
  <text x="21" y="29" font-family="Arial, sans-serif" font-size="4" fill="#FFD700" text-anchor="start">六</text>
</svg>
