<svg data-v-ea210746="" viewBox="0 0 128 80" xmlns="http://www.w3.org/2000/svg" fill="#7e7f7e" class="ui-icon max-h-full w-full" style="fill: rgb(240, 153, 153); opacity: 1;"><path fill="#000" d="M110.18 3.09c3.75-1.33 7.66.4 9.26 4 1.8.12 3.61.24 5.42.38.37 3.73.39 7.49.03 11.22-1.36.16-2.71.31-4.06.46-.01 3.22-.09 6.51-1.39 9.52-2.43.25-4.86.45-7.29.6-.46 1.83.15 4.91-2.3 5.42-11.53.66-23.13-.32-34.66.51-.84 4.06 1.51 9.8-2.71 12.4-8.82.89-17.76-.17-26.61.47-2.44.35-4.62 2.1-5.32 4.49-2.22 6.92-3.96 13.99-6.09 20.93-.48 1.59-1.48 3.52-3.44 3.36-8.01.19-16.04.14-24.05.01-2.5.13-5.06-1.96-4.69-4.6.91-7.49 1.05-15.44 4.87-22.18 2.08-4.13 5.19-7.69 6.99-11.96 1.42-4.02-2.57-7.44-6.2-8.04-2.16-.4-5.52-1.89-4.55-4.63 1.51-1.96 3.9-2.92 5.91-4.27-2.77-2.79-7.37-6.09-5.68-10.59 1.84-3.14 6.01-1.12 8.5.06 2.98-.97 5.33-3.21 8.28-4.2 5.18-.71 10.43-.09 15.64-.24 8 .18 16.08-.63 23.99.93 16.78.2 33.57 0 50.35.09-.07-1.38-.13-2.76-.2-4.14m3.97 3c-1.49 3 3.34.09 0 0m-96.19 5.42c11.21.02 22.42-.28 33.63.01 1.33-.04 3.17.5 3.67-1.21-1.54-1.9-4.16-1.28-6.29-1.45-8.66.11-17.33-.13-25.99.13-2.03-.14-3.55 1.36-5.02 2.52m94.94-1.44l.2 2.12c-.7.74-1.4 1.47-2.11 2.19-.01 1.68-.03 3.36-.05 5.04 2.12 0 4.25-.02 6.37-.06.03-2.55.04-5.1.07-7.65-.06-.5-.19-1.5-.26-2-1.41.13-2.82.25-4.22.36m-56.13.46c.34.3 1.01.91 1.35 1.21 15.64.27 31.29-.02 46.93.15 2.24-.02 4.66.19 6.59-1.19-18.27-.54-36.58-.19-54.87-.17m62.68 5.2c.65-.02 1.94-.08 2.59-.1-.02-2.03-.02-4.06-.05-6.09-3.33.09-2.04 4.02-2.54 6.19M5.58 12.11c2.15 2.58 4.12 7.34 8.28 5.91-.38-.32-1.16-.94-1.55-1.25.5-.63 1.48-1.88 1.97-2.51-2.06-.18-4.07-.67-5.94-1.58l-.12-.73-2.64.16m10.97 2c-.84 2.06-1.68 4.12-2.49 6.19 3.52-.95 5.97-3.65 8.3-6.27-1.94.03-3.87.06-5.81.08m8.87-.03c-1.85 1.82-3.68 3.65-5.47 5.52 1.65-.06 3.29-.21 4.92-.44 2.2-1.25 3.72-3.37 5.49-5.13-1.65.02-3.3.04-4.94.05m7.99-.01c-1.77 1.82-3.54 3.63-5.29 5.47l4.62.18c1.91-1.87 3.78-3.77 5.64-5.68l-4.97.03m6.07 1.91h-.08c-1.2 1.27-2.41 2.53-3.63 3.78 24.28-.27 48.56 0 72.84-.14.04-1.22.08-2.44.11-3.65 1.61-2.79-2.13-1.74-3.72-2-20.69.03-41.38-.02-62.06.02-1.58-.34-2.41 1.13-3.46 1.99M6.86 26.74c3.14.62 6.3 1.19 9.48 1.54-.69-2.24-1.27-4.51-1.81-6.79-2.64 1.63-5.05 3.59-7.67 5.25m9.87-4.99c.42 2.55 1.07 5.41 4.13 5.82 2.39-1.51 5.07-2.44 7.8-3.15.08-.68.22-2.05.29-2.73-4.07 0-8.15 0-12.22.06m14.63.22c-.39 1.42-.79 2.84-1.18 4.26-2.1.51-4.2.99-6.31 1.47 7.26.5 14.53.15 21.8.25.51-1.98.99-3.98 1.47-5.97-5.26-.02-10.52-.02-15.78-.01m17.61-.02c-.02.5-.05 1.5-.07 2-.34 1.26-.67 2.53-1.01 3.8 20.28.21 40.55.02 60.82.11-.03-1.29-.06-2.59-.08-3.89l.6-.81-.41-1.11c-19.94-.3-39.9-.08-59.85-.1m61.49 2.53c2.37.04 4.74.04 7.11 0-.14-.66-.41-1.98-.55-2.63-2.48.23-6.48-1.12-6.56 2.63m-95.74 5.35c.46.64 1.39 1.92 1.85 2.56l.79-.16c1.69 6.58-2.78 12.02-6.08 17.19-4.76 7.09-5.17 15.96-5.54 24.22 8.41.12 16.83.4 25.24 0 2.48-7.61 4.26-15.43 6.8-23.01 1.65-2.96 4.57-5.83 8.21-5.68 8.37-.08 16.74-.09 25.11.08 1.81-4.21-1.48-11.22 4.06-13.2 9.26-.5 18.57-.09 27.84-.16 2.19-.14 4.81.51 6.48-1.31-13.8-.7-27.65.04-41.46-.48 3.22 3.12 3 7.85 2.31 11.94-.29 1.43-1.8 2.37-3.22 2.17-6.95.06-13.91-.13-20.86.03-.99-1.32-2.13-2.57-2.87-4.06-.63-2.66.17-5.35.96-7.87h.63l-.04-2.11c-2.76 0-5.52 0-8.27.01.45.53 1.37 1.57 1.83 2.09 1.2 3.14-1.14 5.75-2.16 8.54-.58 2.89.04 5.91-.61 8.79-.71 1.76-1.56 3.45-2.42 5.14-.83 2.45-1.91 4.81-3.15 7.08-.07.45-.22 1.34-.29 1.79-1.34 2.55-2.64 5.12-4.04 7.64-4.46-.09-8.94.29-13.38-.14-1.06-.69-1.55-1.64-1.49-2.86-.12-2.95-.24-6.1 1.32-8.73 2.94-5.62 5.63-11.37 8.64-16.96.13-3.59.25-7.28-1.14-10.67l.83-.2c-1.64-1.49-3.79-1.59-5.88-1.67m7.28.2l-.04 2.06c.28.42.85 1.24 1.14 1.66-.1 3.28.37 6.67-.47 9.88-2.79 6.1-6.08 11.97-8.96 18.04-.98 1.94-.63 4.21-.82 6.31 3.99-.05 7.98-.06 11.97.04 1.05-1.85 2.08-3.72 3.11-5.58.05-.47.13-1.42.17-1.9.96-1.7 1.84-3.44 2.81-5.14.05-.45.17-1.36.23-1.81 1.75-2.91 3.33-6.06 2.88-9.58-.48-3.47 1.01-6.61 2.78-9.48-.4-.86-.8-1.71-1.2-2.56h-.09c-.51-.46-1.51-1.39-2.02-1.85-3.81-.35-7.66-.07-11.49-.09m28.25 1.43c-.16 2.97.61 5.81 2.19 8.31-.04-2.7-.16-5.41-.26-8.11l-1.93-.2m5.03 1.31c.31 3.15 1.12 6.21 2.07 9.22 3.32.02 6.66-.03 9.95-.56-.47-2.71 1.34-6.72-1.43-8.44-3.51-.44-7.06-.17-10.59-.22M47 39.96c1.2 1 2.61 1.69 3.93 2.5-1.97-2.3-3.47-4.93-4.61-7.72.24 1.73.01 3.6.68 5.22z"></path><path d="M114.15 6.09c3.34.09-1.49 3 0 0zM5.58 12.11l2.64-.16.12.73.56 3.17c1.14.28 2.28.58 3.41.92.39.31 1.17.93 1.55 1.25-4.16 1.43-6.13-3.33-8.28-5.91z" fill="#464746"></path><path d="M17.96 11.51c1.47-1.16 2.99-2.66 5.02-2.52 8.66-.26 17.33-.02 25.99-.13 2.13.17 4.75-.45 6.29 1.45-.5 1.71-2.34 1.17-3.67 1.21-11.21-.29-22.42.01-33.63-.01zm94.94-1.44c1.4-.11 2.81-.23 4.22-.36.07.5.2 1.5.26 2-1.43.15-2.86.31-4.28.48l-.2-2.12zM8.34 12.68c1.87.91 3.88 1.4 5.94 1.58-.49.63-1.47 1.88-1.97 2.51-1.13-.34-2.27-.64-3.41-.92l-.56-3.17zm31.14 3.3c1.05-.86 1.88-2.33 3.46-1.99 20.68-.04 41.37.01 62.06-.02 1.59.26 5.33-.79 3.72 2-23.08.17-46.16.11-69.24.01zm9.49 5.97c19.95.02 39.91-.2 59.85.1l.41 1.11-.6.81c-19.91.17-39.82.17-59.73-.02.02-.5.05-1.5.07-2zm61.49 2.53c.08-3.75 4.08-2.4 6.56-2.63.14.65.41 1.97.55 2.63-2.37.04-4.74.04-7.11 0zm-95.74 5.35c2.09.08 4.24.18 5.88 1.67l-.83.2c-.6.13-1.81.39-2.41.53l-.79.16c-.46-.64-1.39-1.92-1.85-2.56zm7.28.2c3.83.02 7.68-.26 11.49.09.51.46 1.51 1.39 2.02 1.85-4.52.12-9.04.09-13.55.12l.04-2.06zm14.66-.04c2.75-.01 5.51-.01 8.27-.01l.04 2.11h-.63c-1.95-.03-3.9-.03-5.85-.01-.46-.52-1.38-1.56-1.83-2.09z" fill="#ececec"></path><path d="M56.77 10.53c18.29-.02 36.6-.37 54.87.17-1.93 1.38-4.35 1.17-6.59 1.19-15.64-.17-31.29.12-46.93-.15-.34-.3-1.01-.91-1.35-1.21zm62.68 5.2c.5-2.17-.79-6.1 2.54-6.19.03 2.03.03 4.06.05 6.09-.65.02-1.94.08-2.59.1zm-6.35-3.54c1.42-.17 2.85-.33 4.28-.48-.03 2.55-.04 5.1-.07 7.65-2.12.04-4.25.06-6.37.06.02-1.68.04-3.36.05-5.04.71-.72 1.41-1.45 2.11-2.19zm-96.55 1.92c1.94-.02 3.87-.05 5.81-.08-2.33 2.62-4.78 5.32-8.3 6.27.81-2.07 1.65-4.13 2.49-6.19zm8.87-.03c1.64-.01 3.29-.03 4.94-.05-1.77 1.76-3.29 3.88-5.49 5.13-1.63.23-3.27.38-4.92.44 1.79-1.87 3.62-3.7 5.47-5.52zm7.99-.01l4.97-.03a335.48 335.48 0 01-5.64 5.68l-4.62-.18c1.75-1.84 3.52-3.65 5.29-5.47zm5.99 1.91h.08c23.08.1 46.16.16 69.24-.01-.03 1.21-.07 2.43-.11 3.65-24.28.14-48.56-.13-72.84.14 1.22-1.25 2.43-2.51 3.63-3.78zM6.86 26.74c2.62-1.66 5.03-3.62 7.67-5.25.54 2.28 1.12 4.55 1.81 6.79-3.18-.35-6.34-.92-9.48-1.54zm9.87-4.99c4.07-.06 8.15-.06 12.22-.06-.07.68-.21 2.05-.29 2.73-2.73.71-5.41 1.64-7.8 3.15-3.06-.41-3.71-3.27-4.13-5.82z"></path><path d="M31.36 21.97c5.26-.01 10.52-.01 15.78.01-.48 1.99-.96 3.99-1.47 5.97-7.27-.1-14.54.25-21.8-.25 2.11-.48 4.21-.96 6.31-1.47.39-1.42.79-2.84 1.18-4.26zm17.54 1.98c19.91.19 39.82.19 59.73.02.02 1.3.05 2.6.08 3.89-20.27-.09-40.54.1-60.82-.11.34-1.27.67-2.54 1.01-3.8zm19.12 5.93c13.81.52 27.66-.22 41.46.48-1.67 1.82-4.29 1.17-6.48 1.31-9.27.07-18.58-.34-27.84.16-5.54 1.98-2.25 8.99-4.06 13.2-8.37-.17-16.74-.16-25.11-.08-3.64-.15-6.56 2.72-8.21 5.68-2.54 7.58-4.32 15.4-6.8 23.01-8.41.4-16.83.12-25.24 0 .37-8.26.78-17.13 5.54-24.22 3.3-5.17 7.77-10.61 6.08-17.19.6-.14 1.81-.4 2.41-.53 1.39 3.39 1.27 7.08 1.14 10.67-3.01 5.59-5.7 11.34-8.64 16.96-1.56 2.63-1.44 5.78-1.32 8.73-.06 1.22.43 2.17 1.49 2.86 4.44.43 8.92.05 13.38.14 1.4-2.52 2.7-5.09 4.04-7.64.07-.45.22-1.34.29-1.79 1.24-2.27 2.32-4.63 3.15-7.08.86-1.69 1.71-3.38 2.42-5.14.65-2.88.03-5.9.61-8.79 1.02-2.79 3.36-5.4 2.16-8.54 1.95-.02 3.9-.02 5.85.01-.79 2.52-1.59 5.21-.96 7.87.74 1.49 1.88 2.74 2.87 4.06 6.95-.16 13.91.03 20.86-.03 1.42.2 2.93-.74 3.22-2.17.69-4.09.91-8.82-2.31-11.94z"></path><path d="M50.25 31.46l1.93.2c.1 2.7.22 5.41.26 8.11-1.58-2.5-2.35-5.34-2.19-8.31zm-28.29.63c4.51-.03 9.03 0 13.55-.12h.09c.4.85.8 1.7 1.2 2.56-1.77 2.87-3.26 6.01-2.78 9.48.45 3.52-1.13 6.67-2.88 9.58-.06.45-.18 1.36-.23 1.81-.97 1.7-1.85 3.44-2.81 5.14-.04.48-.12 1.43-.17 1.9-1.03 1.86-2.06 3.73-3.11 5.58-3.99-.1-7.98-.09-11.97-.04.19-2.1-.16-4.37.82-6.31 2.88-6.07 6.17-11.94 8.96-18.04.84-3.21.37-6.6.47-9.88-.29-.42-.86-1.24-1.14-1.66z"></path></svg>