<svg xmlns="http://www.w3.org/2000/svg" fill="#fff" viewBox="0 0 64 64">
   <!-- 黑色图形组 -->
   <g fill="#000">
     <!-- 外框路径1 -->
     <path d="M51.5 56.27a4.21 4.21 0 01-4.21 4.21h-30.6a4.21 4.21 0 01-4.21-4.21V7.71a4.21 4.21 0 014.21-4.21h30.6a4.21 4.21 0 014.21 4.21zM49.27 7.94a2.21 2.21 0 00-2.21-2.21H16.92a2.21 2.21 0 00-2.21 2.21v48.12a2.21 2.21 0 002.21 2.21h30.14a2.21 2.21 0 002.21-2.21z"/>
     <!-- 左侧小图形路径 -->
     <path d="M22.48 15.46l-2.23.02q-.81 0-.96.8-.29 1.59-1.83 1.57a.82.81-78.7 01-.74-1.12q1.58-3.95 2.97-8.08.25-.76.99-1.01.73-.25 1.45-.11.59.11.79.67l3.25 8.94q.24.68-.48.7-1.96.05-2.5-1.85a.75.74 81.5 00-.71-.53m-1.28-4.17q-.76 1.1-.27 2.11.36.74.79.04.62-1 .05-2.12-.26-.49-.57-.03"/>
     <!-- 旋转矩形 -->
     <rect width="13.78" height="13.86" x="-6.89" y="-6.93" rx=".59" transform="rotate(45 -22.706 54.985)"/>
     <!-- 右侧小图形路径 -->
     <path d="M40.21 53.56l-.43.95q-.23.51-.79.5l-1.21-.03q-.53-.01-.35-.51l3.31-8.96q.2-.53.77-.52l1.4.03q.66.01.88.64l3.1 8.69q.18.51-.35.63-2.12.48-2.52-1.42-.14-.63-.79-.61l-2.2.06q-.58.02-.82.55m1.88-4.38q-.67.53-.75 1.27-.05.5.45.52l.77.03a.44.44 0 00.44-.57l-.5-1.69q-.14-.44-.23.14-.03.18-.18.3"/>
   </g>
   <!-- 白色路径组 -->
   <!-- 内框及交叉线路径 -->
   <path d="M49.27 56.06a2.21 2.21 0 01-2.21 2.21H16.92a2.21 2.21 0 01-2.21-2.21V7.94a2.21 2.21 0 012.21-2.21h30.14a2.21 2.21 0 012.21 2.21zM23.19 15.99q.54 1.9 2.5 1.85.72-.02.48-.7L22.92 8.2q-.2-.56-.79-.67-.72-.14-1.45.11-.74.25-.99 1.01-1.39 4.13-2.97 8.08a.82.81-78.7 00.74 1.12q1.54.02 1.83-1.57.15-.8.96-.8l2.23-.02a.75.74 81.5 01.71.53m18.395 16.559a.59.59 0 000-.834l-8.91-8.91a.59.59 0 00-.834 0l-8.966 8.966a.59.59 0 000 .834l8.91 8.91a.59.59 0 00.834 0zM41.03 53.01l2.2-.06q.65-.02.79.61.4 1.9 2.52 1.42.53-.12.35-.63l-3.1-8.69q-.22-.63-.88-.64l-1.4-.03q-.57-.01-.77.52l-3.31 8.96q-.18.5.35.51l1.21.03q.56.01.79-.5l.43-.95q.24-.53.82-.55"/>
   <!-- 补充白色细节路径 -->
   <path d="M21.2 11.29q.31-.46.57.03.57 1.12-.05 2.12-.43.7-.79-.04-.49-1.01.27-2.11m20.89 37.89q.15-.12.18-.3.09-.58.23-.14l.5 1.69a.44.44 0 01-.44.57l-.77-.03q-.5-.02-.45-.52.08-.74.75-1.27"/>
 </svg>