<svg data-v-ea210746="" xmlns="http://www.w3.org/2000/svg" viewBox="0 0 64 64" fill="#fff" class="ui-icon max-h-full w-full" style="fill: rgb(155, 155, 155); opacity: 1;"><path d="M27.36 59.62Q9.41 49.85 9.72 29.18q.11-7.35.06-15.14a2.22 2.21-.3 012.21-2.22q10.46-.01 17.94-8.09c1.51-1.63 3.37-.88 4.64.48q7.08 7.54 17.48 7.62a2.16 2.16 0 012.14 2.14q.09 8.14.07 15.61-.05 23.14-21.64 31.73-.43.17-.87.06-2.23-.58-4.39-1.75zm4.02-53.88c-4.93 5.03-11.67 8.35-18.78 8.25q-.59 0-.6.59-.1 8.91.11 17.99c.26 11.12 6.57 19.25 15.94 24.87q3.36 2.02 5.42 1.14 2.51-1.07 5.05-2.78 13.86-9.33 13.53-26.51-.15-7.96.02-14.59.02-.65-.63-.66-10.88-.15-18.78-8.29a.9.89 45.2 00-1.28-.01z"></path><path fill="#000" d="M12.6 13.99c7.11.1 13.85-3.22 18.78-8.25a.9.89 45.2 011.28.01q7.9 8.14 18.78 8.29.65.01.63.66-.17 6.63-.02 14.59.33 17.18-13.53 26.51-2.54 1.71-5.05 2.78-2.06.88-5.42-1.14c-9.37-5.62-15.68-13.75-15.94-24.87q-.21-9.08-.11-17.99.01-.59.6-.59zm23.44 13.52a.36.36 0 01-.35-.25l-3.35-10.51a.36.36 0 00-.68 0l-3.35 10.51a.36.36 0 01-.35.25l-11.04-.06a.36.36 0 00-.21.65l8.97 6.44a.36.36 0 01.13.41l-3.47 10.47a.36.36 0 00.55.41l8.9-6.54a.36.36 0 01.42 0l8.9 6.54a.36.36 0 00.55-.41l-3.47-10.47a.36.36 0 01.13-.41l8.97-6.44a.36.36 0 00-.21-.65l-11.04.06z"></path><path d="M36.04 27.51l11.04-.06a.36.36 0 01.21.65l-8.97 6.44a.36.36 0 00-.13.41l3.47 10.47a.36.36 0 01-.55.41l-8.9-6.54a.36.36 0 00-.42 0l-8.9 6.54a.36.36 0 01-.55-.41l3.47-10.47a.36.36 0 00-.13-.41l-8.97-6.44a.36.36 0 01.21-.65l11.04.06a.36.36 0 00.35-.25l3.35-10.51a.36.36 0 01.68 0l3.35 10.51a.36.36 0 00.35.25z"></path></svg>