<svg data-v-ea210746="" viewBox="0 0 455 97" xmlns="http://www.w3.org/2000/svg" fill="#7d7e7d" class="ui-icon max-h-full absolute left-1/2 top-1/2 -translate-x-1/2 -translate-y-1/2 z-[201] w-[70%]" style="fill: rgb(192, 179, 239); opacity: 1;"><g fill="#000"><path d="M185.44 2.36c6-.24 12.01-.23 18.01.01.27 1.57.52 3.14.78 4.71 75.57-.01 151.15.03 226.72-.06.94-1.54.96-4.31 3.11-4.64 3.6-.31 7.25-.33 10.86-.01 1.96.48 1.47 3.08 1.82 4.62 2.54.97 5.65 2 6.35 5.02.78 3.69.58 7.57.23 11.31-.95 1.96-3.36 1.2-5.08 1.46-.02 4.5.04 9.01-.14 13.51-3.83.67-7.73.5-11.6.43-.48 1.57.52 4.19-1.45 4.93-4.18.44-8.41.19-12.6-.1-.15-1.6-.3-3.19-.42-4.79-5.9.02-11.81-.07-17.71.06-.84 1.59-1.23 3.81-3.13 4.5-4.82 1.93-9.99 3.14-15.2 3.14-27.65-.02-55.3-.02-82.96 0-2.17.05-4.23-.64-6.27-1.28a59.71 59.71 0 01-1.42-6.47c-12.4.12-24.81-.02-37.21.08-.51 1.42-1.34 3.1-3.15 2.89-16.3.26-32.64-.28-48.93.25-4.4 7.11-5.29 17.38-13.4 21.58-9.41 1.31-19.01-.2-28.46.66-2.48.13-3.4 2.67-4.42 4.52-2.85 5.87-5.9 11.65-8.7 17.54 1.98 3.52.09 7.52-3.1 9.54-2.13.07-4.1-.92-6.07-1.59-6.3-2.45-12.72-4.57-18.95-7.17-2.77-.99-3.58-4.64-1.83-6.9 7.84-11.55 16.01-22.89 23.89-34.42-.17-.68-.5-2.03-.66-2.71-3.75 4.6-10.14 3.12-15.32 3.42-3.41.27-7.06-.28-9.13-3.3-2.93-.1-5.92-.47-8.82.09-1.71 1.17-3 3.22-5.22 3.4-2.05.24-4.12.14-6.17.14-.32 1.87.29 4.24-1.21 5.72-6.53 1.16-13.77-1.36-19.81 2.23-16.33 8.67-30.31 20.93-45.15 31.82-5.23 3.63-10.45 8.98-17.42 7.95-4.64.14-7.73-4.3-8.22-8.5-.7-5.63-.15-11.32-.31-16.98-.15-5.56.67-11.48-1.83-16.66-1.66-3.7-4.56-7.06-4.61-11.29-.05-4.36-.07-8.72.05-13.08.05-3.2 2.15-6.77 5.67-6.87 5.82-.19 11.71-.39 17.5.22.29.52.86 1.57 1.15 2.09 18.66.07 37.32-.07 55.98.07.22-.57.67-1.71.9-2.28 4.56-.35 9.15-.24 13.71-.04 1.36 1.29 2.68 3.08 4.83 2.69 7.09-.04 14.2.21 21.28-.21 1.66-2.54 2.93-5.72 5.75-7.19 6.1-1.59 12.57.33 18.69-1.03 11.88-5.6 25.03-8.21 38.13-8.33.22-1.57.44-3.13.67-4.7m2.8 3c-.03.72-.09 2.17-.11 2.9 4.26.05 8.53.04 12.79.02-.06-.67-.19-2.02-.25-2.7-4.15-.11-8.29-.22-12.43-.22m246.92.03c-.36.98-.72 1.96-1.06 2.93 3-.04 6-.02 9.01.07.01-1.01.01-2.02.02-3.02-2.66.02-5.32.03-7.97.02M148.3 18.47c-.21 4.48-.07 9.02-.36 13.52.01 4.5 5.29 6.24 9.04 6.08 32.31-.04 64.63 0 96.95-.02.14-9.26-.05-18.52-.02-27.77-24.66-.02-49.32.01-73.98.18-10.81.92-22.07 2.61-31.63 8.01m108.29-8.04c.11 3.66.12 7.33.16 11 15.16-.02 30.31.13 45.46-.08 2.17-1.89 4.93-2.91 7.82-2.75 26.68.01 53.35-.06 80.02.03 5.62-.36 10.5 3.47 16.11 2.7-.02-3.69-.03-7.38-.24-11.07-49.78.13-99.56-.2-149.33.17m168.76-.23c0 3.61-.01 7.22-.07 10.83 8.32.47 16.66.36 24.99.27.02-2.16.06-4.32.14-6.48l-.46-.18c.43-1.74-.5-2.92-1.92-3.71-7.49-1.17-15.14.05-22.68-.73M408.3 27.08c5 .08 10.01.03 15.02.05-.01-4.72.08-9.44-.15-14.16v-2.38c-5.03.05-10.04-.04-15.06.06.2 5.47.2 10.95.19 16.43m-278.87-7.64c-2.71 2.37-4.2 5.84-6.91 8.25.04.64.13 1.9.17 2.53-.05 3.23-.2 6.47-.01 9.69 0 1.3.67 3.27 2.26 3.17 4.38.23 8.77.19 13.14-.08 2.72-.06 4.07-3.68 6.94-3.04 2.73 1.65 4.26 5.43 2.21 8.21-7.89 11.83-16.55 23.16-24.14 35.18 6.31 3.23 13.25 4.97 19.79 7.69 1.63.56 4.24 2.01 5.27-.19 1.31-1.81-1.59-3.9-.2-5.75 2.93-6.1 6.12-12.06 9.05-18.16 1.3-2.76 3.52-5.71 6.84-5.89 8.41-.4 16.85.08 25.27-.17 3.09-.09 5.51-2.45 6.9-5.02 2.67-4.69 4.31-9.87 6.52-14.78-15.96-.26-31.93.19-47.89-.19-3.43-1.46-7.62-2.93-8.69-6.96-.65-4.92-.07-9.92-.25-14.88-5.41.34-10.96-.71-16.27.39m169.33 13.5c4.41.04 8.81.04 13.22.03.02-2.91.03-5.83-.01-8.74.08-.26.23-.78.31-1.04-1.13-.96-2.26-1.91-3.39-2.86-5.37 1.73-10.59 6.54-10.13 12.61m79.83-11.76c-.19 1.17-.39 2.34-.58 3.51-.02 2.76 0 5.52.03 8.29 1.62 0 3.26 0 4.9.01.03-2.8.05-5.59.07-8.39-.07-.44-.19-1.33-.25-1.78-1.41-.52-2.79-1.07-4.17-1.64m14.14-.15c.13.37.38 1.11.51 1.48-.02.64-.04 1.93-.06 2.58-.14 2.63-.19 5.28-.19 7.92 2.71-.02 5.42-.03 8.14-.06.05-3.16.38-6.43-.55-9.5-2.24-1.72-5.17-1.96-7.85-2.42m-136.09 1.82c0 1.69.02 3.39.04 5.09-.01.53-.01 1.59-.01 2.12-.02 2.07-.02 4.15-.01 6.22 13.31.11 26.63-.12 39.94.13.12-2.13.22-4.26.28-6.4l.36-2.1c1.01-1.84 2.24-3.54 3.57-5.16-14.73.19-29.45 0-44.17.1m57.57-.32c-.05.53-.14 1.6-.19 2.14-.02 2.78-.01 5.56.03 8.34 1.98-.01 3.96-.03 5.95-.04.01-2.77.01-5.54-.02-8.31-.05-.54-.14-1.61-.18-2.14-1.87.01-3.73.01-5.59.01m8.01-.01l-.2 2.15c-.03 2.76-.03 5.53-.02 8.29l5.97.06c.02-2.79.03-5.58.02-8.37-.05-.53-.16-1.6-.21-2.14-1.86.01-3.71.01-5.56.01m8.01 0c-.05.53-.16 1.6-.22 2.14-.02 2.78-.01 5.56.02 8.33 1.98 0 3.96.01 5.95.01.02-2.78.02-5.56.01-8.34-.05-.54-.16-1.61-.21-2.14h-5.55m7.97.02c-.05.53-.14 1.59-.18 2.12-.02 2.78-.01 5.56.01 8.33 1.99-.01 3.97-.01 5.97-.02 0-2.77.01-5.54-.01-8.31-.06-.54-.17-1.62-.23-2.16-1.86.02-3.71.03-5.56.04m8.04-.02c-.06.53-.17 1.6-.23 2.13-.01 2.78 0 5.55.01 8.32h5.99c0-2.77-.01-5.53-.03-8.3l-.2-2.15h-5.54m8.01-.06l-.24 2.2c-.02 2.78-.01 5.56.02 8.34 1.98-.01 3.96-.01 5.94 0 0-2.79.01-5.59.17-8.37.13-3.39-3.82-1.72-5.89-2.17m7.98.06c-.06.54-.16 1.62-.21 2.15-.02 2.77-.01 5.54.01 8.32 1.98-.01 3.97-.01 5.96-.01.01-2.77.01-5.55 0-8.33-.05-.53-.16-1.6-.21-2.13h-5.55m8 0c-.05.53-.16 1.6-.22 2.14-.01 2.78 0 5.56.02 8.33h5.96c.01-2.78.01-5.55 0-8.33-.05-.53-.16-1.61-.21-2.14h-5.55m14.91.01c-.03.57-.07 1.71-.09 2.29-.02 2.73-.02 5.46-.01 8.19 1.97-.02 3.94-.04 5.92-.05.03-2.77.04-5.55.02-8.32-.05-.52-.14-1.58-.19-2.11h-5.65m40.25.8c.2 5.75-.23 11.49.03 17.24 2.54.03 5.08.05 7.62.09.3-4.88.15-9.76.01-14.64 0-.57.01-1.73.01-2.31-2.56-.15-5.12-.26-7.67-.38m-418.21.62c-.82.78-1.62 1.58-2.4 2.39-.69 4.45-.27 8.95-.4 13.42 30.59-.02 61.17-.04 91.76.01.13-3.72.16-7.45.2-11.18-.44-1.47.08-3.53-1.44-4.49-3.34-.3-6.71 0-10.06-.02l.44 2.29c-1.05 5.62-6.85 8.75-12.21 8.66-15.71.03-31.42.04-47.12-.02-1.64.2-2.76-1.08-3.94-1.96-.11-2.3-.25-4.6-.45-6.89.19-.52.57-1.56.77-2.08-5.05-.12-10.1.02-15.15-.13m395.77 3.48c.24 2.96.18 5.92.16 8.88 6.75-.03 13.49.03 20.24-.04-.04-1.78-.09-3.57-.16-5.35-.04-.5-.14-1.48-.19-1.98-5.73 0-11.46-.02-17.19.02.05-1.18.1-2.36.13-3.54-1.37.23-3.34-.06-2.99 2.01m31.93-1.78c.07.58.2 1.73.26 2.3.07 2.78.11 5.56.12 8.34 3.48.01 6.96.01 10.44.02 0-2.78.01-5.55.04-8.33.08-.58.25-1.73.34-2.3-3.74 0-7.47.01-11.2-.03M23.86 26.8c.42 1.87-.73 5.91 2.2 5.83 13.96.32 27.95.01 41.92.15 3.3-.06 6.71.21 9.9-.83 2.44-.83 3.76-3.22 5.28-5.12-19.76-.36-39.54-.31-59.3-.03m74.45.16c.15.89.45 2.65.61 3.53-.16.26-.47.78-.62 1.04.36 3.96.31 7.95.37 11.92 2.48-.01 4.96-.01 7.45.01.79-1.16 1.58-2.32 2.35-3.49 3.92-.3 7.86-.21 11.79-.17.03-2.61.07-5.21.02-7.82-.02-.49-.04-1.48-.06-1.98l.2-3.02c-7.37-.05-14.74-.04-22.11-.02m200.6 8.03c-.11 2.64-.06 5.29.2 7.92 3.38.27 6.77.39 10.16.13.86-.93 1.75-1.84 2.65-2.74.04-1.76.07-3.52.09-5.28-4.36.03-8.73.03-13.1-.03m15.12.01c0 2.75 0 5.49.02 8.24 1.08-.08 2.17-.17 3.27-.25.85-.9 1.71-1.79 2.58-2.67.05-1.76.1-3.52.14-5.29l-6.01-.03m8.01-.01c-.01 2.72-.01 5.44-.01 8.17 1.09-.04 2.18-.07 3.27-.11.85-.95 1.73-1.87 2.63-2.77.05-1.75.07-3.51.09-5.26l-5.98-.03m7.96.03c.01 2.73.02 5.46.06 8.19 1.07-.05 2.15-.11 3.24-.18.84-.93 1.71-1.84 2.61-2.73.06-1.76.09-3.52.12-5.28H330m8.03-.03c0 2.74 0 5.48.01 8.21l3.26-.18c.86-.93 1.73-1.83 2.62-2.73.05-1.76.08-3.51.1-5.27l-5.99-.03m7.98.02c0 2.73.01 5.47.04 8.2 1.08-.05 2.16-.11 3.25-.17.83-.95 1.69-1.85 2.61-2.72.06-1.76.09-3.52.12-5.29-2.01-.01-4.02-.01-6.02-.02m8.01-.01c0 2.73.01 5.47.03 8.2 1.08-.05 2.16-.11 3.24-.17.86-.93 1.74-1.85 2.64-2.75.04-1.76.07-3.51.09-5.27-2 0-4-.01-6-.01m8-.01c0 2.74 0 5.48.02 8.21 1.08-.05 2.17-.11 3.26-.17.84-.93 1.71-1.84 2.62-2.73.05-1.76.08-3.52.1-5.28l-6-.03m7.99.02c0 2.73.01 5.47.03 8.2l3.26-.21c.86-.9 1.73-1.81 2.62-2.7l.09-5.31c-2.01.01-4.01.01-6 .02m8.02-.02c0 2.83-.01 5.66.04 8.5 1.99-.35 3.42-1.77 4.89-3.04 0-1.81.03-3.62.06-5.42-1.67-.01-3.33-.03-4.99-.04m7.01.04c.01 2.78.02 5.55.05 8.33 2.43.12 4.26-1.34 5.89-2.94-.01-1.8.01-3.59.04-5.39h-5.98m8 0c-.01 2.48-.02 4.95-.02 7.43 2.4-.69 4.95-1.08 7.15-2.3 1.05-1.41.63-3.42.96-5.07l-8.09-.06M4.5 41.96c.12.5.37 1.49.49 1.99 1.85 4.46 5.23 8.37 5.54 13.38.41 8.56-.02 17.13.17 25.69-.08 3.06 1.52 5.73 3.16 8.17 3.08-.05 6.5.58 9.15-1.4 7.85-4.9 14.93-10.9 22.37-16.37C56.17 65.37 66.69 56.66 79 50.99c5.41-2.59 11.55-1.31 17.32-1.68.03-1.78.07-3.56.14-5.34l-.72-1.92c-30.41-.24-60.83-.07-91.24-.09z"></path><path d="M212.73 11.62c9.07-.42 18.18.01 27.26-.19 2.05.17 4.86-.51 6.11 1.62 1.96 4.65 1.09 10.27-2.35 14.01-10.13-.23-20.27-.09-30.4-.08-1.57-2.14-4.33-3.95-4.12-6.91 0-3.08-.84-8.02 3.5-8.45m-1.54 3.46c.13 2.4.06 4.83.56 7.2 2.97 1 6.18.53 9.26.62 7.88-.19 15.77.3 23.64-.26.14-3.09.27-6.24-.55-9.26-9.69.48-19.4.1-29.09.22-1.47-.15-2.64.79-3.82 1.48zm-39.95 28.07c3.11-1.08 6.51-.37 9.75-.53 3.56.22 7.68-.75 10.69 1.72 5.39 3.92 1.95 14-4.62 14.14-4.85.02-9.72.21-14.56-.14-6.75-1.54-7.5-12.47-1.26-15.19m1.77 1.56c0 .81.02 2.43.02 3.24 1.75 1.59 3.67 2.98 5.64 4.3-1.19-2.36-1.13-4.95-.79-7.5-1.62-.01-3.25-.03-4.87-.04m7.96 1.19l-.16 3.12c2.05 1.6 5.03 3.28 3.81 6.37-2.95-.21-6.19.47-8.9-1.01-2.21-1.47-3.91-3.56-5.76-5.44.38 1.89.79 3.78 1.26 5.66 5.16.86 10.45 1.22 15.66.58 3.72-.4 5.81-6.17 2.74-8.58-2.74-1.06-5.78-.6-8.65-.7zM34 46.11c2.4-1.42 5.26-1.51 7.97-1.53 5.37-.03 10.75-.02 16.12.21 1.13 1.06 2.27 2.12 3.42 3.16-.4 2.36-.79 5.04-3.09 6.33-9.16 6.27-18.69 12.01-27.83 18.32-1.79 1.11-3.81 2.79-6.06 1.95-1.22-1.94-.8-4.33-.9-6.5.09-3.73-.16-7.48.12-11.2.06-1.89 2.11-2.54 3.39-3.49 3.18-1.51 3.77-5.64 6.86-7.25m.17 4.15c-1.76 3.01-3.88 5.85-7.3 7.08-.01 4.49-.01 8.98-.01 13.47 7.28-4.16 14.04-9.19 21.21-13.56 3.64-2.65 8.23-4.38 10.55-8.48-5.86-.42-11.74-.12-17.61-.25-2.28.23-5.45-.63-6.84 1.74zm113.31 1.38c2.4-1.49 5.02.48 7.06 1.71 2.3 1.16 4.26 3.64 3.02 6.3-3.3 7.53-7.68 14.53-11.26 21.92-1.16 2.27-2.5 5.24-5.47 5.3-3.47-.78-6.81-2.22-9.9-3.96-2.09-1.17-1.78-3.88-.47-5.52 4.11-6.23 7.99-12.61 12.07-18.87 1.55-2.35 2.7-5.09 4.95-6.88m.93 1.35c-5.47 9.22-11.52 18.07-17.13 27.2 2.85 2.21 6.17 3.85 9.72 4.59 1.18-.26 1.73-1.51 2.4-2.39 3.89-6.65 6.89-13.78 10.83-20.4 1.02-1.57 1.38-3.41 1.58-5.24-2.33-1.5-4.71-2.98-7.4-3.76z"></path></g><path d="M188.24 5.36c4.14 0 8.28.11 12.43.22.06.68.19 2.03.25 2.7-4.26.02-8.53.03-12.79-.02.02-.73.08-2.18.11-2.9zm246.92.03c2.65.01 5.31 0 7.97-.02-.01 1-.01 2.01-.02 3.02-3.01-.09-6.01-.11-9.01-.07.34-.97.7-1.95 1.06-2.93zM148.3 18.47c9.56-5.4 20.82-7.09 31.63-8.01 24.66-.17 49.32-.2 73.98-.18-.03 9.25.16 18.51.02 27.77-32.32.02-64.64-.02-96.95.02-3.75.16-9.03-1.58-9.04-6.08.29-4.5.15-9.04.36-13.52m64.43-6.85c-4.34.43-3.5 5.37-3.5 8.45-.21 2.96 2.55 4.77 4.12 6.91 10.13-.01 20.27-.15 30.4.08 3.44-3.74 4.31-9.36 2.35-14.01-1.25-2.13-4.06-1.45-6.11-1.62-9.08.2-18.19-.23-27.26.19m-41.31 2.02c-2.37.61-4.76 1.16-7.03 2.1-.44.13-1.33.38-1.77.5-1.33.44-2.69.72-4.05.99-1.38.5-2.75 1.01-4.1 1.53-1.92.27-3.8.76-5.62 1.39.37 2.67-1.81 7.68 2.06 8.22.08-1.98-.01-3.98.32-5.94 1.12-1.71 3.59-1.39 5.34-2.06 1.01-.35 2.02-.71 3.03-1.07 1.34-.27 2.67-.55 4-.87.99-.37 1.99-.74 2.99-1.11 1.01-.33 2.02-.67 3.02-1.03 2.43-.53 4.84-1.27 7.36-1.25 10.35.02 20.71.03 31.06.02.01-.53.02-1.58.02-2.1-10.35-.02-20.7.02-31.06-.03-1.88-.01-3.8.03-5.57.71zm85.17-3.21c49.77-.37 99.55-.04 149.33-.17.21 3.69.22 7.38.24 11.07-5.61.77-10.49-3.06-16.11-2.7-26.67-.09-53.34-.02-80.02-.03-2.89-.16-5.65.86-7.82 2.75-15.15.21-30.3.06-45.46.08-.04-3.67-.05-7.34-.16-11m6.37 1.52c0 .53 0 1.57-.01 2.1 3.37.01 6.74.01 10.11 0v-2.1c-3.37-.01-6.73-.01-10.1 0m13.99-.01c0 .53-.01 1.59-.01 2.12 3.37 0 6.74 0 10.11-.02v-2.09c-3.37-.01-6.73-.01-10.1-.01m14.01.01v2.1c3.36.01 6.73.01 10.1 0v-2.1c-3.37-.01-6.74-.01-10.1 0m13.99-.01c0 .53-.01 1.59-.01 2.12 3.37 0 6.74 0 10.11-.02v-2.09c-3.37-.01-6.73-.01-10.1-.01m14.01.01v2.1c3.36.01 6.73.01 10.1 0v-2.1c-3.37-.01-6.74-.01-10.1 0m13.99-.01c0 .53-.01 1.59-.01 2.12 3.37 0 6.74 0 10.11-.02v-2.09c-3.37-.01-6.73-.01-10.1-.01m14.01.01v2.1c3.36.01 6.73.01 10.1 0v-2.1c-3.37-.01-6.74-.01-10.1 0m13.99-.01c0 .53-.01 1.59-.01 2.12 3.37 0 6.74 0 10.11-.02v-2.09c-3.37-.01-6.73-.01-10.1-.01m14.01.01v2.1c3.36.01 6.73.01 10.1 0v-2.1c-3.37-.01-6.74-.01-10.1 0m13.99-.01c0 .53-.01 1.59-.01 2.12 3.37 0 6.74 0 10.11-.02v-2.08c-3.37-.02-6.74-.02-10.1-.02zm36.4-1.74c7.54.78 15.19-.44 22.68.73-7.33.05-14.65-.12-21.97-.01-.01.53-.04 1.59-.06 2.12 6.03.1 12.05-.12 18.08.02 2.07-.01 3.98.84 5.87 1.58l.46.18c-.08 2.16-.12 4.32-.14 6.48-8.33.09-16.67.2-24.99-.27.06-3.61.07-7.22.07-10.83zM408.3 27.08c.01-5.48.01-10.96-.19-16.43.34.53 1.01 1.6 1.35 2.14 4.53.66 9.14.12 13.71.18.23 4.72.14 9.44.15 14.16-5.01-.02-10.02.03-15.02-.05z"></path><path d="M213.09 15.25c9.6.07 19.2.01 28.81.04-.03.36-.09 1.08-.13 1.44-9.56-.01-19.13-.04-28.7.02.01-.38.01-1.13.02-1.5zm-83.66 4.19c5.31-1.1 10.86-.05 16.27-.39.18 4.96-.4 9.96.25 14.88 1.07 4.03 5.26 5.5 8.69 6.96 15.96.38 31.93-.07 47.89.19-2.21 4.91-3.85 10.09-6.52 14.78-1.39 2.57-3.81 4.93-6.9 5.02-8.42.25-16.86-.23-25.27.17-3.32.18-5.54 3.13-6.84 5.89-2.93 6.1-6.12 12.06-9.05 18.16-1.39 1.85 1.51 3.94.2 5.75-1.03 2.2-3.64.75-5.27.19-6.54-2.72-13.48-4.46-19.79-7.69 7.59-12.02 16.25-23.35 24.14-35.18 2.05-2.78.52-6.56-2.21-8.21-2.87-.64-4.22 2.98-6.94 3.04-4.37.27-8.76.31-13.14.08-1.59.1-2.26-1.87-2.26-3.17-.19-3.22-.04-6.46.01-9.69 7.44-.3 14.89-.11 22.34-.18-.01-.52-.02-1.56-.03-2.08-7.49-.1-14.99.19-22.48-.27 2.71-2.41 4.2-5.88 6.91-8.25m41.81 23.71c-6.24 2.72-5.49 13.65 1.26 15.19 4.84.35 9.71.16 14.56.14 6.57-.14 10.01-10.22 4.62-14.14-3.01-2.47-7.13-1.5-10.69-1.72-3.24.16-6.64-.55-9.75.53m-23.76 8.49c-2.25 1.79-3.4 4.53-4.95 6.88-4.08 6.26-7.96 12.64-12.07 18.87-1.31 1.64-1.62 4.35.47 5.52 3.09 1.74 6.43 3.18 9.9 3.96 2.97-.06 4.31-3.03 5.47-5.3 3.58-7.39 7.96-14.39 11.26-21.92 1.24-2.66-.72-5.14-3.02-6.3-2.04-1.23-4.66-3.2-7.06-1.71zm231.11-30.46c1.38.57 2.76 1.12 4.17 1.64.06.45.18 1.34.25 1.78l-5 .09c.19-1.17.39-2.34.58-3.51zm-121.95 1.67c14.72-.1 29.44.09 44.17-.1-1.33 1.62-2.56 3.32-3.57 5.16-13.52.08-27.04 0-40.56.03-.02-1.7-.04-3.4-.04-5.09zm50.71.51c1.64-.05 3.28-.11 4.93-.17-.08.26-.23.78-.31 1.04-4.37.29-6.72 4.34-10.33 6.22 1.34-2.77 3.47-5.02 5.71-7.09zm6.86-.83c1.86 0 3.72 0 5.59-.01.04.53.13 1.6.18 2.14-1.99 0-3.98 0-5.96.01.05-.54.14-1.61.19-2.14zm8.01-.01c1.85 0 3.7 0 5.56-.01.05.54.16 1.61.21 2.14-1.99 0-3.98.01-5.97.02l.2-2.15zm8.01 0h5.55c.05.53.16 1.6.21 2.14h-5.98c.06-.54.17-1.61.22-2.14zm7.97.02a1038 1038 0 005.56-.04c.06.54.17 1.62.23 2.16-1.99-.01-3.99 0-5.97 0 .04-.53.13-1.59.18-2.12zm8.04-.02h5.54l.2 2.15c-1.99-.01-3.98-.01-5.97-.02.06-.53.17-1.6.23-2.13zm8.01-.06c2.07.45 6.02-1.22 5.89 2.17-2.05.02-4.09.02-6.13.03l.24-2.2zm7.98.06h5.55c.05.53.16 1.6.21 2.13-2 0-3.99.01-5.97.02.05-.53.15-1.61.21-2.15zm8 0h5.55c.05.53.16 1.61.21 2.14h-5.98c.06-.54.17-1.61.22-2.14zm14.91.01h5.65c.05.53.14 1.59.19 2.11l-5.93.18c.02-.58.06-1.72.09-2.29zm8.1-.02c2.24 1.34 4.65 2.53 6.33 4.61-2.19-.48-4.34-1.11-6.39-2.03.02-.65.04-1.94.06-2.58zm32.15.82c2.55.12 5.11.23 7.67.38-2.36.13-4.71.26-7.06.37V26c2.35.01 4.7.02 7.05.02.14 4.88.29 9.76-.01 14.64-2.54-.04-5.08-.06-7.62-.09-.26-5.75.17-11.49-.03-17.24zM4.38 39.76c.13-4.47-.29-8.97.4-13.42.08.5.25 1.48.34 1.98 1.18-.62 2.33-1.29 3.48-1.96 4.32-.11 8.64.06 12.96-.2.2 2.29.34 4.59.45 6.89 1.18.88 2.3 2.16 3.94 1.96 15.7.06 31.41.05 47.12.02 5.36.09 11.16-3.04 12.21-8.66 2.62-.09 5.23-.1 7.85-.05 1.06.77 2.13 1.53 3.21 2.27-.04 3.73-.07 7.46-.2 11.18-30.59-.05-61.17-.03-91.76-.01zm93.93-12.8c7.37-.02 14.74-.03 22.11.02l-.2 3.02c-7.09.19-14.25-.49-21.3.49-.16-.88-.46-2.64-.61-3.53zm304.64.47c1.72.47 2.69 1.8 3.32 3.38 5.63.36 11.28.31 16.92.11.07 1.78.12 3.57.16 5.35-6.75.07-13.49.01-20.24.04.02-2.96.08-5.92-.16-8.88zm32.19.52c3.53.16 7.07.18 10.6.03-.03 2.78-.04 5.55-.04 8.33-3.48-.01-6.96-.01-10.44-.02-.01-2.78-.05-5.56-.12-8.34zm-178.47 2.11c13.4-.04 26.8.07 40.21-.05-.06 2.14-.16 4.27-.28 6.4-13.31-.25-26.63-.02-39.94-.13-.01-2.07-.01-4.15.01-6.22zM98.3 31.53c7.29.9 14.65.43 21.98.45.05 2.61.01 5.21-.02 7.82-3.93-.04-7.87-.13-11.79.17-.77 1.17-1.56 2.33-2.35 3.49-2.49-.02-4.97-.02-7.45-.01-.06-3.97-.01-7.96-.37-11.92zM4.99 43.95c14.03.13 28.06-.09 42.08.31 16.46-.43 32.92-.18 49.39-.29-.07 1.78-.11 3.56-.14 5.34-5.77.37-11.91-.91-17.32 1.68-12.31 5.67-22.83 14.38-33.62 22.43-7.44 5.47-14.52 11.47-22.37 16.37-2.65 1.98-6.07 1.35-9.15 1.4-1.64-2.44-3.24-5.11-3.16-8.17-.19-8.56.24-17.13-.17-25.69-.31-5.01-3.69-8.92-5.54-13.38M34 46.11c-3.09 1.61-3.68 5.74-6.86 7.25-1.28.95-3.33 1.6-3.39 3.49-.28 3.72-.03 7.47-.12 11.2.1 2.17-.32 4.56.9 6.5 2.25.84 4.27-.84 6.06-1.95 9.14-6.31 18.67-12.05 27.83-18.32 2.3-1.29 2.69-3.97 3.09-6.33-1.15-1.04-2.29-2.1-3.42-3.16-5.37-.23-10.75-.24-16.12-.21-2.71.02-5.57.11-7.97 1.53z"></path><path d="M173.01 44.71c1.62.01 3.25.03 4.87.04-.34 2.55-.4 5.14.79 7.5-1.97-1.32-3.89-2.71-5.64-4.3 0-.81-.02-2.43-.02-3.24z"></path><path d="M408.11 10.65c5.02-.1 10.03-.01 15.06-.06v2.38c-4.57-.06-9.18.48-13.71-.18-.34-.54-1.01-1.61-1.35-2.14zm17.95.27c7.32-.11 14.64.06 21.97.01 1.42.79 2.35 1.97 1.92 3.71-1.89-.74-3.8-1.59-5.87-1.58-6.03-.14-12.05.08-18.08-.02.02-.53.05-1.59.06-2.12zm-163.1 1.03c3.37-.01 6.73-.01 10.1 0v2.1c-3.37.01-6.74.01-10.11 0 .01-.53.01-1.57.01-2.1zm13.99-.01c3.37 0 6.73 0 10.1.01v2.09c-3.37.02-6.74.02-10.11.02 0-.53.01-1.59.01-2.12zm14.01.01c3.36-.01 6.73-.01 10.1 0v2.1c-3.37.01-6.74.01-10.1 0v-2.1zm13.99-.01c3.37 0 6.73 0 10.1.01v2.09c-3.37.02-6.74.02-10.11.02 0-.53.01-1.59.01-2.12zm14.01.01c3.36-.01 6.73-.01 10.1 0v2.1c-3.37.01-6.74.01-10.1 0v-2.1zm13.99-.01c3.37 0 6.73 0 10.1.01v2.09c-3.37.02-6.74.02-10.11.02 0-.53.01-1.59.01-2.12zm14.01.01c3.36-.01 6.73-.01 10.1 0v2.1c-3.37.01-6.74.01-10.1 0v-2.1zm13.99-.01c3.37 0 6.73 0 10.1.01v2.09c-3.37.02-6.74.02-10.11.02 0-.53.01-1.59.01-2.12zm14.01.01c3.36-.01 6.73-.01 10.1 0v2.1c-3.37.01-6.74.01-10.1 0v-2.1zm13.99-.01c3.36 0 6.73 0 10.1.02v2.08c-3.37.02-6.74.02-10.11.02 0-.53.01-1.59.01-2.12zm-217.53 1.7c1.77-.68 3.69-.72 5.57-.71 10.36.05 20.71.01 31.06.03 0 .52-.01 1.57-.02 2.1-10.35.01-20.71 0-31.06-.02-2.52-.02-4.93.72-7.36 1.25-1 .36-2.01.7-3.02 1.03-1 .37-2 .74-2.99 1.11-1.33.32-2.66.6-4 .87-1.01.36-2.02.72-3.03 1.07-1.75.67-4.22.35-5.34 2.06-.33 1.96-.24 3.96-.32 5.94-3.87-.54-1.69-5.55-2.06-8.22 1.82-.63 3.7-1.12 5.62-1.39 1.35-.52 2.72-1.03 4.1-1.53 1.36-.27 2.72-.55 4.05-.99.44-.12 1.33-.37 1.77-.5 2.27-.94 4.66-1.49 7.03-2.1zM7.18 23.95c5.05.15 10.1.01 15.15.13-.2.52-.58 1.56-.77 2.08-4.32.26-8.64.09-12.96.2-1.15.67-2.3 1.34-3.48 1.96-.09-.5-.26-1.48-.34-1.98.78-.81 1.58-1.61 2.4-2.39zm77.66.13c3.35.02 6.72-.28 10.06.02 1.52.96 1 3.02 1.44 4.49-1.08-.74-2.15-1.5-3.21-2.27-2.62-.05-5.23-.04-7.85.05l-.44-2.29zm341.16 0c2.35-.11 4.7-.24 7.06-.37 0 .58-.01 1.74-.01 2.31-2.35 0-4.7-.01-7.05-.02v-1.92zm-23.05 3.35c-.35-2.07 1.62-1.78 2.99-2.01-.03 1.18-.08 2.36-.13 3.54 5.73-.04 11.46-.02 17.19-.02.05.5.15 1.48.19 1.98-5.64.2-11.29.25-16.92-.11-.63-1.58-1.6-2.91-3.32-3.38zm31.93-1.78c3.73.04 7.46.03 11.2.03-.09.57-.26 1.72-.34 2.3-3.53.15-7.07.13-10.6-.03-.06-.57-.19-1.72-.26-2.3zm-312.36 2.04c7.49.46 14.99.17 22.48.27.01.52.02 1.56.03 2.08-7.45.07-14.9-.12-22.34.18-.04-.63-.13-1.89-.17-2.53zm134.16.25c13.52-.03 27.04.05 40.56-.03l-.36 2.1c-13.41.12-26.81.01-40.21.05 0-.53 0-1.59.01-2.12zM98.92 30.49c7.05-.98 14.21-.3 21.3-.49.02.5.04 1.49.06 1.98-7.33-.02-14.69.45-21.98-.45.15-.26.46-.78.62-1.04zM4.5 41.96c30.41.02 60.83-.15 91.24.09l.72 1.92c-16.47.11-32.93-.14-49.39.29-14.02-.4-28.05-.18-42.08-.31-.12-.5-.37-1.49-.49-1.99z" fill="#f5f5f5"></path><path d="M211.19 15.08c1.18-.69 2.35-1.63 3.82-1.48 9.69-.12 19.4.26 29.09-.22.82 3.02.69 6.17.55 9.26-7.87.56-15.76.07-23.64.26-3.08-.09-6.29.38-9.26-.62-.5-2.37-.43-4.8-.56-7.2m1.9.17c-.01.37-.01 1.12-.02 1.5 9.57-.06 19.14-.03 28.7-.02.04-.36.1-1.08.13-1.44-9.61-.03-19.21.03-28.81-.04zm85.67 17.69c-.46-6.07 4.76-10.88 10.13-12.61 1.13.95 2.26 1.9 3.39 2.86-1.65.06-3.29.12-4.93.17-2.24 2.07-4.37 4.32-5.71 7.09 3.61-1.88 5.96-5.93 10.33-6.22.04 2.91.03 5.83.01 8.74-4.41.01-8.81.01-13.22-.03zm93.97-11.91c2.68.46 5.61.7 7.85 2.42.93 3.07.6 6.34.55 9.5-2.72.03-5.43.04-8.14.06 0-2.64.05-5.29.19-7.92 2.05.92 4.2 1.55 6.39 2.03-1.68-2.08-4.09-3.27-6.33-4.61-.13-.37-.38-1.11-.51-1.48zm-78.71 3.64c1.98-.01 3.97-.01 5.96-.01.03 2.77.03 5.54.02 8.31-1.99.01-3.97.03-5.95.04-.04-2.78-.05-5.56-.03-8.34zm8 0c1.99-.01 3.98-.02 5.97-.02.01 2.79 0 5.58-.02 8.37l-5.97-.06c-.01-2.76-.01-5.53.02-8.29zm7.99-.01h5.98c.01 2.78.01 5.56-.01 8.34-1.99 0-3.97-.01-5.95-.01-.03-2.77-.04-5.55-.02-8.33zm8.01 0c1.98 0 3.98-.01 5.97 0 .02 2.77.01 5.54.01 8.31-2 .01-3.98.01-5.97.02-.02-2.77-.03-5.55-.01-8.33zm7.99-.01c1.99.01 3.98.01 5.97.02.02 2.77.03 5.53.03 8.3h-5.99c-.01-2.77-.02-5.54-.01-8.32zm8 .01c2.04-.01 4.08-.01 6.13-.03-.16 2.78-.17 5.58-.17 8.37-1.98-.01-3.96-.01-5.94 0-.03-2.78-.04-5.56-.02-8.34zm8.01.01c1.98-.01 3.97-.02 5.97-.02.01 2.78.01 5.56 0 8.33-1.99 0-3.98 0-5.96.01-.02-2.78-.03-5.55-.01-8.32zm7.99-.01h5.98c.01 2.78.01 5.55 0 8.33h-5.96c-.02-2.77-.03-5.55-.02-8.33zm8 .03l5-.09c-.02 2.8-.04 5.59-.07 8.39-1.64-.01-3.28-.01-4.9-.01-.03-2.77-.05-5.53-.03-8.29zm7.04.13l5.93-.18c.02 2.77.01 5.55-.02 8.32-1.98.01-3.95.03-5.92.05-.01-2.73-.01-5.46.01-8.19zM23.86 26.8c19.76-.28 39.54-.33 59.3.03-1.52 1.9-2.84 4.29-5.28 5.12-3.19 1.04-6.6.77-9.9.83-13.97-.14-27.96.17-41.92-.15-2.93.08-1.78-3.96-2.2-5.83zm275.05 8.19c4.37.06 8.74.06 13.1.03-.02 1.76-.05 3.52-.09 5.28-.9.9-1.79 1.81-2.65 2.74-3.39.26-6.78.14-10.16-.13-.26-2.63-.31-5.28-.2-7.92zm15.12.01l6.01.03c-.04 1.77-.09 3.53-.14 5.29-.87.88-1.73 1.77-2.58 2.67-1.1.08-2.19.17-3.27.25-.02-2.75-.02-5.49-.02-8.24zm8.01-.01l5.98.03c-.02 1.75-.04 3.51-.09 5.26-.9.9-1.78 1.82-2.63 2.77-1.09.04-2.18.07-3.27.11 0-2.73 0-5.45.01-8.17zm7.96.03h6.03c-.03 1.76-.06 3.52-.12 5.28-.9.89-1.77 1.8-2.61 2.73-1.09.07-2.17.13-3.24.18-.04-2.73-.05-5.46-.06-8.19zm8.03-.03l5.99.03c-.02 1.76-.05 3.51-.1 5.27-.89.9-1.76 1.8-2.62 2.73l-3.26.18c-.01-2.73-.01-5.47-.01-8.21zm7.98.02c2 .01 4.01.01 6.02.02-.03 1.77-.06 3.53-.12 5.29-.92.87-1.78 1.77-2.61 2.72-1.09.06-2.17.12-3.25.17-.03-2.73-.04-5.47-.04-8.2zm8.01-.01c2 0 4 .01 6 .01-.02 1.76-.05 3.51-.09 5.27-.9.9-1.78 1.82-2.64 2.75-1.08.06-2.16.12-3.24.17-.02-2.73-.03-5.47-.03-8.2zm8-.01l6 .03c-.02 1.76-.05 3.52-.1 5.28-.91.89-1.78 1.8-2.62 2.73-1.09.06-2.18.12-3.26.17-.02-2.73-.02-5.47-.02-8.21zm7.99.02c1.99-.01 3.99-.01 6-.02l-.09 5.31c-.89.89-1.76 1.8-2.62 2.7l-3.26.21c-.02-2.73-.03-5.47-.03-8.2zm8.02-.02c1.66.01 3.32.03 4.99.04-.03 1.8-.06 3.61-.06 5.42-1.47 1.27-2.9 2.69-4.89 3.04-.05-2.84-.04-5.67-.04-8.5zm7.01.04h5.98c-.03 1.8-.05 3.59-.04 5.39-1.63 1.6-3.46 3.06-5.89 2.94-.03-2.78-.04-5.55-.05-8.33zm8 0l8.09.06c-.33 1.65.09 3.66-.96 5.07-2.2 1.22-4.75 1.61-7.15 2.3 0-2.48.01-4.95.02-7.43zM148.41 52.99c2.69.78 5.07 2.26 7.4 3.76-.2 1.83-.56 3.67-1.58 5.24-3.94 6.62-6.94 13.75-10.83 20.4-.67.88-1.22 2.13-2.4 2.39-3.55-.74-6.87-2.38-9.72-4.59 5.61-9.13 11.66-17.98 17.13-27.2z" fill="#3b3b3b"></path></svg>