<svg data-v-ea210746="" viewBox="0 0 407 101" xmlns="http://www.w3.org/2000/svg" fill="#7d7d7d" class="ui-icon max-h-full w-full" style="fill: rgb(240, 200, 80); opacity: 1;"><g fill="#000"><path d="M33.03 6.02c14.98-4.08 30.59-3.27 45.93-4.05 105.01-.03 210.04 0 315.06-.03 2.69 0 5.4-.12 8.1.18 1.55.22 3.33 1.06 3.12 2.93.32 6.59.22 13.22-.12 19.81-2.95.09-5.89.11-8.84.06-1.22-1.36-2.45-2.72-3.66-4.09-2.68-.02-5.15.86-7.21 2.54-2.41 2.11-5.75 1.52-8.69 1.71-.87.91-1.77 1.8-2.67 2.66-.05.53-.14 1.59-.19 2.13 2 .62 4.04 1.12 6.13 1.34 4.5.22 7.55 4.45 12.18 4.34 2.01-1.74 3.67-4.75 6.73-4.42 2.26 0 6.33-.53 6.33 2.82.22 6.61.44 13.26-.29 19.85-62.84.47-125.7-.15-188.55.28-2.84 4.16-6.48 7.74-9.1 12.02-1.4 4.64-.06 9.42 1.5 13.81.19 6.01.31 12.07-.09 18.06-.34 2.17-3.08 1.85-4.69 1.95-13.34-.1-26.7.13-40.04-.11-1.89.07-2.2-2.35-2.17-3.76-.05-9.37.02-18.74-.02-28.11-8.49.03-16.97-.09-25.46.09-3.41 5.98-7.02 11.84-10.57 17.73-2.46 3.52-1.81 8.06-3.19 11.97-1.05.96-2.3 1.67-3.47 2.46-31.76-15.51-63.33-31.4-95.18-46.7-.31-1.39-.6-2.79-.88-4.18-.74 1.48-1.29 3.08-2.31 4.4-6.35.48-12.9.83-19.2-.23-.95-1.78.21-3.62.66-5.36 1.23-3.22.85-6.73.83-10.1-.19-5.35-.01-10.71.05-16.06.22-3.85-1.63-7.33-2.38-11.01 4.75-.76 9.58-.58 14.38-.53 6.33.36 11.88-3.28 17.97-4.4m9.84 1.6c-7.6.68-15.02 3.02-22.04 5.95-.01 2.79-.06 5.58-.12 8.36 15.05.14 30.11-.04 45.16.11 3.1 2.89 5.75 6.33 9.21 8.81 3.99.68 8.05.05 12.05-.21-1.92-.7-3.84-1.41-5.75-2.12-.06-5.18-.06-10.35-.06-15.53-9.11-.11-18.22.02-27.33-.08-2.88-.03-5.78.07-8.62.59-1.31.4-2.62.78-3.93 1.19-2.69.6-5.37 1.24-8.02 1.99-2.46.56-4.92 1.12-7.4 1.55-.01-.48-.02-1.43-.03-1.91 1.2-.31 2.39-.63 3.58-.96 1.33-.32 2.65-.65 3.97-1 2.31-.56 4.6-1.16 6.92-1.69 1.31-.38 2.62-.75 3.93-1.13 12.17-1.12 24.45-.19 36.66-.48 1.1-.94 2.21-1.87 3.31-2.81l.81.05c1.25-.8 2.51-1.59 3.76-2.4-11.98.1-23.96-.02-35.94.07-3.44 0-6.78.94-10.12 1.65m55.85-1.67c4.5 3.14 10.11 2.12 15.24 2.24 29.34 0 58.69-.02 88.03.01 2.88.15 5.6-.89 8.07-2.26-5.01-.37-10.04-.23-15.07-.24-30.01 0-60.02 0-90.03-.01-2.08.02-4.16.12-6.24.26m117.73 11.88c46.2.22 92.39.03 138.59.09 0-3.31.01-6.62.01-9.94 0-.51.01-1.53.01-2.03-43.01-.02-86.01 0-129.02-.02-3.3.03-6.64-.2-9.9.5.5 3.78.34 7.6.31 11.4M357.7 5.93c-.08 2.18-.22 4.35-.36 6.52.18-.72.56-2.16.74-2.88.77-.03 2.29-.09 3.06-.11.12.71.36 2.14.49 2.86-.14-2.09-.27-4.18-.35-6.28-1.2-.03-2.4-.07-3.58-.11m6.29-.05l-.04 2.34c-.07 3.23-.14 6.46-.23 9.69 1.71.02 3.43.03 5.15.04 0-3.38.05-6.76-.16-10.14.19-.41.56-1.24.74-1.65-1.82-.13-3.64-.21-5.46-.28m6.81 2.43l.3 4.31c.39-.8 1.19-2.39 1.58-3.19 1.05.72 2.05 1.51 2.99 2.39-.14-1.93-.08-3.86.07-5.79l-.12.15c-2.08-.03-5.31-1.23-4.82 2.13m7.23-2.37c-.05.5-.17 1.51-.23 2.01-.13 3.32-.13 6.64-.12 9.96 4.97.02 9.95.02 14.93.01-.05-3.82-.18-7.66.18-11.47-4.86-.95-9.84-.35-14.76-.51m16.68.29c.31 4.75-1.09 9.98 1.59 14.26.46-4.82.27-9.66.25-14.49-.46.05-1.38.17-1.84.23m4.5 1.66c-.06 4.65-.21 9.3-.45 13.95.8.04 2.4.13 3.2.17.05-4.7.06-9.41-.1-14.11 1.67-2.7-4.39-2.71-2.65-.01M83.65 15.03c2.82.02 5.63.02 8.45.02-.05-2.77-.12-5.54-.23-8.3-3.26 2.19-8.45 3.45-8.22 8.28M93.68 6.4c.18.68.53 2.03.7 2.71-.04 3.05-.06 6.1-.06 9.15 2.54 1.04 5.06 2.1 7.57 3.21.08-2.96.15-5.92.32-8.87.45-2.53-1.94-3.17-3.67-4.11-1.62-.71-3.23-1.42-4.86-2.09m118.65.65c.02 3.34 3.03-1.47 0 0M103.55 9.91l.72 1.97c-.15 3.32-.15 6.64-.12 9.97 33.4.16 66.81.02 100.22.07-.01-3.37-.06-6.75.26-10.12-.27-.44-.8-1.33-1.07-1.77-33.33-.29-66.68-.04-100.01-.12m103.63.03c-.11.5-.32 1.52-.42 2.03-.12 3.08-.13 6.16-.08 9.25 2.59-.96 5.16-1.99 7.72-3.05-.07-2.06-.13-4.12-.23-6.19-.04-.51-.13-1.53-.17-2.04h-6.82m-202.58 4c.35.52 1.06 1.56 1.42 2.08.13 8.64.01 17.29.1 25.94.05 2.95-.31 5.9-.95 8.79 1.95-.04 3.9-.07 5.86-.09.14-11.57.06-23.15.05-34.72-.01-.5-.02-1.5-.03-2H4.6m8.49.46c.6 12.05.07 24.13.29 36.19 1.51.05 3.02.09 4.54.14.07-11.48.17-22.96-.05-34.44.01-.56.04-1.69.06-2.25-1.52.15-3.04.3-4.55.47l-.29-.11m343.92-.91c.06 1.45.12 2.9.19 4.36 1.46.01 2.92.03 4.39.04.05-1.41.11-2.82.16-4.23l-.84 2.49-2.63-.12c-.32-.64-.95-1.91-1.27-2.54m13.84.41c.13 1.35.25 2.7.37 4.05h3.99c.18-1.41.35-2.82.54-4.23-.28.7-.83 2.11-1.11 2.81-1.39-.69-2.62-1.62-3.79-2.63M84.02 16.94c0 1.33-.01 2.66-.02 3.99h8.05c-.01-1.33-.01-2.65-.01-3.97-2.68-.01-5.35-.01-8.02-.02m10.27 3.43c.05 5.19.08 10.38-.11 15.56 2.57-.96 5.16-1.88 7.75-2.8.07-3.13.12-6.26.15-9.39-2.61-1.1-5.2-2.24-7.79-3.37M211.6 21.6c9.78.71 19.6.22 29.39.36 45.68.03 91.35-.05 137.02.04 2.27.07 4.42-.72 6.48-1.61-9.46-.88-18.97-.26-28.45-.45-45.36-.06-90.72.02-136.08-.05-2.88-.02-5.66.77-8.36 1.71M84.09 22.93c-.08 1.44-.15 2.88-.23 4.32 2.71 1.18 5.43 2.34 8.19 3.39 0-2.51.01-5.03.01-7.54-2.66-.04-5.31-.1-7.97-.17m20.2.77c-.07 2.86-.13 5.72-.19 8.58 5.05.19 10.11.22 15.15-.14-4.75-3.22-9.75-6.05-14.96-8.44m12.49.54c3.96 1.99 7.72 4.32 11.61 6.43.88.32 1.89 1.15 2.85.61 4.39-1.99 8.38-4.73 12.49-7.21-8.98-.23-17.98-.33-26.95.17m48.69-.04c4.04 2.41 7.98 5.05 12.27 7.01.96.63 1.94-.17 2.84-.51 3.87-1.97 7.56-4.26 11.22-6.58-8.77-.32-17.56-.36-26.33.08m-143.04.9c1.2.87 2.2 2.4 3.87 2.26l-.95-.01c.47.63 1.41 1.91 1.88 2.55-.52 6.9-.32 13.82-.62 20.72 12.79.13 25.59.02 38.39.06.16-7.79-.07-15.59-.06-23.39l-.04-2.3c-14.16.05-28.32-.17-42.47.11m119.88 6.99c8.29.53 16.62.41 24.93.08-3.96-2.83-8.26-5.11-12.47-7.52-4.35 2.14-8.65 4.43-12.46 7.44m47.71-.01c4.78.38 9.59.39 14.38.31 0-2.8-.01-5.6-.03-8.41-5.04 2.23-9.81 5-14.35 8.1m17.94-7.16v6.27c4.75-.01 9.69.6 14.17-1.36-.04-.52-.13-1.56-.18-2.08-.91-.87-1.8-1.76-2.66-2.67-3.78-.03-7.55-.13-11.33-.16m19.81.06c-.89.95-1.79 1.88-2.72 2.78-.02.43-.07 1.29-.09 1.72.99.56 1.98 1.13 2.97 1.71h5.14c.99-.58 1.98-1.15 2.98-1.71-.02-.43-.08-1.29-.11-1.72-.93-.91-1.83-1.84-2.72-2.78-1.82-.01-3.63-.01-5.45 0m13.97.01c-.87.95-1.76 1.88-2.67 2.79-.05.51-.16 1.52-.21 2.03 5.84 2.43 12.28 1.12 18.42 1.33.69-.42 2.07-1.26 2.75-1.68l-.08-1.7c-.93-.9-1.84-1.82-2.72-2.77-5.16-.08-10.32-.07-15.49 0m23.99.05c-.87.93-1.76 1.84-2.67 2.73-.05.51-.14 1.51-.19 2.02 3.58 1.83 7.67 1.8 11.26.02-.05-.52-.14-1.55-.18-2.06-.91-.87-1.8-1.77-2.67-2.68l-5.55-.03m14.03-.03c-.89.94-1.79 1.85-2.71 2.75-.02.43-.07 1.29-.1 1.72.99.56 1.98 1.13 2.97 1.7 2.71.03 5.42.03 8.13.01.99-.58 1.99-1.15 3-1.71-.02-.43-.07-1.29-.09-1.72-.94-.9-1.85-1.82-2.73-2.77-2.82-.05-5.65-.04-8.47.02m16.99-.02c-.88.95-1.78 1.87-2.71 2.78-.02.42-.06 1.27-.09 1.69 1.02.6 2.03 1.22 3.04 1.85 2.79.03 5.55-.47 8.15-1.5-.05-.5-.16-1.52-.21-2.03-.92-.91-1.81-1.85-2.68-2.81-1.84-.01-3.67 0-5.5.02m14.01.01c-.88.94-1.79 1.86-2.71 2.75-.02.44-.07 1.3-.1 1.74.99.55 1.97 1.11 2.96 1.68 4.76.01 9.74.65 14.23-1.36-.05-.51-.16-1.52-.21-2.03-.92-.91-1.81-1.84-2.68-2.79-3.83-.06-7.66-.06-11.49.01m20.01-.02c-.88.94-1.79 1.87-2.71 2.77-.03.43-.09 1.3-.11 1.73.99.56 1.98 1.13 2.97 1.71 1.72 0 3.44 0 5.16-.01.98-.57 1.97-1.14 2.96-1.7-.02-.43-.07-1.29-.09-1.72-.94-.9-1.85-1.83-2.73-2.78-1.82-.01-3.64-.01-5.45 0m13.95.1c-.88.91-1.78 1.8-2.69 2.67-.02.44-.07 1.3-.09 1.74 1 .55 1.99 1.11 2.99 1.69 4.11.13 8.36.36 12.21-1.37l-.2-2.04a76.3 76.3 0 01-2.67-2.73c-3.19.01-6.37.02-9.55.04m18.05-.1c-.89.95-1.79 1.87-2.72 2.77-.02.44-.07 1.3-.1 1.73.99.56 1.98 1.13 2.97 1.71h5.14c.98-.58 1.98-1.15 2.99-1.71-.02-.43-.08-1.29-.1-1.72-.94-.9-1.85-1.83-2.73-2.78-1.82-.01-3.64-.01-5.45 0M20.92 30.01c-.17 5.45-.14 10.9-.05 16.36.94.02 2.82.07 3.75.09.11-5.57-.15-11.16.6-16.7-1.43.08-2.87.17-4.3.25m46.07 1.58c.03 6.68-.38 13.39.39 20.05 2.54-2.05 1.3-5.59 1.63-8.39 1.84-1.42 3.72-2.78 5.57-4.19 5.77-.02 11.53-.01 17.29-.01.05-.5.16-1.49.21-1.98-6.56-.19-13.11-.11-19.66-.12-1.78-1.81-3.59-3.6-5.43-5.36m332 2.78c-.14 5.51.08 11.02.17 16.53.68-.04 2.04-.13 2.72-.18.13-5.47.18-10.94.09-16.41-.74.01-2.23.05-2.98.06m-294.96.54c-.01.52-.04 1.56-.06 2.08.12 3.11.16 6.21.14 9.32 20.24.01 40.47.02 60.7-.01.09 1.47.18 2.93.28 4.4 13.09-.07 26.19.03 39.29-.05-.06-4.56.04-9.11.04-13.67l-.28-2.08c-8.39-.02-16.79.18-25.17-.24-13 .51-26.01.1-39.02.29-11.97-.56-23.94.24-35.92-.04m102.16 2.22l.42.26c-.02 4.43.05 8.87.03 13.3 2.55-.01 5.09-.03 7.64-.07.02-3.02-.05-6.05-.09-9.07.68-4.16-3.86-4.32-6.45-5.93-.39.37-1.16 1.13-1.55 1.51m7.47-2.43l.11 1.41c54.1-.03 108.21-.04 162.31.01 2.52-.03 5.04-.27 7.54-.61-5.12-1.26-10.41-.79-15.62-.8-51.44-.02-102.89 0-154.34-.01M94.12 38.97l.04 2.34c.19 2.96.18 5.92.18 8.88 2.57-1.18 5.14-2.35 7.73-3.48.01-3.01.02-6.03-.21-9.04.1-.58.3-1.73.41-2.3-2.89.75-5.71 1.88-8.15 3.6m301.56 12.76c1.72-4.95.8-10.33.56-15.45-2.63 4.64-1.49 10.46-.56 15.45M216.62 38.36c-.43 4.1-.06 8.23-.02 12.34 46.14-.05 92.28-.01 138.42-.02.03-4.14-.02-8.29-.01-12.44-46.13.25-92.26.02-138.39.12m140.24.3c.18 1.96.35 3.93.68 5.87 0-.84.01-2.54.01-3.38.86.13 2.57.38 3.42.51.17.66.52 1.99.7 2.66-.17-1.88-.34-3.75-.47-5.63l-4.34-.03m6.9 2.31c.13 3.24.14 6.48.21 9.72 1.65-.01 3.3-.02 4.96-.02-.03-.61-.1-1.82-.14-2.43-.12-3.22-.1-6.43.16-9.64-2.05.3-5.58-1.03-5.19 2.37m7.1-2.24c.2 1.87.39 3.75.65 5.62.03-.76.08-2.28.1-3.04l3.08.56c-.04-1.1-.07-2.19-.09-3.28-.94.03-2.81.1-3.74.14m7.3-.09c-.09.59-.27 1.75-.37 2.34-.07 3.22-.12 6.45-.18 9.67 5 .04 10 .05 15-.01-.03-3.93-.12-7.86.21-11.77-4.88-.36-9.78-.11-14.66-.23M75.58 41.01c-1.47 1.14-3.04 2.16-4.38 3.46-.32 2.05-.25 4.14-.3 6.21h21.13c.02-3.24.03-6.48.03-9.73-5.5-.01-10.99-.03-16.48.06m281.37 9.66c1.55-.03 3.11-.05 4.68-.07.01-1.67.03-3.33.03-5-.17.62-.51 1.85-.69 2.47-.71-.01-2.12-.02-2.83-.02-.2-.66-.61-1.97-.81-2.63-.15 1.75-.27 3.5-.38 5.25m13.9-4.8c.11 1.6.22 3.21.32 4.81 1.39 0 2.78.01 4.18.02.07-1.66.16-3.32.27-4.98-.26.7-.78 2.11-1.04 2.82-1.35-.74-2.58-1.66-3.73-2.67M32.23 53.2c.46.4 1.38 1.19 1.84 1.58l.55-.02c22.77 11.59 45.78 22.71 68.73 33.93 5.49 2.63 10.77 5.78 16.58 7.69.14-1.78.33-3.56.3-5.34-2.96-2.35-6.63-3.52-9.82-5.5-14.61-8.36-29.77-15.71-44.88-23.12-3.36-1.28-4.84-4.6-5.54-7.9.47-.24 1.41-.73 1.88-.98-9.86-.73-19.77-.14-29.64-.34m81.02.31c.54.21 1.64.63 2.19.84-.11 2.86-.05 5.91-1.7 8.4-3.31 5.55-6.78 11-9.88 16.67 5.71 2.56 10.69 6.69 16.72 8.48 4.96-7.62 9.09-15.77 14.23-23.29 9.3.32 18.6.2 27.91.09.03-3.23.11-6.45.2-9.68.18-1.77-.56-2.3-2.2-1.57l-.04-.6c-.18 3.1-.27 6.2-.31 9.3-4.75 2.52-10.24 2.21-15.43 2-2.72-.03-5.23-1.15-7.66-2.23-.11-2.43-.22-4.85-.34-7.27l-.04-1.44c-7.88.15-15.79-.34-23.65.3m26.27-.6c0 2.6 0 5.2-.03 7.8 2.03.62 4.1 1.1 6.19 1.46-.72-.94-1.44-1.86-2.16-2.79-.07-2.17-.12-4.34-.16-6.52-.96.02-2.88.04-3.84.05m25.51.29l-.04 1.45c.02 3.21.02 6.42.02 9.64 3.62-.29 7.25-.39 10.88-.38l.15-3.98c.48 0 1.43.02 1.9.02.05 1.35.1 2.7.16 4.05h1.81c.02-1.28.03-2.55.05-3.83 1.83-1.74 3.93-3.21 6.51-3.53 1.11 1.24 2.24 2.48 3.37 3.7.1 1.22.21 2.44.31 3.66h1.72c.06-1.35.13-2.71.2-4.06.47 0 1.42.01 1.89.02.03 1.33.07 2.67.1 4 3.33 0 6.68.25 9.98-.28 3.21-2.26 5.14-5.86 7.33-9.03.32-.37.97-1.11 1.29-1.47-15.88.07-31.75.02-47.63.02M63.14 55.8c2.73 3.97 7.46 5.43 11.55 7.55 8.96 4.48 17.99 8.82 26.99 13.23 3.1-5.77 6.72-11.24 9.97-16.91 1.36-2.09-.48-4.03-1.61-5.66-14.02 0-28.03-.12-42.05-.05-1.86-.19-3.47.7-4.85 1.84m83.71-1.78l.03 4.55c.8.75 1.6 1.5 2.39 2.25 2.49-.3 5.49.72 7.6-.98.3-1.91.29-3.86.38-5.79-3.47-.12-6.94-.13-10.4-.03m35.23 7.29l-.12 2.65h6.06c-.02-.67-.06-2.02-.09-2.69-.99-.87-1.98-1.73-2.96-2.6-.97.88-1.93 1.76-2.89 2.64m-16.77 5.42c-.08.48-.24 1.46-.31 1.95 0 1.86.02 3.73.04 5.6 12.7.04 25.4.07 38.1-.02.23-1.92.47-3.84.73-5.76-1.08-1.01-2.25-1.99-3.84-1.75-11.57-.06-23.15.04-34.72-.02m-.03 14c-.07.49-.2 1.47-.27 1.97-.03 4.63-.01 9.27.11 13.9 13.5-.12 27-.06 40.49-.04 0-4.94-.11-9.89.25-14.83l-.2.05c-4.06-1.55-8.44-.98-12.68-1.04-9.23.01-18.47.03-27.7-.01z"></path><path d="M222.41 10.06c3.08-1.27 5.22 3.42 2.19 4.88-3.09 1.32-5.25-3.45-2.19-4.88zm13.99-.04c3.09-1.15 5.25 3.42 2.22 4.92-3.16 1.27-5.16-3.33-2.22-4.92zm23.74-.66c1.32.59 2.67 1.15 3.89 1.97.65 2.23-1.34 4.48-3.63 3.6-2.56-1.15-.72-3.72-.26-5.57zm14.26.7c3.12-1.29 5.23 3.46 2.17 4.9-3.09 1.23-5.2-3.44-2.17-4.9zm17.01 0c3.07-1.27 5.22 3.41 2.21 4.88-3.09 1.3-5.27-3.42-2.21-4.88zm13.7-.69c1.44.87 4.41 1.11 3.9 3.43-.01 2.67-3.97 3.02-5.05.78.09-1.47.7-2.83 1.15-4.21zm20.29.7c3.03-1.36 5.22 3.5 2.19 4.88-3.09 1.27-5.24-3.41-2.19-4.88zm14.01-.02c3.08-1.25 5.22 3.43 2.19 4.91-3.11 1.24-5.23-3.42-2.19-4.91zM108.4 14.58c2.99-2.45 6.96-1.84 10.54-1.94 8.02.14 16.06-.22 24.08.13 1.76-.08 3.16 1.02 4.59 1.86-.49.59-1.47 1.75-1.97 2.34-11.76-.03-23.52-.04-35.29 0-.48-.6-1.46-1.8-1.95-2.39zm51.99.03c2.99-2.5 7.02-1.84 10.61-1.98 8.03.12 16.06-.17 24.09.13 1.74-.08 3.11 1.05 4.52 1.89-.49.58-1.49 1.74-1.99 2.32-11.76-.04-23.52-.03-35.28-.01-.49-.58-1.46-1.76-1.95-2.35zM34.37 34.86c.85-.67 1.73-1.3 2.63-1.9.91.62 1.81 1.29 2.67 1.99 4.29.14 8.59.11 12.88.08.82-.83 1.65-1.65 2.47-2.47.8.81 1.6 1.63 2.39 2.44.58.01 1.74.04 2.32.05.38.48 1.15 1.44 1.54 1.92-.41.51-1.22 1.53-1.63 2.04-.56.02-1.68.07-2.24.09-.8.76-1.59 1.51-2.38 2.27-.83-.78-1.65-1.56-2.48-2.34-4.36-.02-8.72-.02-13.09 0l-2.46 2.34c-.8-.76-1.6-1.52-2.39-2.28-.56-.01-1.68-.04-2.24-.05-.41-.53-1.22-1.59-1.63-2.12.38-.46 1.14-1.36 1.52-1.82l2.12-.24m1.8 1.3c-.52 1.63.03 2.19 1.66 1.66.52-1.63-.04-2.18-1.66-1.66m18.02-.02c-.56 1.61-.03 2.18 1.62 1.71.56-1.62.02-2.19-1.62-1.71zm82.18 3.07c11.75.05 23.5.05 35.26 0l1.67 1.71c-.41.53-1.23 1.58-1.64 2.1h-35.32l-1.64-2.08c.42-.43 1.25-1.3 1.67-1.73zm84.56 6.34c.3-1.38.18-3.5 2.07-3.67 1.94-.07 3.13 1.91 3.06 3.67-1.14 1.99-4 2.01-5.13 0zm15.37-4.4c1.53.84 4.19 1.38 3.74 3.7-.05 2.58-4.02 2.99-5.05.72.28-1.51.83-2.96 1.31-4.42zm25.56 5.88c-3.35.7-3.62-4.41-.88-5.16 3.34-.64 4.37 4.97.88 5.16zm11.09-1.46c.18-1.42.54-3.46 2.04-4.01 1.71.4 3.16 2.16 3.08 3.97-1.11 1.99-3.99 2.05-5.12.04zm17.2-1.53c.61-1.08 1.58-2.3 2.89-2.49 1.48.58 1.82 2.61 2 4.03-1.12 2.7-6.13 1.37-4.89-1.54zm14.55-2.39c.83.02 2.5.07 3.33.1.6 1.85 1.84 4.98-1.14 5.28-3.34.53-3.03-3.29-2.19-5.38zm20 .04h3.3c.73 1.98.95 4.04-.11 5.96-1.34-.59-2.7-1.16-3.93-1.96.15-1.35.46-2.67.74-4zm14.7 5.2c-3.07-1.47-.4-4.4 1.33-5.66.97.95 1.95 1.89 2.92 2.84-1.06 1.49-2.02 3.82-4.25 2.82zm-265.42-.87c.62-.98 1.27-1.94 1.96-2.87.74.92 1.44 1.88 2.11 2.86-.65.96-1.34 1.9-2.07 2.81-.71-.91-1.37-1.84-2-2.8zm11.57-.04c.83-.8 1.65-1.61 2.48-2.41.8.81 1.61 1.62 2.41 2.44-.82.81-1.64 1.61-2.46 2.42-.81-.81-1.62-1.63-2.43-2.45zm98.59 15.2c1.62-.55 2.18 0 1.69 1.63-1.63.55-2.19 0-1.69-1.63z"></path></g><path d="M42.87 7.62c3.34-.71 6.68-1.65 10.12-1.65 11.98-.09 23.96.03 35.94-.07-1.25.81-2.51 1.6-3.76 2.4l-.81-.05c-13.82-.71-27.68.27-41.49-.63zm173.27-1.19c3.26-.7 6.6-.47 9.9-.5 43.01.02 86.01 0 129.02.02 0 .5-.01 1.52-.01 2.03-44.37.12-88.74.01-133.12.07-2.06.07-4.14-.31-5.79-1.62zm141.56-.5c1.18.04 2.38.08 3.58.11.08 2.1.21 4.19.35 6.28-.13-.72-.37-2.15-.49-2.86-.77.02-2.29.08-3.06.11-.18.72-.56 2.16-.74 2.88.14-2.17.28-4.34.36-6.52zm6.29-.05c1.82.07 3.64.15 5.46.28-.18.41-.55 1.24-.74 1.65-1.59.18-3.18.29-4.76.41l.04-2.34zm6.81 2.43c-.49-3.36 2.74-2.16 4.82-2.13-.29.36-.88 1.07-1.17 1.43-1.21.26-2.43.49-3.65.7zm7.23-2.37c4.92.16 9.9-.44 14.76.51-4.34 3.07-10.06 1.17-14.99 1.5.06-.5.18-1.51.23-2.01zM93.68 6.4c1.63.67 3.24 1.38 4.86 2.09 1.73.94 4.12 1.58 3.67 4.11-2.7-.95-5.37-2.02-7.83-3.49-.17-.68-.52-2.03-.7-2.71zm9.87 3.51c33.33.08 66.68-.17 100.01.12.27.44.8 1.33 1.07 1.77-22.18 1.5-44.4-.42-66.59.56-11.26-.01-22.53.16-33.77-.48l-.72-1.97zm103.63.03H214c.04.51.13 1.53.17 2.04-2.47.01-4.94 0-7.41-.01.1-.51.31-1.53.42-2.03zm-202.58 4h6.45c.01.5.02 1.5.03 2-1.69.02-3.37.05-5.06.08-.36-.52-1.07-1.56-1.42-2.08zM22.43 25.1c14.15-.28 28.31-.06 42.47-.11l.04 2.3c-12.88.03-25.76-.03-38.64.07-1.67.14-2.67-1.39-3.87-2.26zm81.6 9.81c11.98.28 23.95-.52 35.92.04 13.01-.19 26.02.22 39.02-.29 8.38.42 16.78.22 25.17.24l.28 2.08c-33.49.07-66.97.04-100.45.01.02-.52.05-1.56.06-2.08zm102.16 2.22c.39-.38 1.16-1.14 1.55-1.51 2.59 1.61 7.13 1.77 6.45 5.93-2.59-1.27-5.14-2.62-7.58-4.16l-.42-.26zM94.12 38.97c2.44-1.72 5.26-2.85 8.15-3.6-.11.57-.31 1.72-.41 2.3-2.47 1.4-5.09 2.53-7.7 3.64l-.04-2.34zm262.74-.31l4.34.03c.13 1.88.3 3.75.47 5.63-.18-.67-.53-2-.7-2.66-.85-.13-2.56-.38-3.42-.51 0 .84-.01 2.54-.01 3.38-.33-1.94-.5-3.91-.68-5.87zm6.9 2.31c-.39-3.4 3.14-2.07 5.19-2.37-.26 3.21-.28 6.42-.16 9.64-.14-2.41-.2-4.82-.25-7.24-1.6 0-3.19-.01-4.78-.03zm7.1-2.24c.93-.04 2.8-.11 3.74-.14.02 1.09.05 2.18.09 3.28l-3.08-.56c-.02.76-.07 2.28-.1 3.04-.26-1.87-.45-3.75-.65-5.62zm7.3-.09c4.88.12 9.78-.13 14.66.23-.49.47-1.46 1.42-1.94 1.89-4.33.66-8.73.21-13.09.22.1-.59.28-1.75.37-2.34zM217.2 40.15c2.65-1.57 5.85-.99 8.78-1.1 40.66.09 81.32-.01 121.98.05 1.91-.2 3.5.77 4.88 1.98-45.31-.09-90.61-.13-135.91.02.07-.24.2-.71.27-.95z" fill="#f3f3f3"></path><path d="M98.72 5.95c2.08-.14 4.16-.24 6.24-.26 30.01.01 60.02.01 90.03.01 5.03.01 10.06-.13 15.07.24-2.47 1.37-5.19 2.41-8.07 2.26-29.34-.03-58.69-.01-88.03-.01-5.13-.12-10.74.9-15.24-2.24zm117.73 11.88c.03-3.8.19-7.62-.31-11.4 1.65 1.31 3.73 1.69 5.79 1.62 44.38-.06 88.75.05 133.12-.07 0 3.32-.01 6.63-.01 9.94-46.2-.06-92.39.13-138.59-.09m5.96-7.77c-3.06 1.43-.9 6.2 2.19 4.88 3.03-1.46.89-6.15-2.19-4.88m13.99-.04c-2.94 1.59-.94 6.19 2.22 4.92 3.03-1.5.87-6.07-2.22-4.92m23.74-.66c-.46 1.85-2.3 4.42.26 5.57 2.29.88 4.28-1.37 3.63-3.6-1.22-.82-2.57-1.38-3.89-1.97m14.26.7c-3.03 1.46-.92 6.13 2.17 4.9 3.06-1.44.95-6.19-2.17-4.9m17.01 0c-3.06 1.46-.88 6.18 2.21 4.88 3.01-1.47.86-6.15-2.21-4.88m13.7-.69c-.45 1.38-1.06 2.74-1.15 4.21 1.08 2.24 5.04 1.89 5.05-.78.51-2.32-2.46-2.56-3.9-3.43m20.29.7c-3.05 1.47-.9 6.15 2.19 4.88 3.03-1.38.84-6.24-2.19-4.88m14.01-.02c-3.04 1.49-.92 6.15 2.19 4.91 3.03-1.48.89-6.16-2.19-4.91zm36.21-3.87l.12-.15c-.15 1.93-.21 3.86-.07 5.79-.94-.88-1.94-1.67-2.99-2.39-.39.8-1.19 2.39-1.58 3.19l-.3-4.31c1.22-.21 2.44-.44 3.65-.7.29-.36.88-1.07 1.17-1.43zm17.17.27c-.36 3.81-.23 7.65-.18 11.47-4.98.01-9.96.01-14.93-.01-.01-3.32-.01-6.64.12-9.96 4.93-.33 10.65 1.57 14.99-1.5zm1.92-.22c.46-.06 1.38-.18 1.84-.23.02 4.83.21 9.67-.25 14.49-2.68-4.28-1.28-9.51-1.59-14.26zm4.5 1.66c-1.74-2.7 4.32-2.69 2.65.01-.67 0-1.99-.01-2.65-.01zM20.83 13.57c7.02-2.93 14.44-5.27 22.04-5.95 13.81.9 27.67-.08 41.49.63-1.1.94-2.21 1.87-3.31 2.81-12.21.29-24.49-.64-36.66.48-1.31.38-2.62.75-3.93 1.13-2.32.53-4.61 1.13-6.92 1.69-1.32.35-2.64.68-3.97 1-1.19.33-2.38.65-3.58.96.01.48.02 1.43.03 1.91 2.48-.43 4.94-.99 7.4-1.55 2.65-.75 5.33-1.39 8.02-1.99 1.31-.41 2.62-.79 3.93-1.19 2.84-.52 5.74-.62 8.62-.59 9.11.1 18.22-.03 27.33.08 0 5.18 0 10.35.06 15.53 1.91.71 3.83 1.42 5.75 2.12-4 .26-8.06.89-12.05.21-3.46-2.48-6.11-5.92-9.21-8.81-15.05-.15-30.11.03-45.16-.11.06-2.78.11-5.57.12-8.36z"></path><path d="M83.65 15.03c-.23-4.83 4.96-6.09 8.22-8.28.11 2.76.18 5.53.23 8.3-2.82 0-5.63 0-8.45-.02zm128.68-7.98c3.03-1.47.02 3.34 0 0zm151.62 1.17c1.58-.12 3.17-.23 4.76-.41.21 3.38.16 6.76.16 10.14-1.72-.01-3.44-.02-5.15-.04.09-3.23.16-6.46.23-9.69zm-269.57.89c2.46 1.47 5.13 2.54 7.83 3.49-.17 2.95-.24 5.91-.32 8.87-2.51-1.11-5.03-2.17-7.57-3.21 0-3.05.02-6.1.06-9.15zm9.89 2.77c11.24.64 22.51.47 33.77.48 22.19-.98 44.41.94 66.59-.56-.32 3.37-.27 6.75-.26 10.12-33.41-.05-66.82.09-100.22-.07-.03-3.33-.03-6.65.12-9.97m4.13 2.7c.49.59 1.47 1.79 1.95 2.39 11.77-.04 23.53-.03 35.29 0 .5-.59 1.48-1.75 1.97-2.34-1.43-.84-2.83-1.94-4.59-1.86-8.02-.35-16.06.01-24.08-.13-3.58.1-7.55-.51-10.54 1.94m51.99.03c.49.59 1.46 1.77 1.95 2.35 11.76-.02 23.52-.03 35.28.01.5-.58 1.5-1.74 1.99-2.32-1.41-.84-2.78-1.97-4.52-1.89-8.03-.3-16.06-.01-24.09-.13-3.59.14-7.62-.52-10.61 1.98zm46.37-2.64c2.47.01 4.94.02 7.41.01.1 2.07.16 4.13.23 6.19-2.56 1.06-5.13 2.09-7.72 3.05-.05-3.09-.04-6.17.08-9.25zM13.38 14.51c1.51-.17 3.03-.32 4.55-.47-.02.56-.05 1.69-.06 2.25a70.77 70.77 0 01-3.04-1.19c-.36-.15-1.09-.44-1.45-.59zm343.63-1.02c.32.63.95 1.9 1.27 2.54l2.63.12.84-2.49c-.05 1.41-.11 2.82-.16 4.23-1.47-.01-2.93-.03-4.39-.04-.07-1.46-.13-2.91-.19-4.36zm13.84.41c1.17 1.01 2.4 1.94 3.79 2.63.28-.7.83-2.11 1.11-2.81-.19 1.41-.36 2.82-.54 4.23h-3.99c-.12-1.35-.24-2.7-.37-4.05zM6.02 16.02c1.69-.03 3.37-.06 5.06-.08.01 11.57.09 23.15-.05 34.72-1.96.02-3.91.05-5.86.09.64-2.89 1-5.84.95-8.79-.09-8.65.03-17.3-.1-25.94zm78 .92c2.67.01 5.34.01 8.02.02 0 1.32 0 2.64.01 3.97H84c.01-1.33.02-2.66.02-3.99zm10.27 3.43c2.59 1.13 5.18 2.27 7.79 3.37-.03 3.13-.08 6.26-.15 9.39-2.59.92-5.18 1.84-7.75 2.8.19-5.18.16-10.37.11-15.56zm-10.2 2.56c2.66.07 5.31.13 7.97.17 0 2.51-.01 5.03-.01 7.54-2.76-1.05-5.48-2.21-8.19-3.39.08-1.44.15-2.88.23-4.32zM26.3 27.36c12.88-.1 25.76-.04 38.64-.07-.01 7.8.22 15.6.06 23.39-12.8-.04-25.6.07-38.39-.06.3-6.9.1-13.82.62-20.72-.47-.64-1.41-1.92-1.88-2.55l.95.01m8.07 7.5l-2.12.24c-.38.46-1.14 1.36-1.52 1.82.41.53 1.22 1.59 1.63 2.12.56.01 1.68.04 2.24.05.79.76 1.59 1.52 2.39 2.28l2.46-2.34c4.37-.02 8.73-.02 13.09 0 .83.78 1.65 1.56 2.48 2.34.79-.76 1.58-1.51 2.38-2.27.56-.02 1.68-.07 2.24-.09.41-.51 1.22-1.53 1.63-2.04-.39-.48-1.16-1.44-1.54-1.92-.58-.01-1.74-.04-2.32-.05-.79-.81-1.59-1.63-2.39-2.44-.82.82-1.65 1.64-2.47 2.47-4.29.03-8.59.06-12.88-.08-.86-.7-1.76-1.37-2.67-1.99-.9.6-1.78 1.23-2.63 1.9zm-13.45-4.85c1.43-.08 2.87-.17 4.3-.25-.75 5.54-.49 11.13-.6 16.7-.93-.02-2.81-.07-3.75-.09-.09-5.46-.12-10.91.05-16.36zm46.07 1.58c1.84 1.76 3.65 3.55 5.43 5.36 6.55.01 13.1-.07 19.66.12-.05.49-.16 1.48-.21 1.98-5.76 0-11.52-.01-17.29.01-1.85 1.41-3.73 2.77-5.57 4.19-.33 2.8.91 6.34-1.63 8.39-.77-6.66-.36-13.37-.39-20.05z"></path><path d="M36.17 36.16c1.62-.52 2.18.03 1.66 1.66-1.63.53-2.18-.03-1.66-1.66zm18.02-.02c1.64-.48 2.18.09 1.62 1.71-1.65.47-2.18-.1-1.62-1.71zm49.78.85c33.48.03 66.96.06 100.45-.01 0 4.56-.1 9.11-.04 13.67-13.1.08-26.2-.02-39.29.05-.1-1.47-.19-2.93-.28-4.4-20.23.03-40.46.02-60.7.01.02-3.11-.02-6.21-.14-9.32m32.4 2.22c-.42.43-1.25 1.3-1.67 1.73l1.64 2.08h35.32c.41-.52 1.23-1.57 1.64-2.1l-1.67-1.71c-11.76.05-23.51.05-35.26 0zm259.31 12.52c-.93-4.99-2.07-10.81.56-15.45.24 5.12 1.16 10.5-.56 15.45zM94.16 41.31c2.61-1.11 5.23-2.24 7.7-3.64.23 3.01.22 6.03.21 9.04-2.59 1.13-5.16 2.3-7.73 3.48 0-2.96.01-5.92-.18-8.88zm112.45-3.92c2.44 1.54 4.99 2.89 7.58 4.16.04 3.02.11 6.05.09 9.07-2.55.04-5.09.06-7.64.07.02-4.43-.05-8.87-.03-13.3zm10.01.97c46.13-.1 92.26.13 138.39-.12-.01 4.15.04 8.3.01 12.44-46.14.01-92.28-.03-138.42.02-.04-4.11-.41-8.24.02-12.34m.58 1.79c-.07.24-.2.71-.27.95 45.3-.15 90.6-.11 135.91-.02-1.38-1.21-2.97-2.18-4.88-1.98-40.66-.06-81.32.04-121.98-.05-2.93.11-6.13-.47-8.78 1.1m3.73 5.4c1.13 2.01 3.99 1.99 5.13 0 .07-1.76-1.12-3.74-3.06-3.67-1.89.17-1.77 2.29-2.07 3.67m15.37-4.4c-.48 1.46-1.03 2.91-1.31 4.42 1.03 2.27 5 1.86 5.05-.72.45-2.32-2.21-2.86-3.74-3.7m25.56 5.88c3.49-.19 2.46-5.8-.88-5.16-2.74.75-2.47 5.86.88 5.16m11.09-1.46c1.13 2.01 4.01 1.95 5.12-.04.08-1.81-1.37-3.57-3.08-3.97-1.5.55-1.86 2.59-2.04 4.01m17.2-1.53c-1.24 2.91 3.77 4.24 4.89 1.54-.18-1.42-.52-3.45-2-4.03-1.31.19-2.28 1.41-2.89 2.49m14.55-2.39c-.84 2.09-1.15 5.91 2.19 5.38 2.98-.3 1.74-3.43 1.14-5.28-.83-.03-2.5-.08-3.33-.1m20 .04c-.28 1.33-.59 2.65-.74 4 1.23.8 2.59 1.37 3.93 1.96 1.06-1.92.84-3.98.11-5.96h-3.3m14.7 5.2c2.23 1 3.19-1.33 4.25-2.82-.97-.95-1.95-1.89-2.92-2.84-1.73 1.26-4.4 4.19-1.33 5.66zm53.42-8.02c-.33 3.91-.24 7.84-.21 11.77-5 .06-10 .05-15 .01.06-3.22.11-6.45.18-9.67 4.36-.01 8.76.44 13.09-.22.48-.47 1.45-1.42 1.94-1.89zM75.58 41.01c5.49-.09 10.98-.07 16.48-.06 0 3.25-.01 6.49-.03 9.73H70.9c.05-2.07-.02-4.16.3-6.21 1.34-1.3 2.91-2.32 4.38-3.46m-1.6 5.01c.63.96 1.29 1.89 2 2.8.73-.91 1.42-1.85 2.07-2.81a45.81 45.81 0 00-2.11-2.86c-.69.93-1.34 1.89-1.96 2.87m11.57-.04c.81.82 1.62 1.64 2.43 2.45.82-.81 1.64-1.61 2.46-2.42-.8-.82-1.61-1.63-2.41-2.44-.83.8-1.65 1.61-2.48 2.41zm278.21-5.01c1.59.02 3.18.03 4.78.03.05 2.42.11 4.83.25 7.24.04.61.11 1.82.14 2.43-1.66 0-3.31.01-4.96.02-.07-3.24-.08-6.48-.21-9.72zm-6.81 9.7c.11-1.75.23-3.5.38-5.25.2.66.61 1.97.81 2.63.71 0 2.12.01 2.83.02.18-.62.52-1.85.69-2.47 0 1.67-.02 3.33-.03 5-1.57.02-3.13.04-4.68.07zm13.9-4.8c1.15 1.01 2.38 1.93 3.73 2.67.26-.71.78-2.12 1.04-2.82-.11 1.66-.2 3.32-.27 4.98-1.4-.01-2.79-.02-4.18-.02-.1-1.6-.21-3.21-.32-4.81zM32.23 53.2c9.87.2 19.78-.39 29.64.34-.47.25-1.41.74-1.88.98-8.45.35-16.92-.16-25.37.24l-.55.02c-.46-.39-1.38-1.18-1.84-1.58zm81.02.31c7.86-.64 15.77-.15 23.65-.3l.04 1.44c-7.16-.21-14.35.33-21.5-.3-.55-.21-1.65-.63-2.19-.84zm26.27-.6c.96-.01 2.88-.03 3.84-.05.04 2.18.09 4.35.16 6.52.72.93 1.44 1.85 2.16 2.79-2.09-.36-4.16-.84-6.19-1.46.03-2.6.03-5.2.03-7.8zm21.2.54c1.64-.73 2.38-.2 2.2 1.57-1.43.46-2.17-.06-2.2-1.57zm4.31-.25c15.88 0 31.75.05 47.63-.02-.32.36-.97 1.1-1.29 1.47-15.46-.06-30.92-.06-46.38 0l.04-1.45zm.28 13.53c11.57.06 23.15-.04 34.72.02 1.59-.24 2.76.74 3.84 1.75-12.95.48-25.92.13-38.87.18.07-.49.23-1.47.31-1.95zm-.03 14c9.23.04 18.47.02 27.7.01 4.24.06 8.62-.51 12.68 1.04-3.14.82-6.39 1.08-9.63 1.02-10.34-.16-20.68-.04-31.02-.1.07-.5.2-1.48.27-1.97z"></path><g fill="#3b3c3b"><path d="M399.21 7.89c.66 0 1.98.01 2.65.01.16 4.7.15 9.41.1 14.11-.8-.04-2.4-.13-3.2-.17.24-4.65.39-9.3.45-13.95zM13.09 14.4l.29.11c.36.15 1.09.44 1.45.59 1.01.42 2.02.82 3.04 1.19.22 11.48.12 22.96.05 34.44-1.52-.05-3.03-.09-4.54-.14-.22-12.06.31-24.14-.29-36.19zm198.51 7.2c2.7-.94 5.48-1.73 8.36-1.71 45.36.07 90.72-.01 136.08.05 9.48.19 18.99-.43 28.45.45-2.06.89-4.21 1.68-6.48 1.61-45.67-.09-91.34-.01-137.02-.04-9.79-.14-19.61.35-29.39-.36zm-107.31 2.1c5.21 2.39 10.21 5.22 14.96 8.44-5.04.36-10.1.33-15.15.14.06-2.86.12-5.72.19-8.58zm12.49.54c8.97-.5 17.97-.4 26.95-.17-4.11 2.48-8.1 5.22-12.49 7.21-.96.54-1.97-.29-2.85-.61-3.89-2.11-7.65-4.44-11.61-6.43zm48.69-.04c8.77-.44 17.56-.4 26.33-.08-3.66 2.32-7.35 4.61-11.22 6.58-.9.34-1.88 1.14-2.84.51-4.29-1.96-8.23-4.6-12.27-7.01zm-23.16 7.89c3.81-3.01 8.11-5.3 12.46-7.44 4.21 2.41 8.51 4.69 12.47 7.52-8.31.33-16.64.45-24.93-.08zm47.71-.01c4.54-3.1 9.31-5.87 14.35-8.1.02 2.81.03 5.61.03 8.41-4.79.08-9.6.07-14.38-.31zm208.97 2.29c.75-.01 2.24-.05 2.98-.06.09 5.47.04 10.94-.09 16.41-.68.05-2.04.14-2.72.18-.09-5.51-.31-11.02-.17-16.53zm-185.33.33c51.45.01 102.9-.01 154.34.01 5.21.01 10.5-.46 15.62.8-2.5.34-5.02.58-7.54.61-54.1-.05-108.21-.04-162.31-.01l-.11-1.41zm-52.98 18.15l.04.6c.03 1.51.77 2.03 2.2 1.57-.09 3.23-.17 6.45-.2 9.68-9.31.11-18.61.23-27.91-.09-5.14 7.52-9.27 15.67-14.23 23.29-6.03-1.79-11.01-5.92-16.72-8.48 3.1-5.67 6.57-11.12 9.88-16.67 1.65-2.49 1.59-5.54 1.7-8.4 7.15.63 14.34.09 21.5.3.12 2.42.23 4.84.34 7.27 2.43 1.08 4.94 2.2 7.66 2.23 5.19.21 10.68.52 15.43-2 .04-3.1.13-6.2.31-9.3zM34.62 54.76c8.45-.4 16.92.11 25.37-.24.7 3.3 2.18 6.62 5.54 7.9 15.11 7.41 30.27 14.76 44.88 23.12 3.19 1.98 6.86 3.15 9.82 5.5.03 1.78-.16 3.56-.3 5.34-5.81-1.91-11.09-5.06-16.58-7.69C80.4 77.47 57.39 66.35 34.62 54.76zm130.37-.11c15.46-.06 30.92-.06 46.38 0-2.19 3.17-4.12 6.77-7.33 9.03-3.3.53-6.65.28-9.98.28-.03-1.33-.07-2.67-.1-4-.47-.01-1.42-.02-1.89-.02-.07 1.35-.14 2.71-.2 4.06h-1.72c-.1-1.22-.21-2.44-.31-3.66-1.13-1.22-2.26-2.46-3.37-3.7-2.58.32-4.68 1.79-6.51 3.53-.02 1.28-.03 2.55-.05 3.83h-1.81c-.06-1.35-.11-2.7-.16-4.05-.47 0-1.42-.02-1.9-.02l-.15 3.98c-3.63-.01-7.26.09-10.88.38 0-3.22 0-6.43-.02-9.64z"></path><path d="M182.08 61.31c.96-.88 1.92-1.76 2.89-2.64.98.87 1.97 1.73 2.96 2.6.03.67.07 2.02.09 2.69h-6.06l.12-2.65m2.06-.13c-.5 1.63.06 2.18 1.69 1.63.49-1.63-.07-2.18-1.69-1.63zM165 68.68c12.95-.05 25.92.3 38.87-.18-.26 1.92-.5 3.84-.73 5.76-12.7.09-25.4.06-38.1.02-.02-1.87-.04-3.74-.04-5.6zm40.66 13.1l.2-.05c-.36 4.94-.25 9.89-.25 14.83-13.49-.02-26.99-.08-40.49.04-.12-4.63-.14-9.27-.11-13.9 10.34.06 20.68-.06 31.02.1 3.24.06 6.49-.2 9.63-1.02z"></path></g></svg>