<svg data-v-ea210746="" xmlns="http://www.w3.org/2000/svg" viewBox="0 0 64 64" fill="#fff" class="ui-icon max-h-full w-full" style="fill: rgb(255, 133, 85); opacity: 1;"><path fill="#000" d="M25.19 57.83l-1.1.25q-.52.13-1-.11c-4.16-2.05-6.25-5.33-7.04-9.79-.55-3.05-2.75-2.6-4.25-4.47-2.21-2.76-1.54-5.99-2.22-9.22q-1.04-4.98-2.04-10a3.73 3.72-38.2 01.28-2.31q2.02-4.37 4.09-9c2.2-4.93 5.9-6.86 10.93-7.86 7.14-1.41 24.55-2.09 28.4 6.24q2.63 5.69 5.07 11.07a2.9 2.88 39.8 01.18 1.92q-2.06 8.47-2.82 15.81-.24 2.27-2.06 3.95c-.79.72-1.7.75-2.53 1.34q-.45.32-.54.87c-.82 5.15-2.52 9.71-7.89 11.64q-.6.21-1.21 0l-.81-.28a.86.86 0 00-.93.25q-2.02 2.35-5.25.93a1.16 1.15-44 00-.91-.01q-3.13 1.33-5.27-.9-.45-.47-1.08-.32m12.41-6.55q1.1-.22 1.95.59.48.45.47 1.11l-.01 2.07a.64.64 0 00.95.56c3.78-2.11 4.97-6.25 5.46-10.32a1.53 1.5-16.8 01.54-.99c1.8-1.49 4.32-1.47 4.55-4.38q.6-7.65 2.7-15.4.15-.55-.08-1.06-1.99-4.56-4.56-10.14c-1.88-4.07-6.69-5.55-10.79-6.12-6.11-.84-20.77-.99-23.77 5.07q-2.27 4.6-4.61 9.93-.69 1.59-.28 3.28 1.84 7.42 2.44 14.95a2.62 2.62 0 001.56 2.2c1.56.69 3.25 1.45 3.68 3.3.92 3.95 1.81 7.38 5.53 9.64q.63.38.64-.35l.01-1.94q0-1.42 1.32-1.95.27-.11.53-.12 1.61-.03 1.82 1.57.21 1.62.08 3.3a1.19 1.19 0 00.74 1.2q.41.17.85.07.53-.12.55-.67l.16-3.64a1.85 1.84-1.6 011.66-1.75c2.84-.29 2.4 3.54 2.39 5.35a.73.72 9.7 00.49.68q.34.11.65.03.99-.27 1-1.3l.06-3.19a1.65 1.65 0 011.32-1.58"></path><path d="M37.6 51.28a1.65 1.65 0 00-1.32 1.58l-.06 3.19q-.01 1.03-1 1.3-.31.08-.65-.03a.73.72 9.7 01-.49-.68c.01-1.81.45-5.64-2.39-5.35a1.85 1.84-1.6 00-1.66 1.75l-.16 3.64q-.02.55-.55.67-.44.1-.85-.07a1.19 1.19 0 01-.74-1.2q.13-1.68-.08-3.3-.21-1.6-1.82-1.57-.26.01-.53.12-1.32.53-1.32 1.95l-.01 1.94q-.01.73-.64.35c-3.72-2.26-4.61-5.69-5.53-9.64-.43-1.85-2.12-2.61-3.68-3.3a2.62 2.62 0 01-1.56-2.2q-.6-7.53-2.44-14.95-.41-1.69.28-3.28 2.34-5.33 4.61-9.93c3-6.06 17.66-5.91 23.77-5.07 4.1.57 8.91 2.05 10.79 6.12q2.57 5.58 4.56 10.14.23.51.08 1.06-2.1 7.75-2.7 15.4c-.23 2.91-2.75 2.89-4.55 4.38a1.53 1.5-16.8 00-.54.99c-.49 4.07-1.68 8.21-5.46 10.32a.64.64 0 01-.95-.56l.01-2.07q.01-.66-.47-1.11-.85-.81-1.95-.59M25.8 30.31l-8.04-3.63a1.51 1.51 0 00-2 .76l-.35.77a7.02 5.77-65.7 002.37 8.77l.28.13a7.02 5.77-65.7 008.14-4.03l.35-.77a1.51 1.51 0 00-.75-2m19.88-3.51l-7.79 3.37a1.72 1.72 0 00-.89 2.26l.26.6a6.97 5.82 66.6 008.11 4.08l.25-.11a6.97 5.82 66.6 002.58-8.71l-.26-.59a1.72 1.72 0 00-2.26-.9M28.24 46.25l7.2.08a.29.29 0 00.29-.29v-.24a9.17 3.72-89.4 00-3.62-9.21h-.34a9.17 3.72-89.4 00-3.82 9.13v.24a.29.29 0 00.29.29"></path><path fill="#000" d="M25.8 30.31a1.51 1.51 0 01.75 2l-.35.77a7.02 5.77-65.7 01-8.14 4.03l-.28-.13a7.02 5.77-65.7 01-2.37-8.77l.35-.77a1.51 1.51 0 012-.76zm19.88-3.51a1.72 1.72 0 012.26.9l.26.59A6.97 5.82 66.6 0145.62 37l-.25.11a6.97 5.82 66.6 01-8.11-4.08l-.26-.6a1.72 1.72 0 01.89-2.26zM28.24 46.25a.29.29 0 01-.29-.29v-.24a9.17 3.72-89.4 013.82-9.13h.34a9.17 3.72-89.4 013.62 9.21v.24a.29.29 0 01-.29.29z"></path></svg>