<svg data-v-ea210746="" viewBox="0 0 582 102" xmlns="http://www.w3.org/2000/svg" fill="#7e7f7e" class="ui-icon max-h-full w-full" style="fill: rgb(57, 102, 57); opacity: 1;"><g fill="#000"><path d="M5.35 1.48c3.37-.53 6.9-.26 9.96 1.33.58 1.93 1.05 3.9 1.22 5.92 18.51 3.87 36.83 8.6 55.14 13.32.4-1.64.91-3.25 1.53-4.82 2.42-.86 4.95-1.06 7.29.17.38 1.05.77 2.1 1.16 3.14 3.8-.16 7.61.1 11.4-.16 2.01-.66 3.7-2.33 5.94-2.16 2.56-.44 4.66 1.15 6.85 2.14 4.77.33 9.56-.02 14.34.13 2.95-3.42 8.49-2.93 11.65-.06 2.19.05 4.39.08 6.58.14.38-1.06.77-2.13 1.15-3.19 3-1.54 6.75-1.09 8.61 1.93 7.73-2 14.92-5.95 22.84-7.16 23.98-.45 47.98.11 71.97-.21 2.26-.12 4.47.43 6.48 1.46.22.62.64 1.85.85 2.46 14.88.52 29.77.05 44.65.25 3.88.42 7.16-2.4 11.04-2 6.04.35 12.26-.7 18.19.66 3.91 3.26 8.79 5.14 13.84 5.67 29.02.03 58.05.02 87.07 0 .19-.68.57-2.03.76-2.7 4.67-.37 10.3.32 13.2 4.48 8.3-.06 16.72.78 24.92-.93 8.83-1.6 17.69-3.05 26.51-4.67 8.43-1.69 17.15-1.41 25.63-.24 19.04 4.03 38.06 8.17 57.08 12.26 3.22.81 8.08 2.19 7.71 6.42-.61 3.56-4.69 5.05-7.82 5.73-19.75 4.22-39.46 8.64-59.24 12.67-8.29.68-16.77.92-24.93-.95-10.03-1.74-20.06-3.52-30.09-5.26-6.6-.65-13.25-.2-19.87-.14-.78 4.58-6.43 4.2-10.01 4.78-2.1.49-3.57-1.06-4.1-2.91-1.56-.04-3.11-.05-4.66-.06-.03 2.07-.07 4.15-.09 6.23-11.69.88-23.45.11-35.16.41-.11 2.97.34 6.3-1.54 8.86-3.38 5-9.23 7.21-14.55 9.47-.07 8.92.22 17.85-.18 26.77-7.77.5-15.57.38-23.34.07-.7-9.19.31-18.47-.51-27.63-2.02-2.53-5.23-4.5-5.31-8.11.09-2.73 2.69-3.87 4.53-5.33 1.7-1.12-.48-2.83-1.05-3.93-1.5-.28-3.24-.14-4.42-1.28-.49-1.87-.29-3.84-.37-5.76-6.48 1.37-12.59 4.42-19.31 4.67-6.86.17-13.73.05-20.59.03-.65 3.18-2.04 6.27-5.01 7.9-.12 9.22.1 18.44-.08 27.66.12 3.43-2.53 6.3-5.43 7.71-4.58.49-9.23.4-13.83.3-3.91-.02-7.26-3.19-7.62-7.06-.61-9.59.49-19.31-.53-28.86-2.17-2.14-4.2-4.45-4.28-7.69-3.62.1-7.24.09-10.86.08-.83 2.49-2.98 4.17-5.67 3.97-22.68.09-45.36-.02-68.03.05-10.26.72-19.35-4.79-28.92-7.53-1.11 1.15-2.24 2.29-3.36 3.43-.37 3.09-2.02 6.81-5.73 6.55-5.1-.89-9.63-4.21-15-4.04-8.32.01-16.7-.48-24.99.33-4.78.36-8.86 4.46-13.73 3.42-4.33-1.57-3.92-7.11-3.38-10.81-.77 2.14-2.16 4.54-4.85 4.14-3.05.59-4.45-2.45-5.15-4.83-18.38 4.29-36.67 9.04-55.24 12.49-.1 2.79-.74 6.07-3.74 7.1-2.99.52-6.26.71-9.13-.41-2.85-1.69-2.52-5.37-2.64-8.21.01-17.02-.11-34.04.07-51.05C.87 5.2 2.5 2.21 5.35 1.48m-.89 5.65c.09 17.63.04 35.27.02 52.9.02 1.56.28 3.1.54 4.64 2.42.03 4.87.23 7.29-.14 1.1-1.63.91-3.67.97-5.54-.39-17.22-.03-34.45-.16-51.68.05-1.32-.35-3.38-2.06-3.34-2.7-.36-6.35-.42-6.6 3.16m10.2 4.67c.15.52.46 1.54.61 2.05-.09 6.74.34 13.47-.07 20.2.02.49.04 1.46.06 1.95.05 3.6.16 7.2-.13 10.79.07.44.22 1.31.29 1.75-.19 3.01-.11 6.03-.01 9.05 3.23-.61 6.45-1.27 9.7-1.76 2.34-.36 4.65-.94 6.9-1.71 4.71-.93 9.37-2.14 14.06-3.19 1.09-.03 2.18-.06 3.28-.08l-.03-.81c2.08-.38 4.15-.81 6.2-1.34l.62.11c2.02-.44 4.02-1 5.96-1.72 3.29-.56 6.47-1.63 9.73-2.37.06-.7.19-2.08.25-2.78L72 39.01c.04-2.02.04-4.04 0-6.06l-.24-1.18c.11-1.41.2-2.82.27-4.23 0-.58-.02-1.72-.02-2.3-2.49-.72-5.01-1.28-7.51-1.95-2.53-.65-5.04-1.44-7.67-1.41l-.14-.59c-.55.1-1.65.28-2.2.37-.51-1.85-2.65-1.66-4.02-2.41-1.37-.25-2.88-.18-4.02-1.1-1.67-.21-3.51.09-4.97-.94-7.35-1.37-14.68-2.97-21.95-4.73-1.58-.5-3.24-.55-4.87-.68m147.84 5.87c-.98.31-1.96.66-2.92 1.03-1.67.69-3.38 1.27-5.08 1.87-2.35 1.28-8.18 1.01-7.34 4.67-.01.7-.04 2.11-.06 2.82 1.59.5 3.25.78 4.93.72 15.33-.1 30.66.02 45.99-.05 3.9.25 6.04-4.34 9.96-3.98 13.03-.02 26.07-.01 39.1 0 .4-2.91.37-5.86.84-8.76l-.42.49c-1.99-1.22-4.35-.89-6.55-.93-22.67.06-45.34-.02-68.01.04-3.59-.03-7.19.47-10.44 2.08m137.02 2.68l-.15-.05.04 2.42c3.25 3.49 8.23 2.49 12.5 2.6 3.91-.16 7.97.5 11.74-.73 1.76-.59 1.95-2.48 2.2-4.04-1.21-2.04-3.39-3.63-5.84-3.54-5.02-.01-10.05-.01-15.07.01-2.31-.07-4.4 1.28-5.42 3.33m-50.08.58c.58 5 .31 10.05.39 15.08-.02.49-.08 1.47-.1 1.97.06 3.38.11 6.77-.01 10.15l2.15 2.24c21.35-.56 42.69-.14 64.04-.04 6.62.27 12.76-2.42 18.99-4.2.1-2.64.15-5.29.1-7.93l-.08-2.21c-.07-4.2.74-8.61-.38-12.68-1.96-.96-4.13-1.39-6.2-2.03-1.13 2.76-3.05 5.72-6.34 5.92-5.98.34-11.99.18-17.97.1-3.59-.02-6.4-2.72-6.86-6.22l.16-2.06c-14.81-.02-29.62-.01-44.43 0-1.54-.32-2.45 1.04-3.46 1.91m241-1.41c-9.12 2.08-18.41 3.32-27.56 5.27-1.23.2-1.9.94-2.01 2.21.15 1.92.16 3.86.43 5.77.97 1.65 3.12 1.07 4.71 1.29 8.34.01 16.68-.04 25.02.01 1.61-.18 3.78.37 4.75-1.34.46-3.62-.02-7.28.36-10.91-.57-2.57-3.56-2.97-5.7-2.3m9.45 2.28c.39 9.4.09 18.82.19 28.22 1.69.36 3.39.74 5.09 1.15.91-.57 2.78-.71 2.58-2.2.15-9.65-.1-19.31.11-28.96-2.75-1.54-7.28-2.35-7.97 1.79m13.19-2.8c-.37.99-.73 1.98-1.08 2.97.15 3.57-.16 7.16.24 10.71 1.08 2.1 3.81 1.16 5.71 1.43 17.08-.39 34.21.55 51.27-.54 1.61.37 3.29.12 4.93.06-1.34-2.07-4.09-1.98-6.2-2.68-18.33-3.78-36.51-8.39-54.87-11.95m-437.3.79c-.14 9.77-.35 19.6.16 29.35 2.23 1.84 2.58-1.64 2.39-3.1-.27-7.04-.35-14.09-.06-21.12-.16-2.16 1.15-6.21-2.49-5.13m66.17-.11c-.14 9.82-.48 19.68.16 29.49.52.02 1.57.04 2.09.05.36-9.69.28-19.42.1-29.11-.59-.11-1.77-.33-2.35-.43m-18.53 3.41c-.23 9.62.03 19.25-.13 28.87 1.61.1 3.23.18 4.84.27.07-10.34.38-20.72-.12-31.05-1.49.38-4.54-.39-4.59 1.91m305.26-2.26l.04 2.31c-.39 4.24-.02 8.5.02 12.75-.03.53-.1 1.61-.13 2.14-.02 3.54-.04 7.08-.04 10.62 2.08-.25 4.21-.35 6.21-1.05 1.17-2.93.36-6.33.64-9.44-.04-.5-.1-1.49-.13-1.98.06-4-.12-8.01.21-12-.48-3.31-4.26-3.29-6.82-3.35m-331.7 2.96c.35 9.42.02 18.85.21 28.28 1.61.06 3.23.12 4.84.19.06-9.52-.62-19.07.13-28.57.19-2.94-5.54-2.8-5.18.1M80.3 44.88c4.91.21 9.82.21 14.72.04-.01-1.91-.02-3.82-.04-5.72 0-.61-.02-1.83-.02-2.43.09-3.54.1-7.07.02-10.6-.02-.59-.08-1.75-.1-2.34-4.85.07-9.7-.18-14.53.22.02 6.94.06 13.88-.05 20.83m23.9-21.03c-.03.56-.1 1.68-.14 2.24-.01 3.59.02 7.18.04 10.77-.01.57-.02 1.7-.03 2.27.02 1.93.05 3.85.09 5.78 5.6.25 11.21.1 16.81 0 .02-1.94.06-3.88.16-5.82-.06-.53-.18-1.6-.23-2.13.14-3.63.12-7.26.12-10.89l.08-2.22c-5.64-.01-11.27-.03-16.9 0m26.4-.02c.08 1.4.17 2.79.27 4.19l-.62.61c.05 2.73.07 5.47.33 8.19-.01.59-.02 1.76-.03 2.34-.16 1.94-.19 3.89-.17 5.84 2.85.02 5.71.02 8.57.01l.03-5.84c-.01-.59-.02-1.77-.02-2.36.02-3.53.04-7.07.03-10.61-.03-.59-.08-1.77-.11-2.37-2.76.01-5.52.01-8.28 0m206.36.01c.02.54.06 1.62.07 2.16.12 3.32.12 6.65.15 9.97-.07.51-.22 1.52-.29 2.02.21 2.31.26 4.63.25 6.95 3.47.01 6.94.04 10.42.05.04-1.39.08-2.77.13-4.16l-.99-1.02c.21-1.26.47-2.52.78-3.77.19-2.42.2-4.85.19-7.27l-.93-.96c.2-1.33.41-2.66.64-3.99-3.47.02-6.95.02-10.42.02m13.13-.01c-.03 7.03-.04 14.07 0 21.1l6.98-.03c-.19-7.02.24-14.05-.24-21.07-2.25-.02-4.5-.02-6.74 0m9.71.01c-.06.56-.17 1.7-.23 2.26.01 3.29.05 6.59.15 9.88-.03.53-.11 1.59-.14 2.12-.01 2.29.04 4.57.12 6.86 13.53.13 27.05.15 40.58-.04.04-2.31.07-4.63.04-6.94-.02-.49-.07-1.48-.09-1.97.1-3.34.13-6.69.1-10.03l-.16-2.14c-13.46-.01-26.91 0-40.37 0m43.3-.03c-.09 7.02-.08 14.04.02 21.06 2.26.01 4.52.03 6.79.04.26-7.02.16-14.05.08-21.07-2.3-.03-4.6-.04-6.89-.03m9.2 21.05c4.51.06 9.05.44 13.53-.16 1.21-1.89.11-4.49.22-6.66.07-.48.21-1.46.28-1.95.08-3.47.05-6.94-.4-10.38 1.42-.16.2-1.88-.74-1.77-4.27-.26-8.56-.09-12.83-.02-.01 6.98.04 13.96-.06 20.94m25.79-19.68c-.01.4-.04 1.2-.05 1.59.34 2.3-.93 5.48 1.29 7.05 3.53.49 7.11.14 10.67.24 3.02-.06 6.24.49 9.03-1.02-.07-2.1-.11-4.2-.12-6.3v-1.56c-6.94.06-13.88.06-20.82 0m-231.62 1.8c-1.97 1.35-3.93 2.7-5.96 3.96-16.5-.01-33.01.01-49.52-.02-1.71-.25-3.19.5-4.46 1.57 1.9 1.37 4.24.88 6.42.92 15.68-.09 31.37.07 47.05-.07 1.94.59 3.96.81 5.98.75 13.7-.1 27.4.02 41.1-.06.26-1.9.47-3.81.69-5.71l-.98.18.51-1.49c-13.61-.13-27.22-.09-40.83-.03m-59.68 11.06c.19 2.48.08 4.97-.22 7.44 3.2 2.02 6.94 2.8 10.47 4.05 3.8 1.26 7.48 2.9 11.34 3.97 4.1 1.11 8.37.8 12.57.81 21.05-.01 42.09.01 63.14 0 1.42.23 3.23-.52 3.2-2.19.34-4.66-.13-9.34.32-14-.25-2.04-1.84-2.32-3.59-2.13-31.35 0-62.71-.1-94.07-.03-1.57-.33-2.33 1.07-3.16 2.08m291-.32c.15 2 .25 4 .34 6.01 6.92.11 13.84.03 20.76.1.04-2.04.11-4.08.27-6.12-.91-.78-1.81-1.75-3.13-1.54-5.04-.05-10.08-.06-15.12.02-1.32-.19-2.22.77-3.12 1.53m24.54-1.52l-1.4 1.6c.07 2.12.12 4.24.16 6.36 9.86 2.08 19.85 3.53 29.77 5.38 1.74.45 3.45-.17 5.1-.69-.05-3.71-.09-7.43.2-11.13-.91-.79-1.82-1.74-3.15-1.54-10.22-.06-20.45-.03-30.68.02m49.58 1.55c.27 4.13.12 8.27.17 12.41 9.87-1.11 19.41-4.11 29.18-5.81 9.63-2.42 19.55-3.79 29.07-6.55 1.36-.26 2.61-.88 3.9-1.41-18.72-.52-37.46-.06-56.18-.27-2.16.04-4.71-.38-6.14 1.63M85.09 48.09c-.11.47-.31 1.42-.41 1.9.25 2.13-.17 4.5 1 6.42 3.37.64 6.34-1.87 9.48-2.71-.16-.34-.48-1.02-.64-1.35.16-1.43.33-2.85.51-4.27-3.31-.06-6.64-.26-9.94.01M104.2 48c-.04.64-.13 1.91-.17 2.55 5.66-.09 11.33-.03 16.99-.05l.08-2.48c-5.63-.07-11.27-.05-16.9-.02m25.53.09c.16.51.48 1.51.64 2.01.21 1.16-.93 3.31.78 3.69 2.98.9 5.92 3.26 9.14 2.58 1.63-1.97.88-4.53-.23-6.54.07-.46.21-1.38.28-1.85-3.54-.01-7.08 0-10.61.11M340.77 48c-.49 3.29 3.14 2.38 5.23 2.55 23.68-.06 47.37.04 71.05-.06 0-.61-.01-1.85-.01-2.47-25.43-.12-50.85-.03-76.27-.02m-75.8 3.95c-.04.55-.1 1.65-.13 2.2.74 1.39 1.14 3.75 3.12 3.75 7.67.32 15.37.3 23.05.06 2.3.2 3.41-2.05 3.8-3.95.1-.47.29-1.43.39-1.9-10.07-.34-20.16-.08-30.23-.16M380.2 54.2c-.22 2.97.27 6.12-.8 8.95-2.97 3.27-7.76 4.56-12.08 3.96.05-3.06.04-6.11-.07-9.15 1.7 1.53 3.5 3 5.57 4.04-.65-1.53-1.38-3.03-2.27-4.43-.22-.87-.45-1.73-.66-2.6-7.74-.05-15.49-.02-23.23-.02.38.54 1.12 1.63 1.5 2.17.36 3.56-2.23 5.94-5.29 7.08-.05 3.01 2.25 4.92 4.25 6.79 6.33-.01 12.67.2 18.99-.07 4.98-1.03 9.88-3.4 13.54-6.99 2.73-2.47 1.88-6.39 2.03-9.66-.37-.01-1.11-.05-1.48-.07m-6.83 1.3c1.21 2.13 2.35 4.3 3.37 6.52-.02-2.18.17-4.4-.27-6.56l-3.1.04m-102.59 4.65c.15.48.44 1.42.59 1.89-.5 0-1.49-.01-1.98-.02.2 8.34.04 16.69.08 25.03.1 1.74-.09 3.83 1.36 5.09 1.5 1.77 3.95 1.58 6.03 1.71 3.1.05 6.24.26 9.32-.21 2.61-.34 4.03-3.2 3.77-5.62-.11-8.5.11-17.01-.14-25.5a6.28 6.28 0 01-1.56-2.38c-5.82-.35-11.66-.25-17.47.01m79.24 12.89l.04 2.22c-.44 0-1.33-.01-1.78-.02.14 6.74.09 13.48.04 20.22 1.17.79 2.07 2.42 3.69 2.23 3.32.04 6.65.04 9.98 0 1.63.22 2.48-1.43 3.63-2.25-.05-6.73-.08-13.46.03-20.19-.35 0-1.06.01-1.42.01-.12-.56-.35-1.68-.47-2.24-4.58-.17-9.16.1-13.74.02z"></path><path d="M265.78 24.16c9.7.04 19.41-.02 29.11.06.11 3.93.01 7.86.16 11.79.07 1.23.16 2.47.25 3.71-.16 1.33-.33 2.67-.49 4.01-9.69-.07-19.38-.13-29.06.03-.31-6.53-.23-13.07.03-19.6m2.15 1.75c-.19 2.57-.27 5.14-.22 7.71-.38 2.6-.01 5.25.03 7.87 8.4.27 16.81.11 25.21.09.09-4.5.15-9.01 0-13.51.03-.54.08-1.62.11-2.16h-25.13z"></path></g><path d="M4.46 7.13c.25-3.58 3.9-3.52 6.6-3.16 1.71-.04 2.11 2.02 2.06 3.34-2.7-1.77-5.81-1.24-8.66-.18zm10.2 4.67c1.63.13 3.29.18 4.87.68 7.27 1.76 14.6 3.36 21.95 4.73 1.46 1.03 3.3.73 4.97.94 1.14.92 2.65.85 4.02 1.1 1.37.75 3.51.56 4.02 2.41-3.3.63-6.47-.73-9.66-1.33-3.1-.6-6.24-1-9.29-1.86-6.67-1.91-13.64-2.56-20.27-4.62-.15-.51-.46-1.53-.61-2.05zm147.84 5.87c3.25-1.61 6.85-2.11 10.44-2.08 22.67-.06 45.34.02 68.01-.04 2.2.04 4.56-.29 6.55.93-.81 1.19-2.04 1.8-3.47 1.6-24.99 0-50-.16-74.98.06-7.49 1.67-14.37 5.45-21.89 7.1-.84-3.66 4.99-3.39 7.34-4.67 1.7-.6 3.41-1.18 5.08-1.87.96-.37 1.94-.72 2.92-1.03zm137.02 2.68c1.02-2.05 3.11-3.4 5.42-3.33 5.02-.02 10.05-.02 15.07-.01 2.45-.09 4.63 1.5 5.84 3.54-1.65.46-3.1-.3-4.44-1.13-6.02-.27-12.05-.06-18.06-.14-.45.41-1.34 1.23-1.78 1.64-.51-.14-1.54-.43-2.05-.57zm-50.08.58c1.01-.87 1.92-2.23 3.46-1.91 14.81-.01 29.62-.02 44.43 0l-.16 2.06c-15.91-.27-31.82.16-47.73-.15zm179.24-.1c2.56.06 6.34.04 6.82 3.35-2.28-.24-4.55-.53-6.78-1.04l-.04-2.31zM56.83 21.88c2.63-.03 5.14.76 7.67 1.41 2.5.67 5.02 1.23 7.51 1.95 0 .58.02 1.72.02 2.3-4.93-1.22-9.9-2.34-14.76-3.83-.11-.45-.33-1.37-.44-1.83zm23.52 2.17c4.83-.4 9.68-.15 14.53-.22.02.59.08 1.75.1 2.34-4.49-.26-9.02.21-13.48-.38-.29-.44-.86-1.31-1.15-1.74zm23.85-.2c5.63-.03 11.26-.01 16.9 0l-.08 2.22c-5.65-.04-11.3-.05-16.96.02.04-.56.11-1.68.14-2.24zm26.4-.02c2.76.01 5.52.01 8.28 0 .03.6.08 1.78.11 2.37-2.02-.07-4.04-.13-6.06-.2-.69.67-1.38 1.35-2.06 2.02-.1-1.4-.19-2.79-.27-4.19zm206.36.01c3.47 0 6.95 0 10.42-.02-.23 1.33-.44 2.66-.64 3.99-.57-.58-1.13-1.17-1.68-1.77-2.68-.01-5.36-.03-8.03-.04-.01-.54-.05-1.62-.07-2.16zm22.84 0c13.46 0 26.91-.01 40.37 0l.16 2.14c-13.59.16-27.17-.04-40.76.12.06-.56.17-1.7.23-2.26zm52.56.08c4.27-.07 8.56-.24 12.83.02.94-.11 2.16 1.61.74 1.77-4.13.42-8.34.68-12.45.09l-1.12-1.88zm-144.43 1.99h25.13c-.03.54-.08 1.62-.11 2.16-7.61-.04-15.21.01-22.82-.04-.07 1.49-.13 2.98-.25 4.46-.55.28-1.63.85-2.17 1.13-.05-2.57.03-5.14.22-7.71zm-61.46 1.07c13.61-.06 27.22-.1 40.83.03l-.51 1.49c-12.54 1.25-25.22.01-37.81.6-3.35.47-6.08 2.68-8.98 4.24-15.68.14-31.37-.02-47.05.07-2.18-.04-4.52.45-6.42-.92 1.27-1.07 2.75-1.82 4.46-1.57 16.51.03 33.02.01 49.52.02 2.03-1.26 3.99-2.61 5.96-3.96zM65.12 29.2c1.71-1.28 3.85-1.26 5.88-1.41.1.52.29 1.57.39 2.09-2.95-.12-5.71.91-7.91 2.85-1.35.3-2.71.59-4.05.91-.46.21-1.38.62-1.84.82-2.32.65-4.75.83-7.13.43l-1.33-1.19c5.39-1.23 11.23-1.37 15.99-4.5zm-39.88 4.44c.49-.13 1.46-.41 1.95-.55.79.55 1.57 1.13 2.33 1.71 1.39.11 2.78.2 4.16.3 1.18 1.19 2.37 2.38 3.56 3.56.6.16 1.78.47 2.37.63.23.44.71 1.31.94 1.74-3.46.8-5.97-1.4-7.93-3.92-1.45-.06-2.9-.12-4.36-.17-1.01-1.1-2.02-2.19-3.02-3.3zm121.55 4.4c.83-1.01 1.59-2.41 3.16-2.08 31.36-.07 62.72.03 94.07.03 1.75-.19 3.34.09 3.59 2.13-33.61-.18-67.22-.03-100.82-.08zm103.04-2.03c5.07-.07 10.15-.08 15.23-.04v2.06c-5.11.03-10.22.02-15.33-.05.02-.5.08-1.48.1-1.97zm45.22 0c13.29-.11 26.58-.08 39.87-.02l.08 2.21c-12.66-.32-25.32-.12-37.97-.12-.58.55-1.15 1.1-1.73 1.64-.09-1.24-.18-2.48-.25-3.71zm42.13-.04c3.43-.11 6.87 0 10.3.07-.31 1.25-.57 2.51-.78 3.77-.56-.58-1.11-1.17-1.66-1.75-2.72-.03-5.43-.05-8.15-.07.07-.5.22-1.51.29-2.02zm22.54.01c13.5-.04 27.01-.09 40.51.03.02.49.07 1.48.09 1.97-13.58.16-27.16-.04-40.74.12.03-.53.11-1.59.14-2.12zm53.24-.01c4.45-.01 8.91-.15 13.37.12-.07.49-.21 1.47-.28 1.95-4.36.1-8.72-.03-13.08-.02 0-.51-.01-1.54-.01-2.05zm15.78-.08c2.18.09 4.36.19 6.55.29.03.49.09 1.48.13 1.98-2.28-.05-4.54-.1-6.81-.13.03-.53.1-1.61.13-2.14zM80.93 36.95c4.67.03 9.35.01 14.03-.18 0 .6.02 1.82.02 2.43-4.66-.16-9.33-.18-14-.16-.01-.52-.04-1.57-.05-2.09zm23.17-.09c5.6.19 11.2-.01 16.8.1.05.53.17 1.6.23 2.13-5.69-.05-11.38-.09-17.06.04.01-.57.02-1.7.03-2.27zm26.48-.04c2.79.03 5.58.03 8.38-.01 0 .59.01 1.77.02 2.36-2.81-.03-5.62-.03-8.43-.01.01-.58.02-1.75.03-2.34zM85.09 48.09c3.3-.27 6.63-.07 9.94-.01-.18 1.42-.35 2.84-.51 4.27-.37-.8-.75-1.59-1.12-2.39-2.91.04-5.81.05-8.72.03.1-.48.3-1.43.41-1.9zM104.2 48c5.63-.03 11.27-.05 16.9.02l-.08 2.48c-5.66.02-11.33-.04-16.99.05.04-.64.13-1.91.17-2.55zm25.53.09c3.53-.11 7.07-.12 10.61-.11-.07.47-.21 1.39-.28 1.85-3.22.27-6.46.38-9.69.27-.16-.5-.48-1.5-.64-2.01zM340.77 48c25.42-.01 50.84-.1 76.27.02 0 .62.01 1.86.01 2.47-23.68.1-47.37 0-71.05.06-2.09-.17-5.72.74-5.23-2.55zm-75.8 3.95c10.07.08 20.16-.18 30.23.16-.1.47-.29 1.43-.39 1.9-9.99.17-19.98-.14-29.97.14.03-.55.09-1.65.13-2.2zm81.69 3c7.74 0 15.49-.03 23.23.02.21.87.44 1.73.66 2.6-7.37-1.23-14.94-.26-22.39-.45-.38-.54-1.12-1.63-1.5-2.17zm-75.88 5.2c5.81-.26 11.65-.36 17.47-.01-.19.42-.56 1.26-.75 1.67-5.35.52-10.76.15-16.13.23-.15-.47-.44-1.41-.59-1.89zm79.24 12.89c4.58.08 9.16-.19 13.74-.02.12.56.35 1.68.47 2.24-4.72.05-9.45.06-14.17 0l-.04-2.22z" fill="#f3f4f3"></path><path d="M4.46 7.13c2.85-1.06 5.96-1.59 8.66.18.13 17.23-.23 34.46.16 51.68-.06 1.87.13 3.91-.97 5.54-2.42.37-4.87.17-7.29.14-.26-1.54-.52-3.08-.54-4.64.02-17.63.07-35.27-.02-52.9zm10.81 6.72c6.63 2.06 13.6 2.71 20.27 4.62 3.05.86 6.19 1.26 9.29 1.86 3.19.6 6.36 1.96 9.66 1.33.55-.09 1.65-.27 2.2-.37l.14.59c.11.46.33 1.38.44 1.83 4.86 1.49 9.83 2.61 14.76 3.83-.07 1.41-.16 2.82-.27 4.23-.09-.48-.28-1.42-.37-1.89-.1-.52-.29-1.57-.39-2.09-2.03.15-4.17.13-5.88 1.41-4.76 3.13-10.6 3.27-15.99 4.5-.81-.37-1.62-.72-2.44-1.06.52 1.31.35 3.12 1.57 4.06 2.53.32 5.09.11 7.62.46 2.89.79 5.04 3.45 8.15 3.62 2.69.32 5.39.63 8.05 1.16-.06.7-.19 2.08-.25 2.78-3.26.74-6.44 1.81-9.73 2.37-.6.04-1.81.13-2.41.18-.88-3.49-4.49-1.77-6.93-1.55-2.68.99-4.29-2.18-6.7-2.57-1.41.06-2.79.29-4.18.49-.44-.87-.88-1.74-1.33-2.61-.23-.43-.71-1.3-.94-1.74-.59-.16-1.77-.47-2.37-.63-1.19-1.18-2.38-2.37-3.56-3.56-1.38-.1-2.77-.19-4.16-.3-.76-.58-1.54-1.16-2.33-1.71-.49.14-1.46.42-1.95.55-3.3.65-6.69.45-10.04.41.41-6.73-.02-13.46.07-20.2zm232.23 2.63l.42-.49c-.47 2.9-.44 5.85-.84 8.76-13.03-.01-26.07-.02-39.1 0-3.92-.36-6.06 4.23-9.96 3.98-15.33.07-30.66-.05-45.99.05-1.68.06-3.34-.22-4.93-.72.02-.71.05-2.12.06-2.82 7.52-1.65 14.4-5.43 21.89-7.1 24.98-.22 49.99-.06 74.98-.06 1.43.2 2.66-.41 3.47-1.6zm55.85 2.8c6.01.08 12.04-.13 18.06.14 1.34.83 2.79 1.59 4.44 1.13-.25 1.56-.44 3.45-2.2 4.04-3.77 1.23-7.83.57-11.74.73-4.27-.11-9.25.89-12.5-2.6l-.04-2.42.15.05c.51.14 1.54.43 2.05.57.44-.41 1.33-1.23 1.78-1.64zm187.09.24c2.14-.67 5.13-.27 5.7 2.3-2.36-.32-4.78-.8-7.14-.25-9.34 1.99-18.77 3.55-28.13 5.43.11-1.27.78-2.01 2.01-2.21 9.15-1.95 18.44-3.19 27.56-5.27zm9.45 2.28c.69-4.14 5.22-3.33 7.97-1.79-.21 9.65.04 19.31-.11 28.96.2 1.49-1.67 1.63-2.58 2.2.71-2.67 1.36-5.39 1.28-8.17-.13-7.52.04-15.05-.17-22.57-2.14.42-4.27.89-6.39 1.37zm13.19-2.8c18.36 3.56 36.54 8.17 54.87 11.95 2.11.7 4.86.61 6.2 2.68-1.64.06-3.32.31-4.93-.06-17.94-4.75-36.21-8.21-54.25-12.59-1 .33-1.99.66-2.97.99.35-.99.71-1.98 1.08-2.97z"></path><path d="M249.44 20.93c15.91.31 31.82-.12 47.73.15.46 3.5 3.27 6.2 6.86 6.22 5.98.08 11.99.24 17.97-.1 3.29-.2 5.21-3.16 6.34-5.92 2.07.64 4.24 1.07 6.2 2.03 1.12 4.07.31 8.48.38 12.68-13.29-.06-26.58-.09-39.87.02-.15-3.93-.05-7.86-.16-11.79-9.7-.08-19.41-.02-29.11-.06-.26 6.53-.34 13.07-.03 19.6 9.68-.16 19.37-.1 29.06-.03.16-1.34.33-2.68.49-4.01.58-.54 1.15-1.09 1.73-1.64 12.65 0 25.31-.2 37.97.12.05 2.64 0 5.29-.1 7.93-6.23 1.78-12.37 4.47-18.99 4.2-21.35-.1-42.69-.52-64.04.04l-2.15-2.24c.12-3.38.07-6.77.01-10.15 5.11.07 10.22.08 15.33.05v-2.06c-5.08-.04-10.16-.03-15.23.04-.08-5.03.19-10.08-.39-15.08zM96.98 23.79c-.36-2.9 5.37-3.04 5.18-.1-1.73.04-3.46.07-5.18.1zm331.74-.65c2.23.51 4.5.8 6.78 1.04-.33 3.99-.15 8-.21 12-2.19-.1-4.37-.2-6.55-.29-.04-4.25-.41-8.51-.02-12.75zM80.3 44.88c.11-6.95.07-13.89.05-20.83.29.43.86 1.3 1.15 1.74 4.46.59 8.99.12 13.48.38.08 3.53.07 7.06-.02 10.6-4.68.19-9.36.21-14.03.18.01.52.04 1.57.05 2.09 4.67-.02 9.34 0 14 .16.02 1.9.03 3.81.04 5.72-4.9.17-9.81.17-14.72-.04zm332-.02c.1-6.98.05-13.96.06-20.94l1.12 1.88c4.11.59 8.32.33 12.45-.09.45 3.44.48 6.91.4 10.38-4.46-.27-8.92-.13-13.37-.12 0 .51.01 1.54.01 2.05 4.36-.01 8.72.12 13.08.02-.11 2.17.99 4.77-.22 6.66-4.48.6-9.02.22-13.53.16zm25.79-19.68c6.94.06 13.88.06 20.82 0v1.56c-6.96-.15-13.92-.24-20.87.03.01-.39.04-1.19.05-1.59zm-334.03.91c5.66-.07 11.31-.06 16.96-.02 0 3.63.02 7.26-.12 10.89-5.6-.11-11.2.09-16.8-.1-.02-3.59-.05-7.18-.04-10.77zm28.87-.09c2.02.07 4.04.13 6.06.2.01 3.54-.01 7.08-.03 10.61-2.8.04-5.59.04-8.38.01-.26-2.72-.28-5.46-.33-8.19l.62-.61c.68-.67 1.37-1.35 2.06-2.02zm204.1 0c2.67.01 5.35.03 8.03.04.55.6 1.11 1.19 1.68 1.77l.93.96c.01 2.42 0 4.85-.19 7.27-3.43-.07-6.87-.18-10.3-.07-.03-3.32-.03-6.65-.15-9.97zm22.54.1c13.59-.16 27.17.04 40.76-.12.03 3.34 0 6.69-.1 10.03-13.5-.12-27.01-.07-40.51-.03-.1-3.29-.14-6.59-.15-9.88zm-150.59 3c12.59-.59 25.27.65 37.81-.6l.98-.18c-.22 1.9-.43 3.81-.69 5.71-13.7.08-27.4-.04-41.1.06-2.02.06-4.04-.16-5.98-.75 2.9-1.56 5.63-3.77 8.98-4.24z"></path><path d="M270.13 28.03c7.61.05 15.21 0 22.82.04.15 4.5.09 9.01 0 13.51-8.4.02-16.81.18-25.21-.09-.04-2.62-.41-5.27-.03-7.87.54-.28 1.62-.85 2.17-1.13.12-1.48.18-2.97.25-4.46zM69.32 32.27c.89.22 1.79.45 2.68.68.04 2.02.04 4.04 0 6.06-3.88-.01-8.53 1.04-11.25-2.51 2.87-1.39 5.73-2.79 8.57-4.23zM15.26 36c3.97-.15 8.47-.8 11.5 2.4 4.27.77 7.58 3.74 11.6 5.19 1.74 3 5.02 2.41 7.9 1.83-.03 1.83-.1 3.67-.19 5.51-4.69 1.05-9.35 2.26-14.06 3.19-1.62.1-3.24.14-4.85.18-.13-1.25-.25-2.51-.37-3.76-3.61-2.01-7.4-3.91-11.66-3.75.29-3.59.18-7.19.13-10.79zm422.53 1.72c.9-.76 1.8-1.72 3.12-1.53 5.04-.08 10.08-.07 15.12-.02 1.32-.21 2.22.76 3.13 1.54-7.13-.01-14.25-.05-21.37.01zm24.54-1.52c10.23-.05 20.46-.08 30.68-.02 1.33-.2 2.24.75 3.15 1.54-11.75 0-23.49-.16-35.23.08l1.4-1.6zm49.58 1.55c1.43-2.01 3.98-1.59 6.14-1.63 18.72.21 37.46-.25 56.18.27-1.29.53-2.54 1.15-3.9 1.41-19.47-.21-38.95-.11-58.42-.05zm-365.12.29c33.6.05 67.21-.1 100.82.08-.45 4.66.02 9.34-.32 14 .03 1.67-1.78 2.42-3.2 2.19-21.05.01-42.09-.01-63.14 0-4.2-.01-8.47.3-12.57-.81-3.86-1.07-7.54-2.71-11.34-3.97-3.53-1.25-7.27-2.03-10.47-4.05.3-2.47.41-4.96.22-7.44zm190.1-.05c2.72.02 5.43.04 8.15.07.55.58 1.1 1.17 1.66 1.75l.99 1.02a577.7 577.7 0 00-.13 4.16c-3.48-.01-6.95-.04-10.42-.05.01-2.32-.04-4.64-.25-6.95zm22.69.11c13.58-.16 27.16.04 40.74-.12.03 2.31 0 4.63-.04 6.94-13.53.19-27.05.17-40.58.04-.08-2.29-.13-4.57-.12-6.86zm69.03-.07c2.27.03 4.53.08 6.81.13-.28 3.11.53 6.51-.64 9.44-2 .7-4.13.8-6.21 1.05 0-3.54.02-7.08.04-10.62zm-324.54 1.1c5.68-.13 11.37-.09 17.06-.04-.1 1.94-.14 3.88-.16 5.82-5.6.1-11.21.25-16.81 0-.04-1.93-.07-3.85-.09-5.78zm26.48.03c2.81-.02 5.62-.02 8.43.01l-.03 5.84c-2.86.01-5.72.01-8.57-.01-.02-1.95.01-3.9.17-5.84zM49.32 50.04c.34-3.15 4.15-1.48 6.2-1.34-2.05.53-4.12.96-6.2 1.34z"></path><path d="M15.42 48.54c3.24.96 6.42 2.09 9.4 3.7.09 1.2.19 2.39.29 3.59-3.25.49-6.47 1.15-9.7 1.76-.1-3.02-.18-6.04.01-9.05zm69.26 1.45c2.91.02 5.81.01 8.72-.03.37.8.75 1.59 1.12 2.39.16.33.48 1.01.64 1.35-3.14.84-6.11 3.35-9.48 2.71-1.17-1.92-.75-4.29-1-6.42zm45.69.11c3.23.11 6.47 0 9.69-.27 1.11 2.01 1.86 4.57.23 6.54-3.22.68-6.16-1.68-9.14-2.58-1.71-.38-.57-2.53-.78-3.69zm134.47 4.05c9.99-.28 19.98.03 29.97-.14-.39 1.9-1.5 4.15-3.8 3.95-7.68.24-15.38.26-23.05-.06-1.98 0-2.38-2.36-3.12-3.75zm115.36.05c.37.02 1.11.06 1.48.07-.15 3.27.7 7.19-2.03 9.66-3.66 3.59-8.56 5.96-13.54 6.99-6.32.27-12.66.06-18.99.07-2-1.87-4.3-3.78-4.25-6.79 3.06-1.14 5.65-3.52 5.29-7.08 7.45.19 15.02-.78 22.39.45.89 1.4 1.62 2.9 2.27 4.43-2.07-1.04-3.87-2.51-5.57-4.04.11 3.04.12 6.09.07 9.15 4.32.6 9.11-.69 12.08-3.96 1.07-2.83.58-5.98.8-8.95M352 60.13c.01.44.04 1.33.05 1.77 2.3.02 4.61.05 6.92.08.56 2.27-1.08 6.14 1.72 7.13.16-2.35.27-4.71.39-7.07.72-.05 2.18-.16 2.91-.21 0-.43 0-1.28.01-1.7-4-.05-8-.04-12 0zm-63.75.01c.34.91.85 1.7 1.56 2.38.25 8.49.03 17 .14 25.5.26 2.42-1.16 5.28-3.77 5.62-3.08.47-6.22.26-9.32.21-2.08-.13-4.53.06-6.03-1.71-1.45-1.26-1.26-3.35-1.36-5.09-.04-8.34.12-16.69-.08-25.03.49.01 1.48.02 1.98.02 5.37-.08 10.78.29 16.13-.23.19-.41.56-1.25.75-1.67m-15.21 4.95c0 .45-.01 1.35-.02 1.8 2.64.02 5.28.05 7.93.08-.1 8.37.18 16.74.13 25.11.46.01 1.37.02 1.83.02.1-8.32-.13-16.65.1-24.97l3.99-.3c-.01-.43-.02-1.29-.03-1.72-4.64-.06-9.28-.06-13.93-.02zm75.24 10.15c.45.01 1.34.02 1.78.02 4.72.06 9.45.05 14.17 0 .36 0 1.07-.01 1.42-.01-.11 6.73-.08 13.46-.03 20.19-1.15.82-2 2.47-3.63 2.25-3.33.04-6.66.04-9.98 0-1.62.19-2.52-1.44-3.69-2.23.05-6.74.1-13.48-.04-20.22m3.8 2.88c-.01.44-.04 1.33-.05 1.78 2.33.03 4.66.07 7 .12.12 5.29.05 10.59.04 15.88.47.02 1.4.06 1.86.07 0-5.2-.09-10.41.12-15.61 1.39-.33 3.11-.41 3.23-2.23-4.07-.12-8.13-.07-12.2-.01z"></path><path d="M75.78 19.79c3.64-1.08 2.33 2.97 2.49 5.13-.29 7.03-.21 14.08.06 21.12.19 1.46-.16 4.94-2.39 3.1-.51-9.75-.3-19.58-.16-29.35zm66.17-.11c.58.1 1.76.32 2.35.43.18 9.69.26 19.42-.1 29.11-.52-.01-1.57-.03-2.09-.05-.64-9.81-.3-19.67-.16-29.49zm-18.53 3.41c.05-2.3 3.1-1.53 4.59-1.91.5 10.33.19 20.71.12 31.05-1.61-.09-3.23-.17-4.84-.27.16-9.62-.1-19.25.13-28.87zM489 21.57c2.36-.55 4.78-.07 7.14.25-.38 3.63.1 7.29-.36 10.91-.97 1.71-3.14 1.16-4.75 1.34-8.34-.05-16.68 0-25.02-.01-1.59-.22-3.74.36-4.71-1.29-.27-1.91-.28-3.85-.43-5.77 9.36-1.88 18.79-3.44 28.13-5.43zm10.89.23c2.12-.48 4.25-.95 6.39-1.37.21 7.52.04 15.05.17 22.57.08 2.78-.57 5.5-1.28 8.17-1.7-.41-3.4-.79-5.09-1.15-.1-9.4.2-18.82-.19-28.22zm12.11.17c.98-.33 1.97-.66 2.97-.99 18.04 4.38 36.31 7.84 54.25 12.59-17.06 1.09-34.19.15-51.27.54-1.9-.27-4.63.67-5.71-1.43-.4-3.55-.09-7.14-.24-10.71zM96.98 23.79c1.72-.03 3.45-.06 5.18-.1-.75 9.5-.07 19.05-.13 28.57-1.61-.07-3.23-.13-4.84-.19-.19-9.43.14-18.86-.21-28.28zm253.11.04c2.24-.02 4.49-.02 6.74 0 .48 7.02.05 14.05.24 21.07l-6.98.03c-.04-7.03-.03-14.07 0-21.1zm53.01-.02c2.29-.01 4.59 0 6.89.03.08 7.02.18 14.05-.08 21.07-2.27-.01-4.53-.03-6.79-.04-.1-7.02-.11-14.04-.02-21.06zm34.94 2.96c6.95-.27 13.91-.18 20.87-.03.01 2.1.05 4.2.12 6.3-2.79 1.51-6.01.96-9.03 1.02-3.56-.1-7.14.25-10.67-.24-2.22-1.57-.95-4.75-1.29-7.05zM63.48 32.73c2.2-1.94 4.96-2.97 7.91-2.85.09.47.28 1.41.37 1.89l.24 1.18c-.89-.23-1.79-.46-2.68-.68-2.84 1.44-5.7 2.84-8.57 4.23 2.72 3.55 7.37 2.5 11.25 2.51l.08 2.93c-2.66-.53-5.36-.84-8.05-1.16-3.11-.17-5.26-2.83-8.15-3.62-2.53-.35-5.09-.14-7.62-.46-1.22-.94-1.05-2.75-1.57-4.06.82.34 1.63.69 2.44 1.06l1.33 1.19c2.38.4 4.81.22 7.13-.43.46-.2 1.38-.61 1.84-.82 1.34-.32 2.7-.61 4.05-.91zM15.2 34.05c3.35.04 6.74.24 10.04-.41 1 1.11 2.01 2.2 3.02 3.3 1.46.05 2.91.11 4.36.17 1.96 2.52 4.47 4.72 7.93 3.92.45.87.89 1.74 1.33 2.61 1.39-.2 2.77-.43 4.18-.49 2.41.39 4.02 3.56 6.7 2.57 2.44-.22 6.05-1.94 6.93 1.55.6-.05 1.81-.14 2.41-.18-1.94.72-3.94 1.28-5.96 1.72l-.62-.11c-2.05-.14-5.86-1.81-6.2 1.34l.03.81c-1.1.02-2.19.05-3.28.08.09-1.84.16-3.68.19-5.51-2.88.58-6.16 1.17-7.9-1.83-4.02-1.45-7.33-4.42-11.6-5.19-3.03-3.2-7.53-2.55-11.5-2.4-.02-.49-.04-1.46-.06-1.95zm422.59 3.67c7.12-.06 14.24-.02 21.37-.01-.16 2.04-.23 4.08-.27 6.12-6.92-.07-13.84.01-20.76-.1-.09-2.01-.19-4.01-.34-6.01zm23.14.08c11.74-.24 23.48-.08 35.23-.08-.29 3.7-.25 7.42-.2 11.13-1.65.52-3.36 1.14-5.1.69-9.92-1.85-19.91-3.3-29.77-5.38-.04-2.12-.09-4.24-.16-6.36zm50.98-.05c19.47-.06 38.95-.16 58.42.05-9.52 2.76-19.44 4.13-29.07 6.55-9.77 1.7-19.31 4.7-29.18 5.81-.05-4.14.1-8.28-.17-12.41zM15.13 46.79c4.26-.16 8.05 1.74 11.66 3.75.12 1.25.24 2.51.37 3.76 1.61-.04 3.23-.08 4.85-.18-2.25.77-4.56 1.35-6.9 1.71-.1-1.2-.2-2.39-.29-3.59-2.98-1.61-6.16-2.74-9.4-3.7-.07-.44-.22-1.31-.29-1.75zM352 60.13c4-.04 8-.05 12 0-.01.42-.01 1.27-.01 1.7-.73.05-2.19.16-2.91.21-.12 2.36-.23 4.72-.39 7.07-2.8-.99-1.16-4.86-1.72-7.13-2.31-.03-4.62-.06-6.92-.08-.01-.44-.04-1.33-.05-1.77zm-78.96 4.96c4.65-.04 9.29-.04 13.93.02.01.43.02 1.29.03 1.72l-3.99.3c-.23 8.32 0 16.65-.1 24.97-.46 0-1.37-.01-1.83-.02.05-8.37-.23-16.74-.13-25.11-2.65-.03-5.29-.06-7.93-.08.01-.45.02-1.35.02-1.8zm79.04 13.03c4.07-.06 8.13-.11 12.2.01-.12 1.82-1.84 1.9-3.23 2.23-.21 5.2-.12 10.41-.12 15.61-.46-.01-1.39-.05-1.86-.07.01-5.29.08-10.59-.04-15.88-2.34-.05-4.67-.09-7-.12.01-.45.04-1.34.05-1.78z" fill="#3c3b3c"></path></svg>