<svg data-v-ea210746="" viewBox="0 0 257 93" xmlns="http://www.w3.org/2000/svg" fill="#7e7e7e" class="ui-icon max-h-full absolute left-1/2 top-1/2 -translate-x-1/2 -translate-y-1/2 z-[201] w-[70%]" style="fill: rgb(192, 179, 239); opacity: 1;"><g fill="#000"><path d="M29.77 11.85C42.61 3.87 58 1.06 72.93 1.14c56.35-.03 112.7.01 169.04-.01 2.75-.27 5.93.99 6.61 3.93.62 3.6.19 7.29.27 10.93 2.54 1.31 5.4 2.84 6.27 5.79 1.61 4.71.15 11.63-5.36 12.91-4.78.83-9.67-.1-14.48.42-2.55 4.76-8.06 7.06-13.28 6.96-12.98-.14-25.96-.12-38.93-.14-4.79-.03-9.66.6-14.35-.67-.74-2.01-1.34-4.08-1.73-6.19-10.86-.19-21.72-.16-32.57 0-.38 1.66.14 4.9-2.48 4.53-11.65.18-23.3 0-34.95.07-5.08.08-10.2-.37-15.24.53-3.26 5.3-4.96 12.18-10.79 15.35-7.59 1.85-15.59-.29-23.23 1.22-2.76.61-4.54 2.96-5.57 5.44-3.17 6.9-6.51 13.71-9.74 20.58 1.85 1.26 3.34 3.54 1.93 5.73-1.49 2.52-4.83 3.93-7.62 2.77-7.25-2.5-14.65-4.56-21.84-7.22-3.55-.91-3.23-5.46-1.7-7.99 6.75-12.27 14.87-23.79 21.25-36.26-3.21-.03-7.46.13-8.92-3.45-1.14-4.01-.21-8.26-.51-12.37.12-3.02-.79-6.84 1.86-9.06 3.63-3.19 9.03-.48 12.9-3.09m6.39.08c-2.77 1.3-5.15 3.47-8.16 4.25-3.21.3-6.49.12-9.61 1.06-.04 6.29-.42 12.6.26 18.87 3.11-.14 6.21-.21 9.32-.19 34.38.1 68.76-.15 103.13.13-.01-10.57.07-21.14-.06-31.71-19.68.16-39.37-.01-59.05.1-12.27 0-24.74 2.06-35.83 7.49m96.17-6.17l1.22.13c-.25 3.62-.31 7.25-.34 10.88 9.58-.01 19.16.05 28.73.07 2.79-.06 5.64.16 8.37-.54 6.12-1.74 12.59.2 18.75-1.34 2.93-.71 5.88-1.46 8.92-1.37 8.03.02 16.05.02 24.08 0 4.06-.01 8.35.66 11.57 3.33 4.01-.1 8.05.29 12.05-.3-.08-3.7-.2-7.41.24-11.1l-.66.08c-.8-1.17-1.87-1.72-3.2-1.65-35.05-.02-70.1 0-105.15-.01-1.79-.23-3.4.46-4.58 1.82m57.31 12.59c.79 7.01.15 14.07.46 21.1 1.29-1.01 2.58-2.03 3.9-3.02-.1-5.88.05-11.77-.08-17.65.01-.7.02-2.11.02-2.81-1.6.51-3.2 1.03-4.3 2.38m6.65-2.69c-.07.5-.21 1.49-.27 1.99.08 7.27-.03 14.55.07 21.82 1.29-1.02 2.59-2.04 3.9-3.04-.09-6.25-.04-12.51-.02-18.76-.06-.5-.19-1.5-.25-2-1.15 0-2.29 0-3.43-.01m5.5 1.92c.51 7.28.05 14.58.31 21.87 1.29-1.02 2.59-2.03 3.91-3.02 0-6.28-.26-12.58.2-18.85-.08-2.72-4.34-2.71-4.42 0m6.5-1.92c-.07.5-.21 1.5-.27 2 .08 7.27-.04 14.55.08 21.82 1.29-1.02 2.58-2.05 3.89-3.06-.09-6.25-.04-12.5-.02-18.76-.06-.49-.18-1.49-.25-1.99-1.15 0-2.29 0-3.43-.01m5.5 1.91c.51 7.28.04 14.59.31 21.88 1.29-1.02 2.59-2.03 3.91-3.01.01-6.29-.26-12.58.2-18.86-.09-2.7-4.32-2.71-4.42-.01m6.48-1.9c-.06.5-.18 1.5-.25 2 .08 7.27-.03 14.53.07 21.79 1.3-1.01 2.6-2.03 3.91-3.04-.1-6.26-.05-12.51-.02-18.77-.07-.49-.2-1.48-.26-1.98h-3.45m5.79.31c.01.66.02 1.98.03 2.64-.15 6.65-.12 13.3.08 19.95 2.02-1.3 5.12-1.96 5.76-4.6.66-4.26-.02-8.59.26-12.88-.19-3.35-3.54-4.14-6.13-5.11m-55.73 3.37c.82 6.41-.51 13.03.89 19.34 2.1 1.01 3.29-1.25 4.76-2.28-.06-5.55-.02-11.1-.02-16.65-.06-.56-.2-1.68-.26-2.24-1.94.18-4.01.25-5.37 1.83m7.47.26c.48 6.6.05 13.23.29 19.84 1.3-1.02 2.59-2.03 3.91-3.02 0-5.61-.22-11.23.19-16.82-.02-2.72-4.36-2.69-4.39 0m6-.04c.53 6.63.09 13.28.3 19.92 1.29-1.03 2.58-2.06 3.89-3.07-.09-5.58-.03-11.15-.02-16.72-.07-.54-.2-1.61-.26-2.15-1.62.17-3.66-.11-3.91 2.02m-51.43 1.04l1.04.09c-.06 3.69-.12 7.38-.22 11.06 11.75.55 23.51.13 35.26.27.03-3.66.04-7.32-.07-10.98-.08-.54-.25-1.61-.33-2.15-10.38.01-20.75 0-31.13 0-1.75-.21-3.36.4-4.55 1.71m101.35-.89c1.04 3.99.57 8.12.59 12.18 2.77-.02 5.54-.01 8.31.02.08-3.62.05-7.24-.22-10.85l1.15-.02c-1.96-3.16-5.98-1.92-9.05-2.13l.26.4-1.04.4m11.31-.5l-.04.67c-.18 4.01-.13 8.03 0 12.05 1.84-.36 4.02-.03 5.57-1.28 1.84-1.3 1.62-3.8 2.15-5.75l-.6-.47c-.28-2.19-1.65-3.81-3.2-5.24-1.3.01-2.59.01-3.88.02M48.33 39.1c-.87 4.67-.54 9.45-.64 14.17 6.76-.68 13.56-.13 20.33-.44 2.76.1 4.3-2.59 5.92-4.34-3.54 1.42-6.91 3.73-10.92 3.35-4.36-.19-9.92 1.09-13.05-2.82-2.56-3.26-1.03-7.42-.17-11.01-.37.28-1.1.82-1.47 1.09m7.01-.7c-.29 1.51-.56 3.01-.81 4.52 1.47 1.09 2.93 2.19 4.34 3.35-1.66-2.44-1.18-5.27-.33-7.92-1.07.02-2.14.04-3.2.05m-28.37.3c.1.6.3 1.82.41 2.42-3.95 8.4-9.39 16.01-13.99 24.06-2.82 5.15-6.64 9.82-8.44 15.47 7.3 2.65 14.68 5.07 22.1 7.34 1.75.89 3.32-.23 4.83-1.04-1.14-1.06-2.27-2.12-3.42-3.17 3.15-7.72 7.43-14.92 10.56-22.65 1.15-3.27 3.92-5.45 6.59-7.45-.01-4.81-.07-9.61.06-14.41l-.03.04c-6.11-1.32-12.46-.32-18.67-.61m46.26-.07c.5 2.35 1.77 4.82.56 7.2.38.58.77 1.17 1.16 1.75.58-3.26 2.27-6.13 3.87-8.96-1.86.01-3.73.01-5.59.01m-11.32 1.05c-.4.97-.8 1.94-1.19 2.91 1.87 1.8 3.57 3.77 4.99 5.96 1.7-.7 3.4-1.42 5.1-2.12.33-2.29.06-4.56-.69-6.74-2.74-.01-5.47-.02-8.21-.01m-9.71 4.45c.03.81.08 2.43.11 3.24 1.81.62 3.61 1.24 5.42 1.87-2.1-1.4-3.97-3.12-5.53-5.11z"></path><path d="M85.61 7.93c1.34-.97 2.61-2.39 4.43-2.29 8.65-.18 17.31.02 25.97-.09 2.13-.04 5.04.1 5.86 2.52.69 3.19.74 6.61.01 9.8-1.35 3.01-4.44 5.41-7.86 5.21-7.89.05-15.77-.04-23.66.01l-1.92-2.49c-4.69-2.42-2.19-8.47-2.83-12.67m2.73.11c-.21.49-.62 1.47-.83 1.96.07 2.9.13 5.81.75 8.65 9.6-.06 19.2.09 28.79-.04 4.54.07 2.67-5.72 3.22-8.59-.12-.49-.37-1.48-.5-1.97-10.45-.42-20.98-.41-31.43-.01zM25.56 51.55c1.2-2.04 2.55-4.95 5.41-4.54 3.49.4 9.11 2.56 7.78 7.05-3.51 8.15-8 15.87-11.58 24-1.12 2.5-2.9 6.04-6.25 5.25-3.78-1.13-8.18-1.97-10.61-5.4 4.38-9.17 10.27-17.52 15.25-26.36m4.59-2.57c-3.14 3.44-5 7.81-7.53 11.68-3.17 5.88-7.16 11.29-10.06 17.32 3.23 1.42 6.58 3.14 10.23 2.85 3.33-3.66 4.55-8.72 7.03-12.95 2.2-5.61 5.79-10.62 7.29-16.5-2.28-.85-4.47-2.5-6.96-2.4z"></path></g><path d="M36.16 11.93C47.25 6.5 59.72 4.44 71.99 4.44c19.68-.11 39.37.06 59.05-.1.13 10.57.05 21.14.06 31.71-34.37-.28-68.75-.03-103.13-.13-3.11-.02-6.21.05-9.32.19-.68-6.27-.3-12.58-.26-18.87 3.12-.94 6.4-.76 9.61-1.06 3.01-.78 5.39-2.95 8.16-4.25m49.45-4c.64 4.2-1.86 10.25 2.83 12.67l1.92 2.49c7.89-.05 15.77.04 23.66-.01 3.42.2 6.51-2.2 7.86-5.21.73-3.19.68-6.61-.01-9.8-.82-2.42-3.73-2.56-5.86-2.52-8.66.11-17.32-.09-25.97.09-1.82-.1-3.09 1.32-4.43 2.29m-47.6 11.2c-4.55.05-9.1-.11-13.65-.18-1.78 3.08-2.59 6.54-2.33 10.09.4-.01 1.21-.02 1.62-.03.24-2.56.57-5.23 2.25-7.29l.13.87c6.7 1.04 13.65.21 20.45.41 1.35-3.48 5.36-4.07 8.17-5.93 9.12-.16 18.25-.03 27.37-.07-.03-.51-.08-1.53-.1-2.03.03-.47.11-1.39.14-1.85-8.69-.07-17.39.02-26.09-.07-6.68-.37-11.31 6.26-17.96 6.08zM245.26 5.6l.66-.08c-.44 3.69-.32 7.4-.24 11.1-4 .59-8.04.2-12.05.3-3.22-2.67-7.51-3.34-11.57-3.33-8.03.02-16.05.02-24.08 0-3.04-.09-5.99.66-8.92 1.37-6.16 1.54-12.63-.4-18.75 1.34-2.73.7-5.58.48-8.37.54-9.57-.02-19.15-.08-28.73-.07.03-3.63.09-7.26.34-10.88.6.04 1.81.13 2.41.18 31.02-.06 62.05-.01 93.07-.03 5.41-.04 10.85.28 16.23-.44z"></path><path d="M87.51 10c10.92.08 21.84.05 32.76.02-.55 2.87 1.32 8.66-3.22 8.59-9.59.13-19.19-.02-28.79.04-.62-2.84-.68-5.75-.75-8.65zm102.13 8.35c1.1-1.35 2.7-1.87 4.3-2.38 0 .7-.01 2.11-.02 2.81-1.43-.14-2.86-.28-4.28-.43zm6.65-2.69c1.14.01 2.28.01 3.43.01.06.5.19 1.5.25 2-1.32-.01-2.64-.01-3.95-.02.06-.5.2-1.49.27-1.99zm5.5 1.92c.08-2.71 4.34-2.72 4.42 0h-4.42zm6.5-1.92c1.14.01 2.28.01 3.43.01.07.5.19 1.5.25 1.99h-3.95c.06-.5.2-1.5.27-2zm5.5 1.91c.1-2.7 4.33-2.69 4.42.01-1.48.01-2.95 0-4.42-.01zm6.48-1.9h3.45c.06.5.19 1.49.26 1.98-1.32.01-2.64.01-3.96.02.07-.5.19-1.5.25-2zm5.79.31c2.59.97 5.94 1.76 6.13 5.11-2.04-.8-4.08-1.63-6.1-2.47-.01-.66-.02-1.98-.03-2.64zm-55.73 3.37c1.36-1.58 3.43-1.65 5.37-1.83.06.56.2 1.68.26 2.24-1.88-.13-3.76-.26-5.63-.41zm7.47.26c.03-2.69 4.37-2.72 4.39 0-1.46 0-2.93.01-4.39 0zm6-.04c.25-2.13 2.29-1.85 3.91-2.02.06.54.19 1.61.26 2.15-1.4-.04-2.79-.08-4.17-.13zm49.92.15l1.04-.4 1.03 1.74c2.2.01 4.41.03 6.61.01.27 3.61.3 7.23.22 10.85-2.77-.03-5.54-.04-8.31-.02-.02-4.06.45-8.19-.59-12.18zm11.31-.5c1.29-.01 2.58-.01 3.88-.02 1.55 1.43 2.92 3.05 3.2 5.24-2.16-1.83-4.57-3.34-7.12-4.55l.04-.67zM133.41 20.7c11.64.73 23.31.16 34.97.35.11 3.66.1 7.32.07 10.98-11.75-.14-23.51.28-35.26-.27.1-3.68.16-7.37.22-11.06m2.58 4.4l.08 1.87c-.04.51-.1 1.52-.14 2.03h31.08c-.02-.51-.04-1.52-.06-2.03.02-.47.05-1.4.07-1.87-10.35-.01-20.69-.01-31.03 0zm-87.66 14c.37-.27 1.1-.81 1.47-1.09-.86 3.59-2.39 7.75.17 11.01 3.13 3.91 8.69 2.63 13.05 2.82 4.01.38 7.38-1.93 10.92-3.35-1.62 1.75-3.16 4.44-5.92 4.34-6.77.31-13.57-.24-20.33.44.1-4.72-.23-9.5.64-14.17z"></path><path d="M55.34 38.4c1.06-.01 2.13-.03 3.2-.05-.85 2.65-1.33 5.48.33 7.92-1.41-1.16-2.87-2.26-4.34-3.35.25-1.51.52-3.01.81-4.52zm-9.7.91l.03-.04c-.13 4.8-.07 9.6-.06 14.41-2.67 2-5.44 4.18-6.59 7.45-3.13 7.73-7.41 14.93-10.56 22.65 1.15 1.05 2.28 2.11 3.42 3.17-1.51.81-3.08 1.93-4.83 1.04-7.42-2.27-14.8-4.69-22.1-7.34 1.8-5.65 5.62-10.32 8.44-15.47 4.6-8.05 10.04-15.66 13.99-24.06 5.57-.19 11.14-.14 16.72-.08.38-.43 1.15-1.3 1.54-1.73M25.56 51.55c-4.98 8.84-10.87 17.19-15.25 26.36 2.43 3.43 6.83 4.27 10.61 5.4 3.35.79 5.13-2.75 6.25-5.25 3.58-8.13 8.07-15.85 11.58-24 1.33-4.49-4.29-6.65-7.78-7.05-2.86-.41-4.21 2.5-5.41 4.54zm47.67-12.92c1.86 0 3.73 0 5.59-.01-1.6 2.83-3.29 5.7-3.87 8.96-.39-.58-.78-1.17-1.16-1.75 1.21-2.38-.06-4.85-.56-7.2z"></path><path d="M132.33 5.76c1.18-1.36 2.79-2.05 4.58-1.82 35.05.01 70.1-.01 105.15.01 1.33-.07 2.4.48 3.2 1.65-5.38.72-10.82.4-16.23.44-31.02.02-62.05-.03-93.07.03-.6-.05-1.81-.14-2.41-.18l-1.22-.13zM88.34 8.04c10.45-.4 20.98-.41 31.43.01.13.49.38 1.48.5 1.97-10.92.03-21.84.06-32.76-.02.21-.49.62-1.47.83-1.96zm-34.6 7.01c9.39-.18 18.78-.04 28.18-.08.02.5.07 1.52.1 2.03-9.12.04-18.25-.09-27.37.07-2.81 1.86-6.82 2.45-8.17 5.93-6.8-.2-13.75.63-20.45-.41l-.13-.87.17-.57c6.03-.55 12.09-.05 18.13-.26 2.43-2.98 6.32-3.97 9.54-5.84zm78.63 5.56c1.19-1.31 2.8-1.92 4.55-1.71 10.38 0 20.75.01 31.13 0 .08.54.25 1.61.33 2.15-11.66-.19-23.33.38-34.97-.35l-1.04-.09zm102.39-1.29l-.26-.4c3.07.21 7.09-1.03 9.05 2.13l-1.15.02c-2.2.02-4.41 0-6.61-.01l-1.03-1.74zm-98.69 7.65c10.29-.01 20.59-.01 30.88 0 .02.51.04 1.52.06 2.03h-31.08c.04-.51.1-1.52.14-2.03zM26.97 38.7c6.21.29 12.56-.71 18.67.61-.39.43-1.16 1.3-1.54 1.73-5.58-.06-11.15-.11-16.72.08-.11-.6-.31-1.82-.41-2.42z" fill="#f6f4f6"></path><path d="M38.01 19.13c6.65.18 11.28-6.45 17.96-6.08 8.7.09 17.4 0 26.09.07-.03.46-.11 1.38-.14 1.85-9.4.04-18.79-.1-28.18.08-3.22 1.87-7.11 2.86-9.54 5.84-6.04.21-12.1-.29-18.13.26l-.17.57c-1.68 2.06-2.01 4.73-2.25 7.29-.41.01-1.22.02-1.62.03-.26-3.55.55-7.01 2.33-10.09 4.55.07 9.1.23 13.65.18zm158.01-1.48c1.31.01 2.63.01 3.95.02-.02 6.25-.07 12.51.02 18.76-1.31 1-2.61 2.02-3.9 3.04-.1-7.27.01-14.55-.07-21.82zm5.77-.07h4.42c-.46 6.27-.2 12.57-.2 18.85-1.32.99-2.62 2-3.91 3.02-.26-7.29.2-14.59-.31-21.87zm6.23.08h3.95c-.02 6.26-.07 12.51.02 18.76-1.31 1.01-2.6 2.04-3.89 3.06-.12-7.27 0-14.55-.08-21.82zm5.77-.09c1.47.01 2.94.02 4.42.01-.46 6.28-.19 12.57-.2 18.86-1.32.98-2.62 1.99-3.91 3.01-.27-7.29.2-14.6-.31-21.88zm6.23.1c1.32-.01 2.64-.01 3.96-.02-.03 6.26-.08 12.51.02 18.77-1.31 1.01-2.61 2.03-3.91 3.04-.1-7.26.01-14.52-.07-21.79zm-30.38.68c1.42.15 2.85.29 4.28.43.13 5.88-.02 11.77.08 17.65-1.32.99-2.61 2.01-3.9 3.02-.31-7.03.33-14.09-.46-21.1zm36.45.27c2.02.84 4.06 1.67 6.1 2.47-.28 4.29.4 8.62-.26 12.88-.64 2.64-3.74 3.3-5.76 4.6-.2-6.65-.23-13.3-.08-19.95zm-55.76.73c1.87.15 3.75.28 5.63.41 0 5.55-.04 11.1.02 16.65-1.47 1.03-2.66 3.29-4.76 2.28-1.4-6.31-.07-12.93-.89-19.34zm7.47.26c1.46.01 2.93 0 4.39 0-.41 5.59-.19 11.21-.19 16.82-1.32.99-2.61 2-3.91 3.02-.24-6.61.19-13.24-.29-19.84zm6-.04c1.38.05 2.77.09 4.17.13-.01 5.57-.07 11.14.02 16.72-1.31 1.01-2.6 2.04-3.89 3.07-.21-6.64.23-13.29-.3-19.92zm61.19.32c2.55 1.21 4.96 2.72 7.12 4.55l.6.47c-.53 1.95-.31 4.45-2.15 5.75-1.55 1.25-3.73.92-5.57 1.28-.13-4.02-.18-8.04 0-12.05zm-109 5.21c10.34-.01 20.68-.01 31.03 0-.02.47-.05 1.4-.07 1.87-10.29-.01-20.59-.01-30.88 0l-.08-1.87zM30.15 48.98c2.49-.1 4.68 1.55 6.96 2.4-1.5 5.88-5.09 10.89-7.29 16.5-2.48 4.23-3.7 9.29-7.03 12.95-3.65.29-7-1.43-10.23-2.85 2.9-6.03 6.89-11.44 10.06-17.32 2.53-3.87 4.39-8.24 7.53-11.68z" fill="#3b3b3b"></path></svg>