<svg data-v-ea210746="" xmlns="http://www.w3.org/2000/svg" fill="#fff" viewBox="0 0 64 64" class="ui-icon max-h-full w-full" style="opacity: 1;"><path fill="#000" d="M41.8 47.82q.35.54.36-.1l.1-3.67a1.96 1.95-65 00-.47-1.3q-1.87-2.17-2.53-4.99a.74.73-6.4 00-.72-.57l-24.27.04a.75.74-90 00-.74.75l-.01 18.23a1.99 1.99 0 01-1.97 1.99l-6.8.05a1.86 1.86 0 01-1.87-1.85L2.86 4.59a1.81 1.8 90 011.8-1.81l44.31.02a1.78 1.78 0 011.78 1.77q.04 13.07 0 26.47c-.01 1.79 1.49 2.53 1.93 4.12q1.25 4.57-1.87 7.29a1.32 1.3-16.6 00-.44.8q-.3 2.01-.1 3.95.06.62.45.13c1.82-2.32 5.89-7.26 8.62-3.24q1.18 1.72 1.82 5.22.43 2.35-1.64 3.27-.62.27-.89.88-1.91 4.41-6.26 6.69c-6.91 3.61-14.51.7-18.07-5.96-.62-1.15-1.52-1.7-2.56-2.38a1.78 1.77-69.1 01-.77-1.73c.44-2.98 1.95-9.89 6.41-6.81q2.62 1.81 4.42 4.55M48.513 5.5a.59.59 0 00-.592-.59l-10.82.02a.59.59 0 00-.588.59l.015 8.64a.59.59 0 00.59.59l10.82-.02a.59.59 0 00.59-.59zM11.24 15.38a.66.66 0 01.66-.66l11.12.01a.66.66 0 00.66-.65l.07-8.43a.66.66 0 00-.66-.67L5.63 4.97a.66.66 0 00-.66.66L5 55.34a.66.66 0 00.66.66l4.94.04a.66.66 0 00.66-.66l-.01-19.73a.66.66 0 01.66-.66l11.17.05a.66.66 0 00.67-.67l-.07-8.44a.66.66 0 00-.65-.65l-11.1-.01a.66.66 0 01-.66-.66zm25.012.14a.53.53 0 00-.53-.53l-11.2.02a.53.53 0 00-.53.53l.016 8.92a.53.53 0 00.53.53l11.2-.02a.53.53 0 00.53-.53zm.288 10.33l.01 8.53q0 .49.47.61 1.18.3 2.27 0 .52-.14.81-.6 2.83-4.46 7.79-3.57a.56.55 4.7 00.66-.55L48.49 26q-.01-.72-.74-.72l-10.6-.03q-.61 0-.61.6m7.97 28.92q0 1.82-1.58.92c-1.43-.82-5.9-4.39-4.08-6.33q.8-.85-.03-1.68l-2.91-2.9q-.78-.78-1.12.28l-1.47 4.47q-.19.59.39.83l1.11.45q.5.2.72.7c4.86 10.75 16.67 10.46 21.54-.1q.22-.47.64-.78l.79-.59q.52-.39.32-1.01l-1.15-3.6a.93.93 0 00-1.54-.38l-2.94 2.89a.71.7 44.2 00.02 1.03q.46.41.72.98.24.51.01 1.02-1.61 3.54-5.02 5.08a.66.66 0 01-.93-.6V42.19a1.25 1.25 0 01.67-1.11q2.77-1.45 1.93-4.6c-2.1-7.84-13.69-1.14-6.58 4.74a1.33 1.33 0 01.49 1.03zm6.31-4.98q-.6-.82-.56.2l.05 1.39q.03.85.56.19.65-.8-.05-1.78m-8.71.41q.03-.19-.08-.35-.3-.46-.58.02-.55.94.28 1.56a.28.28 0 00.44-.17c.06-.38-.1-.68-.06-1.06"></path><rect width="12" height="9.82" x="-6" y="-4.91" rx=".59" transform="rotate(-.1 5653.434 -24357.244)"></rect><path d="M11.24 15.38l.03 9.23a.66.66 0 00.66.66l11.1.01a.66.66 0 01.65.65l.07 8.44a.66.66 0 01-.67.67l-11.17-.05a.66.66 0 00-.66.66l.01 19.73a.66.66 0 01-.66.66L5.66 56a.66.66 0 01-.66-.66L4.97 5.63a.66.66 0 01.66-.66l17.46.01a.66.66 0 01.66.67l-.07 8.43a.66.66 0 01-.66.65l-11.12-.01a.66.66 0 00-.66.66"></path><rect width="12.26" height="9.98" x="-6.13" y="-4.99" rx=".53" transform="rotate(-.1 11468.488 -17253.219)"></rect><path d="M36.54 25.85q0-.6.61-.6l10.6.03q.73 0 .74.72l.06 4.27a.56.55 4.7 01-.66.55q-4.96-.89-7.79 3.57-.29.46-.81.6-1.09.3-2.27 0-.47-.12-.47-.61z"></path><path d="M44.51 54.77V42.25a1.33 1.33 0 00-.49-1.03c-7.11-5.88 4.48-12.58 6.58-4.74q.84 3.15-1.93 4.6a1.25 1.25 0 00-.67 1.11v13.26a.66.66 0 00.93.6q3.41-1.54 5.02-5.08.23-.51-.01-1.02-.26-.57-.72-.98a.71.7 44.2 01-.02-1.03l2.94-2.89a.93.93 0 011.54.38l1.15 3.6q.2.62-.32 1.01l-.79.59q-.42.31-.64.78c-4.87 10.56-16.68 10.85-21.54.1q-.22-.5-.72-.7l-1.11-.45q-.58-.24-.39-.83l1.47-4.47q.34-1.06 1.12-.28l2.91 2.9q.83.83.03 1.68c-1.82 1.94 2.65 5.51 4.08 6.33q1.58.9 1.58-.92"></path></svg>