<svg data-v-ea210746="" xmlns="http://www.w3.org/2000/svg" fill="#fff" viewBox="0 0 64 64" class="ui-icon">
                <path d="M37.06 6.64q11.02 5.14 22.61 10.42a4 3.98-77.9 012.34 3.64v30.8a2.01 2 0 01-2.01 2l-55.75.01a2.26 2.26 0 01-2.26-2.26l-.01-30.71q0-2.4 2.18-3.39 12.65-5.79 25.52-11.71c2.87-1.32 4.82.01 7.38 1.2M11.25 26.28a.54.54 0 01.54-.54l40.39-.02a.54.54 0 01.54.54l.03 24.37a.54.54 0 00.55.54l5.93-.06a.54.54 0 00.53-.54l-.03-30.4a.54.54 0 00-.31-.49L32.23 7.14a.54.54 0 00-.46 0L4.56 19.68a.54.54 0 00-.31.49l.01 30.43a.54.54 0 00.54.54l5.91.01a.54.54 0 00.54-.54zm13.38 18.5h14.63a.73.73 0 01.73.73l.02 2.91q.01 1.69 1.66 2.06l.42.1q2.16.5 2.29-1.71l.18-3.08a1.36 1.33-20.5 01.42-.9q1.85-1.78 1.15-4.66-.13-.54-.6-.85c-.97-.65-1.54-1.36-1.72-2.57q-.44-3.05-.77-5.86-.24-2.04-2.29-2.04l-17.52-.06a2.29 2.29 0 00-2.29 2.03q-.37 3.16-.84 6.18c-.16 1.06-.73 1.66-1.58 2.23a1.47 1.44-8.9 00-.58.78q-1.01 3.16 1.12 4.81.44.34.44.9l.01 2.9q0 1.92 1.92 1.88l.66-.02a1.92 1.91-90 001.87-1.88l.07-3.29q.01-.59.6-.59"></path>
                <path d="M40.59 37.28l-17.2.01a.75.75 0 01-.74-.88l.81-4.52a.75.75 0 01.74-.62l15.6.01a.75.75 0 01.74.62l.79 4.5a.75.75 0 01-.74.88"></path>
                <g fill="#000">
                    <path d="M11.25 26.28v24.33a.54.54 0 01-.54.54l-5.91-.01a.54.54 0 01-.54-.54l-.01-30.43a.54.54 0 01.31-.49L31.77 7.14a.54.54 0 01.46 0l27.19 12.54a.54.54 0 01.31.49l.03 30.4a.54.54 0 01-.53.54l-5.93.06a.54.54 0 01-.55-.54l-.03-24.37a.54.54 0 00-.54-.54l-40.39.02a.54.54 0 00-.54.54"></path>
                    <path d="M24.03 45.37l-.07 3.29a1.92 1.91-90 01-1.87 1.88l-.66.02q-1.92.04-1.92-1.88l-.01-2.9q0-.56-.44-.9-2.13-1.65-1.12-4.81a1.47 1.44-8.9 01.58-.78c.85-.57 1.42-1.17 1.58-2.23q.47-3.02.84-6.18a2.29 2.29 0 012.29-2.03l17.52.06q2.05 0 2.29 2.04.33 2.81.77 5.86c.18 1.21.75 1.92 1.72 2.57q.47.31.6.85.7 2.88-1.15 4.66a1.36 1.33-20.5 00-.42.9l-.18 3.08q-.13 2.21-2.29 1.71l-.42-.1q-1.65-.37-1.66-2.06l-.02-2.91a.73.73 0 00-.73-.73H24.63q-.59 0-.6.59m16.56-8.09a.75.75 0 00.74-.88l-.79-4.5a.75.75 0 00-.74-.62l-15.6-.01a.75.75 0 00-.74.62l-.81 4.52a.75.75 0 00.74.88z"></path>
                </g>
            </svg>