<svg xmlns="http://www.w3.org/2000/svg" viewBox="0 0 64 64">
  <defs>
    <style>
      .signal-jammer-icon { fill: #fff; }
      .signal-jammer-detail { fill: #000; }
    </style>
  </defs>
  <g class="signal-jammer-icon">
    <path d="M29 22.72l-.01-5.77q0-.67-.46-1.15-2.13-2.29-1.34-4.69c2.92-8.78 14.01-1.07 8.27 4.76q-.46.46-.46 1.11l-.01 5.72a.73.73 0 00.72.73l8.68.09a1.62 1.62 0 011.6 1.62L46 53a1.76 1.75-90 01-1.75 1.76l-24.49.01a1.77 1.76 0 01-1.77-1.76V25.74q0-2.26 2.27-2.27l8.02-.03q.72 0 .72-.72m5.64-10.5a2.67 2.67 0 00-2.67-2.67 2.67 2.67 0 00-2.67 2.67 2.67 2.67 0 002.67 2.67 2.67 2.67 0 002.67-2.67m-3.33 13.21a.31.31 0 01-.32.32l-10.42-.1a.31.31 0 00-.31.31l.01 26.23a.31.31 0 00.31.31h22.85a.31.31 0 00.31-.31V25.94a.31.31 0 00-.31-.31l-10.42.11a.31.31 0 01-.31-.31l.03-7.8a.31.31 0 00-.33-.31l-.85.04a.31.31 0 00-.3.31z"/>
    <path d="M40.25 39.31a8.24 8.24 0 01-8.24 8.24 8.24 8.24 0 01-8.24-8.24 8.24 8.24 0 018.24-8.24 8.24 8.24 0 018.24 8.24m-8.487 5.225a5.23 5.12 92.6 005.352-4.993 5.23 5.12 92.6 00-4.878-5.457 5.23 5.12 92.6 00-5.352 4.993 5.23 5.12 92.6 004.878 5.457"/>
  </g>
  <circle cx="31.97" cy="12.22" r="2.67" class="signal-jammer-detail"/>
  <path d="M31.31 25.43l-.06-7.76a.31.31 0 01.3-.31l.85-.04a.31.31 0 01.33.31l-.03 7.8a.31.31 0 00.31.31l10.42-.11a.31.31 0 01.31.31v26.25a.31.31 0 01-.31.31H20.58a.31.31 0 01-.31-.31l-.01-26.23a.31.31 0 01.31-.31l10.42.1a.31.31 0 00.32-.32m8.94 13.88a8.24 8.24 0 00-8.24-8.24 8.24 8.24 0 00-8.24 8.24 8.24 8.24 0 008.24 8.24 8.24 8.24 0 008.24-8.24" class="signal-jammer-detail"/>
  <ellipse rx="5.23" ry="5.12" transform="rotate(92.6 -2.783 34.945)" class="signal-jammer-detail"/>
</svg>