<svg xmlns="http://www.w3.org/2000/svg" fill="#fff" viewBox="0 0 64 64">
  <!-- 黑色路径1 -->
  <path fill="#000" d="M49.87 36.78c2.4-.36 7.47-1.44 9.66-.05 1.91 1.21 1.27 4-.04 5.33q-3.48 3.56-9.64 5.37-.79.23-.49.99c.41 1.02 1.18 1.86 1.1 3-.39 5.39-10.95 3.07-13.76 1.94a.54.54 0 00-.74.55c.23 2.65.18 6.94-3.33 7.59q-2.04.37-3.5-1.39c-1.46-1.76-1.16-4.12-1.13-6.24a.54.54 0 00-.74-.51q-5.71 2.36-11.92.83a1.56 1.55-10.6 01-.88-.6c-1.3-1.84-1.08-3.59.28-5.24q.46-.56-.23-.76c-3.49-1.03-11.84-4.36-11.2-9.09.54-3.92 8.48-2.08 10.86-1.69q.83.13.31-.53c-4.13-5.3-7.8-10.7-9.4-17.2-.94-3.84 2.65-5.75 5.68-3.73q7.41 4.97 13.03 11.66 1.17 1.39 1.05-.42-.77-11 3.81-21.62 1.09-2.52 3.6-2.5c1.88.02 2.73 1.71 3.38 3.2q4.26 9.86 3.54 21.08-.10 1.58.92.37 6.06-7.15 13.61-12.02c3.06-1.97 6.09.65 5.21 4.12-1.61 6.33-5.24 11.91-9.4 16.92q-.65.79.36.64M22.03 41.5q-7.51-2.75-15.21-3.18a1.02 1.01-16 00-.89 1.6c2.68 3.78 10 5.84 14.48 7.08q2.47.68-.04 1.16-2.56.49-4.26 2.52a.99.98-66.8 00.64 1.61q6.61.74 12.22-1.89a.91.91 0 011.3.81l.12 6.4q.02 1.2 1.22 1.37l.41.06q1.51.22 1.55-1.31l.17-6.52a.91.91 0 011.3-.81q5.95 2.73 12.47 1.83a.74.74 0 00.57-1.06c-1.14-2.34-3.18-2.63-5.42-3.34q-.93-.3.02-.56 5.97-1.6 11.34-4.06 2.44-1.12 4.01-3.18a1.07 1.06-73.8 00-.94-1.71c-3.64.34-7.65.69-11.16 1.91q-1.9.66-3.82 1.22-1.02.29-.25-.45c6.06-5.86 13.44-14.74 14.81-23.08a1.03 1.02-12.5 00-1.59-1.01q-11.83 8.07-18.03 18.56-1.13 1.93-.79-.28c1.49-9.65 1.21-20.55-3.27-29.49a1.11 1.1-45.1 00-1.98.01c-4.43 8.88-4.73 19.32-3.26 29.32q.3 2.02-.8.31C22.21 27.96 16.2 21.77 8.89 16.97a.99.99 0 00-1.52.99c1.47 8.52 8.75 17.08 14.9 23.17q.74.73-.24.37"/>
  <!-- 白色路径2 -->
  <path d="M22.27 41.13c-6.15-6.09-13.43-14.65-14.9-23.17a.99.99 0 011.52-.99c7.31 4.8 13.32 10.99 18.06 18.37q1.1 1.71.8-.31c-1.47-10-1.17-20.44 3.26-29.32a1.11 1.1-45.1 011.98-.01c4.48 8.94 4.76 19.84 3.27 29.49q-.34 2.21.79.28 6.2-10.49 18.03-18.56a1.03 1.02-12.5 011.59 1.01C55.3 26.26 47.92 35.14 41.86 41q-.77.74.25.45 1.92-.56 3.82-1.22c3.51-1.22 7.52-1.57 11.16-1.91a1.07 1.06-73.8 01.94 1.71q-1.57 2.06-4.01 3.18-5.37 2.46-11.34 4.06-.95.26-.02.56c2.24.71 4.28 1 5.42 3.34a.74.74 0 01-.57 1.06q-6.52.9-12.47-1.83a.91.91 0 00-1.3.81l-.17 6.52q-.04 1.53-1.55 1.31l-.41-.06q-1.2-.17-1.22-1.37l-.12-6.4a.91.91 0 00-1.3-.81q-5.61 2.63-12.22 1.89a.99.98-66.8 01-.64-1.61q1.7-2.03 4.26-2.52 2.51-.48.04-1.16c-4.48-1.24-11.8-3.3-14.48-7.08a1.02 1.01-16 01.89-1.6q7.7.43 15.21 3.18.98.36.24-.37"/>
</svg>