<svg data-v-ea210746="" xmlns="http://www.w3.org/2000/svg" fill="#fff" viewBox="0 0 64 64" class="ui-icon max-h-full w-full" style="fill: rgb(93, 182, 229); opacity: 1;"><path fill="#000" d="M27.5 42.4l-.6-6.81q-.11-1.2-1.31-1.23l-18.49-.4a3 3 0 01-2.93-3.11l.25-7.2a2.51 2.51 0 012.43-2.42l18.72-.55q1.3-.04 1.53-1.31.5-2.7 1.52-5.56c1.04-2.91 5.64-3.07 6.7-.19q1.15 3.11 1.66 6.13a.78.77 3.1 00.57.62q1.58.4 3.2.43 8.34.14 16.27.45a2.55 2.55 0 012.43 2.2q.51 3.83.23 7.7a3.02 3.02 0 01-2.95 2.81l-18.2.4q-1.3.03-1.43 1.32l-.63 6.57q-.09.9.81 1c3.15.34 6.6.16 6.57 4.64q-.02 3.25-2.91 3.68-9.3 1.37-17.82 0-3.48-.56-2.99-4.72c.45-3.83 4.31-2.9 6.95-3.81q.46-.16.42-.64m.53-19.61l-20.39.73q-1.06.03-1.09 1.09l-.17 5.76q-.04 1.29 1.25 1.32l20.66.53a.65.64-2.5 01.63.57l1.28 11.46q.07.64-.57.75-3.17.53-5.99 1.1-1.44.29-1.37 1.8.04 1.01 1.04 1.21 8.33 1.7 17.32.07a1.43 1.43 0 00.96-2.16q-.61-.98-1.95-1.13-2.94-.35-5.37-.99a.61.61 0 01-.45-.65l1.23-11.44q.06-.57.64-.59l20.83-.53a1.16 1.15-2.4 001.13-1.22l-.35-6.18q-.04-.72-.76-.75l-20.56-.76q-.65-.02-.79-.67-.69-3.3-1.78-6.95-.14-.48-.52-.78-.9-.7-1.79-.04-.42.32-.57.84-1.06 3.61-1.73 6.96-.13.63-.77.65"></path><path d="M28.8 22.14q.67-3.35 1.73-6.96.15-.52.57-.84.89-.66 1.79.04.38.3.52.78 1.09 3.65 1.78 6.95.14.65.79.67l20.56.76q.72.03.76.75l.35 6.18a1.16 1.15-2.4 01-1.13 1.22l-20.83.53q-.58.02-.64.59l-1.23 11.44a.61.61 0 00.45.65q2.43.64 5.37.99 1.34.15 1.95 1.13a1.43 1.43 0 01-.96 2.16q-8.99 1.63-17.32-.07-1-.2-1.04-1.21-.07-1.51 1.37-1.8 2.82-.57 5.99-1.1.64-.11.57-.75l-1.28-11.46a.65.64-2.5 00-.63-.57l-20.66-.53q-1.29-.03-1.25-1.32l.17-5.76q.03-1.06 1.09-1.09l20.39-.73q.64-.02.77-.65" class="leaflet-drag-target"></path></svg>
