<svg data-v-ea210746="" viewBox="0 0 497 109" xmlns="http://www.w3.org/2000/svg" fill="#7e7e7e" class="ui-icon max-h-full absolute left-1/2 top-1/2 -translate-x-1/2 -translate-y-1/2 z-[201] w-[70%]" style="fill: rgb(240, 200, 80); opacity: 1;"><g fill="#000"><path d="M166.85 1.38c4.08-.21 8.17-.22 12.26-.01.31 2.27.51 4.54.69 6.82 8.08.02 16.17.07 24.25.03 5.21.13 9.71-3.22 14.89-3.23 5.58-.11 11.17-.09 16.75.29.26 6.13.29 12.26 0 18.39-5.58.38-11.17.34-16.75.29-4.54.09-8.47-2.69-12.93-3.1-3.86-.31-7.74-.09-11.6-.13-.01 2.2 0 4.4.01 6.6 11.21-.06 22.42.02 33.63-.06 2.52.08 5.26-.16 7.52 1.18 1.19 1.29 1.78 2.99 2.6 4.52 74.55.07 149.1-.02 223.65.04.16-.74.49-2.21.65-2.95 11.09-.37 22.21-.36 33.3-.02.41 7.2.49 14.44-.08 21.64-10.19.23-20.4.18-30.58.07-2 .2-2.87-1.86-4.11-3.01-44.62-.01-89.25-.02-133.87.01-.06 4.68.41 9.41-.32 14.05-.9 2.78-4.09 3.74-6.75 3.59-34.71.08-69.42-.01-104.13-.02-3.96-.13-7.37 2.19-10.89 3.66-.14 10.26.22 20.52-.21 30.78-12.83.28-25.69.52-38.5-.14-.84-5.2 1.6-11.45-2.26-15.74-1.13-1.34-1.07-3.18-1.46-4.79-7.96.4-16.06-.68-23.93.54-3.72 4.08-5.85 9.41-7.31 14.66-.17 3.44 1.66 6.83.58 10.3-7.29 1.57-13.21-4.04-19.99-5.47-5-.54-10.04.17-15.04-.32-7.22-.6-14.18-3.41-19.89-7.86-3.92-2.84-7.81-6.7-13.01-6.59-12.45-.11-24.91 0-37.37.01 2.15 3.87 7.92 7.13 6.05 12.13-2.45 1.92-5.79 1.24-8.67 1.43-6.01-.14-12.03.17-18.03-.09-2.66.04-5.25-2.11-4.91-4.92.49-8.68 2.11-17.28 2.41-25.98-.1-9.02-1.85-17.92-2.36-26.91-.35-2.61 1.67-5.14 4.24-5.51 4.78-.7 9.66.35 14.42-.44 2-1.03 3.73-2.94 6.19-2.65 19.35-.03 38.71.05 58.06-.04 1.6.12 3.4-.19 4.81.75 4.51 3.47 8.75 8.4 7.56 14.52 11.73-.25 23.48-.01 35.22-.07.05-5.49-.57-11.05.31-16.49.37-2.93 3.64-3.7 6.11-3.8 7.1-.13 14.21 0 21.31-.01-.04-2.4-.09-4.81-.18-7.22-2.29.97-4.09 2.81-6.37 3.73-6.5.48-13.04.2-19.55-.13-.32-6.13-.32-12.29 0-18.42 6.81-.38 13.67-.55 20.48-.16 1.02.87 1.76 2.01 2.6 3.04 3.28.06 6.56.05 9.84.02.15-2.28.34-4.55.66-6.81m2.45 4.07c.33 3.97.38 7.95.43 11.93 2.12.02 4.25.03 6.37.02.25-3.74.43-7.49.18-11.24l-.24-2.22c-2.24.35-5.32-.82-6.74 1.51m-33.82 2.74l.96 1.68c-.06 3.61-.09 7.21-.14 10.82 5.22-.01 10.44.01 15.67.05.06-3.65.07-7.29-.22-10.93.21-.41.61-1.25.82-1.66-5.69-.23-11.4-.28-17.09.04m72.69 3.23l-.32 1.88c.19 1.5.37 3.01.54 4.52 7.54 3.85 16.07 2.86 24.22 2.85-.02-3.59-.01-7.19-.05-10.79l.93-1.69c-5.47-.31-10.95-.24-16.43-.15-3.15.47-6.11 1.88-8.89 3.38m-54.67-.25c.23.43.68 1.29.91 1.73-.04 1.52-.07 3.05-.09 4.57 4.4-.05 8.81-.06 13.22.04 0-1.54.01-3.08.03-4.62.23-.43.71-1.28.95-1.71-5-.29-10.02-.3-15.02-.01m24.61.53l-.04 2.3c.05.82.16 2.46.21 3.28 9.24.29 18.5.13 27.75.11-.02-.89-.05-2.68-.07-3.57 0-.54 0-1.6-.01-2.14-9.28.01-18.56-.01-27.84.02m-10.23 9.36c-.01 2.08 0 4.15.01 6.22 6.02.05 12.05 0 18.08.07-.01-2.21-.02-4.42-.02-6.63-6.03.01-12.05.26-18.07.34m-32.9 9.86c-.42 5.92-.27 11.87-.2 17.8 24.53.12 49.06.01 73.58.06.32-1.75.54-3.55 1.17-5.22 2.2-1.41 4.91-1.23 7.41-1.27 5.68.06 11.35.09 17.03.01.05-3.81.14-7.61.12-11.41-10.02-.49-20.06-.12-30.1-.23-23 .2-46.02-.34-69.01.26m329.53 2.3c.24.44.71 1.31.95 1.74-.18 4.56-.13 9.11-.09 13.67 9.15-.09 18.3-.12 27.45-.03.03-4.57.08-9.14-.2-13.7.21-.44.64-1.32.86-1.75-9.65-.28-19.33-.37-28.97.07M24.48 37.89c.31 3.6.4 7.22.49 10.84 22.84-.32 45.68.16 68.52-.24-.2-.42-.61-1.26-.82-1.68.08-1.78.76-3.68.13-5.41-1.53-1.75-3.32-3.3-4.4-5.4-20.43-.1-40.86-.03-61.3-.04-1.45-.22-2.33.42-2.62 1.93m212.35-1.81c-.06.48-.2 1.44-.27 1.92-.06 1.44-.11 2.88-.15 4.32 27.89.06 55.79.01 83.68.02 3.65-.26 6.21 3.28 9.85 3.08 44.32-.01 88.65.07 132.98-.04.15-2.49.33-4.99.57-7.48-.21-.45-.64-1.34-.85-1.79-34.54-.28-69.1-.04-103.64-.12-40.72.06-81.45-.11-122.17.09m-224.8 3.55c.54 18.66-.09 37.34.33 56 5.97.04 11.93.11 17.89-.11-2.02-2.84-4.45-5.4-6.28-8.38-1.62-2.75-1.31-6.08-1.38-9.14.18-12.34-.07-24.69-.01-37.03.24-.43.71-1.29.95-1.71-3.81-.65-7.79-.96-11.5.37m-7.8 1.09c.8 6.52 1.42 13.06 2.13 19.59 1.43 11.75-1.65 23.37-2 35.09 1.84.15 3.68.29 5.52.42.33-18.25.06-36.51.14-54.77-.04-.63-.13-1.9-.18-2.54-2.03.24-4.76-.21-5.61 2.21m206.46 6.14c.22 5.31-.21 10.64.35 15.94 17.31.48 34.63.17 51.94.17-.01-2.31-.01-4.61-.01-6.92-16.32-.04-32.63.07-48.95-.06 0-.5.01-1.51.01-2.01 30.66-.14 61.31.1 91.97.03 5.29-.01 10.61-.31 15.86.5-1.49.75-3.03 1.37-4.6 1.91-.58-.08-1.73-.24-2.3-.31-.01 2.29 0 4.58.02 6.88.44.01 1.31.05 1.75.07 2.34-.06 4.69-.17 7.03-.31.3-5.25.24-10.5.22-15.75.01-.52.05-1.55.07-2.07-2.02-.16-4.04-.28-6.06-.28-34.65.02-69.29.01-103.94.02-1.64-.18-3.19.32-3.36 2.19m-185.7 4.09l-.08 2.04c-.06 2.92-.08 5.83-.08 8.74 3.7.02 7.41.04 11.11.07.02-2.92.05-5.85.08-8.77 0-.52 0-1.55.01-2.07-3.68-.01-7.36-.01-11.04-.01m12.95.03l.12 2.02c.07 9.71-.03 19.41.07 29.11 8.98.4 17.97 0 26.96.19 6.45.13 10.94 5.36 16 8.62 5.68 3.95 12.59 5.65 19.43 5.9-.13-4.51-.06-9.03.11-13.54-3.75-2.03-8.6-4.42-8.68-9.36-.44-5.67 3.66-10.14 7.96-13.19.05-2.57.08-5.14.11-7.71v-2.05c-20.7-.03-41.39-.04-62.08.01m64.02 0l.08 2.02c.03 2.53.07 5.07.15 7.6 35.48-.55 70.97-.15 106.45-.31-.05-2.4-.13-4.79-.32-7.18l.91.02c-.05-.55-.16-1.64-.21-2.19-35.69.13-71.37-.04-107.06.04m163.06 5.2c0 2.27.01 4.55.03 6.83.56 0 1.67-.01 2.22-.01l5.42-.06c.04-2.33.1-4.65.18-6.97-1.88.06-3.76.11-5.63.18-.56.01-1.67.02-2.22.03m9.94.08c-.01 2.25 0 4.49.02 6.74.45-.01 1.36-.01 1.81-.02 2.06.03 4.13.04 6.19.05l-.03-7.06c-1.95.05-3.89.09-5.83.16-.54.03-1.62.1-2.16.13m10.06-.09c0 2.27.01 4.54.02 6.8.56 0 1.68 0 2.25-.01 1.79 0 3.59 0 5.39-.01.05-2.32.1-4.65.19-6.97-1.88.05-3.76.1-5.64.17-.55.01-1.66.02-2.21.02m9.94.09c-.01 2.25 0 4.49.02 6.74.45-.01 1.36-.01 1.82-.02 2.06.03 4.12.04 6.18.05l-.03-7.07c-1.95.05-3.9.1-5.85.17-.54.03-1.61.1-2.14.13m10.06-.08c0 2.26.01 4.53.02 6.8.56-.01 1.68-.01 2.25-.02 1.79 0 3.59 0 5.39-.01.05-2.33.1-4.65.19-6.97-1.88.05-3.76.1-5.64.17-.55.01-1.66.02-2.21.03m-182.85 6.11c.28.46.82 1.4 1.1 1.87l.91.12c.36 3.94.77 8.17-1.14 11.81-1.78 3.61-5.43 5.69-8.95 7.32-.11 4.57-.14 9.15-.12 13.72 4.97 2.18 9.94 4.39 15.13 5.99-.74-3.68-1.89-7.58-.1-11.16 2.24-5.19 3.82-11.93 9.31-14.59 8.49-1.01 17.13-.23 25.68-.39-.15-5.11.09-10.24-.43-15.34l-.13.83c-1.59-.97-2.36-.57-2.32 1.21 1.23 2.78 3.3 6.48.79 9.19-3.24 3.65-8.6 2.28-12.9 2.59-3.42-.34-7.9.97-10.32-2.19-2.12-2.99.05-6.37 1.07-9.32.42-.49 1.27-1.48 1.69-1.98-6.42-.04-12.86-.11-19.27.32m22.31 2.95l1.06-.13c.45 2.21 1.45 4.21 3.08 5.79.19-2.09.31-4.17.39-6.27l.8-2.16c-2.13.3-5.21-.24-5.33 2.77m21.08-2.3c.2.49.59 1.47.79 1.95-.11 5.98.03 11.95-.18 17.93 14.09-5.69 27.98-11.86 41.96-17.82.55-.25 1.65-.76 2.2-1.02-1.95-1.09-4.13-1.5-6.34-1.32-12.81.21-25.63-.32-38.43.28m-64.29 1.23c-3.43 1.91-6.4 5.57-6.09 9.69.26 2.52 2.53 4.25 4.72 5.16 4.6 1.91 9.95 2.15 14.67.52 3.71-1.65 6.74-5.35 6.7-9.55.31-2.7-1.04-6.29-4.28-6.06-5.23-.16-10.54-.47-15.72.24m51.43-.37c-1.01 3.01-.15 5.97 1.38 8.62 2.16-.49 4.27-1.18 6.27-2.12-.78-2.16-1.58-4.31-2.37-6.46-1.76-.02-3.52-.03-5.28-.04M25.97 65.03c-.01 2.65-.01 5.29 0 7.93 3.02.02 6.04.03 9.06.02 0-2.66-.03-5.31-.06-7.96-3 0-6 0-9 .01m114.99 6.39l3.54.9c-.91-2.07-1.7-4.19-2.43-6.32-.38 1.8-.77 3.6-1.11 5.42m52.13 2.55c-7.86 3.72-16.21 6.43-23.66 10.92l-.35-.06c.47 4.28.29 8.59.25 12.88 10.85.12 21.71.03 32.57.06-.01-8.41.1-16.81-.06-25.22.11-.55.32-1.66.43-2.21-3.23.77-6.11 2.44-9.18 3.63M25.38 76.1c-.24.44-.71 1.32-.94 1.76.13 1.46.27 2.92.4 4.39 3.7.03 7.4.03 11.1 0 .02-1.42.03-2.83.05-4.25.01-.5.02-1.49.03-1.99-3.55.03-7.1-.19-10.64.09m77.34 7.6c-.01 1.89 0 3.79.04 5.68-.22 2.48-.06 4.98-.02 7.47 3 0 5.99.03 8.99.05-.05-3.75.04-7.49.27-11.23.01-.41.02-1.22.03-1.63-3.11-.01-6.21-.1-9.31-.34z"></path><path d="M151.5 32.3c2.77.02 5.54.03 8.31.06-.01 2.96-.08 5.93-.11 8.9-2.73.01-5.46-.01-8.18-.08.03-2.96.03-5.92-.02-8.88m2.33 4.32c-.04.63-.13 1.88-.18 2.5 1.47-.14 2.94-.29 4.41-.44-.33-1.22-.65-2.44-1.01-3.66-1.02-1.28-4.1-.13-3.22 1.6zm18.16-4.23c7.69-.11 15.39-.05 23.08-.11 2.15.12 4.65-.16 6.41 1.33 1.4 2.24 1.07 5.03 1.38 7.54-10.91.24-21.83.18-32.75.03.07-3.03.36-6.1 1.88-8.79m.35 6.51c7.22.35 14.45.13 21.67.24 2.39-.13 5.52.53 6.88-2.04-.8-1.5-2.03-2.92-3.92-2.46-8.26.33-16.62-.66-24.8.6.07 1.22.11 2.44.17 3.66zm41.67 10.13c35.66 0 71.32-.02 106.97.01v1.92c-35.66-.04-71.31.17-106.97.01v-1.94zM46.56 59c1.46-1.49 2.94-2.97 4.43-4.44 1.51 1.47 3 2.95 4.48 4.44-1.48 1.49-2.97 2.97-4.48 4.45-1.49-1.47-2.97-2.96-4.43-4.45zm21.97 0c1.48-1.49 2.97-2.97 4.47-4.44 1.5 1.47 2.98 2.95 4.45 4.44a464.66 464.66 0 01-4.44 4.44c-1.51-1.47-3-2.95-4.48-4.44zm38.7-3.88c2.39-.91 3.9 2.75 1.55 3.8-2.39.91-3.94-2.78-1.55-3.8zm87.01 24.18c.39-.6 1.18-1.79 1.58-2.39.24 4.35.08 8.71.17 13.06-.13 1.41.43 2.69 1.25 3.79.21.33.63.98.84 1.31-1.35-.04-2.69-.08-4.03-.11.11-5.22-.44-10.47.19-15.66zm-11.23 2.82l1.87-.72c.48 4.06-.99 8.74 1.4 12.34l.84 1.32c-1.37-.04-2.74-.07-4.11-.1-.05-4.28-.02-8.56 0-12.84zm-9.1 12.83c.16-3.07-.6-6.57 1.74-9.02.44 2.61-.16 5.61 1.61 7.83.21.32.62.98.83 1.31-1.4-.05-2.79-.09-4.18-.12zm-66.62-5.7c1.51-1.13 3.95 1.89 2.04 3.06-1.95 2.63-5.12-2.42-2.04-3.06z"></path></g><path d="M169.3 5.45c1.42-2.33 4.5-1.16 6.74-1.51l.24 2.22c-2.33-.21-4.66-.44-6.98-.71zm-33.82 2.74c5.69-.32 11.4-.27 17.09-.04-.21.41-.61 1.25-.82 1.66-5.09.34-10.21.33-15.31.06l-.96-1.68zm72.69 3.23c2.78-1.5 5.74-2.91 8.89-3.38 5.48-.09 10.96-.16 16.43.15l-.93 1.69c-4.2.27-8.41-.04-12.6.17-4.24.14-8.09 2.12-12.11 3.25l.32-1.88zm-54.67-.25c5-.29 10.02-.28 15.02.01-.24.43-.72 1.28-.95 1.71-4.38.27-8.78.28-13.16.01-.23-.44-.68-1.3-.91-1.73zm24.61.53c9.28-.03 18.56-.01 27.84-.02.01.54.01 1.6.01 2.14-9.29.34-18.59.12-27.89.18l.04-2.3zm286.4 21.52c9.64-.44 19.32-.35 28.97-.07-.22.43-.65 1.31-.86 1.75-9.05.26-18.11.23-27.16.06-.24-.43-.71-1.3-.95-1.74zm-310.68 3.4c-.88-1.73 2.2-2.88 3.22-1.6.05 1.63-1.96 2.33-3.22 1.6zm18.34-1.38c8.18-1.26 16.54-.27 24.8-.6 1.89-.46 3.12.96 3.92 2.46-7.64-.26-15.3.05-22.94-.09-2.09.08-3.99-.8-5.78-1.77zM24.48 37.89c.29-1.51 1.17-2.15 2.62-1.93 20.44.01 40.87-.06 61.3.04 1.08 2.1 2.87 3.65 4.4 5.4.63 1.73-.05 3.63-.13 5.41-1.62-3.04-2.99-6.58-6.11-8.42-1.46-.37-2.98-.38-4.47-.43-19.21 0-38.41.17-57.61-.07zm212.35-1.81c40.72-.2 81.45-.03 122.17-.09 34.54.08 69.1-.16 103.64.12.21.45.64 1.34.85 1.79-75.64.3-151.29.11-226.93.1.07-.48.21-1.44.27-1.92zm-224.8 3.55c3.71-1.33 7.69-1.02 11.5-.37-.24.42-.71 1.28-.95 1.71-3.56.28-7.26.23-10.55-1.34zm-7.8 1.09c.85-2.42 3.58-1.97 5.61-2.21.05.64.14 1.91.18 2.54-1.93-.1-3.86-.2-5.79-.33zm206.46 6.14c.17-1.87 1.72-2.37 3.36-2.19 34.65-.01 69.29 0 103.94-.02 2.02 0 4.04.12 6.06.28-.02.52-.06 1.55-.07 2.07-37.76-.09-75.53.19-113.29-.14zm-185.7 4.09c3.68 0 7.36 0 11.04.01-.01.52-.01 1.55-.01 2.07-3.71 0-7.41-.01-11.11-.04l.08-2.04zm12.95.03c20.69-.05 41.38-.04 62.08-.01v2.05c-20.65 0-41.3-.01-61.96-.02l-.12-2.02zm64.02 0c35.69-.08 71.37.09 107.06-.04.05.55.16 1.64.21 2.19l-.91-.02c-35.43-.2-70.85.01-106.28-.11l-.08-2.02zm163.06 5.2c.55-.01 1.66-.02 2.22-.03l.03 6.85c-.55 0-1.66.01-2.22.01-.02-2.28-.03-4.56-.03-6.83zm9.94.08c.54-.03 1.62-.1 2.16-.13l-.33 6.85c-.45.01-1.36.01-1.81.02-.02-2.25-.03-4.49-.02-6.74zm10.06-.09c.55 0 1.66-.01 2.21-.02l.06 6.81c-.57.01-1.69.01-2.25.01-.01-2.26-.02-4.53-.02-6.8zm9.94.09c.53-.03 1.6-.1 2.14-.13l-.3 6.85c-.46.01-1.37.01-1.82.02-.02-2.25-.03-4.49-.02-6.74zm10.06-.08c.55-.01 1.66-.02 2.21-.03l.06 6.81c-.57.01-1.69.01-2.25.02-.01-2.27-.02-4.54-.02-6.8zm9.94-.07c.57.07 1.72.23 2.3.31-.2 2.21-.37 4.42-.53 6.64-.44-.02-1.31-.06-1.75-.07-.02-2.3-.03-4.59-.02-6.88zm-192.79 6.18c6.41-.43 12.85-.36 19.27-.32-.42.5-1.27 1.49-1.69 1.98-5.18.31-10.38.52-15.57.33l-.91-.12c-.28-.47-.82-1.41-1.1-1.87zm38.94 1.39c-.04-1.78.73-2.18 2.32-1.21-.19 1.49-.96 1.89-2.32 1.21zm-16.63 1.56c.12-3.01 3.2-2.47 5.33-2.77l-.8 2.16c-.86.12-2.6.36-3.47.48l-1.06.13zm21.08-2.3c12.8-.6 25.62-.07 38.43-.28 2.21-.18 4.39.23 6.34 1.32-.55.26-1.65.77-2.2 1.02-13.93-.01-27.86.21-41.78-.11-.2-.48-.59-1.46-.79-1.95zm27.53 11.03c3.07-1.19 5.95-2.86 9.18-3.63-.11.55-.32 1.66-.43 2.21-6.71 3.64-14 6.01-20.82 9.4-3.67 1.52-7.45 4.24-11.59 2.94 7.45-4.49 15.8-7.2 23.66-10.92zM25.38 76.1c3.54-.28 7.09-.06 10.64-.09-.01.5-.02 1.49-.03 1.99-3.85.01-7.7.02-11.55-.14.23-.44.7-1.32.94-1.76zm170.44.81c.5.6 1.51 1.81 2.02 2.41.51 4.8.43 9.71-.6 14.44-.82-1.1-1.38-2.38-1.25-3.79-.09-4.35.07-8.71-.17-13.06zm-10.94 4.49c4.18 2.4 2.11 8.5 1.4 12.34-2.39-3.6-.92-8.28-1.4-12.34zm-82.16 2.3c3.1.24 6.2.33 9.31.34-.01.41-.02 1.22-.03 1.63-3.48.09-7.06.7-9.24 3.71-.04-1.89-.05-3.79-.04-5.68zm72.93 2.23c3.39 1.47 2.3 5.04 1.61 7.83-1.77-2.22-1.17-5.22-1.61-7.83z" fill="#f3f2f3"></path><path d="M169.3 5.45c2.32.27 4.65.5 6.98.71.25 3.75.07 7.5-.18 11.24-2.12.01-4.25 0-6.37-.02-.05-3.98-.1-7.96-.43-11.93zm-32.86 4.42c5.1.27 10.22.28 15.31-.06.29 3.64.28 7.28.22 10.93-5.23-.04-10.45-.06-15.67-.05.05-3.61.08-7.21.14-10.82zm71.41 3.43c4.02-1.13 7.87-3.11 12.11-3.25 4.19-.21 8.4.1 12.6-.17.04 3.6.03 7.2.05 10.79-8.15.01-16.68 1-24.22-2.85-.17-1.51-.35-3.02-.54-4.52zm-53.44-.4c4.38.27 8.78.26 13.16-.01-.02 1.54-.03 3.08-.03 4.62-4.41-.1-8.82-.09-13.22-.04.02-1.52.05-3.05.09-4.57zm23.66 1.1c9.3-.06 18.6.16 27.89-.18.02.89.05 2.68.07 3.57-9.25.02-18.51.18-27.75-.11-.05-.82-.16-2.46-.21-3.28zm-43.09 16.92c22.99-.6 46.01-.06 69.01-.26 10.04.11 20.08-.26 30.1.23.02 3.8-.07 7.6-.12 11.41-5.68.08-11.35.05-17.03-.01-2.5.04-5.21-.14-7.41 1.27-.63 1.67-.85 3.47-1.17 5.22-24.52-.05-49.05.06-73.58-.06-.07-5.93-.22-11.88.2-17.8m16.52 1.38c.05 2.96.05 5.92.02 8.88 2.72.07 5.45.09 8.18.08.03-2.97.1-5.94.11-8.9-2.77-.03-5.54-.04-8.31-.06m20.49.09c-1.52 2.69-1.81 5.76-1.88 8.79 10.92.15 21.84.21 32.75-.03-.31-2.51.02-5.3-1.38-7.54-1.76-1.49-4.26-1.21-6.41-1.33-7.69.06-15.39 0-23.08.11z"></path><path d="M157.05 35.02c.36 1.22.68 2.44 1.01 3.66-1.47.15-2.94.3-4.41.44.05-.62.14-1.87.18-2.5 1.26.73 3.27.03 3.22-1.6zm15.29 3.88c-.06-1.22-.1-2.44-.17-3.66 1.79.97 3.69 1.85 5.78 1.77 7.64.14 15.3-.17 22.94.09-1.36 2.57-4.49 1.91-6.88 2.04-7.22-.11-14.45.11-21.67-.24zm293.12-3.94c9.05.17 18.11.2 27.16-.06.28 4.56.23 9.13.2 13.7-9.15-.09-18.3-.06-27.45.03-.04-4.56-.09-9.11.09-13.67zM24.48 37.89c19.2.24 38.4.07 57.61.07 1.49.05 3.01.06 4.47.43 3.12 1.84 4.49 5.38 6.11 8.42.21.42.62 1.26.82 1.68-22.84.4-45.68-.08-68.52.24-.09-3.62-.18-7.24-.49-10.84zm212.08.11c75.64.01 151.29.2 226.93-.1-.24 2.49-.42 4.99-.57 7.48-44.33.11-88.66.03-132.98.04-3.64.2-6.2-3.34-9.85-3.08-27.89-.01-55.79.04-83.68-.02.04-1.44.09-2.88.15-4.32zM12.36 95.63c-.42-18.66.21-37.34-.33-56 3.29 1.57 6.99 1.62 10.55 1.34-.06 12.34.19 24.69.01 37.03.07 3.06-.24 6.39 1.38 9.14 1.83 2.98 4.26 5.54 6.28 8.38-5.96.22-11.92.15-17.89.11zM4.23 40.72c1.93.13 3.86.23 5.79.33-.08 18.26.19 36.52-.14 54.77-1.84-.13-3.68-.27-5.52-.42.35-11.72 3.43-23.34 2-35.09-.71-6.53-1.33-13.07-2.13-19.59zm206.46 6.14c37.76.33 75.53.05 113.29.14.02 5.25.08 10.5-.22 15.75-2.34.14-4.69.25-7.03.31.16-2.22.33-4.43.53-6.64 1.57-.54 3.11-1.16 4.6-1.91-5.25-.81-10.57-.51-15.86-.5-30.66.07-61.31-.17-91.97-.03 0 .5-.01 1.51-.01 2.01 16.32.13 32.63.02 48.95.06 0 2.31 0 4.61.01 6.92-17.31 0-34.63.31-51.94-.17-.56-5.3-.13-10.63-.35-15.94m3.32 2.17v1.94c35.66.16 71.31-.05 106.97-.01v-1.92c-35.65-.03-71.31-.01-106.97-.01z"></path><path d="M24.91 52.99c3.7.03 7.4.04 11.11.04-.03 2.92-.06 5.85-.08 8.77-3.7-.03-7.41-.05-11.11-.07 0-2.91.02-5.82.08-8.74zm13.15.01c20.66.01 41.31.02 61.96.02-.03 2.57-.06 5.14-.11 7.71-4.3 3.05-8.4 7.52-7.96 13.19.08 4.94 4.93 7.33 8.68 9.36-.17 4.51-.24 9.03-.11 13.54-6.84-.25-13.75-1.95-19.43-5.9-5.06-3.26-9.55-8.49-16-8.62-8.99-.19-17.98.21-26.96-.19-.1-9.7 0-19.4-.07-29.11m8.5 6c1.46 1.49 2.94 2.98 4.43 4.45 1.51-1.48 3-2.96 4.48-4.45-1.48-1.49-2.97-2.97-4.48-4.44A370.81 370.81 0 0046.56 59m21.97 0c1.48 1.49 2.97 2.97 4.48 4.44 1.49-1.47 2.97-2.95 4.44-4.44-1.47-1.49-2.95-2.97-4.45-4.44-1.5 1.47-2.99 2.95-4.47 4.44zm33.51-6c35.43.12 70.85-.09 106.28.11.19 2.39.27 4.78.32 7.18-35.48.16-70.97-.24-106.45.31-.08-2.53-.12-5.07-.15-7.6m5.19 2.12c-2.39 1.02-.84 4.71 1.55 3.8 2.35-1.05.84-4.71-1.55-3.8zm160.01 1.03c1.87-.07 3.75-.12 5.63-.18-.08 2.32-.14 4.64-.18 6.97l-5.42.06-.03-6.85zm9.88-.02c1.94-.07 3.88-.11 5.83-.16l.03 7.06c-2.06-.01-4.13-.02-6.19-.05l.33-6.85zm10.11.02c1.88-.07 3.76-.12 5.64-.17-.09 2.32-.14 4.65-.19 6.97-1.8.01-3.6.01-5.39.01l-.06-6.81zm9.87-.02c1.95-.07 3.9-.12 5.85-.17l.03 7.07c-2.06-.01-4.12-.02-6.18-.05l.3-6.85zm10.13.02c1.88-.07 3.76-.12 5.64-.17-.09 2.32-.14 4.64-.19 6.97-1.8.01-3.6.01-5.39.01l-.06-6.81zm-143.8 6.32l.13-.83c.52 5.1.28 10.23.43 15.34-8.55.16-17.19-.62-25.68.39-5.49 2.66-7.07 9.4-9.31 14.59-1.79 3.58-.64 7.48.1 11.16-5.19-1.6-10.16-3.81-15.13-5.99-.02-4.57.01-9.15.12-13.72 3.52-1.63 7.17-3.71 8.95-7.32 1.91-3.64 1.5-7.87 1.14-11.81 5.19.19 10.39-.02 15.57-.33-1.02 2.95-3.19 6.33-1.07 9.32 2.42 3.16 6.9 1.85 10.32 2.19 4.3-.31 9.66 1.06 12.9-2.59 2.51-2.71.44-6.41-.79-9.19 1.36.68 2.13.28 2.32-1.21z"></path><path d="M145.54 65.11c.87-.12 2.61-.36 3.47-.48-.08 2.1-.2 4.18-.39 6.27-1.63-1.58-2.63-3.58-3.08-5.79zm20.81-.22c13.92.32 27.85.1 41.78.11-13.98 5.96-27.87 12.13-41.96 17.82.21-5.98.07-11.95.18-17.93zm14.67 17.06c6.82-3.39 14.11-5.76 20.82-9.4.16 8.41.05 16.81.06 25.22-10.86-.03-21.72.06-32.57-.06.04-4.29.22-8.6-.25-12.88l.35.06c4.14 1.3 7.92-1.42 11.59-2.94m13.22-2.65c-.63 5.19-.08 10.44-.19 15.66 1.34.03 2.68.07 4.03.11-.21-.33-.63-.98-.84-1.31 1.03-4.73 1.11-9.64.6-14.44-.51-.6-1.52-1.81-2.02-2.41-.4.6-1.19 1.79-1.58 2.39m-11.23 2.82c-.02 4.28-.05 8.56 0 12.84 1.37.03 2.74.06 4.11.1l-.84-1.32c.71-3.84 2.78-9.94-1.4-12.34l-1.87.72m-9.1 12.83c1.39.03 2.78.07 4.18.12-.21-.33-.62-.99-.83-1.31.69-2.79 1.78-6.36-1.61-7.83-2.34 2.45-1.58 5.95-1.74 9.02zM24.44 77.86c3.85.16 7.7.15 11.55.14-.02 1.42-.03 2.83-.05 4.25-3.7.03-7.4.03-11.1 0-.13-1.47-.27-2.93-.4-4.39zm78.32 11.52c2.18-3.01 5.76-3.62 9.24-3.71-.23 3.74-.32 7.48-.27 11.23-3-.02-5.99-.05-8.99-.05-.04-2.49-.2-4.99.02-7.47m4.53-.13c-3.08.64.09 5.69 2.04 3.06 1.91-1.17-.53-4.19-2.04-3.06z"></path></svg>