<svg data-v-ea210746="" xmlns="http://www.w3.org/2000/svg" fill="#fff" viewBox="0 0 64 64" class="ui-icon max-h-full w-full" style="fill: rgb(174, 219, 242); opacity: 1;"><path fill="#000" d="M53.77 39.51l1.42 8.62a.82.82 0 01-.68.94l-8.68 1.32a.82.82 0 00-.61.44l-3.98 7.86a.82.82 0 01-1.11.36l-7.75-4.01a.82.82 0 00-.76 0l-7.78 4.03a.82.82 0 01-1.11-.36l-3.92-7.86a.82.82 0 00-.61-.44l-8.73-1.32a.82.82 0 01-.68-.94l1.43-8.58a.82.82 0 00-.23-.72l-6.25-6.26a.82.82 0 010-1.16l6.25-6.29a.82.82 0 00.23-.72l-1.43-8.57a.82.82 0 01.69-.94l8.72-1.29a.82.82 0 00.61-.44l3.92-7.87a.82.82 0 011.11-.37l7.77 4.03a.82.82 0 00.76 0l7.76-4.03a.82.82 0 011.11.36l3.99 7.89a.82.82 0 00.61.44l8.67 1.29a.82.82 0 01.69.94l-1.44 8.56a.82.82 0 00.23.72l6.29 6.28a.82.82 0 01-.01 1.16L54 38.79a.82.82 0 00-.23.72M19.55 15.73l-6.75.94q-1.56.21-1.3 1.77l1.2 7.06a.79.79 0 01-.24.71l-5.55 5.17a.81.81 0 000 1.18l5.31 5.09q.51.49.39 1.18l-1.12 6.72q-.27 1.55 1.3 1.77l6.78.94q.52.07.77.55l3.52 6.91a.76.75-29.5 001.08.29c1.77-1.14 6.23-4.15 8.34-3.15q3.11 1.48 5.87 3.19a.66.66 0 00.93-.26l3.52-7a.88.86 8.9 01.63-.45l7.38-1.07a1.17 1.17 0 00.98-1.36l-1.32-7.44q-.1-.56.32-.94l5.38-4.79a.97.97 0 00.01-1.44l-5.33-4.97q-.41-.37-.32-.92l1.2-7.21a1.3 1.3 0 00-1.08-1.49l-7.14-1.1q-.5-.08-.72-.53l-3.38-6.74a.81.81 0 00-1.11-.35l-6.27 3.44q-.81.44-1.62.01L24.68 8a.58.57 27 00-.78.25l-3.49 6.87q-.27.53-.86.61"></path><path d="M20.41 15.12l3.49-6.87a.58.57 27 01.78-.25l6.53 3.44q.81.43 1.62-.01l6.27-3.44a.81.81 0 011.11.35l3.38 6.74q.22.45.72.53l7.14 1.1a1.3 1.3 0 011.08 1.49l-1.2 7.21q-.09.55.32.92l5.33 4.97a.97.97 0 01-.01 1.44l-5.38 4.79q-.42.38-.32.94l1.32 7.44a1.17 1.17 0 01-.98 1.36l-7.38 1.07a.88.86 8.9 00-.63.45l-3.52 7a.66.66 0 01-.93.26q-2.76-1.71-5.87-3.19c-2.11-1-6.57 2.01-8.34 3.15a.76.75-29.5 01-1.08-.29l-3.52-6.91q-.25-.48-.77-.55l-6.78-.94q-1.57-.22-1.3-1.77l1.12-6.72q.12-.69-.39-1.18l-5.31-5.09a.81.81 0 010-1.18l5.55-5.17a.79.79 0 00.24-.71l-1.2-7.06q-.26-1.56 1.3-1.77l6.75-.94q.59-.08.86-.61"></path></svg>