<svg data-v-ea210746="" xmlns="http://www.w3.org/2000/svg" fill="#fff" viewBox="0 0 64 64" class="ui-icon max-h-full w-full" style="fill: rgb(114, 204, 114); opacity: 1;"><g fill="#000"><path d="M51.62 49.18a2.34 2.34 0 01-2.34 2.34H14.82a2.34 2.34 0 01-2.34-2.34V14.82a2.34 2.34 0 012.34-2.34h34.46a2.34 2.34 0 012.34 2.34zm-2.312-33.29a1.17 1.17 0 00-1.168-1.172l-32.22-.056a1.17 1.17 0 00-1.172 1.168l-.056 32.28a1.17 1.17 0 001.168 1.172l32.22.056a1.17 1.17 0 001.172-1.168z"></path><path d="M34.39 44.49l-.06 1.2q-.02.54-.55.67-1.72.4-3.29-.06-.56-.17-.63-.75l-.16-1.45q-.06-.59-.62-.82c-3.23-1.31-5.98-3.48-6.33-7.16q-.07-.64.57-.64l3.34-.03a.91.9-13.3 01.81.5q2.36 4.95 7.56 2.85a1.97 1.97 0 00.96-2.82q-.51-.88-1.64-1.18c-3.95-1.05-10.84-2.42-10.83-7.46 0-3.27 2.34-5.04 4.99-6.42a1.48 1.47-11.7 00.79-1.2l.1-1.53q.04-.61.66-.62l3.07-.03a.7.7 0 01.68.53l.41 1.6q.19.73.88 1.03 4.1 1.79 5.38 5.93a.9.9 0 01-.8 1.17c-3.84.25-4.32-2.49-7.61-3.07q-1.99-.35-3.27.96-.39.4-.47 1.11a1.29 1.28-77.7 00.85 1.34q3.85 1.37 7.71 2.54 3.3 1.01 3.96 4.26c.92 4.56-1.95 6.86-5.73 8.49a1.21 1.2-10.5 00-.73 1.06"></path></g><path d="M49.252 48.17a1.17 1.17 0 01-1.172 1.168l-32.22-.056a1.17 1.17 0 01-1.168-1.172l.056-32.28a1.17 1.17 0 011.172-1.168l32.22.056a1.17 1.17 0 011.168 1.172zM35.12 43.43c3.78-1.63 6.65-3.93 5.73-8.49q-.66-3.25-3.96-4.26-3.86-1.17-7.71-2.54a1.29 1.28-77.7 01-.85-1.34q.08-.71.47-1.11 1.28-1.31 3.27-.96c3.29.58 3.77 3.32 7.61 3.07a.9.9 0 00.8-1.17q-1.28-4.14-5.38-5.93-.69-.3-.88-1.03l-.41-1.6a.7.7 0 00-.68-.53l-3.07.03q-.62.01-.66.62l-.1 1.53a1.48 1.47-11.7 01-.79 1.2c-2.65 1.38-4.99 3.15-4.99 6.42-.01 5.04 6.88 6.41 10.83 7.46q1.13.3 1.64 1.18a1.97 1.97 0 01-.96 2.82q-5.2 2.1-7.56-2.85a.91.9-13.3 00-.81-.5l-3.34.03q-.64 0-.57.64c.35 3.68 3.1 5.85 6.33 7.16q.56.23.62.82l.16 1.45q.07.58.63.75 1.57.46 3.29.06.53-.13.55-.67l.06-1.2a1.21 1.2-10.5 01.73-1.06"></path></svg>