<svg data-v-ea210746="" xmlns="http://www.w3.org/2000/svg" fill="#fff" viewBox="0 0 64 64" class="ui-icon max-h-full w-full" style="opacity: 1;"><g fill="#000"><path d="M32 8c-13.255 0-24 10.745-24 24s10.745 24 24 24 24-10.745 24-24S45.255 8 32 8zm0 44c-11.046 0-20-8.954-20-20s8.954-20 20-20 20 8.954 20 20-8.954 20-20 20z"/><path d="M32 16c-8.837 0-16 7.163-16 16s7.163 16 16 16 16-7.163 16-16-7.163-16-16-16zm0 28c-6.627 0-12-5.373-12-12s5.373-12 12-12 12 5.373 12 12-5.373 12-12 12z"/><circle cx="32" cy="32" r="6"/><path d="M32 2l4 8h-8z"/><path d="M32 62l-4-8h8z"/><path d="M2 32l8-4v8z"/><path d="M62 32l-8 4v-8z"/><path d="M11.716 11.716l5.657 5.657-2.829 2.829z"/><path d="M52.284 52.284l-5.657-5.657 2.829-2.829z"/><path d="M52.284 11.716l-5.657 5.657-2.829-2.829z"/><path d="M11.716 52.284l5.657-5.657-2.829-2.829z"/></g><path d="M32 12c-11.046 0-20 8.954-20 20s8.954 20 20 20 20-8.954 20-20-8.954-20-20-20zm0 36c-8.837 0-16-7.163-16-16s7.163-16 16-16 16 7.163 16 16-7.163 16-16 16z"/><circle cx="32" cy="32" r="6" fill="#fff"/><path d="M32 6l2 4h-4z" fill="#fff"/><path d="M32 58l-2-4h4z" fill="#fff"/><path d="M6 32l4-2v4z" fill="#fff"/><path d="M58 32l-4 2v-4z" fill="#fff"/><path d="M13.858 13.858l2.829 2.829-1.415 1.415z" fill="#fff"/><path d="M50.142 50.142l-2.829-2.829 1.415-1.415z" fill="#fff"/><path d="M50.142 13.858l-2.829 2.829-1.415-1.415z" fill="#fff"/><path d="M13.858 50.142l2.829-2.829-1.415-1.415z" fill="#fff"/></svg>