<svg xmlns="http://www.w3.org/2000/svg" viewBox="0 0 64 64" fill="#fff" class="ui-icon max-h-full w-full" style="opacity: 1;"><path fill="#000" d="M25.75 24.24q.16.81-.19 1.56-.61 1.31.81 1.04 2.56-.5 4.01.44.86.56.86 1.71.02 15.29-.01 29.32a1.46 1.46 0 01-1.45 1.45l-21.76.02q-2.01 0-2.01-2.01L6 28.62a1.79 1.79 0 011.75-1.79l3.18-.07q.57-.01.57-.59l-.01-13.4a1.5 1.5 0 011.48-1.5q5.24-.07 10.63-.04 2.08.02 2.18 2.12.03.51.5.35 13.17-4.51 28.68-9.33 1.2-.38 2.25.36c1.08.76.78 1.94.78 3.1q.02 12.85-.02 23.82a2.04 2.03 5.1 01-2.4 2q-1.39-.26-2.87-.74-13.72-4.42-24.48-7.94-1.05-.35-2.07-1-.52-.33-.4.27m4.57-.97c8.2 2.63 16.45 5.28 24.93 8.02q.47.16.47-.34l.01-23.73q0-.69-.65-.48-12.85 4.03-25.7 8.29-2.02.67-2.4 2.87c-.53 3.04.41 4.43 3.34 5.37m-8.33-2.7c-.8-2.06.21-4.14 1.27-5.84a.76.76 0 00-.64-1.16l-7.82-.13a1.01 1.01 0 00-1.03 1.01l-.04 9.87a.61.6-89.5 00.59.61l8.22.06a.92.91-13.1 00.83-1.32q-.77-1.53-1.38-3.1m7 8.94a.54.54 0 00-.54-.54H8.79a.54.54 0 00-.54.54v27.46a.54.54 0 00.54.54h19.66a.54.54 0 00.54-.54z"></path><path d="M55.25 31.29c-8.48-2.74-16.73-5.39-24.93-8.02-2.93-.94-3.87-2.33-3.34-5.37q.38-2.2 2.4-2.87 12.85-4.26 25.7-8.29.65-.21.65.48l-.01 23.73q0 .5-.47.34M21.99 20.57q.61 1.57 1.38 3.1a.92.91-13.1 01-.83 1.32l-8.22-.06a.61.6-89.5 01-.59-.61l.04-9.87a1.01 1.01 0 011.03-1.01l7.82.13a.76.76 0 01.64 1.16c-1.06 1.7-2.07 3.78-1.27 5.84"></path><rect width="20.74" height="28.54" x="8.25" y="28.97" rx=".54"></rect></svg>