<svg data-v-ea210746="" xmlns="http://www.w3.org/2000/svg" fill="#fff" viewBox="0 0 64 64" class="ui-icon max-h-full w-full" style="fill: rgb(156, 110, 175); opacity: 1;"><g fill="#000"><path d="M9.49 32.15c-2.49-.37-3.81.36-5.75-1.82-1.37-1.53-1.06-5.36-.97-7.35q.12-2.5 2.38-4.07Q18.02 9.96 29.42 2.22q3.37-2.28 6.84.14 11.31 7.88 23.05 16.34c2.57 1.85 2.12 6.11 1.88 8.86q-.36 4.18-4.76 4.48a1.43 1.43 0 00-1.34 1.48q.28 9.24.04 18.32c-.09 3.07-2.16 5.09-5.1 5.09q-18.86-.01-34.84-.01c-2.91 0-4.76-2.5-4.74-5.3q.07-9.61.05-18.31a1.18 1.17 4.3 00-1.01-1.16m44.4-1.89c6.07.62 5.59-2.96 5.42-7.4-.06-1.56-1.14-2.47-2.32-3.31q-9.86-7-19.74-14.04c-2.58-1.84-4.01-3.47-6.61-1.66Q17.99 12.67 6.12 20.69q-1.24.83-1.34 2.21c-.42 6.37.18 7.71 6.86 7.37a.75.74 88.2 01.78.74q.09 9.53-.04 19.13-.02 2.24.84 3.8a2.07 2.07 0 001.81 1.07h34.22q4.01 0 4.01-4.01l.03-20.2a.55.54 2.9 01.6-.54"></path><path d="M31.23 17.6l.05-2.61q.02-.72.73-.8L33.9 14q.99-.1 1.05.9l.15 2.54q.04.69.71.86 8.22 2.07 10.49 10.71.14.52.67.63.85.18 1.76-.11a1.31 1.3-36.9 011.14.16q1.24.81.43 3-.33.9-1.25.67-1.02-.25-2.03-.04a.98.97 1.5 00-.71.67c-1.53 5.38-4.91 9.51-10.57 10.53q-.62.11-.65.73l-.12 2.55q-.06 1.22-1.28 1.24l-1.14.03q-1.3.03-1.3-1.28l.01-2.34q0-.66-.64-.81-8.7-1.97-10.79-11a.6.59 78.8 00-.66-.45l-2.09.31q-.67.1-1.04-.48-.65-1.02-.21-2.77a1.14 1.13-74 011.44-.8q.83.26 1.73.25a1.04 1.03-83.5 00.99-.79q2.1-8.63 10.63-10.56.6-.14.61-.75m1.04 10.22q-1.04-.01-1-1.05l.13-4.23a.46.45-6.7 00-.58-.45q-5.05 1.35-6.86 6.6a.73.72-81.6 00.71.96l3.72-.15q1.27-.06 1.26 1.22l-.01 1.22q-.01 1.45-1.45 1.45l-3.69-.02a.65.65 0 00-.61.88q1.91 5 6.9 6.77a.34.34 0 00.45-.32l.03-4.44q.01-1.09 1.09-1.16l1.32-.09q1.24-.08 1.28 1.17l.14 4.28a.45.45 0 00.61.41q4.72-1.75 6.57-6.48a.8.79-81.1 00-.78-1.08l-3.95.23a.74.74 0 01-.78-.74l-.02-2.55q-.01-.76.75-.74l4.33.14a.64.63 78.8 00.6-.9c-1.3-2.82-3.48-5.9-6.76-6.55q-.64-.13-.65.52l-.07 3.99q-.02 1.14-1.16 1.13zM53.98 64h-5.59l-.96-.29q-.53-.16-.21-.61.17-.25.57-.27 3.27-.22 6.26-.11.51.02.85.38.47.51-.19.69z"></path></g><path d="M53.89 30.26a.55.54 2.9 00-.6.54L53.26 51q0 4.01-4.01 4.01H15.03a2.07 2.07 0 01-1.81-1.07q-.86-1.56-.84-3.8.13-9.6.04-19.13a.75.74 88.2 00-.78-.74c-6.68.34-7.28-1-6.86-7.37q.1-1.38 1.34-2.21 11.87-8.02 24.52-16.84c2.6-1.81 4.03-.18 6.61 1.66q9.88 7.04 19.74 14.04c1.18.84 2.26 1.75 2.32 3.31.17 4.44.65 8.02-5.42 7.4M30.62 18.35q-8.53 1.93-10.63 10.56a1.04 1.03-83.5 01-.99.79q-.9.01-1.73-.25a1.14 1.13-74 00-1.44.8q-.44 1.75.21 2.77.37.58 1.04.48l2.09-.31a.6.59 78.8 01.66.45q2.09 9.03 10.79 11 .64.15.64.81l-.01 2.34q0 1.31 1.3 1.28l1.14-.03q1.22-.02 1.28-1.24l.12-2.55q.03-.62.65-.73c5.66-1.02 9.04-5.15 10.57-10.53a.98.97 1.5 01.71-.67q1.01-.21 2.03.04.92.23 1.25-.67.81-2.19-.43-3a1.31 1.3-36.9 00-1.14-.16q-.91.29-1.76.11-.53-.11-.67-.63-2.27-8.64-10.49-10.71-.67-.17-.71-.86l-.15-2.54q-.06-1-1.05-.9l-1.89.19q-.71.08-.73.8l-.05 2.61q-.01.61-.61.75"></path><path d="M34.95 26.71l.07-3.99q.01-.65.65-.52c3.28.65 5.46 3.73 6.76 6.55a.64.63 78.8 01-.6.9l-4.33-.14q-.76-.02-.75.74l.02 2.55a.74.74 0 00.78.74l3.95-.23a.8.79-81.1 01.78 1.08q-1.85 4.73-6.57 6.48a.45.45 0 01-.61-.41l-.14-4.28q-.04-1.25-1.28-1.17l-1.32.09q-1.08.07-1.09 1.16l-.03 4.44a.34.34 0 01-.45.32q-4.99-1.77-6.9-6.77a.65.65 0 01.61-.88l3.69.02q1.44 0 1.45-1.45l.01-1.22q.01-1.28-1.26-1.22l-3.72.15a.73.72-81.6 01-.71-.96q1.81-5.25 6.86-6.6a.46.45-6.7 01.58.45l-.13 4.23q-.04 1.04 1 1.05l1.52.02q1.14.01 1.16-1.13"></path></svg>