<svg data-v-ea210746="" viewBox="0 0 152 64" xmlns="http://www.w3.org/2000/svg" fill="#7e7f7e" class="ui-icon max-h-full w-full" style="fill: rgb(57, 102, 57); opacity: 1;"><g fill="#000"><path d="M87.14 2.28c1.74-.42 3.58-1.36 5.37-.58 5.91 2.25 12.4 1.42 18.57 1.25 6.72-1.5 13.81-2.13 20.57-.45 5.5 1.31 11.41-.34 16.69 2.12 2.15 4.51 1.5 9.56 1.57 14.39-.05 4.18.38 8.5-1.15 12.48 1.53 4.02 1.09 8.36 1.15 12.56-.07 4.8.59 9.82-1.57 14.3-5.32 2.42-11.25.82-16.78 2.11-6.76 1.54-13.78.93-20.5-.46-8.68-.44-17.37-.04-26.05-.19-8.4-.52-16.57 2.75-24.99 1.19-5.89-1.42-12.03-1.49-18.04-.91-6.64 1.5-13.63 1.8-20.3.26-4.95-1.15-10.13.14-15.06-.99-3.92-1.28-4.76-5.82-4.45-9.41.41-6.13-1.03-12.59 1.38-18.42-1.63-3.63-1.39-7.64-1.37-11.51.11-5.12-.6-10.46 1.53-15.29 5.4-2.66 11.48-.98 17.19-1.97 6.58-1.65 13.6-1.72 20.18-.03 4.85.66 9.83.65 14.67-.01C61 1.29 66.53 1.33 71.91 1.86c4.94 1.27 10.27 2.04 15.23.42M23.87 5.21c.1.38.29 1.12.39 1.5.09 7.38.91 14.89-.85 22.14.33.12.98.36 1.31.47-.63 9.52-.09 19.07-.38 28.6 4.55.03 9.11.04 13.66.05.18-9.44.1-18.88-.02-28.32 0-.33-.02-1-.02-1.33.22-7.24.15-14.49.1-21.73-.03-.35-.1-1.03-.13-1.38-4.69.01-9.38.01-14.06 0m35.27.02c-.02.32-.07.98-.09 1.3l.58.01c-.61 7.21.29 14.46-.46 21.66-.02.4-.04 1.2-.05 1.61.43 9.36.2 18.74.19 28.11 4.5.03 9 .04 13.5.03.26-9.61-.95-19.33.84-28.84-.32-.09-.95-.27-1.26-.36.91-7.17.24-14.39.43-21.58l-.16-1.99c-4.51.05-9.02.03-13.52.05m56.94-.03l-.12 1.43c.05 1.53.11 3.07.17 4.61 1.74 1.19 3.9 2.05 5.07 3.9.47 2.62-1 5.2-1.01 7.84 1.29 3.23 3.64 6.34 3.17 10-.17 4.11-4.61 5.6-6.95 8.3-1.17 5.47-.33 11.13-.39 16.68 4.32 0 8.63 0 12.95.01.03-17.11.03-34.22.02-51.34l-.04-1.42c-4.29.01-8.58.01-12.87-.01M8.01 5.96c-.78.73-1.56 1.46-2.35 2.18.07 6.96-.41 13.95.18 20.89 3.08 1.7 6.8.91 10.16 1.1 1.91-.28 4.5.5 5.75-1.39.69-5.88.12-11.82.35-17.73-.16-1.72.58-3.98-1.31-4.99-4.25-.29-8.52-.01-12.78-.06m33.19.06c-.3.29-.88.88-1.18 1.18-.14 7.3.22 14.61.07 21.92 1.23.42 2.46.84 3.7 1.25.17-3.55.24-7.11.72-10.63.69-.09 2.08-.25 2.77-.34 2.43-2.97 5.82-4.74 9.64-5.16.03-2.76.09-5.52.14-8.29-5.29.08-10.58-.21-15.86.07m34.99 0c-2.31 1.65-.91 4.92-1.34 7.32 2.47-.01 4.93-.02 7.4-.02.54-2.52 1.38-4.95 2.26-7.37-2.77 0-5.55-.18-8.32.07m19.98.33c.13.69.38 2.06.51 2.75 1.42-.89 2.86-1.78 4.29-2.66-1.6-.02-3.2-.05-4.8-.09m12.42-.37c.39 2.32.73 4.65 1.02 6.99 1.4-.22 2.8-.45 4.2-.68-.08-1.71-.12-3.43-.35-5.13-1.42-.95-3.26-.8-4.87-1.18m23.17-.01c-.35 8.02-.36 16.07.02 24.09 4.7-.11 9.46.42 14.11-.45 1.55-4.67.51-9.73.82-14.57-.28-2.98.76-6.84-1.86-9.02-4.36-.27-8.73-.03-13.09-.05m-45.15 6.1c3.82.99 6.81 3.57 8.05 7.34 4.66.08 9.33-.11 13.98.31.16 3.48.21 6.97.29 10.46l5.3-.51-2.55-2.94c.61-1.31 1.23-2.62 1.87-3.92.08-1.81.16-3.62.26-5.43-2.13.19-4.31.62-6.43.15-2.64-1.58-2.23-5.2-2.99-7.8-2.81 1.69-5.33 3.92-8.41 5.12-4.17-.5-3.66-5.58-4.95-8.53-1.93 1.54-3.26 3.61-4.42 5.75m-12.73 6.62c5.15 1.11 10.47.47 15.7.77L88.2 17.6c-4.79.01-9.62.04-14.32 1.09m-28 3.26c.79 8.41.23 16.87.46 25.3 2.98.09 5.96.11 8.93.15.42-.46 1.24-1.38 1.65-1.85-.1-7.45.13-14.9.07-22.35-.29-.3-.87-.89-1.16-1.19-3.31-.25-6.64-.05-9.95-.06m30.33.07c-.3.32-.89.94-1.18 1.26-.28 7.96.18 15.95.07 23.92 10.52.28 21.05.04 31.58.21.13-8.4-.42-16.83.44-25.21-10.28-.55-20.62-.22-30.91-.18m39.54 5.77c.2 2.65.43 5.3.78 7.93 1.03-2 2.55-4.11 2.01-6.49-.91-.52-1.84-1-2.79-1.44M5.58 38.02c.05 5.35-.19 10.72.11 16.07-.21 1.44 1.5 2.08 2.62 2.29 4.56.42 9.17.28 13.73-.15-.02-7.08.04-14.16.04-21.24.21-1.28-.23-2.28-1.32-2.98-4.45-.28-8.91 0-13.37-.09-1 1.89-2.01 3.89-1.81 6.1m34.43-5.07c-.03 7.78.12 15.56.17 23.34 5.55.44 11.13.35 16.68.05.04-1.76.07-3.52.09-5.28-4.53.01-9.64.8-13.04-2.92.07-5.58.18-11.15.15-16.72-1.37.43-3.03.36-4.05 1.53m68.46-1.03c.41 1.24.84 2.48 1.29 3.7 1.33.04 2.66.07 3.99.11l.45-3.77c-1.91-.01-3.82-.03-5.73-.04m23.23.02c-.17 8.09-.38 16.2.03 24.28 4.02.62 8.14.47 12.18.16 1.66-.12 2.74-1.7 2.68-3.29.27-6.22.03-12.46.01-18.69-.97-.81-1.93-1.63-2.89-2.46-4-.01-8-.01-12.01 0m-22.84 8.05c-.14 3.83 1.17 9.68-3.85 10.85-10.01.5-20.05.01-30.06.21v5.25c12.88.46 25.8.39 38.68.06.07-5.2.03-10.4.06-15.6-1.61-.24-3.22-.5-4.83-.77z"></path><path d="M48.91 24.05h6.11c.09 7.01.06 14.02.07 21.03-2.06 0-4.12.01-6.18.01-.01-7.02 0-14.03 0-21.04zm26.99.93c9.37.01 18.74 0 28.11 0-.06 4.04-.07 8.08-.07 12.12-9.31.07-18.62-.2-27.94-.16-.11-3.98-.15-7.97-.1-11.96zm13 13.93c2.07.01 4.13.01 6.2.01-.01 2.01-.03 4.02-.05 6.03-2.03 0-4.07 0-6.1.01-.02-2.02-.03-4.03-.05-6.05zm9 .01c2.01-.01 4.03-.01 6.05-.02v6.21l-6-.09c-.02-2.03-.04-4.07-.05-6.1z"></path></g><path d="M23.87 5.21c4.68.01 9.37.01 14.06 0 .03.35.1 1.03.13 1.38-4.6.01-9.2.03-13.8.12-.1-.38-.29-1.12-.39-1.5zm35.27.02c4.5-.02 9.01 0 13.52-.05l.16 1.99c-4.39-.42-8.79-.57-13.19-.63l-.58-.01c.02-.32.07-.98.09-1.3zm56.94-.03c4.29.02 8.58.02 12.87.01l.04 1.42c-4.35-.01-8.69-.02-13.03 0l.12-1.43zM8.01 5.96c4.26.05 8.53-.23 12.78.06 1.89 1.01 1.15 3.27 1.31 4.99-.23 5.91.34 11.85-.35 17.73-1.25 1.89-3.84 1.11-5.75 1.39-3.36-.19-7.08.6-10.16-1.1-.59-6.94-.11-13.93-.18-20.89.79-.72 1.57-1.45 2.35-2.18zm33.19.06c5.28-.28 10.57.01 15.86-.07-.05 2.77-.11 5.53-.14 8.29-3.82.42-7.21 2.19-9.64 5.16-.69.09-2.08.25-2.77.34-.48 3.52-.55 7.08-.72 10.63-1.24-.41-2.47-.83-3.7-1.25.15-7.31-.21-14.62-.07-21.92.3-.3.88-.89 1.18-1.18zm34.99 0c2.77-.25 5.55-.07 8.32-.07-.88 2.42-1.72 4.85-2.26 7.37-2.47 0-4.93.01-7.4.02.43-2.4-.97-5.67 1.34-7.32zm19.98.33c1.6.04 3.2.07 4.8.09-1.43.88-2.87 1.77-4.29 2.66-.13-.69-.38-2.06-.51-2.75zm12.42-.37c1.61.38 3.45.23 4.87 1.18.23 1.7.27 3.42.35 5.13-1.4.23-2.8.46-4.2.68-.29-2.34-.63-4.67-1.02-6.99zm23.17-.01c4.36.02 8.73-.22 13.09.05 2.62 2.18 1.58 6.04 1.86 9.02-.31 4.84.73 9.9-.82 14.57-4.65.87-9.41.34-14.11.45-.38-8.02-.37-16.07-.02-24.09z"></path><path d="M86.61 12.07c1.16-2.14 2.49-4.21 4.42-5.75 1.29 2.95.78 8.03 4.95 8.53 3.08-1.2 5.6-3.43 8.41-5.12.76 2.6.35 6.22 2.99 7.8 2.12.47 4.3.04 6.43-.15-.1 1.81-.18 3.62-.26 5.43-.64 1.3-1.26 2.61-1.87 3.92l2.55 2.94-5.3.51c-.08-3.49-.13-6.98-.29-10.46-4.65-.42-9.32-.23-13.98-.31-1.24-3.77-4.23-6.35-8.05-7.34zm-12.73 6.62c4.7-1.05 9.53-1.08 14.32-1.09l1.38 1.86c-5.23-.3-10.55.34-15.7-.77zm-28 3.26c3.31.01 6.64-.19 9.95.06.29.3.87.89 1.16 1.19.06 7.45-.17 14.9-.07 22.35-.41.47-1.23 1.39-1.65 1.85-2.97-.04-5.95-.06-8.93-.15-.23-8.43.33-16.89-.46-25.3m3.03 2.1c0 7.01-.01 14.02 0 21.04 2.06 0 4.12-.01 6.18-.01-.01-7.01.02-14.02-.07-21.03h-6.11z"></path><path d="M76.21 22.02c10.29-.04 20.63-.37 30.91.18-.86 8.38-.31 16.81-.44 25.21-10.53-.17-21.06.07-31.58-.21.11-7.97-.35-15.96-.07-23.92.29-.32.88-.94 1.18-1.26m-.31 2.96c-.05 3.99-.01 7.98.1 11.96 9.32-.04 18.63.23 27.94.16 0-4.04.01-8.08.07-12.12-9.37 0-18.74.01-28.11 0m13 13.93c.02 2.02.03 4.03.05 6.05 2.03-.01 4.07-.01 6.1-.01.02-2.01.04-4.02.05-6.03-2.07 0-4.13 0-6.2-.01m9 .01c.01 2.03.03 4.07.05 6.1l6 .09V38.9c-2.02.01-4.04.01-6.05.02zM23.41 28.85c4.81-.75 9.7-.61 14.55-.53 0 .33.02 1 .02 1.33-4.42.09-8.87.34-13.26-.33-.33-.11-.98-.35-1.31-.47zm35.76-.65c4.4.02 8.85-.21 13.22.55.31.09.94.27 1.26.36-4.81.79-9.68.66-14.53.7.01-.41.03-1.21.05-1.61zM5.58 38.02c-.2-2.21.81-4.21 1.81-6.1 4.46.09 8.92-.19 13.37.09 1.09.7 1.53 1.7 1.32 2.98 0 7.08-.06 14.16-.04 21.24-4.56.43-9.17.57-13.73.15-1.12-.21-2.83-.85-2.62-2.29-.3-5.35-.06-10.72-.11-16.07zm34.43-5.07c1.02-1.17 2.68-1.1 4.05-1.53.03 5.57-.08 11.14-.15 16.72 3.4 3.72 8.51 2.93 13.04 2.92-.02 1.76-.05 3.52-.09 5.28-5.55.3-11.13.39-16.68-.05-.05-7.78-.2-15.56-.17-23.34zm68.46-1.03c1.91.01 3.82.03 5.73.04l-.45 3.77c-1.33-.04-2.66-.07-3.99-.11-.45-1.22-.88-2.46-1.29-3.7zm23.23.02c4.01-.01 8.01-.01 12.01 0 .96.83 1.92 1.65 2.89 2.46.02 6.23.26 12.47-.01 18.69.06 1.59-1.02 3.17-2.68 3.29-4.04.31-8.16.46-12.18-.16-.41-8.08-.2-16.19-.03-24.28z"></path><path d="M108.86 39.99c1.61.27 3.22.53 4.83.77-.03 5.2.01 10.4-.06 15.6-12.88.33-25.8.4-38.68-.06v-5.25c10.01-.2 20.05.29 30.06-.21 5.02-1.17 3.71-7.02 3.85-10.85z"></path><g fill="#3c3b3c"><path d="M24.26 6.71c4.6-.09 9.2-.11 13.8-.12.05 7.24.12 14.49-.1 21.73-4.85-.08-9.74-.22-14.55.53 1.76-7.25.94-14.76.85-22.14zm35.37-.17c4.4.06 8.8.21 13.19.63-.19 7.19.48 14.41-.43 21.58-4.37-.76-8.82-.53-13.22-.55.75-7.2-.15-14.45.46-21.66zm56.33.09c4.34-.02 8.68-.01 13.03 0 .01 17.12.01 34.23-.02 51.34-4.32-.01-8.63-.01-12.95-.01.06-5.55-.78-11.21.39-16.68 2.34-2.7 6.78-4.19 6.95-8.3.47-3.66-1.88-6.77-3.17-10 .01-2.64 1.48-5.22 1.01-7.84-1.17-1.85-3.33-2.71-5.07-3.9-.06-1.54-.12-3.08-.17-4.61z"></path><path d="M115.75 27.79c.95.44 1.88.92 2.79 1.44.54 2.38-.98 4.49-2.01 6.49-.35-2.63-.58-5.28-.78-7.93zm-91.03 1.53c4.39.67 8.84.42 13.26.33.12 9.44.2 18.88.02 28.32-4.55-.01-9.11-.02-13.66-.05.29-9.53-.25-19.08.38-28.6zm34.4.49c4.85-.04 9.72.09 14.53-.7-1.79 9.51-.58 19.23-.84 28.84-4.5.01-9 0-13.5-.03.01-9.37.24-18.75-.19-28.11z"></path></g></svg>