<svg data-v-ea210746="" xmlns="http://www.w3.org/2000/svg" fill="#fff" viewBox="0 0 64 64" class="ui-icon max-h-full w-full" style="fill: rgb(255, 133, 85); opacity: 1;"><g fill="#000"><path d="M27.81 37.21l-13.53.02a.75.74 0 00-.75.74v18.27A1.76 1.76 0 0111.76 58H4.31a1.45 1.44.2 01-1.44-1.44l-.01-52.1a1.68 1.67 0 011.68-1.67h44.61a1.61 1.61 0 011.61 1.61l.01 29.1q0 .97.96.81c6.84-1.13 6.04 6.48 6.84 10.61q.07.4.42.64c1.23.84 2.19 1.9 2.27 3.5.12 2.59.33 5.24-1.67 7.15q-.4.37-.41.92l-.05 1.36a2.36 2.32 65.8 01-.53 1.43c-2.53 3.08-8.43 2.45-8.76-2.19q-.05-.74-.79-.74L36.78 57q-.68 0-.73.68-.25 3.29-3.33 3.93-5.4 1.12-6.29-4.57-.09-.57-.45-1.04c-1.89-2.46-2.56-8.17.69-10.21q.63-.4.74-1.14l.98-6.77q.1-.67-.58-.67M11.24 15.34a.61.61 0 01.61-.61l11.22-.01a.61.61 0 00.6-.6l.07-8.53a.61.61 0 00-.6-.61L5.58 4.97a.61.61 0 00-.61.61l.02 49.54a.61.61 0 00.6.6l5.05.05a.61.61 0 00.62-.62l-.02-19.53a.61.61 0 01.61-.61l11.27.01a.61.61 0 00.61-.61l-.04-8.8a.61.61 0 00-.61-.61l-11.2-.05a.61.61 0 01-.61-.61zm37.263-9.73a.67.67 0 00-.672-.67l-10.9.02a.67.67 0 00-.668.67l.014 8.44a.67.67 0 00.672.67l10.9-.02a.67.67 0 00.668-.67zM35.975 15.62a.63.63 0 00-.632-.629l-10.72.038a.63.63 0 00-.628.632l.03 8.46a.63.63 0 00.632.628l10.72-.038a.63.63 0 00.628-.632zM48.49 25.5a.52.52 0 00-.52-.52H36.79a.52.52 0 00-.52.52v8.26a.52.52 0 00.52.52h11.18a.52.52 0 00.52-.52zm3.5 29.99v2.07a1.87 1.86-89.4 001.82 1.87l1.12.03q2.15.05 1.99-2.09-.16-2.22 1.47-3.58.58-.49.6-1.25l.06-3.15q.02-.63-.48-1.02l-1.68-1.32q-.45-.36-.54-.93l-1.16-8.11q-.21-1.46-1.68-1.46l-21.32-.01q-1.27 0-1.44 1.26l-1.13 8.11q-.08.56-.52.91-4.25 3.37-1.14 7.77c.62.89.72 1.92.88 2.96q.25 1.62 1.88 1.91 1.57.28 2.71-.68.45-.38.48-.97l.14-2.48q.03-.59.62-.59h16.57q.74 0 .75.75"></path><path d="M34.48 38.76l17.08.01a.82.82 0 01.8.67l.88 4.87a.82.82 0 01-.8.97l-19.06-.03a.82.82 0 01-.8-1l1.1-4.85a.82.82 0 01.8-.64"></path></g><path d="M11.24 15.34l.03 9a.61.61 0 00.61.61l11.2.05a.61.61 0 01.61.61l.04 8.8a.61.61 0 01-.61.61l-11.27-.01a.61.61 0 00-.61.61l.02 19.53a.61.61 0 01-.62.62l-5.05-.05a.61.61 0 01-.6-.6L4.97 5.58a.61.61 0 01.61-.61l17.56.01a.61.61 0 01.6.61l-.07 8.53a.61.61 0 01-.6.6l-11.22.01a.61.61 0 00-.61.61"></path><rect width="12.24" height="9.78" x="-6.12" y="-4.89" rx=".67" transform="rotate(-.1 5659.098 -24282.755)"></rect><rect width="11.98" height="9.72" x="-5.99" y="-4.86" rx=".63" transform="rotate(-.2 5707.33 -8584.423)"></rect><rect width="12.22" height="9.3" x="36.27" y="24.98" rx=".52"></rect><path d="M51.24 54.74H34.67q-.59 0-.62.59l-.14 2.48q-.03.59-.48.97-1.14.96-2.71.68-1.63-.29-1.88-1.91c-.16-1.04-.26-2.07-.88-2.96q-3.11-4.4 1.14-7.77.44-.35.52-.91l1.13-8.11q.17-1.26 1.44-1.26l21.32.01q1.47 0 1.68 1.46l1.16 8.11q.09.57.54.93l1.68 1.32q.5.39.48 1.02l-.06 3.15q-.02.76-.6 1.25-1.63 1.36-1.47 3.58.16 2.14-1.99 2.09l-1.12-.03a1.87 1.86-89.4 01-1.82-1.87v-2.07q-.01-.75-.75-.75M34.48 38.76a.82.82 0 00-.8.64l-1.1 4.85a.82.82 0 00.8 1l19.06.03a.82.82 0 00.8-.97l-.88-4.87a.82.82 0 00-.8-.67z"></path></svg>