<svg data-v-ea210746="" xmlns="http://www.w3.org/2000/svg" viewBox="0 0 64 64" fill="#fff" class="ui-icon max-h-full w-full" style="fill: rgb(224, 50, 50); opacity: 1;"><path d="M6.71 31.46l-1.21-.07a1 1 0 01-.91-.73c-.57-2.05-.96-5.69 2.19-5.67q3.72.01 7.46-.04.61 0 1.06-.43L30.69 9.7q1.29-1.24 2.59 0l15.49 14.89q.43.42 1.03.41l7.51-.03a2.44 2.44 0 012.45 2.34q.07 1.74-.33 3.22-.25.93-1.22.86-.73-.06-1.4.16a.89.89 0 00-.61.72l-3.27 21.35a1.98 1.97-85.4 01-1.96 1.68l-37.53-.04a2.47 2.46-4.2 01-2.43-2.09L7.8 32.45a1.18 1.18 0 00-1.09-.99m17.23-7.31a.35.35 0 00.25.6l15.59.02a.35.35 0 00.25-.59l-7.78-7.81a.35.35 0 00-.5 0zm-1.698 10.76a2.9 2.9 0 00-2.91-2.89h-.26a2.9 2.9 0 00-2.89 2.91l.036 10.48a2.9 2.9 0 002.91 2.89h.26a2.9 2.9 0 002.89-2.91zm12.778-.17A2.74 2.74 0 0032.28 32h-.56a2.74 2.74 0 00-2.74 2.74v10.82a2.74 2.74 0 002.74 2.74h.56a2.74 2.74 0 002.74-2.74zm12.77.155a2.88 2.88 0 00-2.876-2.885h-.28a2.88 2.88 0 00-2.885 2.875l-.018 10.5a2.88 2.88 0 002.875 2.885h.28a2.88 2.88 0 002.885-2.875z"></path><g fill="#000"><rect width="6.06" height="16.28" x="-3.03" y="-8.14" rx="2.9" transform="rotate(-.2 11514.596 -5488.904)"></rect><rect width="6.04" height="16.3" x="28.98" y="32" rx="2.74"></rect><rect width="6.04" height="16.26" x="-3.02" y="-8.13" rx="2.88" transform="rotate(.1 -22976.14 25665.654)"></rect><path d="M58.16 34.75L55.18 54.2q-.51 3.33-3.88 3.33l-39.12-.01a3.35 3.35 0 01-3.31-2.84L5.81 34.53a.99.98 1.7 00-.78-.82c-3.97-.82-2.97-4.92-3.01-7.73a3.17 3.17 0 013.16-3.21l7.49-.03a2.39 2.36-66.4 001.63-.65L29.33 7.84q2.66-2.52 5.31 0l15.25 14.42a1.7 1.7 0 001.17.47l7.96.04a3 3 0 012.99 3l-.02 5.05q0 .53-.29.96-.96 1.46-2.53 1.86-.87.23-1.01 1.11M6.71 31.46a1.18 1.18 0 011.09.99l3.21 20.72a2.47 2.46-4.2 002.43 2.09l37.53.04a1.98 1.97-85.4 001.96-1.68l3.27-21.35a.89.89 0 01.61-.72q.67-.22 1.4-.16.97.07 1.22-.86.4-1.48.33-3.22a2.44 2.44 0 00-2.45-2.34L49.8 25q-.6.01-1.03-.41L33.28 9.7q-1.3-1.24-2.59 0L15.3 24.52q-.45.43-1.06.43-3.74.05-7.46.04c-3.15-.02-2.76 3.62-2.19 5.67a1 1 0 00.91.73z"></path><path d="M23.94 24.15l7.81-7.78a.35.35 0 01.5 0l7.78 7.81a.35.35 0 01-.25.59l-15.59-.02a.35.35 0 01-.25-.6m5.47-2.17a.32.32 0 00.23.55l4.68.01a.32.32 0 00.23-.55l-2.34-2.38a.32.32 0 00-.46 0z"></path></g></svg>