<svg xmlns="http://www.w3.org/2000/svg" viewBox="0 0 64 64" fill="#b9e6b9">
  <path fill="#000" d="M40.2 22.54l.82 2.24q.28.77 1.11.75c2.52-.08 5.22-.76 6.62 2.02q5.69 11.3 11.14 22.59c1.06 2.22-.75 3.72-2.83 3.64q-2.74-.09-5.58-.06a3.05 3.04-11.6 01-2.84-1.87l-1.93-4.61q-.2-.48-.73-.48H17.93a.49.48 10.7 00-.45.3l-2.13 5.06a3.09 3.09 0 01-2.86 1.89l-6.78-.04a2.17 2.16-76.7 01-1.92-3.12l11.56-23.43a2.94 2.93-76.8 012.63-1.64l3.91.01q.76 0 1.06-.7l.95-2.21a.7.7 0 00-.81-.96q-2.31.54-3.63-1.26a.98.97-55.2 01-.15-.86q.49-1.63 1.78-2.76 4.46-3.87 9.05-8.22a2.72 2.72 0 013.7-.04q5 4.54 9.55 8.68c2.95 2.69.56 5.1-2.67 4.47q-.8-.16-.52.61m-17.87-3.42a.38.38 0 00.27.67l4.18-.06a.38.38 0 01.36.5l-8.19 23.76a.38.38 0 00.36.5l25.54.02a.38.38 0 00.36-.5l-8.23-23.73a.38.38 0 01.36-.5l4.07-.02a.38.38 0 00.25-.66l-9.34-8.57a.38.38 0 00-.52 0zm34.76 32.46a.63.63 0 00.58-.91L46.45 28.13a.63.63 0 00-.55-.35l-3.08-.04a.63.63 0 00-.6.85l8.35 22.38a.63.63 0 00.57.41zm-50.74-.59q-.37.74.46.75h5.17q.95 0 1.33-.86 4.86-11.03 8.5-22.71.05-.18-.14-.18l-3.69-.02q-.31 0-.45.28z"/>
  <path d="M22.33 19.12l9.47-8.59a.38.38 0 01.52 0l9.34 8.57a.38.38 0 01-.25.66l-4.07.02a.38.38 0 00-.36.5l8.23 23.73a.38.38 0 01-.36.5l-25.54-.02a.38.38 0 01-.36-.5l8.19-23.76a.38.38 0 00-.36-.5l-4.18.06a.38.38 0 01-.27-.67"/>
  <path d="M57.09 51.58l-5.95-.2a.63.63 0 01-.57-.41l-8.35-22.38a.63.63 0 01.6-.85l3.08.04a.63.63 0 01.55.35l11.22 22.54a.63.63 0 01-.58.91m-50.74-.59l11.18-22.74q.14-.28.45-.28l3.69.02q.19 0 .14.18-3.64 11.68-8.5 22.71-.38.86-1.33.86H6.81q-.83-.01-.46-.75"/>
</svg>