<svg data-v-ea210746="" xmlns="http://www.w3.org/2000/svg" fill="#fff" viewBox="0 0 64 64" class="ui-icon max-h-full w-full" style="opacity: 1;"><path fill="#000" d="M32.51 37.31a.33.33 0 00-.24-.56l-17.78.03q-.49 0-.49.48v18.25a2.02 2.02 0 01-2.01 2.02l-6.71.03q-2.29.02-2.29-2.28V4.25A2.01 2.01 0 015 2.24l44.24.01a1.74 1.74 0 011.74 1.74l.01 27.75q0 1.39 1.03.46 2.36-2.14 5.3-1.46 2.31.53 2.76 2.4c1.02 4.25-1.81 6.86-4.26 9.71q-.37.42-.11.92l4.24 8.15q1.42 2.73-.55 5.1l-1.32 1.59q-2.25 2.7-4.43-.05l-5.03-6.34q-.52-.65-1.08-.03l-1.82 2q-.53.59-.27 1.33 1.23 3.57-2.13 6.13a2.39 2.39 0 01-3.34-.44q-2.69-3.51-6.05-5.08-2.83-1.33-1.43-3.88c.81-1.46 3.22-4.24 5.12-2.91q.72.5 1.23-.2l1.83-2.5q.49-.67-.24-1.05-3.42-1.8-7.24-3.56c-2.03-.94-2.23-3.13-.69-4.72m4.15-23.63a.75.75 0 01-.74.75l-10.9.12a.75.75 0 00-.74.75l-.04 8.24a.75.75 0 00.76.75l10.62-.14a.75.75 0 00.74-.73l.25-8.31a.75.75 0 01.74-.73l10.66-.12a.75.75 0 00.74-.75l.02-8.37a.75.75 0 00-.76-.75l-10.62.16a.75.75 0 00-.74.75zm-24.92 1.05a.46.46 0 01.46-.46l11.33-.01a.46.46 0 00.46-.46l.05-8.85a.46.46 0 00-.46-.46H5.7a.46.46 0 00-.46.46l.04 49.94a.46.46 0 00.47.46l5.55-.14a.46.46 0 00.45-.46V34.94a.46.46 0 01.46-.46l11.32-.03a.46.46 0 00.46-.46l.04-9.02a.46.46 0 00-.46-.46l-11.36-.02a.46.46 0 01-.46-.46zm37.061 10.833a1.03 1.03 0 00-1.02-1.04l-9.959-.105a1.03 1.03 0 00-1.04 1.02l-.083 7.899a1.03 1.03 0 001.02 1.04l9.959.105a1.03 1.03 0 001.04-1.02zm.289 23.317l5.95 7.8q.78 1.02 1.6.03l1.37-1.65q.65-.78.17-1.67l-5.01-9.38a2.03 2.02 54.4 01.4-2.43c1.91-1.79 4.83-4.58 4.37-7.46a1.81 1.81 0 00-2.46-1.4c-1.12.45-2.33 1-2.98 2.08q-1.48 2.43-3.54 4.54-.39.39-.92.24l-11.2-3.2q-.57-.16-.92.33l-1.72 2.42q-.4.56.21.87l9.62 4.81q.61.31.24.89-1.93 3.09-4.56 5.96-.44.49-1.09.39-.75-.11-1.39-.5a1.14 1.14 0 00-1.47.25l-.87 1.05q-.68.81.27 1.27 3.63 1.74 6.12 5.08a.86.85 42.5 001.41-.06l.67-1.08q.46-.73 0-1.46l-.94-1.49q-.2-.33.05-.63l4.85-5.65q.92-1.07 1.77.05"></path><path d="M36.66 13.68l-.01-8.38a.75.75 0 01.74-.75l10.62-.16a.75.75 0 01.76.75l-.02 8.37a.75.75 0 01-.74.75l-10.66.12a.75.75 0 00-.74.73l-.25 8.31a.75.75 0 01-.74.73L25 24.29a.75.75 0 01-.76-.75l.04-8.24a.75.75 0 01.74-.75l10.9-.12a.75.75 0 00.74-.75m-24.92 1.05l.01 9.3a.46.46 0 00.46.46l11.36.02a.46.46 0 01.46.46l-.04 9.02a.46.46 0 01-.46.46l-11.32.03a.46.46 0 00-.46.46v19.81a.46.46 0 01-.45.46l-5.55.14a.46.46 0 01-.47-.46L5.24 4.95a.46.46 0 01.46-.46h17.88a.46.46 0 01.46.46l-.05 8.85a.46.46 0 01-.46.46l-11.33.01a.46.46 0 00-.46.46"></path><rect width="12.02" height="9.96" x="-6.01" y="-4.98" rx="1.03" transform="rotate(.6 -2790.867 4097.012)"></rect><path d="M49.09 48.88q-.85-1.12-1.77-.05l-4.85 5.65q-.25.3-.05.63l.94 1.49q.46.73 0 1.46l-.67 1.08a.86.85 42.5 01-1.41.06q-2.49-3.34-6.12-5.08-.95-.46-.27-1.27l.87-1.05a1.14 1.14 0 011.47-.25q.64.39 1.39.5.65.1 1.09-.39 2.63-2.87 4.56-5.96.37-.58-.24-.89L34.41 40q-.61-.31-.21-.87l1.72-2.42q.35-.49.92-.33l11.2 3.2q.53.15.92-.24 2.06-2.11 3.54-4.54c.65-1.08 1.86-1.63 2.98-2.08a1.81 1.81 0 012.46 1.4c.46 2.88-2.46 5.67-4.37 7.46a2.03 2.02 54.4 00-.4 2.43l5.01 9.38q.48.89-.17 1.67l-1.37 1.65q-.82.99-1.6-.03z"></path></svg>