<svg data-v-ea210746="" xmlns="http://www.w3.org/2000/svg" fill="#fff" viewBox="0 0 64 64" class="ui-icon max-h-full w-full" style="opacity: 1;"><path fill="#000" d="M42.29 25.05q4.36-.02 8 .65c4.62.86 9.88 3.91 9.76 9.21-.17 7.42-5.85 10.3-12.72 10.15q-8.22-.17-17.08.01c-4.87.09-9.6-1.59-14.21-2.87q-.9-.25-1.15.65c-.56 2-1.64 4.36-4.15 4.11-5.28-.54-4.1-4.23-4.31-7.95q-.03-.48-.38-.8l-1.5-1.37q-.41-.37-.53-.9-.66-2.93 2.15-4.32a1.07 1.06 77.2 00.6-.96v-5.25q0-1.84 1.83-1.93c2.78-.14 5.41-.35 6.08 3.24q.3 1.64 1.92 1.2l9.39-2.61a1.36 1.35 89.3 00.95-.98q.66-2.67 1.42-5.23.7-2.36 3.14-2.52 3.96-.24 7.83-.01 2.25.14 2.23 2.39l-.05 5.3q-.01.79.78.79M13.3 40.03q.24-.78 1.03-.59c5.49 1.31 10.8 3.46 16.41 3.35q8.12-.15 16.98-.02c5.24.08 9.84-1.91 10.03-7.92.14-4.63-5.96-6.82-9.46-7.2q-3.72-.41-8-.4a1.03 1.03 0 01-1.03-1.03l.03-6.46q0-1.04-1.04-1.04l-6.39.03a1.49 1.48 6.5 00-1.43 1.13L29 25.74a2.02 2.02 0 01-1.42 1.47L15 30.75a1.34 1.33-17.4 01-1.62-.84l-1.21-3.43q-.18-.52-.71-.66-.9-.23-1.78-.07-.61.11-.63.73-.06 2.79-.07 5.34 0 1.57-1.58 2.05a1.15 1.15 0 00-.33 2.03l1.25.89q.44.32.43.86l-.04 5.67q0 .56.46.87 1.02.71 2.2.35.62-.19.81-.81z"></path><path d="M13.3 40.03l-1.12 3.7q-.19.62-.81.81-1.18.36-2.2-.35-.46-.31-.46-.87l.04-5.67q.01-.54-.43-.86l-1.25-.89a1.15 1.15 0 01.33-2.03q1.58-.48 1.58-2.05.01-2.55.07-5.34.02-.62.63-.73.88-.16 1.78.07.53.14.71.66l1.21 3.43a1.34 1.33-17.4 001.62.84l12.58-3.54A2.02 2.02 0 0029 25.74l1.43-5.86a1.49 1.48 6.5 011.43-1.13l6.39-.03q1.04 0 1.04 1.04l-.03 6.46a1.03 1.03 0 001.03 1.03q4.28-.01 8 .4c3.5.38 9.6 2.57 9.46 7.2-.19 6.01-4.79 8-10.03 7.92q-8.86-.13-16.98.02c-5.61.11-10.92-2.04-16.41-3.35q-.79-.19-1.03.59"></path></svg>