<svg data-v-ea210746="" xmlns="http://www.w3.org/2000/svg" viewBox="0 0 64 64" fill="#fff" class="ui-icon max-h-full w-full" style="opacity: 1;"><path d="M32.71 13.93q3.8-4.54 10.11-4.95c9.29-.6 14.02 6.44 13.67 15.2q-.05 1.09 1 1.41 3.15.95 3.6 3.94.82 5.5.23 12.12-.38 4.18-4.25 5.08-6.9 1.61-13.45.83-.93-.11-1.85-.04-.53.05-.9.43-3.45 3.59-6.99 6.32-1.63 1.25-3.39.05-7.22-4.94-12.76-11.08a1.37 1.35-26.6 00-1.29-.42q-2.56.53-5 1.16c-3.3.85-6.35.88-8.15-2.31q-.86-1.53-.83-3.31.06-4.87.02-9.73c-.03-2.76 1.72-4.99 4.31-5.79q.63-.2.67-.87c.36-5.87 3.32-11.09 9.11-12.48q9.05-2.18 15.28 4.46.45.48.86-.02m.04 5.36q-.21 1.33-.68.07-2.6-7.05-9.52-7.99C14.79 10.3 9.49 15.56 9.74 23.25a1.48 1.47-5.3 01-1.25 1.5q-3.71.59-3.78 4.25-.08 4.76.03 9.47c.08 3.1 2.94 4.27 5.61 3.42q3.09-.98 6.55-1.57 1.05-.17 1.75.57 6.15 6.56 12.87 11.35a1.1 1.09-48.3 001.36-.08l7.68-6.84a1.56 1.55-60.2 011.34-.37q7.5 1.45 15.39-.71.49-.13.8-.53c1.82-2.33 1.23-8.9 1.11-11.93q-.18-4.72-5.04-4.05a.53.53 0 01-.57-.72c1.19-3.06.83-6.91-.52-9.83q-3.45-7.41-12.47-5.56c-3.86.79-7.21 3.72-7.85 7.67"></path><path fill="#000" d="M32.75 19.29c.64-3.95 3.99-6.88 7.85-7.67q9.02-1.85 12.47 5.56c1.35 2.92 1.71 6.77.52 9.83a.53.53 0 00.57.72q4.86-.67 5.04 4.05c.12 3.03.71 9.6-1.11 11.93q-.31.4-.8.53-7.89 2.16-15.39.71a1.56 1.55-60.2 00-1.34.37l-7.68 6.84a1.1 1.09-48.3 01-1.36.08q-6.72-4.79-12.87-11.35-.7-.74-1.75-.57-3.46.59-6.55 1.57c-2.67.85-5.53-.32-5.61-3.42q-.11-4.71-.03-9.47.07-3.66 3.78-4.25a1.48 1.47-5.3 001.25-1.5c-.25-7.69 5.05-12.95 12.81-11.88q6.92.94 9.52 7.99.47 1.26.68-.07m-17.17 2.46c.22-3.59 1.7-5.51 4.59-7.21q2.49-1.46-.37-1.09c-4.83.64-8.45 5.24-6.94 10.18a.55.54 79.3 00.56.39q2.03-.11 2.16-2.27m20.35 6.87q-12.5-5.48-27.1-.58-.81.28-.82 1.14L8 38.03a.8.79-7.5 001.01.77c7.51-2.04 14.31-3.57 21.88-.7 8.34 3.16 15.26 5.32 24.23 3.35a.78.77 84 00.61-.76l.02-9.14a.63.63 0 00-.77-.62c-7.34 1.7-12.64.5-19.05-2.31"></path><path d="M20.17 14.54c-2.89 1.7-4.37 3.62-4.59 7.21q-.13 2.16-2.16 2.27a.55.54 79.3 01-.56-.39c-1.51-4.94 2.11-9.54 6.94-10.18q2.86-.37.37 1.09m15.76 14.08c6.41 2.81 11.71 4.01 19.05 2.31a.63.63 0 01.77.62l-.02 9.14a.78.77 84 01-.61.76c-8.97 1.97-15.89-.19-24.23-3.35-7.57-2.87-14.37-1.34-21.88.7A.8.79-7.5 018 38.03l.01-8.85q.01-.86.82-1.14 14.6-4.9 27.1.58"></path></svg>