<svg data-v-ea210746="" xmlns="http://www.w3.org/2000/svg" fill="#fff" viewBox="0 0 64 64" class="ui-icon max-h-full w-full" style="opacity: 1;"><path fill="#000" d="M18.07 49.35q-.09-1.1-.1-2.25c-.04-3.47 3.85-3.43 6.16-3.27q.65.05.65-.6l-.02-11.06a.67.67 0 00-1.16-.45l-2.56 2.83a1.38 1.3 11.3 01-.62.39q-2.63.78-5.35 1.37c-2.23.48-5.62-2.06-6.11-4.2Q7.6 26.17 5.97 19.4q-.43-1.79.17-3.35c1.63-4.23 4.69-3.93 8.26-4.85a2.43 2.39 52.9 011.84.27q1.74 1.06 3.5.7 6.05-1.26 13.16-3.06a2.13 2.11-84.9 001.42-1.2c.7-1.56 1.6-2.44 3.37-2.84q3.67-.83 7.31-1.73c1.92-.47 4.11 1.72 5.37 2.99q.44.45 1.06.44c2.48-.03 6.21-.29 5.57 3.46-.07.44-.35.71-.47 1.1a.39.39 0 00.25.49c1.3.42 1.77 1.88 1.21 3.07q-.19.4-.21.85a.91.89 22.2 00.3.69c1.79 1.54 1.43 4.16-.78 5.03q-1.1.43-2.14.94a1.55 1.52-2.3 00-.76.81c-.82 2.03-1.57 4.74-4 5.26q-3.13.68-6.66 1.58c-1.95.51-3.55-.39-5.13-1.37a.91.91 0 00-1.39.77l.02 13.51q.01.96.96.88 6.1-.57 5.27 5.51-.09.67.58.67l7.42-.03q2.25-.01 2.26 2.24l.02 4.87q.01 2.12-2.1 2.12H11.09q-2.87 0-2.87-2.88v-3.82q0-2.5 2.51-2.51l6.75-.02q.65 0 .59-.64m12.09-33.38c5.71-.43 7.69 4.3 7.05 9.11a.75.75 0 00.59.83q1.95.41 3.66 1.66a1.77 1.76-32.9 001.42.3l5.89-1.33a4.18 4.18 0 003.15-5.06l-3.07-12.7A3.92 3.91-13.7 0044.1 5.9l-6.12 1.52a1.93 1.93 0 00-1.35 1.22q-.79 2.27-3.39 2.84-7.16 1.59-13.42 3.15-1.23.3-2.42-.24-3.58-1.62-7.44.57c-1.25.72-2.21 2.05-1.85 3.59q1.4 5.93 2.85 11.97c1.33 5.52 8.34 3.28 10.34.12.6-.93 1.66-1.32 2.72-1.32q.54.01.59-.53c.45-4.48-.99-7.93 2.67-11.51q1.22-1.19 2.88-1.31m22.59-5.35q.65-.18 1.12-.64.6-.6-.21-.83-.41-.12-.83-.18-.4-.05-.64.25-.39.51-.07 1.13a.55.54 67.8 00.63.27m.362 4.455a1.02.78 135.5 001.275-.159 1.02.78 135.5 00.18-1.27 1.02.78 135.5 00-1.274.158 1.02.78 135.5 00-.18 1.27M27.47 43.74h7.08a.47.47 0 00.47-.47V23.2a4.94 3.9-90 00-3.9-4.94h-.22A4.94 3.9 90 0027 23.2v20.07a.47.47 0 00.47.47m26.64-24.68q.23 1.29 1.22.51.3-.23.5-.55.41-.66-.35-.84-.42-.1-.8-.01a.78.76 78.1 00-.57.89M21.53 45.99a1.07 1.07 0 00-1.05.89l-.33 1.9a1.07 1.07 0 001.06 1.25L40.39 50a1.07 1.07 0 001.03-1.35l-.5-1.84a1.07 1.07 0 00-1.03-.79zm30 7.22a.96.96 0 00-.96-.96H11.33a.96.96 0 00-.96.96v2.82a.96.96 0 00.96.96h39.24a.96.96 0 00.96-.96z"></path><path d="M27.28 17.28c-3.66 3.58-2.22 7.03-2.67 11.51q-.05.54-.59.53c-1.06 0-2.12.39-2.72 1.32-2 3.16-9.01 5.4-10.34-.12q-1.45-6.04-2.85-11.97c-.36-1.54.6-2.87 1.85-3.59q3.86-2.19 7.44-.57 1.19.54 2.42.24 6.26-1.56 13.42-3.15 2.6-.57 3.39-2.84a1.93 1.93 0 011.35-1.22L44.1 5.9a3.92 3.91-13.7 014.75 2.88l3.07 12.7a4.18 4.18 0 01-3.15 5.06l-5.89 1.33a1.77 1.76-32.9 01-1.42-.3q-1.71-1.25-3.66-1.66a.75.75 0 01-.59-.83c.64-4.81-1.34-9.54-7.05-9.11q-1.66.12-2.88 1.31m25.47-6.66a.55.54 67.8 01-.63-.27q-.32-.62.07-1.13.24-.3.64-.25.42.06.83.18.81.23.21.83-.47.46-1.12.64"></path><ellipse rx="1.02" ry=".78" transform="rotate(135.5 23.983 18.193)"></ellipse><path d="M27.47 43.74a.47.47 0 01-.47-.47V23.2a4.94 3.9 90 013.9-4.94h.22a4.94 3.9 90 013.9 4.94v20.07a.47.47 0 01-.47.47zm26.64-24.68a.78.76 78.1 01.57-.89q.38-.09.8.01.76.18.35.84-.2.32-.5.55-.99.78-1.22-.51M21.53 45.99l18.36.03a1.07 1.07 0 011.03.79l.5 1.84A1.07 1.07 0 0140.39 50l-19.18.03a1.07 1.07 0 01-1.06-1.25l.33-1.9a1.07 1.07 0 011.05-.89"></path><rect width="41.16" height="4.74" x="10.37" y="52.25" rx=".96"></rect></svg>