<svg data-v-ea210746="" xmlns="http://www.w3.org/2000/svg" fill="#fff" viewBox="0 0 64 64" class="ui-icon max-h-full w-full" style="opacity: 1;"><g fill="#000"><path d="M50.82 12.03c3.86 1.93 7.12 6.49 7.15 10.94q.07 13.37-.04 27.52c-.03 3.42-2.75 4.78-5.76 4.77q-20.32-.1-41.28.01a4.89 4.89 0 01-4.92-4.93q.1-12.44-.06-24.74c-.08-6.09 2-11.39 7.62-13.73q2.69-1.12 7.71-1.2 9.91-.16 20.77-.03 6.17.07 8.81 1.39m-33.44 1.23c-6.16.99-10.03 6.53-9.05 12.71q.09.52.61.51l7.33-.14q.68-.01.68-.69c.03-3.78-.53-8.29.89-11.81q.28-.69-.46-.58M55.65 26.2c.69-5.96-2.6-12.09-8.89-13q-.73-.11-.42.57c.32.69.66 1.39.66 2.17q0 5.1.06 10.14 0 .24.24.24l7.99.19q.32.01.36-.31m-18.05.5q-.01-.46.45-.46l5.01.05q.56.01.59-.55.23-4.97 0-9.21-.14-2.55-2.69-2.54l-17.86.04a2.86 2.86 0 00-2.86 2.87l.06 8.79q0 .63.64.63l5.03-.07q.48-.01.45.47l-.12 2.62q-.01.37-.39.37l-8.42.04a1.02 1.02 0 00-1.02 1.02l.03 14.26a.53.53 0 00.53.53l30.21.01a.32.31 0 00.32-.31l-.15-14.74q0-.87-.88-.86l-8.32.09q-.54.01-.55-.54zm12.47 21.23a1.8 1.8 0 01-1.3.56H14.79a1.21 1.21 0 01-1.21-1.2l-.1-17.31q-.01-.49-.5-.48l-4.23.01q-.49 0-.49.49l-.01 20.25A2.75 2.74 0 0011 52.99l42.01-.01a2.73 2.73 0 002.73-2.74l-.01-20.49q0-.22-.23-.22l-4.66-.02q-.32 0-.32.32-.15 8.39.05 16.79.02.77-.5 1.31"></path><path d="M34.5 31.41c-.91 1.17-.43 3.67-.58 5.14q-.13 1.31-1.36 1.77-.3.11-.6.05-2.06-.41-2.19-2.34-.1-1.53-.01-3.2a2.48 2.41-60.3 00-.37-1.43c-2.51-4.01 1.59-8.06 4.74-5.16q2.55 2.36.37 5.17"></path></g><path d="M8.33 25.97c-.98-6.18 2.89-11.72 9.05-12.71q.74-.11.46.58c-1.42 3.52-.86 8.03-.89 11.81q0 .68-.68.69l-7.33.14q-.52.01-.61-.51M46.76 13.2c6.29.91 9.58 7.04 8.89 13q-.04.32-.36.31l-7.99-.19q-.24 0-.24-.24Q47 21.04 47 15.94c0-.78-.34-1.48-.66-2.17q-.31-.68.42-.57M37.6 26.7l.06 2.51q.01.55.55.54l8.32-.09q.88-.01.88.86l.15 14.74a.32.31 0 01-.32.31l-30.21-.01a.53.53 0 01-.53-.53l-.03-14.26a1.02 1.02 0 011.02-1.02l8.42-.04q.38 0 .39-.37l.12-2.62q.03-.48-.45-.47l-5.03.07q-.64 0-.64-.63l-.06-8.79a2.86 2.86 0 012.86-2.87l17.86-.04q2.55-.01 2.69 2.54.23 4.24 0 9.21-.03.56-.59.55l-5.01-.05q-.46 0-.45.46m-3.1 4.71q2.18-2.81-.37-5.17c-3.15-2.9-7.25 1.15-4.74 5.16a2.48 2.41-60.3 01.37 1.43q-.09 1.67.01 3.2.13 1.93 2.19 2.34.3.06.6-.05 1.23-.46 1.36-1.77c.15-1.47-.33-3.97.58-5.14"></path><path d="M50.07 47.93q.52-.54.5-1.31-.2-8.4-.05-16.79 0-.32.32-.32l4.66.02q.23 0 .23.22l.01 20.49a2.73 2.73 0 01-2.73 2.74L11 52.99a2.75 2.74 0 01-2.75-2.74L8.26 30q0-.49.49-.49l4.23-.01q.49-.01.5.48l.1 17.31a1.21 1.21 0 001.21 1.2h33.98a1.8 1.8 0 001.3-.56"></path></svg>