<svg data-v-ea210746="" xmlns="http://www.w3.org/2000/svg" fill="#fff" viewBox="0 0 64 64" class="ui-icon max-h-full w-full" style="fill: rgb(155, 155, 155); opacity: 1;"><g fill="#000"><path d="M47.49 45.23H16.43q-.91 0-.91.91c-.02 8.04-13.58 8.08-13.1-.78q.17-3.3-.38-6.47-.9-5.11 1.2-12.17.15-.49-.12-.93-.44-.72-1.16-1.19-.52-.34-.65-.94-.52-2.31.97-4.11.41-.48 1.04-.49c2.33-.04 5.74-.73 6.96 2.06a.66.65-34.4 001.06.19l7.86-7.84q1.33-1.33 3.21-1.34l19.44-.01a3.93 3.91 67.4 012.77 1.15l8.06 8.05a.67.66 35.2 001.07-.18c1.33-2.83 4.33-2.16 6.79-2.09a1.5 1.48 68.1 011.04.45q1.45 1.51 1.1 3.76c-.18 1.14-.99 1.63-1.75 2.36a.83.82-30.9 00-.21.82c1.34 4.44 1.94 9.04 1.13 13.61q-.52 2.94-.32 5.69c.27 3.74-2.75 6.44-6.43 6.3q-6.35-.25-6.72-5.97a.89.88 88 00-.89-.84m-33.55-2.22l36.06.01q.75 0 .74.75c-.02 2.02-.26 5.12 2.39 5.72 3.46.78 6.61-.59 6.21-4.45q-.32-3.07.3-5.88c.62-2.8.29-11.05-1.92-13.1q-1.63-1.51.53-2.04l1.23-.3q.61-.15.76-.77.38-1.52-1.1-1.69-3.43-.4-4.18 2.47a1.44 1.43 29.2 01-2.38.67l-9.81-9.39q-.46-.44-1.1-.46-9.77-.43-19.23.03a2.1 2.1 0 00-1.33.57l-9.59 9.17a1.49 1.49 0 01-2.45-.63q-.94-2.99-4.7-2.41-.57.08-.66.66c-.29 1.98 1.32 1.94 2.66 2.17a.79.79 0 01.39 1.38c-2.2 1.94-2.35 5.93-2.63 8.67-.4 3.87.92 7.46.58 11.47-.37 4.48 5.59 5.24 7.84 2.56 1.02-1.21.69-2.97.68-4.46q-.01-.72.71-.72"></path><path d="M22.29 16.99l19.35-.01a.72.72 0 01.53.23l7.19 7.84a.72.72 0 01-.53 1.21l-33.6-.02a.72.72 0 01-.53-1.2l7.06-7.81a.72.72 0 01.53-.24M8.08 30.29l9.13.84a.58.58 0 01.49.38l1.49 4.3a.58.58 0 01-.6.76l-8.06-.77a.58.58 0 01-.44-.28l-2.57-4.35a.58.58 0 01.56-.88m45.24 5.37l-7.94.96a.7.7 0 01-.74-.94l1.46-4.09a.7.7 0 01.59-.46l8.87-.83a.7.7 0 01.67 1.06l-2.39 3.97a.7.7 0 01-.52.33"></path></g><path d="M13.23 43.73c.01 1.49.34 3.25-.68 4.46-2.25 2.68-8.21 1.92-7.84-2.56.34-4.01-.98-7.6-.58-11.47.28-2.74.43-6.73 2.63-8.67a.79.79 0 00-.39-1.38c-1.34-.23-2.95-.19-2.66-2.17q.09-.58.66-.66 3.76-.58 4.7 2.41a1.49 1.49 0 002.45.63l9.59-9.17a2.1 2.1 0 011.33-.57q9.46-.46 19.23-.03.64.02 1.1.46l9.81 9.39a1.44 1.43 29.2 002.38-.67q.75-2.87 4.18-2.47 1.48.17 1.1 1.69-.15.62-.76.77l-1.23.3q-2.16.53-.53 2.04c2.21 2.05 2.54 10.3 1.92 13.1q-.62 2.81-.3 5.88c.4 3.86-2.75 5.23-6.21 4.45-2.65-.6-2.41-3.7-2.39-5.72q.01-.75-.74-.75l-36.06-.01q-.72 0-.71.72m9.06-26.74a.72.72 0 00-.53.24l-7.06 7.81a.72.72 0 00.53 1.2l33.6.02a.72.72 0 00.53-1.21l-7.19-7.84a.72.72 0 00-.53-.23zM8.08 30.29a.58.58 0 00-.56.88l2.57 4.35a.58.58 0 00.44.28l8.06.77a.58.58 0 00.6-.76l-1.49-4.3a.58.58 0 00-.49-.38zm45.24 5.37a.7.7 0 00.52-.33l2.39-3.97a.7.7 0 00-.67-1.06l-8.87.83a.7.7 0 00-.59.46l-1.46 4.09a.7.7 0 00.74.94z"></path></svg>