<svg data-v-ea210746="" xmlns="http://www.w3.org/2000/svg" fill="#fff" viewBox="0 0 64 64" class="ui-icon max-h-full w-full" style="opacity: 1;"><path fill="#000" d="M24.98 46.38q1.19-1.89-.27-.2-4.27 4.97-8.6 10.12-1.69 2.01-3.2 2.45-2.56.75-4.6-.77c-3.67-2.74-2.35-6.46.28-9.34q3.89-4.29 7.74-9.09.29-.37.33-.84.25-3.62.07-7.61c-.06-1.41.42-2.86 1.42-3.87q.94-.94-.39-.96c-5.53-.1-6.38-6.3-2.98-9.68q4.98-4.95 8.96-8.9 4.38-4.33 8.49-.31 2.1 2.06 4.06 4.36a.48.48 0 00.84-.3q.06-1.75 1.14-3.3 3.42-4.93 9.07-3.12c3.79 1.21 6.11 5.75 4.71 9.62q-2.16 5.96-8.85 5.14-.94-.11-.45.7l1.04 1.73a.84.84 0 001.05.34q2.96-1.27 6.09-2.25c6.83-2.13 10.1 7.59 2.92 10.15q-4.9 1.76-9.47 3.78c-3.97 1.75-6.45-.27-8.31-3.61q-.48-.88-1.11-.1l-.34.43q-.54.68.06 1.32c2.9 3.09 9.35 7.49 5.39 12.48q-4.91 6.17-9.85 12.36-2.64 3.29-6.42 1.97c-2.33-.81-3.74-3.48-3.23-5.83.55-2.58 3.03-4.66 4.41-6.87m25.28-34.16a5.46 5.46 0 00-5.46-5.46 5.46 5.46 0 00-5.46 5.46 5.46 5.46 0 005.46 5.46 5.46 5.46 0 005.46-5.46M25.87 35.09l5.75 5.9a.81.8 42.4 01.05 1.06l-8.19 10.18q-1.55 1.93-.05 3.9 1.1 1.46 5.1-.87a1.56 1.52 4 00.46-.39l9.42-11.7a2.89 2.89 0 00-.21-3.87l-6.57-6.54q-1-1-.04-2.03l3.83-4.13q.88-.95 1.46.2c1.34 2.67 2.49 7.07 6.65 5.28q5.17-2.23 9.99-3.96 2.82-1.02 2.22-3.96-.3-1.4-3.14-1.92a1.7 1.7 0 00-.95.1l-7.92 3.21a.88.87-24.2 01-1.12-.42c-1.86-3.69-3.58-6.97-6.41-10.12q-2.44-2.7-4.79-5.25-3.05-3.32-6.23-.12l-9.61 9.67a2.19 2.19 0 00-.63 1.78q.15 1.32 1.03 2.03 2.24 1.81 4.27-.23l7.2-7.2q.81-.82 1.54.08l1.16 1.43q.63.76-.08 1.46l-9.38 9.32a5.7 5.68-22.7 00-1.67 4.05l.02 7.34q0 .62-.39 1.09L9 51.96q-1.45 1.73-.06 3.5.88 1.14 3.1.88a2.81 2.76 16.1 001.83-.99q4.72-5.74 9.84-11.57c1.8-2.05 1.29-5.78 1.38-8.39q.04-1.06.78-.3m2.04 5.68q-.43-.46-.56.15l-.67 3.19q-.11.48.2.09l1.47-1.88q.45-.58-.04-1.11z"></path><circle cx="44.8" cy="12.22" r="5.46"></circle><path d="M25.09 35.39c-.09 2.61.42 6.34-1.38 8.39q-5.12 5.83-9.84 11.57a2.81 2.76 16.1 01-1.83.99q-2.22.26-3.1-.88-1.39-1.77.06-3.5l9.64-11.5q.39-.47.39-1.09l-.02-7.34a5.7 5.68-22.7 011.67-4.05l9.38-9.32q.71-.7.08-1.46l-1.16-1.43q-.73-.9-1.54-.08l-7.2 7.2q-2.03 2.04-4.27.23-.88-.71-1.03-2.03a2.19 2.19 0 01.63-1.78l9.61-9.67q3.18-3.2 6.23.12 2.35 2.55 4.79 5.25c2.83 3.15 4.55 6.43 6.41 10.12a.88.87-24.2 001.12.42l7.92-3.21a1.7 1.7 0 01.95-.1q2.84.52 3.14 1.92.6 2.94-2.22 3.96-4.82 1.73-9.99 3.96c-4.16 1.79-5.31-2.61-6.65-5.28q-.58-1.15-1.46-.2l-3.83 4.13q-.96 1.03.04 2.03l6.57 6.54a2.89 2.89 0 01.21 3.87l-9.42 11.7a1.56 1.52 4 01-.46.39q-4 2.33-5.1.87-1.5-1.97.05-3.9l8.19-10.18a.81.8 42.4 00-.05-1.06l-5.75-5.9q-.74-.76-.78.3"></path></svg>