<svg data-v-ea210746="" xmlns="http://www.w3.org/2000/svg" fill="#fff" viewBox="0 0 64 64" class="ui-icon max-h-full absolute left-1/2 top-1/2 -translate-x-1/2 -translate-y-1/2 z-[201] w-[70%]" style="opacity: 1;"><path fill="#000" d="M6.85 37.6c-4.63-2.64-4.45-7.64 0-10.21q4.78-2.77 10.52-3.59.6-.08.91-.61c3.8-6.33 11.2-7.9 18.22-7.05q7.97.97 11.68 7.01.28.45.8.55 5.79 1.05 10.22 3.42c4.71 2.52 5.21 7.78.41 10.52q-4.73 2.7-9.72 3.37a1.23 1.22-75.7 00-.83.5q-2.97 4.08-7.25 5.69c-7.24 2.73-18.44 2.2-23.51-4.72-1.11-1.5-2.94-1.68-4.62-2.11q-3.52-.89-6.83-2.77m24.4-19.27c-5.26.45-13.14 3.7-10.78 10.34a1.27 1.25 86.8 00.89.81q11.29 2.77 22.92.28c3.34-.71 2.35-5.44.59-7.19q-5-4.96-13.62-4.24m17.33 8.65c.56 4.47-3.48 5.08-6.72 5.55q-10.95 1.61-21.42-.82c-2.17-.5-2.65-3.13-2.67-5a.62.62 0 00-.75-.6c-2.47.52-13.54 3.34-10.94 7.56 1.63 2.66 7.11 4.44 10.02 5.02q14.51 2.87 30 .76c4.28-.58 10.7-2.04 13.91-5.18a2.44 2.44 0 00.15-3.32c-2.52-2.98-7.01-3.93-10.72-4.76a.71.71 0 00-.86.79m-6.61 17.53q1.73-.75 3.42-2.23.54-.47-.18-.4-10.92 1.15-19.78.39-1.9-.16-3.85-.23-1.23-.05-.21.64 9.75 6.56 20.6 1.83"></path><path d="M31.25 18.33q8.62-.72 13.62 4.24c1.76 1.75 2.75 6.48-.59 7.19q-11.63 2.49-22.92-.28a1.27 1.25 86.8 01-.89-.81c-2.36-6.64 5.52-9.89 10.78-10.34"></path><path d="M48.58 26.98a.71.71 0 01.86-.79c3.71.83 8.2 1.78 10.72 4.76a2.44 2.44 0 01-.15 3.32c-3.21 3.14-9.63 4.6-13.91 5.18q-15.49 2.11-30-.76c-2.91-.58-8.39-2.36-10.02-5.02-2.6-4.22 8.47-7.04 10.94-7.56a.62.62 0 01.75.6c.02 1.87.5 4.5 2.67 5q10.47 2.43 21.42.82c3.24-.47 7.28-1.08 6.72-5.55m-6.61 17.53q-10.85 4.73-20.6-1.83-1.02-.69.21-.64 1.95.07 3.85.23 8.86.76 19.78-.39.72-.07.18.4-1.69 1.48-3.42 2.23"></path></svg>