<svg data-v-ea210746="" xmlns="http://www.w3.org/2000/svg" fill="#fff" viewBox="0 0 64 64" class="ui-icon max-h-full w-full" style="fill: rgb(114, 204, 114); opacity: 1;"><path d="M10.75 35.27V11a2 2 0 012-2h38.26a2.26 2.25 90 012.25 2.26l-.02 24.21a1.9 1.83-63.5 00.34 1.08q3.46 4.88 6.94 9.83 1.06 1.51 1.17 2.96c.12 1.69.67 5.65-2.17 5.65q-27.5.01-55.06-.01-1.69 0-2.01-1.62c-.55-2.83-.24-5.32 1.5-7.73q3.41-4.71 6.35-8.91.45-.66.45-1.45M5.3 52.73l53.45.05q.39 0 .54-.48.73-2.32-.52-4.21-3.32-5.04-7.44-10.69-.31-.43-.31-.96l-.03-24.69a.49.49 0 00-.49-.49l-37.02.01a.5.49-90 00-.49.5l-.01 24.44q0 .84-.5 1.51-3.68 5.04-7.2 10.24c-.83 1.23-1.02 2.8-.68 4.22q.13.55.7.55"></path><path d="M47.29 33.81l-30.68.76.13-19.18a.75.75 0 01.75-.75l28.72-.01q1.12 0 1.12 1.12z"></path><path d="M47.29 33.81l-.85 1.1q-.29.38-.76.41-14.61.84-29.07-.75zM24.42 47.25a.22.22 0 01-.22-.22v-.14a3.86 2.31 89.9 012.31-3.86l10.96-.02a3.86 2.31 89.9 012.31 3.86v.14a.22.22 0 01-.22.22z"></path><path fill="#000" d="M58.75 52.78L5.3 52.73q-.57 0-.7-.55c-.34-1.42-.15-2.99.68-4.22q3.52-5.2 7.2-10.24.5-.67.5-1.51l.01-24.44a.5.49-90 01.49-.5l37.02-.01a.49.49 0 01.49.49l.03 24.69q0 .53.31.96 4.12 5.65 7.44 10.69 1.25 1.89.52 4.21-.15.48-.54.48M16.61 34.57q14.46 1.59 29.07.75.47-.03.76-.41l.85-1.1.04-18.06q0-1.12-1.12-1.12l-28.72.01a.75.75 0 00-.75.75zm7.81 12.68l15.14-.02a.22.22 0 00.22-.22v-.14a3.86 2.31 89.9 00-2.31-3.86l-10.96.02a3.86 2.31 89.9 00-2.31 3.86v.14a.22.22 0 00.22.22"></path></svg>