<svg data-v-ea210746="" xmlns="http://www.w3.org/2000/svg" fill="#fff" viewBox="0 0 64 64" class="ui-icon max-h-full w-full" style="fill: rgb(93, 182, 229); opacity: 1;"><path fill="#000" d="M37.03 16.43q2.45.03 3.65 2.09 4.04 6.95 8.26 13.96c2.14 3.54-2.04 5.71-4.62 6.46q-1.4.41-2.37-.58-.95-.96-.95.39v18.31a3.13 3.13 0 01-2.51 3.07q-3.3.66-6.08-.79-.38-.21-.77 0-2.7 1.45-6.12.77a3.14 3.14 0 01-2.53-3.07l-.01-18.31q0-1.4-.92-.35-1.2 1.38-3.68.09c-2.36-1.24-5.3-2.73-3.3-6.03q4.24-6.99 8.17-13.82c.73-1.28 1.87-2.14 3.4-2.15q1.05 0 .35-.77-3.12-3.48-1.45-7.92c2.04-5.43 10.47-5.33 12.77-.14q1.94 4.39-1.52 8.27-.46.51.23.52m-.35-5.79a4.73 4.73 0 00-4.73-4.73 4.73 4.73 0 00-4.73 4.73 4.73 4.73 0 004.73 4.73 4.73 4.73 0 004.73-4.73M25.26 30.3l.01 25.84q0 1.87 1.87 1.85l.63-.01Q30 57.96 30 55.73L29.99 40q0-.25.26-.25h3.5q.25 0 .25.25v16q0 1.99 2 2h.61q2.12 0 2.12-2.11l.01-25.09q0-1.67.86-.24l3.08 5.12q.93 1.55 2.49.64l.39-.22a2.39 2.38-30.4 00.85-3.26l-7.83-13.3a1.61 1.59-14.8 00-1.39-.8l-10.46-.04a1.52 1.52 0 00-1.31.75l-7.84 13.41q-1.07 1.82.61 3.11.36.28.8.46 1.45.59 2.26-.73l3.44-5.56q.57-.92.57.16"></path><circle cx="31.95" cy="10.64" r="4.73"></circle><path d="M24.69 30.14l-3.44 5.56q-.81 1.32-2.26.73-.44-.18-.8-.46-1.68-1.29-.61-3.11l7.84-13.41a1.52 1.52 0 011.31-.75l10.46.04a1.61 1.59-14.8 011.39.8l7.83 13.3a2.39 2.38-30.4 01-.85 3.26l-.39.22q-1.56.91-2.49-.64l-3.08-5.12q-.86-1.43-.86.24l-.01 25.09q0 2.11-2.12 2.11H36q-2-.01-2-2V40q0-.25-.25-.25h-3.5q-.26 0-.26.25L30 55.73q0 2.23-2.23 2.25l-.63.01q-1.87.02-1.87-1.85l-.01-25.84q0-1.08-.57-.16"></path></svg>