<svg data-v-ea210746="" xmlns="http://www.w3.org/2000/svg" viewBox="0 0 64 64" fill="#fff" class="ui-icon max-h-full w-full" style="opacity: 1;"><path d="M29.76 18.99L29.75 16q0-.5.5-.5h9.15a5.43 5.42 69.2 014.06 1.83q2.84 3.23 6.06 7.11c2.32 2.79 5.56 3.2 8.74 4.14 3.89 1.16 3 5.86 3.01 8.99q.03 5.29-6 4.07-1.87-.38-2.22 1.5c-1.41 7.6-12.05 6.85-12.9-.65a.82.81-3.1 00-.81-.72l-17.05-.01q-.51 0-.55.5c-.74 8.23-12.2 8.35-13.11.14q-.06-.53-.58-.61c-2.17-.33-5.16.35-5.24-3.02q-.11-4.09-.05-9.22c.01-1.56.87-2.68 2.34-3.18q.8-.27.53-1.08c-1.59-4.74 2.38-7.76 6.91-5.91q.73.29 1.22.9.3.39.68.06 3.94-3.46 7.61.05.31.29.62 0 2.92-2.76 6.42-.99.67.34.67-.41zm1.52 9.49l-24.44.06A1.85 1.84-.5 005 30.4q.02 3.32-.03 6.76c-.03 1.89 1.51 3.04 3.35 2.53a1.04 1.03-84 00.66-.54q2.73-5.62 9.15-3.54 1.43.46 3.58 3.68.3.45.84.45l16.94.02q.55 0 .81-.49 3.4-6.29 9.98-3.24c1.3.61 2.05 1.98 2.74 3.17q.33.57.98.56l3.15-.08a1.84 1.83-87.5 001.77-1.63c.28-2.51.82-6.95-2.53-7.62-3.35-.67-6.3-1.73-8.65-4.45q-2.88-3.32-5.61-6.51a4.91 4.9-20.1 00-3.71-1.72l-5.92-.02q-.51 0-.51.52l.06 9.47q0 .76-.77.76zm-1.92-5.04a2.93 2.93 0 00-2.93-2.93 2.93 2.93 0 00-2.93 2.93 2.93 2.93 0 002.93 2.93 2.93 2.93 0 002.93-2.93zm-16.4-.01a2.93 2.93 0 00-2.93-2.93 2.93 2.93 0 00-2.93 2.93 2.93 2.93 0 002.93 2.93 2.93 2.93 0 002.93-2.93zm8.15.05a2.89 2.89 0 00-2.89-2.89 2.89 2.89 0 00-2.89 2.89 2.89 2.89 0 002.89 2.89 2.89 2.89 0 002.89-2.89zm-1.28 18.4a4.6 4.6 0 00-4.6-4.6 4.6 4.6 0 00-4.6 4.6 4.6 4.6 0 004.6 4.6 4.6 4.6 0 004.6-4.6zm31.52.02a4.66 4.66 0 00-4.66-4.66 4.66 4.66 0 00-4.66 4.66 4.66 4.66 0 004.66 4.66 4.66 4.66 0 004.66-4.66z"></path><path fill="#000" d="M32.05 27.72l-.06-9.47q0-.52.51-.52l5.92.02a4.91 4.9-20.1 013.71 1.72q2.73 3.19 5.61 6.51c2.35 2.72 5.3 3.78 8.65 4.45 3.35.67 2.81 5.11 2.53 7.62a1.84 1.83-87.5 01-1.77 1.63l-3.15.08q-.65.01-.98-.56c-.69-1.19-1.44-2.56-2.74-3.17q-6.58-3.05-9.98 3.24-.26.49-.81.49l-16.94-.02q-.54 0-.84-.45-2.15-3.22-3.58-3.68-6.42-2.08-9.15 3.54a1.04 1.03-84 01-.66.54c-1.84.51-3.38-.64-3.35-2.53q.05-3.44.03-6.76a1.85 1.84-.5 011.84-1.86l24.44-.06q.77 0 .77-.76zm4.16-.07a.89.89 0 00.9.89l6.72-.05a.89.89 0 00.67-1.47l-4.83-5.68a.89.89 0 00-.39-.26l-1.85-.65a.89.89 0 00-1.19.84l-.03 6.38z"></path><circle fill="#000" cx="26.43" cy="23.44" r="2.93"></circle><circle fill="#000" cx="10.03" cy="23.43" r="2.93"></circle><circle fill="#000" cx="18.22" cy="23.48" r="2.89"></circle><path d="M36.21 27.65l.03-6.38a.89.89 0 011.19-.84l1.85.65a.89.89 0 01.39.26l4.83 5.68a.89.89 0 01-.67 1.47l-6.72.05a.89.89 0 01-.9-.89zm2.58-3.32a.23.23 0 00-.34.17q-.09.75.14 1.44.18.56.78.59.4.03.72-.18a.51.5-34.3 00.14-.72q-.57-.8-1.44-1.3z"></path><circle fill="#000" cx="15.23" cy="41.88" r="4.6"></circle><circle fill="#000" cx="46.69" cy="41.9" r="4.66"></circle></svg>