<svg data-v-ea210746="" xmlns="http://www.w3.org/2000/svg" fill="#fff" viewBox="0 0 64 64" class="ui-icon max-h-full w-full" style="fill: rgb(156, 110, 175); opacity: 1;"><g fill="#000"><path d="M58.79 50.48a6.58 6.58 0 01-6.58 6.58H11.83a6.58 6.58 0 01-6.58-6.58V9.6a6.58 6.58 0 016.58-6.58h40.38a6.58 6.58 0 016.58 6.58zm-2.3-40.76a4.48 4.48 0 00-4.48-4.48H11.97a4.48 4.48 0 00-4.48 4.48v40.66a4.48 4.48 0 004.48 4.48h40.04a4.48 4.48 0 004.48-4.48z"></path><path d="M21.75 20.61a.96.95 86.7 00.94-1.06c-.22-1.99.4-5.32 3.03-5.29q6.22.06 12.72 0c2.67-.03 3.01 3.79 2.85 5.61a.68.68 0 00.72.74q2.99-.18 5.92.01 2.8.18 2.81 2.93.03 9.81-.05 19.09a2.17 2.17 0 01-2.17 2.15l-32.99.04a2.27 2.27 0 01-2.27-2.27q0-9.16-.02-18.9-.01-3.03 3.22-3.02 2.8.01 5.29-.03m17.18-2.54a1.11 1.11 0 00-1.11-1.11H26.18a1.11 1.11 0 00-1.11 1.11v.86a1.11 1.11 0 001.11 1.11h11.64a1.11 1.11 0 001.11-1.11zm9.04 6.92a2.09 2.09 0 00-2.09-2.09 2.09 2.09 0 00-2.09 2.09 2.09 2.09 0 002.09 2.09 2.09 2.09 0 002.09-2.09m-6.45 7.81a9.53 9.53 0 00-9.53-9.53 9.53 9.53 0 00-9.53 9.53 9.53 9.53 0 009.53 9.53 9.53 9.53 0 009.53-9.53"></path><circle cx="32" cy="32.85" r="6.03"></circle></g><path d="M56.49 50.38a4.48 4.48 0 01-4.48 4.48H11.97a4.48 4.48 0 01-4.48-4.48V9.72a4.48 4.48 0 014.48-4.48h40.04a4.48 4.48 0 014.48 4.48zM21.75 20.61q-2.49.04-5.29.03-3.23-.01-3.22 3.02.02 9.74.02 18.9a2.27 2.27 0 002.27 2.27l32.99-.04a2.17 2.17 0 002.17-2.15q.08-9.28.05-19.09-.01-2.75-2.81-2.93-2.93-.19-5.92-.01a.68.68 0 01-.72-.74c.16-1.82-.18-5.64-2.85-5.61q-6.5.06-12.72 0c-2.63-.03-3.25 3.3-3.03 5.29a.96.95 86.7 01-.94 1.06"></path><rect width="13.86" height="3.08" x="25.07" y="16.96" rx="1.11"></rect><circle cx="45.88" cy="24.99" r="2.09"></circle><path d="M41.52 32.8a9.53 9.53 0 01-9.53 9.53 9.53 9.53 0 01-9.53-9.53 9.53 9.53 0 019.53-9.53 9.53 9.53 0 019.53 9.53m-3.49.05A6.03 6.03 0 0032 26.82a6.03 6.03 0 00-6.03 6.03A6.03 6.03 0 0032 38.88a6.03 6.03 0 006.03-6.03"></path></svg>